<?xml version="1.0" encoding="UTF-8" standalone="no"?>
<!DOCTYPE svg PUBLIC "-//W3C//DTD SVG 1.1//EN"
 "http://www.w3.org/Graphics/SVG/1.1/DTD/svg11.dtd">
<!-- Generated by graphviz version 2.38.0 (20140413.2041)
 -->
<!-- Title: graph_10 Pages: 1 -->
<svg width="114pt" height="134pt"
 viewBox="0.00 0.00 114.00 134.00" xmlns="http://www.w3.org/2000/svg" xmlns:xlink="http://www.w3.org/1999/xlink">
<g id="graph0" class="graph" transform="scale(1 1) rotate(0) translate(4 130)">
<title>graph_10</title>
<polygon fill="white" stroke="none" points="-4,4 -4,-130 110,-130 110,4 -4,4"/>
<!-- terminator -->
<g id="node1" class="node"><title>terminator</title>
<polygon fill="none" stroke="black" points="40,-19.5 40,-25.5 46,-25.5 46,-31.5 28,-31.5 28,-25.5 34,-25.5 34,-19.5 40,-19.5"/>
<polyline fill="none" stroke="black" points="0,-19.5 74,-19.5 "/>
<text text-anchor="middle" x="37" y="-7.8" font-family="Times,serif" font-size="14.00">terminator</text>
</g>
<!-- rpromoter -->
<g id="node2" class="node"><title>rpromoter</title>
<polygon fill="none" stroke="black" points="54.5,-120 1.5,-120 1.5,-90 19.5,-90 19.5,-96 54.5,-96 54.5,-90 72.5,-108 54.5,-126 54.5,-120"/>
<text text-anchor="middle" x="37" y="-104.3" font-family="Times,serif" font-size="14.00">rpromoter</text>
</g>
<!-- rpromoter&#45;&#45;terminator -->
<g id="edge1" class="edge"><title>rpromoter&#45;&#45;terminator</title>
<path fill="none" stroke="green" d="M37,-89.9104C37,-75.2381 37,-54.1318 37,-39.0514"/>
<text text-anchor="middle" x="71.5" y="-60.8" font-family="Times,serif" font-size="14.00">Transformer</text>
</g>
</g>
</svg>
