<?xml version="1.0" encoding="UTF-8" standalone="no"?>
<!DOCTYPE svg PUBLIC "-//W3C//DTD SVG 1.1//EN"
 "http://www.w3.org/Graphics/SVG/1.1/DTD/svg11.dtd">
<!-- Generated by graphviz version 2.38.0 (20140413.2041)
 -->
<!-- Title: graph_14 Pages: 1 -->
<svg width="365pt" height="44pt"
 viewBox="0.00 0.00 364.59 44.00" xmlns="http://www.w3.org/2000/svg" xmlns:xlink="http://www.w3.org/1999/xlink">
<g id="graph0" class="graph" transform="scale(1 1) rotate(0) translate(4 40)">
<title>graph_14</title>
<polygon fill="white" stroke="none" points="-4,4 -4,-40 360.591,-40 360.591,4 -4,4"/>
<!-- node_14_1 -->
<g id="node1" class="node"><title>node_14_1</title>
<polygon fill="none" stroke="red" points="58.2083,-0.0493367 61.461,-0.147875 64.6801,-0.295345 67.8525,-0.491342 70.9651,-0.735329 74.0057,-1.02664 76.9622,-1.36447 79.8231,-1.7479 82.5774,-2.17587 85.2151,-2.64722 87.7265,-3.16064 90.1029,-3.71474 92.3365,-4.308 94.4202,-4.93879 96.3477,-5.60537 98.1138,-6.30593 99.7141,-7.03854 101.145,-7.80119 102.405,-8.5918 103.491,-9.4082 104.403,-10.2481 105.141,-11.1093 105.706,-11.9894 106.1,-12.886 106.326,-13.7965 106.387,-14.7186 106.287,-15.6497 106.03,-16.5873 105.622,-17.5287 105.068,-18.4713 104.374,-19.4127 103.547,-20.3503 102.594,-21.2814 101.522,-22.2035 100.336,-23.114 99.0459,-24.0106 97.6575,-24.8907 96.1781,-25.7519 94.615,-26.5918 92.9751,-27.4082 91.2652,-28.1988 89.4918,-28.9615 87.6612,-29.6941 85.7793,-30.3946 83.8518,-31.0612 81.8839,-31.692 79.8806,-32.2853 77.8465,-32.8394 75.7856,-33.3528 73.7018,-33.8241 71.5986,-34.2521 69.4789,-34.6355 67.3457,-34.9734 65.2013,-35.2647 63.0479,-35.5087 60.8875,-35.7047 58.722,-35.8521 56.5527,-35.9507 54.3814,-36 52.2093,-36 50.038,-35.9507 47.8688,-35.8521 45.7032,-35.7047 43.5428,-35.5087 41.3894,-35.2647 39.245,-34.9734 37.1118,-34.6355 34.9921,-34.2521 32.8889,-33.8241 30.8051,-33.3528 28.7442,-32.8394 26.7101,-32.2853 24.7068,-31.692 22.7389,-31.0612 20.8114,-30.3946 18.9295,-29.6941 17.0989,-28.9615 15.3255,-28.1988 13.6156,-27.4082 11.9757,-26.5918 10.4126,-25.7519 8.93327,-24.8907 7.54479,-24.0106 6.25434,-23.114 5.06916,-22.2035 3.99643,-21.2814 3.04325,-20.3503 2.21655,-19.4127 1.52305,-18.4713 0.969184,-17.5287 0.561015,-16.5873 0.304187,-15.6497 0.203855,-14.7186 0.264622,-13.7965 0.490478,-12.886 0.884745,-11.9894 1.45002,-11.1093 2.18814,-10.2481 3.10013,-9.4082 4.18615,-8.5918 5.44551,-7.80119 6.87661,-7.03854 8.47693,-6.30593 10.243,-5.60537 12.1705,-4.93879 14.2542,-4.308 16.4878,-3.71474 18.8642,-3.16064 21.3757,-2.64722 24.0133,-2.17587 26.7677,-1.7479 29.6285,-1.36447 32.585,-1.02664 35.6256,-0.735329 38.7383,-0.491342 41.9106,-0.295345 45.1297,-0.147875 48.3825,-0.0493367 51.6555,-1.81188e-13 54.9353,-1.84741e-13 58.2083,-0.0493367"/>
<text text-anchor="middle" x="53.2954" y="-14.3" font-family="Times,serif" font-size="14.00" fill="blue">node_14_1</text>
</g>
<!-- node_14_2 -->
<g id="node2" class="node"><title>node_14_2</title>
<polygon fill="none" stroke="red" points="183.208,-0.0493367 186.461,-0.147875 189.68,-0.295345 192.852,-0.491342 195.965,-0.735329 199.006,-1.02664 201.962,-1.36447 204.823,-1.7479 207.577,-2.17587 210.215,-2.64722 212.726,-3.16064 215.103,-3.71474 217.337,-4.308 219.42,-4.93879 221.348,-5.60537 223.114,-6.30593 224.714,-7.03854 226.145,-7.80119 227.405,-8.5918 228.491,-9.4082 229.403,-10.2481 230.141,-11.1093 230.706,-11.9894 231.1,-12.886 231.326,-13.7965 231.387,-14.7186 231.287,-15.6497 231.03,-16.5873 230.622,-17.5287 230.068,-18.4713 229.374,-19.4127 228.547,-20.3503 227.594,-21.2814 226.522,-22.2035 225.336,-23.114 224.046,-24.0106 222.657,-24.8907 221.178,-25.7519 219.615,-26.5918 217.975,-27.4082 216.265,-28.1988 214.492,-28.9615 212.661,-29.6941 210.779,-30.3946 208.852,-31.0612 206.884,-31.692 204.881,-32.2853 202.846,-32.8394 200.786,-33.3528 198.702,-33.8241 196.599,-34.2521 194.479,-34.6355 192.346,-34.9734 190.201,-35.2647 188.048,-35.5087 185.888,-35.7047 183.722,-35.8521 181.553,-35.9507 179.381,-36 177.209,-36 175.038,-35.9507 172.869,-35.8521 170.703,-35.7047 168.543,-35.5087 166.389,-35.2647 164.245,-34.9734 162.112,-34.6355 159.992,-34.2521 157.889,-33.8241 155.805,-33.3528 153.744,-32.8394 151.71,-32.2853 149.707,-31.692 147.739,-31.0612 145.811,-30.3946 143.93,-29.6941 142.099,-28.9615 140.326,-28.1988 138.616,-27.4082 136.976,-26.5918 135.413,-25.7519 133.933,-24.8907 132.545,-24.0106 131.254,-23.114 130.069,-22.2035 128.996,-21.2814 128.043,-20.3503 127.217,-19.4127 126.523,-18.4713 125.969,-17.5287 125.561,-16.5873 125.304,-15.6497 125.204,-14.7186 125.265,-13.7965 125.49,-12.886 125.885,-11.9894 126.45,-11.1093 127.188,-10.2481 128.1,-9.4082 129.186,-8.5918 130.446,-7.80119 131.877,-7.03854 133.477,-6.30593 135.243,-5.60537 137.171,-4.93879 139.254,-4.308 141.488,-3.71474 143.864,-3.16064 146.376,-2.64722 149.013,-2.17587 151.768,-1.7479 154.629,-1.36447 157.585,-1.02664 160.626,-0.735329 163.738,-0.491342 166.911,-0.295345 170.13,-0.147875 173.382,-0.0493367 176.655,-1.81188e-13 179.935,-1.84741e-13 183.208,-0.0493367"/>
<text text-anchor="middle" x="178.295" y="-14.3" font-family="Times,serif" font-size="14.00" fill="blue">node_14_2</text>
</g>
<!-- node_14_3 -->
<g id="node3" class="node"><title>node_14_3</title>
<polygon fill="none" stroke="red" points="308.208,-0.0493367 311.461,-0.147875 314.68,-0.295345 317.852,-0.491342 320.965,-0.735329 324.006,-1.02664 326.962,-1.36447 329.823,-1.7479 332.577,-2.17587 335.215,-2.64722 337.726,-3.16064 340.103,-3.71474 342.337,-4.308 344.42,-4.93879 346.348,-5.60537 348.114,-6.30593 349.714,-7.03854 351.145,-7.80119 352.405,-8.5918 353.491,-9.4082 354.403,-10.2481 355.141,-11.1093 355.706,-11.9894 356.1,-12.886 356.326,-13.7965 356.387,-14.7186 356.287,-15.6497 356.03,-16.5873 355.622,-17.5287 355.068,-18.4713 354.374,-19.4127 353.547,-20.3503 352.594,-21.2814 351.522,-22.2035 350.336,-23.114 349.046,-24.0106 347.657,-24.8907 346.178,-25.7519 344.615,-26.5918 342.975,-27.4082 341.265,-28.1988 339.492,-28.9615 337.661,-29.6941 335.779,-30.3946 333.852,-31.0612 331.884,-31.692 329.881,-32.2853 327.846,-32.8394 325.786,-33.3528 323.702,-33.8241 321.599,-34.2521 319.479,-34.6355 317.346,-34.9734 315.201,-35.2647 313.048,-35.5087 310.888,-35.7047 308.722,-35.8521 306.553,-35.9507 304.381,-36 302.209,-36 300.038,-35.9507 297.869,-35.8521 295.703,-35.7047 293.543,-35.5087 291.389,-35.2647 289.245,-34.9734 287.112,-34.6355 284.992,-34.2521 282.889,-33.8241 280.805,-33.3528 278.744,-32.8394 276.71,-32.2853 274.707,-31.692 272.739,-31.0612 270.811,-30.3946 268.93,-29.6941 267.099,-28.9615 265.326,-28.1988 263.616,-27.4082 261.976,-26.5918 260.413,-25.7519 258.933,-24.8907 257.545,-24.0106 256.254,-23.114 255.069,-22.2035 253.996,-21.2814 253.043,-20.3503 252.217,-19.4127 251.523,-18.4713 250.969,-17.5287 250.561,-16.5873 250.304,-15.6497 250.204,-14.7186 250.265,-13.7965 250.49,-12.886 250.885,-11.9894 251.45,-11.1093 252.188,-10.2481 253.1,-9.4082 254.186,-8.5918 255.446,-7.80119 256.877,-7.03854 258.477,-6.30593 260.243,-5.60537 262.171,-4.93879 264.254,-4.308 266.488,-3.71474 268.864,-3.16064 271.376,-2.64722 274.013,-2.17587 276.768,-1.7479 279.629,-1.36447 282.585,-1.02664 285.626,-0.735329 288.738,-0.491342 291.911,-0.295345 295.13,-0.147875 298.382,-0.0493367 301.655,-1.81188e-13 304.935,-1.84741e-13 308.208,-0.0493367"/>
<text text-anchor="middle" x="303.295" y="-14.3" font-family="Times,serif" font-size="14.00" fill="blue">node_14_3</text>
</g>
</g>
</svg>
