<?xml version="1.0" encoding="UTF-8" standalone="no"?>
<!DOCTYPE svg PUBLIC "-//W3C//DTD SVG 1.1//EN"
 "http://www.w3.org/Graphics/SVG/1.1/DTD/svg11.dtd">
<!-- Generated by graphviz version 2.38.0 (20140413.2041)
 -->
<!-- Title: graph_14 Pages: 1 -->
<svg width="115pt" height="152pt"
 viewBox="0.00 0.00 114.59 152.00" xmlns="http://www.w3.org/2000/svg" xmlns:xlink="http://www.w3.org/1999/xlink">
<g id="graph0" class="graph" transform="scale(1 1) rotate(0) translate(4 148)">
<title>graph_14</title>
<polygon fill="white" stroke="none" points="-4,4 -4,-148 110.591,-148 110.591,4 -4,4"/>
<!-- node_14_1 -->
<g id="node1" class="node"><title>node_14_1</title>
<polygon fill="none" stroke="red" points="58.2083,-0.0493367 61.461,-0.147875 64.6801,-0.295345 67.8525,-0.491342 70.9651,-0.735329 74.0057,-1.02664 76.9622,-1.36447 79.8231,-1.7479 82.5774,-2.17587 85.2151,-2.64722 87.7265,-3.16064 90.1029,-3.71474 92.3365,-4.308 94.4202,-4.93879 96.3477,-5.60537 98.1138,-6.30593 99.7141,-7.03854 101.145,-7.80119 102.405,-8.5918 103.491,-9.4082 104.403,-10.2481 105.141,-11.1093 105.706,-11.9894 106.1,-12.886 106.326,-13.7965 106.387,-14.7186 106.287,-15.6497 106.03,-16.5873 105.622,-17.5287 105.068,-18.4713 104.374,-19.4127 103.547,-20.3503 102.594,-21.2814 101.522,-22.2035 100.336,-23.114 99.0459,-24.0106 97.6575,-24.8907 96.1781,-25.7519 94.615,-26.5918 92.9751,-27.4082 91.2652,-28.1988 89.4918,-28.9615 87.6612,-29.6941 85.7793,-30.3946 83.8518,-31.0612 81.8839,-31.692 79.8806,-32.2853 77.8465,-32.8394 75.7856,-33.3528 73.7018,-33.8241 71.5986,-34.2521 69.4789,-34.6355 67.3457,-34.9734 65.2013,-35.2647 63.0479,-35.5087 60.8875,-35.7047 58.722,-35.8521 56.5527,-35.9507 54.3814,-36 52.2093,-36 50.038,-35.9507 47.8688,-35.8521 45.7032,-35.7047 43.5428,-35.5087 41.3894,-35.2647 39.245,-34.9734 37.1118,-34.6355 34.9921,-34.2521 32.8889,-33.8241 30.8051,-33.3528 28.7442,-32.8394 26.7101,-32.2853 24.7068,-31.692 22.7389,-31.0612 20.8114,-30.3946 18.9295,-29.6941 17.0989,-28.9615 15.3255,-28.1988 13.6156,-27.4082 11.9757,-26.5918 10.4126,-25.7519 8.93327,-24.8907 7.54479,-24.0106 6.25434,-23.114 5.06916,-22.2035 3.99643,-21.2814 3.04325,-20.3503 2.21655,-19.4127 1.52305,-18.4713 0.969184,-17.5287 0.561015,-16.5873 0.304187,-15.6497 0.203855,-14.7186 0.264622,-13.7965 0.490478,-12.886 0.884745,-11.9894 1.45002,-11.1093 2.18814,-10.2481 3.10013,-9.4082 4.18615,-8.5918 5.44551,-7.80119 6.87661,-7.03854 8.47693,-6.30593 10.243,-5.60537 12.1705,-4.93879 14.2542,-4.308 16.4878,-3.71474 18.8642,-3.16064 21.3757,-2.64722 24.0133,-2.17587 26.7677,-1.7479 29.6285,-1.36447 32.585,-1.02664 35.6256,-0.735329 38.7383,-0.491342 41.9106,-0.295345 45.1297,-0.147875 48.3825,-0.0493367 51.6555,-1.81188e-13 54.9353,-1.84741e-13 58.2083,-0.0493367"/>
<text text-anchor="middle" x="53.2954" y="-14.3" font-family="Times,serif" font-size="14.00" fill="blue">node_14_1</text>
</g>
<!-- node_14_2 -->
<g id="node2" class="node"><title>node_14_2</title>
<polygon fill="none" stroke="red" points="58.2083,-54.0493 61.461,-54.1479 64.6801,-54.2953 67.8525,-54.4913 70.9651,-54.7353 74.0057,-55.0266 76.9622,-55.3645 79.8231,-55.7479 82.5774,-56.1759 85.2151,-56.6472 87.7265,-57.1606 90.1029,-57.7147 92.3365,-58.308 94.4202,-58.9388 96.3477,-59.6054 98.1138,-60.3059 99.7141,-61.0385 101.145,-61.8012 102.405,-62.5918 103.491,-63.4082 104.403,-64.2481 105.141,-65.1093 105.706,-65.9894 106.1,-66.886 106.326,-67.7965 106.387,-68.7186 106.287,-69.6497 106.03,-70.5873 105.622,-71.5287 105.068,-72.4713 104.374,-73.4127 103.547,-74.3503 102.594,-75.2814 101.522,-76.2035 100.336,-77.114 99.0459,-78.0106 97.6575,-78.8907 96.1781,-79.7519 94.615,-80.5918 92.9751,-81.4082 91.2652,-82.1988 89.4918,-82.9615 87.6612,-83.6941 85.7793,-84.3946 83.8518,-85.0612 81.8839,-85.692 79.8806,-86.2853 77.8465,-86.8394 75.7856,-87.3528 73.7018,-87.8241 71.5986,-88.2521 69.4789,-88.6355 67.3457,-88.9734 65.2013,-89.2647 63.0479,-89.5087 60.8875,-89.7047 58.722,-89.8521 56.5527,-89.9507 54.3814,-90 52.2093,-90 50.038,-89.9507 47.8688,-89.8521 45.7032,-89.7047 43.5428,-89.5087 41.3894,-89.2647 39.245,-88.9734 37.1118,-88.6355 34.9921,-88.2521 32.8889,-87.8241 30.8051,-87.3528 28.7442,-86.8394 26.7101,-86.2853 24.7068,-85.692 22.7389,-85.0612 20.8114,-84.3946 18.9295,-83.6941 17.0989,-82.9615 15.3255,-82.1988 13.6156,-81.4082 11.9757,-80.5918 10.4126,-79.7519 8.93327,-78.8907 7.54479,-78.0106 6.25434,-77.114 5.06916,-76.2035 3.99643,-75.2814 3.04325,-74.3503 2.21655,-73.4127 1.52305,-72.4713 0.969184,-71.5287 0.561015,-70.5873 0.304187,-69.6497 0.203855,-68.7186 0.264622,-67.7965 0.490478,-66.886 0.884745,-65.9894 1.45002,-65.1093 2.18814,-64.2481 3.10013,-63.4082 4.18615,-62.5918 5.44551,-61.8012 6.87661,-61.0385 8.47693,-60.3059 10.243,-59.6054 12.1705,-58.9388 14.2542,-58.308 16.4878,-57.7147 18.8642,-57.1606 21.3757,-56.6472 24.0133,-56.1759 26.7677,-55.7479 29.6285,-55.3645 32.585,-55.0266 35.6256,-54.7353 38.7383,-54.4913 41.9106,-54.2953 45.1297,-54.1479 48.3825,-54.0493 51.6555,-54 54.9353,-54 58.2083,-54.0493"/>
<text text-anchor="middle" x="53.2954" y="-68.3" font-family="Times,serif" font-size="14.00" fill="blue">node_14_2</text>
</g>
<!-- node_14_3 -->
<g id="node3" class="node"><title>node_14_3</title>
<polygon fill="none" stroke="red" points="58.2083,-108.049 61.461,-108.148 64.6801,-108.295 67.8525,-108.491 70.9651,-108.735 74.0057,-109.027 76.9622,-109.364 79.8231,-109.748 82.5774,-110.176 85.2151,-110.647 87.7265,-111.161 90.1029,-111.715 92.3365,-112.308 94.4202,-112.939 96.3477,-113.605 98.1138,-114.306 99.7141,-115.039 101.145,-115.801 102.405,-116.592 103.491,-117.408 104.403,-118.248 105.141,-119.109 105.706,-119.989 106.1,-120.886 106.326,-121.797 106.387,-122.719 106.287,-123.65 106.03,-124.587 105.622,-125.529 105.068,-126.471 104.374,-127.413 103.547,-128.35 102.594,-129.281 101.522,-130.203 100.336,-131.114 99.0459,-132.011 97.6575,-132.891 96.1781,-133.752 94.615,-134.592 92.9751,-135.408 91.2652,-136.199 89.4918,-136.961 87.6612,-137.694 85.7793,-138.395 83.8518,-139.061 81.8839,-139.692 79.8806,-140.285 77.8465,-140.839 75.7856,-141.353 73.7018,-141.824 71.5986,-142.252 69.4789,-142.636 67.3457,-142.973 65.2013,-143.265 63.0479,-143.509 60.8875,-143.705 58.722,-143.852 56.5527,-143.951 54.3814,-144 52.2093,-144 50.038,-143.951 47.8688,-143.852 45.7032,-143.705 43.5428,-143.509 41.3894,-143.265 39.245,-142.973 37.1118,-142.636 34.9921,-142.252 32.8889,-141.824 30.8051,-141.353 28.7442,-140.839 26.7101,-140.285 24.7068,-139.692 22.7389,-139.061 20.8114,-138.395 18.9295,-137.694 17.0989,-136.961 15.3255,-136.199 13.6156,-135.408 11.9757,-134.592 10.4126,-133.752 8.93327,-132.891 7.54479,-132.011 6.25434,-131.114 5.06916,-130.203 3.99643,-129.281 3.04325,-128.35 2.21655,-127.413 1.52305,-126.471 0.969184,-125.529 0.561015,-124.587 0.304187,-123.65 0.203855,-122.719 0.264622,-121.797 0.490478,-120.886 0.884745,-119.989 1.45002,-119.109 2.18814,-118.248 3.10013,-117.408 4.18615,-116.592 5.44551,-115.801 6.87661,-115.039 8.47693,-114.306 10.243,-113.605 12.1705,-112.939 14.2542,-112.308 16.4878,-111.715 18.8642,-111.161 21.3757,-110.647 24.0133,-110.176 26.7677,-109.748 29.6285,-109.364 32.585,-109.027 35.6256,-108.735 38.7383,-108.491 41.9106,-108.295 45.1297,-108.148 48.3825,-108.049 51.6555,-108 54.9353,-108 58.2083,-108.049"/>
<text text-anchor="middle" x="53.2954" y="-122.3" font-family="Times,serif" font-size="14.00" fill="blue">node_14_3</text>
</g>
</g>
</svg>
