<?xml version="1.0" encoding="UTF-8" standalone="no"?>
<!DOCTYPE svg PUBLIC "-//W3C//DTD SVG 1.1//EN"
 "http://www.w3.org/Graphics/SVG/1.1/DTD/svg11.dtd">
<!-- Generated by graphviz version 2.38.0 (20140413.2041)
 -->
<!-- Title: graph_14 Pages: 1 -->
<svg width="1647pt" height="44pt"
 viewBox="0.00 0.00 1646.74 44.00" xmlns="http://www.w3.org/2000/svg" xmlns:xlink="http://www.w3.org/1999/xlink">
<g id="graph0" class="graph" transform="scale(1 1) rotate(0) translate(4 40)">
<title>graph_14</title>
<polygon fill="white" stroke="none" points="-4,4 -4,-40 1642.74,-40 1642.74,4 -4,4"/>
<!-- node_14_1 -->
<g id="node1" class="node"><title>node_14_1</title>
<polygon fill="none" stroke="red" points="58.2083,-0.0493367 61.461,-0.147875 64.6801,-0.295345 67.8525,-0.491342 70.9651,-0.735329 74.0057,-1.02664 76.9622,-1.36447 79.8231,-1.7479 82.5774,-2.17587 85.2151,-2.64722 87.7265,-3.16064 90.1029,-3.71474 92.3365,-4.308 94.4202,-4.93879 96.3477,-5.60537 98.1138,-6.30593 99.7141,-7.03854 101.145,-7.80119 102.405,-8.5918 103.491,-9.4082 104.403,-10.2481 105.141,-11.1093 105.706,-11.9894 106.1,-12.886 106.326,-13.7965 106.387,-14.7186 106.287,-15.6497 106.03,-16.5873 105.622,-17.5287 105.068,-18.4713 104.374,-19.4127 103.547,-20.3503 102.594,-21.2814 101.522,-22.2035 100.336,-23.114 99.0459,-24.0106 97.6575,-24.8907 96.1781,-25.7519 94.615,-26.5918 92.9751,-27.4082 91.2652,-28.1988 89.4918,-28.9615 87.6612,-29.6941 85.7793,-30.3946 83.8518,-31.0612 81.8839,-31.692 79.8806,-32.2853 77.8465,-32.8394 75.7856,-33.3528 73.7018,-33.8241 71.5986,-34.2521 69.4789,-34.6355 67.3457,-34.9734 65.2013,-35.2647 63.0479,-35.5087 60.8875,-35.7047 58.722,-35.8521 56.5527,-35.9507 54.3814,-36 52.2093,-36 50.038,-35.9507 47.8688,-35.8521 45.7032,-35.7047 43.5428,-35.5087 41.3894,-35.2647 39.245,-34.9734 37.1118,-34.6355 34.9921,-34.2521 32.8889,-33.8241 30.8051,-33.3528 28.7442,-32.8394 26.7101,-32.2853 24.7068,-31.692 22.7389,-31.0612 20.8114,-30.3946 18.9295,-29.6941 17.0989,-28.9615 15.3255,-28.1988 13.6156,-27.4082 11.9757,-26.5918 10.4126,-25.7519 8.93327,-24.8907 7.54479,-24.0106 6.25434,-23.114 5.06916,-22.2035 3.99643,-21.2814 3.04325,-20.3503 2.21655,-19.4127 1.52305,-18.4713 0.969184,-17.5287 0.561015,-16.5873 0.304187,-15.6497 0.203855,-14.7186 0.264622,-13.7965 0.490478,-12.886 0.884745,-11.9894 1.45002,-11.1093 2.18814,-10.2481 3.10013,-9.4082 4.18615,-8.5918 5.44551,-7.80119 6.87661,-7.03854 8.47693,-6.30593 10.243,-5.60537 12.1705,-4.93879 14.2542,-4.308 16.4878,-3.71474 18.8642,-3.16064 21.3757,-2.64722 24.0133,-2.17587 26.7677,-1.7479 29.6285,-1.36447 32.585,-1.02664 35.6256,-0.735329 38.7383,-0.491342 41.9106,-0.295345 45.1297,-0.147875 48.3825,-0.0493367 51.6555,-1.81188e-13 54.9353,-1.84741e-13 58.2083,-0.0493367"/>
<text text-anchor="middle" x="53.2954" y="-14.3" font-family="Times,serif" font-size="14.00" fill="blue">node_14_1</text>
</g>
<!-- node_14_2 -->
<g id="node2" class="node"><title>node_14_2</title>
<polygon fill="none" stroke="red" points="183.208,-0.0493367 186.461,-0.147875 189.68,-0.295345 192.852,-0.491342 195.965,-0.735329 199.006,-1.02664 201.962,-1.36447 204.823,-1.7479 207.577,-2.17587 210.215,-2.64722 212.726,-3.16064 215.103,-3.71474 217.337,-4.308 219.42,-4.93879 221.348,-5.60537 223.114,-6.30593 224.714,-7.03854 226.145,-7.80119 227.405,-8.5918 228.491,-9.4082 229.403,-10.2481 230.141,-11.1093 230.706,-11.9894 231.1,-12.886 231.326,-13.7965 231.387,-14.7186 231.287,-15.6497 231.03,-16.5873 230.622,-17.5287 230.068,-18.4713 229.374,-19.4127 228.547,-20.3503 227.594,-21.2814 226.522,-22.2035 225.336,-23.114 224.046,-24.0106 222.657,-24.8907 221.178,-25.7519 219.615,-26.5918 217.975,-27.4082 216.265,-28.1988 214.492,-28.9615 212.661,-29.6941 210.779,-30.3946 208.852,-31.0612 206.884,-31.692 204.881,-32.2853 202.846,-32.8394 200.786,-33.3528 198.702,-33.8241 196.599,-34.2521 194.479,-34.6355 192.346,-34.9734 190.201,-35.2647 188.048,-35.5087 185.888,-35.7047 183.722,-35.8521 181.553,-35.9507 179.381,-36 177.209,-36 175.038,-35.9507 172.869,-35.8521 170.703,-35.7047 168.543,-35.5087 166.389,-35.2647 164.245,-34.9734 162.112,-34.6355 159.992,-34.2521 157.889,-33.8241 155.805,-33.3528 153.744,-32.8394 151.71,-32.2853 149.707,-31.692 147.739,-31.0612 145.811,-30.3946 143.93,-29.6941 142.099,-28.9615 140.326,-28.1988 138.616,-27.4082 136.976,-26.5918 135.413,-25.7519 133.933,-24.8907 132.545,-24.0106 131.254,-23.114 130.069,-22.2035 128.996,-21.2814 128.043,-20.3503 127.217,-19.4127 126.523,-18.4713 125.969,-17.5287 125.561,-16.5873 125.304,-15.6497 125.204,-14.7186 125.265,-13.7965 125.49,-12.886 125.885,-11.9894 126.45,-11.1093 127.188,-10.2481 128.1,-9.4082 129.186,-8.5918 130.446,-7.80119 131.877,-7.03854 133.477,-6.30593 135.243,-5.60537 137.171,-4.93879 139.254,-4.308 141.488,-3.71474 143.864,-3.16064 146.376,-2.64722 149.013,-2.17587 151.768,-1.7479 154.629,-1.36447 157.585,-1.02664 160.626,-0.735329 163.738,-0.491342 166.911,-0.295345 170.13,-0.147875 173.382,-0.0493367 176.655,-1.81188e-13 179.935,-1.84741e-13 183.208,-0.0493367"/>
<text text-anchor="middle" x="178.295" y="-14.3" font-family="Times,serif" font-size="14.00" fill="blue">node_14_2</text>
</g>
<!-- node_14_3 -->
<g id="node3" class="node"><title>node_14_3</title>
<polygon fill="none" stroke="red" points="308.208,-0.0493367 311.461,-0.147875 314.68,-0.295345 317.852,-0.491342 320.965,-0.735329 324.006,-1.02664 326.962,-1.36447 329.823,-1.7479 332.577,-2.17587 335.215,-2.64722 337.726,-3.16064 340.103,-3.71474 342.337,-4.308 344.42,-4.93879 346.348,-5.60537 348.114,-6.30593 349.714,-7.03854 351.145,-7.80119 352.405,-8.5918 353.491,-9.4082 354.403,-10.2481 355.141,-11.1093 355.706,-11.9894 356.1,-12.886 356.326,-13.7965 356.387,-14.7186 356.287,-15.6497 356.03,-16.5873 355.622,-17.5287 355.068,-18.4713 354.374,-19.4127 353.547,-20.3503 352.594,-21.2814 351.522,-22.2035 350.336,-23.114 349.046,-24.0106 347.657,-24.8907 346.178,-25.7519 344.615,-26.5918 342.975,-27.4082 341.265,-28.1988 339.492,-28.9615 337.661,-29.6941 335.779,-30.3946 333.852,-31.0612 331.884,-31.692 329.881,-32.2853 327.846,-32.8394 325.786,-33.3528 323.702,-33.8241 321.599,-34.2521 319.479,-34.6355 317.346,-34.9734 315.201,-35.2647 313.048,-35.5087 310.888,-35.7047 308.722,-35.8521 306.553,-35.9507 304.381,-36 302.209,-36 300.038,-35.9507 297.869,-35.8521 295.703,-35.7047 293.543,-35.5087 291.389,-35.2647 289.245,-34.9734 287.112,-34.6355 284.992,-34.2521 282.889,-33.8241 280.805,-33.3528 278.744,-32.8394 276.71,-32.2853 274.707,-31.692 272.739,-31.0612 270.811,-30.3946 268.93,-29.6941 267.099,-28.9615 265.326,-28.1988 263.616,-27.4082 261.976,-26.5918 260.413,-25.7519 258.933,-24.8907 257.545,-24.0106 256.254,-23.114 255.069,-22.2035 253.996,-21.2814 253.043,-20.3503 252.217,-19.4127 251.523,-18.4713 250.969,-17.5287 250.561,-16.5873 250.304,-15.6497 250.204,-14.7186 250.265,-13.7965 250.49,-12.886 250.885,-11.9894 251.45,-11.1093 252.188,-10.2481 253.1,-9.4082 254.186,-8.5918 255.446,-7.80119 256.877,-7.03854 258.477,-6.30593 260.243,-5.60537 262.171,-4.93879 264.254,-4.308 266.488,-3.71474 268.864,-3.16064 271.376,-2.64722 274.013,-2.17587 276.768,-1.7479 279.629,-1.36447 282.585,-1.02664 285.626,-0.735329 288.738,-0.491342 291.911,-0.295345 295.13,-0.147875 298.382,-0.0493367 301.655,-1.81188e-13 304.935,-1.84741e-13 308.208,-0.0493367"/>
<text text-anchor="middle" x="303.295" y="-14.3" font-family="Times,serif" font-size="14.00" fill="blue">node_14_3</text>
</g>
<!-- node_14_4 -->
<g id="node4" class="node"><title>node_14_4</title>
<polygon fill="none" stroke="red" points="433.208,-0.0493367 436.461,-0.147875 439.68,-0.295345 442.852,-0.491342 445.965,-0.735329 449.006,-1.02664 451.962,-1.36447 454.823,-1.7479 457.577,-2.17587 460.215,-2.64722 462.726,-3.16064 465.103,-3.71474 467.337,-4.308 469.42,-4.93879 471.348,-5.60537 473.114,-6.30593 474.714,-7.03854 476.145,-7.80119 477.405,-8.5918 478.491,-9.4082 479.403,-10.2481 480.141,-11.1093 480.706,-11.9894 481.1,-12.886 481.326,-13.7965 481.387,-14.7186 481.287,-15.6497 481.03,-16.5873 480.622,-17.5287 480.068,-18.4713 479.374,-19.4127 478.547,-20.3503 477.594,-21.2814 476.522,-22.2035 475.336,-23.114 474.046,-24.0106 472.657,-24.8907 471.178,-25.7519 469.615,-26.5918 467.975,-27.4082 466.265,-28.1988 464.492,-28.9615 462.661,-29.6941 460.779,-30.3946 458.852,-31.0612 456.884,-31.692 454.881,-32.2853 452.846,-32.8394 450.786,-33.3528 448.702,-33.8241 446.599,-34.2521 444.479,-34.6355 442.346,-34.9734 440.201,-35.2647 438.048,-35.5087 435.888,-35.7047 433.722,-35.8521 431.553,-35.9507 429.381,-36 427.209,-36 425.038,-35.9507 422.869,-35.8521 420.703,-35.7047 418.543,-35.5087 416.389,-35.2647 414.245,-34.9734 412.112,-34.6355 409.992,-34.2521 407.889,-33.8241 405.805,-33.3528 403.744,-32.8394 401.71,-32.2853 399.707,-31.692 397.739,-31.0612 395.811,-30.3946 393.93,-29.6941 392.099,-28.9615 390.326,-28.1988 388.616,-27.4082 386.976,-26.5918 385.413,-25.7519 383.933,-24.8907 382.545,-24.0106 381.254,-23.114 380.069,-22.2035 378.996,-21.2814 378.043,-20.3503 377.217,-19.4127 376.523,-18.4713 375.969,-17.5287 375.561,-16.5873 375.304,-15.6497 375.204,-14.7186 375.265,-13.7965 375.49,-12.886 375.885,-11.9894 376.45,-11.1093 377.188,-10.2481 378.1,-9.4082 379.186,-8.5918 380.446,-7.80119 381.877,-7.03854 383.477,-6.30593 385.243,-5.60537 387.171,-4.93879 389.254,-4.308 391.488,-3.71474 393.864,-3.16064 396.376,-2.64722 399.013,-2.17587 401.768,-1.7479 404.629,-1.36447 407.585,-1.02664 410.626,-0.735329 413.738,-0.491342 416.911,-0.295345 420.13,-0.147875 423.382,-0.0493367 426.655,-1.81188e-13 429.935,-1.84741e-13 433.208,-0.0493367"/>
<text text-anchor="middle" x="428.295" y="-14.3" font-family="Times,serif" font-size="14.00" fill="blue">node_14_4</text>
</g>
<!-- node_14_5 -->
<g id="node5" class="node"><title>node_14_5</title>
<polygon fill="none" stroke="red" points="558.208,-0.0493367 561.461,-0.147875 564.68,-0.295345 567.852,-0.491342 570.965,-0.735329 574.006,-1.02664 576.962,-1.36447 579.823,-1.7479 582.577,-2.17587 585.215,-2.64722 587.726,-3.16064 590.103,-3.71474 592.337,-4.308 594.42,-4.93879 596.348,-5.60537 598.114,-6.30593 599.714,-7.03854 601.145,-7.80119 602.405,-8.5918 603.491,-9.4082 604.403,-10.2481 605.141,-11.1093 605.706,-11.9894 606.1,-12.886 606.326,-13.7965 606.387,-14.7186 606.287,-15.6497 606.03,-16.5873 605.622,-17.5287 605.068,-18.4713 604.374,-19.4127 603.547,-20.3503 602.594,-21.2814 601.522,-22.2035 600.336,-23.114 599.046,-24.0106 597.657,-24.8907 596.178,-25.7519 594.615,-26.5918 592.975,-27.4082 591.265,-28.1988 589.492,-28.9615 587.661,-29.6941 585.779,-30.3946 583.852,-31.0612 581.884,-31.692 579.881,-32.2853 577.846,-32.8394 575.786,-33.3528 573.702,-33.8241 571.599,-34.2521 569.479,-34.6355 567.346,-34.9734 565.201,-35.2647 563.048,-35.5087 560.888,-35.7047 558.722,-35.8521 556.553,-35.9507 554.381,-36 552.209,-36 550.038,-35.9507 547.869,-35.8521 545.703,-35.7047 543.543,-35.5087 541.389,-35.2647 539.245,-34.9734 537.112,-34.6355 534.992,-34.2521 532.889,-33.8241 530.805,-33.3528 528.744,-32.8394 526.71,-32.2853 524.707,-31.692 522.739,-31.0612 520.811,-30.3946 518.93,-29.6941 517.099,-28.9615 515.326,-28.1988 513.616,-27.4082 511.976,-26.5918 510.413,-25.7519 508.933,-24.8907 507.545,-24.0106 506.254,-23.114 505.069,-22.2035 503.996,-21.2814 503.043,-20.3503 502.217,-19.4127 501.523,-18.4713 500.969,-17.5287 500.561,-16.5873 500.304,-15.6497 500.204,-14.7186 500.265,-13.7965 500.49,-12.886 500.885,-11.9894 501.45,-11.1093 502.188,-10.2481 503.1,-9.4082 504.186,-8.5918 505.446,-7.80119 506.877,-7.03854 508.477,-6.30593 510.243,-5.60537 512.171,-4.93879 514.254,-4.308 516.488,-3.71474 518.864,-3.16064 521.376,-2.64722 524.013,-2.17587 526.768,-1.7479 529.629,-1.36447 532.585,-1.02664 535.626,-0.735329 538.738,-0.491342 541.911,-0.295345 545.13,-0.147875 548.382,-0.0493367 551.655,-1.81188e-13 554.935,-1.84741e-13 558.208,-0.0493367"/>
<text text-anchor="middle" x="553.295" y="-14.3" font-family="Times,serif" font-size="14.00" fill="blue">node_14_5</text>
</g>
<!-- node_14_6 -->
<g id="node6" class="node"><title>node_14_6</title>
<polygon fill="none" stroke="red" points="683.208,-0.0493367 686.461,-0.147875 689.68,-0.295345 692.852,-0.491342 695.965,-0.735329 699.006,-1.02664 701.962,-1.36447 704.823,-1.7479 707.577,-2.17587 710.215,-2.64722 712.726,-3.16064 715.103,-3.71474 717.337,-4.308 719.42,-4.93879 721.348,-5.60537 723.114,-6.30593 724.714,-7.03854 726.145,-7.80119 727.405,-8.5918 728.491,-9.4082 729.403,-10.2481 730.141,-11.1093 730.706,-11.9894 731.1,-12.886 731.326,-13.7965 731.387,-14.7186 731.287,-15.6497 731.03,-16.5873 730.622,-17.5287 730.068,-18.4713 729.374,-19.4127 728.547,-20.3503 727.594,-21.2814 726.522,-22.2035 725.336,-23.114 724.046,-24.0106 722.657,-24.8907 721.178,-25.7519 719.615,-26.5918 717.975,-27.4082 716.265,-28.1988 714.492,-28.9615 712.661,-29.6941 710.779,-30.3946 708.852,-31.0612 706.884,-31.692 704.881,-32.2853 702.846,-32.8394 700.786,-33.3528 698.702,-33.8241 696.599,-34.2521 694.479,-34.6355 692.346,-34.9734 690.201,-35.2647 688.048,-35.5087 685.888,-35.7047 683.722,-35.8521 681.553,-35.9507 679.381,-36 677.209,-36 675.038,-35.9507 672.869,-35.8521 670.703,-35.7047 668.543,-35.5087 666.389,-35.2647 664.245,-34.9734 662.112,-34.6355 659.992,-34.2521 657.889,-33.8241 655.805,-33.3528 653.744,-32.8394 651.71,-32.2853 649.707,-31.692 647.739,-31.0612 645.811,-30.3946 643.93,-29.6941 642.099,-28.9615 640.326,-28.1988 638.616,-27.4082 636.976,-26.5918 635.413,-25.7519 633.933,-24.8907 632.545,-24.0106 631.254,-23.114 630.069,-22.2035 628.996,-21.2814 628.043,-20.3503 627.217,-19.4127 626.523,-18.4713 625.969,-17.5287 625.561,-16.5873 625.304,-15.6497 625.204,-14.7186 625.265,-13.7965 625.49,-12.886 625.885,-11.9894 626.45,-11.1093 627.188,-10.2481 628.1,-9.4082 629.186,-8.5918 630.446,-7.80119 631.877,-7.03854 633.477,-6.30593 635.243,-5.60537 637.171,-4.93879 639.254,-4.308 641.488,-3.71474 643.864,-3.16064 646.376,-2.64722 649.013,-2.17587 651.768,-1.7479 654.629,-1.36447 657.585,-1.02664 660.626,-0.735329 663.738,-0.491342 666.911,-0.295345 670.13,-0.147875 673.382,-0.0493367 676.655,-1.81188e-13 679.935,-1.84741e-13 683.208,-0.0493367"/>
<text text-anchor="middle" x="678.295" y="-14.3" font-family="Times,serif" font-size="14.00" fill="blue">node_14_6</text>
</g>
<!-- node_14_7 -->
<g id="node7" class="node"><title>node_14_7</title>
<polygon fill="none" stroke="red" points="808.208,-0.0493367 811.461,-0.147875 814.68,-0.295345 817.852,-0.491342 820.965,-0.735329 824.006,-1.02664 826.962,-1.36447 829.823,-1.7479 832.577,-2.17587 835.215,-2.64722 837.726,-3.16064 840.103,-3.71474 842.337,-4.308 844.42,-4.93879 846.348,-5.60537 848.114,-6.30593 849.714,-7.03854 851.145,-7.80119 852.405,-8.5918 853.491,-9.4082 854.403,-10.2481 855.141,-11.1093 855.706,-11.9894 856.1,-12.886 856.326,-13.7965 856.387,-14.7186 856.287,-15.6497 856.03,-16.5873 855.622,-17.5287 855.068,-18.4713 854.374,-19.4127 853.547,-20.3503 852.594,-21.2814 851.522,-22.2035 850.336,-23.114 849.046,-24.0106 847.657,-24.8907 846.178,-25.7519 844.615,-26.5918 842.975,-27.4082 841.265,-28.1988 839.492,-28.9615 837.661,-29.6941 835.779,-30.3946 833.852,-31.0612 831.884,-31.692 829.881,-32.2853 827.846,-32.8394 825.786,-33.3528 823.702,-33.8241 821.599,-34.2521 819.479,-34.6355 817.346,-34.9734 815.201,-35.2647 813.048,-35.5087 810.888,-35.7047 808.722,-35.8521 806.553,-35.9507 804.381,-36 802.209,-36 800.038,-35.9507 797.869,-35.8521 795.703,-35.7047 793.543,-35.5087 791.389,-35.2647 789.245,-34.9734 787.112,-34.6355 784.992,-34.2521 782.889,-33.8241 780.805,-33.3528 778.744,-32.8394 776.71,-32.2853 774.707,-31.692 772.739,-31.0612 770.811,-30.3946 768.93,-29.6941 767.099,-28.9615 765.326,-28.1988 763.616,-27.4082 761.976,-26.5918 760.413,-25.7519 758.933,-24.8907 757.545,-24.0106 756.254,-23.114 755.069,-22.2035 753.996,-21.2814 753.043,-20.3503 752.217,-19.4127 751.523,-18.4713 750.969,-17.5287 750.561,-16.5873 750.304,-15.6497 750.204,-14.7186 750.265,-13.7965 750.49,-12.886 750.885,-11.9894 751.45,-11.1093 752.188,-10.2481 753.1,-9.4082 754.186,-8.5918 755.446,-7.80119 756.877,-7.03854 758.477,-6.30593 760.243,-5.60537 762.171,-4.93879 764.254,-4.308 766.488,-3.71474 768.864,-3.16064 771.376,-2.64722 774.013,-2.17587 776.768,-1.7479 779.629,-1.36447 782.585,-1.02664 785.626,-0.735329 788.738,-0.491342 791.911,-0.295345 795.13,-0.147875 798.382,-0.0493367 801.655,-1.81188e-13 804.935,-1.84741e-13 808.208,-0.0493367"/>
<text text-anchor="middle" x="803.295" y="-14.3" font-family="Times,serif" font-size="14.00" fill="blue">node_14_7</text>
</g>
<!-- node_14_8 -->
<g id="node8" class="node"><title>node_14_8</title>
<polygon fill="none" stroke="red" points="933.208,-0.0493367 936.461,-0.147875 939.68,-0.295345 942.852,-0.491342 945.965,-0.735329 949.006,-1.02664 951.962,-1.36447 954.823,-1.7479 957.577,-2.17587 960.215,-2.64722 962.726,-3.16064 965.103,-3.71474 967.337,-4.308 969.42,-4.93879 971.348,-5.60537 973.114,-6.30593 974.714,-7.03854 976.145,-7.80119 977.405,-8.5918 978.491,-9.4082 979.403,-10.2481 980.141,-11.1093 980.706,-11.9894 981.1,-12.886 981.326,-13.7965 981.387,-14.7186 981.287,-15.6497 981.03,-16.5873 980.622,-17.5287 980.068,-18.4713 979.374,-19.4127 978.547,-20.3503 977.594,-21.2814 976.522,-22.2035 975.336,-23.114 974.046,-24.0106 972.657,-24.8907 971.178,-25.7519 969.615,-26.5918 967.975,-27.4082 966.265,-28.1988 964.492,-28.9615 962.661,-29.6941 960.779,-30.3946 958.852,-31.0612 956.884,-31.692 954.881,-32.2853 952.846,-32.8394 950.786,-33.3528 948.702,-33.8241 946.599,-34.2521 944.479,-34.6355 942.346,-34.9734 940.201,-35.2647 938.048,-35.5087 935.888,-35.7047 933.722,-35.8521 931.553,-35.9507 929.381,-36 927.209,-36 925.038,-35.9507 922.869,-35.8521 920.703,-35.7047 918.543,-35.5087 916.389,-35.2647 914.245,-34.9734 912.112,-34.6355 909.992,-34.2521 907.889,-33.8241 905.805,-33.3528 903.744,-32.8394 901.71,-32.2853 899.707,-31.692 897.739,-31.0612 895.811,-30.3946 893.93,-29.6941 892.099,-28.9615 890.326,-28.1988 888.616,-27.4082 886.976,-26.5918 885.413,-25.7519 883.933,-24.8907 882.545,-24.0106 881.254,-23.114 880.069,-22.2035 878.996,-21.2814 878.043,-20.3503 877.217,-19.4127 876.523,-18.4713 875.969,-17.5287 875.561,-16.5873 875.304,-15.6497 875.204,-14.7186 875.265,-13.7965 875.49,-12.886 875.885,-11.9894 876.45,-11.1093 877.188,-10.2481 878.1,-9.4082 879.186,-8.5918 880.446,-7.80119 881.877,-7.03854 883.477,-6.30593 885.243,-5.60537 887.171,-4.93879 889.254,-4.308 891.488,-3.71474 893.864,-3.16064 896.376,-2.64722 899.013,-2.17587 901.768,-1.7479 904.629,-1.36447 907.585,-1.02664 910.626,-0.735329 913.738,-0.491342 916.911,-0.295345 920.13,-0.147875 923.382,-0.0493367 926.655,-1.81188e-13 929.935,-1.84741e-13 933.208,-0.0493367"/>
<text text-anchor="middle" x="928.295" y="-14.3" font-family="Times,serif" font-size="14.00" fill="blue">node_14_8</text>
</g>
<!-- node_14_9 -->
<g id="node9" class="node"><title>node_14_9</title>
<polygon fill="none" stroke="red" points="1058.21,-0.0493367 1061.46,-0.147875 1064.68,-0.295345 1067.85,-0.491342 1070.97,-0.735329 1074.01,-1.02664 1076.96,-1.36447 1079.82,-1.7479 1082.58,-2.17587 1085.22,-2.64722 1087.73,-3.16064 1090.1,-3.71474 1092.34,-4.308 1094.42,-4.93879 1096.35,-5.60537 1098.11,-6.30593 1099.71,-7.03854 1101.15,-7.80119 1102.4,-8.5918 1103.49,-9.4082 1104.4,-10.2481 1105.14,-11.1093 1105.71,-11.9894 1106.1,-12.886 1106.33,-13.7965 1106.39,-14.7186 1106.29,-15.6497 1106.03,-16.5873 1105.62,-17.5287 1105.07,-18.4713 1104.37,-19.4127 1103.55,-20.3503 1102.59,-21.2814 1101.52,-22.2035 1100.34,-23.114 1099.05,-24.0106 1097.66,-24.8907 1096.18,-25.7519 1094.62,-26.5918 1092.98,-27.4082 1091.27,-28.1988 1089.49,-28.9615 1087.66,-29.6941 1085.78,-30.3946 1083.85,-31.0612 1081.88,-31.692 1079.88,-32.2853 1077.85,-32.8394 1075.79,-33.3528 1073.7,-33.8241 1071.6,-34.2521 1069.48,-34.6355 1067.35,-34.9734 1065.2,-35.2647 1063.05,-35.5087 1060.89,-35.7047 1058.72,-35.8521 1056.55,-35.9507 1054.38,-36 1052.21,-36 1050.04,-35.9507 1047.87,-35.8521 1045.7,-35.7047 1043.54,-35.5087 1041.39,-35.2647 1039.25,-34.9734 1037.11,-34.6355 1034.99,-34.2521 1032.89,-33.8241 1030.81,-33.3528 1028.74,-32.8394 1026.71,-32.2853 1024.71,-31.692 1022.74,-31.0612 1020.81,-30.3946 1018.93,-29.6941 1017.1,-28.9615 1015.33,-28.1988 1013.62,-27.4082 1011.98,-26.5918 1010.41,-25.7519 1008.93,-24.8907 1007.54,-24.0106 1006.25,-23.114 1005.07,-22.2035 1004,-21.2814 1003.04,-20.3503 1002.22,-19.4127 1001.52,-18.4713 1000.97,-17.5287 1000.56,-16.5873 1000.3,-15.6497 1000.2,-14.7186 1000.26,-13.7965 1000.49,-12.886 1000.88,-11.9894 1001.45,-11.1093 1002.19,-10.2481 1003.1,-9.4082 1004.19,-8.5918 1005.45,-7.80119 1006.88,-7.03854 1008.48,-6.30593 1010.24,-5.60537 1012.17,-4.93879 1014.25,-4.308 1016.49,-3.71474 1018.86,-3.16064 1021.38,-2.64722 1024.01,-2.17587 1026.77,-1.7479 1029.63,-1.36447 1032.58,-1.02664 1035.63,-0.735329 1038.74,-0.491342 1041.91,-0.295345 1045.13,-0.147875 1048.38,-0.0493367 1051.66,-1.81188e-13 1054.94,-1.84741e-13 1058.21,-0.0493367"/>
<text text-anchor="middle" x="1053.3" y="-14.3" font-family="Times,serif" font-size="14.00" fill="blue">node_14_9</text>
</g>
<!-- node_14_10 -->
<g id="node10" class="node"><title>node_14_10</title>
<polygon fill="none" stroke="red" points="1187.61,-0.0493367 1191.12,-0.147875 1194.6,-0.295345 1198.03,-0.491342 1201.4,-0.735329 1204.69,-1.02664 1207.88,-1.36447 1210.97,-1.7479 1213.95,-2.17587 1216.8,-2.64722 1219.52,-3.16064 1222.09,-3.71474 1224.5,-4.308 1226.75,-4.93879 1228.84,-5.60537 1230.75,-6.30593 1232.48,-7.03854 1234.03,-7.80119 1235.39,-8.5918 1236.56,-9.4082 1237.55,-10.2481 1238.34,-11.1093 1238.96,-11.9894 1239.38,-12.886 1239.63,-13.7965 1239.69,-14.7186 1239.58,-15.6497 1239.31,-16.5873 1238.86,-17.5287 1238.27,-18.4713 1237.52,-19.4127 1236.62,-20.3503 1235.59,-21.2814 1234.43,-22.2035 1233.15,-23.114 1231.76,-24.0106 1230.25,-24.8907 1228.66,-25.7519 1226.97,-26.5918 1225.19,-27.4082 1223.34,-28.1988 1221.43,-28.9615 1219.45,-29.6941 1217.41,-30.3946 1215.33,-31.0612 1213.2,-31.692 1211.04,-32.2853 1208.84,-32.8394 1206.61,-33.3528 1204.36,-33.8241 1202.08,-34.2521 1199.79,-34.6355 1197.48,-34.9734 1195.17,-35.2647 1192.84,-35.5087 1190.5,-35.7047 1188.16,-35.8521 1185.82,-35.9507 1183.47,-36 1181.12,-36 1178.77,-35.9507 1176.43,-35.8521 1174.09,-35.7047 1171.75,-35.5087 1169.42,-35.2647 1167.11,-34.9734 1164.8,-34.6355 1162.51,-34.2521 1160.23,-33.8241 1157.98,-33.3528 1155.75,-32.8394 1153.55,-32.2853 1151.39,-31.692 1149.26,-31.0612 1147.18,-30.3946 1145.14,-29.6941 1143.16,-28.9615 1141.25,-28.1988 1139.4,-27.4082 1137.63,-26.5918 1135.94,-25.7519 1134.34,-24.8907 1132.84,-24.0106 1131.44,-23.114 1130.16,-22.2035 1129,-21.2814 1127.97,-20.3503 1127.07,-19.4127 1126.32,-18.4713 1125.73,-17.5287 1125.28,-16.5873 1125.01,-15.6497 1124.9,-14.7186 1124.96,-13.7965 1125.21,-12.886 1125.63,-11.9894 1126.25,-11.1093 1127.04,-10.2481 1128.03,-9.4082 1129.2,-8.5918 1130.57,-7.80119 1132.11,-7.03854 1133.84,-6.30593 1135.75,-5.60537 1137.84,-4.93879 1140.09,-4.308 1142.5,-3.71474 1145.07,-3.16064 1147.79,-2.64722 1150.64,-2.17587 1153.62,-1.7479 1156.71,-1.36447 1159.91,-1.02664 1163.19,-0.735329 1166.56,-0.491342 1169.99,-0.295345 1173.47,-0.147875 1176.98,-0.0493367 1180.52,-1.81188e-13 1184.07,-1.84741e-13 1187.61,-0.0493367"/>
<text text-anchor="middle" x="1182.3" y="-14.3" font-family="Times,serif" font-size="14.00" fill="blue">node_14_10</text>
</g>
<!-- node_14_11 -->
<g id="node11" class="node"><title>node_14_11</title>
<polygon fill="none" stroke="red" points="1320.61,-0.0493367 1324.12,-0.147875 1327.6,-0.295345 1331.03,-0.491342 1334.4,-0.735329 1337.69,-1.02664 1340.88,-1.36447 1343.97,-1.7479 1346.95,-2.17587 1349.8,-2.64722 1352.52,-3.16064 1355.09,-3.71474 1357.5,-4.308 1359.75,-4.93879 1361.84,-5.60537 1363.75,-6.30593 1365.48,-7.03854 1367.03,-7.80119 1368.39,-8.5918 1369.56,-9.4082 1370.55,-10.2481 1371.34,-11.1093 1371.96,-11.9894 1372.38,-12.886 1372.63,-13.7965 1372.69,-14.7186 1372.58,-15.6497 1372.31,-16.5873 1371.86,-17.5287 1371.27,-18.4713 1370.52,-19.4127 1369.62,-20.3503 1368.59,-21.2814 1367.43,-22.2035 1366.15,-23.114 1364.76,-24.0106 1363.25,-24.8907 1361.66,-25.7519 1359.97,-26.5918 1358.19,-27.4082 1356.34,-28.1988 1354.43,-28.9615 1352.45,-29.6941 1350.41,-30.3946 1348.33,-31.0612 1346.2,-31.692 1344.04,-32.2853 1341.84,-32.8394 1339.61,-33.3528 1337.36,-33.8241 1335.08,-34.2521 1332.79,-34.6355 1330.48,-34.9734 1328.17,-35.2647 1325.84,-35.5087 1323.5,-35.7047 1321.16,-35.8521 1318.82,-35.9507 1316.47,-36 1314.12,-36 1311.77,-35.9507 1309.43,-35.8521 1307.09,-35.7047 1304.75,-35.5087 1302.42,-35.2647 1300.11,-34.9734 1297.8,-34.6355 1295.51,-34.2521 1293.23,-33.8241 1290.98,-33.3528 1288.75,-32.8394 1286.55,-32.2853 1284.39,-31.692 1282.26,-31.0612 1280.18,-30.3946 1278.14,-29.6941 1276.16,-28.9615 1274.25,-28.1988 1272.4,-27.4082 1270.63,-26.5918 1268.94,-25.7519 1267.34,-24.8907 1265.84,-24.0106 1264.44,-23.114 1263.16,-22.2035 1262,-21.2814 1260.97,-20.3503 1260.07,-19.4127 1259.32,-18.4713 1258.73,-17.5287 1258.28,-16.5873 1258.01,-15.6497 1257.9,-14.7186 1257.96,-13.7965 1258.21,-12.886 1258.63,-11.9894 1259.25,-11.1093 1260.04,-10.2481 1261.03,-9.4082 1262.2,-8.5918 1263.57,-7.80119 1265.11,-7.03854 1266.84,-6.30593 1268.75,-5.60537 1270.84,-4.93879 1273.09,-4.308 1275.5,-3.71474 1278.07,-3.16064 1280.79,-2.64722 1283.64,-2.17587 1286.62,-1.7479 1289.71,-1.36447 1292.91,-1.02664 1296.19,-0.735329 1299.56,-0.491342 1302.99,-0.295345 1306.47,-0.147875 1309.98,-0.0493367 1313.52,-1.81188e-13 1317.07,-1.84741e-13 1320.61,-0.0493367"/>
<text text-anchor="middle" x="1315.3" y="-14.3" font-family="Times,serif" font-size="14.00" fill="blue">node_14_11</text>
</g>
<!-- node_14_12 -->
<g id="node12" class="node"><title>node_14_12</title>
<polygon fill="none" stroke="red" points="1453.61,-0.0493367 1457.12,-0.147875 1460.6,-0.295345 1464.03,-0.491342 1467.4,-0.735329 1470.69,-1.02664 1473.88,-1.36447 1476.97,-1.7479 1479.95,-2.17587 1482.8,-2.64722 1485.52,-3.16064 1488.09,-3.71474 1490.5,-4.308 1492.75,-4.93879 1494.84,-5.60537 1496.75,-6.30593 1498.48,-7.03854 1500.03,-7.80119 1501.39,-8.5918 1502.56,-9.4082 1503.55,-10.2481 1504.34,-11.1093 1504.96,-11.9894 1505.38,-12.886 1505.63,-13.7965 1505.69,-14.7186 1505.58,-15.6497 1505.31,-16.5873 1504.86,-17.5287 1504.27,-18.4713 1503.52,-19.4127 1502.62,-20.3503 1501.59,-21.2814 1500.43,-22.2035 1499.15,-23.114 1497.76,-24.0106 1496.25,-24.8907 1494.66,-25.7519 1492.97,-26.5918 1491.19,-27.4082 1489.34,-28.1988 1487.43,-28.9615 1485.45,-29.6941 1483.41,-30.3946 1481.33,-31.0612 1479.2,-31.692 1477.04,-32.2853 1474.84,-32.8394 1472.61,-33.3528 1470.36,-33.8241 1468.08,-34.2521 1465.79,-34.6355 1463.48,-34.9734 1461.17,-35.2647 1458.84,-35.5087 1456.5,-35.7047 1454.16,-35.8521 1451.82,-35.9507 1449.47,-36 1447.12,-36 1444.77,-35.9507 1442.43,-35.8521 1440.09,-35.7047 1437.75,-35.5087 1435.42,-35.2647 1433.11,-34.9734 1430.8,-34.6355 1428.51,-34.2521 1426.23,-33.8241 1423.98,-33.3528 1421.75,-32.8394 1419.55,-32.2853 1417.39,-31.692 1415.26,-31.0612 1413.18,-30.3946 1411.14,-29.6941 1409.16,-28.9615 1407.25,-28.1988 1405.4,-27.4082 1403.63,-26.5918 1401.94,-25.7519 1400.34,-24.8907 1398.84,-24.0106 1397.44,-23.114 1396.16,-22.2035 1395,-21.2814 1393.97,-20.3503 1393.07,-19.4127 1392.32,-18.4713 1391.73,-17.5287 1391.28,-16.5873 1391.01,-15.6497 1390.9,-14.7186 1390.96,-13.7965 1391.21,-12.886 1391.63,-11.9894 1392.25,-11.1093 1393.04,-10.2481 1394.03,-9.4082 1395.2,-8.5918 1396.57,-7.80119 1398.11,-7.03854 1399.84,-6.30593 1401.75,-5.60537 1403.84,-4.93879 1406.09,-4.308 1408.5,-3.71474 1411.07,-3.16064 1413.79,-2.64722 1416.64,-2.17587 1419.62,-1.7479 1422.71,-1.36447 1425.91,-1.02664 1429.19,-0.735329 1432.56,-0.491342 1435.99,-0.295345 1439.47,-0.147875 1442.98,-0.0493367 1446.52,-1.81188e-13 1450.07,-1.84741e-13 1453.61,-0.0493367"/>
<text text-anchor="middle" x="1448.3" y="-14.3" font-family="Times,serif" font-size="14.00" fill="blue">node_14_12</text>
</g>
<!-- node_14_13 -->
<g id="node13" class="node"><title>node_14_13</title>
<polygon fill="none" stroke="red" points="1586.61,-0.0493367 1590.12,-0.147875 1593.6,-0.295345 1597.03,-0.491342 1600.4,-0.735329 1603.69,-1.02664 1606.88,-1.36447 1609.97,-1.7479 1612.95,-2.17587 1615.8,-2.64722 1618.52,-3.16064 1621.09,-3.71474 1623.5,-4.308 1625.75,-4.93879 1627.84,-5.60537 1629.75,-6.30593 1631.48,-7.03854 1633.03,-7.80119 1634.39,-8.5918 1635.56,-9.4082 1636.55,-10.2481 1637.34,-11.1093 1637.96,-11.9894 1638.38,-12.886 1638.63,-13.7965 1638.69,-14.7186 1638.58,-15.6497 1638.31,-16.5873 1637.86,-17.5287 1637.27,-18.4713 1636.52,-19.4127 1635.62,-20.3503 1634.59,-21.2814 1633.43,-22.2035 1632.15,-23.114 1630.76,-24.0106 1629.25,-24.8907 1627.66,-25.7519 1625.97,-26.5918 1624.19,-27.4082 1622.34,-28.1988 1620.43,-28.9615 1618.45,-29.6941 1616.41,-30.3946 1614.33,-31.0612 1612.2,-31.692 1610.04,-32.2853 1607.84,-32.8394 1605.61,-33.3528 1603.36,-33.8241 1601.08,-34.2521 1598.79,-34.6355 1596.48,-34.9734 1594.17,-35.2647 1591.84,-35.5087 1589.5,-35.7047 1587.16,-35.8521 1584.82,-35.9507 1582.47,-36 1580.12,-36 1577.77,-35.9507 1575.43,-35.8521 1573.09,-35.7047 1570.75,-35.5087 1568.42,-35.2647 1566.11,-34.9734 1563.8,-34.6355 1561.51,-34.2521 1559.23,-33.8241 1556.98,-33.3528 1554.75,-32.8394 1552.55,-32.2853 1550.39,-31.692 1548.26,-31.0612 1546.18,-30.3946 1544.14,-29.6941 1542.16,-28.9615 1540.25,-28.1988 1538.4,-27.4082 1536.63,-26.5918 1534.94,-25.7519 1533.34,-24.8907 1531.84,-24.0106 1530.44,-23.114 1529.16,-22.2035 1528,-21.2814 1526.97,-20.3503 1526.07,-19.4127 1525.32,-18.4713 1524.73,-17.5287 1524.28,-16.5873 1524.01,-15.6497 1523.9,-14.7186 1523.96,-13.7965 1524.21,-12.886 1524.63,-11.9894 1525.25,-11.1093 1526.04,-10.2481 1527.03,-9.4082 1528.2,-8.5918 1529.57,-7.80119 1531.11,-7.03854 1532.84,-6.30593 1534.75,-5.60537 1536.84,-4.93879 1539.09,-4.308 1541.5,-3.71474 1544.07,-3.16064 1546.79,-2.64722 1549.64,-2.17587 1552.62,-1.7479 1555.71,-1.36447 1558.91,-1.02664 1562.19,-0.735329 1565.56,-0.491342 1568.99,-0.295345 1572.47,-0.147875 1575.98,-0.0493367 1579.52,-1.81188e-13 1583.07,-1.84741e-13 1586.61,-0.0493367"/>
<text text-anchor="middle" x="1581.3" y="-14.3" font-family="Times,serif" font-size="14.00" fill="blue">node_14_13</text>
</g>
</g>
</svg>
