<?xml version="1.0" encoding="UTF-8" standalone="no"?>
<!DOCTYPE svg PUBLIC "-//W3C//DTD SVG 1.1//EN"
 "http://www.w3.org/Graphics/SVG/1.1/DTD/svg11.dtd">
<!-- Generated by graphviz version 2.29.20121107.0545 (20121107.0545)
 -->
<!-- Title: graph_15 Pages: 1 -->
<svg width="177pt" height="120pt"
 viewBox="0.00 0.00 177.00 120.00" xmlns="http://www.w3.org/2000/svg" xmlns:xlink="http://www.w3.org/1999/xlink">
<g id="graph0" class="graph" transform="scale(1 1) rotate(0) translate(4 116)">
<title>graph_15</title>
<polygon fill="white" stroke="white" points="-4,5 -4,-116 174,-116 174,5 -4,5"/>
<!-- node_15_1 -->
<g id="node1" class="node"><title>node_15_1</title>
<polygon fill="none" stroke="black" points="37,-75 37,-111 169,-111 169,-75 37,-75"/>
<text text-anchor="middle" x="54.5" y="-89.3" font-family="Times,serif" font-size="14.00">left</text>
<polyline fill="none" stroke="black" points="72,-75 72,-111 "/>
<text text-anchor="middle" x="99.5" y="-89.3" font-family="Times,serif" font-size="14.00">middle</text>
<polyline fill="none" stroke="black" points="127,-75 127,-111 "/>
<text text-anchor="middle" x="148" y="-89.3" font-family="Times,serif" font-size="14.00">right</text>
</g>
<!-- node_15_2 -->
<g id="node2" class="node"><title>node_15_2</title>
<polygon fill="none" stroke="black" points="-0.5,-1 -0.5,-37 72.5,-37 72.5,-1 -0.5,-1"/>
<text text-anchor="middle" x="17.5" y="-15.3" font-family="Times,serif" font-size="14.00">one</text>
<polyline fill="none" stroke="black" points="35.5,-1 35.5,-37 "/>
<text text-anchor="middle" x="54" y="-15.3" font-family="Times,serif" font-size="14.00">two</text>
</g>
<!-- node_15_1&#45;&gt;node_15_2 -->
<g id="edge1" class="edge"><title>node_15_1:f0&#45;&gt;node_15_2:f1</title>
<path fill="none" stroke="red" stroke-width="5" d="M54,-74C54,-62 54,-56.75 54,-48.125"/>
<polygon fill="none" stroke="red" points="50,-38 58,-38 58.0001,-46 50.0001,-46 50,-38"/>
<polyline fill="none" stroke="red" points="54.0001,-46 54.0001,-48 "/>
</g>
</g>
</svg>
