<?xml version="1.0" encoding="UTF-8" standalone="no"?>
<!DOCTYPE svg PUBLIC "-//W3C//DTD SVG 1.1//EN"
 "http://www.w3.org/Graphics/SVG/1.1/DTD/svg11.dtd">
<!-- Generated by graphviz version 2.38.0 (20140413.2041)
 -->
<!-- Title: graph_16_04 Pages: 1 -->
<svg width="250pt" height="267pt"
 viewBox="0.00 0.00 249.54 267.09" xmlns="http://www.w3.org/2000/svg" xmlns:xlink="http://www.w3.org/1999/xlink">
<g id="graph0" class="graph" transform="scale(1 1) rotate(0) translate(4 263.089)">
<title>graph_16_04</title>
<polygon fill="white" stroke="none" points="-4,4 -4,-263.089 245.544,-263.089 245.544,4 -4,4"/>
<!-- node_16_04_2 -->
<g id="node1" class="node"><title>node_16_04_2</title>
<polygon fill="none" stroke="black" points="111.544,-259.089 14.5444,-259.089 14.5444,-162.089 111.544,-162.089 111.544,-259.089"/>
<text text-anchor="middle" x="63.0444" y="-206.889" font-family="Times,serif" font-size="14.00">node_16_04_2</text>
</g>
<!-- node_16_04_3 -->
<g id="node2" class="node"><title>node_16_04_3</title>
<ellipse fill="none" stroke="black" cx="63.0444" cy="-63.0444" rx="63.0888" ry="63.0888"/>
<text text-anchor="middle" x="63.0444" y="-59.3444" font-family="Times,serif" font-size="14.00">node_16_04_3</text>
</g>
<!-- node_16_04_2&#45;&gt;node_16_04_3 -->
<g id="edge1" class="edge"><title>node_16_04_2&#45;&gt;node_16_04_3</title>
<path fill="none" stroke="green" d="M63.0444,-151.807C63.0444,-146.662 63.0444,-141.413 63.0444,-136.169"/>
<polygon fill="green" stroke="green" points="59.5445,-151.932 63.0444,-161.932 66.5445,-151.932 59.5445,-151.932"/>
<polygon fill="green" stroke="green" points="66.5445,-136.118 63.0444,-126.118 59.5445,-136.118 66.5445,-136.118"/>
</g>
<!-- node_16_04_4 -->
<g id="node3" class="node"><title>node_16_04_4</title>
<polygon fill="none" stroke="black" points="241.544,-259.089 144.544,-259.089 144.544,-162.089 241.544,-162.089 241.544,-259.089"/>
<text text-anchor="middle" x="193.044" y="-206.889" font-family="Times,serif" font-size="14.00">node_16_04_4</text>
</g>
<!-- node_16_04_5 -->
<g id="node4" class="node"><title>node_16_04_5</title>
<polygon fill="none" stroke="black" points="241.544,-111.544 144.544,-111.544 144.544,-14.5444 241.544,-14.5444 241.544,-111.544"/>
<text text-anchor="middle" x="193.044" y="-59.3444" font-family="Times,serif" font-size="14.00">node_16_04_5</text>
</g>
<!-- node_16_04_4&#45;&gt;node_16_04_5 -->
<g id="edge2" class="edge"><title>node_16_04_4&#45;&gt;node_16_04_5</title>
<path fill="none" stroke="blue" d="M193.044,-151.932C193.044,-142.062 193.044,-131.804 193.044,-121.929"/>
<polygon fill="blue" stroke="blue" points="189.545,-151.932 193.044,-161.932 196.545,-151.932 189.545,-151.932"/>
<polygon fill="blue" stroke="blue" points="196.545,-121.808 193.044,-111.808 189.545,-121.808 196.545,-121.808"/>
</g>
</g>
</svg>
