<?xml version="1.0" encoding="UTF-8" standalone="no"?>
<!DOCTYPE svg PUBLIC "-//W3C//DTD SVG 1.1//EN"
 "http://www.w3.org/Graphics/SVG/1.1/DTD/svg11.dtd">
<!-- Generated by graphviz version 2.29.20121107.0545 (20121107.0545)
 -->
<!-- Title: graph_16 Pages: 1 -->
<svg width="177pt" height="135pt"
 viewBox="0.00 0.00 177.00 134.79" xmlns="http://www.w3.org/2000/svg" xmlns:xlink="http://www.w3.org/1999/xlink">
<g id="graph0" class="graph" transform="scale(1 1) rotate(0) translate(4 130.788)">
<title>graph_16</title>
<polygon fill="white" stroke="white" points="-4,5 -4,-130.788 174,-130.788 174,5 -4,5"/>
<!-- node_16_1 -->
<g id="node1" class="node"><title>node_16_1</title>
<polygon fill="none" stroke="black" points="37,-85.1309 37,-121.131 169,-121.131 169,-85.1309 37,-85.1309"/>
<text text-anchor="middle" x="54.5" y="-99.4309" font-family="Times,serif" font-size="14.00">left</text>
<polyline fill="none" stroke="black" points="72,-85.1309 72,-121.131 "/>
<text text-anchor="middle" x="99.5" y="-99.4309" font-family="Times,serif" font-size="14.00">middle</text>
<polyline fill="none" stroke="black" points="127,-85.1309 127,-121.131 "/>
<text text-anchor="middle" x="148" y="-99.4309" font-family="Times,serif" font-size="14.00">right</text>
</g>
<!-- node_16_2 -->
<g id="node2" class="node"><title>node_16_2</title>
<polygon fill="none" stroke="black" points="-0.5,-11.1309 -0.5,-47.1309 72.5,-47.1309 72.5,-11.1309 -0.5,-11.1309"/>
<text text-anchor="middle" x="17.5" y="-25.4309" font-family="Times,serif" font-size="14.00">one</text>
<polyline fill="none" stroke="black" points="35.5,-11.1309 35.5,-47.1309 "/>
<text text-anchor="middle" x="54" y="-25.4309" font-family="Times,serif" font-size="14.00">two</text>
</g>
<!-- node_16_1&#45;&gt;node_16_2 -->
<g id="edge1" class="edge"><title>node_16_1:f0:n&#45;&gt;node_16_2:f1:s</title>
<path fill="none" stroke="green" stroke-width="5" d="M54,-122.131C54,-129.7 42.1923,-126.638 37,-121.131 25.7186,-109.166 30.8141,-99.3676 37,-84.1309 45.3943,-63.4546 63.6057,-68.8073 72,-48.1309 88.8504,-6.6262 66.4361,4.70942 57.4383,-2.40337"/>
<ellipse fill="none" stroke="green" cx="55.6261" cy="-6.47637" rx="4.00002" ry="4.00002"/>
</g>
</g>
</svg>
