<?xml version="1.0" encoding="UTF-8" standalone="no"?>
<!DOCTYPE svg PUBLIC "-//W3C//DTD SVG 1.1//EN"
 "http://www.w3.org/Graphics/SVG/1.1/DTD/svg11.dtd">
<!-- Generated by graphviz version 2.38.0 (20140413.2041)
 -->
<!-- Title: graph_16 Pages: 1 -->
<svg width="360pt" height="260pt"
 viewBox="0.00 0.00 360.00 259.67" xmlns="http://www.w3.org/2000/svg" xmlns:xlink="http://www.w3.org/1999/xlink">
<g id="graph0" class="graph" transform="scale(0.947368 0.947368) rotate(0) translate(4 270.091)">
<title>graph_16</title>
<polygon fill="white" stroke="none" points="-4,4 -4,-270.091 376,-270.091 376,4 -4,4"/>
<text text-anchor="end" x="216.5" y="-37.8" font-family="Times,serif" font-size="14.00">&quot;Standard&quot;</text>
<text text-anchor="start" x="155.5" y="-22.8" font-family="Times,serif" font-size="14.00">Syntax</text>
<text text-anchor="middle" x="186" y="-7.8" font-family="Times,serif" font-size="14.00">Test</text>
<!-- node_16_1 -->
<g id="node1" class="node"><title>node_16_1</title>
<polygon fill="none" stroke="black" points="37.5,-209.591 37.5,-245.591 169.5,-245.591 169.5,-209.591 37.5,-209.591"/>
<text text-anchor="middle" x="55" y="-223.891" font-family="Times,serif" font-size="14.00">left</text>
<polyline fill="none" stroke="black" points="72.5,-209.591 72.5,-245.591 "/>
<text text-anchor="middle" x="100" y="-223.891" font-family="Times,serif" font-size="14.00">middle</text>
<polyline fill="none" stroke="black" points="127.5,-209.591 127.5,-245.591 "/>
<text text-anchor="middle" x="148.5" y="-223.891" font-family="Times,serif" font-size="14.00">right</text>
</g>
<!-- node_16_2 -->
<g id="node2" class="node"><title>node_16_2</title>
<polygon fill="none" stroke="black" points="0,-85.0456 0,-121.046 73,-121.046 73,-85.0456 0,-85.0456"/>
<text text-anchor="middle" x="18" y="-99.3456" font-family="Times,serif" font-size="14.00">one</text>
<polyline fill="none" stroke="black" points="36,-85.0456 36,-121.046 "/>
<text text-anchor="middle" x="54.5" y="-99.3456" font-family="Times,serif" font-size="14.00">two</text>
</g>
<!-- node_16_1&#45;&gt;node_16_2 -->
<g id="edge1" class="edge"><title>node_16_1:p11&#45;&gt;node_16_2:p22:s</title>
<path fill="none" stroke="red" stroke-width="3" d="M54.7274,-201.186C56.5762,-168.202 69.1735,-158.365 73,-121.546 73,-121.546 65.4076,-106.566 59.9506,-95.7993"/>
<ellipse fill="none" stroke="red" stroke-width="3" cx="54.6082" cy="-205.593" rx="4" ry="4"/>
<polygon fill="none" stroke="red" stroke-width="3" points="59.9252,-95.7492 53.6447,-92.2058 54.5,-85.0456 60.7805,-88.589 59.9252,-95.7492"/>
</g>
<!-- node_16_3 -->
<g id="node3" class="node"><title>node_16_3</title>
<polygon fill="none" stroke="black" points="265,-266.091 188,-266.091 188,-189.091 265,-189.091 265,-266.091"/>
<text text-anchor="middle" x="226.5" y="-223.891" font-family="Times,serif" font-size="14.00">node_16_3</text>
</g>
<!-- node_16_4 -->
<g id="node4" class="node"><title>node_16_4</title>
<ellipse fill="none" stroke="black" cx="226.5" cy="-103.046" rx="50.0912" ry="50.0912"/>
<text text-anchor="middle" x="226.5" y="-99.3456" font-family="Times,serif" font-size="14.00">node_16_4</text>
</g>
<!-- node_16_3&#45;&gt;node_16_4 -->
<g id="edge2" class="edge"><title>node_16_3&#45;&gt;node_16_4</title>
<path fill="none" stroke="green" stroke-width="3" d="M226.5,-178.824C226.5,-173.699 226.5,-168.446 226.5,-163.213"/>
<polygon fill="green" stroke="green" stroke-width="3" points="226.5,-188.867 222,-178.867 225.5,-183.867 225.5,-178.867 226.5,-178.867 227.5,-178.867 226.5,-188.867"/>
<polygon fill="none" stroke="green" stroke-width="3" points="230,-163.212 226.5,-153.212 223,-163.212 230,-163.212"/>
</g>
<!-- node_16_5 -->
<g id="node5" class="node"><title>node_16_5</title>
<polygon fill="none" stroke="black" points="372,-266.091 295,-266.091 295,-189.091 372,-189.091 372,-266.091"/>
<text text-anchor="middle" x="333.5" y="-223.891" font-family="Times,serif" font-size="14.00">node_16_5</text>
</g>
<!-- node_16_6 -->
<g id="node6" class="node"><title>node_16_6</title>
<polygon fill="none" stroke="black" points="372,-141.546 295,-141.546 295,-64.5456 372,-64.5456 372,-141.546"/>
<text text-anchor="middle" x="333.5" y="-99.3456" font-family="Times,serif" font-size="14.00">node_16_6</text>
</g>
<!-- node_16_5&#45;&gt;node_16_6 -->
<g id="edge3" class="edge"><title>node_16_5&#45;&gt;node_16_6</title>
<path fill="none" stroke="blue" stroke-width="3" d="M333.5,-178.764C333.5,-169.934 333.5,-160.725 333.5,-151.894"/>
<polygon fill="none" stroke="blue" stroke-width="3" points="330,-178.867 333.5,-188.867 337,-178.867 330,-178.867"/>
<polygon fill="blue" stroke="blue" stroke-width="3" points="333.5,-141.746 338,-151.746 334.5,-146.746 334.5,-151.746 333.5,-151.746 332.5,-151.746 333.5,-141.746"/>
</g>
</g>
</svg>
