<?xml version="1.0" encoding="UTF-8" standalone="no"?>
<!DOCTYPE svg PUBLIC "-//W3C//DTD SVG 1.1//EN"
 "http://www.w3.org/Graphics/SVG/1.1/DTD/svg11.dtd">
<!-- Generated by graphviz version 2.38.0 (20140413.2041)
 -->
<!-- Title: graph_16 Pages: 1 -->
<svg width="360pt" height="268pt"
 viewBox="0.00 0.00 360.00 268.19" xmlns="http://www.w3.org/2000/svg" xmlns:xlink="http://www.w3.org/1999/xlink">
<g id="graph0" class="graph" transform="scale(0.947368 0.947368) rotate(0) translate(4 279.091)">
<title>graph_16</title>
<polygon fill="white" stroke="none" points="-4,4 -4,-279.091 376,-279.091 376,4 -4,4"/>
<text text-anchor="end" x="221.5" y="-45.2" font-family="Times,serif" font-size="16.00">&quot;Standard&quot;</text>
<text text-anchor="start" x="150.5" y="-27.2" font-family="Times,serif" font-size="16.00">Syntax</text>
<text text-anchor="middle" x="186" y="-9.2" font-family="Times,serif" font-size="16.00">Test</text>
<!-- node_16_1 -->
<g id="node1" class="node"><title>node_16_1</title>
<polygon fill="none" stroke="black" points="37.5,-218.591 37.5,-254.591 169.5,-254.591 169.5,-218.591 37.5,-218.591"/>
<text text-anchor="middle" x="55" y="-232.891" font-family="Times,serif" font-size="14.00">left</text>
<polyline fill="none" stroke="black" points="72.5,-218.591 72.5,-254.591 "/>
<text text-anchor="middle" x="100" y="-232.891" font-family="Times,serif" font-size="14.00">middle</text>
<polyline fill="none" stroke="black" points="127.5,-218.591 127.5,-254.591 "/>
<text text-anchor="middle" x="148.5" y="-232.891" font-family="Times,serif" font-size="14.00">right</text>
</g>
<!-- node_16_2 -->
<g id="node2" class="node"><title>node_16_2</title>
<polygon fill="none" stroke="black" points="0,-94.0456 0,-130.046 73,-130.046 73,-94.0456 0,-94.0456"/>
<text text-anchor="middle" x="18" y="-108.346" font-family="Times,serif" font-size="14.00">one</text>
<polyline fill="none" stroke="black" points="36,-94.0456 36,-130.046 "/>
<text text-anchor="middle" x="54.5" y="-108.346" font-family="Times,serif" font-size="14.00">two</text>
</g>
<!-- node_16_1&#45;&gt;node_16_2 -->
<g id="edge1" class="edge"><title>node_16_1:p11&#45;&gt;node_16_2:p22:s</title>
<path fill="none" stroke="red" stroke-width="3" d="M54.7273,-209.278C56.5761,-176.657 69.1731,-166.961 73,-130.546 74.6955,-114.412 84.157,-105.822 73,-94.0456 71.2303,-92.1776 68.76,-90.5753 66.1998,-89.5064"/>
<ellipse fill="none" stroke="red" stroke-width="3" cx="54.6094" cy="-213.593" rx="4" ry="4"/>
<polygon fill="none" stroke="red" stroke-width="3" points="65.986,-89.571 61.4012,-95.1369 54.5,-93.0456 59.0848,-87.4796 65.986,-89.571"/>
</g>
<!-- node_16_3 -->
<g id="node3" class="node"><title>node_16_3</title>
<polygon fill="none" stroke="black" points="265,-275.091 188,-275.091 188,-198.091 265,-198.091 265,-275.091"/>
<text text-anchor="middle" x="226.5" y="-232.891" font-family="Times,serif" font-size="14.00">node_16_3</text>
</g>
<!-- node_16_4 -->
<g id="node4" class="node"><title>node_16_4</title>
<ellipse fill="none" stroke="black" cx="226.5" cy="-112.046" rx="50.0912" ry="50.0912"/>
<text text-anchor="middle" x="226.5" y="-108.346" font-family="Times,serif" font-size="14.00">node_16_4</text>
</g>
<!-- node_16_3&#45;&gt;node_16_4 -->
<g id="edge2" class="edge"><title>node_16_3&#45;&gt;node_16_4</title>
<path fill="none" stroke="green" stroke-width="3" d="M226.5,-187.799C226.5,-182.811 226.5,-177.698 226.5,-172.601"/>
<polygon fill="green" stroke="green" stroke-width="3" points="226.5,-197.823 222,-187.823 225.5,-192.823 225.5,-187.823 226.5,-187.823 227.5,-187.823 226.5,-197.823"/>
<polygon fill="none" stroke="green" stroke-width="3" points="230,-172.205 226.5,-162.205 223,-172.206 230,-172.205"/>
</g>
<!-- node_16_5 -->
<g id="node5" class="node"><title>node_16_5</title>
<polygon fill="none" stroke="black" points="372,-275.091 295,-275.091 295,-198.091 372,-198.091 372,-275.091"/>
<text text-anchor="middle" x="333.5" y="-232.891" font-family="Times,serif" font-size="14.00">node_16_5</text>
</g>
<!-- node_16_6 -->
<g id="node6" class="node"><title>node_16_6</title>
<polygon fill="none" stroke="black" points="372,-150.546 295,-150.546 295,-73.5456 372,-73.5456 372,-150.546"/>
<text text-anchor="middle" x="333.5" y="-108.346" font-family="Times,serif" font-size="14.00">node_16_6</text>
</g>
<!-- node_16_5&#45;&gt;node_16_6 -->
<g id="edge3" class="edge"><title>node_16_5&#45;&gt;node_16_6</title>
<path fill="none" stroke="blue" stroke-width="3" d="M333.5,-187.771C333.5,-178.979 333.5,-169.798 333.5,-161.002"/>
<polygon fill="none" stroke="blue" stroke-width="3" points="330,-187.823 333.5,-197.823 337,-187.824 330,-187.823"/>
<polygon fill="blue" stroke="blue" stroke-width="3" points="333.5,-150.899 338,-160.899 334.5,-155.899 334.5,-160.899 333.5,-160.899 332.5,-160.899 333.5,-150.899"/>
</g>
</g>
</svg>
