<?xml version="1.0" encoding="UTF-8" standalone="no"?>
<!DOCTYPE svg PUBLIC "-//W3C//DTD SVG 1.1//EN"
 "http://www.w3.org/Graphics/SVG/1.1/DTD/svg11.dtd">
<!-- Generated by graphviz version 2.38.0 (20140413.2041)
 -->
<!-- Title: graph_17 Pages: 1 -->
<svg width="148pt" height="131pt"
 viewBox="0.00 0.00 147.61 131.33" xmlns="http://www.w3.org/2000/svg" xmlns:xlink="http://www.w3.org/1999/xlink">
<g id="graph0" class="graph" transform="scale(1 1) rotate(0) translate(4 127.329)">
<title>graph_17</title>
<polygon fill="white" stroke="none" points="-4,4 -4,-127.329 143.61,-127.329 143.61,4 -4,4"/>
<!-- node_17_1 -->
<g id="node1" class="node"><title>node_17_1</title>
<polygon fill="none" stroke="black" points="0,-86.8295 0,-122.829 132,-122.829 132,-86.8295 0,-86.8295"/>
<text text-anchor="middle" x="17.5" y="-101.129" font-family="Times,serif" font-size="14.00">left</text>
<polyline fill="none" stroke="black" points="35,-86.8295 35,-122.829 "/>
<text text-anchor="middle" x="62.5" y="-101.129" font-family="Times,serif" font-size="14.00">middle</text>
<polyline fill="none" stroke="black" points="90,-86.8295 90,-122.829 "/>
<text text-anchor="middle" x="111" y="-101.129" font-family="Times,serif" font-size="14.00">right</text>
</g>
<!-- node_17_2 -->
<g id="node2" class="node"><title>node_17_2</title>
<polygon fill="none" stroke="black" points="56.5,-13.8295 56.5,-49.8295 129.5,-49.8295 129.5,-13.8295 56.5,-13.8295"/>
<text text-anchor="middle" x="74.5" y="-28.1295" font-family="Times,serif" font-size="14.00">one</text>
<polyline fill="none" stroke="black" points="92.5,-13.8295 92.5,-49.8295 "/>
<text text-anchor="middle" x="111" y="-28.1295" font-family="Times,serif" font-size="14.00">two</text>
</g>
<!-- node_17_1&#45;&gt;node_17_2 -->
<g id="edge1" class="edge"><title>node_17_1:p12:n&#45;&gt;node_17_2:p22</title>
<path fill="none" stroke="blue" d="M53.3792,-117.754C36.3433,-107.725 0,-86.3295 0,-86.3295 28.0717,-47.5482 98.7199,-93.3849 109.587,-60.0969"/>
<polygon fill="none" stroke="blue" points="51.6068,-120.772 62,-122.829 55.1581,-114.74 51.6068,-120.772"/>
<polygon fill="blue" stroke="blue" points="111,-49.8295 114.095,-60.3495 110.318,-54.7828 109.637,-59.7361 109.637,-59.7361 109.637,-59.7361 111,-49.8295"/>
</g>
<!-- node_17_1&#45;&gt;node_17_2 -->
<g id="edge2" class="edge"><title>node_17_1:p13&#45;&gt;node_17_2:p22:s</title>
<path fill="none" stroke="green" d="M117.529,-69.7031C121.872,-64.5731 127.188,-60.0031 129.5,-50.3295 133.27,-34.5514 140.971,-25.3003 129.5,-13.8295 126.32,-10.6499 121.086,-8.48897 116.995,-8.52822"/>
<polygon fill="green" stroke="green" points="107.73,-85.5826 114.562,-77.4855 114.27,-88.0763 107.73,-85.5826"/>
<ellipse fill="green" stroke="green" cx="115.987" cy="-73.7479" rx="4.00001" ry="4.00001"/>
<ellipse fill="green" stroke="green" cx="113.996" cy="-11.1796" rx="4.00002" ry="4.00002"/>
</g>
<!-- node_17_1&#45;&gt;node_17_2 -->
<g id="edge3" class="edge"><title>node_17_1:p13:ne&#45;&gt;node_17_2:p21:s</title>
<path fill="none" stroke="red" d="M139.584,-116.037C139.636,-107.087 136.667,-93.7249 132,-86.3295 112.161,-54.8908 76.3391,-81.7681 56.5,-50.3295 19.4387,8.40091 63.0978,5.43889 72.3483,-8.68478"/>
<polygon fill="red" stroke="red" points="139.449,-116.158 128.998,-119.477 135.725,-119.494 132,-122.829 132,-122.829 132,-122.829 135.725,-119.494 135.002,-126.182 139.449,-116.158 139.449,-116.158"/>
<polygon fill="red" stroke="red" points="78.455,-11.3488 68.9336,-14.4058 68.3222,-12.5016 77.8436,-9.44456 78.455,-11.3488"/>
<polyline fill="none" stroke="red" points="74,-13.8295 72.4715,-9.06879 "/>
</g>
</g>
</svg>
