<?xml version="1.0" encoding="UTF-8" standalone="no"?>
<!DOCTYPE svg PUBLIC "-//W3C//DTD SVG 1.1//EN"
 "http://www.w3.org/Graphics/SVG/1.1/DTD/svg11.dtd">
<!-- Generated by graphviz version 2.30.1 (20130611.0131)
 -->
<!-- Title: graph_17 Pages: 1 -->
<svg width="149pt" height="139pt"
 viewBox="0.00 0.00 148.83 138.82" xmlns="http://www.w3.org/2000/svg" xmlns:xlink="http://www.w3.org/1999/xlink">
<g id="graph0" class="graph" transform="scale(1 1) rotate(0) translate(4 134.819)">
<title>graph_17</title>
<polygon fill="white" stroke="white" points="-4,5 -4,-134.819 145.833,-134.819 145.833,5 -4,5"/>
<!-- node_17_1 -->
<g id="node1" class="node"><title>node_17_1</title>
<polygon fill="none" stroke="black" points="0,-84.5109 0,-120.511 132,-120.511 132,-84.5109 0,-84.5109"/>
<text text-anchor="middle" x="17.5" y="-98.8109" font-family="Times,serif" font-size="14.00">left</text>
<polyline fill="none" stroke="black" points="35,-84.5109 35,-120.511 "/>
<text text-anchor="middle" x="62.5" y="-98.8109" font-family="Times,serif" font-size="14.00">middle</text>
<polyline fill="none" stroke="black" points="90,-84.5109 90,-120.511 "/>
<text text-anchor="middle" x="111" y="-98.8109" font-family="Times,serif" font-size="14.00">right</text>
</g>
<!-- node_17_2 -->
<g id="node2" class="node"><title>node_17_2</title>
<polygon fill="none" stroke="black" points="29.5,-10.5109 29.5,-46.5109 102.5,-46.5109 102.5,-10.5109 29.5,-10.5109"/>
<text text-anchor="middle" x="47.5" y="-24.8109" font-family="Times,serif" font-size="14.00">one</text>
<polyline fill="none" stroke="black" points="65.5,-10.5109 65.5,-46.5109 "/>
<text text-anchor="middle" x="84" y="-24.8109" font-family="Times,serif" font-size="14.00">two</text>
</g>
<!-- node_17_1&#45;&gt;node_17_2 -->
<g id="edge1" class="edge"><title>node_17_1:n&#45;&gt;node_17_2:s</title>
<path fill="none" stroke="blue" stroke-width="5" d="M66,-121.511C66,-136.179 121.707,-130.961 132,-120.511 159.332,-92.762 114.05,-18.8315 102,-10.5109 93.768,-4.82666 81.7635,0.395313 73.9177,-0.395313"/>
<polygon fill="none" stroke="blue" points="73.8692,-0.451258 72.9545,-7.60414 66,-9.51091 66.9147,-2.35803 73.8692,-0.451258"/>
</g>
</g>
</svg>
