<?xml version="1.0" encoding="UTF-8" standalone="no"?>
<!DOCTYPE svg PUBLIC "-//W3C//DTD SVG 1.1//EN"
 "http://www.w3.org/Graphics/SVG/1.1/DTD/svg11.dtd">
<!-- Generated by graphviz version 2.26.3 (20100126.1600)
 -->
<!-- Title: graph_17 Pages: 1 -->
<svg width="149pt" height="139pt"
 viewBox="0.00 0.00 148.96 138.82" xmlns="http://www.w3.org/2000/svg" xmlns:xlink="http://www.w3.org/1999/xlink">
<g id="graph1" class="graph" transform="scale(1 1) rotate(0) translate(4 134.825)">
<title>graph_17</title>
<polygon fill="white" stroke="white" points="-4,5 -4,-134.825 145.961,-134.825 145.961,5 -4,5"/>
<!-- node_17_1 -->
<g id="node1" class="node"><title>node_17_1</title>
<polygon fill="none" stroke="black" points="0,-84.5167 0,-120.517 132,-120.517 132,-84.5167 0,-84.5167"/>
<text text-anchor="middle" x="17.5" y="-99.4167" font-family="Times Roman,serif" font-size="14.00">left</text>
<polyline fill="none" stroke="black" points="35,-84.5167 35,-120.517 "/>
<text text-anchor="middle" x="62.5" y="-99.4167" font-family="Times Roman,serif" font-size="14.00">middle</text>
<polyline fill="none" stroke="black" points="90,-84.5167 90,-120.517 "/>
<text text-anchor="middle" x="111" y="-99.4167" font-family="Times Roman,serif" font-size="14.00">right</text>
</g>
<!-- node_17_2 -->
<g id="node2" class="node"><title>node_17_2</title>
<polygon fill="none" stroke="black" points="29.5,-10.5167 29.5,-46.5167 102.5,-46.5167 102.5,-10.5167 29.5,-10.5167"/>
<text text-anchor="middle" x="47.5" y="-25.4167" font-family="Times Roman,serif" font-size="14.00">one</text>
<polyline fill="none" stroke="black" points="65.5,-10.5167 65.5,-46.5167 "/>
<text text-anchor="middle" x="84" y="-25.4167" font-family="Times Roman,serif" font-size="14.00">two</text>
</g>
<!-- node_17_1&#45;&gt;node_17_2 -->
<g id="edge2" class="edge"><title>node_17_1:n&#45;&gt;node_17_2:s</title>
<path fill="none" stroke="blue" stroke-width="5" d="M66,-121.517C66,-136.185 121.707,-130.967 132,-120.517 159.331,-92.7683 115.314,-19.7339 102,-10.5167 93.7748,-4.82258 81.7686,0.396929 73.9206,-0.396929"/>
<polygon fill="none" stroke="blue" points="73.8687,-0.456667 72.9544,-7.60959 66,-9.51669 66.9144,-2.36376 73.8687,-0.456667"/>
</g>
</g>
</svg>
