<?xml version="1.0" encoding="UTF-8" standalone="no"?>
<!DOCTYPE svg PUBLIC "-//W3C//DTD SVG 1.1//EN"
 "http://www.w3.org/Graphics/SVG/1.1/DTD/svg11.dtd">
<!-- Generated by graphviz version 2.38.0 (20140413.2041)
 -->
<!-- Title: graph_18 Pages: 1 -->
<svg width="478pt" height="227pt"
 viewBox="0.00 0.00 478.05 227.00" xmlns="http://www.w3.org/2000/svg" xmlns:xlink="http://www.w3.org/1999/xlink">
<g id="graph0" class="graph" transform="scale(1 1) rotate(0) translate(4 223)">
<title>graph_18</title>
<polygon fill="white" stroke="none" points="-4,4 -4,-223 474.046,-223 474.046,4 -4,4"/>
<text text-anchor="middle" x="235.023" y="-7.8" font-family="Times,serif" font-size="14.00">dot &#45; graphviz version 2.38.0 (20140413.2041), with local patches from Emden</text>
<g id="clust1" class="cluster"><title>cluster_18_1</title>
<polygon fill="none" stroke="black" points="8,-159 8,-211 242,-211 242,-159 8,-159"/>
</g>
<!-- node_18_1 -->
<g id="node1" class="node"><title>node_18_1</title>
<ellipse fill="red" stroke="black" cx="184" cy="-185" rx="50.0912" ry="18"/>
<text text-anchor="middle" x="184" y="-181.3" font-family="Times,serif" font-size="14.00">node_18_1</text>
</g>
<!-- node_18_3 -->
<g id="node3" class="node"><title>node_18_3</title>
<ellipse fill="green" stroke="black" cx="66" cy="-113" rx="50.0912" ry="18"/>
<text text-anchor="middle" x="66" y="-109.3" font-family="Times,serif" font-size="14.00">node_18_3</text>
</g>
<!-- node_18_1&#45;&gt;node_18_3 -->
<g id="edge1" class="edge"><title>node_18_1&#45;&gt;node_18_3</title>
<path fill="none" stroke="green" d="M149.644,-164.037C134.127,-154.569 115.838,-143.41 100.325,-133.944"/>
<polygon fill="green" stroke="green" points="158.396,-169.377 147.515,-168.01 154.128,-166.773 149.859,-164.168 149.859,-164.168 149.859,-164.168 158.396,-169.377"/>
<polygon fill="none" stroke="green" points="101.914,-130.813 91.5543,-128.592 98.2676,-136.789 101.914,-130.813"/>
</g>
<!-- node_18_4 -->
<g id="node4" class="node"><title>node_18_4</title>
<ellipse fill="green" stroke="black" cx="184" cy="-113" rx="50.0912" ry="18"/>
<text text-anchor="middle" x="184" y="-109.3" font-family="Times,serif" font-size="14.00">node_18_4</text>
</g>
<!-- node_18_1&#45;&gt;node_18_4 -->
<g id="edge2" class="edge"><title>node_18_1&#45;&gt;node_18_4</title>
<path fill="none" stroke="green" d="M184,-156.573C184,-151.679 184,-146.59 184,-141.69"/>
<polygon fill="green" stroke="green" points="184,-166.831 179.5,-156.831 184,-161.831 184,-156.831 184,-156.831 184,-156.831 184,-166.831"/>
<polygon fill="none" stroke="green" points="187.5,-141.413 184,-131.413 180.5,-141.413 187.5,-141.413"/>
</g>
<!-- node_18_2 -->
<g id="node2" class="node"><title>node_18_2</title>
<ellipse fill="red" stroke="black" cx="66" cy="-185" rx="50.0912" ry="18"/>
<text text-anchor="middle" x="66" y="-181.3" font-family="Times,serif" font-size="14.00">node_18_2</text>
</g>
<!-- node_18_2&#45;&gt;node_18_3 -->
<g id="edge3" class="edge"><title>node_18_2&#45;&gt;node_18_3</title>
<path fill="none" stroke="green" d="M66,-156.573C66,-151.679 66,-146.59 66,-141.69"/>
<polygon fill="green" stroke="green" points="66,-166.831 61.5001,-156.831 66,-161.831 66.0001,-156.831 66.0001,-156.831 66.0001,-156.831 66,-166.831"/>
<polygon fill="none" stroke="green" points="69.5001,-141.413 66,-131.413 62.5001,-141.413 69.5001,-141.413"/>
</g>
<!-- node_18_2&#45;&gt;node_18_4 -->
<g id="edge4" class="edge"><title>node_18_2&#45;&gt;node_18_4</title>
<path fill="none" stroke="green" d="M100.356,-164.037C115.873,-154.569 134.162,-143.41 149.675,-133.944"/>
<polygon fill="green" stroke="green" points="91.6042,-169.377 97.7967,-160.327 95.8724,-166.773 100.141,-164.168 100.141,-164.168 100.141,-164.168 91.6042,-169.377"/>
<polygon fill="none" stroke="green" points="151.732,-136.789 158.446,-128.592 148.086,-130.813 151.732,-136.789"/>
</g>
<!-- cluster_18_3 -->
<g id="node5" class="node"><title>cluster_18_3</title>
<ellipse fill="lightgrey" stroke="black" cx="125" cy="-41" rx="55.7903" ry="18"/>
<text text-anchor="middle" x="125" y="-37.3" font-family="Times,serif" font-size="14.00">cluster_18_3</text>
</g>
<!-- node_18_3&#45;&gt;cluster_18_3 -->
<g id="edge5" class="edge"><title>node_18_3&#45;&gt;cluster_18_3</title>
<path fill="none" stroke="green" d="M86.6592,-87.7888C92.3529,-80.8405 98.5308,-73.3014 104.231,-66.3455"/>
<polygon fill="green" stroke="green" points="80.2823,-95.5708 83.1399,-84.9838 83.4514,-91.7034 86.6205,-87.836 86.6205,-87.836 86.6205,-87.836 80.2823,-95.5708"/>
<polygon fill="none" stroke="green" points="107.014,-68.4714 110.645,-58.5182 101.599,-64.0347 107.014,-68.4714"/>
</g>
<!-- node_18_4&#45;&gt;cluster_18_3 -->
<g id="edge6" class="edge"><title>node_18_4&#45;&gt;cluster_18_3</title>
<path fill="none" stroke="green" d="M163.341,-87.7888C157.647,-80.8405 151.469,-73.3014 145.769,-66.3455"/>
<polygon fill="green" stroke="green" points="169.718,-95.5708 159.899,-90.6882 166.549,-91.7034 163.379,-87.836 163.379,-87.836 163.379,-87.836 169.718,-95.5708"/>
<polygon fill="none" stroke="green" points="148.401,-64.0347 139.355,-58.5182 142.986,-68.4714 148.401,-64.0347"/>
</g>
<!-- node_18_5 -->
<g id="node6" class="node"><title>node_18_5</title>
<ellipse fill="blue" stroke="black" cx="302" cy="-185" rx="50.0912" ry="18"/>
<text text-anchor="middle" x="302" y="-181.3" font-family="Times,serif" font-size="14.00">node_18_5</text>
</g>
<!-- node_18_7 -->
<g id="node8" class="node"><title>node_18_7</title>
<ellipse fill="yellow" stroke="black" cx="302" cy="-113" rx="50.0912" ry="18"/>
<text text-anchor="middle" x="302" y="-109.3" font-family="Times,serif" font-size="14.00">node_18_7</text>
</g>
<!-- node_18_5&#45;&gt;node_18_7 -->
<g id="edge7" class="edge"><title>node_18_5&#45;&gt;node_18_7</title>
<path fill="none" stroke="blue" d="M302,-156.573C302,-151.679 302,-146.59 302,-141.69"/>
<polygon fill="none" stroke="blue" points="298.5,-156.831 302,-166.831 305.5,-156.831 298.5,-156.831"/>
<polygon fill="blue" stroke="blue" points="302,-131.413 306.5,-141.413 302,-136.413 302,-141.413 302,-141.413 302,-141.413 302,-131.413"/>
</g>
<!-- node_18_6 -->
<g id="node7" class="node"><title>node_18_6</title>
<ellipse fill="blue" stroke="black" cx="420" cy="-185" rx="50.0912" ry="18"/>
<text text-anchor="middle" x="420" y="-181.3" font-family="Times,serif" font-size="14.00">node_18_6</text>
</g>
<!-- node_18_6&#45;&gt;node_18_7 -->
<g id="edge8" class="edge"><title>node_18_6&#45;&gt;node_18_7</title>
<path fill="none" stroke="blue" d="M385.644,-164.037C370.127,-154.569 351.838,-143.41 336.325,-133.944"/>
<polygon fill="none" stroke="blue" points="384.036,-167.156 394.396,-169.377 387.682,-161.181 384.036,-167.156"/>
<polygon fill="blue" stroke="blue" points="327.554,-128.592 338.435,-129.96 331.822,-131.197 336.091,-133.801 336.091,-133.801 336.091,-133.801 327.554,-128.592"/>
</g>
</g>
</svg>
