<?xml version="1.0" encoding="UTF-8" standalone="no"?>
<!DOCTYPE svg PUBLIC "-//W3C//DTD SVG 1.1//EN"
 "http://www.w3.org/Graphics/SVG/1.1/DTD/svg11.dtd">
<!-- Generated by graphviz version 2.38.0 (20140413.2041)
 -->
<!-- Title: graph_20 Pages: 1 -->
<svg width="108pt" height="188pt"
 viewBox="0.00 0.00 108.09 188.00" xmlns="http://www.w3.org/2000/svg" xmlns:xlink="http://www.w3.org/1999/xlink">
<g id="graph0" class="graph" transform="scale(1 1) rotate(0) translate(4 184)">
<title>graph_20</title>
<polygon fill="white" stroke="none" points="-4,4 -4,-184 104.091,-184 104.091,4 -4,4"/>
<!-- node_20_1 -->
<g id="node1" class="node"><title>node_20_1</title>
<ellipse fill="none" stroke="black" cx="50.0456" cy="-162" rx="50.0912" ry="18"/>
<text text-anchor="middle" x="50.0456" y="-158.3" font-family="Times,serif" font-size="14.00">node_20_1</text>
</g>
<!-- node_20_2 -->
<g id="node2" class="node"><title>node_20_2</title>
<ellipse fill="none" stroke="black" cx="50.0456" cy="-90" rx="50.0912" ry="18"/>
<text text-anchor="middle" x="50.0456" y="-86.3" font-family="Times,serif" font-size="14.00">node_20_2</text>
</g>
<!-- node_20_1&#45;&gt;node_20_2 -->
<g id="edge1" class="edge"><title>node_20_1&#45;&gt;node_20_2</title>
<path fill="none" stroke="black" stroke-width="3" d="M50.0456,-143.831C50.0456,-136.131 50.0456,-126.974 50.0456,-118.417"/>
<polygon fill="black" stroke="black" stroke-width="3" points="53.5457,-118.413 50.0456,-108.413 46.5457,-118.413 53.5457,-118.413"/>
</g>
<!-- node_20_3 -->
<g id="node3" class="node"><title>node_20_3</title>
<ellipse fill="none" stroke="black" cx="50.0456" cy="-18" rx="50.0912" ry="18"/>
<text text-anchor="middle" x="50.0456" y="-14.3" font-family="Times,serif" font-size="14.00">node_20_3</text>
</g>
<!-- node_20_2&#45;&gt;node_20_3 -->
<g id="edge2" class="edge"><title>node_20_2&#45;&gt;node_20_3</title>
<path fill="none" stroke="black" stroke-width="3" d="M50.0456,-71.8314C50.0456,-64.131 50.0456,-54.9743 50.0456,-46.4166"/>
<polygon fill="black" stroke="black" stroke-width="3" points="53.5457,-46.4132 50.0456,-36.4133 46.5457,-46.4133 53.5457,-46.4132"/>
</g>
</g>
</svg>
