<?xml version="1.0" encoding="UTF-8" standalone="no"?>
<!DOCTYPE svg PUBLIC "-//W3C//DTD SVG 1.1//EN"
 "http://www.w3.org/Graphics/SVG/1.1/DTD/svg11.dtd">
<!-- Generated by graphviz version 2.34.0 (20131125.0033)
 -->
<!-- Title: graph_33 Pages: 1 -->
<svg width="288pt" height="148pt"
 viewBox="0.00 0.00 288.00 148.00" xmlns="http://www.w3.org/2000/svg" xmlns:xlink="http://www.w3.org/1999/xlink">
<g id="graph0" class="graph" transform="scale(1 1) rotate(0) translate(4 144)">
<title>graph_33</title>
<polygon fill="white" stroke="white" points="-4,4 -4,-144 284,-144 284,4 -4,4"/>
<!-- node_33_1 -->
<g id="node1" class="node"><title>node_33_1</title>
<ellipse fill="none" stroke="red" cx="140" cy="-114" rx="140.011" ry="25.4118"/>
<polygon fill="none" stroke="red" points="52,-103 52,-125 228,-125 228,-103 52,-103"/>
<text text-anchor="start" x="55.5" y="-110.3" font-family="Times,serif" font-size="14.00" fill="green">html&#45;style label for node_33_1</text>
<polygon fill="none" stroke="red" points="49,-100 49,-128 231,-128 231,-100 49,-100"/>
</g>
<!-- node_33_2 -->
<g id="node2" class="node"><title>node_33_2</title>
<ellipse fill="none" stroke="green" cx="140" cy="-26" rx="140.011" ry="25.4118"/>
<polygon fill="none" stroke="green" points="52,-15 52,-37 228,-37 228,-15 52,-15"/>
<text text-anchor="start" x="55.5" y="-22.3" font-family="Times,serif" font-size="14.00" fill="red">html&#45;style label for node_33_2</text>
<polygon fill="none" stroke="green" points="49,-12 49,-40 231,-40 231,-12 49,-12"/>
</g>
<!-- node_33_1&#45;&gt;node_33_2 -->
<g id="edge1" class="edge"><title>node_33_1&#45;&gt;node_33_2</title>
<path fill="none" stroke="blue" d="M140,-75.9709C140,-71.1912 140,-66.3111 140,-61.5731"/>
<polygon fill="blue" stroke="blue" points="140,-76.1252 144,-82.1253 140,-88.1252 136,-82.1252 140,-76.1252"/>
<polygon fill="blue" stroke="blue" points="140,-61.5219 144.5,-51.5218 140,-56.5219 140,-51.5219 140,-51.5219 140,-51.5219 140,-56.5219 135.5,-51.5219 140,-61.5219 140,-61.5219"/>
</g>
</g>
</svg>
