<?xml version="1.0" encoding="UTF-8" standalone="no"?>
<!DOCTYPE svg PUBLIC "-//W3C//DTD SVG 1.1//EN"
 "http://www.w3.org/Graphics/SVG/1.1/DTD/svg11.dtd">
<!-- Generated by graphviz version 2.26.3 (20100126.1600)
 -->
<!-- Title: graph_35 Pages: 1 -->
<svg width="288pt" height="144pt"
 viewBox="0.00 0.00 288.00 144.00" xmlns="http://www.w3.org/2000/svg" xmlns:xlink="http://www.w3.org/1999/xlink">
<g id="graph1" class="graph" transform="scale(1 1) rotate(0) translate(4 140)">
<title>graph_35</title>
<polygon fill="white" stroke="white" points="-4,5 -4,-140 285,-140 285,5 -4,5"/>
<!-- node_35_1 -->
<g id="node1" class="node"><title>node_35_1</title>
<ellipse fill="none" stroke="red" cx="140" cy="-111" rx="140.007" ry="24.7487"/>
<polygon fill="none" stroke="red" points="49,-97.5 49,-124.5 231,-124.5 231,-97.5 49,-97.5"/>
<polygon fill="none" stroke="red" points="52,-100 52,-121 228,-121 228,-100 52,-100"/>
<text text-anchor="start" x="55.5" y="-107.233" font-family="Times Roman,serif" font-size="14.00" fill="green">html&#45;style label for node_35_1</text>
</g>
<!-- node_35_2 -->
<g id="node2" class="node"><title>node_35_2</title>
<ellipse fill="none" stroke="green" cx="140" cy="-25" rx="140.007" ry="24.7487"/>
<polygon fill="none" stroke="green" points="49,-11.5 49,-38.5 231,-38.5 231,-11.5 49,-11.5"/>
<polygon fill="none" stroke="green" points="52,-14 52,-35 228,-35 228,-14 52,-14"/>
<text text-anchor="start" x="55.5" y="-21.2333" font-family="Times Roman,serif" font-size="14.00" fill="red">html&#45;style label for node_35_2</text>
</g>
<!-- node_35_1&#45;&gt;node_35_2 -->
<g id="edge2" class="edge"><title>node_35_1&#45;&gt;node_35_2</title>
<path fill="none" stroke="blue" d="M140,-73.9709C140,-69.1912 140,-64.3111 140,-59.5731"/>
<polygon fill="blue" stroke="blue" points="140,-74.1252 144,-80.1253 140,-86.1252 136,-80.1252 140,-74.1252"/>
<polygon fill="blue" stroke="blue" points="140,-59.5219 144.5,-49.5218 140,-54.5219 140,-49.5219 140,-49.5219 140,-49.5219 140,-54.5219 135.5,-49.5219 140,-59.5219 140,-59.5219"/>
</g>
</g>
</svg>
