<?xml version="1.0" encoding="UTF-8" standalone="no"?>
<!DOCTYPE svg PUBLIC "-//W3C//DTD SVG 1.1//EN"
 "http://www.w3.org/Graphics/SVG/1.1/DTD/svg11.dtd">
<!-- Generated by graphviz version 2.30.1 (20130611.0131)
 -->
<!-- Title: graph_35 Pages: 1 -->
<svg width="288pt" height="144pt"
 viewBox="0.00 0.00 288.00 144.00" xmlns="http://www.w3.org/2000/svg" xmlns:xlink="http://www.w3.org/1999/xlink">
<g id="graph0" class="graph" transform="scale(1 1) rotate(0) translate(4 140)">
<title>graph_35</title>
<polygon fill="white" stroke="white" points="-4,5 -4,-140 285,-140 285,5 -4,5"/>
<!-- node_35_1 -->
<g id="node1" class="node"><title>node_35_1</title>
<ellipse fill="none" stroke="red" cx="140" cy="-111" rx="140.011" ry="25"/>
<polygon fill="none" stroke="red" points="52,-100 52,-121 228,-121 228,-100 52,-100"/>
<text text-anchor="start" x="55.5" y="-107.3" font-family="Times,serif" font-size="14.00" fill="green">html&#45;style label for node_35_1</text>
<polygon fill="none" stroke="red" points="49,-97.5 49,-124.5 231,-124.5 231,-97.5 49,-97.5"/>
</g>
<!-- node_35_2 -->
<g id="node2" class="node"><title>node_35_2</title>
<ellipse fill="none" stroke="green" cx="140" cy="-25" rx="140.011" ry="25"/>
<polygon fill="none" stroke="green" points="52,-14 52,-35 228,-35 228,-14 52,-14"/>
<text text-anchor="start" x="55.5" y="-21.3" font-family="Times,serif" font-size="14.00" fill="red">html&#45;style label for node_35_2</text>
<polygon fill="none" stroke="green" points="49,-11.5 49,-38.5 231,-38.5 231,-11.5 49,-11.5"/>
</g>
<!-- node_35_1&#45;&gt;node_35_2 -->
<g id="edge1" class="edge"><title>node_35_1&#45;&gt;node_35_2</title>
<path fill="none" stroke="blue" d="M140,-74.1393C140,-69.5344 140,-64.8288 140,-60.2505"/>
<polygon fill="blue" stroke="blue" points="140,-74.1537 144,-80.1537 140,-86.1537 136,-80.1536 140,-74.1537"/>
<polygon fill="blue" stroke="blue" points="140,-59.906 144.5,-49.9059 140,-54.906 140,-49.906 140,-49.906 140,-49.906 140,-54.906 135.5,-49.906 140,-59.906 140,-59.906"/>
</g>
</g>
</svg>
