<?xml version="1.0" encoding="UTF-8" standalone="no"?>
<!DOCTYPE svg PUBLIC "-//W3C//DTD SVG 1.1//EN"
 "http://www.w3.org/Graphics/SVG/1.1/DTD/svg11.dtd">
<!-- Generated by graphviz version 2.26.3 (20100126.1600)
 -->
<!-- Title: graph_44 Pages: 1 -->
<svg width="214pt" height="44pt"
 viewBox="0.00 0.00 214.00 44.00" xmlns="http://www.w3.org/2000/svg" xmlns:xlink="http://www.w3.org/1999/xlink">
<g id="graph1" class="graph" transform="scale(1 1) rotate(0) translate(4 40)">
<title>graph_44</title>
<polygon fill="white" stroke="white" points="-4,5 -4,-40 211,-40 211,5 -4,5"/>
<!-- course -->
<g id="node1" class="node"><title>course</title>
<polygon fill="none" stroke="black" points="54,-36 2.13163e-14,-36 0,-1.77636e-14 54,-3.55271e-15 54,-36"/>
<text text-anchor="middle" x="27" y="-14.9" font-family="Times Roman,serif" font-size="14.00">course</text>
</g>
<!-- institute -->
<g id="node2" class="node"><title>institute</title>
<polygon fill="none" stroke="black" points="132,-36 72,-36 72,-1.77636e-14 132,-3.55271e-15 132,-36"/>
<text text-anchor="middle" x="102" y="-14.9" font-family="Times Roman,serif" font-size="14.00">institute</text>
</g>
<!-- student -->
<g id="node3" class="node"><title>student</title>
<polygon fill="none" stroke="black" points="206,-36 150,-36 150,-1.77636e-14 206,-3.55271e-15 206,-36"/>
<text text-anchor="middle" x="178" y="-14.9" font-family="Times Roman,serif" font-size="14.00">student</text>
</g>
</g>
</svg>
