<?xml version="1.0" encoding="UTF-8" standalone="no"?>
<!DOCTYPE svg PUBLIC "-//W3C//DTD SVG 1.1//EN"
 "http://www.w3.org/Graphics/SVG/1.1/DTD/svg11.dtd">
<!-- Generated by graphviz version 2.26.3 (20100126.1600)
 -->
<!-- Title: graph_45 Pages: 1 -->
<svg width="466pt" height="46pt"
 viewBox="0.00 0.00 466.00 46.00" xmlns="http://www.w3.org/2000/svg" xmlns:xlink="http://www.w3.org/1999/xlink">
<g id="graph1" class="graph" transform="scale(1 1) rotate(0) translate(4 42)">
<title>graph_45</title>
<polygon fill="white" stroke="white" points="-4,5 -4,-42 463,-42 463,5 -4,5"/>
<!-- course -->
<g id="node1" class="node"><title>course</title>
<polygon fill="none" stroke="black" points="54,-37 2.13163e-14,-37 0,-1 54,-1 54,-37"/>
<text text-anchor="middle" x="27" y="-15.9" font-family="Times Roman,serif" font-size="14.00">course</text>
</g>
<!-- institute -->
<g id="node2" class="node"><title>institute</title>
<polygon fill="none" stroke="black" points="132,-37 72,-37 72,-1 132,-1 132,-37"/>
<text text-anchor="middle" x="102" y="-15.9" font-family="Times Roman,serif" font-size="14.00">institute</text>
</g>
<!-- student -->
<g id="node3" class="node"><title>student</title>
<polygon fill="none" stroke="black" points="206,-37 150,-37 150,-1 206,-1 206,-37"/>
<text text-anchor="middle" x="178" y="-15.9" font-family="Times Roman,serif" font-size="14.00">student</text>
</g>
<!-- name0 -->
<g id="node4" class="node"><title>name0</title>
<ellipse fill="none" stroke="black" cx="257" cy="-19" rx="33.234" ry="19.0919"/>
<text text-anchor="middle" x="257" y="-15.9" font-family="Times Roman,serif" font-size="14.00">name</text>
</g>
<!-- name1 -->
<g id="node5" class="node"><title>name1</title>
<ellipse fill="none" stroke="black" cx="341" cy="-19" rx="33.234" ry="19.0919"/>
<text text-anchor="middle" x="341" y="-15.9" font-family="Times Roman,serif" font-size="14.00">name</text>
</g>
<!-- name2 -->
<g id="node6" class="node"><title>name2</title>
<ellipse fill="none" stroke="black" cx="425" cy="-19" rx="33.234" ry="19.0919"/>
<text text-anchor="middle" x="425" y="-15.9" font-family="Times Roman,serif" font-size="14.00">name</text>
</g>
</g>
</svg>
