<?xml version="1.0" encoding="UTF-8" standalone="no"?>
<!DOCTYPE svg PUBLIC "-//W3C//DTD SVG 1.1//EN"
 "http://www.w3.org/Graphics/SVG/1.1/DTD/svg11.dtd">
<!-- Generated by graphviz version 2.38.0 (20140413.2041)
 -->
<!-- Title: graph_47_02 Pages: 1 -->
<svg width="260pt" height="116pt"
 viewBox="0.00 0.00 259.84 116.00" xmlns="http://www.w3.org/2000/svg" xmlns:xlink="http://www.w3.org/1999/xlink">
<g id="graph0" class="graph" transform="scale(1 1) rotate(0) translate(4 112)">
<title>graph_47_02</title>
<polygon fill="white" stroke="none" points="-4,4 -4,-112 255.844,-112 255.844,4 -4,4"/>
<!-- small -->
<g id="node1" class="node"><title>small</title>
<ellipse fill="none" stroke="black" cx="30.5473" cy="-90" rx="30.5947" ry="18"/>
<text text-anchor="middle" x="30.5473" y="-86.3" font-family="Times,serif" font-size="14.00">small</text>
</g>
<!-- big -->
<g id="node4" class="node"><title>big</title>
<ellipse fill="none" stroke="black" cx="38.5473" cy="-18" rx="27" ry="18"/>
<text text-anchor="middle" x="38.5473" y="-14.3" font-family="Times,serif" font-size="14.00">big</text>
</g>
<!-- small&#45;&gt;big -->
<g id="edge1" class="edge"><title>small&#45;&gt;big</title>
<path fill="none" stroke="black" d="M32.566,-71.8314C33.4216,-64.131 34.439,-54.9743 35.3899,-46.4166"/>
<polygon fill="black" stroke="black" points="38.8756,-46.7386 36.5014,-36.4133 31.9184,-45.9656 38.8756,-46.7386"/>
</g>
<!-- bigger -->
<g id="node5" class="node"><title>bigger</title>
<ellipse fill="none" stroke="black" cx="116.547" cy="-18" rx="33.2948" ry="18"/>
<text text-anchor="middle" x="116.547" y="-14.3" font-family="Times,serif" font-size="14.00">bigger</text>
</g>
<!-- small&#45;&gt;bigger -->
<g id="edge2" class="edge"><title>small&#45;&gt;bigger</title>
<path fill="none" stroke="black" d="M48.3665,-75.0816C60.6225,-64.8208 77.0923,-51.0321 90.7743,-39.5774"/>
<polygon fill="black" stroke="black" points="93.0342,-42.2501 98.455,-33.147 88.5406,-36.8828 93.0342,-42.2501"/>
</g>
<!-- biggest -->
<g id="node6" class="node"><title>biggest</title>
<ellipse fill="none" stroke="black" cx="204.547" cy="-18" rx="36.2938" ry="18"/>
<text text-anchor="middle" x="204.547" y="-14.3" font-family="Times,serif" font-size="14.00">biggest</text>
</g>
<!-- small&#45;&gt;biggest -->
<g id="edge3" class="edge"><title>small&#45;&gt;biggest</title>
<path fill="none" stroke="black" d="M55.018,-78.8028C60.1328,-76.5146 65.5035,-74.1501 70.5473,-72 102.707,-58.2906 139.57,-43.5019 166.482,-32.8733"/>
<polygon fill="black" stroke="black" points="167.898,-36.0772 175.919,-29.1554 165.332,-29.5644 167.898,-36.0772"/>
</g>
<!-- smaller -->
<g id="node2" class="node"><title>smaller</title>
<ellipse fill="none" stroke="black" cx="116.547" cy="-90" rx="37.0935" ry="18"/>
<text text-anchor="middle" x="116.547" y="-86.3" font-family="Times,serif" font-size="14.00">smaller</text>
</g>
<!-- smaller&#45;&gt;big -->
<g id="edge4" class="edge"><title>smaller&#45;&gt;big</title>
<path fill="none" stroke="black" d="M99.2366,-74.0209C88.2651,-63.8934 73.9357,-50.6663 61.9559,-39.608"/>
<polygon fill="black" stroke="black" points="64.2037,-36.9197 54.4817,-32.7087 59.4557,-42.0633 64.2037,-36.9197"/>
</g>
<!-- smaller&#45;&gt;bigger -->
<g id="edge5" class="edge"><title>smaller&#45;&gt;bigger</title>
<path fill="none" stroke="black" d="M116.547,-71.8314C116.547,-64.131 116.547,-54.9743 116.547,-46.4166"/>
<polygon fill="black" stroke="black" points="120.047,-46.4132 116.547,-36.4133 113.047,-46.4133 120.047,-46.4132"/>
</g>
<!-- smaller&#45;&gt;biggest -->
<g id="edge6" class="edge"><title>smaller&#45;&gt;biggest</title>
<path fill="none" stroke="black" d="M135.642,-74.3771C147.866,-64.376 163.913,-51.2464 177.446,-40.1742"/>
<polygon fill="black" stroke="black" points="179.967,-42.6337 185.49,-33.5924 175.534,-37.216 179.967,-42.6337"/>
</g>
<!-- smallest -->
<g id="node3" class="node"><title>smallest</title>
<ellipse fill="none" stroke="black" cx="211.547" cy="-90" rx="40.0939" ry="18"/>
<text text-anchor="middle" x="211.547" y="-86.3" font-family="Times,serif" font-size="14.00">smallest</text>
</g>
<!-- smallest&#45;&gt;big -->
<g id="edge7" class="edge"><title>smallest&#45;&gt;big</title>
<path fill="none" stroke="black" d="M180.209,-78.5477C152.229,-68.1102 110.27,-51.9338 74.5473,-36 72.7764,-35.2101 70.9664,-34.38 69.1466,-33.5275"/>
<polygon fill="black" stroke="black" points="70.629,-30.3567 60.1015,-29.1635 67.5871,-36.6613 70.629,-30.3567"/>
</g>
<!-- smallest&#45;&gt;bigger -->
<g id="edge8" class="edge"><title>smallest&#45;&gt;bigger</title>
<path fill="none" stroke="black" d="M190.934,-74.3771C177.34,-64.0742 159.365,-50.4511 144.49,-39.1776"/>
<polygon fill="black" stroke="black" points="146.231,-36.1051 136.147,-32.8543 142.002,-41.6839 146.231,-36.1051"/>
</g>
<!-- smallest&#45;&gt;biggest -->
<g id="edge9" class="edge"><title>smallest&#45;&gt;biggest</title>
<path fill="none" stroke="black" d="M209.781,-71.8314C209.032,-64.131 208.142,-54.9743 207.31,-46.4166"/>
<polygon fill="black" stroke="black" points="210.789,-46.0276 206.337,-36.4133 203.822,-46.7051 210.789,-46.0276"/>
</g>
</g>
</svg>
