<?xml version="1.0" encoding="UTF-8" standalone="no"?>
<!DOCTYPE svg PUBLIC "-//W3C//DTD SVG 1.1//EN"
 "http://www.w3.org/Graphics/SVG/1.1/DTD/svg11.dtd">
<!-- Generated by graphviz version 2.38.0 (20140413.2041)
 -->
<!-- Title: graph_47_02 Pages: 1 -->
<svg width="260pt" height="116pt"
 viewBox="0.00 0.00 259.84 116.00" xmlns="http://www.w3.org/2000/svg" xmlns:xlink="http://www.w3.org/1999/xlink">
<g id="graph0" class="graph" transform="scale(1 1) rotate(0) translate(4 112)">
<title>graph_47_02</title>
<polygon fill="white" stroke="none" points="-4,4 -4,-112 255.844,-112 255.844,4 -4,4"/>
<!-- small -->
<g id="node1" class="node"><title>small</title>
<ellipse fill="none" stroke="black" cx="30.5473" cy="-90" rx="30.5947" ry="18"/>
<text text-anchor="middle" x="30.5473" y="-86.3" font-family="Times,serif" font-size="14.00">small</text>
</g>
<!-- big -->
<g id="node4" class="node"><title>big</title>
<ellipse fill="none" stroke="black" cx="116.547" cy="-18" rx="27" ry="18"/>
<text text-anchor="middle" x="116.547" y="-14.3" font-family="Times,serif" font-size="14.00">big</text>
</g>
<!-- small&#45;&gt;big -->
<g id="edge1" class="edge"><title>small&#45;&gt;big</title>
<path fill="none" stroke="black" d="M48.3665,-75.0816C60.9515,-64.5453 77.9796,-50.2892 91.8701,-38.66"/>
<polygon fill="black" stroke="black" points="94.2078,-41.2675 99.6286,-32.1645 89.7142,-35.9002 94.2078,-41.2675"/>
</g>
<!-- smaller -->
<g id="node2" class="node"><title>smaller</title>
<ellipse fill="none" stroke="black" cx="116.547" cy="-90" rx="37.0935" ry="18"/>
<text text-anchor="middle" x="116.547" y="-86.3" font-family="Times,serif" font-size="14.00">smaller</text>
</g>
<!-- smaller&#45;&gt;big -->
<g id="edge2" class="edge"><title>smaller&#45;&gt;big</title>
<path fill="none" stroke="black" d="M116.547,-71.8314C116.547,-64.131 116.547,-54.9743 116.547,-46.4166"/>
<polygon fill="black" stroke="black" points="120.047,-46.4132 116.547,-36.4133 113.047,-46.4133 120.047,-46.4132"/>
</g>
<!-- smallest -->
<g id="node3" class="node"><title>smallest</title>
<ellipse fill="none" stroke="black" cx="211.547" cy="-90" rx="40.0939" ry="18"/>
<text text-anchor="middle" x="211.547" y="-86.3" font-family="Times,serif" font-size="14.00">smallest</text>
</g>
<!-- smallest&#45;&gt;big -->
<g id="edge3" class="edge"><title>smallest&#45;&gt;big</title>
<path fill="none" stroke="black" d="M190.934,-74.3771C176.752,-63.6289 157.803,-49.2674 142.579,-37.7296"/>
<polygon fill="black" stroke="black" points="144.643,-34.902 134.559,-31.6511 140.415,-40.4808 144.643,-34.902"/>
</g>
</g>
</svg>
