<?xml version="1.0" encoding="UTF-8" standalone="no"?>
<!DOCTYPE svg PUBLIC "-//W3C//DTD SVG 1.1//EN"
 "http://www.w3.org/Graphics/SVG/1.1/DTD/svg11.dtd">
<!-- Generated by graphviz version 2.26.3 (20100126.1600)
 -->
<!-- Title: graph_47 Pages: 1 -->
<svg width="278pt" height="120pt"
 viewBox="0.00 0.00 278.00 120.00" xmlns="http://www.w3.org/2000/svg" xmlns:xlink="http://www.w3.org/1999/xlink">
<g id="graph1" class="graph" transform="scale(1 1) rotate(0) translate(4 116)">
<title>graph_47</title>
<polygon fill="white" stroke="white" points="-4,5 -4,-116 275,-116 275,5 -4,5"/>
<!-- big -->
<g id="node1" class="node"><title>big</title>
<ellipse fill="none" stroke="black" cx="124" cy="-93" rx="27" ry="19.0919"/>
<text text-anchor="middle" x="124" y="-89.9" font-family="Times Roman,serif" font-size="14.00">big</text>
</g>
<!-- small -->
<g id="node4" class="node"><title>small</title>
<ellipse fill="none" stroke="black" cx="33" cy="-19" rx="33.234" ry="19.0919"/>
<text text-anchor="middle" x="33" y="-15.9" font-family="Times Roman,serif" font-size="14.00">small</text>
</g>
<!-- big&#45;&gt;small -->
<g id="edge3" class="edge"><title>big&#45;&gt;small</title>
<path fill="none" stroke="black" d="M106.021,-78.38C92.9102,-67.7181 74.9153,-53.085 60.0702,-41.0131"/>
<polygon fill="black" stroke="black" points="62.1647,-38.2052 52.198,-34.6115 57.7483,-43.6362 62.1647,-38.2052"/>
</g>
<!-- smaller -->
<g id="node5" class="node"><title>smaller</title>
<ellipse fill="none" stroke="black" cx="124" cy="-19" rx="39.8075" ry="19.0919"/>
<text text-anchor="middle" x="124" y="-15.9" font-family="Times Roman,serif" font-size="14.00">smaller</text>
</g>
<!-- big&#45;&gt;smaller -->
<g id="edge4" class="edge"><title>big&#45;&gt;smaller</title>
<path fill="none" stroke="black" d="M124,-73.9432C124,-66.1493 124,-56.9538 124,-48.3381"/>
<polygon fill="black" stroke="black" points="127.5,-48.2494 124,-38.2495 120.5,-48.2495 127.5,-48.2494"/>
</g>
<!-- smallest -->
<g id="node6" class="node"><title>smallest</title>
<ellipse fill="none" stroke="black" cx="226" cy="-19" rx="43.8406" ry="19.0919"/>
<text text-anchor="middle" x="226" y="-15.9" font-family="Times Roman,serif" font-size="14.00">smallest</text>
</g>
<!-- big&#45;&gt;smallest -->
<g id="edge5" class="edge"><title>big&#45;&gt;smallest</title>
<path fill="none" stroke="black" d="M143.185,-79.0812C157.732,-68.528 178.027,-53.8039 194.885,-41.5734"/>
<polygon fill="black" stroke="black" points="197.3,-44.1455 203.339,-35.4402 193.19,-38.4796 197.3,-44.1455"/>
</g>
</g>
</svg>
