<?xml version="1.0" encoding="UTF-8" standalone="no"?>
<!DOCTYPE svg PUBLIC "-//W3C//DTD SVG 1.1//EN"
 "http://www.w3.org/Graphics/SVG/1.1/DTD/svg11.dtd">
<!-- Generated by graphviz version 2.29.20121107.0545 (20121107.0545)
 -->
<!-- Title: graph_47 Pages: 1 -->
<svg width="259pt" height="116pt"
 viewBox="0.00 0.00 259.00 116.00" xmlns="http://www.w3.org/2000/svg" xmlns:xlink="http://www.w3.org/1999/xlink">
<g id="graph0" class="graph" transform="scale(1 1) rotate(0) translate(4 112)">
<title>graph_47</title>
<polygon fill="white" stroke="white" points="-4,5 -4,-112 256,-112 256,5 -4,5"/>
<!-- big -->
<g id="node1" class="node"><title>big</title>
<ellipse fill="none" stroke="black" cx="116" cy="-90" rx="27" ry="18"/>
<text text-anchor="middle" x="116" y="-86.3" font-family="Times,serif" font-size="14.00">big</text>
</g>
<!-- small -->
<g id="node2" class="node"><title>small</title>
<ellipse fill="none" stroke="black" cx="30" cy="-18" rx="30.3206" ry="18"/>
<text text-anchor="middle" x="30" y="-14.3" font-family="Times,serif" font-size="14.00">small</text>
</g>
<!-- big&#45;&gt;small -->
<g id="edge1" class="edge"><title>big&#45;&gt;small</title>
<path fill="none" stroke="black" d="M99.4183,-75.5033C86.8513,-65.2744 69.3692,-51.0447 55.0931,-39.4246"/>
<polygon fill="black" stroke="black" points="57.0845,-36.5327 47.1194,-32.9344 52.6656,-41.9616 57.0845,-36.5327"/>
</g>
<!-- smaller -->
<g id="node3" class="node"><title>smaller</title>
<ellipse fill="none" stroke="black" cx="116" cy="-18" rx="37.0701" ry="18"/>
<text text-anchor="middle" x="116" y="-14.3" font-family="Times,serif" font-size="14.00">smaller</text>
</g>
<!-- big&#45;&gt;smaller -->
<g id="edge2" class="edge"><title>big&#45;&gt;smaller</title>
<path fill="none" stroke="black" d="M116,-71.6966C116,-63.9827 116,-54.7125 116,-46.1124"/>
<polygon fill="black" stroke="black" points="119.5,-46.1043 116,-36.1043 112.5,-46.1044 119.5,-46.1043"/>
</g>
<!-- smallest -->
<g id="node4" class="node"><title>smallest</title>
<ellipse fill="none" stroke="black" cx="211" cy="-18" rx="39.9464" ry="18"/>
<text text-anchor="middle" x="211" y="-14.3" font-family="Times,serif" font-size="14.00">smallest</text>
</g>
<!-- big&#45;&gt;smallest -->
<g id="edge3" class="edge"><title>big&#45;&gt;smallest</title>
<path fill="none" stroke="black" d="M133.424,-76.1609C147.164,-66.037 166.607,-51.7107 182.59,-39.9334"/>
<polygon fill="black" stroke="black" points="185.082,-42.4454 191.056,-33.6956 180.929,-36.8099 185.082,-42.4454"/>
</g>
</g>
</svg>
