<?xml version="1.0" encoding="UTF-8" standalone="no"?>
<!DOCTYPE svg PUBLIC "-//W3C//DTD SVG 1.1//EN"
 "http://www.w3.org/Graphics/SVG/1.1/DTD/svg11.dtd">
<!-- Generated by graphviz version 2.38.0 (20140413.2041)
 -->
<!-- Title: graph_47 Pages: 1 -->
<svg width="260pt" height="116pt"
 viewBox="0.00 0.00 259.84 116.00" xmlns="http://www.w3.org/2000/svg" xmlns:xlink="http://www.w3.org/1999/xlink">
<g id="graph0" class="graph" transform="scale(1 1) rotate(0) translate(4 112)">
<title>graph_47</title>
<polygon fill="white" stroke="none" points="-4,4 -4,-112 255.844,-112 255.844,4 -4,4"/>
<!-- big -->
<g id="node1" class="node"><title>big</title>
<ellipse fill="none" stroke="black" cx="116.547" cy="-90" rx="27" ry="18"/>
<text text-anchor="middle" x="116.547" y="-86.3" font-family="Times,serif" font-size="14.00">big</text>
</g>
<!-- small -->
<g id="node2" class="node"><title>small</title>
<ellipse fill="none" stroke="black" cx="30.5473" cy="-18" rx="30.5947" ry="18"/>
<text text-anchor="middle" x="30.5473" y="-14.3" font-family="Times,serif" font-size="14.00">small</text>
</g>
<!-- big&#45;&gt;small -->
<g id="edge1" class="edge"><title>big&#45;&gt;small</title>
<path fill="none" stroke="black" d="M99.5565,-75.7751C87.1986,-65.429 70.2498,-51.2393 56.2419,-39.5118"/>
<polygon fill="black" stroke="black" points="58.3054,-36.6747 48.391,-32.9389 53.8118,-42.042 58.3054,-36.6747"/>
</g>
<!-- smaller -->
<g id="node3" class="node"><title>smaller</title>
<ellipse fill="none" stroke="black" cx="116.547" cy="-18" rx="37.0935" ry="18"/>
<text text-anchor="middle" x="116.547" y="-14.3" font-family="Times,serif" font-size="14.00">smaller</text>
</g>
<!-- big&#45;&gt;smaller -->
<g id="edge2" class="edge"><title>big&#45;&gt;smaller</title>
<path fill="none" stroke="black" d="M116.547,-71.8314C116.547,-64.131 116.547,-54.9743 116.547,-46.4166"/>
<polygon fill="black" stroke="black" points="120.047,-46.4132 116.547,-36.4133 113.047,-46.4133 120.047,-46.4132"/>
</g>
<!-- smallest -->
<g id="node4" class="node"><title>smallest</title>
<ellipse fill="none" stroke="black" cx="211.547" cy="-18" rx="40.0939" ry="18"/>
<text text-anchor="middle" x="211.547" y="-14.3" font-family="Times,serif" font-size="14.00">smallest</text>
</g>
<!-- big&#45;&gt;smallest -->
<g id="edge3" class="edge"><title>big&#45;&gt;smallest</title>
<path fill="none" stroke="black" d="M134.416,-76.4574C147.93,-66.2149 166.773,-51.9343 182.451,-40.0519"/>
<polygon fill="black" stroke="black" points="184.926,-42.5678 190.782,-33.7381 180.698,-36.989 184.926,-42.5678"/>
</g>
</g>
</svg>
