<?xml version="1.0" encoding="UTF-8" standalone="no"?>
<!DOCTYPE svg PUBLIC "-//W3C//DTD SVG 1.1//EN"
 "http://www.w3.org/Graphics/SVG/1.1/DTD/svg11.dtd">
<!-- Generated by graphviz version 2.29.20121107.0545 (20121107.0545)
 -->
<!-- Title: graph_49 Pages: 1 -->
<svg width="475pt" height="116pt"
 viewBox="0.00 0.00 475.00 116.00" xmlns="http://www.w3.org/2000/svg" xmlns:xlink="http://www.w3.org/1999/xlink">
<g id="graph0" class="graph" transform="scale(1 1) rotate(0) translate(4 112)">
<title>graph_49</title>
<polygon fill="white" stroke="white" points="-4,5 -4,-112 472,-112 472,5 -4,5"/>
<!-- course -->
<g id="node1" class="node"><title>course</title>
<polygon fill="none" stroke="black" points="94,-36 40,-36 40,-0 94,-0 94,-36"/>
<text text-anchor="middle" x="67" y="-14.3" font-family="Times,serif" font-size="14.00">course</text>
</g>
<!-- institute -->
<g id="node2" class="node"><title>institute</title>
<polygon fill="none" stroke="black" points="218.5,-108 159.5,-108 159.5,-72 218.5,-72 218.5,-108"/>
<text text-anchor="middle" x="189" y="-86.3" font-family="Times,serif" font-size="14.00">institute</text>
</g>
<!-- student -->
<g id="node3" class="node"><title>student</title>
<polygon fill="none" stroke="black" points="292.5,-108 237.5,-108 237.5,-72 292.5,-72 292.5,-108"/>
<text text-anchor="middle" x="265" y="-86.3" font-family="Times,serif" font-size="14.00">student</text>
</g>
<!-- code -->
<g id="node4" class="node"><title>code</title>
<ellipse fill="none" stroke="black" cx="27" cy="-90" rx="26.949" ry="18"/>
<text text-anchor="middle" x="27" y="-86.3" font-family="Times,serif" font-size="14.00">code</text>
</g>
<!-- code&#45;&#45;course -->
<g id="edge2" class="edge"><title>code&#45;&#45;course</title>
<path fill="none" stroke="black" d="M36.2773,-72.7646C42.5548,-61.7791 50.8332,-47.2919 57.2149,-36.1239"/>
</g>
<!-- grade -->
<g id="node5" class="node"><title>grade</title>
<ellipse fill="none" stroke="black" cx="342" cy="-90" rx="30.3206" ry="18"/>
<text text-anchor="middle" x="342" y="-86.3" font-family="Times,serif" font-size="14.00">grade</text>
</g>
<!-- number -->
<g id="node6" class="node"><title>number</title>
<ellipse fill="none" stroke="black" cx="429" cy="-90" rx="38.0212" ry="18"/>
<text text-anchor="middle" x="429" y="-86.3" font-family="Times,serif" font-size="14.00">number</text>
</g>
<!-- name0 -->
<g id="node7" class="node"><title>name0</title>
<ellipse fill="none" stroke="black" cx="107" cy="-90" rx="34.1708" ry="18"/>
<text text-anchor="middle" x="107" y="-86.3" font-family="Times,serif" font-size="14.00">name0</text>
</g>
<!-- name0&#45;&#45;course -->
<g id="edge1" class="edge"><title>name0&#45;&#45;course</title>
<path fill="none" stroke="black" d="M97.5206,-72.411C91.3291,-61.5758 83.2571,-47.4498 76.9696,-36.4468"/>
</g>
</g>
</svg>
