<?xml version="1.0" encoding="UTF-8" standalone="no"?>
<!DOCTYPE svg PUBLIC "-//W3C//DTD SVG 1.1//EN"
 "http://www.w3.org/Graphics/SVG/1.1/DTD/svg11.dtd">
<!-- Generated by graphviz version 2.26.3 (20100126.1600)
 -->
<!-- Title: graph_49 Pages: 1 -->
<svg width="494pt" height="118pt"
 viewBox="0.00 0.00 494.00 118.00" xmlns="http://www.w3.org/2000/svg" xmlns:xlink="http://www.w3.org/1999/xlink">
<g id="graph1" class="graph" transform="scale(1 1) rotate(0) translate(4 114)">
<title>graph_49</title>
<polygon fill="white" stroke="white" points="-4,5 -4,-114 491,-114 491,5 -4,5"/>
<!-- course -->
<g id="node1" class="node"><title>course</title>
<polygon fill="none" stroke="black" points="98,-36 44,-36 44,-1.77636e-14 98,-3.55271e-15 98,-36"/>
<text text-anchor="middle" x="71" y="-14.9" font-family="Times Roman,serif" font-size="14.00">course</text>
</g>
<!-- institute -->
<g id="node2" class="node"><title>institute</title>
<polygon fill="none" stroke="black" points="228,-109 168,-109 168,-73 228,-73 228,-109"/>
<text text-anchor="middle" x="198" y="-87.9" font-family="Times Roman,serif" font-size="14.00">institute</text>
</g>
<!-- student -->
<g id="node3" class="node"><title>student</title>
<polygon fill="none" stroke="black" points="302,-109 246,-109 246,-73 302,-73 302,-109"/>
<text text-anchor="middle" x="274" y="-87.9" font-family="Times Roman,serif" font-size="14.00">student</text>
</g>
<!-- code -->
<g id="node5" class="node"><title>code</title>
<ellipse fill="none" stroke="black" cx="29" cy="-91" rx="29.1951" ry="19.0919"/>
<text text-anchor="middle" x="29" y="-87.9" font-family="Times Roman,serif" font-size="14.00">code</text>
</g>
<!-- code&#45;&#45;course -->
<g id="edge5" class="edge"><title>code&#45;&#45;course</title>
<path fill="none" stroke="black" d="M39.382,-72.9551C45.8436,-61.7241 54.1253,-47.3298 60.5918,-36.0904"/>
</g>
<!-- grade -->
<g id="node6" class="node"><title>grade</title>
<ellipse fill="none" stroke="black" cx="353" cy="-91" rx="33.234" ry="19.0919"/>
<text text-anchor="middle" x="353" y="-87.9" font-family="Times Roman,serif" font-size="14.00">grade</text>
</g>
<!-- number -->
<g id="node7" class="node"><title>number</title>
<ellipse fill="none" stroke="black" cx="445" cy="-91" rx="41.2167" ry="19.0919"/>
<text text-anchor="middle" x="445" y="-87.9" font-family="Times Roman,serif" font-size="14.00">number</text>
</g>
<!-- name0 -->
<g id="node8" class="node"><title>name0</title>
<ellipse fill="none" stroke="black" cx="113" cy="-91" rx="36.977" ry="19.0919"/>
<text text-anchor="middle" x="113" y="-87.9" font-family="Times Roman,serif" font-size="14.00">name0</text>
</g>
<!-- name0&#45;&#45;course -->
<g id="edge3" class="edge"><title>name0&#45;&#45;course</title>
<path fill="none" stroke="black" d="M102.402,-72.579C95.9861,-61.4283 87.8379,-47.2659 81.4495,-36.1622"/>
</g>
</g>
</svg>
