<?xml version="1.0" encoding="UTF-8" standalone="no"?>
<!DOCTYPE svg PUBLIC "-//W3C//DTD SVG 1.1//EN"
 "http://www.w3.org/Graphics/SVG/1.1/DTD/svg11.dtd">
<!-- Generated by graphviz version 2.26.3 (20100126.1600)
 -->
<!-- Title: graph_49 Pages: 1 -->
<svg width="654pt" height="118pt"
 viewBox="0.00 0.00 654.00 118.00" xmlns="http://www.w3.org/2000/svg" xmlns:xlink="http://www.w3.org/1999/xlink">
<g id="graph1" class="graph" transform="scale(1 1) rotate(0) translate(4 114)">
<title>graph_49</title>
<polygon fill="white" stroke="white" points="-4,5 -4,-114 651,-114 651,5 -4,5"/>
<!-- course -->
<g id="node1" class="node"><title>course</title>
<polygon fill="none" stroke="black" points="100,-36 46,-36 46,-1.77636e-14 100,-3.55271e-15 100,-36"/>
<text text-anchor="middle" x="73" y="-14.9" font-family="Times Roman,serif" font-size="14.00">course</text>
</g>
<!-- institute -->
<g id="node2" class="node"><title>institute</title>
<polygon fill="none" stroke="black" points="220,-109 160,-109 160,-73 220,-73 220,-109"/>
<text text-anchor="middle" x="190" y="-87.9" font-family="Times Roman,serif" font-size="14.00">institute</text>
</g>
<!-- student -->
<g id="node3" class="node"><title>student</title>
<polygon fill="none" stroke="black" points="294,-109 238,-109 238,-73 294,-73 294,-109"/>
<text text-anchor="middle" x="266" y="-87.9" font-family="Times Roman,serif" font-size="14.00">student</text>
</g>
<!-- name0 -->
<g id="node5" class="node"><title>name0</title>
<ellipse fill="none" stroke="black" cx="33" cy="-91" rx="33.234" ry="19.0919"/>
<text text-anchor="middle" x="33" y="-87.9" font-family="Times Roman,serif" font-size="14.00">name</text>
</g>
<!-- name0&#45;&#45;course -->
<g id="edge3" class="edge"><title>name0&#45;&#45;course</title>
<path fill="none" stroke="black" d="M43.0937,-72.579C49.2037,-61.4283 56.9639,-47.2659 63.0481,-36.1622"/>
</g>
<!-- name1 -->
<g id="node6" class="node"><title>name1</title>
<ellipse fill="none" stroke="black" cx="345" cy="-91" rx="33.234" ry="19.0919"/>
<text text-anchor="middle" x="345" y="-87.9" font-family="Times Roman,serif" font-size="14.00">name</text>
</g>
<!-- name2 -->
<g id="node7" class="node"><title>name2</title>
<ellipse fill="none" stroke="black" cx="429" cy="-91" rx="33.234" ry="19.0919"/>
<text text-anchor="middle" x="429" y="-87.9" font-family="Times Roman,serif" font-size="14.00">name</text>
</g>
<!-- code -->
<g id="node8" class="node"><title>code</title>
<ellipse fill="none" stroke="black" cx="113" cy="-91" rx="29.1951" ry="19.0919"/>
<text text-anchor="middle" x="113" y="-87.9" font-family="Times Roman,serif" font-size="14.00">code</text>
</g>
<!-- code&#45;&#45;course -->
<g id="edge5" class="edge"><title>code&#45;&#45;course</title>
<path fill="none" stroke="black" d="M103.112,-72.9551C96.9584,-61.7241 89.0711,-47.3298 82.9125,-36.0904"/>
</g>
<!-- grade -->
<g id="node9" class="node"><title>grade</title>
<ellipse fill="none" stroke="black" cx="513" cy="-91" rx="33.234" ry="19.0919"/>
<text text-anchor="middle" x="513" y="-87.9" font-family="Times Roman,serif" font-size="14.00">grade</text>
</g>
<!-- number -->
<g id="node10" class="node"><title>number</title>
<ellipse fill="none" stroke="black" cx="605" cy="-91" rx="41.2167" ry="19.0919"/>
<text text-anchor="middle" x="605" y="-87.9" font-family="Times Roman,serif" font-size="14.00">number</text>
</g>
</g>
</svg>
