<?xml version="1.0" encoding="UTF-8" standalone="no"?>
<!DOCTYPE svg PUBLIC "-//W3C//DTD SVG 1.1//EN"
 "http://www.w3.org/Graphics/SVG/1.1/DTD/svg11.dtd">
<!-- Generated by graphviz version 2.30.1 (20130611.0131)
 -->
<!-- Title: graph_49 Pages: 1 -->
<svg width="625pt" height="116pt"
 viewBox="0.00 0.00 625.00 116.00" xmlns="http://www.w3.org/2000/svg" xmlns:xlink="http://www.w3.org/1999/xlink">
<g id="graph0" class="graph" transform="scale(1 1) rotate(0) translate(4 112)">
<title>graph_49</title>
<polygon fill="white" stroke="white" points="-4,5 -4,-112 622,-112 622,5 -4,5"/>
<!-- course -->
<g id="node1" class="node"><title>course</title>
<polygon fill="none" stroke="black" points="95,-36 41,-36 41,-0 95,-0 95,-36"/>
<text text-anchor="middle" x="68" y="-14.3" font-family="Times,serif" font-size="14.00">course</text>
</g>
<!-- institute -->
<g id="node2" class="node"><title>institute</title>
<polygon fill="none" stroke="black" points="210.5,-108 151.5,-108 151.5,-72 210.5,-72 210.5,-108"/>
<text text-anchor="middle" x="181" y="-86.3" font-family="Times,serif" font-size="14.00">institute</text>
</g>
<!-- student -->
<g id="node3" class="node"><title>student</title>
<polygon fill="none" stroke="black" points="284.5,-108 229.5,-108 229.5,-72 284.5,-72 284.5,-108"/>
<text text-anchor="middle" x="257" y="-86.3" font-family="Times,serif" font-size="14.00">student</text>
</g>
<!-- name0 -->
<g id="node4" class="node"><title>name0</title>
<ellipse fill="none" stroke="black" cx="30" cy="-90" rx="30.3206" ry="18"/>
<text text-anchor="middle" x="30" y="-86.3" font-family="Times,serif" font-size="14.00">name</text>
</g>
<!-- name0&#45;&#45;course -->
<g id="edge1" class="edge"><title>name0&#45;&#45;course</title>
<path fill="none" stroke="black" d="M38.8135,-72.7646C44.7771,-61.7791 52.6416,-47.2919 58.7042,-36.1239"/>
</g>
<!-- name1 -->
<g id="node5" class="node"><title>name1</title>
<ellipse fill="none" stroke="black" cx="334" cy="-90" rx="30.3206" ry="18"/>
<text text-anchor="middle" x="334" y="-86.3" font-family="Times,serif" font-size="14.00">name</text>
</g>
<!-- name2 -->
<g id="node6" class="node"><title>name2</title>
<ellipse fill="none" stroke="black" cx="413" cy="-90" rx="30.3206" ry="18"/>
<text text-anchor="middle" x="413" y="-86.3" font-family="Times,serif" font-size="14.00">name</text>
</g>
<!-- code -->
<g id="node7" class="node"><title>code</title>
<ellipse fill="none" stroke="black" cx="106" cy="-90" rx="26.949" ry="18"/>
<text text-anchor="middle" x="106" y="-86.3" font-family="Times,serif" font-size="14.00">code</text>
</g>
<!-- code&#45;&#45;course -->
<g id="edge2" class="edge"><title>code&#45;&#45;course</title>
<path fill="none" stroke="black" d="M97.1865,-72.7646C91.2229,-61.7791 83.3584,-47.2919 77.2958,-36.1239"/>
</g>
<!-- grade -->
<g id="node8" class="node"><title>grade</title>
<ellipse fill="none" stroke="black" cx="492" cy="-90" rx="30.3206" ry="18"/>
<text text-anchor="middle" x="492" y="-86.3" font-family="Times,serif" font-size="14.00">grade</text>
</g>
<!-- number -->
<g id="node9" class="node"><title>number</title>
<ellipse fill="none" stroke="black" cx="579" cy="-90" rx="38.0212" ry="18"/>
<text text-anchor="middle" x="579" y="-86.3" font-family="Times,serif" font-size="14.00">number</text>
</g>
</g>
</svg>
