<?xml version="1.0" encoding="UTF-8" standalone="no"?>
<!DOCTYPE svg PUBLIC "-//W3C//DTD SVG 1.1//EN"
 "http://www.w3.org/Graphics/SVG/1.1/DTD/svg11.dtd">
<!-- Generated by graphviz version 2.26.3 (20100126.1600)
 -->
<!-- Title: graph_51 Pages: 1 -->
<svg width="174pt" height="209pt"
 viewBox="0.00 0.00 174.00 209.00" xmlns="http://www.w3.org/2000/svg" xmlns:xlink="http://www.w3.org/1999/xlink">
<g id="graph1" class="graph" transform="scale(1 1) rotate(0) translate(4 205)">
<title>graph_51</title>
<polygon fill="white" stroke="white" points="-4,5 -4,-205 171,-205 171,5 -4,5"/>
<text text-anchor="middle" x="83" y="-10.4" font-family="Times Roman,serif" font-size="14.00">Class Demo</text>
<!-- node_51_01 -->
<g id="node1" class="node"><title>node_51_01</title>
<polygon fill="none" stroke="black" points="83,-201 1.42109e-14,-174 83,-147 166,-174 83,-201"/>
<polyline fill="none" stroke="black" points="11.4114,-177.712 11.4114,-170.288 "/>
<polyline fill="none" stroke="black" points="71.5886,-150.712 94.4114,-150.712 "/>
<polyline fill="none" stroke="black" points="154.589,-170.288 154.589,-177.712 "/>
<polyline fill="none" stroke="black" points="94.4114,-197.288 71.5886,-197.288 "/>
<text text-anchor="middle" x="83" y="-170.9" font-family="Times Roman,serif" font-size="14.00">node_51_01</text>
</g>
<!-- node_51_02 -->
<g id="node2" class="node"><title>node_51_02</title>
<polygon fill="none" stroke="black" points="124,-110.5 42,-110.5 42,-27.5 124,-27.5 124,-110.5"/>
<polyline fill="none" stroke="black" points="54,-110.5 42,-98.5 "/>
<polyline fill="none" stroke="black" points="42,-39.5 54,-27.5 "/>
<polyline fill="none" stroke="black" points="112,-27.5 124,-39.5 "/>
<polyline fill="none" stroke="black" points="124,-98.5 112,-110.5 "/>
<text text-anchor="middle" x="83" y="-65.9" font-family="Times Roman,serif" font-size="14.00">node_51_02</text>
</g>
<!-- node_51_01&#45;&gt;node_51_02 -->
<g id="edge2" class="edge"><title>node_51_01&#45;&gt;node_51_02</title>
<path fill="none" stroke="blue" d="M83,-146.96C83,-138.925 83,-129.84 83,-120.784"/>
<polygon fill="blue" stroke="blue" points="86.5001,-120.628 83,-110.628 79.5001,-120.628 86.5001,-120.628"/>
</g>
</g>
</svg>
