<?xml version="1.0" encoding="UTF-8" standalone="no"?>
<!DOCTYPE svg PUBLIC "-//W3C//DTD SVG 1.1//EN"
 "http://www.w3.org/Graphics/SVG/1.1/DTD/svg11.dtd">
<!-- Generated by graphviz version 2.30.1 (20130611.0131)
 -->
<!-- Title: graph_51 Pages: 1 -->
<svg width="160pt" height="187pt"
 viewBox="0.00 0.00 160.00 187.00" xmlns="http://www.w3.org/2000/svg" xmlns:xlink="http://www.w3.org/1999/xlink">
<g id="graph0" class="graph" transform="scale(1 1) rotate(0) translate(4 183)">
<title>graph_51</title>
<polygon fill="white" stroke="white" points="-4,5 -4,-183 157,-183 157,5 -4,5"/>
<text text-anchor="middle" x="76" y="-7.8" font-family="Times,serif" font-size="14.00">Class Demo</text>
<!-- node_51_01 -->
<g id="node1" class="node"><title>node_51_01</title>
<polygon fill="none" stroke="black" points="76,-179 0.0639472,-161 76,-143 151.936,-161 76,-179"/>
<polyline fill="none" stroke="black" points="11.7404,-163.768 11.7404,-158.232 "/>
<polyline fill="none" stroke="black" points="64.3236,-145.768 87.6764,-145.768 "/>
<polyline fill="none" stroke="black" points="140.26,-158.232 140.26,-163.768 "/>
<polyline fill="none" stroke="black" points="87.6764,-176.232 64.3236,-176.232 "/>
<text text-anchor="middle" x="76" y="-157.3" font-family="Times,serif" font-size="14.00">node_51_01</text>
</g>
<!-- node_51_02 -->
<g id="node2" class="node"><title>node_51_02</title>
<polygon fill="none" stroke="black" points="117.25,-106.5 34.75,-106.5 34.75,-23.5 117.25,-23.5 117.25,-106.5"/>
<polyline fill="none" stroke="black" points="46.75,-106.5 34.75,-94.5 "/>
<polyline fill="none" stroke="black" points="34.75,-35.5 46.75,-23.5 "/>
<polyline fill="none" stroke="black" points="105.25,-23.5 117.25,-35.5 "/>
<polyline fill="none" stroke="black" points="117.25,-94.5 105.25,-106.5 "/>
<text text-anchor="middle" x="76" y="-61.3" font-family="Times,serif" font-size="14.00">node_51_02</text>
</g>
<!-- node_51_01&#45;&gt;node_51_02 -->
<g id="edge1" class="edge"><title>node_51_01&#45;&gt;node_51_02</title>
<path fill="none" stroke="blue" d="M76,-142.759C76,-135.286 76,-126.107 76,-116.729"/>
<polygon fill="blue" stroke="blue" points="79.5001,-116.546 76,-106.546 72.5001,-116.547 79.5001,-116.546"/>
</g>
</g>
</svg>
