<?xml version="1.0" encoding="UTF-8" standalone="no"?>
<!DOCTYPE svg PUBLIC "-//W3C//DTD SVG 1.1//EN"
 "http://www.w3.org/Graphics/SVG/1.1/DTD/svg11.dtd">
<!-- Generated by graphviz version 2.26.3 (20100126.1600)
 -->
<!-- Title: graph_53 Pages: 1 -->
<svg width="616pt" height="311pt"
 viewBox="0.00 0.00 616.00 311.00" xmlns="http://www.w3.org/2000/svg" xmlns:xlink="http://www.w3.org/1999/xlink">
<g id="graph1" class="graph" transform="scale(1 1) rotate(0) translate(4 307)">
<title>graph_53</title>
<polygon fill="white" stroke="white" points="-4,5 -4,-307 613,-307 613,5 -4,5"/>
<text text-anchor="middle" x="304" y="-10.4" font-family="Times Roman,serif" font-size="14.00">Complex Syntax Test</text>
<g id="graph3" class="cluster"><title>cluster_outer</title>
<polygon fill="none" stroke="black" points="388,-35 388,-295 546,-295 546,-35 388,-35"/>
<text text-anchor="middle" x="467" y="-278.4" font-family="Times Roman,serif" font-size="14.00">Outer</text>
</g>
<g id="graph4" class="cluster"><title>cluster_inner</title>
<polygon fill="none" stroke="black" points="460,-43 460,-260 538,-260 538,-43 460,-43"/>
<text text-anchor="middle" x="499" y="-243.4" font-family="Times Roman,serif" font-size="14.00">Inner</text>
</g>
<!-- A -->
<g id="node1" class="node"><title>A</title>
<ellipse fill="none" stroke="black" cx="27" cy="-207" rx="27" ry="19.0919"/>
<text text-anchor="middle" x="27" y="-203.9" font-family="Times Roman,serif" font-size="14.00">A</text>
</g>
<!-- B -->
<g id="node3" class="node"><title>B</title>
<polygon fill="none" stroke="black" points="144,-214.292 117,-230.599 90,-214.292 90.0252,-187.908 143.975,-187.908 144,-214.292"/>
<text text-anchor="middle" x="117" y="-203.9" font-family="Times Roman,serif" font-size="14.00">B</text>
</g>
<!-- A&#45;&gt;B -->
<g id="edge3" class="edge"><title>A&#45;&gt;B</title>
<path fill="none" stroke="purple" d="M54.0703,-207C62.6689,-207 71.2674,-207 79.866,-207"/>
<polygon fill="purple" stroke="purple" points="79.9599,-210.5 89.9599,-207 79.9599,-203.5 79.9599,-210.5"/>
</g>
<!-- C -->
<g id="node4" class="node"><title>C</title>
<polygon fill="none" stroke="black" points="216,-214.292 189,-230.599 162,-214.292 162.025,-187.908 215.975,-187.908 216,-214.292"/>
<text text-anchor="middle" x="189" y="-203.9" font-family="Times Roman,serif" font-size="14.00">C</text>
</g>
<!-- D -->
<g id="node5" class="node"><title>D</title>
<ellipse fill="none" stroke="black" cx="279" cy="-207" rx="27" ry="19.0919"/>
<text text-anchor="middle" x="279" y="-203.9" font-family="Times Roman,serif" font-size="14.00">D</text>
</g>
<!-- C&#45;&gt;D -->
<g id="edge5" class="edge"><title>C&#45;&gt;D</title>
<path fill="none" stroke="purple" d="M216.07,-207C224.669,-207 233.267,-207 241.866,-207"/>
<polygon fill="purple" stroke="purple" points="241.96,-210.5 251.96,-207 241.96,-203.5 241.96,-210.5"/>
</g>
<!-- E -->
<g id="node8" class="node"><title>E</title>
<polygon fill="green" stroke="green" points="378,-214.292 351,-230.599 324,-214.292 324.025,-187.908 377.975,-187.908 378,-214.292"/>
<text text-anchor="middle" x="351" y="-203.9" font-family="Times Roman,serif" font-size="14.00">E</text>
</g>
<!-- F -->
<g id="node9" class="node"><title>F</title>
<polygon fill="green" stroke="green" points="378,-96.2925 351,-112.599 324,-96.2925 324.025,-69.9081 377.975,-69.9081 378,-96.2925"/>
<text text-anchor="middle" x="351" y="-85.9" font-family="Times Roman,serif" font-size="14.00">F</text>
</g>
<!-- E&#45;&gt;F -->
<g id="edge7" class="edge"><title>E&#45;&gt;F</title>
<path fill="none" stroke="purple" d="M351,-179.57C351,-162 351,-139.135 351,-120.775"/>
<ellipse fill="none" stroke="purple" cx="351" cy="-183.779" rx="4" ry="4"/>
<ellipse fill="purple" stroke="purple" cx="351" cy="-116.692" rx="4" ry="4"/>
<text text-anchor="middle" x="363" y="-151.9" font-family="Times Roman,serif" font-size="14.00">e&#45;&gt;f</text>
</g>
<!-- G -->
<g id="node12" class="node"><title>G</title>
<polygon fill="green" stroke="green" points="450,-214.292 423,-230.599 396,-214.292 396.025,-187.908 449.975,-187.908 450,-214.292"/>
<text text-anchor="middle" x="423" y="-203.9" font-family="Times Roman,serif" font-size="14.00">G</text>
</g>
<!-- H -->
<g id="node14" class="node"><title>H</title>
<polygon fill="green" stroke="green" points="450,-96.2925 423,-112.599 396,-96.2925 396.025,-69.9081 449.975,-69.9081 450,-96.2925"/>
<text text-anchor="middle" x="423" y="-85.9" font-family="Times Roman,serif" font-size="14.00">H</text>
</g>
<!-- G&#45;&gt;H -->
<g id="edge10" class="edge"><title>G&#45;&gt;H</title>
<path fill="none" stroke="purple" d="M423,-187.779C423,-170.236 423,-143.912 423,-122.849"/>
<polygon fill="purple" stroke="purple" points="426.5,-122.692 423,-112.692 419.5,-122.692 426.5,-122.692"/>
</g>
<!-- I -->
<g id="node16" class="node"><title>I</title>
<polygon fill="pink" stroke="pink" points="517,-225 481,-225 481,-189 517,-189 517,-225"/>
<text text-anchor="middle" x="499" y="-203.9" font-family="Times Roman,serif" font-size="14.00">I</text>
</g>
<!-- J -->
<g id="node18" class="node"><title>J</title>
<polygon fill="red" stroke="red" points="499,-127.184 467.887,-69.9081 530.113,-69.9081 499,-127.184"/>
<text text-anchor="middle" x="499" y="-85.9" font-family="Times Roman,serif" font-size="14.00">J</text>
</g>
<!-- I&#45;&gt;J -->
<g id="edge13" class="edge"><title>I&#45;&gt;J</title>
<path fill="none" stroke="blue" d="M499,-188.821C499,-175.139 499,-155.712 499,-137.627"/>
<polygon fill="blue" stroke="blue" points="502.5,-137.477 499,-127.477 495.5,-137.477 502.5,-137.477"/>
</g>
<!-- K -->
<g id="node19" class="node"><title>K</title>
<polygon fill="orange" stroke="orange" points="608,-214.292 581,-230.599 554,-214.292 554.025,-187.908 607.975,-187.908 608,-214.292"/>
<text text-anchor="middle" x="581" y="-203.9" font-family="Times Roman,serif" font-size="14.00">K</text>
</g>
<!-- L -->
<g id="node20" class="node"><title>L</title>
<polygon fill="orange" stroke="orange" points="608,-96.2925 581,-112.599 554,-96.2925 554.025,-69.9081 607.975,-69.9081 608,-96.2925"/>
<text text-anchor="middle" x="581" y="-85.9" font-family="Times Roman,serif" font-size="14.00">L</text>
</g>
<!-- K&#45;&gt;L -->
<g id="edge15" class="edge"><title>K&#45;&gt;L</title>
<path fill="none" stroke="purple" d="M581,-187.779C581,-170.236 581,-143.912 581,-122.849"/>
<polygon fill="purple" stroke="purple" points="584.5,-122.692 581,-112.692 577.5,-122.692 584.5,-122.692"/>
<text text-anchor="middle" x="593" y="-151.9" font-family="Times Roman,serif" font-size="14.00">k&#45;&gt;l</text>
</g>
</g>
</svg>
