<?xml version="1.0" encoding="UTF-8" standalone="no"?>
<!DOCTYPE svg PUBLIC "-//W3C//DTD SVG 1.1//EN"
 "http://www.w3.org/Graphics/SVG/1.1/DTD/svg11.dtd">
<!-- Generated by graphviz version 2.30.1 (20130611.0131)
 -->
<!-- Title: graph_53 Pages: 1 -->
<svg width="612pt" height="259pt"
 viewBox="0.00 0.00 612.00 259.00" xmlns="http://www.w3.org/2000/svg" xmlns:xlink="http://www.w3.org/1999/xlink">
<g id="graph0" class="graph" transform="scale(1 1) rotate(0) translate(4 255)">
<title>graph_53</title>
<polygon fill="white" stroke="white" points="-4,5 -4,-255 609,-255 609,5 -4,5"/>
<text text-anchor="middle" x="302" y="-7.8" font-family="Times,serif" font-size="14.00">Complex Syntax Test</text>
<g id="clust2" class="cluster"><title>cluster_outer</title>
<polygon fill="none" stroke="black" points="388,-31 388,-243 542,-243 542,-31 388,-31"/>
<text text-anchor="middle" x="465" y="-227.8" font-family="Times,serif" font-size="14.00">Outer</text>
</g>
<g id="clust3" class="cluster"><title>cluster_inner</title>
<polygon fill="none" stroke="black" points="460,-39 460,-212 534,-212 534,-39 460,-39"/>
<text text-anchor="middle" x="497" y="-196.8" font-family="Times,serif" font-size="14.00">Inner</text>
</g>
<!-- A -->
<g id="node1" class="node"><title>A</title>
<ellipse fill="none" stroke="black" cx="27" cy="-163" rx="27" ry="18"/>
<text text-anchor="middle" x="27" y="-159.3" font-family="Times,serif" font-size="14.00">A</text>
</g>
<!-- B -->
<g id="node2" class="node"><title>B</title>
<polygon fill="none" stroke="black" points="144,-168.562 117,-181 90,-168.562 90.0252,-148.438 143.975,-148.438 144,-168.562"/>
<text text-anchor="middle" x="117" y="-159.3" font-family="Times,serif" font-size="14.00">B</text>
</g>
<!-- A&#45;&gt;B -->
<g id="edge1" class="edge"><title>A&#45;&gt;B</title>
<path fill="none" stroke="purple" d="M54.0703,-163C62.6689,-163 71.2674,-163 79.866,-163"/>
<polygon fill="purple" stroke="purple" points="79.9599,-166.5 89.9599,-163 79.9599,-159.5 79.9599,-166.5"/>
</g>
<!-- C -->
<g id="node3" class="node"><title>C</title>
<polygon fill="none" stroke="black" points="216,-168.562 189,-181 162,-168.562 162.025,-148.438 215.975,-148.438 216,-168.562"/>
<text text-anchor="middle" x="189" y="-159.3" font-family="Times,serif" font-size="14.00">C</text>
</g>
<!-- D -->
<g id="node4" class="node"><title>D</title>
<ellipse fill="none" stroke="black" cx="279" cy="-163" rx="27" ry="18"/>
<text text-anchor="middle" x="279" y="-159.3" font-family="Times,serif" font-size="14.00">D</text>
</g>
<!-- C&#45;&gt;D -->
<g id="edge2" class="edge"><title>C&#45;&gt;D</title>
<path fill="none" stroke="purple" d="M216.07,-163C224.669,-163 233.267,-163 241.866,-163"/>
<polygon fill="purple" stroke="purple" points="241.96,-166.5 251.96,-163 241.96,-159.5 241.96,-166.5"/>
</g>
<!-- E -->
<g id="node5" class="node"><title>E</title>
<polygon fill="green" stroke="green" points="378,-168.562 351,-181 324,-168.562 324.025,-148.438 377.975,-148.438 378,-168.562"/>
<text text-anchor="middle" x="351" y="-159.3" font-family="Times,serif" font-size="14.00">E</text>
</g>
<!-- F -->
<g id="node6" class="node"><title>F</title>
<polygon fill="green" stroke="green" points="378,-75.5623 351,-88 324,-75.5623 324.025,-55.4377 377.975,-55.4377 378,-75.5623"/>
<text text-anchor="middle" x="351" y="-66.3" font-family="Times,serif" font-size="14.00">F</text>
</g>
<!-- E&#45;&gt;F -->
<g id="edge3" class="edge"><title>E&#45;&gt;F</title>
<path fill="none" stroke="purple" d="M351,-139.933C351,-126.717 351,-109.874 351,-96.1451"/>
<ellipse fill="none" stroke="purple" cx="351" cy="-144.179" rx="4" ry="4"/>
<ellipse fill="purple" stroke="purple" cx="351" cy="-92.0597" rx="4" ry="4"/>
<text text-anchor="middle" x="363" y="-115.3" font-family="Times,serif" font-size="14.00">e&#45;&gt;f</text>
</g>
<!-- G -->
<g id="node7" class="node"><title>G</title>
<polygon fill="green" stroke="green" points="450,-168.562 423,-181 396,-168.562 396.025,-148.438 449.975,-148.438 450,-168.562"/>
<text text-anchor="middle" x="423" y="-159.3" font-family="Times,serif" font-size="14.00">G</text>
</g>
<!-- H -->
<g id="node8" class="node"><title>H</title>
<polygon fill="green" stroke="green" points="450,-75.5623 423,-88 396,-75.5623 396.025,-55.4377 449.975,-55.4377 450,-75.5623"/>
<text text-anchor="middle" x="423" y="-66.3" font-family="Times,serif" font-size="14.00">H</text>
</g>
<!-- G&#45;&gt;H -->
<g id="edge4" class="edge"><title>G&#45;&gt;H</title>
<path fill="none" stroke="purple" d="M423,-148.179C423,-134.964 423,-114.672 423,-98.2108"/>
<polygon fill="purple" stroke="purple" points="426.5,-98.0596 423,-88.0597 419.5,-98.0597 426.5,-98.0596"/>
</g>
<!-- I -->
<g id="node9" class="node"><title>I</title>
<polygon fill="pink" stroke="pink" points="515,-181 479,-181 479,-145 515,-145 515,-181"/>
<text text-anchor="middle" x="497" y="-159.3" font-family="Times,serif" font-size="14.00">I</text>
</g>
<!-- J -->
<g id="node10" class="node"><title>J</title>
<polygon fill="red" stroke="red" points="497,-93 468.604,-58.5 525.396,-58.5 497,-93"/>
<text text-anchor="middle" x="497" y="-66.3" font-family="Times,serif" font-size="14.00">J</text>
</g>
<!-- I&#45;&gt;J -->
<g id="edge5" class="edge"><title>I&#45;&gt;J</title>
<path fill="none" stroke="blue" d="M497,-144.884C497,-133.232 497,-117.445 497,-103.456"/>
<polygon fill="blue" stroke="blue" points="500.5,-103.207 497,-93.2065 493.5,-103.207 500.5,-103.207"/>
</g>
<!-- K -->
<g id="node11" class="node"><title>K</title>
<polygon fill="orange" stroke="orange" points="604,-168.562 577,-181 550,-168.562 550.025,-148.438 603.975,-148.438 604,-168.562"/>
<text text-anchor="middle" x="577" y="-159.3" font-family="Times,serif" font-size="14.00">K</text>
</g>
<!-- L -->
<g id="node12" class="node"><title>L</title>
<polygon fill="orange" stroke="orange" points="604,-75.5623 577,-88 550,-75.5623 550.025,-55.4377 603.975,-55.4377 604,-75.5623"/>
<text text-anchor="middle" x="577" y="-66.3" font-family="Times,serif" font-size="14.00">L</text>
</g>
<!-- K&#45;&gt;L -->
<g id="edge6" class="edge"><title>K&#45;&gt;L</title>
<path fill="none" stroke="purple" d="M577,-148.179C577,-134.964 577,-114.672 577,-98.2108"/>
<polygon fill="purple" stroke="purple" points="580.5,-98.0596 577,-88.0597 573.5,-98.0597 580.5,-98.0596"/>
<text text-anchor="middle" x="589" y="-115.3" font-family="Times,serif" font-size="14.00">k&#45;&gt;l</text>
</g>
</g>
</svg>
