<?xml version="1.0" encoding="UTF-8" standalone="no"?>
<!DOCTYPE svg PUBLIC "-//W3C//DTD SVG 1.1//EN"
 "http://www.w3.org/Graphics/SVG/1.1/DTD/svg11.dtd">
<!-- Generated by graphviz version 2.26.3 (20100126.1600)
 -->
<!-- Title: graph_55 Pages: 1 -->
<svg width="310pt" height="264pt"
 viewBox="0.00 0.00 310.00 264.00" xmlns="http://www.w3.org/2000/svg" xmlns:xlink="http://www.w3.org/1999/xlink">
<g id="graph1" class="graph" transform="scale(1 1) rotate(0) translate(4 260)">
<title>graph_55</title>
<polygon fill="white" stroke="white" points="-4,5 -4,-260 307,-260 307,5 -4,5"/>
<g id="graph3" class="cluster"><title>cluster_outer</title>
<polygon fill="none" stroke="black" points="136,-8 136,-248 294,-248 294,-8 136,-8"/>
<text text-anchor="middle" x="215" y="-231.4" font-family="Times Roman,serif" font-size="14.00">Outer</text>
</g>
<g id="graph4" class="cluster"><title>cluster_inner</title>
<polygon fill="none" stroke="black" points="208,-16 208,-213 286,-213 286,-16 208,-16"/>
<text text-anchor="middle" x="247" y="-196.4" font-family="Times Roman,serif" font-size="14.00">Inner</text>
</g>
<!-- A -->
<g id="node1" class="node"><title>A</title>
<ellipse fill="none" stroke="black" cx="27" cy="-160" rx="27" ry="19.0919"/>
<text text-anchor="middle" x="27" y="-156.9" font-family="Times Roman,serif" font-size="14.00">A</text>
</g>
<!-- B -->
<g id="node3" class="node"><title>B</title>
<polygon fill="none" stroke="black" points="126,-167.292 99,-183.599 72,-167.292 72.0252,-140.908 125.975,-140.908 126,-167.292"/>
<text text-anchor="middle" x="99" y="-156.9" font-family="Times Roman,serif" font-size="14.00">B</text>
</g>
<!-- A&#45;&gt;B -->
<g id="edge3" class="edge"><title>A&#45;&gt;B</title>
<path fill="none" stroke="purple" d="M54,-160C56.6147,-160 59.2295,-160 61.8442,-160"/>
<polygon fill="purple" stroke="purple" points="61.9297,-163.5 71.9297,-160 61.9297,-156.5 61.9297,-163.5"/>
</g>
<!-- G -->
<g id="node6" class="node"><title>G</title>
<polygon fill="green" stroke="green" points="198,-167.292 171,-183.599 144,-167.292 144.025,-140.908 197.975,-140.908 198,-167.292"/>
<text text-anchor="middle" x="171" y="-156.9" font-family="Times Roman,serif" font-size="14.00">G</text>
</g>
<!-- H -->
<g id="node8" class="node"><title>H</title>
<polygon fill="green" stroke="green" points="198,-69.2925 171,-85.5989 144,-69.2925 144.025,-42.9081 197.975,-42.9081 198,-69.2925"/>
<text text-anchor="middle" x="171" y="-58.9" font-family="Times Roman,serif" font-size="14.00">H</text>
</g>
<!-- G&#45;&gt;H -->
<g id="edge6" class="edge"><title>G&#45;&gt;H</title>
<path fill="none" stroke="purple" d="M171,-140.638C171,-127.98 171,-111.095 171,-96.2168"/>
<polygon fill="purple" stroke="purple" points="174.5,-95.8266 171,-85.8267 167.5,-95.8267 174.5,-95.8266"/>
</g>
<!-- I -->
<g id="node10" class="node"><title>I</title>
<polygon fill="pink" stroke="pink" points="265,-178 229,-178 229,-142 265,-142 265,-178"/>
<text text-anchor="middle" x="247" y="-156.9" font-family="Times Roman,serif" font-size="14.00">I</text>
</g>
<!-- J -->
<g id="node12" class="node"><title>J</title>
<polygon fill="green" stroke="green" points="247,-100.184 215.887,-42.9081 278.113,-42.9081 247,-100.184"/>
<text text-anchor="middle" x="247" y="-58.9" font-family="Times Roman,serif" font-size="14.00">J</text>
</g>
<!-- I&#45;&gt;J -->
<g id="edge9" class="edge"><title>I&#45;&gt;J</title>
<path fill="none" stroke="blue" d="M247,-141.567C247,-132.652 247,-121.49 247,-110.371"/>
<polygon fill="blue" stroke="blue" points="250.5,-110.238 247,-100.238 243.5,-110.238 250.5,-110.238"/>
</g>
</g>
</svg>
