<?xml version="1.0" encoding="UTF-8" standalone="no"?>
<!DOCTYPE svg PUBLIC "-//W3C//DTD SVG 1.1//EN"
 "http://www.w3.org/Graphics/SVG/1.1/DTD/svg11.dtd">
<!-- Generated by graphviz version 2.26.3 (20100126.1600)
 -->
<!-- Title: graph_55 Pages: 1 -->
<svg width="692pt" height="312pt"
 viewBox="0.00 0.00 692.00 312.00" xmlns="http://www.w3.org/2000/svg" xmlns:xlink="http://www.w3.org/1999/xlink">
<g id="graph1" class="graph" transform="scale(1 1) rotate(0) translate(4 308)">
<title>graph_55</title>
<polygon fill="white" stroke="white" points="-4,5 -4,-308 689,-308 689,5 -4,5"/>
<g id="graph4" class="cluster"><title>cluster_outer</title>
<polygon fill="none" stroke="black" points="482,-8 482,-296 676,-296 676,-8 482,-8"/>
<text text-anchor="middle" x="579" y="-279.4" font-family="Times Roman,serif" font-size="14.00">Outer</text>
</g>
<g id="graph5" class="cluster"><title>cluster_inner</title>
<polygon fill="none" stroke="black" points="554,-16 554,-261 668,-261 668,-16 554,-16"/>
<text text-anchor="middle" x="611" y="-244.4" font-family="Times Roman,serif" font-size="14.00">Inner</text>
</g>
<!-- A -->
<g id="node1" class="node"><title>A</title>
<ellipse fill="none" stroke="blue" cx="27" cy="-205" rx="27" ry="19.0919"/>
<text text-anchor="middle" x="27" y="-201.9" font-family="Times Roman,serif" font-size="14.00">A</text>
</g>
<!-- B -->
<g id="node5" class="node"><title>B</title>
<polygon fill="goldenrod" stroke="mediumseagreen" points="108,-223 72,-223 72,-187 108,-187 108,-223"/>
<text text-anchor="middle" x="90" y="-201.9" font-family="Times Roman,serif" font-size="14.00">B</text>
</g>
<!-- A&#45;&gt;B -->
<g id="edge3" class="edge"><title>A&#45;&gt;B</title>
<path fill="none" stroke="purple" d="M54.0703,-205C56.5571,-205 59.044,-205 61.5308,-205"/>
<polygon fill="purple" stroke="purple" points="61.7545,-208.5 71.7545,-205 61.7544,-201.5 61.7545,-208.5"/>
</g>
<!-- C -->
<g id="node3" class="node"><title>C</title>
<polygon fill="none" stroke="#ff3030" points="180,-212.292 153,-228.599 126,-212.292 126.025,-185.908 179.975,-185.908 180,-212.292"/>
<text text-anchor="middle" x="153" y="-201.9" font-family="Times Roman,serif" font-size="14.00">C</text>
</g>
<!-- D -->
<g id="node8" class="node"><title>D</title>
<ellipse fill="#00868b" stroke="black" cx="235" cy="-205" rx="19.0919" ry="19.0919"/>
<text text-anchor="middle" x="235" y="-201.9" font-family="Times Roman,serif" font-size="14.00">D</text>
</g>
<!-- C&#45;&gt;D -->
<g id="edge7" class="edge"><title>C&#45;&gt;D</title>
<path fill="none" stroke="purple" d="M190.493,-205C195.491,-205 200.488,-205 205.486,-205"/>
<polygon fill="none" stroke="purple" points="180.227,-209 180.227,-201 188.227,-201 188.227,-209 180.227,-209"/>
<polyline fill="none" stroke="purple" points="188.227,-205 190.227,-205 "/>
<polygon fill="purple" stroke="purple" points="205.744,-205 215.744,-209.5 210.744,-205 215.744,-205 215.744,-205 215.744,-205 210.744,-205 215.744,-200.5 205.744,-205 205.744,-205"/>
</g>
<!-- B&#45;&gt;C -->
<g id="edge5" class="edge"><title>B&#45;&gt;C</title>
<path fill="none" stroke="orange" stroke-width="5" d="M108.211,-205C110.671,-205 113.132,-205 115.592,-205"/>
<polygon fill="orange" stroke="orange" points="115.707,-209.375 125.707,-205 115.707,-200.625 115.707,-209.375"/>
</g>
<!-- E -->
<g id="node10" class="node"><title>E</title>
<ellipse fill="#00868b" stroke="black" cx="309" cy="-205" rx="19.0919" ry="19.0919"/>
<text text-anchor="middle" x="309" y="-201.9" font-family="Times Roman,serif" font-size="14.00">E</text>
</g>
<!-- D&#45;&gt;E -->
<g id="edge9" class="edge"><title>D&#45;&gt;E</title>
<path fill="none" stroke="purple" stroke-width="5" d="M262.147,-205C268.603,-205 275.058,-205 281.514,-205"/>
<ellipse fill="none" stroke="purple" cx="258.078" cy="-205" rx="4" ry="4"/>
<ellipse fill="purple" stroke="purple" cx="285.692" cy="-205" rx="4" ry="4"/>
</g>
<!-- F -->
<g id="node12" class="node"><title>F</title>
<polygon fill="yellow" stroke="darkorchid" stroke-width="5" points="400,-205 386.5,-227.045 359.5,-227.045 346,-205 359.5,-182.955 386.5,-182.955 400,-205"/>
<text text-anchor="middle" x="373" y="-201.9" font-family="Times Roman,serif" font-size="14.00">F</text>
</g>
<!-- G -->
<g id="node13" class="node"><title>G</title>
<polygon fill="darkorchid" stroke="crimson" stroke-width="7" points="472,-212.292 445,-228.599 418,-212.292 428.313,-185.908 461.687,-185.908 472,-212.292"/>
<text text-anchor="middle" x="445" y="-201.9" font-family="Times Roman,serif" font-size="14.00">G</text>
</g>
<!-- F&#45;&gt;G -->
<g id="edge12" class="edge"><title>F&#45;&gt;G</title>
<path fill="none" stroke="purple" d="M400,-205C403.565,-205 407.13,-205 410.695,-205"/>
<polygon fill="purple" stroke="purple" points="410.742,-208.5 420.742,-205 410.742,-201.5 410.742,-208.5"/>
</g>
<!-- H -->
<g id="node16" class="node"><title>H</title>
<polygon fill="lightblue" stroke="black" points="544.095,-213.913 517,-233.843 489.905,-213.913 489.93,-181.665 544.07,-181.665 544.095,-213.913"/>
<text text-anchor="middle" x="517" y="-199.5" font-family="Times Roman,serif" font-size="20.00">H</text>
</g>
<!-- I -->
<g id="node18" class="node"><title>I</title>
<polygon fill="lightblue" stroke="black" points="544,-90.913 517,-110.843 490,-90.913 490.025,-58.6655 543.975,-58.6655 544,-90.913"/>
<text text-anchor="middle" x="517" y="-76.5" font-family="Times Roman,serif" font-size="20.00">I</text>
</g>
<!-- H&#45;&gt;I -->
<g id="edge15" class="edge"><title>H&#45;&gt;I</title>
<path fill="none" stroke="purple" d="M517,-181.575C517,-164.481 517,-140.916 517,-121.002"/>
<polygon fill="purple" stroke="purple" points="520.5,-120.974 517,-110.974 513.5,-120.974 520.5,-120.974"/>
</g>
<!-- J -->
<g id="node20" class="node"><title>J</title>
<polygon fill="magenta" stroke="yellow" points="631,-225.5 591,-225.5 591,-184.5 631,-184.5 631,-225.5"/>
<text text-anchor="middle" x="611" y="-198.1" font-family="Times Roman,serif" font-size="26.00">J</text>
</g>
<!-- K -->
<g id="node22" class="node"><title>K</title>
<polygon fill="magenta" stroke="black" points="611,-139.983 562.002,-53.0086 659.998,-53.0086 611,-139.983"/>
<text text-anchor="middle" x="611" y="-75.1" font-family="Times Roman,serif" font-size="26.00">K</text>
</g>
<!-- J&#45;&gt;K -->
<g id="edge18" class="edge"><title>J&#45;&gt;K</title>
<path fill="none" stroke="blue" d="M611,-184.413C611,-174.753 611,-162.629 611,-150.136"/>
<polygon fill="blue" stroke="blue" points="614.5,-150.077 611,-140.078 607.5,-150.078 614.5,-150.077"/>
</g>
</g>
</svg>
