<?xml version="1.0" encoding="UTF-8" standalone="no"?>
<!DOCTYPE svg PUBLIC "-//W3C//DTD SVG 1.1//EN"
 "http://www.w3.org/Graphics/SVG/1.1/DTD/svg11.dtd">
<!-- Generated by graphviz version 2.29.20121107.0545 (20121107.0545)
 -->
<!-- Title: graph_55 Pages: 1 -->
<svg width="688pt" height="312pt"
 viewBox="0.00 0.00 688.00 312.00" xmlns="http://www.w3.org/2000/svg" xmlns:xlink="http://www.w3.org/1999/xlink">
<g id="graph0" class="graph" transform="scale(1 1) rotate(0) translate(4 308)">
<title>graph_55</title>
<polygon fill="white" stroke="white" points="-4,5 -4,-308 685,-308 685,5 -4,5"/>
<text text-anchor="middle" x="340" y="-7.8" font-family="Times,serif" font-size="14.00">Complex Syntax Test</text>
<g id="clust3" class="cluster"><title>cluster_outer</title>
<polygon fill="none" stroke="black" points="478,-31 478,-296 672,-296 672,-31 478,-31"/>
<text text-anchor="middle" x="575" y="-280.8" font-family="Times,serif" font-size="14.00">Outer</text>
</g>
<g id="clust4" class="cluster"><title>cluster_inner</title>
<polygon fill="none" stroke="black" points="550,-39 550,-265 664,-265 664,-39 550,-39"/>
<text text-anchor="middle" x="607" y="-249.8" font-family="Times,serif" font-size="14.00">Inner</text>
</g>
<!-- A -->
<g id="node1" class="node"><title>A</title>
<ellipse fill="none" stroke="blue" cx="27" cy="-215" rx="27" ry="18"/>
<text text-anchor="middle" x="27" y="-211.3" font-family="Times,serif" font-size="14.00">A</text>
</g>
<!-- B -->
<g id="node3" class="node"><title>B</title>
<polygon fill="goldenrod" stroke="mediumseagreen" points="108,-233 72,-233 72,-197 108,-197 108,-233"/>
<text text-anchor="middle" x="90" y="-211.3" font-family="Times,serif" font-size="14.00">B</text>
</g>
<!-- A&#45;&gt;B -->
<g id="edge1" class="edge"><title>A&#45;&gt;B</title>
<path fill="none" stroke="purple" d="M54.0703,-215C56.5571,-215 59.044,-215 61.5308,-215"/>
<polygon fill="purple" stroke="purple" points="61.7545,-218.5 71.7545,-215 61.7544,-211.5 61.7545,-218.5"/>
</g>
<!-- C -->
<g id="node2" class="node"><title>C</title>
<polygon fill="none" stroke="#ff3030" points="180,-220.562 153,-233 126,-220.562 126.025,-200.438 179.975,-200.438 180,-220.562"/>
<text text-anchor="middle" x="153" y="-211.3" font-family="Times,serif" font-size="14.00">C</text>
</g>
<!-- D -->
<g id="node4" class="node"><title>D</title>
<ellipse fill="#00868b" stroke="black" cx="234" cy="-215" rx="18" ry="18"/>
<text text-anchor="middle" x="234" y="-211.3" font-family="Times,serif" font-size="14.00">D</text>
</g>
<!-- C&#45;&gt;D -->
<g id="edge3" class="edge"><title>C&#45;&gt;D</title>
<path fill="none" stroke="purple" d="M190.257,-215C195.472,-215 200.687,-215 205.902,-215"/>
<polygon fill="none" stroke="purple" points="180.211,-219 180.211,-211 188.211,-211 188.211,-219 180.211,-219"/>
<polyline fill="none" stroke="purple" points="188.211,-215 190.211,-215 "/>
<polygon fill="purple" stroke="purple" points="205.93,-215 215.93,-219.5 210.93,-215 215.93,-215 215.93,-215 215.93,-215 210.93,-215 215.93,-210.5 205.93,-215 205.93,-215"/>
</g>
<!-- B&#45;&gt;C -->
<g id="edge2" class="edge"><title>B&#45;&gt;C</title>
<path fill="none" stroke="orange" stroke-width="5" d="M108.211,-215C110.671,-215 113.132,-215 115.592,-215"/>
<polygon fill="orange" stroke="orange" points="115.707,-219.375 125.707,-215 115.707,-210.625 115.707,-219.375"/>
</g>
<!-- E -->
<g id="node5" class="node"><title>E</title>
<ellipse fill="#00868b" stroke="black" cx="306" cy="-215" rx="18" ry="18"/>
<text text-anchor="middle" x="306" y="-211.3" font-family="Times,serif" font-size="14.00">E</text>
</g>
<!-- D&#45;&gt;E -->
<g id="edge4" class="edge"><title>D&#45;&gt;E</title>
<path fill="none" stroke="purple" stroke-width="5" d="M260.124,-215C266.625,-215 273.125,-215 279.626,-215"/>
<ellipse fill="none" stroke="purple" cx="256" cy="-215" rx="4" ry="4"/>
<ellipse fill="purple" stroke="purple" cx="283.859" cy="-215" rx="4" ry="4"/>
</g>
<!-- F -->
<g id="node6" class="node"><title>F</title>
<polygon fill="yellow" stroke="darkorchid" stroke-width="5" points="396,-215 382.5,-233 355.5,-233 342,-215 355.5,-197 382.5,-197 396,-215"/>
<text text-anchor="middle" x="369" y="-211.3" font-family="Times,serif" font-size="14.00">F</text>
</g>
<!-- G -->
<g id="node7" class="node"><title>G</title>
<polygon fill="darkorchid" stroke="crimson" stroke-width="7" points="468,-220.562 441,-233 414,-220.562 424.313,-200.438 457.687,-200.438 468,-220.562"/>
<text text-anchor="middle" x="441" y="-211.3" font-family="Times,serif" font-size="14.00">G</text>
</g>
<!-- F&#45;&gt;G -->
<g id="edge5" class="edge"><title>F&#45;&gt;G</title>
<path fill="none" stroke="purple" d="M396,-215C399.565,-215 403.13,-215 406.695,-215"/>
<polygon fill="purple" stroke="purple" points="406.742,-218.5 416.742,-215 406.742,-211.5 406.742,-218.5"/>
</g>
<!-- H -->
<g id="node8" class="node"><title>H</title>
<polygon fill="lightblue" stroke="black" points="540.143,-223.172 513,-241.444 485.857,-223.172 485.883,-193.607 540.117,-193.607 540.143,-223.172"/>
<text text-anchor="middle" x="513" y="-210" font-family="Times,serif" font-size="20.00">H</text>
</g>
<!-- I -->
<g id="node9" class="node"><title>I</title>
<polygon fill="lightblue" stroke="black" points="540,-108.172 513,-126.444 486,-108.172 486.025,-78.6065 539.975,-78.6065 540,-108.172"/>
<text text-anchor="middle" x="513" y="-95" font-family="Times,serif" font-size="20.00">I</text>
</g>
<!-- H&#45;&gt;I -->
<g id="edge6" class="edge"><title>H&#45;&gt;I</title>
<path fill="none" stroke="purple" d="M513,-193.537C513,-177.726 513,-155.454 513,-136.721"/>
<polygon fill="purple" stroke="purple" points="516.5,-136.461 513,-126.461 509.5,-136.461 516.5,-136.461"/>
</g>
<!-- J -->
<g id="node10" class="node"><title>J</title>
<polygon fill="magenta" stroke="yellow" points="625.25,-233.5 588.75,-233.5 588.75,-196.5 625.25,-196.5 625.25,-233.5"/>
<text text-anchor="middle" x="607" y="-208.7" font-family="Times,serif" font-size="26.00">J</text>
</g>
<!-- K -->
<g id="node11" class="node"><title>K</title>
<polygon fill="magenta" stroke="black" points="607,-152.152 557.754,-73.9238 656.246,-73.9238 607,-152.152"/>
<text text-anchor="middle" x="607" y="-93.7" font-family="Times,serif" font-size="26.00">K</text>
</g>
<!-- J&#45;&gt;K -->
<g id="edge7" class="edge"><title>J&#45;&gt;K</title>
<path fill="none" stroke="blue" d="M607,-196.344C607,-186.94 607,-174.753 607,-162.254"/>
<polygon fill="blue" stroke="blue" points="610.5,-162.21 607,-152.21 603.5,-162.21 610.5,-162.21"/>
</g>
</g>
</svg>
