<?xml version="1.0" encoding="UTF-8" standalone="no"?>
<!DOCTYPE svg PUBLIC "-//W3C//DTD SVG 1.1//EN"
 "http://www.w3.org/Graphics/SVG/1.1/DTD/svg11.dtd">
<!-- Generated by graphviz version 2.26.3 (20100126.1600)
 -->
<!-- Title: graph_55 Pages: 1 -->
<svg width="444pt" height="227pt"
 viewBox="0.00 0.00 444.00 227.00" xmlns="http://www.w3.org/2000/svg" xmlns:xlink="http://www.w3.org/1999/xlink">
<g id="graph1" class="graph" transform="scale(1 1) rotate(0) translate(4 223)">
<title>graph_55</title>
<polygon fill="white" stroke="white" points="-4,5 -4,-223 441,-223 441,5 -4,5"/>
<g id="graph4" class="cluster"><title>cluster_outer</title>
<polygon fill="none" stroke="black" points="278,-8 278,-211 428,-211 428,-8 278,-8"/>
<text text-anchor="middle" x="353" y="-194.4" font-family="Times Roman,serif" font-size="14.00">Outer</text>
</g>
<!-- A -->
<g id="node1" class="node"><title>A</title>
<ellipse fill="none" stroke="black" cx="27" cy="-152" rx="27" ry="19.0919"/>
<text text-anchor="middle" x="27" y="-148.9" font-family="Times Roman,serif" font-size="14.00">A</text>
</g>
<!-- B -->
<g id="node3" class="node"><title>B</title>
<polygon fill="none" stroke="black" points="126,-159.292 99,-175.599 72,-159.292 72.0252,-132.908 125.975,-132.908 126,-159.292"/>
<text text-anchor="middle" x="99" y="-148.9" font-family="Times Roman,serif" font-size="14.00">B</text>
</g>
<!-- A&#45;&gt;B -->
<g id="edge3" class="edge"><title>A&#45;&gt;B</title>
<path fill="none" stroke="purple" d="M54,-152C56.6147,-152 59.2295,-152 61.8442,-152"/>
<polygon fill="purple" stroke="purple" points="61.9297,-155.5 71.9297,-152 61.9297,-148.5 61.9297,-155.5"/>
</g>
<!-- C -->
<g id="node6" class="node"><title>C</title>
<ellipse fill="none" stroke="black" cx="171" cy="-152" rx="27" ry="19.0919"/>
<text text-anchor="middle" x="171" y="-148.9" font-family="Times Roman,serif" font-size="14.00">C</text>
</g>
<!-- D -->
<g id="node8" class="node"><title>D</title>
<ellipse fill="none" stroke="black" cx="243" cy="-152" rx="27" ry="19.0919"/>
<text text-anchor="middle" x="243" y="-148.9" font-family="Times Roman,serif" font-size="14.00">D</text>
</g>
<!-- C&#45;&gt;D -->
<g id="edge6" class="edge"><title>C&#45;&gt;D</title>
<path fill="none" stroke="purple" d="M198,-152C200.615,-152 203.229,-152 205.844,-152"/>
<polygon fill="purple" stroke="purple" points="205.93,-155.5 215.93,-152 205.93,-148.5 205.93,-155.5"/>
</g>
<!-- G -->
<g id="node10" class="node"><title>G</title>
<polygon fill="green" stroke="green" points="420,-159.292 393,-175.599 366,-159.292 366.025,-132.908 419.975,-132.908 420,-159.292"/>
<text text-anchor="middle" x="393" y="-148.9" font-family="Times Roman,serif" font-size="14.00">G</text>
</g>
<!-- H -->
<g id="node12" class="node"><title>H</title>
<polygon fill="green" stroke="green" points="420,-61.2925 393,-77.5989 366,-61.2925 366.025,-34.9081 419.975,-34.9081 420,-61.2925"/>
<text text-anchor="middle" x="393" y="-50.9" font-family="Times Roman,serif" font-size="14.00">H</text>
</g>
<!-- G&#45;&gt;H -->
<g id="edge9" class="edge"><title>G&#45;&gt;H</title>
<path fill="none" stroke="purple" d="M393,-132.638C393,-119.98 393,-103.095 393,-88.2168"/>
<polygon fill="purple" stroke="purple" points="396.5,-87.8266 393,-77.8267 389.5,-87.8267 396.5,-87.8266"/>
</g>
<!-- I -->
<g id="node14" class="node"><title>I</title>
<polygon fill="pink" stroke="pink" points="335,-170 299,-170 299,-134 335,-134 335,-170"/>
<text text-anchor="middle" x="317" y="-148.9" font-family="Times Roman,serif" font-size="14.00">I</text>
</g>
<!-- J -->
<g id="node16" class="node"><title>J</title>
<polygon fill="green" stroke="green" points="317,-92.1838 285.887,-34.9081 348.113,-34.9081 317,-92.1838"/>
<text text-anchor="middle" x="317" y="-50.9" font-family="Times Roman,serif" font-size="14.00">J</text>
</g>
<!-- I&#45;&gt;J -->
<g id="edge12" class="edge"><title>I&#45;&gt;J</title>
<path fill="none" stroke="blue" d="M317,-133.567C317,-124.652 317,-113.49 317,-102.371"/>
<polygon fill="blue" stroke="blue" points="320.5,-102.238 317,-92.238 313.5,-102.238 320.5,-102.238"/>
</g>
</g>
</svg>
