<?xml version="1.0" encoding="UTF-8" standalone="no"?>
<!DOCTYPE svg PUBLIC "-//W3C//DTD SVG 1.1//EN"
 "http://www.w3.org/Graphics/SVG/1.1/DTD/svg11.dtd">
<!-- Generated by graphviz version 2.26.3 (20100126.1600)
 -->
<!-- Title: graph_55 Pages: 1 -->
<svg width="454pt" height="264pt"
 viewBox="0.00 0.00 454.00 264.00" xmlns="http://www.w3.org/2000/svg" xmlns:xlink="http://www.w3.org/1999/xlink">
<g id="graph1" class="graph" transform="scale(1 1) rotate(0) translate(4 260)">
<title>graph_55</title>
<polygon fill="white" stroke="white" points="-4,5 -4,-260 451,-260 451,5 -4,5"/>
<g id="graph4" class="cluster"><title>cluster_outer</title>
<polygon fill="none" stroke="black" points="280,-8 280,-248 438,-248 438,-8 280,-8"/>
<text text-anchor="middle" x="359" y="-231.4" font-family="Times Roman,serif" font-size="14.00">Outer</text>
</g>
<g id="graph5" class="cluster"><title>cluster_inner</title>
<polygon fill="none" stroke="black" points="352,-16 352,-213 430,-213 430,-16 352,-16"/>
<text text-anchor="middle" x="391" y="-196.4" font-family="Times Roman,serif" font-size="14.00">Inner</text>
</g>
<!-- A -->
<g id="node1" class="node"><title>A</title>
<ellipse fill="none" stroke="black" cx="27" cy="-160" rx="27" ry="19.0919"/>
<text text-anchor="middle" x="27" y="-156.9" font-family="Times Roman,serif" font-size="14.00">A</text>
</g>
<!-- B -->
<g id="node3" class="node"><title>B</title>
<polygon fill="none" stroke="black" points="126,-167.292 99,-183.599 72,-167.292 72.0252,-140.908 125.975,-140.908 126,-167.292"/>
<text text-anchor="middle" x="99" y="-156.9" font-family="Times Roman,serif" font-size="14.00">B</text>
</g>
<!-- A&#45;&gt;B -->
<g id="edge3" class="edge"><title>A&#45;&gt;B</title>
<path fill="none" stroke="purple" d="M54,-160C56.6147,-160 59.2295,-160 61.8442,-160"/>
<polygon fill="purple" stroke="purple" points="61.9297,-163.5 71.9297,-160 61.9297,-156.5 61.9297,-163.5"/>
</g>
<!-- C -->
<g id="node6" class="node"><title>C</title>
<ellipse fill="none" stroke="black" cx="171" cy="-160" rx="27" ry="19.0919"/>
<text text-anchor="middle" x="171" y="-156.9" font-family="Times Roman,serif" font-size="14.00">C</text>
</g>
<!-- D -->
<g id="node8" class="node"><title>D</title>
<ellipse fill="none" stroke="black" cx="243" cy="-160" rx="27" ry="19.0919"/>
<text text-anchor="middle" x="243" y="-156.9" font-family="Times Roman,serif" font-size="14.00">D</text>
</g>
<!-- C&#45;&gt;D -->
<g id="edge6" class="edge"><title>C&#45;&gt;D</title>
<path fill="none" stroke="purple" d="M198,-160C200.615,-160 203.229,-160 205.844,-160"/>
<polygon fill="purple" stroke="purple" points="205.93,-163.5 215.93,-160 205.93,-156.5 205.93,-163.5"/>
</g>
<!-- G -->
<g id="node10" class="node"><title>G</title>
<polygon fill="green" stroke="green" points="342,-167.292 315,-183.599 288,-167.292 288.025,-140.908 341.975,-140.908 342,-167.292"/>
<text text-anchor="middle" x="315" y="-156.9" font-family="Times Roman,serif" font-size="14.00">G</text>
</g>
<!-- H -->
<g id="node12" class="node"><title>H</title>
<polygon fill="green" stroke="green" points="342,-69.2925 315,-85.5989 288,-69.2925 288.025,-42.9081 341.975,-42.9081 342,-69.2925"/>
<text text-anchor="middle" x="315" y="-58.9" font-family="Times Roman,serif" font-size="14.00">H</text>
</g>
<!-- G&#45;&gt;H -->
<g id="edge9" class="edge"><title>G&#45;&gt;H</title>
<path fill="none" stroke="purple" d="M315,-140.638C315,-127.98 315,-111.095 315,-96.2168"/>
<polygon fill="purple" stroke="purple" points="318.5,-95.8266 315,-85.8267 311.5,-95.8267 318.5,-95.8266"/>
</g>
<!-- I -->
<g id="node14" class="node"><title>I</title>
<polygon fill="pink" stroke="pink" points="409,-178 373,-178 373,-142 409,-142 409,-178"/>
<text text-anchor="middle" x="391" y="-156.9" font-family="Times Roman,serif" font-size="14.00">I</text>
</g>
<!-- J -->
<g id="node16" class="node"><title>J</title>
<polygon fill="green" stroke="green" points="391,-100.184 359.887,-42.9081 422.113,-42.9081 391,-100.184"/>
<text text-anchor="middle" x="391" y="-58.9" font-family="Times Roman,serif" font-size="14.00">J</text>
</g>
<!-- I&#45;&gt;J -->
<g id="edge12" class="edge"><title>I&#45;&gt;J</title>
<path fill="none" stroke="blue" d="M391,-141.567C391,-132.652 391,-121.49 391,-110.371"/>
<polygon fill="blue" stroke="blue" points="394.5,-110.238 391,-100.238 387.5,-110.238 394.5,-110.238"/>
</g>
</g>
</svg>
