<?xml version="1.0" encoding="UTF-8" standalone="no"?>
<!DOCTYPE svg PUBLIC "-//W3C//DTD SVG 1.1//EN"
 "http://www.w3.org/Graphics/SVG/1.1/DTD/svg11.dtd">
<!-- Generated by graphviz version 2.26.3 (20100126.1600)
 -->
<!-- Title: graph_55 Pages: 1 -->
<svg width="692pt" height="339pt"
 viewBox="0.00 0.00 692.00 339.00" xmlns="http://www.w3.org/2000/svg" xmlns:xlink="http://www.w3.org/1999/xlink">
<g id="graph1" class="graph" transform="scale(1 1) rotate(0) translate(4 335)">
<title>graph_55</title>
<polygon fill="white" stroke="white" points="-4,5 -4,-335 689,-335 689,5 -4,5"/>
<text text-anchor="middle" x="342" y="-10.4" font-family="Times Roman,serif" font-size="14.00">Complex Syntax Test</text>
<g id="graph4" class="cluster"><title>cluster_outer</title>
<polygon fill="none" stroke="black" points="482,-35 482,-323 676,-323 676,-35 482,-35"/>
<text text-anchor="middle" x="579" y="-306.4" font-family="Times Roman,serif" font-size="14.00">Outer</text>
</g>
<g id="graph5" class="cluster"><title>cluster_inner</title>
<polygon fill="none" stroke="black" points="554,-43 554,-288 668,-288 668,-43 554,-43"/>
<text text-anchor="middle" x="611" y="-271.4" font-family="Times Roman,serif" font-size="14.00">Inner</text>
</g>
<!-- A -->
<g id="node1" class="node"><title>A</title>
<ellipse fill="none" stroke="blue" cx="27" cy="-232" rx="27" ry="19.0919"/>
<text text-anchor="middle" x="27" y="-228.9" font-family="Times Roman,serif" font-size="14.00">A</text>
</g>
<!-- B -->
<g id="node5" class="node"><title>B</title>
<polygon fill="goldenrod" stroke="mediumseagreen" points="108,-250 72,-250 72,-214 108,-214 108,-250"/>
<text text-anchor="middle" x="90" y="-228.9" font-family="Times Roman,serif" font-size="14.00">B</text>
</g>
<!-- A&#45;&gt;B -->
<g id="edge3" class="edge"><title>A&#45;&gt;B</title>
<path fill="none" stroke="purple" d="M54.0703,-232C56.5571,-232 59.044,-232 61.5308,-232"/>
<polygon fill="purple" stroke="purple" points="61.7545,-235.5 71.7545,-232 61.7544,-228.5 61.7545,-235.5"/>
</g>
<!-- C -->
<g id="node3" class="node"><title>C</title>
<polygon fill="none" stroke="#ff3030" points="180,-239.292 153,-255.599 126,-239.292 126.025,-212.908 179.975,-212.908 180,-239.292"/>
<text text-anchor="middle" x="153" y="-228.9" font-family="Times Roman,serif" font-size="14.00">C</text>
</g>
<!-- D -->
<g id="node8" class="node"><title>D</title>
<ellipse fill="#00868b" stroke="black" cx="235" cy="-232" rx="19.0919" ry="19.0919"/>
<text text-anchor="middle" x="235" y="-228.9" font-family="Times Roman,serif" font-size="14.00">D</text>
</g>
<!-- C&#45;&gt;D -->
<g id="edge7" class="edge"><title>C&#45;&gt;D</title>
<path fill="none" stroke="purple" d="M190.493,-232C195.491,-232 200.488,-232 205.486,-232"/>
<polygon fill="none" stroke="purple" points="180.227,-236 180.227,-228 188.227,-228 188.227,-236 180.227,-236"/>
<polyline fill="none" stroke="purple" points="188.227,-232 190.227,-232 "/>
<polygon fill="purple" stroke="purple" points="205.744,-232 215.744,-236.5 210.744,-232 215.744,-232 215.744,-232 215.744,-232 210.744,-232 215.744,-227.5 205.744,-232 205.744,-232"/>
</g>
<!-- B&#45;&gt;C -->
<g id="edge5" class="edge"><title>B&#45;&gt;C</title>
<path fill="none" stroke="orange" stroke-width="5" d="M108.211,-232C110.671,-232 113.132,-232 115.592,-232"/>
<polygon fill="orange" stroke="orange" points="115.707,-236.375 125.707,-232 115.707,-227.625 115.707,-236.375"/>
</g>
<!-- E -->
<g id="node10" class="node"><title>E</title>
<ellipse fill="#00868b" stroke="black" cx="309" cy="-232" rx="19.0919" ry="19.0919"/>
<text text-anchor="middle" x="309" y="-228.9" font-family="Times Roman,serif" font-size="14.00">E</text>
</g>
<!-- D&#45;&gt;E -->
<g id="edge9" class="edge"><title>D&#45;&gt;E</title>
<path fill="none" stroke="purple" stroke-width="5" d="M262.147,-232C268.603,-232 275.058,-232 281.514,-232"/>
<ellipse fill="none" stroke="purple" cx="258.078" cy="-232" rx="4" ry="4"/>
<ellipse fill="purple" stroke="purple" cx="285.692" cy="-232" rx="4" ry="4"/>
</g>
<!-- F -->
<g id="node12" class="node"><title>F</title>
<polygon fill="yellow" stroke="darkorchid" stroke-width="5" points="400,-232 386.5,-254.045 359.5,-254.045 346,-232 359.5,-209.955 386.5,-209.955 400,-232"/>
<text text-anchor="middle" x="373" y="-228.9" font-family="Times Roman,serif" font-size="14.00">F</text>
</g>
<!-- G -->
<g id="node13" class="node"><title>G</title>
<polygon fill="darkorchid" stroke="crimson" stroke-width="7" points="472,-239.292 445,-255.599 418,-239.292 428.313,-212.908 461.687,-212.908 472,-239.292"/>
<text text-anchor="middle" x="445" y="-228.9" font-family="Times Roman,serif" font-size="14.00">G</text>
</g>
<!-- F&#45;&gt;G -->
<g id="edge12" class="edge"><title>F&#45;&gt;G</title>
<path fill="none" stroke="purple" d="M400,-232C403.565,-232 407.13,-232 410.695,-232"/>
<polygon fill="purple" stroke="purple" points="410.742,-235.5 420.742,-232 410.742,-228.5 410.742,-235.5"/>
</g>
<!-- H -->
<g id="node16" class="node"><title>H</title>
<polygon fill="lightblue" stroke="black" points="544.095,-240.913 517,-260.843 489.905,-240.913 489.93,-208.665 544.07,-208.665 544.095,-240.913"/>
<text text-anchor="middle" x="517" y="-226.5" font-family="Times Roman,serif" font-size="20.00">H</text>
</g>
<!-- I -->
<g id="node18" class="node"><title>I</title>
<polygon fill="lightblue" stroke="black" points="544,-117.913 517,-137.843 490,-117.913 490.025,-85.6655 543.975,-85.6655 544,-117.913"/>
<text text-anchor="middle" x="517" y="-103.5" font-family="Times Roman,serif" font-size="20.00">I</text>
</g>
<!-- H&#45;&gt;I -->
<g id="edge15" class="edge"><title>H&#45;&gt;I</title>
<path fill="none" stroke="purple" d="M517,-208.575C517,-191.481 517,-167.916 517,-148.002"/>
<polygon fill="purple" stroke="purple" points="520.5,-147.974 517,-137.974 513.5,-147.974 520.5,-147.974"/>
</g>
<!-- J -->
<g id="node20" class="node"><title>J</title>
<polygon fill="magenta" stroke="yellow" points="631,-252.5 591,-252.5 591,-211.5 631,-211.5 631,-252.5"/>
<text text-anchor="middle" x="611" y="-225.1" font-family="Times Roman,serif" font-size="26.00">J</text>
</g>
<!-- K -->
<g id="node22" class="node"><title>K</title>
<polygon fill="magenta" stroke="black" points="611,-166.983 562.002,-80.0086 659.998,-80.0086 611,-166.983"/>
<text text-anchor="middle" x="611" y="-102.1" font-family="Times Roman,serif" font-size="26.00">K</text>
</g>
<!-- J&#45;&gt;K -->
<g id="edge18" class="edge"><title>J&#45;&gt;K</title>
<path fill="none" stroke="blue" d="M611,-211.413C611,-201.753 611,-189.629 611,-177.136"/>
<polygon fill="blue" stroke="blue" points="614.5,-177.077 611,-167.078 607.5,-177.078 614.5,-177.077"/>
</g>
</g>
</svg>
