<?xml version="1.0" encoding="UTF-8" standalone="no"?>
<!DOCTYPE svg PUBLIC "-//W3C//DTD SVG 1.1//EN"
 "http://www.w3.org/Graphics/SVG/1.1/DTD/svg11.dtd">
<!-- Generated by graphviz version 2.26.3 (20100126.1600)
 -->
<!-- Title: graph_55 Pages: 1 -->
<svg width="750pt" height="287pt"
 viewBox="0.00 0.00 750.00 287.00" xmlns="http://www.w3.org/2000/svg" xmlns:xlink="http://www.w3.org/1999/xlink">
<g id="graph1" class="graph" transform="scale(1 1) rotate(0) translate(4 283)">
<title>graph_55</title>
<polygon fill="white" stroke="white" points="-4,5 -4,-283 747,-283 747,5 -4,5"/>
<g id="graph4" class="cluster"><title>cluster_outer</title>
<polygon fill="none" stroke="black" points="556,-8 556,-271 734,-271 734,-8 556,-8"/>
<text text-anchor="middle" x="645" y="-254.4" font-family="Times Roman,serif" font-size="14.00">Outer</text>
</g>
<g id="graph5" class="cluster"><title>cluster_inner</title>
<polygon fill="none" stroke="black" points="628,-16 628,-236 726,-236 726,-16 628,-16"/>
<text text-anchor="middle" x="677" y="-219.4" font-family="Times Roman,serif" font-size="14.00">Inner</text>
</g>
<!-- A -->
<g id="node1" class="node"><title>A</title>
<ellipse fill="none" stroke="blue" cx="27" cy="-183" rx="27" ry="19.0919"/>
<text text-anchor="middle" x="27" y="-179.9" font-family="Times Roman,serif" font-size="14.00">A</text>
</g>
<!-- B -->
<g id="node5" class="node"><title>B</title>
<polygon fill="goldenrod" stroke="mediumseagreen" points="108,-201 72,-201 72,-165 108,-165 108,-201"/>
<text text-anchor="middle" x="90" y="-179.9" font-family="Times Roman,serif" font-size="14.00">B</text>
</g>
<!-- A&#45;&gt;B -->
<g id="edge3" class="edge"><title>A&#45;&gt;B</title>
<path fill="none" stroke="purple" d="M54.0703,-183C56.5571,-183 59.044,-183 61.5308,-183"/>
<polygon fill="purple" stroke="purple" points="61.7545,-186.5 71.7545,-183 61.7544,-179.5 61.7545,-186.5"/>
</g>
<!-- C -->
<g id="node3" class="node"><title>C</title>
<polygon fill="none" stroke="#ff3030" points="180,-190.292 153,-206.599 126,-190.292 126.025,-163.908 179.975,-163.908 180,-190.292"/>
<text text-anchor="middle" x="153" y="-179.9" font-family="Times Roman,serif" font-size="14.00">C</text>
</g>
<!-- D -->
<g id="node8" class="node"><title>D</title>
<ellipse fill="#00868b" stroke="black" cx="235" cy="-183" rx="19.0919" ry="19.0919"/>
<text text-anchor="middle" x="235" y="-179.9" font-family="Times Roman,serif" font-size="14.00">D</text>
</g>
<!-- C&#45;&gt;D -->
<g id="edge7" class="edge"><title>C&#45;&gt;D</title>
<path fill="none" stroke="purple" d="M190.493,-183C195.491,-183 200.488,-183 205.486,-183"/>
<polygon fill="none" stroke="purple" points="180.227,-187 180.227,-179 188.227,-179 188.227,-187 180.227,-187"/>
<polyline fill="none" stroke="purple" points="188.227,-183 190.227,-183 "/>
<polygon fill="purple" stroke="purple" points="205.744,-183 215.744,-187.5 210.744,-183 215.744,-183 215.744,-183 215.744,-183 210.744,-183 215.744,-178.5 205.744,-183 205.744,-183"/>
</g>
<!-- B&#45;&gt;C -->
<g id="edge5" class="edge"><title>B&#45;&gt;C</title>
<path fill="none" stroke="orange" stroke-width="5" d="M108.211,-183C110.671,-183 113.132,-183 115.592,-183"/>
<polygon fill="orange" stroke="orange" points="115.707,-187.375 125.707,-183 115.707,-178.625 115.707,-187.375"/>
</g>
<!-- E -->
<g id="node10" class="node"><title>E</title>
<ellipse fill="#00868b" stroke="black" cx="309" cy="-183" rx="19.0919" ry="19.0919"/>
<text text-anchor="middle" x="309" y="-179.9" font-family="Times Roman,serif" font-size="14.00">E</text>
</g>
<!-- D&#45;&gt;E -->
<g id="edge9" class="edge"><title>D&#45;&gt;E</title>
<path fill="none" stroke="purple" d="M262.147,-183C268.603,-183 275.058,-183 281.514,-183"/>
<ellipse fill="none" stroke="purple" cx="258.078" cy="-183" rx="4" ry="4"/>
<ellipse fill="purple" stroke="purple" cx="285.692" cy="-183" rx="4" ry="4"/>
</g>
<!-- F -->
<g id="node12" class="node"><title>F</title>
<ellipse fill="#00868b" stroke="black" cx="383" cy="-183" rx="19.0919" ry="19.0919"/>
<text text-anchor="middle" x="383" y="-179.9" font-family="Times Roman,serif" font-size="14.00">F</text>
</g>
<!-- E&#45;&gt;F -->
<g id="edge11" class="edge"><title>E&#45;&gt;F</title>
<path fill="none" stroke="purple" stroke-width="5" d="M336.147,-183C342.603,-183 349.058,-183 355.514,-183"/>
<ellipse fill="none" stroke="purple" cx="332.078" cy="-183" rx="4" ry="4"/>
<ellipse fill="purple" stroke="purple" cx="359.692" cy="-183" rx="4" ry="4"/>
</g>
<!-- G -->
<g id="node14" class="node"><title>G</title>
<polygon fill="darkorchid" stroke="yellow" stroke-width="5" points="474,-183 460.5,-205.045 433.5,-205.045 420,-183 433.5,-160.955 460.5,-160.955 474,-183"/>
<text text-anchor="middle" x="447" y="-179.9" font-family="Times Roman,serif" font-size="14.00">G</text>
</g>
<!-- H -->
<g id="node15" class="node"><title>H</title>
<polygon fill="darkorchid" stroke="crimson" stroke-width="7" points="546,-190.292 519,-206.599 492,-190.292 502.313,-163.908 535.687,-163.908 546,-190.292"/>
<text text-anchor="middle" x="519" y="-179.9" font-family="Times Roman,serif" font-size="14.00">H</text>
</g>
<!-- G&#45;&gt;H -->
<g id="edge14" class="edge"><title>G&#45;&gt;H</title>
<path fill="none" stroke="purple" d="M474,-183C477.565,-183 481.13,-183 484.695,-183"/>
<polygon fill="purple" stroke="purple" points="484.742,-186.5 494.742,-183 484.742,-179.5 484.742,-186.5"/>
</g>
<!-- I -->
<g id="node18" class="node"><title>I</title>
<polygon fill="lightblue" stroke="black" points="618,-191.913 591,-211.843 564,-191.913 564.025,-159.665 617.975,-159.665 618,-191.913"/>
<text text-anchor="middle" x="591" y="-177.5" font-family="Times Roman,serif" font-size="20.00">I</text>
</g>
<!-- J -->
<g id="node20" class="node"><title>J</title>
<polygon fill="lightblue" stroke="black" points="618,-79.913 591,-99.8431 564,-79.913 564.025,-47.6655 617.975,-47.6655 618,-79.913"/>
<text text-anchor="middle" x="591" y="-65.5" font-family="Times Roman,serif" font-size="20.00">J</text>
</g>
<!-- I&#45;&gt;J -->
<g id="edge17" class="edge"><title>I&#45;&gt;J</title>
<path fill="none" stroke="purple" d="M591,-159.521C591,-145.314 591,-126.834 591,-110.435"/>
<polygon fill="purple" stroke="purple" points="594.5,-110.026 591,-100.026 587.5,-110.026 594.5,-110.026"/>
</g>
<!-- K -->
<g id="node22" class="node"><title>K</title>
<polygon fill="magenta" stroke="yellow" points="695,-201 659,-201 659,-165 695,-165 695,-201"/>
<text text-anchor="middle" x="677" y="-177.5" font-family="Times Roman,serif" font-size="20.00">K</text>
</g>
<!-- L -->
<g id="node24" class="node"><title>L</title>
<polygon fill="magenta" stroke="black" points="677,-117.669 635.988,-47.6655 718.012,-47.6655 677,-117.669"/>
<text text-anchor="middle" x="677" y="-65.5" font-family="Times Roman,serif" font-size="20.00">L</text>
</g>
<!-- K&#45;&gt;L -->
<g id="edge20" class="edge"><title>K&#45;&gt;L</title>
<path fill="none" stroke="blue" d="M677,-164.505C677,-154.306 677,-141.035 677,-127.71"/>
<polygon fill="blue" stroke="blue" points="680.5,-127.56 677,-117.561 673.5,-127.561 680.5,-127.56"/>
</g>
</g>
</svg>
