<?xml version="1.0" encoding="UTF-8" standalone="no"?>
<!DOCTYPE svg PUBLIC "-//W3C//DTD SVG 1.1//EN"
 "http://www.w3.org/Graphics/SVG/1.1/DTD/svg11.dtd">
<!-- Generated by graphviz version 2.26.3 (20100126.1600)
 -->
<!-- Title: graph_55 Pages: 1 -->
<svg width="418pt" height="264pt"
 viewBox="0.00 0.00 418.00 264.00" xmlns="http://www.w3.org/2000/svg" xmlns:xlink="http://www.w3.org/1999/xlink">
<g id="graph1" class="graph" transform="scale(1 1) rotate(0) translate(4 260)">
<title>graph_55</title>
<polygon fill="white" stroke="white" points="-4,5 -4,-260 415,-260 415,5 -4,5"/>
<g id="graph4" class="cluster"><title>cluster_outer</title>
<polygon fill="none" stroke="black" points="244,-8 244,-248 402,-248 402,-8 244,-8"/>
<text text-anchor="middle" x="323" y="-231.4" font-family="Times Roman,serif" font-size="14.00">Outer</text>
</g>
<g id="graph5" class="cluster"><title>cluster_inner</title>
<polygon fill="none" stroke="black" points="316,-16 316,-213 394,-213 394,-16 316,-16"/>
<text text-anchor="middle" x="355" y="-196.4" font-family="Times Roman,serif" font-size="14.00">Inner</text>
</g>
<!-- A -->
<g id="node1" class="node"><title>A</title>
<ellipse fill="none" stroke="black" cx="27" cy="-160" rx="27" ry="19.0919"/>
<text text-anchor="middle" x="27" y="-156.9" font-family="Times Roman,serif" font-size="14.00">A</text>
</g>
<!-- B -->
<g id="node3" class="node"><title>B</title>
<polygon fill="none" stroke="black" points="126,-167.292 99,-183.599 72,-167.292 72.0252,-140.908 125.975,-140.908 126,-167.292"/>
<text text-anchor="middle" x="99" y="-156.9" font-family="Times Roman,serif" font-size="14.00">B</text>
</g>
<!-- A&#45;&gt;B -->
<g id="edge3" class="edge"><title>A&#45;&gt;B</title>
<path fill="none" stroke="purple" d="M54,-160C56.6147,-160 59.2295,-160 61.8442,-160"/>
<polygon fill="purple" stroke="purple" points="61.9297,-163.5 71.9297,-160 61.9297,-156.5 61.9297,-163.5"/>
</g>
<!-- C -->
<g id="node6" class="node"><title>C</title>
<polygon fill="none" stroke="black" points="180,-178 144,-178 144,-142 180,-142 180,-178"/>
<text text-anchor="middle" x="162" y="-156.9" font-family="Times Roman,serif" font-size="14.00">C</text>
</g>
<!-- D -->
<g id="node8" class="node"><title>D</title>
<polygon fill="none" stroke="black" points="234,-178 198,-178 198,-142 234,-142 234,-178"/>
<text text-anchor="middle" x="216" y="-156.9" font-family="Times Roman,serif" font-size="14.00">D</text>
</g>
<!-- C&#45;&gt;D -->
<g id="edge6" class="edge"><title>C&#45;&gt;D</title>
<path fill="none" stroke="purple" d="M180.141,-160C182.623,-160 185.105,-160 187.587,-160"/>
<polygon fill="purple" stroke="purple" points="187.79,-163.5 197.79,-160 187.79,-156.5 187.79,-163.5"/>
</g>
<!-- G -->
<g id="node10" class="node"><title>G</title>
<polygon fill="green" stroke="green" points="306,-167.292 279,-183.599 252,-167.292 252.025,-140.908 305.975,-140.908 306,-167.292"/>
<text text-anchor="middle" x="279" y="-156.9" font-family="Times Roman,serif" font-size="14.00">G</text>
</g>
<!-- H -->
<g id="node12" class="node"><title>H</title>
<polygon fill="green" stroke="green" points="306,-69.2925 279,-85.5989 252,-69.2925 252.025,-42.9081 305.975,-42.9081 306,-69.2925"/>
<text text-anchor="middle" x="279" y="-58.9" font-family="Times Roman,serif" font-size="14.00">H</text>
</g>
<!-- G&#45;&gt;H -->
<g id="edge9" class="edge"><title>G&#45;&gt;H</title>
<path fill="none" stroke="purple" d="M279,-140.638C279,-127.98 279,-111.095 279,-96.2168"/>
<polygon fill="purple" stroke="purple" points="282.5,-95.8266 279,-85.8267 275.5,-95.8267 282.5,-95.8266"/>
</g>
<!-- I -->
<g id="node14" class="node"><title>I</title>
<polygon fill="pink" stroke="pink" points="373,-178 337,-178 337,-142 373,-142 373,-178"/>
<text text-anchor="middle" x="355" y="-156.9" font-family="Times Roman,serif" font-size="14.00">I</text>
</g>
<!-- J -->
<g id="node16" class="node"><title>J</title>
<polygon fill="green" stroke="green" points="355,-100.184 323.887,-42.9081 386.113,-42.9081 355,-100.184"/>
<text text-anchor="middle" x="355" y="-58.9" font-family="Times Roman,serif" font-size="14.00">J</text>
</g>
<!-- I&#45;&gt;J -->
<g id="edge12" class="edge"><title>I&#45;&gt;J</title>
<path fill="none" stroke="blue" d="M355,-141.567C355,-132.652 355,-121.49 355,-110.371"/>
<polygon fill="blue" stroke="blue" points="358.5,-110.238 355,-100.238 351.5,-110.238 358.5,-110.238"/>
</g>
</g>
</svg>
