<?xml version="1.0" encoding="UTF-8" standalone="no"?>
<!DOCTYPE svg PUBLIC "-//W3C//DTD SVG 1.1//EN"
 "http://www.w3.org/Graphics/SVG/1.1/DTD/svg11.dtd">
<!-- Generated by graphviz version 2.29.20121107.0545 (20121107.0545)
 -->
<!-- Title: g Pages: 1 -->
<svg width="1168pt" height="168pt"
 viewBox="0.00 0.00 1168.00 168.00" xmlns="http://www.w3.org/2000/svg" xmlns:xlink="http://www.w3.org/1999/xlink">
<g id="graph0" class="graph" transform="scale(1 1) rotate(0) translate(4 164)">
<title>g</title>
<polygon fill="white" stroke="white" points="-4,5 -4,-164 1165,-164 1165,5 -4,5"/>
<g id="clust1" class="cluster"><title>cluster_0</title>
<polygon fill="none" stroke="#f7f7f7" points="8,-100 8,-152 1039,-152 1039,-100 8,-100"/>
</g>
<!-- Hef1a -->
<g id="node1" class="node"><title>Hef1a</title>
<polygon fill="#ca0020" stroke="#ca0020" points="52,-138 16,-138 16,-108 34,-108 34,-114 52,-114 52,-108 70,-126 52,-144 52,-138"/>
<text text-anchor="middle" x="43" y="-122.3" font-family="Times,serif" font-size="14.00" fill="#f7f7f7">Hef1a</text>
</g>
<!-- Gal4VP16 -->
<g id="node5" class="node"><title>Gal4VP16</title>
<polygon fill="#0571b0" stroke="#0571b0" points="166,-138 106,-138 106,-114 166,-114 166,-108 184,-126 166,-144 166,-138"/>
<text text-anchor="middle" x="145" y="-122.3" font-family="Times,serif" font-size="14.00" fill="#f7f7f7">Gal4&#45;VP16</text>
</g>
<!-- Hef1a&#45;&gt;Gal4VP16 -->
<g id="edge1" class="edge"><title>Hef1a&#45;&gt;Gal4VP16</title>
<path fill="none" stroke="black" d="M70.0128,-126C80.8924,-126 93.7577,-126 105.684,-126"/>
</g>
<!-- TRE -->
<g id="node2" class="node"><title>TRE</title>
<polygon fill="#ca0020" stroke="#ca0020" points="813,-138 777,-138 777,-108 795,-108 795,-114 813,-114 813,-108 831,-126 813,-144 813,-138"/>
<text text-anchor="middle" x="804" y="-122.3" font-family="Times,serif" font-size="14.00" fill="#f7f7f7">TRE</text>
</g>
<!-- DeltamCherry -->
<g id="node8" class="node"><title>DeltamCherry</title>
<polygon fill="#0571b0" stroke="#0571b0" points="1012.5,-138 935.5,-138 935.5,-114 1012.5,-114 1012.5,-108 1030.5,-126 1012.5,-144 1012.5,-138"/>
<text text-anchor="middle" x="983" y="-122.3" font-family="Times,serif" font-size="14.00" fill="#f7f7f7">DeltamCherry</text>
</g>
<!-- TRE&#45;&gt;DeltamCherry -->
<g id="edge7" class="edge"><title>TRE&#45;&gt;DeltamCherry</title>
<path fill="none" stroke="black" d="M831.117,-126C858.523,-126 902.17,-126 935.484,-126"/>
</g>
<!-- UAS -->
<g id="node3" class="node"><title>UAS</title>
<polygon fill="#ca0020" stroke="#ca0020" points="280,-138 244,-138 244,-108 262,-108 262,-114 280,-114 280,-108 298,-126 280,-144 280,-138"/>
<text text-anchor="middle" x="271" y="-122.3" font-family="Times,serif" font-size="14.00" fill="#f7f7f7">UAS</text>
</g>
<!-- LacI -->
<g id="node6" class="node"><title>LacI</title>
<polygon fill="#0571b0" stroke="#0571b0" points="394,-138 358,-138 358,-114 394,-114 394,-108 412,-126 394,-144 394,-138"/>
<text text-anchor="middle" x="385" y="-122.3" font-family="Times,serif" font-size="14.00" fill="#f7f7f7">LacI</text>
</g>
<!-- UAS&#45;&gt;LacI -->
<g id="edge3" class="edge"><title>UAS&#45;&gt;LacI</title>
<path fill="none" stroke="black" d="M298.259,-126C316.233,-126 339.966,-126 357.905,-126"/>
</g>
<!-- Hef1aLacOid -->
<g id="node4" class="node"><title>Hef1aLacOid</title>
<polygon fill="#ca0020" stroke="#ca0020" points="525.5,-138 448.5,-138 448.5,-108 466.5,-108 466.5,-114 525.5,-114 525.5,-108 543.5,-126 525.5,-144 525.5,-138"/>
<text text-anchor="middle" x="496" y="-122.3" font-family="Times,serif" font-size="14.00" fill="#f7f7f7">Hef1a&#45;LacOid</text>
</g>
<!-- rtTA3 -->
<g id="node7" class="node"><title>rtTA3</title>
<polygon fill="#0571b0" stroke="#0571b0" points="655,-138 619,-138 619,-114 655,-114 655,-108 673,-126 655,-144 655,-138"/>
<text text-anchor="middle" x="646" y="-122.3" font-family="Times,serif" font-size="14.00" fill="#f7f7f7">rtTA3</text>
</g>
<!-- Hef1aLacOid&#45;&gt;rtTA3 -->
<g id="edge5" class="edge"><title>Hef1aLacOid&#45;&gt;rtTA3</title>
<path fill="none" stroke="black" d="M543.828,-126C568.557,-126 597.986,-126 618.711,-126"/>
</g>
<!-- Gal4VP16&#45;&gt;UAS -->
<g id="edge2" class="edge"><title>Gal4VP16&#45;&gt;UAS</title>
<path fill="none" stroke="black" d="M184.216,-126C203.572,-126 226.572,-126 243.883,-126"/>
</g>
<!-- Gal4VP16protein -->
<g id="node14" class="node"><title>Gal4VP16protein</title>
<ellipse fill="#92c5de" stroke="#92c5de" cx="271" cy="-72" rx="50.8918" ry="18"/>
<text text-anchor="middle" x="271" y="-68.3" font-family="Times,serif" font-size="14.00" fill="#0571b0">Gal4&#45;VP16</text>
</g>
<!-- Gal4VP16&#45;&gt;Gal4VP16protein -->
<g id="edge8" class="edge"><title>Gal4VP16&#45;&gt;Gal4VP16protein</title>
<path fill="none" stroke="black" d="M184.216,-109.358C198.459,-103.155 214.676,-96.0926 229.147,-89.7908"/>
<polygon fill="black" stroke="black" points="230.595,-92.9777 238.366,-85.776 227.8,-86.5598 230.595,-92.9777"/>
</g>
<!-- LacI&#45;&gt;Hef1aLacOid -->
<g id="edge4" class="edge"><title>LacI&#45;&gt;Hef1aLacOid</title>
<path fill="none" stroke="black" d="M412.108,-126C422.941,-126 435.85,-126 448.218,-126"/>
</g>
<!-- LacIprotein -->
<g id="node12" class="node"><title>LacIprotein</title>
<ellipse fill="#92c5de" stroke="#92c5de" cx="496" cy="-72" rx="27" ry="18"/>
<text text-anchor="middle" x="496" y="-68.3" font-family="Times,serif" font-size="14.00" fill="#0571b0">LacI</text>
</g>
<!-- LacI&#45;&gt;LacIprotein -->
<g id="edge10" class="edge"><title>LacI&#45;&gt;LacIprotein</title>
<path fill="none" stroke="black" d="M412.108,-113.066C427.903,-105.241 448.112,-95.2292 464.621,-87.0502"/>
<polygon fill="black" stroke="black" points="466.446,-90.0523 473.852,-82.4768 463.338,-83.7798 466.446,-90.0523"/>
</g>
<!-- rtTA3&#45;&gt;TRE -->
<g id="edge6" class="edge"><title>rtTA3&#45;&gt;TRE</title>
<path fill="none" stroke="black" d="M673.111,-126C701.908,-126 747.973,-126 776.804,-126"/>
</g>
<!-- rtTA3protein -->
<g id="node13" class="node"><title>rtTA3protein</title>
<ellipse fill="#92c5de" stroke="#92c5de" cx="804" cy="-72" rx="32.4942" ry="18"/>
<text text-anchor="middle" x="804" y="-68.3" font-family="Times,serif" font-size="14.00" fill="#0571b0">rtTA3</text>
</g>
<!-- rtTA3&#45;&gt;rtTA3protein -->
<g id="edge14" class="edge"><title>rtTA3&#45;&gt;rtTA3protein</title>
<path fill="none" stroke="black" d="M673.111,-116.962C698.638,-108.125 737.734,-94.592 766.366,-84.6809"/>
<polygon fill="black" stroke="black" points="767.713,-87.9185 776.018,-81.3399 765.423,-81.3036 767.713,-87.9185"/>
</g>
<!-- product -->
<g id="node9" class="node"><title>product</title>
<ellipse fill="#f4a582" stroke="#f4a582" cx="1133" cy="-126" rx="27" ry="18"/>
</g>
<!-- DeltamCherry&#45;&gt;product -->
<g id="edge18" class="edge"><title>DeltamCherry&#45;&gt;product</title>
<path fill="none" stroke="black" d="M1030.83,-126C1051.79,-126 1076.13,-126 1095.68,-126"/>
<polygon fill="black" stroke="black" points="1095.71,-129.5 1105.71,-126 1095.71,-122.5 1095.71,-129.5"/>
</g>
<!-- repression -->
<g id="node10" class="node"><title>repression</title>
<ellipse fill="none" stroke="#0571b0" stroke-dasharray="1,5" cx="646" cy="-72" rx="65.7887" ry="18"/>
<text text-anchor="middle" x="646" y="-68.3" font-family="Times,serif" font-size="14.00">LacI repression</text>
</g>
<!-- repression&#45;&gt;Hef1aLacOid -->
<g id="edge12" class="edge"><title>repression&#45;&gt;Hef1aLacOid</title>
<path fill="none" stroke="black" d="M605.921,-86.2585C588.359,-92.6663 567.392,-100.316 548.565,-107.186"/>
<polygon fill="black" stroke="black" points="546.481,-113.268 543.054,-103.874 544.933,-103.189 548.36,-112.583 546.481,-113.268"/>
<polyline fill="none" stroke="black" points="543.828,-108.914 548.525,-107.2 "/>
</g>
<!-- combination -->
<g id="node11" class="node"><title>combination</title>
<ellipse fill="#92c5de" stroke="#92c5de" cx="983" cy="-72" rx="87.1846" ry="18"/>
<text text-anchor="middle" x="983" y="-68.3" font-family="Times,serif" font-size="14.00" fill="#0571b0">rtTA3 + Doxycycline</text>
</g>
<!-- combination&#45;&gt;TRE -->
<g id="edge16" class="edge"><title>combination&#45;&gt;TRE</title>
<path fill="none" stroke="black" d="M929.13,-86.3387C918.152,-89.4325 906.678,-92.7519 896,-96 877.812,-101.533 857.728,-108.104 841.065,-113.684"/>
<polygon fill="black" stroke="black" points="839.54,-110.505 831.18,-117.013 841.774,-117.139 839.54,-110.505"/>
</g>
<!-- LacIprotein&#45;&gt;repression -->
<g id="edge11" class="edge"><title>LacIprotein&#45;&gt;repression</title>
<path fill="none" stroke="black" d="M523.119,-72C536.313,-72 553.067,-72 569.897,-72"/>
<polygon fill="black" stroke="black" points="570.354,-75.5001 580.354,-72 570.354,-68.5001 570.354,-75.5001"/>
</g>
<!-- rtTA3protein&#45;&gt;combination -->
<g id="edge15" class="edge"><title>rtTA3protein&#45;&gt;combination</title>
<path fill="none" stroke="black" d="M836.644,-72C850.526,-72 867.643,-72 885.201,-72"/>
<polygon fill="black" stroke="black" points="885.568,-75.5001 895.568,-72 885.568,-68.5001 885.568,-75.5001"/>
</g>
<!-- Gal4VP16protein&#45;&gt;UAS -->
<g id="edge9" class="edge"><title>Gal4VP16protein&#45;&gt;UAS</title>
<path fill="none" stroke="black" d="M271,-90.1406C271,-92.6226 271,-95.1046 271,-97.5865"/>
<polygon fill="black" stroke="black" points="267.5,-97.7901 271,-107.79 274.5,-97.7902 267.5,-97.7901"/>
</g>
<!-- IPTG -->
<g id="node15" class="node"><title>IPTG</title>
<ellipse fill="#92c5de" stroke="#92c5de" cx="496" cy="-18" rx="30.5947" ry="18"/>
<text text-anchor="middle" x="496" y="-14.3" font-family="Times,serif" font-size="14.00" fill="#0571b0">IPTG</text>
</g>
<!-- IPTG&#45;&gt;repression -->
<g id="edge13" class="edge"><title>IPTG&#45;&gt;repression</title>
<path fill="none" stroke="black" d="M522.442,-27.2829C543.994,-35.1465 575.384,-46.5997 601.001,-55.9462"/>
<polygon fill="black" stroke="black" points="606.487,-52.6256 603.06,-62.0199 601.181,-61.3343 604.608,-51.9401 606.487,-52.6256"/>
<polyline fill="none" stroke="black" points="605.713,-57.6655 601.016,-55.9516 "/>
</g>
<!-- Doxycycline -->
<g id="node16" class="node"><title>Doxycycline</title>
<ellipse fill="#92c5de" stroke="#92c5de" cx="804" cy="-18" rx="55.7903" ry="18"/>
<text text-anchor="middle" x="804" y="-14.3" font-family="Times,serif" font-size="14.00" fill="#0571b0">Doxycycline</text>
</g>
<!-- Doxycycline&#45;&gt;combination -->
<g id="edge17" class="edge"><title>Doxycycline&#45;&gt;combination</title>
<path fill="none" stroke="black" d="M845.164,-30.2534C868.317,-37.3172 897.838,-46.3234 923.528,-54.1611"/>
<polygon fill="black" stroke="black" points="922.579,-57.5309 933.165,-57.1013 924.622,-50.8355 922.579,-57.5309"/>
</g>
</g>
</svg>
