<?xml version="1.0" encoding="UTF-8" standalone="no"?>
<!DOCTYPE svg PUBLIC "-//W3C//DTD SVG 1.1//EN"
 "http://www.w3.org/Graphics/SVG/1.1/DTD/svg11.dtd">
<!-- Generated by graphviz version 2.38.0 (20140413.2041)
 -->
<!-- Title: g Pages: 1 -->
<svg width="1166pt" height="168pt"
 viewBox="0.00 0.00 1165.65 168.00" xmlns="http://www.w3.org/2000/svg" xmlns:xlink="http://www.w3.org/1999/xlink">
<g id="graph0" class="graph" transform="scale(1 1) rotate(0) translate(4 164)">
<title>g</title>
<polygon fill="white" stroke="none" points="-4,4 -4,-164 1161.65,-164 1161.65,4 -4,4"/>
<g id="clust1" class="cluster"><title>cluster_0</title>
<polygon fill="none" stroke="#f7f7f7" points="8,-100 8,-152 1036.06,-152 1036.06,-100 8,-100"/>
</g>
<!-- Hef1a -->
<g id="node1" class="node"><title>Hef1a</title>
<polygon fill="#ca0020" stroke="#ca0020" points="52,-138 16,-138 16,-108 34,-108 34,-114 52,-114 52,-108 70,-126 52,-144 52,-138"/>
<text text-anchor="middle" x="43" y="-122.3" font-family="Times,serif" font-size="14.00" fill="#f7f7f7">Hef1a</text>
</g>
<!-- Gal4VP16 -->
<g id="node5" class="node"><title>Gal4VP16</title>
<polygon fill="#0571b0" stroke="#0571b0" points="166,-138 106,-138 106,-114 166,-114 166,-108 184,-126 166,-144 166,-138"/>
<text text-anchor="middle" x="145" y="-122.3" font-family="Times,serif" font-size="14.00" fill="#f7f7f7">Gal4&#45;VP16</text>
</g>
<!-- Hef1a&#45;&gt;Gal4VP16 -->
<g id="edge1" class="edge"><title>Hef1a&#45;&gt;Gal4VP16</title>
<path fill="none" stroke="black" d="M70.0663,-126C81.044,-126 93.9349,-126 105.9,-126"/>
</g>
<!-- TRE -->
<g id="node2" class="node"><title>TRE</title>
<polygon fill="#ca0020" stroke="#ca0020" points="810.574,-138 774.574,-138 774.574,-108 792.574,-108 792.574,-114 810.574,-114 810.574,-108 828.574,-126 810.574,-144 810.574,-138"/>
<text text-anchor="middle" x="801.574" y="-122.3" font-family="Times,serif" font-size="14.00" fill="#f7f7f7">TRE</text>
</g>
<!-- DeltamCherry -->
<g id="node8" class="node"><title>DeltamCherry</title>
<polygon fill="#0571b0" stroke="#0571b0" points="1010.06,-138 933.062,-138 933.062,-114 1010.06,-114 1010.06,-108 1028.06,-126 1010.06,-144 1010.06,-138"/>
<text text-anchor="middle" x="980.562" y="-122.3" font-family="Times,serif" font-size="14.00" fill="#f7f7f7">DeltamCherry</text>
</g>
<!-- TRE&#45;&gt;DeltamCherry -->
<g id="edge7" class="edge"><title>TRE&#45;&gt;DeltamCherry</title>
<path fill="none" stroke="black" d="M828.759,-126C856.337,-126 899.587,-126 932.879,-126"/>
</g>
<!-- UAS -->
<g id="node3" class="node"><title>UAS</title>
<polygon fill="#ca0020" stroke="#ca0020" points="279.696,-138 243.696,-138 243.696,-108 261.696,-108 261.696,-114 279.696,-114 279.696,-108 297.696,-126 279.696,-144 279.696,-138"/>
<text text-anchor="middle" x="270.696" y="-122.3" font-family="Times,serif" font-size="14.00" fill="#f7f7f7">UAS</text>
</g>
<!-- LacI -->
<g id="node6" class="node"><title>LacI</title>
<polygon fill="#0571b0" stroke="#0571b0" points="393.391,-138 357.391,-138 357.391,-114 393.391,-114 393.391,-108 411.391,-126 393.391,-144 393.391,-138"/>
<text text-anchor="middle" x="384.391" y="-122.3" font-family="Times,serif" font-size="14.00" fill="#f7f7f7">LacI</text>
</g>
<!-- UAS&#45;&gt;LacI -->
<g id="edge3" class="edge"><title>UAS&#45;&gt;LacI</title>
<path fill="none" stroke="black" d="M297.928,-126C315.929,-126 339.425,-126 357.38,-126"/>
</g>
<!-- Hef1aLacOid -->
<g id="node4" class="node"><title>Hef1aLacOid</title>
<polygon fill="#ca0020" stroke="#ca0020" points="524.391,-138 447.391,-138 447.391,-108 465.391,-108 465.391,-114 524.391,-114 524.391,-108 542.391,-126 524.391,-144 524.391,-138"/>
<text text-anchor="middle" x="494.891" y="-122.3" font-family="Times,serif" font-size="14.00" fill="#f7f7f7">Hef1a&#45;LacOid</text>
</g>
<!-- rtTA3 -->
<g id="node7" class="node"><title>rtTA3</title>
<polygon fill="#0571b0" stroke="#0571b0" points="653.035,-138 617.035,-138 617.035,-114 653.035,-114 653.035,-108 671.035,-126 653.035,-144 653.035,-138"/>
<text text-anchor="middle" x="644.035" y="-122.3" font-family="Times,serif" font-size="14.00" fill="#f7f7f7">rtTA3</text>
</g>
<!-- Hef1aLacOid&#45;&gt;rtTA3 -->
<g id="edge5" class="edge"><title>Hef1aLacOid&#45;&gt;rtTA3</title>
<path fill="none" stroke="black" d="M542.491,-126C567.043,-126 596.103,-126 616.832,-126"/>
</g>
<!-- Gal4VP16&#45;&gt;UAS -->
<g id="edge2" class="edge"><title>Gal4VP16&#45;&gt;UAS</title>
<path fill="none" stroke="black" d="M184.082,-126C203.396,-126 226.221,-126 243.591,-126"/>
</g>
<!-- Gal4VP16protein -->
<g id="node14" class="node"><title>Gal4VP16protein</title>
<ellipse fill="#92c5de" stroke="#92c5de" cx="270.696" cy="-72" rx="50.8918" ry="18"/>
<text text-anchor="middle" x="270.696" y="-68.3" font-family="Times,serif" font-size="14.00" fill="#0571b0">Gal4&#45;VP16</text>
</g>
<!-- Gal4VP16&#45;&gt;Gal4VP16protein -->
<g id="edge8" class="edge"><title>Gal4VP16&#45;&gt;Gal4VP16protein</title>
<path fill="none" stroke="black" d="M184.082,-109.21C198.388,-103.064 214.621,-96.09 229.137,-89.8541"/>
<polygon fill="black" stroke="black" points="230.583,-93.042 238.39,-85.8789 227.82,-86.6104 230.583,-93.042"/>
</g>
<!-- LacI&#45;&gt;Hef1aLacOid -->
<g id="edge4" class="edge"><title>LacI&#45;&gt;Hef1aLacOid</title>
<path fill="none" stroke="black" d="M411.422,-126C422.156,-126 434.833,-126 447.022,-126"/>
</g>
<!-- LacIprotein -->
<g id="node12" class="node"><title>LacIprotein</title>
<ellipse fill="#92c5de" stroke="#92c5de" cx="494.891" cy="-72" rx="27" ry="18"/>
<text text-anchor="middle" x="494.891" y="-68.3" font-family="Times,serif" font-size="14.00" fill="#0571b0">LacI</text>
</g>
<!-- LacI&#45;&gt;LacIprotein -->
<g id="edge10" class="edge"><title>LacI&#45;&gt;LacIprotein</title>
<path fill="none" stroke="black" d="M411.422,-112.79C427.232,-105.064 447.255,-95.279 463.727,-87.2293"/>
<polygon fill="black" stroke="black" points="465.509,-90.2544 472.957,-82.7191 462.435,-83.9652 465.509,-90.2544"/>
</g>
<!-- rtTA3&#45;&gt;TRE -->
<g id="edge6" class="edge"><title>rtTA3&#45;&gt;TRE</title>
<path fill="none" stroke="black" d="M671.117,-126C699.973,-126 745.397,-126 774.319,-126"/>
</g>
<!-- rtTA3protein -->
<g id="node13" class="node"><title>rtTA3protein</title>
<ellipse fill="#92c5de" stroke="#92c5de" cx="801.574" cy="-72" rx="32.4942" ry="18"/>
<text text-anchor="middle" x="801.574" y="-68.3" font-family="Times,serif" font-size="14.00" fill="#0571b0">rtTA3</text>
</g>
<!-- rtTA3&#45;&gt;rtTA3protein -->
<g id="edge14" class="edge"><title>rtTA3&#45;&gt;rtTA3protein</title>
<path fill="none" stroke="black" d="M671.117,-116.717C696.772,-107.923 735.523,-94.6404 764.13,-84.8348"/>
<polygon fill="black" stroke="black" points="765.463,-88.078 773.788,-81.5245 763.193,-81.4562 765.463,-88.078"/>
</g>
<!-- product -->
<g id="node9" class="node"><title>product</title>
<ellipse fill="#f4a582" stroke="#f4a582" cx="1130.65" cy="-126" rx="27" ry="18"/>
</g>
<!-- DeltamCherry&#45;&gt;product -->
<g id="edge18" class="edge"><title>DeltamCherry&#45;&gt;product</title>
<path fill="none" stroke="black" d="M1028.46,-126C1049.41,-126 1073.61,-126 1093.21,-126"/>
<polygon fill="black" stroke="black" points="1093.28,-129.5 1103.28,-126 1093.28,-122.5 1093.28,-129.5"/>
</g>
<!-- repression -->
<g id="node10" class="node"><title>repression</title>
<ellipse fill="none" stroke="#0571b0" stroke-dasharray="1,5" cx="644.035" cy="-72" rx="65.7887" ry="18"/>
<text text-anchor="middle" x="644.035" y="-68.3" font-family="Times,serif" font-size="14.00">LacI repression</text>
</g>
<!-- repression&#45;&gt;Hef1aLacOid -->
<g id="edge12" class="edge"><title>repression&#45;&gt;Hef1aLacOid</title>
<path fill="none" stroke="black" d="M604.378,-86.3586C586.85,-92.7049 565.998,-100.255 547.218,-107.054"/>
<polygon fill="black" stroke="black" points="545.134,-113.126 541.729,-103.724 543.61,-103.043 547.014,-112.446 545.134,-113.126"/>
<polyline fill="none" stroke="black" points="542.491,-108.766 547.193,-107.063 "/>
</g>
<!-- combination -->
<g id="node11" class="node"><title>combination</title>
<ellipse fill="#92c5de" stroke="#92c5de" cx="980.562" cy="-72" rx="87.1846" ry="18"/>
<text text-anchor="middle" x="980.562" y="-68.3" font-family="Times,serif" font-size="14.00" fill="#0571b0">rtTA3 + Doxycycline</text>
</g>
<!-- combination&#45;&gt;TRE -->
<g id="edge16" class="edge"><title>combination&#45;&gt;TRE</title>
<path fill="none" stroke="black" d="M927.021,-86.3309C915.903,-89.4252 904.283,-92.7469 893.469,-96 875.369,-101.445 855.409,-107.906 838.729,-113.434"/>
<polygon fill="black" stroke="black" points="837.193,-110.257 828.812,-116.739 839.406,-116.898 837.193,-110.257"/>
</g>
<!-- LacIprotein&#45;&gt;repression -->
<g id="edge11" class="edge"><title>LacIprotein&#45;&gt;repression</title>
<path fill="none" stroke="black" d="M521.9,-72C534.969,-72 551.383,-72 567.899,-72"/>
<polygon fill="black" stroke="black" points="568.167,-75.5001 578.167,-72 568.167,-68.5001 568.167,-75.5001"/>
</g>
<!-- rtTA3protein&#45;&gt;combination -->
<g id="edge15" class="edge"><title>rtTA3protein&#45;&gt;combination</title>
<path fill="none" stroke="black" d="M834.403,-72C848.324,-72 865.351,-72 882.801,-72"/>
<polygon fill="black" stroke="black" points="883.104,-75.5001 893.104,-72 883.104,-68.5001 883.104,-75.5001"/>
</g>
<!-- Gal4VP16protein&#45;&gt;UAS -->
<g id="edge9" class="edge"><title>Gal4VP16protein&#45;&gt;UAS</title>
<path fill="none" stroke="black" d="M270.696,-90.1406C270.696,-92.6226 270.696,-95.1046 270.696,-97.5865"/>
<polygon fill="black" stroke="black" points="267.196,-97.7901 270.696,-107.79 274.196,-97.7902 267.196,-97.7901"/>
</g>
<!-- IPTG -->
<g id="node15" class="node"><title>IPTG</title>
<ellipse fill="#92c5de" stroke="#92c5de" cx="494.891" cy="-18" rx="30.5947" ry="18"/>
<text text-anchor="middle" x="494.891" y="-14.3" font-family="Times,serif" font-size="14.00" fill="#0571b0">IPTG</text>
</g>
<!-- IPTG&#45;&gt;repression -->
<g id="edge13" class="edge"><title>IPTG&#45;&gt;repression</title>
<path fill="none" stroke="black" d="M521.212,-27.5298C542.771,-35.3359 573.761,-46.5561 599.217,-55.773"/>
<polygon fill="black" stroke="black" points="604.992,-52.5462 601.588,-61.9489 599.707,-61.268 603.112,-51.8653 604.992,-52.5462"/>
<polyline fill="none" stroke="black" points="604.23,-57.588 599.529,-55.8858 "/>
</g>
<!-- Doxycycline -->
<g id="node16" class="node"><title>Doxycycline</title>
<ellipse fill="#92c5de" stroke="#92c5de" cx="801.574" cy="-18" rx="55.7903" ry="18"/>
<text text-anchor="middle" x="801.574" y="-14.3" font-family="Times,serif" font-size="14.00" fill="#0571b0">Doxycycline</text>
</g>
<!-- Doxycycline&#45;&gt;combination -->
<g id="edge17" class="edge"><title>Doxycycline&#45;&gt;combination</title>
<path fill="none" stroke="black" d="M842.638,-30.3887C865.975,-37.4294 895.599,-46.367 921.406,-54.1529"/>
<polygon fill="black" stroke="black" points="920.504,-57.5366 931.089,-57.0742 922.526,-50.8349 920.504,-57.5366"/>
</g>
</g>
</svg>
