<?xml version="1.0" encoding="UTF-8" standalone="no"?>
<!DOCTYPE svg PUBLIC "-//W3C//DTD SVG 1.1//EN"
 "http://www.w3.org/Graphics/SVG/1.1/DTD/svg11.dtd">
<!-- Generated by graphviz version 2.29.20121107.0545 (20121107.0545)
 -->
<!-- Title: abstract Pages: 1 -->
<svg width="432pt" height="235pt"
 viewBox="0.00 0.00 432.00 234.54" xmlns="http://www.w3.org/2000/svg" xmlns:xlink="http://www.w3.org/1999/xlink">
<g id="graph0" class="graph" transform="scale(0.378284 0.378284) rotate(0) translate(4 616)">
<title>abstract</title>
<polygon fill="white" stroke="white" points="-4,5 -4,-616 1139,-616 1139,5 -4,5"/>
<!-- S24 -->
<g id="node1" class="node"><title>S24</title>
<ellipse fill="none" stroke="black" cx="55" cy="-522" rx="27" ry="18"/>
<text text-anchor="middle" x="55" y="-518.3" font-family="Times,serif" font-size="14.00">S24</text>
</g>
<!-- 27 -->
<g id="node2" class="node"><title>27</title>
<ellipse fill="none" stroke="black" cx="27" cy="-378" rx="27" ry="18"/>
<text text-anchor="middle" x="27" y="-374.3" font-family="Times,serif" font-size="14.00">27</text>
</g>
<!-- S24&#45;&gt;27 -->
<g id="edge1" class="edge"><title>S24&#45;&gt;27</title>
<path fill="none" stroke="black" d="M51.6225,-503.871C46.8294,-479.564 38.0065,-434.819 32.3266,-406.013"/>
<polygon fill="black" stroke="black" points="35.758,-405.323 30.3894,-396.189 28.8902,-406.677 35.758,-405.323"/>
</g>
<!-- 25 -->
<g id="node3" class="node"><title>25</title>
<ellipse fill="none" stroke="black" cx="82" cy="-450" rx="27" ry="18"/>
<text text-anchor="middle" x="82" y="-446.3" font-family="Times,serif" font-size="14.00">25</text>
</g>
<!-- S24&#45;&gt;25 -->
<g id="edge2" class="edge"><title>S24&#45;&gt;25</title>
<path fill="none" stroke="black" d="M61.3986,-504.411C64.5136,-496.335 68.3337,-486.431 71.8346,-477.355"/>
<polygon fill="black" stroke="black" points="75.1265,-478.546 75.4597,-467.956 68.5955,-476.027 75.1265,-478.546"/>
</g>
<!-- T24 -->
<g id="node17" class="node"><title>T24</title>
<ellipse fill="none" stroke="black" cx="65" cy="-90" rx="27" ry="18"/>
<text text-anchor="middle" x="65" y="-86.3" font-family="Times,serif" font-size="14.00">T24</text>
</g>
<!-- 27&#45;&gt;T24 -->
<g id="edge13" class="edge"><title>27&#45;&gt;T24</title>
<path fill="none" stroke="black" d="M29.2633,-359.966C35.6127,-312.178 53.634,-176.544 61.384,-118.215"/>
<polygon fill="black" stroke="black" points="64.9009,-118.319 62.7486,-107.945 57.9619,-117.397 64.9009,-118.319"/>
</g>
<!-- T1 -->
<g id="node15" class="node"><title>T1</title>
<ellipse fill="none" stroke="black" cx="457" cy="-90" rx="27" ry="18"/>
<text text-anchor="middle" x="457" y="-86.3" font-family="Times,serif" font-size="14.00">T1</text>
</g>
<!-- 25&#45;&gt;T1 -->
<g id="edge11" class="edge"><title>25&#45;&gt;T1</title>
<path fill="none" stroke="black" d="M82,-431.951C82,-405.292 82,-352.115 82,-307 82,-307 82,-307 82,-233 82,-184.018 105.362,-169.797 147,-144 192.234,-115.976 348.296,-99.9015 420.198,-93.826"/>
<polygon fill="black" stroke="black" points="420.495,-97.3135 430.172,-93.002 419.918,-90.3373 420.495,-97.3135"/>
</g>
<!-- 26 -->
<g id="node16" class="node"><title>26</title>
<ellipse fill="none" stroke="black" cx="137" cy="-378" rx="27" ry="18"/>
<text text-anchor="middle" x="137" y="-374.3" font-family="Times,serif" font-size="14.00">26</text>
</g>
<!-- 25&#45;&gt;26 -->
<g id="edge12" class="edge"><title>25&#45;&gt;26</title>
<path fill="none" stroke="black" d="M93.9342,-433.811C101.214,-424.546 110.663,-412.52 118.854,-402.094"/>
<polygon fill="black" stroke="black" points="121.663,-404.185 125.089,-394.159 116.159,-399.86 121.663,-404.185"/>
</g>
<!-- S1 -->
<g id="node4" class="node"><title>S1</title>
<ellipse fill="none" stroke="black" cx="818" cy="-594" rx="27" ry="18"/>
<text text-anchor="middle" x="818" y="-590.3" font-family="Times,serif" font-size="14.00">S1</text>
</g>
<!-- 10 -->
<g id="node5" class="node"><title>10</title>
<ellipse fill="none" stroke="black" cx="782" cy="-522" rx="27" ry="18"/>
<text text-anchor="middle" x="782" y="-518.3" font-family="Times,serif" font-size="14.00">10</text>
</g>
<!-- S1&#45;&gt;10 -->
<g id="edge3" class="edge"><title>S1&#45;&gt;10</title>
<path fill="none" stroke="black" d="M809.65,-576.765C805.288,-568.283 799.853,-557.714 794.959,-548.197"/>
<polygon fill="black" stroke="black" points="797.99,-546.439 790.304,-539.147 791.765,-549.641 797.99,-546.439"/>
</g>
<!-- 2 -->
<g id="node6" class="node"><title>2</title>
<ellipse fill="none" stroke="black" cx="854" cy="-522" rx="27" ry="18"/>
<text text-anchor="middle" x="854" y="-518.3" font-family="Times,serif" font-size="14.00">2</text>
</g>
<!-- S1&#45;&gt;2 -->
<g id="edge4" class="edge"><title>S1&#45;&gt;2</title>
<path fill="none" stroke="black" d="M826.35,-576.765C830.712,-568.283 836.147,-557.714 841.041,-548.197"/>
<polygon fill="black" stroke="black" points="844.235,-549.641 845.696,-539.147 838.01,-546.439 844.235,-549.641"/>
</g>
<!-- 11 -->
<g id="node22" class="node"><title>11</title>
<ellipse fill="none" stroke="black" cx="247" cy="-378" rx="27" ry="18"/>
<text text-anchor="middle" x="247" y="-374.3" font-family="Times,serif" font-size="14.00">11</text>
</g>
<!-- 10&#45;&gt;11 -->
<g id="edge19" class="edge"><title>10&#45;&gt;11</title>
<path fill="none" stroke="black" d="M755.235,-518.792C655.927,-510.508 313.278,-481.091 294,-468 272.73,-453.556 260.384,-426.314 253.73,-405.757"/>
<polygon fill="black" stroke="black" points="257.035,-404.592 250.829,-396.005 250.325,-406.588 257.035,-404.592"/>
</g>
<!-- 14 -->
<g id="node23" class="node"><title>14</title>
<ellipse fill="none" stroke="black" cx="1003" cy="-306" rx="27" ry="18"/>
<text text-anchor="middle" x="1003" y="-302.3" font-family="Times,serif" font-size="14.00">14</text>
</g>
<!-- 10&#45;&gt;14 -->
<g id="edge20" class="edge"><title>10&#45;&gt;14</title>
<path fill="none" stroke="black" d="M803.033,-510.238C807.875,-507.995 813.056,-505.775 818,-504 879.277,-481.997 913.671,-513.745 960,-468 996.101,-432.355 1002.92,-369.998 1003.63,-334.251"/>
<polygon fill="black" stroke="black" points="1007.14,-334.088 1003.69,-324.07 1000.14,-334.052 1007.14,-334.088"/>
</g>
<!-- 10&#45;&gt;T1 -->
<g id="edge21" class="edge"><title>10&#45;&gt;T1</title>
<path fill="none" stroke="black" d="M802.605,-510.283C807.557,-507.985 812.894,-505.73 818,-504 889.91,-479.63 927.527,-517.617 985,-468 1016.61,-440.71 1052.38,-327.559 1039,-288 1026.1,-249.855 1016.02,-240.415 984,-216 916.137,-164.258 888.302,-166.56 806,-144 694.584,-113.459 558.018,-99.1587 493.752,-93.7409"/>
<polygon fill="black" stroke="black" points="493.961,-90.2463 483.708,-92.9174 493.389,-97.2229 493.961,-90.2463"/>
</g>
<!-- 13 -->
<g id="node24" class="node"><title>13</title>
<ellipse fill="none" stroke="black" cx="594" cy="-450" rx="27" ry="18"/>
<text text-anchor="middle" x="594" y="-446.3" font-family="Times,serif" font-size="14.00">13</text>
</g>
<!-- 10&#45;&gt;13 -->
<g id="edge22" class="edge"><title>10&#45;&gt;13</title>
<path fill="none" stroke="black" d="M758.014,-513.505C727.812,-503.87 674.49,-486.201 630,-468 628.177,-467.254 626.313,-466.464 624.441,-465.648"/>
<polygon fill="black" stroke="black" points="625.708,-462.379 615.154,-461.445 622.822,-468.757 625.708,-462.379"/>
</g>
<!-- 12 -->
<g id="node25" class="node"><title>12</title>
<ellipse fill="none" stroke="black" cx="694" cy="-378" rx="27" ry="18"/>
<text text-anchor="middle" x="694" y="-374.3" font-family="Times,serif" font-size="14.00">12</text>
</g>
<!-- 10&#45;&gt;12 -->
<g id="edge23" class="edge"><title>10&#45;&gt;12</title>
<path fill="none" stroke="black" d="M784.619,-503.936C786.637,-484.974 787.189,-454.119 774,-432 767.896,-421.762 743.623,-406.412 723.399,-394.862"/>
<polygon fill="black" stroke="black" points="724.905,-391.694 714.471,-389.855 721.481,-397.799 724.905,-391.694"/>
</g>
<!-- 3 -->
<g id="node18" class="node"><title>3</title>
<ellipse fill="none" stroke="black" cx="512" cy="-378" rx="27" ry="18"/>
<text text-anchor="middle" x="512" y="-374.3" font-family="Times,serif" font-size="14.00">3</text>
</g>
<!-- 2&#45;&gt;3 -->
<g id="edge14" class="edge"><title>2&#45;&gt;3</title>
<path fill="none" stroke="black" d="M833.484,-510.004C828.527,-507.718 823.167,-505.538 818,-504 706.193,-470.71 653.238,-535.371 558,-468 537.107,-453.22 525.035,-426.028 518.546,-405.575"/>
<polygon fill="black" stroke="black" points="521.878,-404.499 515.719,-395.878 515.157,-406.458 521.878,-404.499"/>
</g>
<!-- 16 -->
<g id="node19" class="node"><title>16</title>
<ellipse fill="none" stroke="black" cx="1079" cy="-378" rx="27" ry="18"/>
<text text-anchor="middle" x="1079" y="-374.3" font-family="Times,serif" font-size="14.00">16</text>
</g>
<!-- 2&#45;&gt;16 -->
<g id="edge15" class="edge"><title>2&#45;&gt;16</title>
<path fill="none" stroke="black" d="M881.021,-520.07C920.084,-517.355 992.613,-506.994 1038,-468 1056.68,-451.951 1067.34,-425.593 1073.09,-405.717"/>
<polygon fill="black" stroke="black" points="1076.48,-406.566 1075.65,-396.003 1069.71,-404.775 1076.48,-406.566"/>
</g>
<!-- 17 -->
<g id="node20" class="node"><title>17</title>
<ellipse fill="none" stroke="black" cx="666" cy="-450" rx="27" ry="18"/>
<text text-anchor="middle" x="666" y="-446.3" font-family="Times,serif" font-size="14.00">17</text>
</g>
<!-- 2&#45;&gt;17 -->
<g id="edge16" class="edge"><title>2&#45;&gt;17</title>
<path fill="none" stroke="black" d="M832.895,-510.43C828.057,-508.177 822.895,-505.905 818,-504 767.692,-484.427 752.308,-487.573 702,-468 700.164,-467.286 698.291,-466.52 696.411,-465.723"/>
<polygon fill="black" stroke="black" points="697.663,-462.448 687.105,-461.57 694.81,-468.841 697.663,-462.448"/>
</g>
<!-- 2&#45;&gt;T1 -->
<g id="edge17" class="edge"><title>2&#45;&gt;T1</title>
<path fill="none" stroke="black" d="M880.848,-519.785C950.929,-515.034 1134,-491.825 1134,-379 1134,-379 1134,-379 1134,-233 1134,-101.326 637.253,-91.0414 494.777,-90.7995"/>
<polygon fill="black" stroke="black" points="494.378,-87.2996 484.378,-90.7991 494.378,-94.2996 494.378,-87.2996"/>
</g>
<!-- 18 -->
<g id="node21" class="node"><title>18</title>
<ellipse fill="none" stroke="black" cx="821" cy="-306" rx="27" ry="18"/>
<text text-anchor="middle" x="821" y="-302.3" font-family="Times,serif" font-size="14.00">18</text>
</g>
<!-- 2&#45;&gt;18 -->
<g id="edge18" class="edge"><title>2&#45;&gt;18</title>
<path fill="none" stroke="black" d="M851.355,-503.849C845.633,-466.74 832.064,-378.747 825.172,-334.054"/>
<polygon fill="black" stroke="black" points="828.595,-333.285 823.612,-323.935 821.677,-334.352 828.595,-333.285"/>
</g>
<!-- S35 -->
<g id="node7" class="node"><title>S35</title>
<ellipse fill="none" stroke="black" cx="464" cy="-594" rx="27" ry="18"/>
<text text-anchor="middle" x="464" y="-590.3" font-family="Times,serif" font-size="14.00">S35</text>
</g>
<!-- 36 -->
<g id="node8" class="node"><title>36</title>
<ellipse fill="none" stroke="black" cx="537" cy="-522" rx="27" ry="18"/>
<text text-anchor="middle" x="537" y="-518.3" font-family="Times,serif" font-size="14.00">36</text>
</g>
<!-- S35&#45;&gt;36 -->
<g id="edge5" class="edge"><title>S35&#45;&gt;36</title>
<path fill="none" stroke="black" d="M478.773,-578.834C489.162,-568.872 503.244,-555.369 514.957,-544.137"/>
<polygon fill="black" stroke="black" points="517.454,-546.592 522.249,-537.144 512.609,-541.539 517.454,-546.592"/>
</g>
<!-- 43 -->
<g id="node9" class="node"><title>43</title>
<ellipse fill="none" stroke="black" cx="385" cy="-522" rx="27" ry="18"/>
<text text-anchor="middle" x="385" y="-518.3" font-family="Times,serif" font-size="14.00">43</text>
</g>
<!-- S35&#45;&gt;43 -->
<g id="edge6" class="edge"><title>S35&#45;&gt;43</title>
<path fill="none" stroke="black" d="M448.392,-579.17C436.923,-569.008 421.149,-555.03 408.205,-543.561"/>
<polygon fill="black" stroke="black" points="410.381,-540.813 400.575,-536.801 405.739,-546.053 410.381,-540.813"/>
</g>
<!-- 19 -->
<g id="node31" class="node"><title>19</title>
<ellipse fill="none" stroke="black" cx="584" cy="-378" rx="27" ry="18"/>
<text text-anchor="middle" x="584" y="-374.3" font-family="Times,serif" font-size="14.00">19</text>
</g>
<!-- 36&#45;&gt;19 -->
<g id="edge44" class="edge"><title>36&#45;&gt;19</title>
<path fill="none" stroke="black" d="M539.846,-503.943C543.147,-485.782 549.275,-456.362 558,-432 561.314,-422.746 565.794,-412.987 570.101,-404.401"/>
<polygon fill="black" stroke="black" points="573.327,-405.783 574.82,-395.294 567.112,-402.563 573.327,-405.783"/>
</g>
<!-- 38 -->
<g id="node36" class="node"><title>38</title>
<ellipse fill="none" stroke="black" cx="220" cy="-450" rx="27" ry="18"/>
<text text-anchor="middle" x="220" y="-446.3" font-family="Times,serif" font-size="14.00">38</text>
</g>
<!-- 43&#45;&gt;38 -->
<g id="edge42" class="edge"><title>43&#45;&gt;38</title>
<path fill="none" stroke="black" d="M362.747,-511.559C334.129,-499.418 284.242,-478.254 251.672,-464.437"/>
<polygon fill="black" stroke="black" points="252.736,-461.086 242.163,-460.402 250.002,-467.53 252.736,-461.086"/>
</g>
<!-- 40 -->
<g id="node37" class="node"><title>40</title>
<ellipse fill="none" stroke="black" cx="402" cy="-450" rx="27" ry="18"/>
<text text-anchor="middle" x="402" y="-446.3" font-family="Times,serif" font-size="14.00">40</text>
</g>
<!-- 43&#45;&gt;40 -->
<g id="edge43" class="edge"><title>43&#45;&gt;40</title>
<path fill="none" stroke="black" d="M389.115,-504.055C391.008,-496.261 393.3,-486.822 395.424,-478.079"/>
<polygon fill="black" stroke="black" points="398.846,-478.819 397.805,-468.275 392.043,-477.167 398.846,-478.819"/>
</g>
<!-- S30 -->
<g id="node10" class="node"><title>S30</title>
<ellipse fill="none" stroke="black" cx="738" cy="-450" rx="27" ry="18"/>
<text text-anchor="middle" x="738" y="-446.3" font-family="Times,serif" font-size="14.00">S30</text>
</g>
<!-- 31 -->
<g id="node11" class="node"><title>31</title>
<ellipse fill="none" stroke="black" cx="457" cy="-306" rx="27" ry="18"/>
<text text-anchor="middle" x="457" y="-302.3" font-family="Times,serif" font-size="14.00">31</text>
</g>
<!-- S30&#45;&gt;31 -->
<g id="edge7" class="edge"><title>S30&#45;&gt;31</title>
<path fill="none" stroke="black" d="M718.603,-437.467C701.986,-427.283 677.691,-411.657 658,-396 639.79,-381.521 640.22,-371.505 620,-360 569.008,-330.987 547.934,-344.596 493,-324 491.156,-323.308 489.276,-322.56 487.391,-321.776"/>
<polygon fill="black" stroke="black" points="488.632,-318.498 478.07,-317.66 485.804,-324.902 488.632,-318.498"/>
</g>
<!-- 33 -->
<g id="node12" class="node"><title>33</title>
<ellipse fill="none" stroke="black" cx="766" cy="-378" rx="27" ry="18"/>
<text text-anchor="middle" x="766" y="-374.3" font-family="Times,serif" font-size="14.00">33</text>
</g>
<!-- S30&#45;&gt;33 -->
<g id="edge8" class="edge"><title>S30&#45;&gt;33</title>
<path fill="none" stroke="black" d="M744.636,-432.411C747.913,-424.216 751.944,-414.14 755.618,-404.955"/>
<polygon fill="black" stroke="black" points="758.948,-406.055 759.412,-395.47 752.448,-403.455 758.948,-406.055"/>
</g>
<!-- 31&#45;&gt;T1 -->
<g id="edge24" class="edge"><title>31&#45;&gt;T1</title>
<path fill="none" stroke="black" d="M457,-287.849C457,-250.832 457,-163.181 457,-118.386"/>
<polygon fill="black" stroke="black" points="460.5,-118.232 457,-108.232 453.5,-118.232 460.5,-118.232"/>
</g>
<!-- 32 -->
<g id="node26" class="node"><title>32</title>
<ellipse fill="none" stroke="black" cx="356" cy="-234" rx="27" ry="18"/>
<text text-anchor="middle" x="356" y="-230.3" font-family="Times,serif" font-size="14.00">32</text>
</g>
<!-- 31&#45;&gt;32 -->
<g id="edge25" class="edge"><title>31&#45;&gt;32</title>
<path fill="none" stroke="black" d="M438.943,-292.485C423.242,-281.603 400.285,-265.692 382.501,-253.367"/>
<polygon fill="black" stroke="black" points="384.454,-250.462 374.241,-247.642 380.466,-256.215 384.454,-250.462"/>
</g>
<!-- T30 -->
<g id="node27" class="node"><title>T30</title>
<ellipse fill="none" stroke="black" cx="711" cy="-162" rx="27" ry="18"/>
<text text-anchor="middle" x="711" y="-158.3" font-family="Times,serif" font-size="14.00">T30</text>
</g>
<!-- 33&#45;&gt;T30 -->
<g id="edge26" class="edge"><title>33&#45;&gt;T30</title>
<path fill="none" stroke="black" d="M762.711,-359.856C759.175,-341.874 753.217,-312.829 747,-288 738.418,-253.727 726.88,-214.661 719.205,-189.46"/>
<polygon fill="black" stroke="black" points="722.546,-188.417 716.27,-179.881 715.853,-190.468 722.546,-188.417"/>
</g>
<!-- 34 -->
<g id="node28" class="node"><title>34</title>
<ellipse fill="none" stroke="black" cx="711" cy="-306" rx="27" ry="18"/>
<text text-anchor="middle" x="711" y="-302.3" font-family="Times,serif" font-size="14.00">34</text>
</g>
<!-- 33&#45;&gt;34 -->
<g id="edge27" class="edge"><title>33&#45;&gt;34</title>
<path fill="none" stroke="black" d="M754.066,-361.811C746.786,-352.546 737.337,-340.52 729.146,-330.094"/>
<polygon fill="black" stroke="black" points="731.841,-327.86 722.911,-322.159 726.337,-332.185 731.841,-327.86"/>
</g>
<!-- 9 -->
<g id="node13" class="node"><title>9</title>
<ellipse fill="none" stroke="black" cx="330" cy="-450" rx="27" ry="18"/>
<text text-anchor="middle" x="330" y="-446.3" font-family="Times,serif" font-size="14.00">9</text>
</g>
<!-- 42 -->
<g id="node14" class="node"><title>42</title>
<ellipse fill="none" stroke="black" cx="319" cy="-378" rx="27" ry="18"/>
<text text-anchor="middle" x="319" y="-374.3" font-family="Times,serif" font-size="14.00">42</text>
</g>
<!-- 9&#45;&gt;42 -->
<g id="edge9" class="edge"><title>9&#45;&gt;42</title>
<path fill="none" stroke="black" d="M327.337,-432.055C326.126,-424.346 324.661,-415.027 323.3,-406.364"/>
<polygon fill="black" stroke="black" points="326.725,-405.611 321.715,-396.275 319.81,-406.697 326.725,-405.611"/>
</g>
<!-- 9&#45;&gt;T1 -->
<g id="edge10" class="edge"><title>9&#45;&gt;T1</title>
<path fill="none" stroke="black" d="M339.848,-432.965C345.509,-422.786 352.064,-409.104 355,-396 358.498,-380.387 356.32,-375.945 355,-360 352.351,-327.998 335.413,-317.095 349,-288 359.546,-265.417 377.341,-272.158 392,-252 422.554,-209.983 441.429,-151.569 450.502,-117.879"/>
<polygon fill="black" stroke="black" points="453.977,-118.421 453.106,-107.862 447.202,-116.66 453.977,-118.421"/>
</g>
<!-- 4 -->
<g id="node29" class="node"><title>4</title>
<ellipse fill="none" stroke="black" cx="235" cy="-306" rx="27" ry="18"/>
<text text-anchor="middle" x="235" y="-302.3" font-family="Times,serif" font-size="14.00">4</text>
</g>
<!-- 42&#45;&gt;4 -->
<g id="edge28" class="edge"><title>42&#45;&gt;4</title>
<path fill="none" stroke="black" d="M302.804,-363.503C290.37,-353.142 273.009,-338.674 258.968,-326.973"/>
<polygon fill="black" stroke="black" points="261.069,-324.168 251.146,-320.455 256.588,-329.546 261.069,-324.168"/>
</g>
<!-- 26&#45;&gt;4 -->
<g id="edge29" class="edge"><title>26&#45;&gt;4</title>
<path fill="none" stroke="black" d="M154.975,-364.161C170.032,-353.405 191.73,-337.907 208.735,-325.761"/>
<polygon fill="black" stroke="black" points="211.036,-328.418 217.139,-319.758 206.968,-322.722 211.036,-328.418"/>
</g>
<!-- 3&#45;&gt;4 -->
<g id="edge30" class="edge"><title>3&#45;&gt;4</title>
<path fill="none" stroke="black" d="M486.93,-370.665C437.282,-358.118 326.371,-330.09 269.731,-315.777"/>
<polygon fill="black" stroke="black" points="270.367,-312.328 259.814,-313.271 268.652,-319.114 270.367,-312.328"/>
</g>
<!-- 15 -->
<g id="node30" class="node"><title>15</title>
<ellipse fill="none" stroke="black" cx="948" cy="-234" rx="27" ry="18"/>
<text text-anchor="middle" x="948" y="-230.3" font-family="Times,serif" font-size="14.00">15</text>
</g>
<!-- 16&#45;&gt;15 -->
<g id="edge31" class="edge"><title>16&#45;&gt;15</title>
<path fill="none" stroke="black" d="M1074.82,-360.179C1069.32,-340.871 1058.04,-309.152 1039,-288 1022.99,-270.214 999.564,-256.761 980.489,-247.859"/>
<polygon fill="black" stroke="black" points="981.809,-244.616 971.251,-243.738 978.958,-251.009 981.809,-244.616"/>
</g>
<!-- 17&#45;&gt;19 -->
<g id="edge32" class="edge"><title>17&#45;&gt;19</title>
<path fill="none" stroke="black" d="M649.799,-435.17C637.817,-424.942 621.309,-410.849 607.825,-399.338"/>
<polygon fill="black" stroke="black" points="609.766,-396.394 599.888,-392.563 605.221,-401.717 609.766,-396.394"/>
</g>
<!-- 29 -->
<g id="node32" class="node"><title>29</title>
<ellipse fill="none" stroke="black" cx="684" cy="-234" rx="27" ry="18"/>
<text text-anchor="middle" x="684" y="-230.3" font-family="Times,serif" font-size="14.00">29</text>
</g>
<!-- 18&#45;&gt;29 -->
<g id="edge33" class="edge"><title>18&#45;&gt;29</title>
<path fill="none" stroke="black" d="M800.193,-294.369C777.259,-282.651 740.167,-263.698 714.073,-250.366"/>
<polygon fill="black" stroke="black" points="715.501,-247.165 705.003,-245.732 712.316,-253.398 715.501,-247.165"/>
</g>
<!-- 11&#45;&gt;4 -->
<g id="edge34" class="edge"><title>11&#45;&gt;4</title>
<path fill="none" stroke="black" d="M244.095,-360.055C242.774,-352.346 241.176,-343.027 239.691,-334.364"/>
<polygon fill="black" stroke="black" points="243.101,-333.54 237.961,-324.275 236.202,-334.723 243.101,-333.54"/>
</g>
<!-- 14&#45;&gt;15 -->
<g id="edge35" class="edge"><title>14&#45;&gt;15</title>
<path fill="none" stroke="black" d="M991.066,-289.811C983.786,-280.546 974.337,-268.52 966.146,-258.094"/>
<polygon fill="black" stroke="black" points="968.841,-255.86 959.911,-250.159 963.337,-260.185 968.841,-255.86"/>
</g>
<!-- 13&#45;&gt;19 -->
<g id="edge40" class="edge"><title>13&#45;&gt;19</title>
<path fill="none" stroke="black" d="M591.579,-432.055C590.478,-424.346 589.147,-415.027 587.909,-406.364"/>
<polygon fill="black" stroke="black" points="591.347,-405.68 586.468,-396.275 584.417,-406.67 591.347,-405.68"/>
</g>
<!-- 12&#45;&gt;29 -->
<g id="edge41" class="edge"><title>12&#45;&gt;29</title>
<path fill="none" stroke="black" d="M686.501,-360.689C682.192,-350.406 677.21,-336.712 675,-324 671.41,-303.346 674.108,-279.729 677.461,-262.016"/>
<polygon fill="black" stroke="black" points="680.97,-262.332 679.583,-251.829 674.117,-260.905 680.97,-262.332"/>
</g>
<!-- 23 -->
<g id="node38" class="node"><title>23</title>
<ellipse fill="none" stroke="black" cx="327" cy="-162" rx="27" ry="18"/>
<text text-anchor="middle" x="327" y="-158.3" font-family="Times,serif" font-size="14.00">23</text>
</g>
<!-- 32&#45;&gt;23 -->
<g id="edge45" class="edge"><title>32&#45;&gt;23</title>
<path fill="none" stroke="black" d="M349.127,-216.411C345.733,-208.216 341.558,-198.14 337.753,-188.955"/>
<polygon fill="black" stroke="black" points="340.884,-187.369 333.823,-179.47 334.417,-190.048 340.884,-187.369"/>
</g>
<!-- 34&#45;&gt;29 -->
<g id="edge46" class="edge"><title>34&#45;&gt;29</title>
<path fill="none" stroke="black" d="M704.601,-288.411C701.486,-280.335 697.666,-270.431 694.165,-261.355"/>
<polygon fill="black" stroke="black" points="697.405,-260.027 690.54,-251.956 690.874,-262.546 697.405,-260.027"/>
</g>
<!-- 5 -->
<g id="node39" class="node"><title>5</title>
<ellipse fill="none" stroke="black" cx="212" cy="-234" rx="27" ry="18"/>
<text text-anchor="middle" x="212" y="-230.3" font-family="Times,serif" font-size="14.00">5</text>
</g>
<!-- 4&#45;&gt;5 -->
<g id="edge51" class="edge"><title>4&#45;&gt;5</title>
<path fill="none" stroke="black" d="M229.432,-288.055C226.805,-280.059 223.609,-270.331 220.674,-261.4"/>
<polygon fill="black" stroke="black" points="223.963,-260.197 217.516,-251.789 217.313,-262.382 223.963,-260.197"/>
</g>
<!-- 15&#45;&gt;T1 -->
<g id="edge62" class="edge"><title>15&#45;&gt;T1</title>
<path fill="none" stroke="black" d="M927.502,-221.968C891.828,-203.219 815.569,-165.121 747,-144 658.083,-116.612 549.217,-101.395 493.568,-94.8749"/>
<polygon fill="black" stroke="black" points="493.825,-91.3815 483.492,-93.7216 493.029,-98.3361 493.825,-91.3815"/>
</g>
<!-- 21 -->
<g id="node40" class="node"><title>21</title>
<ellipse fill="none" stroke="black" cx="385" cy="-306" rx="27" ry="18"/>
<text text-anchor="middle" x="385" y="-302.3" font-family="Times,serif" font-size="14.00">21</text>
</g>
<!-- 19&#45;&gt;21 -->
<g id="edge52" class="edge"><title>19&#45;&gt;21</title>
<path fill="none" stroke="black" d="M562.93,-366.34C558.09,-364.092 552.919,-361.844 548,-360 493.066,-339.404 475.934,-344.596 421,-324 419.156,-323.308 417.276,-322.56 415.391,-321.776"/>
<polygon fill="black" stroke="black" points="416.632,-318.498 406.07,-317.66 413.804,-324.902 416.632,-318.498"/>
</g>
<!-- 20 -->
<g id="node41" class="node"><title>20</title>
<ellipse fill="none" stroke="black" cx="893" cy="-306" rx="27" ry="18"/>
<text text-anchor="middle" x="893" y="-302.3" font-family="Times,serif" font-size="14.00">20</text>
</g>
<!-- 19&#45;&gt;20 -->
<g id="edge53" class="edge"><title>19&#45;&gt;20</title>
<path fill="none" stroke="black" d="M608.941,-370.964C623.261,-367.575 641.601,-363.365 658,-360 746.045,-341.933 771.406,-351.425 857,-324 858.925,-323.383 860.881,-322.685 862.834,-321.933"/>
<polygon fill="black" stroke="black" points="864.609,-324.981 872.436,-317.841 861.864,-318.542 864.609,-324.981"/>
</g>
<!-- 28 -->
<g id="node42" class="node"><title>28</title>
<ellipse fill="none" stroke="black" cx="601" cy="-306" rx="27" ry="18"/>
<text text-anchor="middle" x="601" y="-302.3" font-family="Times,serif" font-size="14.00">28</text>
</g>
<!-- 19&#45;&gt;28 -->
<g id="edge54" class="edge"><title>19&#45;&gt;28</title>
<path fill="none" stroke="black" d="M588.115,-360.055C590.008,-352.261 592.3,-342.822 594.424,-334.079"/>
<polygon fill="black" stroke="black" points="597.846,-334.819 596.805,-324.275 591.043,-333.167 597.846,-334.819"/>
</g>
<!-- 29&#45;&gt;T30 -->
<g id="edge65" class="edge"><title>29&#45;&gt;T30</title>
<path fill="none" stroke="black" d="M690.399,-216.411C693.514,-208.335 697.334,-198.431 700.835,-189.355"/>
<polygon fill="black" stroke="black" points="704.126,-190.546 704.46,-179.956 697.595,-188.027 704.126,-190.546"/>
</g>
<!-- 37 -->
<g id="node33" class="node"><title>37</title>
<ellipse fill="none" stroke="black" cx="457" cy="-522" rx="27" ry="18"/>
<text text-anchor="middle" x="457" y="-518.3" font-family="Times,serif" font-size="14.00">37</text>
</g>
<!-- 39 -->
<g id="node34" class="node"><title>39</title>
<ellipse fill="none" stroke="black" cx="924" cy="-450" rx="27" ry="18"/>
<text text-anchor="middle" x="924" y="-446.3" font-family="Times,serif" font-size="14.00">39</text>
</g>
<!-- 37&#45;&gt;39 -->
<g id="edge36" class="edge"><title>37&#45;&gt;39</title>
<path fill="none" stroke="black" d="M479.041,-511.274C485.957,-508.553 493.694,-505.84 501,-504 519.697,-499.292 788.29,-467.124 887.514,-455.326"/>
<polygon fill="black" stroke="black" points="888.148,-458.776 897.665,-454.12 887.322,-451.825 888.148,-458.776"/>
</g>
<!-- 41 -->
<g id="node35" class="node"><title>41</title>
<ellipse fill="none" stroke="black" cx="529" cy="-306" rx="27" ry="18"/>
<text text-anchor="middle" x="529" y="-302.3" font-family="Times,serif" font-size="14.00">41</text>
</g>
<!-- 37&#45;&gt;41 -->
<g id="edge37" class="edge"><title>37&#45;&gt;41</title>
<path fill="none" stroke="black" d="M455.486,-504.009C453.505,-473.497 452.671,-408.119 476,-360 482.271,-347.065 492.999,-335.424 503.17,-326.37"/>
<polygon fill="black" stroke="black" points="505.713,-328.804 511.111,-319.687 501.206,-323.448 505.713,-328.804"/>
</g>
<!-- 37&#45;&gt;38 -->
<g id="edge38" class="edge"><title>37&#45;&gt;38</title>
<path fill="none" stroke="black" d="M436.384,-510.316C431.432,-508.016 426.098,-505.753 421,-504 352.074,-480.295 330.477,-490.04 261,-468 257.842,-466.998 254.588,-465.853 251.359,-464.641"/>
<polygon fill="black" stroke="black" points="252.457,-461.312 241.871,-460.883 249.879,-467.82 252.457,-461.312"/>
</g>
<!-- 37&#45;&gt;40 -->
<g id="edge39" class="edge"><title>37&#45;&gt;40</title>
<path fill="none" stroke="black" d="M445.066,-505.811C437.786,-496.546 428.337,-484.52 420.146,-474.094"/>
<polygon fill="black" stroke="black" points="422.841,-471.86 413.911,-466.159 417.337,-476.185 422.841,-471.86"/>
</g>
<!-- 39&#45;&gt;15 -->
<g id="edge47" class="edge"><title>39&#45;&gt;15</title>
<path fill="none" stroke="black" d="M925.923,-431.849C930.075,-394.832 939.905,-307.181 944.929,-262.386"/>
<polygon fill="black" stroke="black" points="948.431,-262.56 946.067,-252.232 941.475,-261.78 948.431,-262.56"/>
</g>
<!-- 41&#45;&gt;29 -->
<g id="edge48" class="edge"><title>41&#45;&gt;29</title>
<path fill="none" stroke="black" d="M550.284,-294.854C555.113,-292.578 560.225,-290.19 565,-288 594.63,-274.408 628.62,-259.319 652.666,-248.729"/>
<polygon fill="black" stroke="black" points="654.257,-251.853 662.002,-244.623 651.439,-245.445 654.257,-251.853"/>
</g>
<!-- 38&#45;&gt;4 -->
<g id="edge49" class="edge"><title>38&#45;&gt;4</title>
<path fill="none" stroke="black" d="M215.185,-432.094C210.768,-414.06 205.659,-384.744 211,-360 213.044,-350.531 216.925,-340.718 220.98,-332.148"/>
<polygon fill="black" stroke="black" points="224.172,-333.591 225.543,-323.085 217.919,-330.443 224.172,-333.591"/>
</g>
<!-- 40&#45;&gt;19 -->
<g id="edge50" class="edge"><title>40&#45;&gt;19</title>
<path fill="none" stroke="black" d="M425.776,-441.129C454.888,-431.319 505.559,-413.679 548,-396 549.818,-395.243 551.678,-394.443 553.547,-393.62"/>
<polygon fill="black" stroke="black" points="555.174,-396.726 562.827,-389.399 552.275,-390.354 555.174,-396.726"/>
</g>
<!-- 23&#45;&gt;T24 -->
<g id="edge67" class="edge"><title>23&#45;&gt;T24</title>
<path fill="none" stroke="black" d="M306.372,-150.349C301.421,-148.048 296.09,-145.776 291,-144 256.058,-131.806 154.928,-109.829 100.567,-98.3828"/>
<polygon fill="black" stroke="black" points="101.175,-94.9342 90.669,-96.3064 99.7373,-101.785 101.175,-94.9342"/>
</g>
<!-- 23&#45;&gt;T1 -->
<g id="edge68" class="edge"><title>23&#45;&gt;T1</title>
<path fill="none" stroke="black" d="M347.312,-150.062C368.842,-138.47 403.048,-120.051 427.538,-106.864"/>
<polygon fill="black" stroke="black" points="429.256,-109.914 436.401,-102.092 425.937,-103.751 429.256,-109.914"/>
</g>
<!-- 6 -->
<g id="node43" class="node"><title>6</title>
<ellipse fill="none" stroke="black" cx="183" cy="-162" rx="27" ry="18"/>
<text text-anchor="middle" x="183" y="-158.3" font-family="Times,serif" font-size="14.00">6</text>
</g>
<!-- 5&#45;&gt;6 -->
<g id="edge55" class="edge"><title>5&#45;&gt;6</title>
<path fill="none" stroke="black" d="M205.127,-216.411C201.733,-208.216 197.558,-198.14 193.753,-188.955"/>
<polygon fill="black" stroke="black" points="196.884,-187.369 189.823,-179.47 190.417,-190.048 196.884,-187.369"/>
</g>
<!-- T35 -->
<g id="node44" class="node"><title>T35</title>
<ellipse fill="none" stroke="black" cx="255" cy="-162" rx="27" ry="18"/>
<text text-anchor="middle" x="255" y="-158.3" font-family="Times,serif" font-size="14.00">T35</text>
</g>
<!-- 5&#45;&gt;T35 -->
<g id="edge56" class="edge"><title>5&#45;&gt;T35</title>
<path fill="none" stroke="black" d="M221.757,-217.116C227.145,-208.345 233.952,-197.264 240.001,-187.416"/>
<polygon fill="black" stroke="black" points="243.029,-189.174 245.281,-178.821 237.065,-185.51 243.029,-189.174"/>
</g>
<!-- 5&#45;&gt;23 -->
<g id="edge57" class="edge"><title>5&#45;&gt;23</title>
<path fill="none" stroke="black" d="M231.248,-221.284C249.74,-210.028 277.892,-192.892 298.891,-180.11"/>
<polygon fill="black" stroke="black" points="300.967,-182.944 307.689,-174.755 297.327,-176.964 300.967,-182.944"/>
</g>
<!-- 22 -->
<g id="node45" class="node"><title>22</title>
<ellipse fill="none" stroke="black" cx="284" cy="-234" rx="27" ry="18"/>
<text text-anchor="middle" x="284" y="-230.3" font-family="Times,serif" font-size="14.00">22</text>
</g>
<!-- 21&#45;&gt;22 -->
<g id="edge58" class="edge"><title>21&#45;&gt;22</title>
<path fill="none" stroke="black" d="M366.943,-292.485C351.242,-281.603 328.285,-265.692 310.501,-253.367"/>
<polygon fill="black" stroke="black" points="312.454,-250.462 302.241,-247.642 308.466,-256.215 312.454,-250.462"/>
</g>
<!-- 20&#45;&gt;15 -->
<g id="edge59" class="edge"><title>20&#45;&gt;15</title>
<path fill="none" stroke="black" d="M904.934,-289.811C912.214,-280.546 921.663,-268.52 929.854,-258.094"/>
<polygon fill="black" stroke="black" points="932.663,-260.185 936.089,-250.159 927.159,-255.86 932.663,-260.185"/>
</g>
<!-- 28&#45;&gt;29 -->
<g id="edge60" class="edge"><title>28&#45;&gt;29</title>
<path fill="none" stroke="black" d="M617.398,-291.17C629.641,-280.845 646.552,-266.582 660.27,-255.013"/>
<polygon fill="black" stroke="black" points="662.53,-257.685 667.918,-248.563 658.018,-252.334 662.53,-257.685"/>
</g>
<!-- 7 -->
<g id="node46" class="node"><title>7</title>
<ellipse fill="none" stroke="black" cx="183" cy="-90" rx="27" ry="18"/>
<text text-anchor="middle" x="183" y="-86.3" font-family="Times,serif" font-size="14.00">7</text>
</g>
<!-- 6&#45;&gt;7 -->
<g id="edge61" class="edge"><title>6&#45;&gt;7</title>
<path fill="none" stroke="black" d="M183,-143.697C183,-135.983 183,-126.712 183,-118.112"/>
<polygon fill="black" stroke="black" points="186.5,-118.104 183,-108.104 179.5,-118.104 186.5,-118.104"/>
</g>
<!-- 22&#45;&gt;23 -->
<g id="edge63" class="edge"><title>22&#45;&gt;23</title>
<path fill="none" stroke="black" d="M293.757,-217.116C299.145,-208.345 305.952,-197.264 312.001,-187.416"/>
<polygon fill="black" stroke="black" points="315.029,-189.174 317.281,-178.821 309.065,-185.51 315.029,-189.174"/>
</g>
<!-- 22&#45;&gt;T35 -->
<g id="edge64" class="edge"><title>22&#45;&gt;T35</title>
<path fill="none" stroke="black" d="M277.127,-216.411C273.733,-208.216 269.558,-198.14 265.753,-188.955"/>
<polygon fill="black" stroke="black" points="268.884,-187.369 261.823,-179.47 262.417,-190.048 268.884,-187.369"/>
</g>
<!-- T8 -->
<g id="node47" class="node"><title>T8</title>
<ellipse fill="none" stroke="black" cx="183" cy="-18" rx="27" ry="18"/>
<text text-anchor="middle" x="183" y="-14.3" font-family="Times,serif" font-size="14.00">T8</text>
</g>
<!-- 7&#45;&gt;T8 -->
<g id="edge66" class="edge"><title>7&#45;&gt;T8</title>
<path fill="none" stroke="black" d="M183,-71.6966C183,-63.9827 183,-54.7125 183,-46.1124"/>
<polygon fill="black" stroke="black" points="186.5,-46.1043 183,-36.1043 179.5,-46.1044 186.5,-46.1043"/>
</g>
</g>
</svg>
