<?xml version="1.0" encoding="UTF-8" standalone="no"?>
<!DOCTYPE svg PUBLIC "-//W3C//DTD SVG 1.1//EN"
 "http://www.w3.org/Graphics/SVG/1.1/DTD/svg11.dtd">
<!-- Generated by graphviz version 2.26.3 (20100126.1600)
 -->
<!-- Title: abstract Pages: 1 -->
<svg width="432pt" height="219pt"
 viewBox="0.00 0.00 432.00 219.09" xmlns="http://www.w3.org/2000/svg" xmlns:xlink="http://www.w3.org/1999/xlink">
<g id="graph1" class="graph" transform="scale(0.343402 0.343402) rotate(0) translate(4 634)">
<title>abstract</title>
<polygon fill="white" stroke="white" points="-4,5 -4,-634 1255,-634 1255,5 -4,5"/>
<!-- S24 -->
<g id="node1" class="node"><title>S24</title>
<ellipse fill="none" stroke="black" cx="1195" cy="-537" rx="27" ry="19.0919"/>
<text text-anchor="middle" x="1195" y="-533.9" font-family="Times Roman,serif" font-size="14.00">S24</text>
</g>
<!-- 27 -->
<g id="node3" class="node"><title>27</title>
<ellipse fill="none" stroke="black" cx="1223" cy="-389" rx="27" ry="19.0919"/>
<text text-anchor="middle" x="1223" y="-385.9" font-family="Times Roman,serif" font-size="14.00">27</text>
</g>
<!-- S24&#45;&gt;27 -->
<g id="edge2" class="edge"><title>S24&#45;&gt;27</title>
<path fill="none" stroke="black" d="M1198.6,-517.955C1203.39,-492.645 1211.9,-447.686 1217.49,-418.109"/>
<polygon fill="black" stroke="black" points="1220.99,-418.449 1219.41,-407.972 1214.11,-417.147 1220.99,-418.449"/>
</g>
<!-- 25 -->
<g id="node5" class="node"><title>25</title>
<ellipse fill="none" stroke="black" cx="1168" cy="-463" rx="27" ry="19.0919"/>
<text text-anchor="middle" x="1168" y="-459.9" font-family="Times Roman,serif" font-size="14.00">25</text>
</g>
<!-- S24&#45;&gt;25 -->
<g id="edge4" class="edge"><title>S24&#45;&gt;25</title>
<path fill="none" stroke="black" d="M1188.19,-518.327C1185.16,-510.026 1181.53,-500.078 1178.19,-490.921"/>
<polygon fill="black" stroke="black" points="1181.43,-489.606 1174.72,-481.411 1174.86,-492.005 1181.43,-489.606"/>
</g>
<!-- T24 -->
<g id="node30" class="node"><title>T24</title>
<ellipse fill="none" stroke="black" cx="1004" cy="-93" rx="27" ry="19.0919"/>
<text text-anchor="middle" x="1004" y="-89.9" font-family="Times Roman,serif" font-size="14.00">T24</text>
</g>
<!-- 27&#45;&gt;T24 -->
<g id="edge26" class="edge"><title>27&#45;&gt;T24</title>
<path fill="none" stroke="black" d="M1222.48,-369.969C1220.25,-325.277 1208.58,-212.534 1148,-148 1132.81,-131.815 1076.83,-113.509 1039.31,-102.628"/>
<polygon fill="black" stroke="black" points="1039.84,-99.1407 1029.26,-99.7641 1037.92,-105.872 1039.84,-99.1407"/>
</g>
<!-- T1 -->
<g id="node25" class="node"><title>T1</title>
<ellipse fill="none" stroke="black" cx="611" cy="-93" rx="27" ry="19.0919"/>
<text text-anchor="middle" x="611" y="-89.9" font-family="Times Roman,serif" font-size="14.00">T1</text>
</g>
<!-- 25&#45;&gt;T1 -->
<g id="edge22" class="edge"><title>25&#45;&gt;T1</title>
<path fill="none" stroke="black" d="M1167.82,-443.812C1166.81,-423.982 1162.9,-392.795 1149,-370 1121.69,-325.195 1103.57,-320.18 1057,-296 1005.69,-269.359 983.902,-285.467 932,-260 856.344,-222.878 853.976,-186.477 779,-148 735.635,-125.745 681.414,-109.935 646.499,-101.139"/>
<polygon fill="black" stroke="black" points="647.3,-97.7312 636.753,-98.7392 645.626,-104.528 647.3,-97.7312"/>
</g>
<!-- 26 -->
<g id="node28" class="node"><title>26</title>
<ellipse fill="none" stroke="black" cx="1113" cy="-389" rx="27" ry="19.0919"/>
<text text-anchor="middle" x="1113" y="-385.9" font-family="Times Roman,serif" font-size="14.00">26</text>
</g>
<!-- 25&#45;&gt;26 -->
<g id="edge24" class="edge"><title>25&#45;&gt;26</title>
<path fill="none" stroke="black" d="M1155.24,-445.837C1148.3,-436.497 1139.58,-424.763 1131.87,-414.386"/>
<polygon fill="black" stroke="black" points="1134.46,-412.008 1125.69,-406.07 1128.84,-416.184 1134.46,-412.008"/>
</g>
<!-- S1 -->
<g id="node6" class="node"><title>S1</title>
<ellipse fill="none" stroke="black" cx="464" cy="-611" rx="27" ry="19.0919"/>
<text text-anchor="middle" x="464" y="-607.9" font-family="Times Roman,serif" font-size="14.00">S1</text>
</g>
<!-- 10 -->
<g id="node8" class="node"><title>10</title>
<ellipse fill="none" stroke="black" cx="409" cy="-537" rx="27" ry="19.0919"/>
<text text-anchor="middle" x="409" y="-533.9" font-family="Times Roman,serif" font-size="14.00">10</text>
</g>
<!-- S1&#45;&gt;10 -->
<g id="edge6" class="edge"><title>S1&#45;&gt;10</title>
<path fill="none" stroke="black" d="M451.244,-593.837C444.302,-584.497 435.581,-572.763 427.868,-562.386"/>
<polygon fill="black" stroke="black" points="430.462,-560.008 421.687,-554.07 424.843,-564.184 430.462,-560.008"/>
</g>
<!-- 2 -->
<g id="node10" class="node"><title>2</title>
<ellipse fill="none" stroke="black" cx="519" cy="-537" rx="27" ry="19.0919"/>
<text text-anchor="middle" x="519" y="-533.9" font-family="Times Roman,serif" font-size="14.00">2</text>
</g>
<!-- S1&#45;&gt;2 -->
<g id="edge8" class="edge"><title>S1&#45;&gt;2</title>
<path fill="none" stroke="black" d="M476.756,-593.837C483.698,-584.497 492.419,-572.763 500.132,-562.386"/>
<polygon fill="black" stroke="black" points="503.157,-564.184 506.313,-554.07 497.538,-560.008 503.157,-564.184"/>
</g>
<!-- 10&#45;&gt;T1 -->
<g id="edge42" class="edge"><title>10&#45;&gt;T1</title>
<path fill="none" stroke="black" d="M382.48,-533.309C291.847,-519.963 0,-470.648 0,-389 0,-389 0,-389 0,-241 0,-182.546 40.2535,-173.193 93,-148 178.306,-107.255 469.765,-96.3783 573.759,-93.7595"/>
<polygon fill="black" stroke="black" points="573.881,-97.2577 583.794,-93.5181 573.712,-90.2597 573.881,-97.2577"/>
</g>
<!-- 11 -->
<g id="node41" class="node"><title>11</title>
<ellipse fill="none" stroke="black" cx="931" cy="-389" rx="27" ry="19.0919"/>
<text text-anchor="middle" x="931" y="-385.9" font-family="Times Roman,serif" font-size="14.00">11</text>
</g>
<!-- 10&#45;&gt;11 -->
<g id="edge38" class="edge"><title>10&#45;&gt;11</title>
<path fill="none" stroke="black" d="M434.117,-529.422C448.335,-525.419 466.519,-520.773 483,-518 531.154,-509.899 886.041,-516.092 921,-482 937.533,-465.877 938.784,-438.968 936.629,-418.232"/>
<polygon fill="black" stroke="black" points="940.06,-417.483 935.254,-408.04 933.122,-418.418 940.06,-417.483"/>
</g>
<!-- 14 -->
<g id="node43" class="node"><title>14</title>
<ellipse fill="none" stroke="black" cx="491" cy="-315" rx="27" ry="19.0919"/>
<text text-anchor="middle" x="491" y="-311.9" font-family="Times Roman,serif" font-size="14.00">14</text>
</g>
<!-- 10&#45;&gt;14 -->
<g id="edge40" class="edge"><title>10&#45;&gt;14</title>
<path fill="none" stroke="black" d="M407.272,-517.958C405.226,-485.281 405.084,-417.467 433,-370 440.869,-356.621 452.933,-344.433 464.026,-334.95"/>
<polygon fill="black" stroke="black" points="466.332,-337.586 471.857,-328.545 461.9,-332.167 466.332,-337.586"/>
</g>
<!-- 13 -->
<g id="node46" class="node"><title>13</title>
<ellipse fill="none" stroke="black" cx="483" cy="-463" rx="27" ry="19.0919"/>
<text text-anchor="middle" x="483" y="-459.9" font-family="Times Roman,serif" font-size="14.00">13</text>
</g>
<!-- 10&#45;&gt;13 -->
<g id="edge44" class="edge"><title>10&#45;&gt;13</title>
<path fill="none" stroke="black" d="M424.693,-521.307C434.995,-511.005 448.639,-497.361 460.139,-485.861"/>
<polygon fill="black" stroke="black" points="462.733,-488.217 467.329,-478.671 457.783,-483.267 462.733,-488.217"/>
</g>
<!-- 12 -->
<g id="node48" class="node"><title>12</title>
<ellipse fill="none" stroke="black" cx="167" cy="-389" rx="27" ry="19.0919"/>
<text text-anchor="middle" x="167" y="-385.9" font-family="Times Roman,serif" font-size="14.00">12</text>
</g>
<!-- 10&#45;&gt;12 -->
<g id="edge46" class="edge"><title>10&#45;&gt;12</title>
<path fill="none" stroke="black" d="M382.107,-533.596C330.195,-526.497 218.917,-508.533 192,-482 175.169,-465.409 169.303,-438.784 167.424,-418.265"/>
<polygon fill="black" stroke="black" points="170.91,-417.929 166.768,-408.177 163.925,-418.383 170.91,-417.929"/>
</g>
<!-- 2&#45;&gt;T1 -->
<g id="edge34" class="edge"><title>2&#45;&gt;T1</title>
<path fill="none" stroke="black" d="M496.182,-526.665C479.167,-517.58 457.18,-502.586 447,-482 439.514,-466.861 443.031,-460.416 447,-444 455.688,-408.063 462.091,-399.019 485,-370 500.234,-350.703 513.143,-354.308 527,-334 551.283,-298.412 587.145,-177.824 602.983,-121.909"/>
<polygon fill="black" stroke="black" points="606.447,-122.519 605.787,-111.945 599.709,-120.623 606.447,-122.519"/>
</g>
<!-- 3 -->
<g id="node32" class="node"><title>3</title>
<ellipse fill="none" stroke="black" cx="1003" cy="-389" rx="27" ry="19.0919"/>
<text text-anchor="middle" x="1003" y="-385.9" font-family="Times Roman,serif" font-size="14.00">3</text>
</g>
<!-- 2&#45;&gt;3 -->
<g id="edge28" class="edge"><title>2&#45;&gt;3</title>
<path fill="none" stroke="black" d="M545.943,-533.932C639.564,-523.228 945.523,-487.872 954,-482 975.788,-466.907 988.625,-439.007 995.655,-417.689"/>
<polygon fill="black" stroke="black" points="999.09,-418.423 998.653,-407.837 992.393,-416.385 999.09,-418.423"/>
</g>
<!-- 16 -->
<g id="node34" class="node"><title>16</title>
<ellipse fill="none" stroke="black" cx="521" cy="-389" rx="27" ry="19.0919"/>
<text text-anchor="middle" x="521" y="-385.9" font-family="Times Roman,serif" font-size="14.00">16</text>
</g>
<!-- 2&#45;&gt;16 -->
<g id="edge30" class="edge"><title>2&#45;&gt;16</title>
<path fill="none" stroke="black" d="M519.257,-517.955C519.598,-492.784 520.2,-448.18 520.6,-418.598"/>
<polygon fill="black" stroke="black" points="524.102,-418.489 520.737,-408.442 517.102,-418.394 524.102,-418.489"/>
</g>
<!-- 17 -->
<g id="node36" class="node"><title>17</title>
<ellipse fill="none" stroke="black" cx="631" cy="-463" rx="27" ry="19.0919"/>
<text text-anchor="middle" x="631" y="-459.9" font-family="Times Roman,serif" font-size="14.00">17</text>
</g>
<!-- 2&#45;&gt;17 -->
<g id="edge32" class="edge"><title>2&#45;&gt;17</title>
<path fill="none" stroke="black" d="M538.766,-523.941C556.49,-512.23 582.7,-494.913 602.655,-481.728"/>
<polygon fill="black" stroke="black" points="604.641,-484.611 611.055,-476.178 600.783,-478.77 604.641,-484.611"/>
</g>
<!-- 18 -->
<g id="node39" class="node"><title>18</title>
<ellipse fill="none" stroke="black" cx="203" cy="-315" rx="27" ry="19.0919"/>
<text text-anchor="middle" x="203" y="-311.9" font-family="Times Roman,serif" font-size="14.00">18</text>
</g>
<!-- 2&#45;&gt;18 -->
<g id="edge36" class="edge"><title>2&#45;&gt;18</title>
<path fill="none" stroke="black" d="M496.193,-526.581C474.448,-516.297 441.095,-499.598 414,-482 342.309,-435.437 265.302,-370.116 227.207,-336.643"/>
<polygon fill="black" stroke="black" points="229.497,-333.996 219.684,-330.002 224.864,-339.244 229.497,-333.996"/>
</g>
<!-- S35 -->
<g id="node11" class="node"><title>S35</title>
<ellipse fill="none" stroke="black" cx="866" cy="-611" rx="27" ry="19.0919"/>
<text text-anchor="middle" x="866" y="-607.9" font-family="Times Roman,serif" font-size="14.00">S35</text>
</g>
<!-- 36 -->
<g id="node13" class="node"><title>36</title>
<ellipse fill="none" stroke="black" cx="830" cy="-537" rx="27" ry="19.0919"/>
<text text-anchor="middle" x="830" y="-533.9" font-family="Times Roman,serif" font-size="14.00">36</text>
</g>
<!-- S35&#45;&gt;36 -->
<g id="edge10" class="edge"><title>S35&#45;&gt;36</title>
<path fill="none" stroke="black" d="M857.101,-592.708C852.916,-584.105 847.84,-573.671 843.218,-564.17"/>
<polygon fill="black" stroke="black" points="846.319,-562.543 838.797,-555.082 840.024,-565.605 846.319,-562.543"/>
</g>
<!-- 43 -->
<g id="node15" class="node"><title>43</title>
<ellipse fill="none" stroke="black" cx="902" cy="-537" rx="27" ry="19.0919"/>
<text text-anchor="middle" x="902" y="-533.9" font-family="Times Roman,serif" font-size="14.00">43</text>
</g>
<!-- S35&#45;&gt;43 -->
<g id="edge12" class="edge"><title>S35&#45;&gt;43</title>
<path fill="none" stroke="black" d="M874.899,-592.708C879.084,-584.105 884.16,-573.671 888.782,-564.17"/>
<polygon fill="black" stroke="black" points="891.976,-565.605 893.203,-555.082 885.681,-562.543 891.976,-565.605"/>
</g>
<!-- 19 -->
<g id="node63" class="node"><title>19</title>
<ellipse fill="none" stroke="black" cx="677" cy="-389" rx="27" ry="19.0919"/>
<text text-anchor="middle" x="677" y="-385.9" font-family="Times Roman,serif" font-size="14.00">19</text>
</g>
<!-- 36&#45;&gt;19 -->
<g id="edge88" class="edge"><title>36&#45;&gt;19</title>
<path fill="none" stroke="black" d="M831.079,-517.666C831.184,-497.131 828.233,-464.819 811,-444 786.726,-414.673 744.301,-400.798 713.681,-394.355"/>
<polygon fill="black" stroke="black" points="714.276,-390.905 703.793,-392.444 712.947,-397.778 714.276,-390.905"/>
</g>
<!-- 38 -->
<g id="node74" class="node"><title>38</title>
<ellipse fill="none" stroke="black" cx="1033" cy="-463" rx="27" ry="19.0919"/>
<text text-anchor="middle" x="1033" y="-459.9" font-family="Times Roman,serif" font-size="14.00">38</text>
</g>
<!-- 43&#45;&gt;38 -->
<g id="edge84" class="edge"><title>43&#45;&gt;38</title>
<path fill="none" stroke="black" d="M923.339,-524.946C944.94,-512.744 978.534,-493.767 1002.85,-480.031"/>
<polygon fill="black" stroke="black" points="1004.68,-483.015 1011.67,-475.049 1001.24,-476.92 1004.68,-483.015"/>
</g>
<!-- 40 -->
<g id="node76" class="node"><title>40</title>
<ellipse fill="none" stroke="black" cx="775" cy="-463" rx="27" ry="19.0919"/>
<text text-anchor="middle" x="775" y="-459.9" font-family="Times Roman,serif" font-size="14.00">40</text>
</g>
<!-- 43&#45;&gt;40 -->
<g id="edge86" class="edge"><title>43&#45;&gt;40</title>
<path fill="none" stroke="black" d="M881.029,-524.78C860.255,-512.676 828.243,-494.024 804.827,-480.379"/>
<polygon fill="black" stroke="black" points="806.405,-477.248 796.003,-475.238 802.881,-483.296 806.405,-477.248"/>
</g>
<!-- S30 -->
<g id="node16" class="node"><title>S30</title>
<ellipse fill="none" stroke="black" cx="228" cy="-463" rx="27" ry="19.0919"/>
<text text-anchor="middle" x="228" y="-459.9" font-family="Times Roman,serif" font-size="14.00">S30</text>
</g>
<!-- 31 -->
<g id="node18" class="node"><title>31</title>
<ellipse fill="none" stroke="black" cx="419" cy="-315" rx="27" ry="19.0919"/>
<text text-anchor="middle" x="419" y="-311.9" font-family="Times Roman,serif" font-size="14.00">31</text>
</g>
<!-- S30&#45;&gt;31 -->
<g id="edge14" class="edge"><title>S30&#45;&gt;31</title>
<path fill="none" stroke="black" d="M246.314,-448.809C280.255,-422.509 353.046,-366.105 392.414,-335.601"/>
<polygon fill="black" stroke="black" points="394.981,-338.04 400.742,-329.148 390.693,-332.506 394.981,-338.04"/>
</g>
<!-- 33 -->
<g id="node20" class="node"><title>33</title>
<ellipse fill="none" stroke="black" cx="93" cy="-389" rx="27" ry="19.0919"/>
<text text-anchor="middle" x="93" y="-385.9" font-family="Times Roman,serif" font-size="14.00">33</text>
</g>
<!-- S30&#45;&gt;33 -->
<g id="edge16" class="edge"><title>S30&#45;&gt;33</title>
<path fill="none" stroke="black" d="M206.609,-451.274C184.228,-439.006 148.891,-419.637 123.571,-405.757"/>
<polygon fill="black" stroke="black" points="125.189,-402.653 114.738,-400.916 121.825,-408.792 125.189,-402.653"/>
</g>
<!-- 31&#45;&gt;T1 -->
<g id="edge48" class="edge"><title>31&#45;&gt;T1</title>
<path fill="none" stroke="black" d="M422.634,-295.944C427.037,-276.223 435.819,-245.123 451,-222 484.398,-171.13 544.308,-130.786 580.583,-109.521"/>
<polygon fill="black" stroke="black" points="582.339,-112.548 589.265,-104.53 578.851,-106.479 582.339,-112.548"/>
</g>
<!-- 32 -->
<g id="node51" class="node"><title>32</title>
<ellipse fill="none" stroke="black" cx="487" cy="-241" rx="27" ry="19.0919"/>
<text text-anchor="middle" x="487" y="-237.9" font-family="Times Roman,serif" font-size="14.00">32</text>
</g>
<!-- 31&#45;&gt;32 -->
<g id="edge50" class="edge"><title>31&#45;&gt;32</title>
<path fill="none" stroke="black" d="M433.755,-298.943C443.022,-288.858 455.134,-275.678 465.464,-264.436"/>
<polygon fill="black" stroke="black" points="468.085,-266.757 472.274,-257.026 462.93,-262.021 468.085,-266.757"/>
</g>
<!-- T30 -->
<g id="node53" class="node"><title>T30</title>
<ellipse fill="none" stroke="black" cx="129" cy="-167" rx="27" ry="19.0919"/>
<text text-anchor="middle" x="129" y="-163.9" font-family="Times Roman,serif" font-size="14.00">T30</text>
</g>
<!-- 33&#45;&gt;T30 -->
<g id="edge52" class="edge"><title>33&#45;&gt;T30</title>
<path fill="none" stroke="black" d="M78.5027,-372.477C70.4565,-362.178 61.2393,-348.217 57,-334 52.1741,-317.815 52.7474,-312.345 57,-296 67.2252,-256.699 92.3438,-216.667 110.022,-191.841"/>
<polygon fill="black" stroke="black" points="112.877,-193.866 115.928,-183.72 107.215,-189.749 112.877,-193.866"/>
</g>
<!-- 34 -->
<g id="node55" class="node"><title>34</title>
<ellipse fill="none" stroke="black" cx="93" cy="-315" rx="27" ry="19.0919"/>
<text text-anchor="middle" x="93" y="-311.9" font-family="Times Roman,serif" font-size="14.00">34</text>
</g>
<!-- 33&#45;&gt;34 -->
<g id="edge54" class="edge"><title>33&#45;&gt;34</title>
<path fill="none" stroke="black" d="M93,-369.943C93,-362.149 93,-352.954 93,-344.338"/>
<polygon fill="black" stroke="black" points="96.5001,-344.249 93,-334.249 89.5001,-344.249 96.5001,-344.249"/>
</g>
<!-- 9 -->
<g id="node21" class="node"><title>9</title>
<ellipse fill="none" stroke="black" cx="885" cy="-463" rx="27" ry="19.0919"/>
<text text-anchor="middle" x="885" y="-459.9" font-family="Times Roman,serif" font-size="14.00">9</text>
</g>
<!-- 42 -->
<g id="node23" class="node"><title>42</title>
<ellipse fill="none" stroke="black" cx="859" cy="-389" rx="27" ry="19.0919"/>
<text text-anchor="middle" x="859" y="-385.9" font-family="Times Roman,serif" font-size="14.00">42</text>
</g>
<!-- 9&#45;&gt;42 -->
<g id="edge18" class="edge"><title>9&#45;&gt;42</title>
<path fill="none" stroke="black" d="M878.439,-444.327C875.545,-436.089 872.08,-426.229 868.883,-417.13"/>
<polygon fill="black" stroke="black" points="872.176,-415.942 865.559,-407.667 865.572,-418.262 872.176,-415.942"/>
</g>
<!-- 9&#45;&gt;T1 -->
<g id="edge20" class="edge"><title>9&#45;&gt;T1</title>
<path fill="none" stroke="black" d="M864.845,-450.313C850.918,-440.473 833.14,-425.573 823,-408 801.916,-371.459 804,-357.187 804,-315 804,-315 804,-315 804,-241 804,-162.493 702.196,-119.955 646.464,-102.549"/>
<polygon fill="black" stroke="black" points="647.213,-99.1199 636.629,-99.589 645.196,-105.823 647.213,-99.1199"/>
</g>
<!-- 4 -->
<g id="node57" class="node"><title>4</title>
<ellipse fill="none" stroke="black" cx="1021" cy="-315" rx="27" ry="19.0919"/>
<text text-anchor="middle" x="1021" y="-311.9" font-family="Times Roman,serif" font-size="14.00">4</text>
</g>
<!-- 42&#45;&gt;4 -->
<g id="edge56" class="edge"><title>42&#45;&gt;4</title>
<path fill="none" stroke="black" d="M880.57,-377.284C885.292,-374.813 890.288,-372.268 895,-370 926.275,-354.946 962.677,-339.248 988.289,-328.494"/>
<polygon fill="black" stroke="black" points="989.666,-331.712 997.543,-324.627 986.967,-325.253 989.666,-331.712"/>
</g>
<!-- 26&#45;&gt;4 -->
<g id="edge58" class="edge"><title>26&#45;&gt;4</title>
<path fill="none" stroke="black" d="M1094.82,-374.38C1081.13,-363.363 1062.16,-348.105 1046.88,-335.815"/>
<polygon fill="black" stroke="black" points="1048.81,-332.878 1038.83,-329.338 1044.42,-338.333 1048.81,-332.878"/>
</g>
<!-- 3&#45;&gt;4 -->
<g id="edge60" class="edge"><title>3&#45;&gt;4</title>
<path fill="none" stroke="black" d="M1007.64,-369.943C1009.58,-361.941 1011.89,-352.46 1014.03,-343.647"/>
<polygon fill="black" stroke="black" points="1017.48,-344.28 1016.44,-333.736 1010.68,-342.626 1017.48,-344.28"/>
</g>
<!-- 15 -->
<g id="node61" class="node"><title>15</title>
<ellipse fill="none" stroke="black" cx="611" cy="-241" rx="27" ry="19.0919"/>
<text text-anchor="middle" x="611" y="-237.9" font-family="Times Roman,serif" font-size="14.00">15</text>
</g>
<!-- 16&#45;&gt;15 -->
<g id="edge62" class="edge"><title>16&#45;&gt;15</title>
<path fill="none" stroke="black" d="M533.817,-372.008C541.69,-361.311 551.803,-347.098 560,-334 573.538,-312.368 587.365,-286.902 597.2,-268.093"/>
<polygon fill="black" stroke="black" points="600.325,-269.669 601.822,-259.18 594.111,-266.446 600.325,-269.669"/>
</g>
<!-- 17&#45;&gt;19 -->
<g id="edge64" class="edge"><title>17&#45;&gt;19</title>
<path fill="none" stroke="black" d="M641.901,-445.463C647.516,-436.432 654.474,-425.237 660.711,-415.204"/>
<polygon fill="black" stroke="black" points="663.87,-416.752 666.177,-406.411 657.925,-413.056 663.87,-416.752"/>
</g>
<!-- 29 -->
<g id="node65" class="node"><title>29</title>
<ellipse fill="none" stroke="black" cx="175" cy="-241" rx="27" ry="19.0919"/>
<text text-anchor="middle" x="175" y="-237.9" font-family="Times Roman,serif" font-size="14.00">29</text>
</g>
<!-- 18&#45;&gt;29 -->
<g id="edge66" class="edge"><title>18&#45;&gt;29</title>
<path fill="none" stroke="black" d="M195.934,-296.327C192.794,-288.026 189.03,-278.078 185.565,-268.921"/>
<polygon fill="black" stroke="black" points="188.779,-267.525 181.966,-259.411 182.232,-270.003 188.779,-267.525"/>
</g>
<!-- 11&#45;&gt;4 -->
<g id="edge68" class="edge"><title>11&#45;&gt;4</title>
<path fill="none" stroke="black" d="M948.781,-374.38C962.094,-363.434 980.498,-348.302 995.395,-336.053"/>
<polygon fill="black" stroke="black" points="997.754,-338.644 1003.26,-329.59 993.309,-333.237 997.754,-338.644"/>
</g>
<!-- 14&#45;&gt;15 -->
<g id="edge70" class="edge"><title>14&#45;&gt;15</title>
<path fill="none" stroke="black" d="M511.356,-302.447C530.751,-290.487 560.148,-272.359 581.991,-258.889"/>
<polygon fill="black" stroke="black" points="583.869,-261.843 590.544,-253.615 580.195,-255.885 583.869,-261.843"/>
</g>
<!-- 13&#45;&gt;19 -->
<g id="edge80" class="edge"><title>13&#45;&gt;19</title>
<path fill="none" stroke="black" d="M506.788,-453.926C541.113,-440.833 604.68,-416.586 643.667,-401.714"/>
<polygon fill="black" stroke="black" points="644.921,-404.982 653.017,-398.148 642.426,-398.442 644.921,-404.982"/>
</g>
<!-- 12&#45;&gt;29 -->
<g id="edge82" class="edge"><title>12&#45;&gt;29</title>
<path fill="none" stroke="black" d="M166.191,-369.734C165.591,-350.906 165.159,-321.444 167,-296 167.612,-287.541 168.747,-278.408 169.973,-270.06"/>
<polygon fill="black" stroke="black" points="173.457,-270.437 171.543,-260.016 166.541,-269.356 173.457,-270.437"/>
</g>
<!-- 23 -->
<g id="node83" class="node"><title>23</title>
<ellipse fill="none" stroke="black" cx="968" cy="-167" rx="27" ry="19.0919"/>
<text text-anchor="middle" x="968" y="-163.9" font-family="Times Roman,serif" font-size="14.00">23</text>
</g>
<!-- 32&#45;&gt;23 -->
<g id="edge90" class="edge"><title>32&#45;&gt;23</title>
<path fill="none" stroke="black" d="M512.7,-234.929C530.197,-230.924 553.917,-225.746 575,-222 705.33,-198.843 861.403,-179.465 931.162,-171.237"/>
<polygon fill="black" stroke="black" points="931.684,-174.7 941.208,-170.059 930.868,-167.748 931.684,-174.7"/>
</g>
<!-- 34&#45;&gt;29 -->
<g id="edge92" class="edge"><title>34&#45;&gt;29</title>
<path fill="none" stroke="black" d="M109.99,-299.667C121.723,-289.08 137.504,-274.838 150.58,-263.037"/>
<polygon fill="black" stroke="black" points="153.233,-265.358 158.312,-256.06 148.543,-260.161 153.233,-265.358"/>
</g>
<!-- 5 -->
<g id="node90" class="node"><title>5</title>
<ellipse fill="none" stroke="black" cx="1040" cy="-241" rx="27" ry="19.0919"/>
<text text-anchor="middle" x="1040" y="-237.9" font-family="Times Roman,serif" font-size="14.00">5</text>
</g>
<!-- 4&#45;&gt;5 -->
<g id="edge102" class="edge"><title>4&#45;&gt;5</title>
<path fill="none" stroke="black" d="M1025.89,-295.943C1027.95,-287.941 1030.38,-278.46 1032.64,-269.647"/>
<polygon fill="black" stroke="black" points="1036.09,-270.292 1035.19,-259.736 1029.31,-268.551 1036.09,-270.292"/>
</g>
<!-- 15&#45;&gt;T1 -->
<g id="edge124" class="edge"><title>15&#45;&gt;T1</title>
<path fill="none" stroke="black" d="M611,-221.955C611,-196.784 611,-152.18 611,-122.598"/>
<polygon fill="black" stroke="black" points="614.5,-122.442 611,-112.442 607.5,-122.442 614.5,-122.442"/>
</g>
<!-- 21 -->
<g id="node92" class="node"><title>21</title>
<ellipse fill="none" stroke="black" cx="749" cy="-315" rx="27" ry="19.0919"/>
<text text-anchor="middle" x="749" y="-311.9" font-family="Times Roman,serif" font-size="14.00">21</text>
</g>
<!-- 19&#45;&gt;21 -->
<g id="edge104" class="edge"><title>19&#45;&gt;21</title>
<path fill="none" stroke="black" d="M692.269,-373.307C702.225,-363.075 715.389,-349.545 726.529,-338.095"/>
<polygon fill="black" stroke="black" points="729.039,-340.534 733.504,-330.926 724.022,-335.653 729.039,-340.534"/>
</g>
<!-- 20 -->
<g id="node94" class="node"><title>20</title>
<ellipse fill="none" stroke="black" cx="677" cy="-315" rx="27" ry="19.0919"/>
<text text-anchor="middle" x="677" y="-311.9" font-family="Times Roman,serif" font-size="14.00">20</text>
</g>
<!-- 19&#45;&gt;20 -->
<g id="edge106" class="edge"><title>19&#45;&gt;20</title>
<path fill="none" stroke="black" d="M677,-369.943C677,-362.149 677,-352.954 677,-344.338"/>
<polygon fill="black" stroke="black" points="680.5,-344.249 677,-334.249 673.5,-344.249 680.5,-344.249"/>
</g>
<!-- 28 -->
<g id="node96" class="node"><title>28</title>
<ellipse fill="none" stroke="black" cx="347" cy="-315" rx="27" ry="19.0919"/>
<text text-anchor="middle" x="347" y="-311.9" font-family="Times Roman,serif" font-size="14.00">28</text>
</g>
<!-- 19&#45;&gt;28 -->
<g id="edge108" class="edge"><title>19&#45;&gt;28</title>
<path fill="none" stroke="black" d="M651.174,-383.056C633.897,-379.155 610.633,-374.045 590,-370 498.364,-352.034 471.375,-364.163 383,-334 381.094,-333.349 379.166,-332.608 377.245,-331.805"/>
<polygon fill="black" stroke="black" points="378.367,-328.466 367.826,-327.398 375.4,-334.806 378.367,-328.466"/>
</g>
<!-- 29&#45;&gt;T30 -->
<g id="edge130" class="edge"><title>29&#45;&gt;T30</title>
<path fill="none" stroke="black" d="M164.099,-223.463C158.484,-214.432 151.526,-203.237 145.289,-193.204"/>
<polygon fill="black" stroke="black" points="148.075,-191.056 139.823,-184.411 142.13,-194.752 148.075,-191.056"/>
</g>
<!-- 37 -->
<g id="node68" class="node"><title>37</title>
<ellipse fill="none" stroke="black" cx="730" cy="-537" rx="27" ry="19.0919"/>
<text text-anchor="middle" x="730" y="-533.9" font-family="Times Roman,serif" font-size="14.00">37</text>
</g>
<!-- 39 -->
<g id="node70" class="node"><title>39</title>
<ellipse fill="none" stroke="black" cx="703" cy="-463" rx="27" ry="19.0919"/>
<text text-anchor="middle" x="703" y="-459.9" font-family="Times Roman,serif" font-size="14.00">39</text>
</g>
<!-- 37&#45;&gt;39 -->
<g id="edge72" class="edge"><title>37&#45;&gt;39</title>
<path fill="none" stroke="black" d="M723.187,-518.327C720.158,-510.026 716.529,-500.078 713.188,-490.921"/>
<polygon fill="black" stroke="black" points="716.433,-489.606 709.718,-481.411 709.857,-492.005 716.433,-489.606"/>
</g>
<!-- 41 -->
<g id="node72" class="node"><title>41</title>
<ellipse fill="none" stroke="black" cx="275" cy="-315" rx="27" ry="19.0919"/>
<text text-anchor="middle" x="275" y="-311.9" font-family="Times Roman,serif" font-size="14.00">41</text>
</g>
<!-- 37&#45;&gt;41 -->
<g id="edge74" class="edge"><title>37&#45;&gt;41</title>
<path fill="none" stroke="black" d="M703.445,-532.942C673.182,-526.964 624.152,-512.949 595,-482 558.958,-443.737 597.389,-403.642 557,-370 472.097,-299.281 416.045,-368.283 311,-334 309.085,-333.375 307.151,-332.654 305.224,-331.865"/>
<polygon fill="black" stroke="black" points="306.338,-328.524 295.792,-327.499 303.397,-334.876 306.338,-328.524"/>
</g>
<!-- 37&#45;&gt;38 -->
<g id="edge76" class="edge"><title>37&#45;&gt;38</title>
<path fill="none" stroke="black" d="M754.753,-528.968C766.556,-525.314 780.922,-521.12 794,-518 881.001,-497.242 906.737,-509.021 992,-482 995.316,-480.949 998.714,-479.692 1002.07,-478.332"/>
<polygon fill="black" stroke="black" points="1003.51,-481.518 1011.28,-474.311 1000.72,-475.102 1003.51,-481.518"/>
</g>
<!-- 37&#45;&gt;40 -->
<g id="edge78" class="edge"><title>37&#45;&gt;40</title>
<path fill="none" stroke="black" d="M740.664,-519.463C746.117,-510.497 752.865,-499.399 758.933,-489.422"/>
<polygon fill="black" stroke="black" points="762.051,-491.03 764.256,-480.668 756.07,-487.393 762.051,-491.03"/>
</g>
<!-- 39&#45;&gt;15 -->
<g id="edge94" class="edge"><title>39&#45;&gt;15</title>
<path fill="none" stroke="black" d="M682.718,-450.386C668.73,-440.58 650.93,-425.692 641,-408 616.501,-364.351 611.308,-305.071 610.585,-270.141"/>
<polygon fill="black" stroke="black" points="614.085,-270.092 610.488,-260.126 607.085,-270.16 614.085,-270.092"/>
</g>
<!-- 41&#45;&gt;29 -->
<g id="edge96" class="edge"><title>41&#45;&gt;29</title>
<path fill="none" stroke="black" d="M256.191,-301.081C240.966,-289.815 219.318,-273.795 202.203,-261.13"/>
<polygon fill="black" stroke="black" points="203.845,-257.991 193.725,-254.856 199.681,-263.618 203.845,-257.991"/>
</g>
<!-- 38&#45;&gt;4 -->
<g id="edge98" class="edge"><title>38&#45;&gt;4</title>
<path fill="none" stroke="black" d="M1036.68,-444.004C1039.76,-425.127 1043.05,-395.404 1039,-370 1037.57,-361.015 1034.9,-351.504 1032.04,-342.963"/>
<polygon fill="black" stroke="black" points="1035.31,-341.724 1028.67,-333.473 1028.72,-344.068 1035.31,-341.724"/>
</g>
<!-- 40&#45;&gt;19 -->
<g id="edge100" class="edge"><title>40&#45;&gt;19</title>
<path fill="none" stroke="black" d="M756.567,-449.081C741.741,-437.886 720.7,-421.998 703.978,-409.371"/>
<polygon fill="black" stroke="black" points="705.773,-406.341 695.684,-403.108 701.555,-411.927 705.773,-406.341"/>
</g>
<!-- 23&#45;&gt;T1 -->
<g id="edge136" class="edge"><title>23&#45;&gt;T1</title>
<path fill="none" stroke="black" d="M946.291,-155.657C940.179,-152.819 933.439,-150.014 927,-148 828.983,-117.342 708.188,-102.312 648.305,-96.3043"/>
<polygon fill="black" stroke="black" points="648.488,-92.8057 638.196,-95.3183 647.809,-99.7726 648.488,-92.8057"/>
</g>
<!-- 23&#45;&gt;T24 -->
<g id="edge134" class="edge"><title>23&#45;&gt;T24</title>
<path fill="none" stroke="black" d="M976.899,-148.708C981.084,-140.105 986.16,-129.671 990.782,-120.17"/>
<polygon fill="black" stroke="black" points="993.976,-121.605 995.203,-111.082 987.681,-118.543 993.976,-121.605"/>
</g>
<!-- 5&#45;&gt;23 -->
<g id="edge114" class="edge"><title>5&#45;&gt;23</title>
<path fill="none" stroke="black" d="M1024.73,-225.307C1014.78,-215.075 1001.61,-201.545 990.471,-190.095"/>
<polygon fill="black" stroke="black" points="992.978,-187.653 983.496,-182.926 987.961,-192.534 992.978,-187.653"/>
</g>
<!-- 6 -->
<g id="node98" class="node"><title>6</title>
<ellipse fill="none" stroke="black" cx="1112" cy="-167" rx="27" ry="19.0919"/>
<text text-anchor="middle" x="1112" y="-163.9" font-family="Times Roman,serif" font-size="14.00">6</text>
</g>
<!-- 5&#45;&gt;6 -->
<g id="edge110" class="edge"><title>5&#45;&gt;6</title>
<path fill="none" stroke="black" d="M1055.27,-225.307C1065.22,-215.075 1078.39,-201.545 1089.53,-190.095"/>
<polygon fill="black" stroke="black" points="1092.04,-192.534 1096.5,-182.926 1087.02,-187.653 1092.04,-192.534"/>
</g>
<!-- T35 -->
<g id="node100" class="node"><title>T35</title>
<ellipse fill="none" stroke="black" cx="1040" cy="-167" rx="27" ry="19.0919"/>
<text text-anchor="middle" x="1040" y="-163.9" font-family="Times Roman,serif" font-size="14.00">T35</text>
</g>
<!-- 5&#45;&gt;T35 -->
<g id="edge112" class="edge"><title>5&#45;&gt;T35</title>
<path fill="none" stroke="black" d="M1040,-221.943C1040,-214.149 1040,-204.954 1040,-196.338"/>
<polygon fill="black" stroke="black" points="1043.5,-196.249 1040,-186.249 1036.5,-196.249 1043.5,-196.249"/>
</g>
<!-- 22 -->
<g id="node103" class="node"><title>22</title>
<ellipse fill="none" stroke="black" cx="968" cy="-241" rx="27" ry="19.0919"/>
<text text-anchor="middle" x="968" y="-237.9" font-family="Times Roman,serif" font-size="14.00">22</text>
</g>
<!-- 21&#45;&gt;22 -->
<g id="edge116" class="edge"><title>21&#45;&gt;22</title>
<path fill="none" stroke="black" d="M773.696,-306.655C812.904,-293.407 889.486,-267.53 933.899,-252.523"/>
<polygon fill="black" stroke="black" points="935.041,-255.831 943.394,-249.314 932.8,-249.2 935.041,-255.831"/>
</g>
<!-- 20&#45;&gt;15 -->
<g id="edge118" class="edge"><title>20&#45;&gt;15</title>
<path fill="none" stroke="black" d="M662.352,-298.577C653.49,-288.641 642.039,-275.801 632.199,-264.769"/>
<polygon fill="black" stroke="black" points="634.648,-262.256 625.38,-257.122 629.424,-266.915 634.648,-262.256"/>
</g>
<!-- 28&#45;&gt;29 -->
<g id="edge120" class="edge"><title>28&#45;&gt;29</title>
<path fill="none" stroke="black" d="M325.476,-303.186C320.752,-300.721 315.743,-298.204 311,-296 276.852,-280.133 236.787,-264.249 209.028,-253.66"/>
<polygon fill="black" stroke="black" points="209.983,-250.279 199.392,-250.008 207.502,-256.825 209.983,-250.279"/>
</g>
<!-- 7 -->
<g id="node107" class="node"><title>7</title>
<ellipse fill="none" stroke="black" cx="1112" cy="-93" rx="27" ry="19.0919"/>
<text text-anchor="middle" x="1112" y="-89.9" font-family="Times Roman,serif" font-size="14.00">7</text>
</g>
<!-- 6&#45;&gt;7 -->
<g id="edge122" class="edge"><title>6&#45;&gt;7</title>
<path fill="none" stroke="black" d="M1112,-147.943C1112,-140.149 1112,-130.954 1112,-122.338"/>
<polygon fill="black" stroke="black" points="1115.5,-122.249 1112,-112.249 1108.5,-122.249 1115.5,-122.249"/>
</g>
<!-- 22&#45;&gt;23 -->
<g id="edge126" class="edge"><title>22&#45;&gt;23</title>
<path fill="none" stroke="black" d="M968,-221.943C968,-214.149 968,-204.954 968,-196.338"/>
<polygon fill="black" stroke="black" points="971.5,-196.249 968,-186.249 964.5,-196.249 971.5,-196.249"/>
</g>
<!-- 22&#45;&gt;T35 -->
<g id="edge128" class="edge"><title>22&#45;&gt;T35</title>
<path fill="none" stroke="black" d="M983.269,-225.307C993.225,-215.075 1006.39,-201.545 1017.53,-190.095"/>
<polygon fill="black" stroke="black" points="1020.04,-192.534 1024.5,-182.926 1015.02,-187.653 1020.04,-192.534"/>
</g>
<!-- T8 -->
<g id="node113" class="node"><title>T8</title>
<ellipse fill="none" stroke="black" cx="1112" cy="-19" rx="27" ry="19.0919"/>
<text text-anchor="middle" x="1112" y="-15.9" font-family="Times Roman,serif" font-size="14.00">T8</text>
</g>
<!-- 7&#45;&gt;T8 -->
<g id="edge132" class="edge"><title>7&#45;&gt;T8</title>
<path fill="none" stroke="black" d="M1112,-73.9432C1112,-66.1493 1112,-56.9538 1112,-48.3381"/>
<polygon fill="black" stroke="black" points="1115.5,-48.2494 1112,-38.2495 1108.5,-48.2495 1115.5,-48.2494"/>
</g>
</g>
</svg>
