<?xml version="1.0" encoding="UTF-8" standalone="no"?>
<!DOCTYPE svg PUBLIC "-//W3C//DTD SVG 1.1//EN"
 "http://www.w3.org/Graphics/SVG/1.1/DTD/svg11.dtd">
<!-- Generated by graphviz version 2.26.3 (20100126.1600)
 -->
<!-- Title: Alf Pages: 1 -->
<svg width="432pt" height="249pt"
 viewBox="0.00 0.00 432.00 249.25" xmlns="http://www.w3.org/2000/svg" xmlns:xlink="http://www.w3.org/1999/xlink">
<g id="graph1" class="graph" transform="scale(0.492588 0.492588) rotate(0) translate(4 502)">
<title>Alf</title>
<polygon fill="white" stroke="white" points="-4,5 -4,-502 874,-502 874,5 -4,5"/>
<!-- Decl -->
<g id="node1" class="node"><title>Decl</title>
<polygon fill="none" stroke="black" points="458,-1 458,-109 610,-109 610,-1 458,-1"/>
<text text-anchor="middle" x="479" y="-35.9" font-family="Times Roman,serif" font-size="14.00">Decl</text>
<polyline fill="none" stroke="black" points="500,-1 500,-109 "/>
<text text-anchor="middle" x="555" y="-92.4" font-family="Times Roman,serif" font-size="14.00">name</text>
<polyline fill="none" stroke="black" points="500,-82 610,-82 "/>
<text text-anchor="middle" x="555" y="-65.4" font-family="Times Roman,serif" font-size="14.00">access</text>
<polyline fill="none" stroke="black" points="500,-55 610,-55 "/>
<text text-anchor="middle" x="555" y="-38.4" font-family="Times Roman,serif" font-size="14.00">decl_flags</text>
<polyline fill="none" stroke="black" points="500,-28 610,-28 "/>
<text text-anchor="middle" x="555" y="-11.4" font-family="Times Roman,serif" font-size="14.00">extern_c_linkage</text>
</g>
<!-- Nontype_decl -->
<g id="node2" class="node"><title>Nontype_decl</title>
<polygon fill="none" stroke="black" points="328,-147 328,-183 460,-183 460,-147 328,-147"/>
<text text-anchor="middle" x="374" y="-161.9" font-family="Times Roman,serif" font-size="14.00">Nontype_decl</text>
<polyline fill="none" stroke="black" points="420,-147 420,-183 "/>
<text text-anchor="middle" x="440" y="-161.9" font-family="Times Roman,serif" font-size="14.00">type</text>
</g>
<!-- Nontype_decl&#45;&gt;Decl -->
<g id="edge34" class="edge"><title>Nontype_decl&#45;&gt;Decl</title>
<path fill="none" stroke="black" d="M417.118,-146.836C428.324,-138.031 442.495,-126.897 457.072,-115.444"/>
<polygon fill="black" stroke="black" points="459.494,-117.991 465.195,-109.061 455.17,-112.487 459.494,-117.991"/>
</g>
<!-- Defined_decl -->
<g id="node3" class="node"><title>Defined_decl</title>
<polygon fill="none" stroke="black" points="132.5,-221 132.5,-257 277.5,-257 277.5,-221 132.5,-221"/>
<text text-anchor="middle" x="177" y="-235.9" font-family="Times Roman,serif" font-size="14.00">Defined_decl</text>
<polyline fill="none" stroke="black" points="221.5,-221 221.5,-257 "/>
<text text-anchor="middle" x="249.5" y="-235.9" font-family="Times Roman,serif" font-size="14.00">linkage</text>
</g>
<!-- Defined_decl&#45;&gt;Nontype_decl -->
<g id="edge16" class="edge"><title>Defined_decl&#45;&gt;Nontype_decl</title>
<path fill="none" stroke="black" d="M251.235,-220.898C277.531,-210.601 310.644,-197.637 338.358,-186.786"/>
<polygon fill="black" stroke="black" points="339.88,-189.949 347.916,-183.044 337.328,-183.43 339.88,-189.949"/>
</g>
<!-- Data_decl -->
<g id="node4" class="node"><title>Data_decl</title>
<polygon fill="none" stroke="black" points="0,-304 0,-340 160,-340 160,-304 0,-304"/>
<text text-anchor="middle" x="35.5" y="-318.9" font-family="Times Roman,serif" font-size="14.00">Data_decl</text>
<polyline fill="none" stroke="black" points="71,-304 71,-340 "/>
<text text-anchor="middle" x="115.5" y="-318.9" font-family="Times Roman,serif" font-size="14.00">storage_class</text>
</g>
<!-- Data_decl&#45;&gt;Defined_decl -->
<g id="edge12" class="edge"><title>Data_decl&#45;&gt;Defined_decl</title>
<path fill="none" stroke="black" d="M107.123,-303.99C125.262,-291.946 149.328,-275.966 169.058,-262.866"/>
<polygon fill="black" stroke="black" points="171.103,-265.709 177.498,-257.261 167.231,-259.877 171.103,-265.709"/>
</g>
<!-- Function_decl -->
<g id="node5" class="node"><title>Function_decl</title>
<polygon fill="none" stroke="black" points="249.5,-295 249.5,-349 402.5,-349 402.5,-295 249.5,-295"/>
<text text-anchor="middle" x="296.5" y="-318.9" font-family="Times Roman,serif" font-size="14.00">Function_decl</text>
<polyline fill="none" stroke="black" points="343.5,-295 343.5,-349 "/>
<text text-anchor="middle" x="373" y="-332.4" font-family="Times Roman,serif" font-size="14.00">formals</text>
<polyline fill="none" stroke="black" points="343.5,-322 402.5,-322 "/>
<text text-anchor="middle" x="373" y="-305.4" font-family="Times Roman,serif" font-size="14.00">defaults</text>
</g>
<!-- Function_decl&#45;&gt;Defined_decl -->
<g id="edge32" class="edge"><title>Function_decl&#45;&gt;Defined_decl</title>
<path fill="none" stroke="black" d="M286.38,-294.823C271.285,-284.468 254.213,-272.758 239.617,-262.746"/>
<polygon fill="black" stroke="black" points="241.57,-259.841 231.344,-257.071 237.61,-265.613 241.57,-259.841"/>
</g>
<!-- Data -->
<g id="node6" class="node"><title>Data</title>
<polygon fill="none" stroke="black" points="84,-387 84,-423 194,-423 194,-387 84,-387"/>
<text text-anchor="middle" x="105" y="-401.9" font-family="Times Roman,serif" font-size="14.00">Data</text>
<polyline fill="none" stroke="black" points="126,-387 126,-423 "/>
<text text-anchor="middle" x="160" y="-401.9" font-family="Times Roman,serif" font-size="14.00">initializer</text>
</g>
<!-- Data&#45;&gt;Data_decl -->
<g id="edge8" class="edge"><title>Data&#45;&gt;Data_decl</title>
<path fill="none" stroke="black" d="M126.198,-386.99C118.212,-375.756 107.792,-361.098 98.8702,-348.546"/>
<polygon fill="black" stroke="black" points="101.627,-346.384 92.9809,-340.261 95.922,-350.44 101.627,-346.384"/>
</g>
<!-- Defn -->
<g id="node18" class="node"><title>Defn</title>
<polygon fill="none" stroke="black" points="178,-304 178,-340 232,-340 232,-304 178,-304"/>
<text text-anchor="middle" x="205" y="-318.9" font-family="Times Roman,serif" font-size="14.00">Defn</text>
</g>
<!-- Data&#45;&gt;Defn -->
<g id="edge10" class="edge"><title>Data&#45;&gt;Defn</title>
<path fill="none" stroke="black" d="M153.321,-386.99C162.34,-375.648 174.135,-360.816 184.178,-348.185"/>
<polygon fill="black" stroke="black" points="186.995,-350.267 190.479,-340.261 181.516,-345.91 186.995,-350.267"/>
</g>
<!-- Function -->
<g id="node7" class="node"><title>Function</title>
<polygon fill="none" stroke="black" points="241.5,-387 241.5,-423 350.5,-423 350.5,-387 241.5,-387"/>
<text text-anchor="middle" x="274" y="-401.9" font-family="Times Roman,serif" font-size="14.00">Function</text>
<polyline fill="none" stroke="black" points="306.5,-387 306.5,-423 "/>
<text text-anchor="middle" x="328.5" y="-401.9" font-family="Times Roman,serif" font-size="14.00">body</text>
</g>
<!-- Function&#45;&gt;Function_decl -->
<g id="edge26" class="edge"><title>Function&#45;&gt;Function_decl</title>
<path fill="none" stroke="black" d="M302.51,-386.99C305.508,-378.694 309.182,-368.531 312.725,-358.728"/>
<polygon fill="black" stroke="black" points="316.087,-359.721 316.195,-349.127 309.504,-357.342 316.087,-359.721"/>
</g>
<!-- Function&#45;&gt;Defn -->
<g id="edge24" class="edge"><title>Function&#45;&gt;Defn</title>
<path fill="none" stroke="black" d="M276.254,-386.99C263.464,-375.324 246.625,-359.965 232.528,-347.108"/>
<polygon fill="black" stroke="black" points="234.768,-344.414 225.021,-340.261 230.051,-349.586 234.768,-344.414"/>
</g>
<!-- Constructor -->
<g id="node8" class="node"><title>Constructor</title>
<polygon fill="none" stroke="black" points="114,-461 114,-497 320,-497 320,-461 114,-461"/>
<text text-anchor="middle" x="154" y="-475.9" font-family="Times Roman,serif" font-size="14.00">Constructor</text>
<polyline fill="none" stroke="black" points="194,-461 194,-497 "/>
<text text-anchor="middle" x="257" y="-475.9" font-family="Times Roman,serif" font-size="14.00">member_initializers</text>
</g>
<!-- Constructor&#45;&gt;Function -->
<g id="edge28" class="edge"><title>Constructor&#45;&gt;Function</title>
<path fill="none" stroke="black" d="M236.528,-460.708C246.382,-451.478 258.486,-440.14 269.196,-430.107"/>
<polygon fill="black" stroke="black" points="271.791,-432.472 276.697,-423.082 267.006,-427.364 271.791,-432.472"/>
</g>
<!-- Aggregate -->
<g id="node9" class="node"><title>Aggregate</title>
<polygon fill="none" stroke="black" points="504.5,-221 504.5,-257 577.5,-257 577.5,-221 504.5,-221"/>
<text text-anchor="middle" x="541" y="-235.9" font-family="Times Roman,serif" font-size="14.00">Aggregate</text>
</g>
<!-- Type_decl -->
<g id="node11" class="node"><title>Type_decl</title>
<polygon fill="none" stroke="black" points="585,-147 585,-183 659,-183 659,-147 585,-147"/>
<text text-anchor="middle" x="622" y="-161.9" font-family="Times Roman,serif" font-size="14.00">Type_decl</text>
</g>
<!-- Aggregate&#45;&gt;Type_decl -->
<g id="edge2" class="edge"><title>Aggregate&#45;&gt;Type_decl</title>
<path fill="none" stroke="black" d="M561.022,-220.708C571.126,-211.478 583.536,-200.14 594.518,-190.107"/>
<polygon fill="black" stroke="black" points="597.186,-192.411 602.208,-183.082 592.464,-187.243 597.186,-192.411"/>
</g>
<!-- Type_decl&#45;&gt;Decl -->
<g id="edge38" class="edge"><title>Type_decl&#45;&gt;Decl</title>
<path fill="none" stroke="black" d="M607.469,-146.836C600.791,-138.488 592.436,-128.045 583.778,-117.223"/>
<polygon fill="black" stroke="black" points="586.42,-114.922 577.44,-109.3 580.954,-119.295 586.42,-114.922"/>
</g>
<!-- Class -->
<g id="node12" class="node"><title>Class</title>
<polygon fill="none" stroke="black" points="478,-304 478,-340 532,-340 532,-304 478,-304"/>
<text text-anchor="middle" x="505" y="-318.9" font-family="Times Roman,serif" font-size="14.00">Class</text>
</g>
<!-- Class&#45;&gt;Aggregate -->
<g id="edge4" class="edge"><title>Class&#45;&gt;Aggregate</title>
<path fill="none" stroke="black" d="M512.811,-303.99C517.544,-293.08 523.676,-278.941 529.013,-266.638"/>
<polygon fill="black" stroke="black" points="532.311,-267.828 533.079,-257.261 525.889,-265.043 532.311,-267.828"/>
</g>
<!-- Union -->
<g id="node14" class="node"><title>Union</title>
<polygon fill="none" stroke="black" points="550,-304 550,-340 604,-340 604,-304 550,-304"/>
<text text-anchor="middle" x="577" y="-318.9" font-family="Times Roman,serif" font-size="14.00">Union</text>
</g>
<!-- Union&#45;&gt;Aggregate -->
<g id="edge6" class="edge"><title>Union&#45;&gt;Aggregate</title>
<path fill="none" stroke="black" d="M569.189,-303.99C564.456,-293.08 558.324,-278.941 552.987,-266.638"/>
<polygon fill="black" stroke="black" points="556.111,-265.043 548.921,-257.261 549.689,-267.828 556.111,-265.043"/>
</g>
<!-- Defn&#45;&gt;Defined_decl -->
<g id="edge18" class="edge"><title>Defn&#45;&gt;Defined_decl</title>
<path fill="none" stroke="black" d="M205,-303.99C205,-293.296 205,-279.499 205,-267.371"/>
<polygon fill="black" stroke="black" points="208.5,-267.261 205,-257.261 201.5,-267.261 208.5,-267.261"/>
</g>
<!-- Data_member -->
<g id="node20" class="node"><title>Data_member</title>
<polygon fill="none" stroke="black" points="294.5,-221 294.5,-257 389.5,-257 389.5,-221 294.5,-221"/>
<text text-anchor="middle" x="342" y="-235.9" font-family="Times Roman,serif" font-size="14.00">Data_member</text>
</g>
<!-- Data_member&#45;&gt;Nontype_decl -->
<g id="edge14" class="edge"><title>Data_member&#45;&gt;Nontype_decl</title>
<path fill="none" stroke="black" d="M354.854,-220.708C361.088,-211.836 368.69,-201.017 375.532,-191.282"/>
<polygon fill="black" stroke="black" points="378.408,-193.276 381.294,-183.082 372.681,-189.251 378.408,-193.276"/>
</g>
<!-- Enum -->
<g id="node24" class="node"><title>Enum</title>
<polygon fill="none" stroke="black" points="595,-221 595,-257 649,-257 649,-221 595,-221"/>
<text text-anchor="middle" x="622" y="-235.9" font-family="Times Roman,serif" font-size="14.00">Enum</text>
</g>
<!-- Enum&#45;&gt;Type_decl -->
<g id="edge20" class="edge"><title>Enum&#45;&gt;Type_decl</title>
<path fill="none" stroke="black" d="M622,-220.708C622,-212.464 622,-202.538 622,-193.362"/>
<polygon fill="black" stroke="black" points="625.5,-193.082 622,-183.082 618.5,-193.082 625.5,-193.082"/>
</g>
<!-- Enumerator -->
<g id="node26" class="node"><title>Enumerator</title>
<polygon fill="none" stroke="black" points="406.5,-221 406.5,-257 487.5,-257 487.5,-221 406.5,-221"/>
<text text-anchor="middle" x="447" y="-235.9" font-family="Times Roman,serif" font-size="14.00">Enumerator</text>
</g>
<!-- Enumerator&#45;&gt;Nontype_decl -->
<g id="edge22" class="edge"><title>Enumerator&#45;&gt;Nontype_decl</title>
<path fill="none" stroke="black" d="M433.899,-220.708C427.545,-211.836 419.796,-201.017 412.824,-191.282"/>
<polygon fill="black" stroke="black" points="415.619,-189.174 406.95,-183.082 409.928,-193.25 415.619,-189.174"/>
</g>
<!-- Destructor -->
<g id="node31" class="node"><title>Destructor</title>
<polygon fill="none" stroke="black" points="338,-461 338,-497 412,-497 412,-461 338,-461"/>
<text text-anchor="middle" x="375" y="-475.9" font-family="Times Roman,serif" font-size="14.00">Destructor</text>
</g>
<!-- Destructor&#45;&gt;Function -->
<g id="edge30" class="edge"><title>Destructor&#45;&gt;Function</title>
<path fill="none" stroke="black" d="M355.472,-460.708C345.618,-451.478 333.514,-440.14 322.804,-430.107"/>
<polygon fill="black" stroke="black" points="324.994,-427.364 315.303,-423.082 320.209,-432.472 324.994,-427.364"/>
</g>
<!-- Template_type_arg -->
<g id="node35" class="node"><title>Template_type_arg</title>
<polygon fill="none" stroke="black" points="667,-221 667,-257 789,-257 789,-221 667,-221"/>
<text text-anchor="middle" x="728" y="-235.9" font-family="Times Roman,serif" font-size="14.00">Template_type_arg</text>
</g>
<!-- Template_type_arg&#45;&gt;Type_decl -->
<g id="edge36" class="edge"><title>Template_type_arg&#45;&gt;Type_decl</title>
<path fill="none" stroke="black" d="M702.069,-220.898C688.338,-211.312 671.294,-199.412 656.464,-189.06"/>
<polygon fill="black" stroke="black" points="658.233,-186.026 648.03,-183.172 654.226,-191.766 658.233,-186.026"/>
</g>
<!-- Typedef -->
<g id="node38" class="node"><title>Typedef</title>
<polygon fill="none" stroke="black" points="807,-221 807,-257 869,-257 869,-221 807,-221"/>
<text text-anchor="middle" x="838" y="-235.9" font-family="Times Roman,serif" font-size="14.00">Typedef</text>
</g>
<!-- Typedef&#45;&gt;Type_decl -->
<g id="edge40" class="edge"><title>Typedef&#45;&gt;Type_decl</title>
<path fill="none" stroke="black" d="M806.74,-223.641C803.809,-222.356 800.864,-221.121 798,-220 755.085,-203.198 704.777,-187.9 668.963,-177.728"/>
<polygon fill="black" stroke="black" points="669.839,-174.338 659.265,-174.998 667.942,-181.076 669.839,-174.338"/>
</g>
</g>
</svg>
