<?xml version="1.0" encoding="UTF-8" standalone="no"?>
<!DOCTYPE svg PUBLIC "-//W3C//DTD SVG 1.1//EN"
 "http://www.w3.org/Graphics/SVG/1.1/DTD/svg11.dtd">
<!-- Generated by graphviz version 2.30.1 (20130611.0131)
 -->
<!-- Title: G Pages: 1 -->
<svg width="335pt" height="238pt"
 viewBox="0.00 0.00 335.00 238.00" xmlns="http://www.w3.org/2000/svg" xmlns:xlink="http://www.w3.org/1999/xlink">
<g id="graph0" class="graph" transform="scale(1 1) rotate(0) translate(4 234)">
<title>G</title>
<polygon fill="white" stroke="white" points="-4,5 -4,-234 332,-234 332,5 -4,5"/>
<!-- xyz -->
<g id="node1" class="node"><title>xyz</title>
<ellipse fill="slateblue" stroke="slateblue" cx="65" cy="-187" rx="50.3685" ry="42.3529"/>
<text text-anchor="middle" x="65" y="-193.8" font-family="Palatino Linotype,serif" font-style="italic" font-size="24.00" fill="hotpink">hello</text>
<text text-anchor="middle" x="65" y="-167.8" font-family="Palatino Linotype,serif" font-style="italic" font-size="24.00" fill="hotpink">world</text>
</g>
<!-- red -->
<g id="node2" class="node"><title>red</title>
<ellipse fill="red" stroke="red" cx="161" cy="-187" rx="27" ry="18"/>
<text text-anchor="middle" x="161" y="-183.3" font-family="Times,serif" font-size="14.00">red</text>
</g>
<!-- green -->
<g id="node3" class="node"><title>green</title>
<ellipse fill="green" stroke="green" cx="121" cy="-90" rx="30.3206" ry="18"/>
<text text-anchor="middle" x="121" y="-86.3" font-family="Times,serif" font-size="14.00">green</text>
</g>
<!-- red&#45;&gt;green -->
<g id="edge1" class="edge"><title>red&#45;&gt;green</title>
<path fill="none" stroke="black" d="M154.033,-169.452C147.933,-154.965 138.968,-133.675 131.917,-116.927"/>
<polygon fill="black" stroke="black" points="135.128,-115.535 128.022,-107.677 128.677,-118.251 135.128,-115.535"/>
</g>
<!-- blue -->
<g id="node4" class="node"><title>blue</title>
<ellipse fill="blue" stroke="blue" cx="201" cy="-90" rx="27" ry="18"/>
<text text-anchor="middle" x="201" y="-86.3" font-family="Times,serif" font-size="14.00">blue</text>
</g>
<!-- red&#45;&gt;blue -->
<g id="edge2" class="edge"><title>red&#45;&gt;blue</title>
<path fill="none" stroke="black" d="M167.967,-169.452C174.067,-154.965 183.032,-133.675 190.083,-116.927"/>
<polygon fill="black" stroke="black" points="193.323,-118.251 193.978,-107.677 186.872,-115.535 193.323,-118.251"/>
</g>
<!-- yellow -->
<g id="node7" class="node"><title>yellow</title>
<ellipse fill="yellow" stroke="yellow" cx="34" cy="-18" rx="34.1708" ry="18"/>
<text text-anchor="middle" x="34" y="-14.3" font-family="Times,serif" font-size="14.00">yellow</text>
</g>
<!-- green&#45;&gt;yellow -->
<g id="edge5" class="edge"><title>green&#45;&gt;yellow</title>
<path fill="none" stroke="black" d="M103.812,-75.1703C91.31,-65.1115 74.1642,-51.316 59.9934,-39.9142"/>
<polygon fill="black" stroke="black" points="62.0365,-37.0658 52.0512,-33.524 57.6483,-42.5197 62.0365,-37.0658"/>
</g>
<!-- orange -->
<g id="node8" class="node"><title>orange</title>
<ellipse fill="orange" stroke="orange" cx="121" cy="-18" rx="34.1708" ry="18"/>
<text text-anchor="middle" x="121" y="-14.3" font-family="Times,serif" font-size="14.00">orange</text>
</g>
<!-- green&#45;&gt;orange -->
<g id="edge6" class="edge"><title>green&#45;&gt;orange</title>
<path fill="none" stroke="black" d="M121,-71.6966C121,-63.9827 121,-54.7125 121,-46.1124"/>
<polygon fill="black" stroke="black" points="124.5,-46.1043 121,-36.1043 117.5,-46.1044 124.5,-46.1043"/>
</g>
<!-- cyan -->
<g id="node5" class="node"><title>cyan</title>
<ellipse fill="cyan" stroke="cyan" cx="201" cy="-18" rx="26.949" ry="18"/>
<text text-anchor="middle" x="201" y="-14.3" font-family="Times,serif" font-size="14.00">cyan</text>
</g>
<!-- blue&#45;&gt;cyan -->
<g id="edge3" class="edge"><title>blue&#45;&gt;cyan</title>
<path fill="none" stroke="black" d="M201,-71.6966C201,-63.9827 201,-54.7125 201,-46.1124"/>
<polygon fill="black" stroke="black" points="204.5,-46.1043 201,-36.1043 197.5,-46.1044 204.5,-46.1043"/>
</g>
<!-- magenta -->
<g id="node6" class="node"><title>magenta</title>
<ellipse fill="magenta" stroke="magenta" cx="287" cy="-18" rx="40.4202" ry="18"/>
<text text-anchor="middle" x="287" y="-14.3" font-family="Times,serif" font-size="14.00">magenta</text>
</g>
<!-- blue&#45;&gt;magenta -->
<g id="edge4" class="edge"><title>blue&#45;&gt;magenta</title>
<path fill="none" stroke="black" d="M217.582,-75.5033C229.741,-65.6065 246.501,-51.9644 260.507,-40.5644"/>
<polygon fill="black" stroke="black" points="262.833,-43.1838 268.379,-34.1566 258.414,-37.7549 262.833,-43.1838"/>
</g>
</g>
</svg>
