<?xml version="1.0" encoding="UTF-8" standalone="no"?>
<!DOCTYPE svg PUBLIC "-//W3C//DTD SVG 1.1//EN"
 "http://www.w3.org/Graphics/SVG/1.1/DTD/svg11.dtd">
<!-- Generated by graphviz version 2.26.3 (20100126.1600)
 -->
<!-- Title: G Pages: 1 -->
<svg width="432pt" height="231pt"
 viewBox="0.00 0.00 432.00 231.49" xmlns="http://www.w3.org/2000/svg" xmlns:xlink="http://www.w3.org/1999/xlink">
<g id="graph1" class="graph" transform="scale(0.815094 0.815094) rotate(0) translate(4 280)">
<title>G</title>
<polygon fill="white" stroke="white" points="-4,5 -4,-280 527,-280 527,5 -4,5"/>
<g id="graph2" class="cluster"><title>cluster0</title>
<polygon fill="none" stroke="black" points="8,-82 8,-210 150,-210 150,-82 8,-82"/>
</g>
<g id="graph3" class="cluster"><title>cluster1</title>
<polygon fill="none" stroke="black" points="222,-8 222,-136 364,-136 364,-8 222,-8"/>
</g>
<g id="graph4" class="cluster"><title>cluster2</title>
<polygon fill="none" stroke="black" points="372,-8 372,-136 514,-136 514,-8 372,-8"/>
</g>
<!-- a -->
<g id="node1" class="node"><title>a</title>
<ellipse fill="none" stroke="black" cx="294" cy="-257" rx="27" ry="19.0919"/>
<text text-anchor="middle" x="294" y="-253.9" font-family="Times Roman,serif" font-size="14.00">a</text>
</g>
<!-- b -->
<g id="node3" class="node"><title>b</title>
<ellipse fill="none" stroke="black" cx="294" cy="-183" rx="27" ry="19.0919"/>
<text text-anchor="middle" x="294" y="-179.9" font-family="Times Roman,serif" font-size="14.00">b</text>
</g>
<!-- a&#45;&gt;b -->
<g id="edge2" class="edge"><title>a&#45;&gt;b</title>
<path fill="none" stroke="black" d="M294,-237.943C294,-230.149 294,-220.954 294,-212.338"/>
<polygon fill="black" stroke="black" points="297.5,-212.249 294,-202.249 290.5,-212.249 297.5,-212.249"/>
</g>
<!-- x0 -->
<g id="node6" class="node"><title>x0</title>
<ellipse fill="none" stroke="black" cx="115" cy="-183" rx="27" ry="19.0919"/>
<text text-anchor="middle" x="115" y="-179.9" font-family="Times Roman,serif" font-size="14.00">x0</text>
</g>
<!-- a&#45;&gt;x0 -->
<g id="edge20" class="edge"><title>a&#45;&gt;x0</title>
<path fill="none" stroke="black" d="M267.828,-252.081C237.189,-245.576 185.6,-232.256 146,-210 143.434,-208.558 140.889,-206.879 138.427,-205.078"/>
<polygon fill="black" stroke="black" points="140.436,-202.202 130.455,-198.647 136.04,-207.65 140.436,-202.202"/>
</g>
<!-- z2 -->
<g id="node22" class="node"><title>z2</title>
<ellipse fill="none" stroke="black" cx="479" cy="-35" rx="27" ry="19.0919"/>
<text text-anchor="middle" x="479" y="-31.9" font-family="Times Roman,serif" font-size="14.00">z2</text>
</g>
<!-- a&#45;&gt;z2 -->
<g id="edge26" class="edge"><title>a&#45;&gt;z2</title>
<path fill="none" stroke="black" d="M315.11,-245.083C347.112,-226.005 407.884,-185.652 443,-136 458.426,-114.188 467.87,-85.0895 473.192,-63.7294"/>
<polygon fill="black" stroke="black" points="476.614,-64.4651 475.481,-53.931 469.797,-62.8725 476.614,-64.4651"/>
</g>
<!-- c -->
<g id="node4" class="node"><title>c</title>
<ellipse fill="none" stroke="black" cx="187" cy="-109" rx="27" ry="19.0919"/>
<text text-anchor="middle" x="187" y="-105.9" font-family="Times Roman,serif" font-size="14.00">c</text>
</g>
<!-- b&#45;&gt;c -->
<g id="edge3" class="edge"><title>b&#45;&gt;c</title>
<path fill="none" stroke="black" d="M272.759,-171.116C257.177,-162.102 235.733,-149.071 218,-136 215.889,-134.444 213.745,-132.778 211.621,-131.066"/>
<polygon fill="black" stroke="black" points="213.552,-128.117 203.642,-124.37 209.052,-133.479 213.552,-128.117"/>
</g>
<!-- x1 -->
<g id="node12" class="node"><title>x1</title>
<ellipse fill="none" stroke="black" cx="294" cy="-109" rx="27" ry="19.0919"/>
<text text-anchor="middle" x="294" y="-105.9" font-family="Times Roman,serif" font-size="14.00">x1</text>
</g>
<!-- b&#45;&gt;x1 -->
<g id="edge22" class="edge"><title>b&#45;&gt;x1</title>
<path fill="none" stroke="black" d="M294,-163.943C294,-156.149 294,-146.954 294,-138.338"/>
<polygon fill="black" stroke="black" points="297.5,-138.249 294,-128.249 290.5,-138.249 297.5,-138.249"/>
</g>
<!-- x2 -->
<g id="node18" class="node"><title>x2</title>
<ellipse fill="none" stroke="black" cx="407" cy="-109" rx="27" ry="19.0919"/>
<text text-anchor="middle" x="407" y="-105.9" font-family="Times Roman,serif" font-size="14.00">x2</text>
</g>
<!-- b&#45;&gt;x2 -->
<g id="edge24" class="edge"><title>b&#45;&gt;x2</title>
<path fill="none" stroke="black" d="M314.557,-170.249C329.485,-160.916 350.117,-147.862 368,-136 371.629,-133.593 375.422,-131.029 379.157,-128.474"/>
<polygon fill="black" stroke="black" points="381.415,-131.169 387.663,-122.612 377.443,-125.405 381.415,-131.169"/>
</g>
<!-- z1 -->
<g id="node16" class="node"><title>z1</title>
<ellipse fill="none" stroke="black" cx="257" cy="-35" rx="27" ry="19.0919"/>
<text text-anchor="middle" x="257" y="-31.9" font-family="Times Roman,serif" font-size="14.00">z1</text>
</g>
<!-- c&#45;&gt;z1 -->
<g id="edge28" class="edge"><title>c&#45;&gt;z1</title>
<path fill="none" stroke="black" d="M202.189,-92.9431C211.729,-82.8581 224.197,-69.6779 234.83,-58.4365"/>
<polygon fill="black" stroke="black" points="237.511,-60.6955 241.841,-51.0256 232.426,-55.8851 237.511,-60.6955"/>
</g>
<!-- y0 -->
<g id="node8" class="node"><title>y0</title>
<ellipse fill="none" stroke="black" cx="43" cy="-109" rx="27" ry="19.0919"/>
<text text-anchor="middle" x="43" y="-105.9" font-family="Times Roman,serif" font-size="14.00">y0</text>
</g>
<!-- x0&#45;&gt;y0 -->
<g id="edge6" class="edge"><title>x0&#45;&gt;y0</title>
<path fill="none" stroke="black" d="M99.7307,-167.307C89.7753,-157.075 76.6114,-143.545 65.4705,-132.095"/>
<polygon fill="black" stroke="black" points="67.9777,-129.653 58.4956,-124.926 62.9606,-134.534 67.9777,-129.653"/>
</g>
<!-- z0 -->
<g id="node10" class="node"><title>z0</title>
<ellipse fill="none" stroke="black" cx="115" cy="-109" rx="27" ry="19.0919"/>
<text text-anchor="middle" x="115" y="-105.9" font-family="Times Roman,serif" font-size="14.00">z0</text>
</g>
<!-- x0&#45;&gt;z0 -->
<g id="edge8" class="edge"><title>x0&#45;&gt;z0</title>
<path fill="none" stroke="black" d="M115,-163.943C115,-156.149 115,-146.954 115,-138.338"/>
<polygon fill="black" stroke="black" points="118.5,-138.249 115,-128.249 111.5,-138.249 118.5,-138.249"/>
</g>
<!-- y1 -->
<g id="node14" class="node"><title>y1</title>
<ellipse fill="none" stroke="black" cx="329" cy="-35" rx="27" ry="19.0919"/>
<text text-anchor="middle" x="329" y="-31.9" font-family="Times Roman,serif" font-size="14.00">y1</text>
</g>
<!-- x1&#45;&gt;y1 -->
<g id="edge11" class="edge"><title>x1&#45;&gt;y1</title>
<path fill="none" stroke="black" d="M302.652,-90.7079C306.721,-82.1051 311.655,-71.6713 316.149,-62.1699"/>
<polygon fill="black" stroke="black" points="319.336,-63.6181 320.448,-53.0817 313.008,-60.6251 319.336,-63.6181"/>
</g>
<!-- x1&#45;&gt;z1 -->
<g id="edge13" class="edge"><title>x1&#45;&gt;z1</title>
<path fill="none" stroke="black" d="M284.854,-90.7079C280.553,-82.1051 275.336,-71.6713 270.585,-62.1699"/>
<polygon fill="black" stroke="black" points="273.644,-60.4607 266.041,-53.0817 267.383,-63.5913 273.644,-60.4607"/>
</g>
<!-- y2 -->
<g id="node20" class="node"><title>y2</title>
<ellipse fill="none" stroke="black" cx="407" cy="-35" rx="27" ry="19.0919"/>
<text text-anchor="middle" x="407" y="-31.9" font-family="Times Roman,serif" font-size="14.00">y2</text>
</g>
<!-- x2&#45;&gt;y2 -->
<g id="edge16" class="edge"><title>x2&#45;&gt;y2</title>
<path fill="none" stroke="black" d="M407,-89.9432C407,-82.1493 407,-72.9538 407,-64.3381"/>
<polygon fill="black" stroke="black" points="410.5,-64.2494 407,-54.2495 403.5,-64.2495 410.5,-64.2494"/>
</g>
<!-- x2&#45;&gt;z2 -->
<g id="edge18" class="edge"><title>x2&#45;&gt;z2</title>
<path fill="none" stroke="black" d="M422.269,-93.3065C432.225,-83.0746 445.389,-69.545 456.529,-58.0947"/>
<polygon fill="black" stroke="black" points="459.039,-60.534 463.504,-50.926 454.022,-55.6525 459.039,-60.534"/>
</g>
</g>
</svg>
