<?xml version="1.0" encoding="UTF-8" standalone="no"?>
<!DOCTYPE svg PUBLIC "-//W3C//DTD SVG 1.1//EN"
 "http://www.w3.org/Graphics/SVG/1.1/DTD/svg11.dtd">
<!-- Generated by graphviz version 2.26.3 (20100126.1600)
 -->
<!-- Title: G Pages: 1 -->
<svg width="172pt" height="432pt"
 viewBox="0.00 0.00 172.00 432.00" xmlns="http://www.w3.org/2000/svg" xmlns:xlink="http://www.w3.org/1999/xlink">
<g id="graph1" class="graph" transform="scale(1 1) rotate(0) translate(4 428)">
<title>G</title>
<polygon fill="white" stroke="white" points="-4,5 -4,-428 169,-428 169,5 -4,5"/>
<g id="graph2" class="cluster"><title>cluster_c0</title>
<polygon fill="none" stroke="black" points="86,-8 86,-284 156,-284 156,-8 86,-8"/>
</g>
<g id="graph3" class="cluster"><title>cluster_c1</title>
<polygon fill="none" stroke="black" points="8,-82 8,-358 78,-358 78,-82 8,-82"/>
</g>
<!-- a0 -->
<g id="node2" class="node"><title>a0</title>
<ellipse fill="none" stroke="black" cx="121" cy="-257" rx="27" ry="19.0919"/>
<text text-anchor="middle" x="121" y="-253.9" font-family="Times Roman,serif" font-size="14.00">a0</text>
</g>
<!-- a1 -->
<g id="node4" class="node"><title>a1</title>
<ellipse fill="none" stroke="black" cx="121" cy="-183" rx="27" ry="19.0919"/>
<text text-anchor="middle" x="121" y="-179.9" font-family="Times Roman,serif" font-size="14.00">a1</text>
</g>
<!-- a0&#45;&gt;a1 -->
<g id="edge3" class="edge"><title>a0&#45;&gt;a1</title>
<path fill="none" stroke="black" d="M121,-237.943C121,-230.149 121,-220.954 121,-212.338"/>
<polygon fill="black" stroke="black" points="124.5,-212.249 121,-202.249 117.5,-212.249 124.5,-212.249"/>
</g>
<!-- a2 -->
<g id="node5" class="node"><title>a2</title>
<ellipse fill="none" stroke="black" cx="121" cy="-109" rx="27" ry="19.0919"/>
<text text-anchor="middle" x="121" y="-105.9" font-family="Times Roman,serif" font-size="14.00">a2</text>
</g>
<!-- a1&#45;&gt;a2 -->
<g id="edge4" class="edge"><title>a1&#45;&gt;a2</title>
<path fill="none" stroke="black" d="M121,-163.943C121,-156.149 121,-146.954 121,-138.338"/>
<polygon fill="black" stroke="black" points="124.5,-138.249 121,-128.249 117.5,-138.249 124.5,-138.249"/>
</g>
<!-- b3 -->
<g id="node12" class="node"><title>b3</title>
<ellipse fill="none" stroke="black" cx="43" cy="-109" rx="27" ry="19.0919"/>
<text text-anchor="middle" x="43" y="-105.9" font-family="Times Roman,serif" font-size="14.00">b3</text>
</g>
<!-- a1&#45;&gt;b3 -->
<g id="edge16" class="edge"><title>a1&#45;&gt;b3</title>
<path fill="none" stroke="black" d="M108.71,-165.837C98.32,-154.876 83.3849,-140.618 70.2947,-129.124"/>
<polygon fill="black" stroke="black" points="72.3067,-126.239 62.4397,-122.379 67.7464,-131.549 72.3067,-126.239"/>
</g>
<!-- a3 -->
<g id="node6" class="node"><title>a3</title>
<ellipse fill="none" stroke="black" cx="121" cy="-35" rx="27" ry="19.0919"/>
<text text-anchor="middle" x="121" y="-31.9" font-family="Times Roman,serif" font-size="14.00">a3</text>
</g>
<!-- a2&#45;&gt;a3 -->
<g id="edge5" class="edge"><title>a2&#45;&gt;a3</title>
<path fill="none" stroke="black" d="M121,-89.9432C121,-82.1493 121,-72.9538 121,-64.3381"/>
<polygon fill="black" stroke="black" points="124.5,-64.2494 121,-54.2495 117.5,-64.2495 124.5,-64.2494"/>
</g>
<!-- b0 -->
<g id="node8" class="node"><title>b0</title>
<ellipse fill="none" stroke="black" cx="43" cy="-331" rx="27" ry="19.0919"/>
<text text-anchor="middle" x="43" y="-327.9" font-family="Times Roman,serif" font-size="14.00">b0</text>
</g>
<!-- b1 -->
<g id="node10" class="node"><title>b1</title>
<ellipse fill="none" stroke="black" cx="43" cy="-257" rx="27" ry="19.0919"/>
<text text-anchor="middle" x="43" y="-253.9" font-family="Times Roman,serif" font-size="14.00">b1</text>
</g>
<!-- b0&#45;&gt;b1 -->
<g id="edge8" class="edge"><title>b0&#45;&gt;b1</title>
<path fill="none" stroke="black" d="M43,-311.943C43,-304.149 43,-294.954 43,-286.338"/>
<polygon fill="black" stroke="black" points="46.5001,-286.249 43,-276.249 39.5001,-286.249 46.5001,-286.249"/>
</g>
<!-- b2 -->
<g id="node11" class="node"><title>b2</title>
<ellipse fill="none" stroke="black" cx="43" cy="-183" rx="27" ry="19.0919"/>
<text text-anchor="middle" x="43" y="-179.9" font-family="Times Roman,serif" font-size="14.00">b2</text>
</g>
<!-- b1&#45;&gt;b2 -->
<g id="edge9" class="edge"><title>b1&#45;&gt;b2</title>
<path fill="none" stroke="black" d="M43,-237.943C43,-230.149 43,-220.954 43,-212.338"/>
<polygon fill="black" stroke="black" points="46.5001,-212.249 43,-202.249 39.5001,-212.249 46.5001,-212.249"/>
</g>
<!-- b2&#45;&gt;b3 -->
<g id="edge10" class="edge"><title>b2&#45;&gt;b3</title>
<path fill="none" stroke="black" d="M43,-163.943C43,-156.149 43,-146.954 43,-138.338"/>
<polygon fill="black" stroke="black" points="46.5001,-138.249 43,-128.249 39.5001,-138.249 46.5001,-138.249"/>
</g>
<!-- b3&#45;&gt;a1 -->
<g id="edge18" class="edge"><title>b3&#45;&gt;a1</title>
<path fill="none" stroke="black" d="M55.2625,-126.134C65.5971,-137.039 80.4414,-151.217 93.4919,-162.688"/>
<polygon fill="black" stroke="black" points="91.4651,-165.561 101.33,-169.427 96.0289,-160.254 91.4651,-165.561"/>
</g>
<!-- x -->
<g id="node13" class="node"><title>x</title>
<ellipse fill="none" stroke="black" cx="76" cy="-405" rx="27" ry="19.0919"/>
<text text-anchor="middle" x="76" y="-401.9" font-family="Times Roman,serif" font-size="14.00">x</text>
</g>
<!-- x&#45;&gt;a0 -->
<g id="edge12" class="edge"><title>x&#45;&gt;a0</title>
<path fill="none" stroke="black" d="M81.6993,-386.256C89.4423,-360.79 103.353,-315.04 112.377,-285.36"/>
<polygon fill="black" stroke="black" points="115.787,-286.178 115.347,-275.592 109.089,-284.141 115.787,-286.178"/>
</g>
<!-- x&#45;&gt;b0 -->
<g id="edge14" class="edge"><title>x&#45;&gt;b0</title>
<path fill="none" stroke="black" d="M67.8427,-386.708C64.0746,-378.258 59.5188,-368.042 55.343,-358.678"/>
<polygon fill="black" stroke="black" points="58.4473,-357.046 51.1778,-349.338 52.0542,-359.897 58.4473,-357.046"/>
</g>
</g>
</svg>
