<?xml version="1.0" encoding="UTF-8" standalone="no"?>
<!DOCTYPE svg PUBLIC "-//W3C//DTD SVG 1.1//EN"
 "http://www.w3.org/Graphics/SVG/1.1/DTD/svg11.dtd">
<!-- Generated by graphviz version 2.26.3 (20100126.1600)
 -->
<!-- Title: G Pages: 1 -->
<svg width="212pt" height="358pt"
 viewBox="0.00 0.00 212.00 358.00" xmlns="http://www.w3.org/2000/svg" xmlns:xlink="http://www.w3.org/1999/xlink">
<g id="graph1" class="graph" transform="scale(1 1) rotate(0) translate(4 354)">
<title>G</title>
<polygon fill="white" stroke="white" points="-4,5 -4,-354 209,-354 209,5 -4,5"/>
<g id="graph2" class="cluster"><title>cluster_c0</title>
<polygon fill="none" stroke="black" points="8,-8 8,-284 118,-284 118,-8 8,-8"/>
</g>
<g id="graph3" class="cluster"><title>cluster_c1</title>
<polygon fill="none" stroke="black" points="126,-8 126,-284 196,-284 196,-8 126,-8"/>
</g>
<!-- a0 -->
<g id="node2" class="node"><title>a0</title>
<ellipse fill="none" stroke="black" cx="83" cy="-257" rx="27" ry="19.0919"/>
<text text-anchor="middle" x="83" y="-253.9" font-family="Times Roman,serif" font-size="14.00">a0</text>
</g>
<!-- a1 -->
<g id="node4" class="node"><title>a1</title>
<ellipse fill="none" stroke="black" cx="63" cy="-183" rx="27" ry="19.0919"/>
<text text-anchor="middle" x="63" y="-179.9" font-family="Times Roman,serif" font-size="14.00">a1</text>
</g>
<!-- a0&#45;&gt;a1 -->
<g id="edge3" class="edge"><title>a0&#45;&gt;a1</title>
<path fill="none" stroke="black" d="M77.9532,-238.327C75.7503,-230.176 73.1185,-220.438 70.6812,-211.42"/>
<polygon fill="black" stroke="black" points="74.0332,-210.408 68.0452,-201.667 67.2756,-212.234 74.0332,-210.408"/>
</g>
<!-- a2 -->
<g id="node5" class="node"><title>a2</title>
<ellipse fill="none" stroke="black" cx="43" cy="-109" rx="27" ry="19.0919"/>
<text text-anchor="middle" x="43" y="-105.9" font-family="Times Roman,serif" font-size="14.00">a2</text>
</g>
<!-- a1&#45;&gt;a2 -->
<g id="edge4" class="edge"><title>a1&#45;&gt;a2</title>
<path fill="none" stroke="black" d="M57.9532,-164.327C55.7503,-156.176 53.1185,-146.438 50.6812,-137.42"/>
<polygon fill="black" stroke="black" points="54.0332,-136.408 48.0452,-127.667 47.2756,-138.234 54.0332,-136.408"/>
</g>
<!-- a3 -->
<g id="node6" class="node"><title>a3</title>
<ellipse fill="none" stroke="black" cx="83" cy="-35" rx="27" ry="19.0919"/>
<text text-anchor="middle" x="83" y="-31.9" font-family="Times Roman,serif" font-size="14.00">a3</text>
</g>
<!-- a1&#45;&gt;a3 -->
<g id="edge16" class="edge"><title>a1&#45;&gt;a3</title>
<path fill="none" stroke="black" d="M69.6141,-164.42C73.0584,-153.881 76.9661,-140.364 79,-128 82.4866,-106.805 83.431,-82.5492 83.5331,-64.1244"/>
<polygon fill="black" stroke="black" points="87.033,-64.0086 83.5088,-54.0171 80.033,-64.0256 87.033,-64.0086"/>
</g>
<!-- a2&#45;&gt;a3 -->
<g id="edge5" class="edge"><title>a2&#45;&gt;a3</title>
<path fill="none" stroke="black" d="M52.6829,-91.0867C57.4137,-82.3346 63.2051,-71.6205 68.4539,-61.9103"/>
<polygon fill="black" stroke="black" points="71.5914,-63.4663 73.2676,-53.0049 65.4334,-60.1376 71.5914,-63.4663"/>
</g>
<!-- a3&#45;&gt;a0 -->
<g id="edge18" class="edge"><title>a3&#45;&gt;a0</title>
<path fill="none" stroke="black" d="M87.7062,-53.8504C94.7972,-84.855 106.622,-148.512 99,-202 97.7433,-210.819 95.407,-220.2 92.9006,-228.671"/>
<polygon fill="black" stroke="black" points="89.4857,-227.862 89.82,-238.452 96.1624,-229.965 89.4857,-227.862"/>
</g>
<!-- b0 -->
<g id="node8" class="node"><title>b0</title>
<ellipse fill="none" stroke="black" cx="161" cy="-257" rx="27" ry="19.0919"/>
<text text-anchor="middle" x="161" y="-253.9" font-family="Times Roman,serif" font-size="14.00">b0</text>
</g>
<!-- b1 -->
<g id="node10" class="node"><title>b1</title>
<ellipse fill="none" stroke="black" cx="161" cy="-183" rx="27" ry="19.0919"/>
<text text-anchor="middle" x="161" y="-179.9" font-family="Times Roman,serif" font-size="14.00">b1</text>
</g>
<!-- b0&#45;&gt;b1 -->
<g id="edge8" class="edge"><title>b0&#45;&gt;b1</title>
<path fill="none" stroke="black" d="M161,-237.943C161,-230.149 161,-220.954 161,-212.338"/>
<polygon fill="black" stroke="black" points="164.5,-212.249 161,-202.249 157.5,-212.249 164.5,-212.249"/>
</g>
<!-- b2 -->
<g id="node11" class="node"><title>b2</title>
<ellipse fill="none" stroke="black" cx="161" cy="-109" rx="27" ry="19.0919"/>
<text text-anchor="middle" x="161" y="-105.9" font-family="Times Roman,serif" font-size="14.00">b2</text>
</g>
<!-- b1&#45;&gt;b2 -->
<g id="edge9" class="edge"><title>b1&#45;&gt;b2</title>
<path fill="none" stroke="black" d="M161,-163.943C161,-156.149 161,-146.954 161,-138.338"/>
<polygon fill="black" stroke="black" points="164.5,-138.249 161,-128.249 157.5,-138.249 164.5,-138.249"/>
</g>
<!-- b3 -->
<g id="node12" class="node"><title>b3</title>
<ellipse fill="none" stroke="black" cx="161" cy="-35" rx="27" ry="19.0919"/>
<text text-anchor="middle" x="161" y="-31.9" font-family="Times Roman,serif" font-size="14.00">b3</text>
</g>
<!-- b2&#45;&gt;b3 -->
<g id="edge10" class="edge"><title>b2&#45;&gt;b3</title>
<path fill="none" stroke="black" d="M161,-89.9432C161,-82.1493 161,-72.9538 161,-64.3381"/>
<polygon fill="black" stroke="black" points="164.5,-64.2494 161,-54.2495 157.5,-64.2495 164.5,-64.2494"/>
</g>
<!-- x -->
<g id="node13" class="node"><title>x</title>
<ellipse fill="none" stroke="black" cx="122" cy="-331" rx="27" ry="19.0919"/>
<text text-anchor="middle" x="122" y="-327.9" font-family="Times Roman,serif" font-size="14.00">x</text>
</g>
<!-- x&#45;&gt;a0 -->
<g id="edge12" class="edge"><title>x&#45;&gt;a0</title>
<path fill="none" stroke="black" d="M112.559,-313.087C107.947,-304.335 102.3,-293.621 97.1824,-283.91"/>
<polygon fill="black" stroke="black" points="100.248,-282.22 92.489,-275.005 94.0552,-285.483 100.248,-282.22"/>
</g>
<!-- x&#45;&gt;b0 -->
<g id="edge14" class="edge"><title>x&#45;&gt;b0</title>
<path fill="none" stroke="black" d="M131.441,-313.087C136.053,-304.335 141.7,-293.621 146.818,-283.91"/>
<polygon fill="black" stroke="black" points="149.945,-285.483 151.511,-275.005 143.752,-282.22 149.945,-285.483"/>
</g>
</g>
</svg>
