<?xml version="1.0" encoding="UTF-8" standalone="no"?>
<!DOCTYPE svg PUBLIC "-//W3C//DTD SVG 1.1//EN"
 "http://www.w3.org/Graphics/SVG/1.1/DTD/svg11.dtd">
<!-- Generated by graphviz version 2.26.3 (20100126.1600)
 -->
<!-- Title: G Pages: 1 -->
<svg width="224pt" height="437pt"
 viewBox="0.00 0.00 224.00 437.00" xmlns="http://www.w3.org/2000/svg" xmlns:xlink="http://www.w3.org/1999/xlink">
<g id="graph1" class="graph" transform="scale(1 1) rotate(0) translate(4 433)">
<title>G</title>
<polygon fill="white" stroke="white" points="-4,5 -4,-433 221,-433 221,5 -4,5"/>
<g id="graph2" class="cluster"><title>cluster_0</title>
<polygon fill="lightgrey" stroke="lightgrey" points="8,-64 8,-367 98,-367 98,-64 8,-64"/>
<text text-anchor="middle" x="53" y="-350.4" font-family="Times Roman,serif" font-size="14.00">process #1</text>
</g>
<g id="graph3" class="cluster"><title>cluster_1</title>
<polygon fill="none" stroke="blue" points="134,-64 134,-367 208,-367 208,-64 134,-64"/>
<text text-anchor="middle" x="171" y="-350.4" font-family="Times Roman,serif" font-size="14.00">process #2</text>
</g>
<!-- a0 -->
<g id="node2" class="node"><title>a0</title>
<ellipse fill="white" stroke="white" cx="63" cy="-313" rx="27" ry="19.0919"/>
<text text-anchor="middle" x="63" y="-309.9" font-family="Times Roman,serif" font-size="14.00">a0</text>
</g>
<!-- a1 -->
<g id="node4" class="node"><title>a1</title>
<ellipse fill="white" stroke="white" cx="63" cy="-239" rx="27" ry="19.0919"/>
<text text-anchor="middle" x="63" y="-235.9" font-family="Times Roman,serif" font-size="14.00">a1</text>
</g>
<!-- a0&#45;&gt;a1 -->
<g id="edge3" class="edge"><title>a0&#45;&gt;a1</title>
<path fill="none" stroke="black" d="M63,-293.943C63,-286.149 63,-276.954 63,-268.338"/>
<polygon fill="black" stroke="black" points="66.5001,-268.249 63,-258.249 59.5001,-268.249 66.5001,-268.249"/>
</g>
<!-- a2 -->
<g id="node5" class="node"><title>a2</title>
<ellipse fill="white" stroke="white" cx="63" cy="-165" rx="27" ry="19.0919"/>
<text text-anchor="middle" x="63" y="-161.9" font-family="Times Roman,serif" font-size="14.00">a2</text>
</g>
<!-- a1&#45;&gt;a2 -->
<g id="edge4" class="edge"><title>a1&#45;&gt;a2</title>
<path fill="none" stroke="black" d="M63,-219.943C63,-212.149 63,-202.954 63,-194.338"/>
<polygon fill="black" stroke="black" points="66.5001,-194.249 63,-184.249 59.5001,-194.249 66.5001,-194.249"/>
</g>
<!-- b3 -->
<g id="node12" class="node"><title>b3</title>
<ellipse fill="lightgrey" stroke="black" cx="169" cy="-91" rx="27" ry="19.0919"/>
<text text-anchor="middle" x="169" y="-87.9" font-family="Times Roman,serif" font-size="14.00">b3</text>
</g>
<!-- a1&#45;&gt;b3 -->
<g id="edge16" class="edge"><title>a1&#45;&gt;b3</title>
<path fill="none" stroke="black" d="M75.1595,-222.023C93.6706,-196.177 129.047,-146.784 150.68,-116.578"/>
<polygon fill="black" stroke="black" points="153.678,-118.403 156.656,-108.235 147.987,-114.327 153.678,-118.403"/>
</g>
<!-- a3 -->
<g id="node6" class="node"><title>a3</title>
<ellipse fill="white" stroke="white" cx="63" cy="-91" rx="27" ry="19.0919"/>
<text text-anchor="middle" x="63" y="-87.9" font-family="Times Roman,serif" font-size="14.00">a3</text>
</g>
<!-- a2&#45;&gt;a3 -->
<g id="edge5" class="edge"><title>a2&#45;&gt;a3</title>
<path fill="none" stroke="black" d="M63,-145.943C63,-138.149 63,-128.954 63,-120.338"/>
<polygon fill="black" stroke="black" points="66.5001,-120.249 63,-110.249 59.5001,-120.249 66.5001,-120.249"/>
</g>
<!-- a3&#45;&gt;a0 -->
<g id="edge20" class="edge"><title>a3&#45;&gt;a0</title>
<path fill="none" stroke="black" d="M48.5027,-107.523C40.4565,-117.822 31.2393,-131.783 27,-146 12.7763,-193.702 12.7763,-210.298 27,-258 30.2126,-268.774 36.2839,-279.401 42.5379,-288.398"/>
<polygon fill="black" stroke="black" points="39.7472,-290.511 48.5027,-296.477 45.3785,-286.353 39.7472,-290.511"/>
</g>
<!-- end -->
<g id="node20" class="node"><title>end</title>
<polygon fill="none" stroke="black" points="134,-36 98,-36 98,-1.77636e-14 134,-3.55271e-15 134,-36"/>
<polyline fill="none" stroke="black" points="110,-36 98,-24 "/>
<polyline fill="none" stroke="black" points="98,-12 110,-1.30266e-14 "/>
<polyline fill="none" stroke="black" points="122,-8.28967e-15 134,-12 "/>
<polyline fill="none" stroke="black" points="134,-24 122,-36 "/>
<text text-anchor="middle" x="116" y="-14.9" font-family="Times Roman,serif" font-size="14.00">end</text>
</g>
<!-- a3&#45;&gt;end -->
<g id="edge22" class="edge"><title>a3&#45;&gt;end</title>
<path fill="none" stroke="black" d="M75.2925,-74.0688C81.6784,-65.2732 89.627,-54.3251 96.8012,-44.4436"/>
<polygon fill="black" stroke="black" points="99.8049,-46.2638 102.848,-36.1153 94.1404,-42.1511 99.8049,-46.2638"/>
</g>
<!-- b0 -->
<g id="node8" class="node"><title>b0</title>
<ellipse fill="lightgrey" stroke="black" cx="171" cy="-313" rx="27" ry="19.0919"/>
<text text-anchor="middle" x="171" y="-309.9" font-family="Times Roman,serif" font-size="14.00">b0</text>
</g>
<!-- b1 -->
<g id="node10" class="node"><title>b1</title>
<ellipse fill="lightgrey" stroke="black" cx="172" cy="-239" rx="27" ry="19.0919"/>
<text text-anchor="middle" x="172" y="-235.9" font-family="Times Roman,serif" font-size="14.00">b1</text>
</g>
<!-- b0&#45;&gt;b1 -->
<g id="edge8" class="edge"><title>b0&#45;&gt;b1</title>
<path fill="none" stroke="black" d="M171.258,-293.943C171.363,-286.149 171.487,-276.954 171.604,-268.338"/>
<polygon fill="black" stroke="black" points="175.104,-268.296 171.74,-258.249 168.105,-268.201 175.104,-268.296"/>
</g>
<!-- b2 -->
<g id="node11" class="node"><title>b2</title>
<ellipse fill="lightgrey" stroke="black" cx="173" cy="-165" rx="27" ry="19.0919"/>
<text text-anchor="middle" x="173" y="-161.9" font-family="Times Roman,serif" font-size="14.00">b2</text>
</g>
<!-- b1&#45;&gt;b2 -->
<g id="edge9" class="edge"><title>b1&#45;&gt;b2</title>
<path fill="none" stroke="black" d="M172.258,-219.943C172.363,-212.149 172.487,-202.954 172.604,-194.338"/>
<polygon fill="black" stroke="black" points="176.104,-194.296 172.74,-184.249 169.105,-194.201 176.104,-194.296"/>
</g>
<!-- b2&#45;&gt;a3 -->
<g id="edge18" class="edge"><title>b2&#45;&gt;a3</title>
<path fill="none" stroke="black" d="M153.334,-151.77C136.078,-140.162 110.776,-123.14 91.3357,-110.062"/>
<polygon fill="black" stroke="black" points="93.1173,-107.042 82.8664,-104.365 89.21,-112.851 93.1173,-107.042"/>
</g>
<!-- b2&#45;&gt;b3 -->
<g id="edge10" class="edge"><title>b2&#45;&gt;b3</title>
<path fill="none" stroke="black" d="M171.97,-145.943C171.545,-138.088 171.044,-128.81 170.575,-120.136"/>
<polygon fill="black" stroke="black" points="174.061,-119.789 170.027,-109.992 167.072,-120.167 174.061,-119.789"/>
</g>
<!-- b3&#45;&gt;end -->
<g id="edge24" class="edge"><title>b3&#45;&gt;end</title>
<path fill="none" stroke="black" d="M156.708,-74.0688C150.322,-65.2732 142.373,-54.3251 135.199,-44.4436"/>
<polygon fill="black" stroke="black" points="137.86,-42.1511 129.152,-36.1153 132.195,-46.2638 137.86,-42.1511"/>
</g>
<!-- start -->
<g id="node13" class="node"><title>start</title>
<polygon fill="none" stroke="black" points="117,-429 77,-402 117,-375 157,-402 117,-429"/>
<polyline fill="none" stroke="black" points="86.9462,-408.714 86.9462,-395.286 "/>
<polyline fill="none" stroke="black" points="107.054,-381.714 126.946,-381.714 "/>
<polyline fill="none" stroke="black" points="147.054,-395.286 147.054,-408.714 "/>
<polyline fill="none" stroke="black" points="126.946,-422.286 107.054,-422.286 "/>
<text text-anchor="middle" x="117" y="-398.9" font-family="Times Roman,serif" font-size="14.00">start</text>
</g>
<!-- start&#45;&gt;a0 -->
<g id="edge12" class="edge"><title>start&#45;&gt;a0</title>
<path fill="none" stroke="black" d="M105.283,-382.688C97.5983,-370.023 87.451,-353.299 79.0234,-339.409"/>
<polygon fill="black" stroke="black" points="81.9563,-337.495 73.7767,-330.762 75.9717,-341.127 81.9563,-337.495"/>
</g>
<!-- start&#45;&gt;b0 -->
<g id="edge14" class="edge"><title>start&#45;&gt;b0</title>
<path fill="none" stroke="black" d="M128.717,-382.688C136.402,-370.023 146.549,-353.299 154.977,-339.409"/>
<polygon fill="black" stroke="black" points="158.028,-341.127 160.223,-330.762 152.044,-337.495 158.028,-341.127"/>
</g>
</g>
</svg>
