<?xml version="1.0" encoding="UTF-8" standalone="no"?>
<!DOCTYPE svg PUBLIC "-//W3C//DTD SVG 1.1//EN"
 "http://www.w3.org/Graphics/SVG/1.1/DTD/svg11.dtd">
<!-- Generated by graphviz version 2.26.3 (20100126.1600)
 -->
<!-- Title: G Pages: 1 -->
<svg width="356pt" height="250pt"
 viewBox="0.00 0.00 356.00 250.00" xmlns="http://www.w3.org/2000/svg" xmlns:xlink="http://www.w3.org/1999/xlink">
<g id="graph1" class="graph" transform="scale(1 1) rotate(0) translate(4 246)">
<title>G</title>
<polygon fill="white" stroke="white" points="-4,5 -4,-246 353,-246 353,5 -4,5"/>
<!-- xyz -->
<g id="node1" class="node"><title>xyz</title>
<ellipse fill="slateblue" stroke="slateblue" cx="68" cy="-195" rx="58.1882" ry="46.669"/>
<text text-anchor="middle" x="68" y="-202.4" font-family="Palatino Linotype,serif" font-style="italic" font-size="24.00" fill="hotpink">hello</text>
<text text-anchor="middle" x="68" y="-173.4" font-family="Palatino Linotype,serif" font-style="italic" font-size="24.00" fill="hotpink">world</text>
</g>
<!-- red -->
<g id="node2" class="node"><title>red</title>
<ellipse fill="red" stroke="red" cx="171" cy="-195" rx="27" ry="19.0919"/>
<text text-anchor="middle" x="171" y="-191.9" font-family="Times Roman,serif" font-size="14.00">red</text>
</g>
<!-- green -->
<g id="node3" class="node"><title>green</title>
<ellipse fill="green" stroke="green" cx="129" cy="-93" rx="33.234" ry="19.0919"/>
<text text-anchor="middle" x="129" y="-89.9" font-family="Times Roman,serif" font-size="14.00">green</text>
</g>
<!-- red&#45;&gt;green -->
<g id="edge2" class="edge"><title>red&#45;&gt;green</title>
<path fill="none" stroke="black" d="M163.297,-176.292C156.962,-160.907 147.884,-138.862 140.66,-121.316"/>
<polygon fill="black" stroke="black" points="143.699,-119.504 136.655,-111.59 137.226,-122.169 143.699,-119.504"/>
</g>
<!-- blue -->
<g id="node4" class="node"><title>blue</title>
<ellipse fill="blue" stroke="blue" cx="213" cy="-93" rx="27.7881" ry="19.0919"/>
<text text-anchor="middle" x="213" y="-89.9" font-family="Times Roman,serif" font-size="14.00">blue</text>
</g>
<!-- red&#45;&gt;blue -->
<g id="edge4" class="edge"><title>red&#45;&gt;blue</title>
<path fill="none" stroke="black" d="M178.703,-176.292C185.038,-160.907 194.116,-138.862 201.34,-121.316"/>
<polygon fill="black" stroke="black" points="204.774,-122.169 205.345,-111.59 198.301,-119.504 204.774,-122.169"/>
</g>
<!-- yellow -->
<g id="node7" class="node"><title>yellow</title>
<ellipse fill="yellow" stroke="yellow" cx="37" cy="-19" rx="36.977" ry="19.0919"/>
<text text-anchor="middle" x="37" y="-15.9" font-family="Times Roman,serif" font-size="14.00">yellow</text>
</g>
<!-- green&#45;&gt;yellow -->
<g id="edge10" class="edge"><title>green&#45;&gt;yellow</title>
<path fill="none" stroke="black" d="M109.489,-77.3065C96.6143,-66.9506 79.5397,-53.2167 65.1961,-41.6794"/>
<polygon fill="black" stroke="black" points="67.1045,-38.7228 57.1187,-35.1824 62.7172,-44.1773 67.1045,-38.7228"/>
</g>
<!-- orange -->
<g id="node8" class="node"><title>orange</title>
<ellipse fill="orange" stroke="orange" cx="129" cy="-19" rx="36.977" ry="19.0919"/>
<text text-anchor="middle" x="129" y="-15.9" font-family="Times Roman,serif" font-size="14.00">orange</text>
</g>
<!-- green&#45;&gt;orange -->
<g id="edge12" class="edge"><title>green&#45;&gt;orange</title>
<path fill="none" stroke="black" d="M129,-73.9432C129,-66.1493 129,-56.9538 129,-48.3381"/>
<polygon fill="black" stroke="black" points="132.5,-48.2494 129,-38.2495 125.5,-48.2495 132.5,-48.2494"/>
</g>
<!-- cyan -->
<g id="node5" class="node"><title>cyan</title>
<ellipse fill="cyan" stroke="cyan" cx="213" cy="-19" rx="29.1951" ry="19.0919"/>
<text text-anchor="middle" x="213" y="-15.9" font-family="Times Roman,serif" font-size="14.00">cyan</text>
</g>
<!-- blue&#45;&gt;cyan -->
<g id="edge6" class="edge"><title>blue&#45;&gt;cyan</title>
<path fill="none" stroke="black" d="M213,-73.9432C213,-66.1493 213,-56.9538 213,-48.3381"/>
<polygon fill="black" stroke="black" points="216.5,-48.2494 213,-38.2495 209.5,-48.2495 216.5,-48.2494"/>
</g>
<!-- magenta -->
<g id="node6" class="node"><title>magenta</title>
<ellipse fill="magenta" stroke="magenta" cx="304" cy="-19" rx="44.0472" ry="19.0919"/>
<text text-anchor="middle" x="304" y="-15.9" font-family="Times Roman,serif" font-size="14.00">magenta</text>
</g>
<!-- blue&#45;&gt;magenta -->
<g id="edge8" class="edge"><title>blue&#45;&gt;magenta</title>
<path fill="none" stroke="black" d="M230.979,-78.38C243.535,-68.169 260.572,-54.3154 275.03,-42.5577"/>
<polygon fill="black" stroke="black" points="277.642,-44.9452 283.192,-35.9206 273.226,-39.5142 277.642,-44.9452"/>
</g>
</g>
</svg>
