<?xml version="1.0" encoding="UTF-8" standalone="no"?>
<!DOCTYPE svg PUBLIC "-//W3C//DTD SVG 1.1//EN"
 "http://www.w3.org/Graphics/SVG/1.1/DTD/svg11.dtd">
<!-- Generated by graphviz version 2.26.3 (20100126.1600)
 -->
<!-- Title: G Pages: 1 -->
<svg width="316pt" height="260pt"
 viewBox="0.00 0.00 316.00 260.00" xmlns="http://www.w3.org/2000/svg" xmlns:xlink="http://www.w3.org/1999/xlink">
<g id="graph1" class="graph" transform="scale(1 1) rotate(0) translate(4 256)">
<title>G</title>
<polygon fill="white" stroke="white" points="-4,5 -4,-256 313,-256 313,5 -4,5"/>
<g id="graph2" class="cluster"><title>cluster_0</title>
<polygon fill="none" stroke="hotpink" points="158,-8 158,-163 300,-163 300,-8 158,-8"/>
<text text-anchor="middle" x="229" y="-146.4" font-family="Times Roman,serif" font-size="14.00">hello world</text>
</g>
<g id="graph3" class="cluster"><title>cluster_1</title>
<polygon fill="none" stroke="purple" stroke-dasharray="5,2" points="8,-8 8,-244 150,-244 150,-8 8,-8"/>
<text text-anchor="middle" x="79" y="-227.4" font-family="Times Roman,serif" font-size="14.00">MSDOT</text>
</g>
<!-- a -->
<g id="node2" class="node"><title>a</title>
<ellipse fill="none" stroke="black" cx="193" cy="-109" rx="27" ry="19.0919"/>
<text text-anchor="middle" x="193" y="-105.9" font-family="Times Roman,serif" font-size="14.00">a</text>
</g>
<!-- b -->
<g id="node4" class="node"><title>b</title>
<ellipse fill="none" stroke="black" cx="193" cy="-35" rx="27" ry="19.0919"/>
<text text-anchor="middle" x="193" y="-31.9" font-family="Times Roman,serif" font-size="14.00">b</text>
</g>
<!-- a&#45;&gt;b -->
<g id="edge3" class="edge"><title>a&#45;&gt;b</title>
<path fill="none" stroke="black" d="M193,-89.9432C193,-82.1493 193,-72.9538 193,-64.3381"/>
<polygon fill="black" stroke="black" points="196.5,-64.2494 193,-54.2495 189.5,-64.2495 196.5,-64.2494"/>
</g>
<!-- c -->
<g id="node6" class="node"><title>c</title>
<ellipse fill="none" stroke="black" cx="265" cy="-35" rx="27" ry="19.0919"/>
<text text-anchor="middle" x="265" y="-31.9" font-family="Times Roman,serif" font-size="14.00">c</text>
</g>
<!-- a&#45;&gt;c -->
<g id="edge5" class="edge"><title>a&#45;&gt;c</title>
<path fill="none" stroke="black" d="M208.269,-93.3065C218.225,-83.0746 231.389,-69.545 242.529,-58.0947"/>
<polygon fill="black" stroke="black" points="245.039,-60.534 249.504,-50.926 240.022,-55.6525 245.039,-60.534"/>
</g>
<!-- x -->
<g id="node8" class="node"><title>x</title>
<ellipse fill="none" stroke="black" cx="79" cy="-190" rx="27" ry="19.0919"/>
<text text-anchor="middle" x="79" y="-186.9" font-family="Times Roman,serif" font-size="14.00">x</text>
</g>
<!-- y -->
<g id="node10" class="node"><title>y</title>
<ellipse fill="none" stroke="black" cx="115" cy="-109" rx="27" ry="19.0919"/>
<text text-anchor="middle" x="115" y="-105.9" font-family="Times Roman,serif" font-size="14.00">y</text>
</g>
<!-- x&#45;&gt;y -->
<g id="edge8" class="edge"><title>x&#45;&gt;y</title>
<path fill="none" stroke="black" d="M87.169,-171.62C91.7718,-161.263 97.6118,-148.123 102.752,-136.557"/>
<polygon fill="black" stroke="black" points="106,-137.867 106.863,-127.307 99.6036,-135.024 106,-137.867"/>
</g>
<!-- z -->
<g id="node12" class="node"><title>z</title>
<ellipse fill="none" stroke="black" cx="43" cy="-35" rx="27" ry="19.0919"/>
<text text-anchor="middle" x="43" y="-31.9" font-family="Times Roman,serif" font-size="14.00">z</text>
</g>
<!-- x&#45;&gt;z -->
<g id="edge10" class="edge"><title>x&#45;&gt;z</title>
<path fill="none" stroke="black" d="M74.5857,-170.994C68.3781,-144.267 57.0165,-95.3489 49.7459,-64.0449"/>
<polygon fill="black" stroke="black" points="53.1221,-63.1104 47.4504,-54.1615 46.3036,-64.6941 53.1221,-63.1104"/>
</g>
<!-- y&#45;&gt;b -->
<g id="edge20" class="edge"><title>y&#45;&gt;b</title>
<path fill="none" stroke="black" d="M131.162,-93.6672C142.248,-83.1498 157.135,-69.026 169.524,-57.2721"/>
<polygon fill="black" stroke="black" points="172.013,-59.735 176.859,-50.3132 167.195,-54.6567 172.013,-59.735"/>
</g>
<!-- y&#45;&gt;z -->
<g id="edge12" class="edge"><title>y&#45;&gt;z</title>
<path fill="none" stroke="black" d="M99.7307,-93.3065C89.7753,-83.0746 76.6114,-69.545 65.4705,-58.0947"/>
<polygon fill="black" stroke="black" points="67.9777,-55.6525 58.4956,-50.926 62.9606,-60.534 67.9777,-55.6525"/>
</g>
<!-- q -->
<g id="node15" class="node"><title>q</title>
<ellipse fill="none" stroke="black" cx="115" cy="-35" rx="27" ry="19.0919"/>
<text text-anchor="middle" x="115" y="-31.9" font-family="Times Roman,serif" font-size="14.00">q</text>
</g>
<!-- y&#45;&gt;q -->
<g id="edge14" class="edge"><title>y&#45;&gt;q</title>
<path fill="none" stroke="black" d="M115,-89.9432C115,-82.1493 115,-72.9538 115,-64.3381"/>
<polygon fill="black" stroke="black" points="118.5,-64.2494 115,-54.2495 111.5,-64.2495 118.5,-64.2494"/>
</g>
<!-- top -->
<g id="node16" class="node"><title>top</title>
<ellipse fill="none" stroke="black" cx="189" cy="-190" rx="27" ry="19.0919"/>
<text text-anchor="middle" x="189" y="-186.9" font-family="Times Roman,serif" font-size="14.00">top</text>
</g>
<!-- top&#45;&gt;a -->
<g id="edge16" class="edge"><title>top&#45;&gt;a</title>
<path fill="none" stroke="black" d="M189.948,-170.804C190.426,-161.12 191.017,-149.164 191.55,-138.356"/>
<polygon fill="black" stroke="black" points="195.061,-138.219 192.059,-128.058 188.07,-137.873 195.061,-138.219"/>
</g>
<!-- top&#45;&gt;y -->
<g id="edge18" class="edge"><title>top&#45;&gt;y</title>
<path fill="none" stroke="black" d="M169.635,-176.644C164.304,-172.556 158.699,-167.85 154,-163 145.828,-154.566 138.003,-144.327 131.535,-135.041"/>
<polygon fill="black" stroke="black" points="134.279,-132.85 125.783,-126.52 128.478,-136.767 134.279,-132.85"/>
</g>
</g>
</svg>
