<?xml version="1.0" encoding="UTF-8" standalone="no"?>
<!DOCTYPE svg PUBLIC "-//W3C//DTD SVG 1.1//EN"
 "http://www.w3.org/Graphics/SVG/1.1/DTD/svg11.dtd">
<!-- Generated by graphviz version 2.26.3 (20100126.1600)
 -->
<!-- Title: G Pages: 1 -->
<svg width="242pt" height="358pt"
 viewBox="0.00 0.00 242.00 358.00" xmlns="http://www.w3.org/2000/svg" xmlns:xlink="http://www.w3.org/1999/xlink">
<g id="graph1" class="graph" transform="scale(1 1) rotate(0) translate(4 354)">
<title>G</title>
<polygon fill="white" stroke="white" points="-4,5 -4,-354 239,-354 239,5 -4,5"/>
<g id="graph2" class="cluster"><title>cluster_c0</title>
<polygon fill="none" stroke="black" points="8,-8 8,-284 78,-284 78,-8 8,-8"/>
</g>
<g id="graph3" class="cluster"><title>cluster_c1</title>
<polygon fill="none" stroke="black" points="156,-8 156,-284 226,-284 226,-8 156,-8"/>
</g>
<!-- a0 -->
<g id="node2" class="node"><title>a0</title>
<ellipse fill="none" stroke="black" cx="43" cy="-257" rx="27" ry="19.0919"/>
<text text-anchor="middle" x="43" y="-253.9" font-family="Times Roman,serif" font-size="14.00">a0</text>
</g>
<!-- a1 -->
<g id="node4" class="node"><title>a1</title>
<ellipse fill="none" stroke="black" cx="43" cy="-183" rx="27" ry="19.0919"/>
<text text-anchor="middle" x="43" y="-179.9" font-family="Times Roman,serif" font-size="14.00">a1</text>
</g>
<!-- a0&#45;&gt;a1 -->
<g id="edge3" class="edge"><title>a0&#45;&gt;a1</title>
<path fill="none" stroke="black" d="M43,-237.943C43,-230.149 43,-220.954 43,-212.338"/>
<polygon fill="black" stroke="black" points="46.5001,-212.249 43,-202.249 39.5001,-212.249 46.5001,-212.249"/>
</g>
<!-- a2 -->
<g id="node5" class="node"><title>a2</title>
<ellipse fill="none" stroke="black" cx="43" cy="-109" rx="27" ry="19.0919"/>
<text text-anchor="middle" x="43" y="-105.9" font-family="Times Roman,serif" font-size="14.00">a2</text>
</g>
<!-- a1&#45;&gt;a2 -->
<g id="edge4" class="edge"><title>a1&#45;&gt;a2</title>
<path fill="none" stroke="black" d="M43,-163.943C43,-156.149 43,-146.954 43,-138.338"/>
<polygon fill="black" stroke="black" points="46.5001,-138.249 43,-128.249 39.5001,-138.249 46.5001,-138.249"/>
</g>
<!-- b3 -->
<g id="node12" class="node"><title>b3</title>
<ellipse fill="none" stroke="black" cx="191" cy="-35" rx="27" ry="19.0919"/>
<text text-anchor="middle" x="191" y="-31.9" font-family="Times Roman,serif" font-size="14.00">b3</text>
</g>
<!-- a1&#45;&gt;b3 -->
<g id="edge16" class="edge"><title>a1&#45;&gt;b3</title>
<path fill="none" stroke="black" d="M58.5589,-167.441C84.6944,-141.306 137.532,-88.4677 167.976,-58.0235"/>
<polygon fill="black" stroke="black" points="170.608,-60.3418 175.204,-50.7958 165.658,-55.3921 170.608,-60.3418"/>
</g>
<!-- a3 -->
<g id="node6" class="node"><title>a3</title>
<ellipse fill="none" stroke="black" cx="43" cy="-35" rx="27" ry="19.0919"/>
<text text-anchor="middle" x="43" y="-31.9" font-family="Times Roman,serif" font-size="14.00">a3</text>
</g>
<!-- a2&#45;&gt;a3 -->
<g id="edge5" class="edge"><title>a2&#45;&gt;a3</title>
<path fill="none" stroke="black" d="M43,-89.9432C43,-82.1493 43,-72.9538 43,-64.3381"/>
<polygon fill="black" stroke="black" points="46.5001,-64.2494 43,-54.2495 39.5001,-64.2495 46.5001,-64.2494"/>
</g>
<!-- b0 -->
<g id="node8" class="node"><title>b0</title>
<ellipse fill="none" stroke="black" cx="191" cy="-257" rx="27" ry="19.0919"/>
<text text-anchor="middle" x="191" y="-253.9" font-family="Times Roman,serif" font-size="14.00">b0</text>
</g>
<!-- b1 -->
<g id="node10" class="node"><title>b1</title>
<ellipse fill="none" stroke="black" cx="191" cy="-183" rx="27" ry="19.0919"/>
<text text-anchor="middle" x="191" y="-179.9" font-family="Times Roman,serif" font-size="14.00">b1</text>
</g>
<!-- b0&#45;&gt;b1 -->
<g id="edge8" class="edge"><title>b0&#45;&gt;b1</title>
<path fill="none" stroke="black" d="M191,-237.943C191,-230.149 191,-220.954 191,-212.338"/>
<polygon fill="black" stroke="black" points="194.5,-212.249 191,-202.249 187.5,-212.249 194.5,-212.249"/>
</g>
<!-- b1&#45;&gt;a3 -->
<g id="edge18" class="edge"><title>b1&#45;&gt;a3</title>
<path fill="none" stroke="black" d="M175.441,-167.441C149.306,-141.306 96.4677,-88.4677 66.0235,-58.0235"/>
<polygon fill="black" stroke="black" points="68.3418,-55.3921 58.7958,-50.7958 63.3921,-60.3418 68.3418,-55.3921"/>
</g>
<!-- b2 -->
<g id="node11" class="node"><title>b2</title>
<ellipse fill="none" stroke="black" cx="191" cy="-109" rx="27" ry="19.0919"/>
<text text-anchor="middle" x="191" y="-105.9" font-family="Times Roman,serif" font-size="14.00">b2</text>
</g>
<!-- b1&#45;&gt;b2 -->
<g id="edge9" class="edge"><title>b1&#45;&gt;b2</title>
<path fill="none" stroke="black" d="M191,-163.943C191,-156.149 191,-146.954 191,-138.338"/>
<polygon fill="black" stroke="black" points="194.5,-138.249 191,-128.249 187.5,-138.249 194.5,-138.249"/>
</g>
<!-- b2&#45;&gt;b3 -->
<g id="edge10" class="edge"><title>b2&#45;&gt;b3</title>
<path fill="none" stroke="black" d="M191,-89.9432C191,-82.1493 191,-72.9538 191,-64.3381"/>
<polygon fill="black" stroke="black" points="194.5,-64.2494 191,-54.2495 187.5,-64.2495 194.5,-64.2494"/>
</g>
<!-- x -->
<g id="node13" class="node"><title>x</title>
<ellipse fill="none" stroke="black" cx="117" cy="-331" rx="27" ry="19.0919"/>
<text text-anchor="middle" x="117" y="-327.9" font-family="Times Roman,serif" font-size="14.00">x</text>
</g>
<!-- x&#45;&gt;a0 -->
<g id="edge12" class="edge"><title>x&#45;&gt;a0</title>
<path fill="none" stroke="black" d="M101.307,-315.307C91.005,-305.005 77.3608,-291.361 65.8613,-279.861"/>
<polygon fill="black" stroke="black" points="68.2169,-277.267 58.6709,-272.671 63.2671,-282.217 68.2169,-277.267"/>
</g>
<!-- x&#45;&gt;b0 -->
<g id="edge14" class="edge"><title>x&#45;&gt;b0</title>
<path fill="none" stroke="black" d="M132.693,-315.307C142.995,-305.005 156.639,-291.361 168.139,-279.861"/>
<polygon fill="black" stroke="black" points="170.733,-282.217 175.329,-272.671 165.783,-277.267 170.733,-282.217"/>
</g>
</g>
</svg>
