<?xml version="1.0" encoding="UTF-8" standalone="no"?>
<!DOCTYPE svg PUBLIC "-//W3C//DTD SVG 1.1//EN"
 "http://www.w3.org/Graphics/SVG/1.1/DTD/svg11.dtd">
<!-- Generated by graphviz version 2.29.20121107.0545 (20121107.0545)
 -->
<!-- Title: g Pages: 1 -->
<svg width="212pt" height="660pt"
 viewBox="0.00 0.00 212.00 660.00" xmlns="http://www.w3.org/2000/svg" xmlns:xlink="http://www.w3.org/1999/xlink">
<g id="graph0" class="graph" transform="scale(1 1) rotate(0) translate(4 656)">
<title>g</title>
<polygon fill="white" stroke="white" points="-4,5 -4,-656 209,-656 209,5 -4,5"/>
<!-- start -->
<g id="node1" class="node"><title>start</title>
<ellipse fill="none" stroke="black" cx="111" cy="-634" rx="42.3456" ry="18"/>
<text text-anchor="middle" x="111" y="-630.3" font-family="Times,serif" font-size="14.00">MWGC&#45;</text>
</g>
<!-- n1 -->
<g id="node2" class="node"><title>n1</title>
<ellipse fill="none" stroke="black" cx="111" cy="-546" rx="42.3456" ry="18"/>
<text text-anchor="middle" x="111" y="-542.3" font-family="Times,serif" font-size="14.00">WC&#45;MG</text>
</g>
<!-- start&#45;&gt;n1 -->
<g id="edge1" class="edge"><title>start&#45;&gt;n1</title>
<path fill="none" stroke="black" d="M103.985,-616.202C101.955,-610.525 100.014,-604.083 99,-598 97.8309,-590.986 97.8309,-589.014 99,-582 99.4594,-579.244 100.109,-576.414 100.871,-573.614"/>
<polygon fill="black" stroke="black" points="104.298,-574.388 103.985,-563.798 97.6253,-572.271 104.298,-574.388"/>
<text text-anchor="middle" x="102.5" y="-586.3" font-family="Times,serif" font-size="14.00">g</text>
</g>
<!-- n1&#45;&gt;start -->
<g id="edge2" class="edge"><title>n1&#45;&gt;start</title>
<path fill="none" stroke="black" d="M111,-564.084C111,-575.861 111,-591.774 111,-605.342"/>
<polygon fill="black" stroke="black" points="107.5,-605.597 111,-615.597 114.5,-605.597 107.5,-605.597"/>
<text text-anchor="middle" x="114.5" y="-586.3" font-family="Times,serif" font-size="14.00">g</text>
</g>
<!-- n2 -->
<g id="node3" class="node"><title>n2</title>
<ellipse fill="none" stroke="black" cx="111" cy="-458" rx="42.3456" ry="18"/>
<text text-anchor="middle" x="111" y="-454.3" font-family="Times,serif" font-size="14.00">MWC&#45;G</text>
</g>
<!-- n1&#45;&gt;n2 -->
<g id="edge3" class="edge"><title>n1&#45;&gt;n2</title>
<path fill="none" stroke="black" d="M101.662,-528.419C98.9557,-522.756 96.3646,-516.267 95,-510 93.4871,-503.052 93.4871,-500.948 95,-494 95.661,-490.964 96.6097,-487.877 97.7199,-484.856"/>
<polygon fill="black" stroke="black" points="100.971,-486.154 101.662,-475.581 94.529,-483.416 100.971,-486.154"/>
<text text-anchor="middle" x="101" y="-498.3" font-family="Times,serif" font-size="14.00">m</text>
</g>
<!-- n2&#45;&gt;n1 -->
<g id="edge4" class="edge"><title>n2&#45;&gt;n1</title>
<path fill="none" stroke="black" d="M111,-476.084C111,-487.861 111,-503.774 111,-517.342"/>
<polygon fill="black" stroke="black" points="107.5,-517.597 111,-527.597 114.5,-517.597 107.5,-517.597"/>
<text text-anchor="middle" x="117" y="-498.3" font-family="Times,serif" font-size="14.00">m</text>
</g>
<!-- n3 -->
<g id="node4" class="node"><title>n3</title>
<ellipse fill="none" stroke="black" cx="57" cy="-370" rx="42.3456" ry="18"/>
<text text-anchor="middle" x="57" y="-366.3" font-family="Times,serif" font-size="14.00">C&#45;MWG</text>
</g>
<!-- n2&#45;&gt;n3 -->
<g id="edge5" class="edge"><title>n2&#45;&gt;n3</title>
<path fill="none" stroke="black" d="M84.4177,-443.932C75.8533,-438.371 67.232,-431.051 62,-422 57.9135,-414.931 56.1145,-406.375 55.488,-398.307"/>
<polygon fill="black" stroke="black" points="58.9833,-398.063 55.2461,-388.149 51.9853,-398.229 58.9833,-398.063"/>
<text text-anchor="middle" x="67" y="-410.3" font-family="Times,serif" font-size="14.00">w</text>
</g>
<!-- n4 -->
<g id="node5" class="node"><title>n4</title>
<ellipse fill="none" stroke="black" cx="161" cy="-370" rx="42.3456" ry="18"/>
<text text-anchor="middle" x="161" y="-366.3" font-family="Times,serif" font-size="14.00">W&#45;MGC</text>
</g>
<!-- n2&#45;&gt;n4 -->
<g id="edge7" class="edge"><title>n2&#45;&gt;n4</title>
<path fill="none" stroke="black" d="M116.593,-439.851C120.271,-429.654 125.587,-416.669 132,-406 134.241,-402.272 136.862,-398.526 139.595,-394.944"/>
<polygon fill="black" stroke="black" points="142.481,-396.941 146.049,-386.966 137.038,-392.539 142.481,-396.941"/>
<text text-anchor="middle" x="135.5" y="-410.3" font-family="Times,serif" font-size="14.00">c</text>
</g>
<!-- n3&#45;&gt;n2 -->
<g id="edge6" class="edge"><title>n3&#45;&gt;n2</title>
<path fill="none" stroke="black" d="M67.3798,-387.531C75.2155,-400.01 86.1076,-417.357 95.0473,-431.594"/>
<polygon fill="black" stroke="black" points="92.3064,-433.811 100.588,-440.418 98.2347,-430.088 92.3064,-433.811"/>
<text text-anchor="middle" x="94" y="-410.3" font-family="Times,serif" font-size="14.00">w</text>
</g>
<!-- n5 -->
<g id="node6" class="node"><title>n5</title>
<ellipse fill="none" stroke="black" cx="42" cy="-282" rx="42.3456" ry="18"/>
<text text-anchor="middle" x="42" y="-278.3" font-family="Times,serif" font-size="14.00">MGC&#45;W</text>
</g>
<!-- n3&#45;&gt;n5 -->
<g id="edge9" class="edge"><title>n3&#45;&gt;n5</title>
<path fill="none" stroke="black" d="M45.9261,-352.613C42.7139,-346.963 39.6336,-340.433 38,-334 36.0765,-326.425 35.948,-318.031 36.6078,-310.277"/>
<polygon fill="black" stroke="black" points="40.0948,-310.601 37.9016,-300.236 33.1522,-309.707 40.0948,-310.601"/>
<text text-anchor="middle" x="41.5" y="-322.3" font-family="Times,serif" font-size="14.00">g</text>
</g>
<!-- n4&#45;&gt;n2 -->
<g id="edge8" class="edge"><title>n4&#45;&gt;n2</title>
<path fill="none" stroke="black" d="M154.49,-388.033C150.326,-398.19 144.496,-411.172 138,-422 135.884,-425.527 133.471,-429.111 130.977,-432.574"/>
<polygon fill="black" stroke="black" points="127.975,-430.742 124.738,-440.83 133.559,-434.962 127.975,-430.742"/>
<text text-anchor="middle" x="149.5" y="-410.3" font-family="Times,serif" font-size="14.00">c</text>
</g>
<!-- n6 -->
<g id="node7" class="node"><title>n6</title>
<ellipse fill="none" stroke="black" cx="146" cy="-282" rx="42.3456" ry="18"/>
<text text-anchor="middle" x="146" y="-278.3" font-family="Times,serif" font-size="14.00">MWG&#45;C</text>
</g>
<!-- n4&#45;&gt;n6 -->
<g id="edge11" class="edge"><title>n4&#45;&gt;n6</title>
<path fill="none" stroke="black" d="M145.329,-353.246C140.768,-347.639 136.377,-340.973 134,-334 131.317,-326.13 132.08,-317.379 134.17,-309.378"/>
<polygon fill="black" stroke="black" points="137.531,-310.362 137.368,-299.768 130.889,-308.152 137.531,-310.362"/>
<text text-anchor="middle" x="137.5" y="-322.3" font-family="Times,serif" font-size="14.00">g</text>
</g>
<!-- n5&#45;&gt;n3 -->
<g id="edge10" class="edge"><title>n5&#45;&gt;n3</title>
<path fill="none" stroke="black" d="M45.0087,-300.25C47.0808,-312.13 49.8771,-328.162 52.2481,-341.756"/>
<polygon fill="black" stroke="black" points="48.8702,-342.759 54.0365,-352.009 55.7661,-341.556 48.8702,-342.759"/>
<text text-anchor="middle" x="54.5" y="-322.3" font-family="Times,serif" font-size="14.00">g</text>
</g>
<!-- n7 -->
<g id="node8" class="node"><title>n7</title>
<ellipse fill="none" stroke="black" cx="95" cy="-194" rx="42.3456" ry="18"/>
<text text-anchor="middle" x="95" y="-190.3" font-family="Times,serif" font-size="14.00">G&#45;MWC</text>
</g>
<!-- n5&#45;&gt;n7 -->
<g id="edge13" class="edge"><title>n5&#45;&gt;n7</title>
<path fill="none" stroke="black" d="M42.0176,-263.874C42.7281,-253.44 44.9313,-240.199 51,-230 54.1335,-224.734 58.3764,-219.945 62.9961,-215.718"/>
<polygon fill="black" stroke="black" points="65.4911,-218.198 70.9969,-209.146 61.048,-212.788 65.4911,-218.198"/>
<text text-anchor="middle" x="54.5" y="-234.3" font-family="Times,serif" font-size="14.00">c</text>
</g>
<!-- n6&#45;&gt;n4 -->
<g id="edge12" class="edge"><title>n6&#45;&gt;n4</title>
<path fill="none" stroke="black" d="M149.009,-300.25C151.081,-312.13 153.877,-328.162 156.248,-341.756"/>
<polygon fill="black" stroke="black" points="152.87,-342.759 158.036,-352.009 159.766,-341.556 152.87,-342.759"/>
<text text-anchor="middle" x="158.5" y="-322.3" font-family="Times,serif" font-size="14.00">g</text>
</g>
<!-- n6&#45;&gt;n7 -->
<g id="edge15" class="edge"><title>n6&#45;&gt;n7</title>
<path fill="none" stroke="black" d="M128.675,-265.445C123.096,-259.754 117.261,-252.987 113,-246 108.531,-238.673 104.959,-230.076 102.213,-222.05"/>
<polygon fill="black" stroke="black" points="105.497,-220.827 99.1702,-212.329 98.8166,-222.918 105.497,-220.827"/>
<text text-anchor="middle" x="118" y="-234.3" font-family="Times,serif" font-size="14.00">w</text>
</g>
<!-- n7&#45;&gt;n5 -->
<g id="edge14" class="edge"><title>n7&#45;&gt;n5</title>
<path fill="none" stroke="black" d="M84.8124,-211.531C77.1219,-224.01 66.4314,-241.357 57.6573,-255.594"/>
<polygon fill="black" stroke="black" points="54.4859,-254.069 52.2189,-264.418 60.4451,-257.741 54.4859,-254.069"/>
<text text-anchor="middle" x="77.5" y="-234.3" font-family="Times,serif" font-size="14.00">c</text>
</g>
<!-- n7&#45;&gt;n6 -->
<g id="edge16" class="edge"><title>n7&#45;&gt;n6</title>
<path fill="none" stroke="black" d="M109.283,-211.107C113.983,-216.842 119.019,-223.496 123,-230 127.686,-237.657 131.986,-246.432 135.569,-254.521"/>
<polygon fill="black" stroke="black" points="132.431,-256.087 139.56,-263.925 138.875,-253.352 132.431,-256.087"/>
<text text-anchor="middle" x="137" y="-234.3" font-family="Times,serif" font-size="14.00">w</text>
</g>
<!-- n8 -->
<g id="node9" class="node"><title>n8</title>
<ellipse fill="none" stroke="black" cx="95" cy="-106" rx="42.3456" ry="18"/>
<text text-anchor="middle" x="95" y="-102.3" font-family="Times,serif" font-size="14.00">MG&#45;WC</text>
</g>
<!-- n7&#45;&gt;n8 -->
<g id="edge17" class="edge"><title>n7&#45;&gt;n8</title>
<path fill="none" stroke="black" d="M85.6616,-176.419C82.9557,-170.756 80.3646,-164.267 79,-158 77.4871,-151.052 77.4871,-148.948 79,-142 79.661,-138.964 80.6097,-135.877 81.7199,-132.856"/>
<polygon fill="black" stroke="black" points="84.9713,-134.154 85.6616,-123.581 78.529,-131.416 84.9713,-134.154"/>
<text text-anchor="middle" x="85" y="-146.3" font-family="Times,serif" font-size="14.00">m</text>
</g>
<!-- n8&#45;&gt;n7 -->
<g id="edge18" class="edge"><title>n8&#45;&gt;n7</title>
<path fill="none" stroke="black" d="M95,-124.084C95,-135.861 95,-151.774 95,-165.342"/>
<polygon fill="black" stroke="black" points="91.5001,-165.597 95,-175.597 98.5001,-165.597 91.5001,-165.597"/>
<text text-anchor="middle" x="101" y="-146.3" font-family="Times,serif" font-size="14.00">m</text>
</g>
<!-- n9 -->
<g id="node10" class="node"><title>n9</title>
<ellipse fill="none" stroke="black" cx="95" cy="-18" rx="42.3456" ry="18"/>
<text text-anchor="middle" x="95" y="-14.3" font-family="Times,serif" font-size="14.00">&#45;MWGC</text>
</g>
<!-- n8&#45;&gt;n9 -->
<g id="edge19" class="edge"><title>n8&#45;&gt;n9</title>
<path fill="none" stroke="black" d="M87.9849,-88.2025C85.9547,-82.5253 84.0138,-76.0828 83,-70 81.8309,-62.9856 81.8309,-61.0144 83,-54 83.4594,-51.2437 84.1091,-48.4136 84.8713,-45.6143"/>
<polygon fill="black" stroke="black" points="88.2977,-46.3878 87.9849,-35.7975 81.6253,-44.2714 88.2977,-46.3878"/>
<text text-anchor="middle" x="86.5" y="-58.3" font-family="Times,serif" font-size="14.00">g</text>
</g>
<!-- n9&#45;&gt;n8 -->
<g id="edge20" class="edge"><title>n9&#45;&gt;n8</title>
<path fill="none" stroke="black" d="M95,-36.084C95,-47.8607 95,-63.7741 95,-77.342"/>
<polygon fill="black" stroke="black" points="91.5001,-77.5966 95,-87.5966 98.5001,-77.5967 91.5001,-77.5966"/>
<text text-anchor="middle" x="98.5" y="-58.3" font-family="Times,serif" font-size="14.00">g</text>
</g>
</g>
</svg>
