<?xml version="1.0" encoding="UTF-8" standalone="no"?>
<!DOCTYPE svg PUBLIC "-//W3C//DTD SVG 1.1//EN"
 "http://www.w3.org/Graphics/SVG/1.1/DTD/svg11.dtd">
<!-- Generated by graphviz version 2.26.3 (20100126.1600)
 -->
<!-- Title: g Pages: 1 -->
<svg width="225pt" height="704pt"
 viewBox="0.00 0.00 225.00 704.00" xmlns="http://www.w3.org/2000/svg" xmlns:xlink="http://www.w3.org/1999/xlink">
<g id="graph1" class="graph" transform="scale(1 1) rotate(0) translate(4 700)">
<title>g</title>
<polygon fill="white" stroke="white" points="-4,5 -4,-700 222,-700 222,5 -4,5"/>
<!-- start -->
<g id="node1" class="node"><title>start</title>
<ellipse fill="none" stroke="black" cx="120" cy="-677" rx="46.1672" ry="19.0919"/>
<text text-anchor="middle" x="120" y="-673.9" font-family="Times Roman,serif" font-size="14.00">MWGC&#45;</text>
</g>
<!-- n1 -->
<g id="node2" class="node"><title>n1</title>
<ellipse fill="none" stroke="black" cx="120" cy="-583" rx="46.1672" ry="19.0919"/>
<text text-anchor="middle" x="120" y="-579.9" font-family="Times Roman,serif" font-size="14.00">WC&#45;MG</text>
</g>
<!-- start&#45;&gt;n1 -->
<g id="edge2" class="edge"><title>start&#45;&gt;n1</title>
<path fill="none" stroke="black" d="M112.604,-658.076C110.714,-652.358 108.949,-646.003 108,-640 106.612,-631.22 106.612,-628.78 108,-620 108.43,-617.28 109.028,-614.487 109.728,-611.715"/>
<polygon fill="black" stroke="black" points="113.144,-612.505 112.604,-601.924 106.428,-610.532 113.144,-612.505"/>
<text text-anchor="middle" x="111.5" y="-626.9" font-family="Times Roman,serif" font-size="14.00">g</text>
</g>
<!-- n1&#45;&gt;start -->
<g id="edge4" class="edge"><title>n1&#45;&gt;start</title>
<path fill="none" stroke="black" d="M120,-602.317C120,-615.421 120,-632.987 120,-647.79"/>
<polygon fill="black" stroke="black" points="116.5,-647.978 120,-657.978 123.5,-647.978 116.5,-647.978"/>
<text text-anchor="middle" x="123.5" y="-626.9" font-family="Times Roman,serif" font-size="14.00">g</text>
</g>
<!-- n2 -->
<g id="node3" class="node"><title>n2</title>
<ellipse fill="none" stroke="black" cx="120" cy="-489" rx="46.1672" ry="19.0919"/>
<text text-anchor="middle" x="120" y="-485.9" font-family="Times Roman,serif" font-size="14.00">MWC&#45;G</text>
</g>
<!-- n1&#45;&gt;n2 -->
<g id="edge8" class="edge"><title>n1&#45;&gt;n2</title>
<path fill="none" stroke="black" d="M110.152,-564.284C107.633,-558.572 105.276,-552.168 104,-546 102.199,-537.296 102.199,-534.704 104,-526 104.598,-523.109 105.434,-520.166 106.413,-517.266"/>
<polygon fill="black" stroke="black" points="109.765,-518.304 110.152,-507.716 103.247,-515.751 109.765,-518.304"/>
<text text-anchor="middle" x="110" y="-532.9" font-family="Times Roman,serif" font-size="14.00">m</text>
</g>
<!-- n2&#45;&gt;n1 -->
<g id="edge10" class="edge"><title>n2&#45;&gt;n1</title>
<path fill="none" stroke="black" d="M120,-508.317C120,-521.421 120,-538.987 120,-553.79"/>
<polygon fill="black" stroke="black" points="116.5,-553.978 120,-563.978 123.5,-553.978 116.5,-553.978"/>
<text text-anchor="middle" x="126" y="-532.9" font-family="Times Roman,serif" font-size="14.00">m</text>
</g>
<!-- n3 -->
<g id="node4" class="node"><title>n3</title>
<ellipse fill="none" stroke="black" cx="61" cy="-395" rx="46.1672" ry="19.0919"/>
<text text-anchor="middle" x="61" y="-391.9" font-family="Times Roman,serif" font-size="14.00">C&#45;MWG</text>
</g>
<!-- n2&#45;&gt;n3 -->
<g id="edge12" class="edge"><title>n2&#45;&gt;n3</title>
<path fill="none" stroke="black" d="M91.8586,-473.913C83.5769,-468.129 75.3198,-460.772 70,-452 65.0175,-443.784 62.5051,-433.725 61.3113,-424.355"/>
<polygon fill="black" stroke="black" points="64.7838,-423.879 60.4624,-414.206 57.8082,-424.463 64.7838,-423.879"/>
<text text-anchor="middle" x="75" y="-438.9" font-family="Times Roman,serif" font-size="14.00">w</text>
</g>
<!-- n4 -->
<g id="node5" class="node"><title>n4</title>
<ellipse fill="none" stroke="black" cx="171" cy="-395" rx="46.1672" ry="19.0919"/>
<text text-anchor="middle" x="171" y="-391.9" font-family="Times Roman,serif" font-size="14.00">W&#45;MGC</text>
</g>
<!-- n2&#45;&gt;n4 -->
<g id="edge16" class="edge"><title>n2&#45;&gt;n4</title>
<path fill="none" stroke="black" d="M125.246,-470.091C128.831,-458.653 134.17,-444.009 141,-432 143.116,-428.28 145.602,-424.552 148.223,-420.971"/>
<polygon fill="black" stroke="black" points="151.083,-422.995 154.47,-412.957 145.562,-418.692 151.083,-422.995"/>
<text text-anchor="middle" x="144.5" y="-438.9" font-family="Times Roman,serif" font-size="14.00">c</text>
</g>
<!-- n3&#45;&gt;n2 -->
<g id="edge14" class="edge"><title>n3&#45;&gt;n2</title>
<path fill="none" stroke="black" d="M72.6323,-413.533C81.2727,-427.299 93.1942,-446.292 102.915,-461.781"/>
<polygon fill="black" stroke="black" points="100.063,-463.819 108.343,-470.429 105.992,-460.098 100.063,-463.819"/>
<text text-anchor="middle" x="101" y="-438.9" font-family="Times Roman,serif" font-size="14.00">w</text>
</g>
<!-- n5 -->
<g id="node6" class="node"><title>n5</title>
<ellipse fill="none" stroke="black" cx="46" cy="-301" rx="46.1672" ry="19.0919"/>
<text text-anchor="middle" x="46" y="-297.9" font-family="Times Roman,serif" font-size="14.00">MGC&#45;W</text>
</g>
<!-- n3&#45;&gt;n5 -->
<g id="edge20" class="edge"><title>n3&#45;&gt;n5</title>
<path fill="none" stroke="black" d="M49.3202,-376.472C46.3288,-370.765 43.5271,-364.317 42,-358 39.8387,-349.06 39.7676,-339.118 40.5563,-330.074"/>
<polygon fill="black" stroke="black" points="44.0504,-330.336 41.8032,-319.982 37.1033,-329.477 44.0504,-330.336"/>
<text text-anchor="middle" x="45.5" y="-344.9" font-family="Times Roman,serif" font-size="14.00">g</text>
</g>
<!-- n4&#45;&gt;n2 -->
<g id="edge18" class="edge"><title>n4&#45;&gt;n2</title>
<path fill="none" stroke="black" d="M164.741,-414.061C160.665,-425.421 154.841,-439.932 148,-452 146.001,-455.526 143.707,-459.095 141.31,-462.554"/>
<polygon fill="black" stroke="black" points="138.329,-460.701 135.251,-470.839 143.979,-464.833 138.329,-460.701"/>
<text text-anchor="middle" x="160.5" y="-438.9" font-family="Times Roman,serif" font-size="14.00">c</text>
</g>
<!-- n6 -->
<g id="node7" class="node"><title>n6</title>
<ellipse fill="none" stroke="black" cx="156" cy="-301" rx="46.1672" ry="19.0919"/>
<text text-anchor="middle" x="156" y="-297.9" font-family="Times Roman,serif" font-size="14.00">MWG&#45;C</text>
</g>
<!-- n4&#45;&gt;n6 -->
<g id="edge24" class="edge"><title>n4&#45;&gt;n6</title>
<path fill="none" stroke="black" d="M154.464,-377.087C150.214,-371.397 146.219,-364.804 144,-358 141.039,-348.919 141.896,-338.779 144.158,-329.599"/>
<polygon fill="black" stroke="black" points="147.593,-330.335 147.179,-319.749 140.9,-328.283 147.593,-330.335"/>
<text text-anchor="middle" x="147.5" y="-344.9" font-family="Times Roman,serif" font-size="14.00">g</text>
</g>
<!-- n5&#45;&gt;n3 -->
<g id="edge22" class="edge"><title>n5&#45;&gt;n3</title>
<path fill="none" stroke="black" d="M49.031,-319.994C51.1241,-333.111 53.9481,-350.808 56.3274,-365.719"/>
<polygon fill="black" stroke="black" points="52.9324,-366.654 57.9645,-375.978 59.8449,-365.551 52.9324,-366.654"/>
<text text-anchor="middle" x="58.5" y="-344.9" font-family="Times Roman,serif" font-size="14.00">g</text>
</g>
<!-- n7 -->
<g id="node8" class="node"><title>n7</title>
<ellipse fill="none" stroke="black" cx="104" cy="-207" rx="46.1672" ry="19.0919"/>
<text text-anchor="middle" x="104" y="-203.9" font-family="Times Roman,serif" font-size="14.00">G&#45;MWC</text>
</g>
<!-- n5&#45;&gt;n7 -->
<g id="edge28" class="edge"><title>n5&#45;&gt;n7</title>
<path fill="none" stroke="black" d="M47.2387,-281.858C48.7216,-270.196 51.9578,-255.398 59,-244 62.2014,-238.819 66.3866,-234.027 70.9157,-229.73"/>
<polygon fill="black" stroke="black" points="73.4576,-232.16 78.7495,-222.981 68.8888,-226.856 73.4576,-232.16"/>
<text text-anchor="middle" x="62.5" y="-250.9" font-family="Times Roman,serif" font-size="14.00">c</text>
</g>
<!-- n6&#45;&gt;n4 -->
<g id="edge26" class="edge"><title>n6&#45;&gt;n4</title>
<path fill="none" stroke="black" d="M159.031,-319.994C161.124,-333.111 163.948,-350.808 166.327,-365.719"/>
<polygon fill="black" stroke="black" points="162.932,-366.654 167.965,-375.978 169.845,-365.551 162.932,-366.654"/>
<text text-anchor="middle" x="167.5" y="-344.9" font-family="Times Roman,serif" font-size="14.00">g</text>
</g>
<!-- n6&#45;&gt;n7 -->
<g id="edge32" class="edge"><title>n6&#45;&gt;n7</title>
<path fill="none" stroke="black" d="M136.966,-283.454C131.541,-277.679 126.019,-270.947 122,-264 117,-255.359 113.216,-245.162 110.44,-235.8"/>
<polygon fill="black" stroke="black" points="113.802,-234.822 107.814,-226.082 107.044,-236.649 113.802,-234.822"/>
<text text-anchor="middle" x="127" y="-250.9" font-family="Times Roman,serif" font-size="14.00">w</text>
</g>
<!-- n7&#45;&gt;n5 -->
<g id="edge30" class="edge"><title>n7&#45;&gt;n5</title>
<path fill="none" stroke="black" d="M92.5649,-225.533C84.0709,-239.299 72.3515,-258.292 62.795,-273.781"/>
<polygon fill="black" stroke="black" points="59.7314,-272.08 57.4589,-282.429 65.6887,-275.756 59.7314,-272.08"/>
<text text-anchor="middle" x="84.5" y="-250.9" font-family="Times Roman,serif" font-size="14.00">c</text>
</g>
<!-- n7&#45;&gt;n6 -->
<g id="edge34" class="edge"><title>n7&#45;&gt;n6</title>
<path fill="none" stroke="black" d="M119.192,-225.195C123.64,-230.996 128.297,-237.58 132,-244 137.176,-252.974 141.86,-263.28 145.687,-272.64"/>
<polygon fill="black" stroke="black" points="142.433,-273.93 149.35,-281.955 148.947,-271.368 142.433,-273.93"/>
<text text-anchor="middle" x="146" y="-250.9" font-family="Times Roman,serif" font-size="14.00">w</text>
</g>
<!-- n8 -->
<g id="node9" class="node"><title>n8</title>
<ellipse fill="none" stroke="black" cx="104" cy="-113" rx="46.1672" ry="19.0919"/>
<text text-anchor="middle" x="104" y="-109.9" font-family="Times Roman,serif" font-size="14.00">MG&#45;WC</text>
</g>
<!-- n7&#45;&gt;n8 -->
<g id="edge36" class="edge"><title>n7&#45;&gt;n8</title>
<path fill="none" stroke="black" d="M94.1523,-188.284C91.633,-182.572 89.2765,-176.168 88,-170 86.1986,-161.296 86.1986,-158.704 88,-150 88.5984,-147.109 89.434,-144.166 90.4125,-141.266"/>
<polygon fill="black" stroke="black" points="93.765,-142.304 94.1523,-131.716 87.2469,-139.751 93.765,-142.304"/>
<text text-anchor="middle" x="94" y="-156.9" font-family="Times Roman,serif" font-size="14.00">m</text>
</g>
<!-- n8&#45;&gt;n7 -->
<g id="edge38" class="edge"><title>n8&#45;&gt;n7</title>
<path fill="none" stroke="black" d="M104,-132.317C104,-145.421 104,-162.987 104,-177.79"/>
<polygon fill="black" stroke="black" points="100.5,-177.978 104,-187.978 107.5,-177.978 100.5,-177.978"/>
<text text-anchor="middle" x="110" y="-156.9" font-family="Times Roman,serif" font-size="14.00">m</text>
</g>
<!-- n9 -->
<g id="node10" class="node"><title>n9</title>
<ellipse fill="none" stroke="black" cx="104" cy="-19" rx="46.1672" ry="19.0919"/>
<text text-anchor="middle" x="104" y="-15.9" font-family="Times Roman,serif" font-size="14.00">&#45;MWGC</text>
</g>
<!-- n8&#45;&gt;n9 -->
<g id="edge40" class="edge"><title>n8&#45;&gt;n9</title>
<path fill="none" stroke="black" d="M96.6039,-94.0762C94.7141,-88.3584 92.9491,-82.0031 92,-76 90.6118,-67.2202 90.6118,-64.7798 92,-56 92.4301,-53.2798 93.0277,-50.4874 93.7285,-47.7147"/>
<polygon fill="black" stroke="black" points="97.1441,-48.5049 96.6039,-37.9238 90.4278,-46.5323 97.1441,-48.5049"/>
<text text-anchor="middle" x="95.5" y="-62.9" font-family="Times Roman,serif" font-size="14.00">g</text>
</g>
<!-- n9&#45;&gt;n8 -->
<g id="edge42" class="edge"><title>n9&#45;&gt;n8</title>
<path fill="none" stroke="black" d="M104,-38.3166C104,-51.421 104,-68.9866 104,-83.79"/>
<polygon fill="black" stroke="black" points="100.5,-83.9777 104,-93.9777 107.5,-83.9777 100.5,-83.9777"/>
<text text-anchor="middle" x="107.5" y="-62.9" font-family="Times Roman,serif" font-size="14.00">g</text>
</g>
</g>
</svg>
