<?xml version="1.0" encoding="UTF-8" standalone="no"?>
<!DOCTYPE svg PUBLIC "-//W3C//DTD SVG 1.1//EN"
 "http://www.w3.org/Graphics/SVG/1.1/DTD/svg11.dtd">
<!-- Generated by graphviz version 2.26.3 (20100126.1600)
 -->
<!-- Title: ER Pages: 1 -->
<svg width="352pt" height="740pt"
 viewBox="0.00 0.00 352.00 740.00" xmlns="http://www.w3.org/2000/svg" xmlns:xlink="http://www.w3.org/1999/xlink">
<g id="graph1" class="graph" transform="scale(1 1) rotate(0) translate(4 736)">
<title>ER</title>
<polygon fill="white" stroke="white" points="-4,5 -4,-736 349,-736 349,5 -4,5"/>
<text text-anchor="middle" x="172" y="-36" font-family="Times Roman,serif" font-size="20.00">Entity Relation Diagram</text>
<text text-anchor="middle" x="172" y="-11" font-family="Times Roman,serif" font-size="20.00">drawn by NEATO</text>
<!-- course -->
<g id="node1" class="node"><title>course</title>
<polygon fill="none" stroke="black" points="298,-656 244,-656 244,-620 298,-620 298,-656"/>
<text text-anchor="middle" x="271" y="-634.9" font-family="Times Roman,serif" font-size="14.00">course</text>
</g>
<!-- C&#45;I -->
<g id="node11" class="node"><title>C&#45;I</title>
<polygon fill="lightgrey" stroke="lightgrey" points="224,-564 189,-537 224,-510 259,-537 224,-564"/>
<text text-anchor="middle" x="224" y="-533.9" font-family="Times Roman,serif" font-size="14.00">C&#45;I</text>
</g>
<!-- course&#45;&#45;C&#45;I -->
<g id="edge7" class="edge"><title>course&#45;&#45;C&#45;I</title>
<path fill="none" stroke="black" d="M262.597,-619.943C254.359,-602.24 241.829,-575.313 233.296,-556.977"/>
<text text-anchor="middle" x="257.5" y="-588.9" font-family="Times Roman,serif" font-size="14.00">n</text>
</g>
<!-- institute -->
<g id="node2" class="node"><title>institute</title>
<polygon fill="none" stroke="black" points="242,-454 182,-454 182,-418 242,-418 242,-454"/>
<text text-anchor="middle" x="212" y="-432.9" font-family="Times Roman,serif" font-size="14.00">institute</text>
</g>
<!-- name1 -->
<g id="node6" class="node"><title>name1</title>
<ellipse fill="none" stroke="black" cx="128" cy="-335" rx="33.234" ry="19.0919"/>
<text text-anchor="middle" x="128" y="-331.9" font-family="Times Roman,serif" font-size="14.00">name</text>
</g>
<!-- institute&#45;&#45;name1 -->
<g id="edge11" class="edge"><title>institute&#45;&#45;name1</title>
<path fill="none" stroke="black" d="M196.982,-417.943C181.504,-399.332 157.547,-370.527 142.327,-352.226"/>
</g>
<!-- S&#45;I -->
<g id="node13" class="node"><title>S&#45;I</title>
<polygon fill="lightgrey" stroke="lightgrey" points="212,-362 179,-335 212,-308 245,-335 212,-362"/>
<text text-anchor="middle" x="212" y="-331.9" font-family="Times Roman,serif" font-size="14.00">S&#45;I</text>
</g>
<!-- institute&#45;&#45;S&#45;I -->
<g id="edge13" class="edge"><title>institute&#45;&#45;S&#45;I</title>
<path fill="none" stroke="black" d="M212,-417.943C212,-402.396 212,-379.735 212,-362.027"/>
<text text-anchor="middle" x="215.5" y="-386.9" font-family="Times Roman,serif" font-size="14.00">1</text>
</g>
<!-- student -->
<g id="node3" class="node"><title>student</title>
<polygon fill="none" stroke="black" points="237,-252 181,-252 181,-216 237,-216 237,-252"/>
<text text-anchor="middle" x="209" y="-230.9" font-family="Times Roman,serif" font-size="14.00">student</text>
</g>
<!-- name2 -->
<g id="node7" class="node"><title>name2</title>
<ellipse fill="none" stroke="black" cx="33" cy="-133" rx="33.234" ry="19.0919"/>
<text text-anchor="middle" x="33" y="-129.9" font-family="Times Roman,serif" font-size="14.00">name</text>
</g>
<!-- student&#45;&#45;name2 -->
<g id="edge19" class="edge"><title>student&#45;&#45;name2</title>
<path fill="none" stroke="black" d="M180.976,-219.228C153.651,-204.66 111.059,-181.514 75,-160 68.4492,-156.092 61.4392,-151.68 55.0597,-147.572"/>
</g>
<!-- grade -->
<g id="node9" class="node"><title>grade</title>
<ellipse fill="none" stroke="black" cx="117" cy="-133" rx="33.234" ry="19.0919"/>
<text text-anchor="middle" x="117" y="-129.9" font-family="Times Roman,serif" font-size="14.00">grade</text>
</g>
<!-- student&#45;&#45;grade -->
<g id="edge17" class="edge"><title>student&#45;&#45;grade</title>
<path fill="none" stroke="black" d="M192.552,-215.943C175.496,-197.219 149.041,-168.175 132.387,-149.893"/>
</g>
<!-- number -->
<g id="node10" class="node"><title>number</title>
<ellipse fill="none" stroke="black" cx="209" cy="-133" rx="41.2167" ry="19.0919"/>
<text text-anchor="middle" x="209" y="-129.9" font-family="Times Roman,serif" font-size="14.00">number</text>
</g>
<!-- student&#45;&#45;number -->
<g id="edge21" class="edge"><title>student&#45;&#45;number</title>
<path fill="none" stroke="black" d="M209,-215.943C209,-198.013 209,-170.621 209,-152.276"/>
</g>
<!-- S&#45;C -->
<g id="node12" class="node"><title>S&#45;C</title>
<polygon fill="lightgrey" stroke="lightgrey" points="306,-160 268,-133 306,-106 344,-133 306,-160"/>
<text text-anchor="middle" x="306" y="-129.9" font-family="Times Roman,serif" font-size="14.00">S&#45;C</text>
</g>
<!-- student&#45;&#45;S&#45;C -->
<g id="edge23" class="edge"><title>student&#45;&#45;S&#45;C</title>
<path fill="none" stroke="black" d="M226.342,-215.943C244.542,-196.992 272.896,-167.469 290.41,-149.233"/>
<text text-anchor="middle" x="267" y="-184.9" font-family="Times Roman,serif" font-size="14.00">m</text>
</g>
<!-- name0 -->
<g id="node5" class="node"><title>name0</title>
<ellipse fill="none" stroke="black" cx="231" cy="-713" rx="33.234" ry="19.0919"/>
<text text-anchor="middle" x="231" y="-709.9" font-family="Times Roman,serif" font-size="14.00">name</text>
</g>
<!-- name0&#45;&#45;course -->
<g id="edge3" class="edge"><title>name0&#45;&#45;course</title>
<path fill="none" stroke="black" d="M240.888,-694.461C247.134,-682.749 255.166,-667.688 261.364,-656.067"/>
</g>
<!-- code -->
<g id="node8" class="node"><title>code</title>
<ellipse fill="none" stroke="black" cx="311" cy="-713" rx="29.1951" ry="19.0919"/>
<text text-anchor="middle" x="311" y="-709.9" font-family="Times Roman,serif" font-size="14.00">code</text>
</g>
<!-- code&#45;&#45;course -->
<g id="edge5" class="edge"><title>code&#45;&#45;course</title>
<path fill="none" stroke="black" d="M301.317,-694.845C295.074,-683.139 286.985,-667.972 280.732,-656.248"/>
</g>
<!-- C&#45;I&#45;&#45;institute -->
<g id="edge9" class="edge"><title>C&#45;I&#45;&#45;institute</title>
<path fill="none" stroke="black" d="M221.034,-512.034C218.896,-494.042 216.061,-470.181 214.141,-454.024"/>
<text text-anchor="middle" x="222.5" y="-478.9" font-family="Times Roman,serif" font-size="14.00">1</text>
</g>
<!-- S&#45;C&#45;&#45;course -->
<g id="edge25" class="edge"><title>S&#45;C&#45;&#45;course</title>
<path fill="none" stroke="black" d="M305.187,-159.579C304.633,-179.945 304,-208.745 304,-234 304,-537 304,-537 304,-537 304,-567.253 290.457,-600.195 280.723,-619.965"/>
<text text-anchor="middle" x="307.5" y="-386.9" font-family="Times Roman,serif" font-size="14.00">n</text>
</g>
<!-- S&#45;I&#45;&#45;student -->
<g id="edge15" class="edge"><title>S&#45;I&#45;&#45;student</title>
<path fill="none" stroke="black" d="M211.212,-308.463C210.684,-290.696 210.003,-267.776 209.537,-252.086"/>
<text text-anchor="middle" x="214.5" y="-276.9" font-family="Times Roman,serif" font-size="14.00">n</text>
</g>
</g>
</svg>
