<?xml version="1.0" encoding="UTF-8" standalone="no"?>
<!DOCTYPE svg PUBLIC "-//W3C//DTD SVG 1.1//EN"
 "http://www.w3.org/Graphics/SVG/1.1/DTD/svg11.dtd">
<!-- Generated by graphviz version 2.29.20121107.0545 (20121107.0545)
 -->
<!-- Title: ER Pages: 1 -->
<svg width="330pt" height="658pt"
 viewBox="0.00 0.00 330.00 658.00" xmlns="http://www.w3.org/2000/svg" xmlns:xlink="http://www.w3.org/1999/xlink">
<g id="graph0" class="graph" transform="scale(1 1) rotate(0) translate(4 654)">
<title>ER</title>
<polygon fill="white" stroke="white" points="-4,5 -4,-654 327,-654 327,5 -4,5"/>
<text text-anchor="middle" x="161" y="-32" font-family="Times,serif" font-size="20.00">Entity Relation Diagram</text>
<text text-anchor="middle" x="161" y="-10" font-family="Times,serif" font-size="20.00">drawn by NEATO</text>
<!-- course -->
<g id="node1" class="node"><title>course</title>
<polygon fill="none" stroke="black" points="268,-576 214,-576 214,-540 268,-540 268,-576"/>
<text text-anchor="middle" x="241" y="-554.3" font-family="Times,serif" font-size="14.00">course</text>
</g>
<!-- C&#45;I -->
<g id="node10" class="node"><title>C&#45;I</title>
<polygon fill="lightgrey" stroke="lightgrey" points="196,-488 163.744,-470 196,-452 228.256,-470 196,-488"/>
<text text-anchor="middle" x="196" y="-466.3" font-family="Times,serif" font-size="14.00">C&#45;I</text>
</g>
<!-- course&#45;&#45;C&#45;I -->
<g id="edge3" class="edge"><title>course&#45;&#45;C&#45;I</title>
<path fill="none" stroke="black" d="M231.894,-539.597C223.316,-523.204 210.655,-499.007 202.888,-484.164"/>
<text text-anchor="middle" x="226.5" y="-510.3" font-family="Times,serif" font-size="14.00">n</text>
</g>
<!-- institute -->
<g id="node2" class="node"><title>institute</title>
<polygon fill="none" stroke="black" points="225.5,-400 166.5,-400 166.5,-364 225.5,-364 225.5,-400"/>
<text text-anchor="middle" x="196" y="-378.3" font-family="Times,serif" font-size="14.00">institute</text>
</g>
<!-- name1 -->
<g id="node5" class="node"><title>name1</title>
<ellipse fill="none" stroke="black" cx="117" cy="-294" rx="30.3206" ry="18"/>
<text text-anchor="middle" x="117" y="-290.3" font-family="Times,serif" font-size="14.00">name</text>
</g>
<!-- institute&#45;&#45;name1 -->
<g id="edge5" class="edge"><title>institute&#45;&#45;name1</title>
<path fill="none" stroke="black" d="M180.013,-363.597C165.586,-347.891 144.578,-325.022 130.851,-310.078"/>
</g>
<!-- S&#45;I -->
<g id="node12" class="node"><title>S&#45;I</title>
<polygon fill="lightgrey" stroke="lightgrey" points="196,-312 166,-294 196,-276 226,-294 196,-312"/>
<text text-anchor="middle" x="196" y="-290.3" font-family="Times,serif" font-size="14.00">S&#45;I</text>
</g>
<!-- institute&#45;&#45;S&#45;I -->
<g id="edge6" class="edge"><title>institute&#45;&#45;S&#45;I</title>
<path fill="none" stroke="black" d="M196,-363.597C196,-348.578 196,-327.009 196,-312.084"/>
<text text-anchor="middle" x="199.5" y="-334.3" font-family="Times,serif" font-size="14.00">1</text>
</g>
<!-- student -->
<g id="node3" class="node"><title>student</title>
<polygon fill="none" stroke="black" points="223.5,-224 168.5,-224 168.5,-188 223.5,-188 223.5,-224"/>
<text text-anchor="middle" x="196" y="-202.3" font-family="Times,serif" font-size="14.00">student</text>
</g>
<!-- grade -->
<g id="node8" class="node"><title>grade</title>
<ellipse fill="none" stroke="black" cx="30" cy="-118" rx="30.3206" ry="18"/>
<text text-anchor="middle" x="30" y="-114.3" font-family="Times,serif" font-size="14.00">grade</text>
</g>
<!-- student&#45;&#45;grade -->
<g id="edge8" class="edge"><title>student&#45;&#45;grade</title>
<path fill="none" stroke="black" d="M168.215,-190.606C135.542,-173.678 81.977,-145.928 52.0288,-130.413"/>
</g>
<!-- name2 -->
<g id="node6" class="node"><title>name2</title>
<ellipse fill="none" stroke="black" cx="109" cy="-118" rx="30.3206" ry="18"/>
<text text-anchor="middle" x="109" y="-114.3" font-family="Times,serif" font-size="14.00">name</text>
</g>
<!-- student&#45;&#45;name2 -->
<g id="edge9" class="edge"><title>student&#45;&#45;name2</title>
<path fill="none" stroke="black" d="M178.394,-187.597C162.406,-171.793 139.081,-148.735 123.971,-133.799"/>
</g>
<!-- number -->
<g id="node9" class="node"><title>number</title>
<ellipse fill="none" stroke="black" cx="196" cy="-118" rx="38.0212" ry="18"/>
<text text-anchor="middle" x="196" y="-114.3" font-family="Times,serif" font-size="14.00">number</text>
</g>
<!-- student&#45;&#45;number -->
<g id="edge10" class="edge"><title>student&#45;&#45;number</title>
<path fill="none" stroke="black" d="M196,-187.597C196,-172.578 196,-151.009 196,-136.084"/>
</g>
<!-- S&#45;C -->
<g id="node11" class="node"><title>S&#45;C</title>
<polygon fill="lightgrey" stroke="lightgrey" points="287,-136 252.607,-118 287,-100 321.393,-118 287,-136"/>
<text text-anchor="middle" x="287" y="-114.3" font-family="Times,serif" font-size="14.00">S&#45;C</text>
</g>
<!-- student&#45;&#45;S&#45;C -->
<g id="edge11" class="edge"><title>student&#45;&#45;S&#45;C</title>
<path fill="none" stroke="black" d="M214.415,-187.597C232.592,-170.418 259.837,-144.671 275.258,-130.097"/>
<text text-anchor="middle" x="256" y="-158.3" font-family="Times,serif" font-size="14.00">m</text>
</g>
<!-- name0 -->
<g id="node4" class="node"><title>name0</title>
<ellipse fill="none" stroke="black" cx="203" cy="-632" rx="30.3206" ry="18"/>
<text text-anchor="middle" x="203" y="-628.3" font-family="Times,serif" font-size="14.00">name</text>
</g>
<!-- name0&#45;&#45;course -->
<g id="edge1" class="edge"><title>name0&#45;&#45;course</title>
<path fill="none" stroke="black" d="M211.623,-614.662C217.71,-603.128 225.848,-587.709 232.015,-576.025"/>
</g>
<!-- code -->
<g id="node7" class="node"><title>code</title>
<ellipse fill="none" stroke="black" cx="279" cy="-632" rx="26.949" ry="18"/>
<text text-anchor="middle" x="279" y="-628.3" font-family="Times,serif" font-size="14.00">code</text>
</g>
<!-- code&#45;&#45;course -->
<g id="edge2" class="edge"><title>code&#45;&#45;course</title>
<path fill="none" stroke="black" d="M270.377,-614.662C264.29,-603.128 256.152,-587.709 249.985,-576.025"/>
</g>
<!-- C&#45;I&#45;&#45;institute -->
<g id="edge4" class="edge"><title>C&#45;I&#45;&#45;institute</title>
<path fill="none" stroke="black" d="M196,-451.597C196,-436.578 196,-415.009 196,-400.084"/>
<text text-anchor="middle" x="199.5" y="-422.3" font-family="Times,serif" font-size="14.00">1</text>
</g>
<!-- S&#45;C&#45;&#45;course -->
<g id="edge12" class="edge"><title>S&#45;C&#45;&#45;course</title>
<path fill="none" stroke="black" d="M284.643,-134.81C282.283,-152.03 279,-180.408 279,-205 279,-471 279,-471 279,-471 279,-496.627 264.708,-523.167 253.653,-539.861"/>
<text text-anchor="middle" x="282.5" y="-334.3" font-family="Times,serif" font-size="14.00">n</text>
</g>
<!-- S&#45;I&#45;&#45;student -->
<g id="edge7" class="edge"><title>S&#45;I&#45;&#45;student</title>
<path fill="none" stroke="black" d="M196,-275.597C196,-260.578 196,-239.009 196,-224.084"/>
<text text-anchor="middle" x="199.5" y="-246.3" font-family="Times,serif" font-size="14.00">n</text>
</g>
</g>
</svg>
