<?xml version="1.0" encoding="UTF-8" standalone="no"?>
<!DOCTYPE svg PUBLIC "-//W3C//DTD SVG 1.1//EN"
 "http://www.w3.org/Graphics/SVG/1.1/DTD/svg11.dtd">
<!-- Generated by graphviz version 2.30.1 (20130611.0131)
 -->
<!-- Title: G Pages: 1 -->
<svg width="316pt" height="198pt"
 viewBox="0.00 0.00 316.00 198.00" xmlns="http://www.w3.org/2000/svg" xmlns:xlink="http://www.w3.org/1999/xlink">
<g id="graph0" class="graph" transform="scale(1 1) rotate(0) translate(4 194)">
<title>G</title>
<polygon fill="white" stroke="white" points="-4,5 -4,-194 313,-194 313,5 -4,5"/>
<!-- node0 -->
<g id="node1" class="node"><title>node0</title>
<polygon fill="none" stroke="black" points="0,-0 0,-184 20,-184 20,-0 0,-0"/>
<text text-anchor="middle" x="10" y="-168.8" font-family="Times,serif" font-size="14.00"> </text>
<polyline fill="none" stroke="black" points="0,-161 20,-161 "/>
<text text-anchor="middle" x="10" y="-145.8" font-family="Times,serif" font-size="14.00"> </text>
<polyline fill="none" stroke="black" points="0,-138 20,-138 "/>
<text text-anchor="middle" x="10" y="-122.8" font-family="Times,serif" font-size="14.00"> </text>
<polyline fill="none" stroke="black" points="0,-115 20,-115 "/>
<text text-anchor="middle" x="10" y="-99.8" font-family="Times,serif" font-size="14.00"> </text>
<polyline fill="none" stroke="black" points="0,-92 20,-92 "/>
<text text-anchor="middle" x="10" y="-76.8" font-family="Times,serif" font-size="14.00"> </text>
<polyline fill="none" stroke="black" points="0,-69 20,-69 "/>
<text text-anchor="middle" x="10" y="-53.8" font-family="Times,serif" font-size="14.00"> </text>
<polyline fill="none" stroke="black" points="0,-46 20,-46 "/>
<text text-anchor="middle" x="10" y="-30.8" font-family="Times,serif" font-size="14.00"> </text>
<polyline fill="none" stroke="black" points="0,-23 20,-23 "/>
<text text-anchor="middle" x="10" y="-7.8" font-family="Times,serif" font-size="14.00"> </text>
</g>
<!-- node1 -->
<g id="node2" class="node"><title>node1</title>
<polygon fill="none" stroke="black" points="56,-166.5 56,-189.5 164,-189.5 164,-166.5 56,-166.5"/>
<text text-anchor="middle" x="76.5" y="-174.3" font-family="Times,serif" font-size="14.00">n14</text>
<polyline fill="none" stroke="black" points="97,-166.5 97,-189.5 "/>
<text text-anchor="middle" x="118" y="-174.3" font-family="Times,serif" font-size="14.00">719</text>
<polyline fill="none" stroke="black" points="139,-166.5 139,-189.5 "/>
<text text-anchor="middle" x="151.5" y="-174.3" font-family="Times,serif" font-size="14.00"> </text>
</g>
<!-- node0&#45;&gt;node1 -->
<g id="edge1" class="edge"><title>node0:f0&#45;&gt;node1:n</title>
<path fill="none" stroke="black" d="M20,-173C32.1152,-173 37.2212,-175.812 45.8318,-177.219"/>
<polygon fill="black" stroke="black" points="45.7612,-180.724 56,-178 46.2975,-173.744 45.7612,-180.724"/>
</g>
<!-- node2 -->
<g id="node3" class="node"><title>node2</title>
<polygon fill="none" stroke="black" points="56,-138.5 56,-161.5 164,-161.5 164,-138.5 56,-138.5"/>
<text text-anchor="middle" x="74" y="-146.3" font-family="Times,serif" font-size="14.00">a1</text>
<polyline fill="none" stroke="black" points="92,-138.5 92,-161.5 "/>
<text text-anchor="middle" x="114" y="-146.3" font-family="Times,serif" font-size="14.00">805</text>
<polyline fill="none" stroke="black" points="136,-138.5 136,-161.5 "/>
<text text-anchor="middle" x="150" y="-146.3" font-family="Times,serif" font-size="14.00"> </text>
</g>
<!-- node0&#45;&gt;node2 -->
<g id="edge2" class="edge"><title>node0:f1&#45;&gt;node2:n</title>
<path fill="none" stroke="black" d="M20,-150C32,-150 37.25,-150 45.875,-150"/>
<polygon fill="black" stroke="black" points="46,-153.5 56,-150 46,-146.5 46,-153.5"/>
</g>
<!-- node3 -->
<g id="node4" class="node"><title>node3</title>
<polygon fill="none" stroke="black" points="56,-110.5 56,-133.5 164,-133.5 164,-110.5 56,-110.5"/>
<text text-anchor="middle" x="73.5" y="-118.3" font-family="Times,serif" font-size="14.00">i9</text>
<polyline fill="none" stroke="black" points="91,-110.5 91,-133.5 "/>
<text text-anchor="middle" x="113.5" y="-118.3" font-family="Times,serif" font-size="14.00">718</text>
<polyline fill="none" stroke="black" points="136,-110.5 136,-133.5 "/>
<text text-anchor="middle" x="150" y="-118.3" font-family="Times,serif" font-size="14.00"> </text>
</g>
<!-- node0&#45;&gt;node3 -->
<g id="edge3" class="edge"><title>node0:f2&#45;&gt;node3:n</title>
<path fill="none" stroke="black" d="M20,-127C32.1152,-127 37.2212,-124.188 45.8318,-122.781"/>
<polygon fill="black" stroke="black" points="46.2975,-126.256 56,-122 45.7612,-119.276 46.2975,-126.256"/>
</g>
<!-- node4 -->
<g id="node5" class="node"><title>node4</title>
<polygon fill="none" stroke="black" points="56,-48.5 56,-71.5 164,-71.5 164,-48.5 56,-48.5"/>
<text text-anchor="middle" x="74" y="-56.3" font-family="Times,serif" font-size="14.00">e5</text>
<polyline fill="none" stroke="black" points="92,-48.5 92,-71.5 "/>
<text text-anchor="middle" x="114" y="-56.3" font-family="Times,serif" font-size="14.00">989</text>
<polyline fill="none" stroke="black" points="136,-48.5 136,-71.5 "/>
<text text-anchor="middle" x="150" y="-56.3" font-family="Times,serif" font-size="14.00"> </text>
</g>
<!-- node0&#45;&gt;node4 -->
<g id="edge4" class="edge"><title>node0:f5&#45;&gt;node4:n</title>
<path fill="none" stroke="black" d="M20,-57C32.0416,-57 37.2396,-58.6875 45.8594,-59.5312"/>
<polygon fill="black" stroke="black" points="45.849,-63.0344 56,-60 46.1723,-56.0419 45.849,-63.0344"/>
</g>
<!-- node5 -->
<g id="node6" class="node"><title>node5</title>
<polygon fill="none" stroke="black" points="56,-20.5 56,-43.5 164,-43.5 164,-20.5 56,-20.5"/>
<text text-anchor="middle" x="75.5" y="-28.3" font-family="Times,serif" font-size="14.00">t20</text>
<polyline fill="none" stroke="black" points="95,-20.5 95,-43.5 "/>
<text text-anchor="middle" x="116.5" y="-28.3" font-family="Times,serif" font-size="14.00">959</text>
<polyline fill="none" stroke="black" points="138,-20.5 138,-43.5 "/>
<text text-anchor="middle" x="151" y="-28.3" font-family="Times,serif" font-size="14.00"> </text>
</g>
<!-- node0&#45;&gt;node5 -->
<g id="edge5" class="edge"><title>node0:f6&#45;&gt;node5:n</title>
<path fill="none" stroke="black" d="M20,-34C32.0185,-34 37.2454,-32.875 45.8681,-32.3125"/>
<polygon fill="black" stroke="black" points="46.1127,-35.8067 56,-32 45.8968,-28.81 46.1127,-35.8067"/>
</g>
<!-- node6 -->
<g id="node7" class="node"><title>node6</title>
<polygon fill="none" stroke="black" points="200,-138.5 200,-161.5 308,-161.5 308,-138.5 200,-138.5"/>
<text text-anchor="middle" x="220.5" y="-146.3" font-family="Times,serif" font-size="14.00">o15</text>
<polyline fill="none" stroke="black" points="241,-138.5 241,-161.5 "/>
<text text-anchor="middle" x="262" y="-146.3" font-family="Times,serif" font-size="14.00">794</text>
<polyline fill="none" stroke="black" points="283,-138.5 283,-161.5 "/>
<text text-anchor="middle" x="295.5" y="-146.3" font-family="Times,serif" font-size="14.00"> </text>
</g>
<!-- node2&#45;&gt;node6 -->
<g id="edge6" class="edge"><title>node2:p&#45;&gt;node6:n</title>
<path fill="none" stroke="black" d="M164,-150C176,-150 181.25,-150 189.875,-150"/>
<polygon fill="black" stroke="black" points="190,-153.5 200,-150 190,-146.5 190,-153.5"/>
</g>
<!-- node7 -->
<g id="node8" class="node"><title>node7</title>
<polygon fill="none" stroke="black" points="200,-48.5 200,-71.5 308,-71.5 308,-48.5 200,-48.5"/>
<text text-anchor="middle" x="220" y="-56.3" font-family="Times,serif" font-size="14.00">s19</text>
<polyline fill="none" stroke="black" points="240,-48.5 240,-71.5 "/>
<text text-anchor="middle" x="261" y="-56.3" font-family="Times,serif" font-size="14.00">659</text>
<polyline fill="none" stroke="black" points="282,-48.5 282,-71.5 "/>
<text text-anchor="middle" x="295" y="-56.3" font-family="Times,serif" font-size="14.00"> </text>
</g>
<!-- node4&#45;&gt;node7 -->
<g id="edge7" class="edge"><title>node4:p&#45;&gt;node7:n</title>
<path fill="none" stroke="black" d="M164,-60C176,-60 181.25,-60 189.875,-60"/>
<polygon fill="black" stroke="black" points="190,-63.5001 200,-60 190,-56.5001 190,-63.5001"/>
</g>
</g>
</svg>
