<?xml version="1.0" encoding="UTF-8" standalone="no"?>
<!DOCTYPE svg PUBLIC "-//W3C//DTD SVG 1.1//EN"
 "http://www.w3.org/Graphics/SVG/1.1/DTD/svg11.dtd">
<!-- Generated by graphviz version 2.26.3 (20100126.1600)
 -->
<!-- Title: G Pages: 1 -->
<svg width="116pt" height="448pt"
 viewBox="0.00 0.00 116.00 448.00" xmlns="http://www.w3.org/2000/svg" xmlns:xlink="http://www.w3.org/1999/xlink">
<g id="graph1" class="graph" transform="scale(1 1) rotate(0) translate(4 444)">
<title>G</title>
<polygon fill="white" stroke="white" points="-4,5 -4,-444 113,-444 113,5 -4,5"/>
<!-- node0 -->
<g id="node1" class="node"><title>node0</title>
<polygon fill="none" stroke="black" points="44,-0 44,-216 64,-216 64,-0 44,-0"/>
<text text-anchor="middle" x="54" y="-199.4" font-family="Times Roman,serif" font-size="14.00"> </text>
<polyline fill="none" stroke="black" points="44,-189 64,-189 "/>
<text text-anchor="middle" x="54" y="-172.4" font-family="Times Roman,serif" font-size="14.00"> </text>
<polyline fill="none" stroke="black" points="44,-162 64,-162 "/>
<text text-anchor="middle" x="54" y="-145.4" font-family="Times Roman,serif" font-size="14.00"> </text>
<polyline fill="none" stroke="black" points="44,-135 64,-135 "/>
<text text-anchor="middle" x="54" y="-118.4" font-family="Times Roman,serif" font-size="14.00"> </text>
<polyline fill="none" stroke="black" points="44,-108 64,-108 "/>
<text text-anchor="middle" x="54" y="-91.4" font-family="Times Roman,serif" font-size="14.00"> </text>
<polyline fill="none" stroke="black" points="44,-81 64,-81 "/>
<text text-anchor="middle" x="54" y="-64.4" font-family="Times Roman,serif" font-size="14.00"> </text>
<polyline fill="none" stroke="black" points="44,-54 64,-54 "/>
<text text-anchor="middle" x="54" y="-37.4" font-family="Times Roman,serif" font-size="14.00"> </text>
<polyline fill="none" stroke="black" points="44,-27 64,-27 "/>
<text text-anchor="middle" x="54" y="-10.4" font-family="Times Roman,serif" font-size="14.00"> </text>
</g>
<!-- node1 -->
<g id="node2" class="node"><title>node1</title>
<polygon fill="none" stroke="black" points="0,-220.5 0,-247.5 108,-247.5 108,-220.5 0,-220.5"/>
<text text-anchor="middle" x="20.5" y="-230.9" font-family="Times Roman,serif" font-size="14.00">n14</text>
<polyline fill="none" stroke="black" points="41,-220.5 41,-247.5 "/>
<text text-anchor="middle" x="62" y="-230.9" font-family="Times Roman,serif" font-size="14.00">719</text>
<polyline fill="none" stroke="black" points="83,-220.5 83,-247.5 "/>
<text text-anchor="middle" x="95.5" y="-230.9" font-family="Times Roman,serif" font-size="14.00"> </text>
</g>
<!-- node2 -->
<g id="node3" class="node"><title>node2</title>
<polygon fill="none" stroke="black" points="0,-252.5 0,-279.5 108,-279.5 108,-252.5 0,-252.5"/>
<text text-anchor="middle" x="18" y="-262.9" font-family="Times Roman,serif" font-size="14.00">a1</text>
<polyline fill="none" stroke="black" points="36,-252.5 36,-279.5 "/>
<text text-anchor="middle" x="58" y="-262.9" font-family="Times Roman,serif" font-size="14.00">805</text>
<polyline fill="none" stroke="black" points="80,-252.5 80,-279.5 "/>
<text text-anchor="middle" x="94" y="-262.9" font-family="Times Roman,serif" font-size="14.00"> </text>
</g>
<!-- node3 -->
<g id="node4" class="node"><title>node3</title>
<polygon fill="none" stroke="black" points="0,-284.5 0,-311.5 108,-311.5 108,-284.5 0,-284.5"/>
<text text-anchor="middle" x="17.5" y="-294.9" font-family="Times Roman,serif" font-size="14.00">i9</text>
<polyline fill="none" stroke="black" points="35,-284.5 35,-311.5 "/>
<text text-anchor="middle" x="57.5" y="-294.9" font-family="Times Roman,serif" font-size="14.00">718</text>
<polyline fill="none" stroke="black" points="80,-284.5 80,-311.5 "/>
<text text-anchor="middle" x="94" y="-294.9" font-family="Times Roman,serif" font-size="14.00"> </text>
</g>
<!-- node4 -->
<g id="node5" class="node"><title>node4</title>
<polygon fill="none" stroke="black" points="0,-316.5 0,-343.5 108,-343.5 108,-316.5 0,-316.5"/>
<text text-anchor="middle" x="18" y="-326.9" font-family="Times Roman,serif" font-size="14.00">e5</text>
<polyline fill="none" stroke="black" points="36,-316.5 36,-343.5 "/>
<text text-anchor="middle" x="58" y="-326.9" font-family="Times Roman,serif" font-size="14.00">989</text>
<polyline fill="none" stroke="black" points="80,-316.5 80,-343.5 "/>
<text text-anchor="middle" x="94" y="-326.9" font-family="Times Roman,serif" font-size="14.00"> </text>
</g>
<!-- node5 -->
<g id="node6" class="node"><title>node5</title>
<polygon fill="none" stroke="black" points="0,-348.5 0,-375.5 108,-375.5 108,-348.5 0,-348.5"/>
<text text-anchor="middle" x="19.5" y="-358.9" font-family="Times Roman,serif" font-size="14.00">t20</text>
<polyline fill="none" stroke="black" points="39,-348.5 39,-375.5 "/>
<text text-anchor="middle" x="60.5" y="-358.9" font-family="Times Roman,serif" font-size="14.00">959</text>
<polyline fill="none" stroke="black" points="82,-348.5 82,-375.5 "/>
<text text-anchor="middle" x="95" y="-358.9" font-family="Times Roman,serif" font-size="14.00"> </text>
</g>
<!-- node6 -->
<g id="node7" class="node"><title>node6</title>
<polygon fill="none" stroke="black" points="0,-380.5 0,-407.5 108,-407.5 108,-380.5 0,-380.5"/>
<text text-anchor="middle" x="20.5" y="-390.9" font-family="Times Roman,serif" font-size="14.00">o15</text>
<polyline fill="none" stroke="black" points="41,-380.5 41,-407.5 "/>
<text text-anchor="middle" x="62" y="-390.9" font-family="Times Roman,serif" font-size="14.00">794</text>
<polyline fill="none" stroke="black" points="83,-380.5 83,-407.5 "/>
<text text-anchor="middle" x="95.5" y="-390.9" font-family="Times Roman,serif" font-size="14.00"> </text>
</g>
<!-- node7 -->
<g id="node8" class="node"><title>node7</title>
<polygon fill="none" stroke="black" points="0,-412.5 0,-439.5 108,-439.5 108,-412.5 0,-412.5"/>
<text text-anchor="middle" x="20" y="-422.9" font-family="Times Roman,serif" font-size="14.00">s19</text>
<polyline fill="none" stroke="black" points="40,-412.5 40,-439.5 "/>
<text text-anchor="middle" x="61" y="-422.9" font-family="Times Roman,serif" font-size="14.00">659</text>
<polyline fill="none" stroke="black" points="82,-412.5 82,-439.5 "/>
<text text-anchor="middle" x="95" y="-422.9" font-family="Times Roman,serif" font-size="14.00"> </text>
</g>
</g>
</svg>
