<?xml version="1.0" encoding="UTF-8" standalone="no"?>
<!DOCTYPE svg PUBLIC "-//W3C//DTD SVG 1.1//EN"
 "http://www.w3.org/Graphics/SVG/1.1/DTD/svg11.dtd">
<!-- Generated by graphviz version 2.26.3 (20100126.1600)
 -->
<!-- Title: G Pages: 1 -->
<svg width="328pt" height="497pt"
 viewBox="0.00 0.00 328.00 497.00" xmlns="http://www.w3.org/2000/svg" xmlns:xlink="http://www.w3.org/1999/xlink">
<g id="graph1" class="graph" transform="scale(1 1) rotate(0) translate(4 493)">
<title>G</title>
<polygon fill="white" stroke="white" points="-4,5 -4,-493 325,-493 325,5 -4,5"/>
<g id="graph2" class="cluster"><title>cluster_outer</title>
<polygon fill="none" stroke="black" stroke-width="2" points="76,-66 76,-423 312,-423 312,-66 76,-66"/>
</g>
<g id="graph3" class="cluster"><title>cluster_inner</title>
<polygon fill="none" stroke="black" stroke-width="2" points="84,-140 84,-369 292,-369 292,-140 84,-140"/>
<text text-anchor="middle" x="188" y="-352.4" font-family="Times Roman,serif" font-size="14.00"> &#160;&#160;&#160;&#160;&#160;&#160;&#160;&#160;&#160;&#160;&#160;&#160;&#160;&#160;&#160;&#160;&#160;&#160;&#160;&#160;&#160;&#160;&#160;&#160;&#160;Act_2</text>
</g>
<!-- Act_1 -->
<g id="node2" class="node"><title>Act_1</title>
<ellipse fill="none" stroke="black" cx="200" cy="-396" rx="34.8574" ry="19.0919"/>
<text text-anchor="middle" x="200" y="-392.9" font-family="Times Roman,serif" font-size="14.00">Act_1</text>
</g>
<!-- Act_21 -->
<g id="node4" class="node"><title>Act_21</title>
<ellipse fill="none" stroke="black" cx="131" cy="-315" rx="39.0967" ry="19.0919"/>
<text text-anchor="middle" x="131" y="-311.9" font-family="Times Roman,serif" font-size="14.00">Act_21</text>
</g>
<!-- Act_1&#45;&gt;Act_21 -->
<g id="edge3" class="edge"><title>Act_1&#45;&gt;Act_21</title>
<path fill="none" stroke="black" d="M185.028,-378.424C175.599,-367.355 163.268,-352.88 152.768,-340.554"/>
<polygon fill="black" stroke="black" points="155.33,-338.164 146.181,-332.821 150.001,-342.703 155.33,-338.164"/>
</g>
<!-- Act_23 -->
<g id="node6" class="node"><title>Act_23</title>
<ellipse fill="none" stroke="black" cx="245" cy="-241" rx="39.0967" ry="19.0919"/>
<text text-anchor="middle" x="245" y="-237.9" font-family="Times Roman,serif" font-size="14.00">Act_23</text>
</g>
<!-- Act_1&#45;&gt;Act_23 -->
<g id="edge5" class="edge"><title>Act_1&#45;&gt;Act_23</title>
<path fill="none" stroke="black" d="M233.653,-390.576C257.214,-386.013 285.731,-378.68 293,-369 312.483,-343.057 304.392,-326.379 293,-296 288.663,-284.436 280.673,-273.705 272.438,-264.85"/>
<polygon fill="black" stroke="black" points="274.752,-262.213 265.225,-257.577 269.782,-267.142 274.752,-262.213"/>
</g>
<!-- Act_22 -->
<g id="node13" class="node"><title>Act_22</title>
<ellipse fill="none" stroke="black" cx="245" cy="-315" rx="39.0967" ry="19.0919"/>
<text text-anchor="middle" x="245" y="-311.9" font-family="Times Roman,serif" font-size="14.00">Act_22</text>
</g>
<!-- Act_21&#45;&gt;Act_22 -->
<g id="edge11" class="edge"><title>Act_21&#45;&gt;Act_22</title>
<path fill="none" stroke="black" d="M170.188,-315C178.729,-315 187.271,-315 195.813,-315"/>
<polygon fill="black" stroke="black" points="195.84,-318.5 205.84,-315 195.84,-311.5 195.84,-318.5"/>
</g>
<!-- Act_25 -->
<g id="node7" class="node"><title>Act_25</title>
<ellipse fill="none" stroke="black" cx="188" cy="-167" rx="39.0967" ry="19.0919"/>
<text text-anchor="middle" x="188" y="-163.9" font-family="Times Roman,serif" font-size="14.00">Act_25</text>
</g>
<!-- Act_23&#45;&gt;Act_25 -->
<g id="edge20" class="edge"><title>Act_23&#45;&gt;Act_25</title>
<path fill="none" stroke="black" d="M231.202,-223.087C224.252,-214.064 215.696,-202.956 208.036,-193.012"/>
<polygon fill="black" stroke="black" points="210.744,-190.791 201.869,-185.005 205.198,-195.063 210.744,-190.791"/>
</g>
<!-- Act_24 -->
<g id="node16" class="node"><title>Act_24</title>
<ellipse fill="none" stroke="black" cx="131" cy="-241" rx="39.0967" ry="19.0919"/>
<text text-anchor="middle" x="131" y="-237.9" font-family="Times Roman,serif" font-size="14.00">Act_24</text>
</g>
<!-- Act_23&#45;&gt;Act_24 -->
<g id="edge18" class="edge"><title>Act_23&#45;&gt;Act_24</title>
<path fill="none" stroke="black" d="M205.84,-241C197.299,-241 188.757,-241 180.215,-241"/>
<polygon fill="black" stroke="black" points="180.188,-237.5 170.188,-241 180.187,-244.5 180.188,-237.5"/>
</g>
<!-- Act_3 -->
<g id="node9" class="node"><title>Act_3</title>
<ellipse fill="none" stroke="black" cx="188" cy="-93" rx="34.8574" ry="19.0919"/>
<text text-anchor="middle" x="188" y="-89.9" font-family="Times Roman,serif" font-size="14.00">Act_3</text>
</g>
<!-- Act_25&#45;&gt;Act_3 -->
<g id="edge7" class="edge"><title>Act_25&#45;&gt;Act_3</title>
<path fill="none" stroke="black" d="M188,-147.943C188,-140.149 188,-130.954 188,-122.338"/>
<polygon fill="black" stroke="black" points="191.5,-122.249 188,-112.249 184.5,-122.249 191.5,-122.249"/>
</g>
<!-- Ext_2 -->
<g id="node24" class="node"><title>Ext_2</title>
<ellipse fill="none" stroke="black" cx="188" cy="-19" rx="34.1461" ry="19.0919"/>
<text text-anchor="middle" x="188" y="-15.9" font-family="Times Roman,serif" font-size="14.00">Ext_2</text>
</g>
<!-- Act_3&#45;&gt;Ext_2 -->
<g id="edge26" class="edge"><title>Act_3&#45;&gt;Ext_2</title>
<path fill="none" stroke="black" d="M188,-73.9432C188,-66.1493 188,-56.9538 188,-48.3381"/>
<polygon fill="black" stroke="black" points="191.5,-48.2494 188,-38.2495 184.5,-48.2495 191.5,-48.2494"/>
</g>
<!-- Act_22&#45;&gt;Act_23 -->
<g id="edge13" class="edge"><title>Act_22&#45;&gt;Act_23</title>
<path fill="none" stroke="black" d="M245,-295.943C245,-288.149 245,-278.954 245,-270.338"/>
<polygon fill="black" stroke="black" points="248.5,-270.249 245,-260.249 241.5,-270.249 248.5,-270.249"/>
</g>
<!-- Act_22&#45;&gt;Act_24 -->
<g id="edge15" class="edge"><title>Act_22&#45;&gt;Act_24</title>
<path fill="none" stroke="black" d="M221.379,-299.667C204.489,-288.703 181.561,-273.82 163.025,-261.788"/>
<polygon fill="black" stroke="black" points="164.884,-258.822 154.591,-256.313 161.073,-264.694 164.884,-258.822"/>
</g>
<!-- Act_24&#45;&gt;Act_25 -->
<g id="edge22" class="edge"><title>Act_24&#45;&gt;Act_25</title>
<path fill="none" stroke="black" d="M144.798,-223.087C151.748,-214.064 160.304,-202.956 167.964,-193.012"/>
<polygon fill="black" stroke="black" points="170.802,-195.063 174.131,-185.005 165.256,-190.791 170.802,-195.063"/>
</g>
<!-- Ext_1 -->
<g id="node21" class="node"><title>Ext_1</title>
<ellipse fill="none" stroke="black" cx="200" cy="-470" rx="34.1461" ry="19.0919"/>
<text text-anchor="middle" x="200" y="-466.9" font-family="Times Roman,serif" font-size="14.00">Ext_1</text>
</g>
<!-- Ext_1&#45;&gt;Act_1 -->
<g id="edge24" class="edge"><title>Ext_1&#45;&gt;Act_1</title>
<path fill="none" stroke="black" d="M200,-450.943C200,-443.149 200,-433.954 200,-425.338"/>
<polygon fill="black" stroke="black" points="203.5,-425.249 200,-415.249 196.5,-425.249 203.5,-425.249"/>
</g>
<!-- Ext_3 -->
<g id="node25" class="node"><title>Ext_3</title>
<ellipse fill="none" stroke="black" cx="34" cy="-315" rx="34.1461" ry="19.0919"/>
<text text-anchor="middle" x="34" y="-311.9" font-family="Times Roman,serif" font-size="14.00">Ext_3</text>
</g>
<!-- Ext_3&#45;&gt;Act_24 -->
<g id="edge28" class="edge"><title>Ext_3&#45;&gt;Act_24</title>
<path fill="none" stroke="black" d="M54.0985,-299.667C67.8639,-289.166 86.3424,-275.069 101.736,-263.325"/>
<polygon fill="black" stroke="black" points="104.093,-265.929 109.921,-257.081 99.8472,-260.364 104.093,-265.929"/>
</g>
</g>
</svg>
