<?xml version="1.0" encoding="UTF-8" standalone="no"?>
<!DOCTYPE svg PUBLIC "-//W3C//DTD SVG 1.1//EN"
 "http://www.w3.org/Graphics/SVG/1.1/DTD/svg11.dtd">
<!-- Generated by graphviz version 2.29.20121107.0545 (20121107.0545)
 -->
<!-- Title: G Pages: 1 -->
<svg width="311pt" height="479pt"
 viewBox="0.00 0.00 311.00 479.00" xmlns="http://www.w3.org/2000/svg" xmlns:xlink="http://www.w3.org/1999/xlink">
<g id="graph0" class="graph" transform="scale(1 1) rotate(0) translate(4 475)">
<title>G</title>
<polygon fill="white" stroke="white" points="-4,5 -4,-475 308,-475 308,5 -4,5"/>
<g id="clust1" class="cluster"><title>cluster_outer</title>
<polygon fill="none" stroke="black" stroke-width="2" points="71,-64 71,-407 295,-407 295,-64 71,-64"/>
</g>
<g id="clust2" class="cluster"><title>cluster_inner</title>
<polygon fill="none" stroke="black" stroke-width="2" points="79,-136 79,-355 275,-355 275,-136 79,-136"/>
<text text-anchor="middle" x="177" y="-339.8" font-family="Times,serif" font-size="14.00"> &#160;&#160;&#160;&#160;&#160;&#160;&#160;&#160;&#160;&#160;&#160;&#160;&#160;&#160;&#160;&#160;&#160;&#160;&#160;&#160;&#160;&#160;&#160;&#160;&#160;Act_2</text>
</g>
<!-- Act_1 -->
<g id="node1" class="node"><title>Act_1</title>
<ellipse fill="none" stroke="black" cx="189" cy="-381" rx="32.2457" ry="18"/>
<text text-anchor="middle" x="189" y="-377.3" font-family="Times,serif" font-size="14.00">Act_1</text>
</g>
<!-- Act_21 -->
<g id="node2" class="node"><title>Act_21</title>
<ellipse fill="none" stroke="black" cx="123" cy="-306" rx="36.096" ry="18"/>
<text text-anchor="middle" x="123" y="-302.3" font-family="Times,serif" font-size="14.00">Act_21</text>
</g>
<!-- Act_1&#45;&gt;Act_21 -->
<g id="edge1" class="edge"><title>Act_1&#45;&gt;Act_21</title>
<path fill="none" stroke="black" d="M175.003,-364.519C166.051,-354.617 154.269,-341.585 144.184,-330.43"/>
<polygon fill="black" stroke="black" points="146.507,-327.781 137.204,-322.711 141.315,-332.476 146.507,-327.781"/>
</g>
<!-- Act_23 -->
<g id="node3" class="node"><title>Act_23</title>
<ellipse fill="none" stroke="black" cx="231" cy="-234" rx="36.096" ry="18"/>
<text text-anchor="middle" x="231" y="-230.3" font-family="Times,serif" font-size="14.00">Act_23</text>
</g>
<!-- Act_1&#45;&gt;Act_23 -->
<g id="edge2" class="edge"><title>Act_1&#45;&gt;Act_23</title>
<path fill="none" stroke="black" d="M221.244,-379.795C240.435,-377.792 263.426,-371.696 276,-355 293.914,-331.213 286.266,-315.952 276,-288 271.858,-276.722 264.135,-266.203 256.241,-257.556"/>
<polygon fill="black" stroke="black" points="258.529,-254.889 249.041,-250.174 253.518,-259.777 258.529,-254.889"/>
</g>
<!-- Act_22 -->
<g id="node6" class="node"><title>Act_22</title>
<ellipse fill="none" stroke="black" cx="231" cy="-306" rx="36.096" ry="18"/>
<text text-anchor="middle" x="231" y="-302.3" font-family="Times,serif" font-size="14.00">Act_22</text>
</g>
<!-- Act_21&#45;&gt;Act_22 -->
<g id="edge4" class="edge"><title>Act_21&#45;&gt;Act_22</title>
<path fill="none" stroke="black" d="M159.281,-306C167.646,-306 176.012,-306 184.377,-306"/>
<polygon fill="black" stroke="black" points="184.58,-309.5 194.58,-306 184.58,-302.5 184.58,-309.5"/>
</g>
<!-- Act_24 -->
<g id="node7" class="node"><title>Act_24</title>
<ellipse fill="none" stroke="black" cx="123" cy="-234" rx="36.096" ry="18"/>
<text text-anchor="middle" x="123" y="-230.3" font-family="Times,serif" font-size="14.00">Act_24</text>
</g>
<!-- Act_23&#45;&gt;Act_24 -->
<g id="edge7" class="edge"><title>Act_23&#45;&gt;Act_24</title>
<path fill="none" stroke="black" d="M194.58,-234C186.215,-234 177.85,-234 169.485,-234"/>
<polygon fill="black" stroke="black" points="169.281,-230.5 159.281,-234 169.281,-237.5 169.281,-230.5"/>
</g>
<!-- Act_25 -->
<g id="node4" class="node"><title>Act_25</title>
<ellipse fill="none" stroke="black" cx="177" cy="-162" rx="36.096" ry="18"/>
<text text-anchor="middle" x="177" y="-158.3" font-family="Times,serif" font-size="14.00">Act_25</text>
</g>
<!-- Act_23&#45;&gt;Act_25 -->
<g id="edge8" class="edge"><title>Act_23&#45;&gt;Act_25</title>
<path fill="none" stroke="black" d="M218.476,-216.765C211.728,-208.018 203.269,-197.052 195.752,-187.308"/>
<polygon fill="black" stroke="black" points="198.336,-184.927 189.456,-179.147 192.793,-189.203 198.336,-184.927"/>
</g>
<!-- Act_3 -->
<g id="node5" class="node"><title>Act_3</title>
<ellipse fill="none" stroke="black" cx="177" cy="-90" rx="32.2457" ry="18"/>
<text text-anchor="middle" x="177" y="-86.3" font-family="Times,serif" font-size="14.00">Act_3</text>
</g>
<!-- Act_25&#45;&gt;Act_3 -->
<g id="edge3" class="edge"><title>Act_25&#45;&gt;Act_3</title>
<path fill="none" stroke="black" d="M177,-143.697C177,-135.983 177,-126.712 177,-118.112"/>
<polygon fill="black" stroke="black" points="180.5,-118.104 177,-108.104 173.5,-118.104 180.5,-118.104"/>
</g>
<!-- Ext_2 -->
<g id="node9" class="node"><title>Ext_2</title>
<ellipse fill="none" stroke="black" cx="177" cy="-18" rx="31.2735" ry="18"/>
<text text-anchor="middle" x="177" y="-14.3" font-family="Times,serif" font-size="14.00">Ext_2</text>
</g>
<!-- Act_3&#45;&gt;Ext_2 -->
<g id="edge11" class="edge"><title>Act_3&#45;&gt;Ext_2</title>
<path fill="none" stroke="black" d="M177,-71.6966C177,-63.9827 177,-54.7125 177,-46.1124"/>
<polygon fill="black" stroke="black" points="180.5,-46.1043 177,-36.1043 173.5,-46.1044 180.5,-46.1043"/>
</g>
<!-- Act_22&#45;&gt;Act_23 -->
<g id="edge5" class="edge"><title>Act_22&#45;&gt;Act_23</title>
<path fill="none" stroke="black" d="M231,-287.697C231,-279.983 231,-270.712 231,-262.112"/>
<polygon fill="black" stroke="black" points="234.5,-262.104 231,-252.104 227.5,-262.104 234.5,-262.104"/>
</g>
<!-- Act_22&#45;&gt;Act_24 -->
<g id="edge6" class="edge"><title>Act_22&#45;&gt;Act_24</title>
<path fill="none" stroke="black" d="M209.92,-291.337C193.672,-280.806 170.993,-266.107 152.875,-254.364"/>
<polygon fill="black" stroke="black" points="154.691,-251.37 144.396,-248.868 150.884,-257.244 154.691,-251.37"/>
</g>
<!-- Act_24&#45;&gt;Act_25 -->
<g id="edge9" class="edge"><title>Act_24&#45;&gt;Act_25</title>
<path fill="none" stroke="black" d="M135.524,-216.765C142.272,-208.018 150.731,-197.052 158.248,-187.308"/>
<polygon fill="black" stroke="black" points="161.207,-189.203 164.544,-179.147 155.664,-184.927 161.207,-189.203"/>
</g>
<!-- Ext_1 -->
<g id="node8" class="node"><title>Ext_1</title>
<ellipse fill="none" stroke="black" cx="189" cy="-453" rx="31.2735" ry="18"/>
<text text-anchor="middle" x="189" y="-449.3" font-family="Times,serif" font-size="14.00">Ext_1</text>
</g>
<!-- Ext_1&#45;&gt;Act_1 -->
<g id="edge10" class="edge"><title>Ext_1&#45;&gt;Act_1</title>
<path fill="none" stroke="black" d="M189,-434.697C189,-426.983 189,-417.712 189,-409.112"/>
<polygon fill="black" stroke="black" points="192.5,-409.104 189,-399.104 185.5,-409.104 192.5,-409.104"/>
</g>
<!-- Ext_3 -->
<g id="node10" class="node"><title>Ext_3</title>
<ellipse fill="none" stroke="black" cx="31" cy="-306" rx="31.2735" ry="18"/>
<text text-anchor="middle" x="31" y="-302.3" font-family="Times,serif" font-size="14.00">Ext_3</text>
</g>
<!-- Ext_3&#45;&gt;Act_24 -->
<g id="edge12" class="edge"><title>Ext_3&#45;&gt;Act_24</title>
<path fill="none" stroke="black" d="M49.1762,-291.17C62.5199,-281.017 80.8669,-267.058 95.9321,-255.595"/>
<polygon fill="black" stroke="black" points="98.0724,-258.365 103.911,-249.524 93.8337,-252.794 98.0724,-258.365"/>
</g>
</g>
</svg>
