<?xml version="1.0" encoding="UTF-8" standalone="no"?>
<!DOCTYPE svg PUBLIC "-//W3C//DTD SVG 1.1//EN"
 "http://www.w3.org/Graphics/SVG/1.1/DTD/svg11.dtd">
<!-- Generated by graphviz version 2.26.3 (20100126.1600)
 -->
<!-- Title: if Pages: 1 -->
<svg width="207pt" height="121pt"
 viewBox="0.00 0.00 207.00 121.00" xmlns="http://www.w3.org/2000/svg" xmlns:xlink="http://www.w3.org/1999/xlink">
<g id="graph1" class="graph" transform="scale(1 1) rotate(0) translate(4 117)">
<title>if</title>
<polygon fill="white" stroke="white" points="-4,5 -4,-117 204,-117 204,5 -4,5"/>
<!-- b -->
<g id="node2" class="node"><title>b</title>
<ellipse fill="none" stroke="black" cx="119" cy="-19" rx="27" ry="19.0919"/>
<text text-anchor="middle" x="119" y="-15.9" font-family="Times Roman,serif" font-size="14.00">b</text>
</g>
<!-- c -->
<g id="node3" class="node"><title>c</title>
<ellipse fill="none" stroke="black" cx="119" cy="-94" rx="27" ry="19.0919"/>
<text text-anchor="middle" x="119" y="-90.9" font-family="Times Roman,serif" font-size="14.00">c</text>
</g>
<!-- c&#45;&gt;b -->
<g id="edge5" class="edge"><title>c&#45;&gt;b</title>
<path fill="none" stroke="black" d="M119,-38.2489C119,-46.2019 119,-55.6033 119,-64.3977"/>
<polygon fill="black" stroke="black" points="115.5,-64.6856 119,-74.6856 122.5,-64.6856 115.5,-64.6856"/>
<text text-anchor="middle" x="159" y="-52.9" font-family="Times Roman,serif" font-size="14.00">long long long</text>
</g>
<!-- a -->
<g id="node4" class="node"><title>a</title>
<ellipse fill="none" stroke="black" cx="27" cy="-19" rx="27" ry="19.0919"/>
<text text-anchor="middle" x="27" y="-15.9" font-family="Times Roman,serif" font-size="14.00">a</text>
</g>
<!-- a&#45;&gt;b -->
<g id="edge3" class="edge"><title>a&#45;&gt;b</title>
<path fill="none" stroke="black" d="M54.1054,-19C62.7317,-19 72.431,-19 81.6495,-19"/>
<polygon fill="black" stroke="black" points="81.7704,-22.5001 91.7704,-19 81.7703,-15.5001 81.7704,-22.5001"/>
</g>
</g>
</svg>
