<?xml version="1.0" encoding="UTF-8" standalone="no"?>
<!DOCTYPE svg PUBLIC "-//W3C//DTD SVG 1.1//EN"
 "http://www.w3.org/Graphics/SVG/1.1/DTD/svg11.dtd">
<!-- Generated by graphviz version 2.30.1 (20130611.0131)
 -->
<!-- Title: if Pages: 1 -->
<svg width="154pt" height="116pt"
 viewBox="0.00 0.00 154.00 116.00" xmlns="http://www.w3.org/2000/svg" xmlns:xlink="http://www.w3.org/1999/xlink">
<g id="graph0" class="graph" transform="scale(1 1) rotate(0) translate(4 112)">
<title>if</title>
<polygon fill="white" stroke="white" points="-4,5 -4,-112 151,-112 151,5 -4,5"/>
<!-- b -->
<g id="node1" class="node"><title>b</title>
<ellipse fill="none" stroke="black" cx="119" cy="-18" rx="27" ry="18"/>
<text text-anchor="middle" x="119" y="-14.3" font-family="Times,serif" font-size="14.00">b</text>
</g>
<!-- c -->
<g id="node2" class="node"><title>c</title>
<ellipse fill="none" stroke="black" cx="119" cy="-90" rx="27" ry="18"/>
<text text-anchor="middle" x="119" y="-86.3" font-family="Times,serif" font-size="14.00">c</text>
</g>
<!-- c&#45;&gt;b -->
<g id="edge2" class="edge"><title>c&#45;&gt;b</title>
<path fill="none" stroke="black" d="M119,-71.5867C119,-63.9407 119,-54.8916 119,-46.4274"/>
<polygon fill="black" stroke="black" points="122.5,-46.1686 119,-36.1686 115.5,-46.1687 122.5,-46.1686"/>
<text text-anchor="middle" x="108.5" y="-50.3" font-family="Times,serif" font-size="14.00">long long long</text>
</g>
<!-- a -->
<g id="node3" class="node"><title>a</title>
<ellipse fill="none" stroke="black" cx="27" cy="-18" rx="27" ry="18"/>
<text text-anchor="middle" x="27" y="-14.3" font-family="Times,serif" font-size="14.00">a</text>
</g>
<!-- a&#45;&gt;b -->
<g id="edge1" class="edge"><title>a&#45;&gt;b</title>
<path fill="none" stroke="black" d="M54.0317,-18C62.6318,-18 72.3631,-18 81.5935,-18"/>
<polygon fill="black" stroke="black" points="81.715,-21.5001 91.715,-18 81.7149,-14.5001 81.715,-21.5001"/>
</g>
</g>
</svg>
