<?xml version="1.0" encoding="UTF-8" standalone="no"?>
<!DOCTYPE svg PUBLIC "-//W3C//DTD SVG 1.1//EN"
 "http://www.w3.org/Graphics/SVG/1.1/DTD/svg11.dtd">
<!-- Generated by graphviz version 2.29.20121107.0545 (20121107.0545)
 -->
<!-- Title: mike Pages: 1 -->
<svg width="445pt" height="576pt"
 viewBox="0.00 0.00 444.82 576.00" xmlns="http://www.w3.org/2000/svg" xmlns:xlink="http://www.w3.org/1999/xlink">
<g id="graph0" class="graph" transform="scale(0.753927 0.753927) rotate(0) translate(4 760)">
<title>mike</title>
<polygon fill="white" stroke="white" points="-4,5 -4,-760 587,-760 587,5 -4,5"/>
<!-- a -->
<g id="node1" class="node"><title>a</title>
<ellipse fill="none" stroke="black" cx="81" cy="-594" rx="27" ry="18"/>
<text text-anchor="middle" x="81" y="-590.3" font-family="Times,serif" font-size="14.00">a</text>
</g>
<!-- A -->
<g id="node2" class="node"><title>A</title>
<ellipse fill="none" stroke="black" cx="81" cy="-450" rx="27" ry="18"/>
<text text-anchor="middle" x="81" y="-446.3" font-family="Times,serif" font-size="14.00">A</text>
</g>
<!-- a&#45;&gt;A -->
<g id="edge1" class="edge"><title>a&#45;&gt;A</title>
<path fill="none" stroke="black" d="M81,-575.871C81,-551.67 81,-507.211 81,-478.393"/>
<polygon fill="black" stroke="black" points="84.5001,-478.189 81,-468.189 77.5001,-478.189 84.5001,-478.189"/>
</g>
<!-- m -->
<g id="node3" class="node"><title>m</title>
<ellipse fill="none" stroke="black" cx="27" cy="-378" rx="27" ry="18"/>
<text text-anchor="middle" x="27" y="-374.3" font-family="Times,serif" font-size="14.00">m</text>
</g>
<!-- a&#45;&gt;m -->
<g id="edge2" class="edge"><title>a&#45;&gt;m</title>
<path fill="none" stroke="black" d="M75.6714,-576.133C68.2269,-552.226 54.5547,-507.047 45,-468 39.9732,-447.457 35.2717,-424.004 31.9351,-406.331"/>
<polygon fill="black" stroke="black" points="35.3117,-405.345 30.0432,-396.153 28.4296,-406.624 35.3117,-405.345"/>
</g>
<!-- E -->
<g id="node4" class="node"><title>E</title>
<ellipse fill="none" stroke="black" cx="136" cy="-522" rx="27" ry="18"/>
<text text-anchor="middle" x="136" y="-518.3" font-family="Times,serif" font-size="14.00">E</text>
</g>
<!-- a&#45;&gt;E -->
<g id="edge3" class="edge"><title>a&#45;&gt;E</title>
<path fill="none" stroke="black" d="M92.9342,-577.811C100.214,-568.546 109.663,-556.52 117.854,-546.094"/>
<polygon fill="black" stroke="black" points="120.663,-548.185 124.089,-538.159 115.159,-543.86 120.663,-548.185"/>
</g>
<!-- M -->
<g id="node32" class="node"><title>M</title>
<ellipse fill="none" stroke="black" cx="90" cy="-306" rx="27" ry="18"/>
<text text-anchor="middle" x="90" y="-302.3" font-family="Times,serif" font-size="14.00">M</text>
</g>
<!-- A&#45;&gt;M -->
<g id="edge38" class="edge"><title>A&#45;&gt;M</title>
<path fill="none" stroke="black" d="M82.0856,-431.871C83.6195,-407.67 86.4373,-363.211 88.2638,-334.393"/>
<polygon fill="black" stroke="black" points="91.7709,-334.391 88.9105,-324.189 84.7849,-333.948 91.7709,-334.391"/>
</g>
<!-- R -->
<g id="node12" class="node"><title>R</title>
<ellipse fill="none" stroke="black" cx="37" cy="-234" rx="27" ry="18"/>
<text text-anchor="middle" x="37" y="-230.3" font-family="Times,serif" font-size="14.00">R</text>
</g>
<!-- m&#45;&gt;R -->
<g id="edge8" class="edge"><title>m&#45;&gt;R</title>
<path fill="none" stroke="black" d="M28.2062,-359.871C29.9105,-335.67 33.0415,-291.211 35.0709,-262.393"/>
<polygon fill="black" stroke="black" points="38.5783,-262.41 35.7895,-252.189 31.5956,-261.919 38.5783,-262.41"/>
</g>
<!-- G -->
<g id="node28" class="node"><title>G</title>
<ellipse fill="none" stroke="black" cx="153" cy="-450" rx="27" ry="18"/>
<text text-anchor="middle" x="153" y="-446.3" font-family="Times,serif" font-size="14.00">G</text>
</g>
<!-- E&#45;&gt;G -->
<g id="edge30" class="edge"><title>E&#45;&gt;G</title>
<path fill="none" stroke="black" d="M140.115,-504.055C142.008,-496.261 144.3,-486.822 146.424,-478.079"/>
<polygon fill="black" stroke="black" points="149.846,-478.819 148.805,-468.275 143.043,-477.167 149.846,-478.819"/>
</g>
<!-- t -->
<g id="node5" class="node"><title>t</title>
<ellipse fill="none" stroke="black" cx="208" cy="-738" rx="27" ry="18"/>
<text text-anchor="middle" x="208" y="-734.3" font-family="Times,serif" font-size="14.00">t</text>
</g>
<!-- O -->
<g id="node6" class="node"><title>O</title>
<ellipse fill="none" stroke="black" cx="208" cy="-666" rx="27" ry="18"/>
<text text-anchor="middle" x="208" y="-662.3" font-family="Times,serif" font-size="14.00">O</text>
</g>
<!-- t&#45;&gt;O -->
<g id="edge4" class="edge"><title>t&#45;&gt;O</title>
<path fill="none" stroke="black" d="M208,-719.697C208,-711.983 208,-702.712 208,-694.112"/>
<polygon fill="black" stroke="black" points="211.5,-694.104 208,-684.104 204.5,-694.104 211.5,-694.104"/>
</g>
<!-- K -->
<g id="node22" class="node"><title>K</title>
<ellipse fill="none" stroke="black" cx="208" cy="-594" rx="27" ry="18"/>
<text text-anchor="middle" x="208" y="-590.3" font-family="Times,serif" font-size="14.00">K</text>
</g>
<!-- O&#45;&gt;K -->
<g id="edge18" class="edge"><title>O&#45;&gt;K</title>
<path fill="none" stroke="black" d="M208,-647.697C208,-639.983 208,-630.712 208,-622.112"/>
<polygon fill="black" stroke="black" points="211.5,-622.104 208,-612.104 204.5,-622.104 211.5,-622.104"/>
</g>
<!-- r -->
<g id="node7" class="node"><title>r</title>
<ellipse fill="none" stroke="black" cx="398" cy="-594" rx="27" ry="18"/>
<text text-anchor="middle" x="398" y="-590.3" font-family="Times,serif" font-size="14.00">r</text>
</g>
<!-- V -->
<g id="node8" class="node"><title>V</title>
<ellipse fill="none" stroke="black" cx="439" cy="-522" rx="27" ry="18"/>
<text text-anchor="middle" x="439" y="-518.3" font-family="Times,serif" font-size="14.00">V</text>
</g>
<!-- r&#45;&gt;V -->
<g id="edge5" class="edge"><title>r&#45;&gt;V</title>
<path fill="none" stroke="black" d="M407.509,-576.765C412.529,-568.195 418.796,-557.494 424.415,-547.9"/>
<polygon fill="black" stroke="black" points="427.508,-549.545 429.542,-539.147 421.468,-546.007 427.508,-549.545"/>
</g>
<!-- Q -->
<g id="node9" class="node"><title>Q</title>
<ellipse fill="none" stroke="black" cx="357" cy="-522" rx="27" ry="18"/>
<text text-anchor="middle" x="357" y="-518.3" font-family="Times,serif" font-size="14.00">Q</text>
</g>
<!-- r&#45;&gt;Q -->
<g id="edge6" class="edge"><title>r&#45;&gt;Q</title>
<path fill="none" stroke="black" d="M388.491,-576.765C383.471,-568.195 377.204,-557.494 371.585,-547.9"/>
<polygon fill="black" stroke="black" points="374.532,-546.007 366.458,-539.147 368.492,-549.545 374.532,-546.007"/>
</g>
<!-- W -->
<g id="node16" class="node"><title>W</title>
<ellipse fill="none" stroke="black" cx="445" cy="-450" rx="27" ry="18"/>
<text text-anchor="middle" x="445" y="-446.3" font-family="Times,serif" font-size="14.00">W</text>
</g>
<!-- V&#45;&gt;W -->
<g id="edge13" class="edge"><title>V&#45;&gt;W</title>
<path fill="none" stroke="black" d="M440.483,-503.697C441.144,-495.983 441.939,-486.712 442.676,-478.112"/>
<polygon fill="black" stroke="black" points="446.167,-478.367 443.534,-468.104 439.193,-477.769 446.167,-478.367"/>
</g>
<!-- T -->
<g id="node19" class="node"><title>T</title>
<ellipse fill="none" stroke="black" cx="335" cy="-450" rx="27" ry="18"/>
<text text-anchor="middle" x="335" y="-446.3" font-family="Times,serif" font-size="14.00">T</text>
</g>
<!-- Q&#45;&gt;T -->
<g id="edge15" class="edge"><title>Q&#45;&gt;T</title>
<path fill="none" stroke="black" d="M351.674,-504.055C349.161,-496.059 346.104,-486.331 343.297,-477.4"/>
<polygon fill="black" stroke="black" points="346.614,-476.28 340.277,-467.789 339.936,-478.378 346.614,-476.28"/>
</g>
<!-- H -->
<g id="node21" class="node"><title>H</title>
<ellipse fill="none" stroke="black" cx="219" cy="-306" rx="27" ry="18"/>
<text text-anchor="middle" x="219" y="-302.3" font-family="Times,serif" font-size="14.00">H</text>
</g>
<!-- Q&#45;&gt;H -->
<g id="edge16" class="edge"><title>Q&#45;&gt;H</title>
<path fill="none" stroke="black" d="M364.945,-504.773C372.799,-486.297 382.156,-455.619 371,-432 346.018,-379.111 286.47,-341.057 249.762,-321.65"/>
<polygon fill="black" stroke="black" points="251.003,-318.353 240.509,-316.897 247.804,-324.58 251.003,-318.353"/>
</g>
<!-- Q&#45;&gt;A -->
<g id="edge17" class="edge"><title>Q&#45;&gt;A</title>
<path fill="none" stroke="black" d="M335.183,-510.94C329.071,-508.402 322.358,-505.87 316,-504 229.771,-478.642 202.594,-495.425 117,-468 115.075,-467.383 113.119,-466.685 111.166,-465.933"/>
<polygon fill="black" stroke="black" points="112.136,-462.542 101.564,-461.841 109.391,-468.981 112.136,-462.542"/>
</g>
<!-- p -->
<g id="node10" class="node"><title>p</title>
<ellipse fill="none" stroke="black" cx="109" cy="-234" rx="27" ry="18"/>
<text text-anchor="middle" x="109" y="-230.3" font-family="Times,serif" font-size="14.00">p</text>
</g>
<!-- B -->
<g id="node11" class="node"><title>B</title>
<ellipse fill="none" stroke="black" cx="159" cy="-162" rx="27" ry="18"/>
<text text-anchor="middle" x="159" y="-158.3" font-family="Times,serif" font-size="14.00">B</text>
</g>
<!-- p&#45;&gt;B -->
<g id="edge7" class="edge"><title>p&#45;&gt;B</title>
<path fill="none" stroke="black" d="M120.097,-217.465C126.505,-208.493 134.701,-197.019 141.916,-186.918"/>
<polygon fill="black" stroke="black" points="144.97,-188.664 147.934,-178.492 139.274,-184.595 144.97,-188.664"/>
</g>
<!-- N -->
<g id="node31" class="node"><title>N</title>
<ellipse fill="none" stroke="black" cx="159" cy="-90" rx="27" ry="18"/>
<text text-anchor="middle" x="159" y="-86.3" font-family="Times,serif" font-size="14.00">N</text>
</g>
<!-- B&#45;&gt;N -->
<g id="edge34" class="edge"><title>B&#45;&gt;N</title>
<path fill="none" stroke="black" d="M159,-143.697C159,-135.983 159,-126.712 159,-118.112"/>
<polygon fill="black" stroke="black" points="162.5,-118.104 159,-108.104 155.5,-118.104 162.5,-118.104"/>
</g>
<!-- D -->
<g id="node18" class="node"><title>D</title>
<ellipse fill="none" stroke="black" cx="393" cy="-18" rx="27" ry="18"/>
<text text-anchor="middle" x="393" y="-14.3" font-family="Times,serif" font-size="14.00">D</text>
</g>
<!-- B&#45;&gt;D -->
<g id="edge35" class="edge"><title>B&#45;&gt;D</title>
<path fill="none" stroke="black" d="M180.059,-150.311C184.9,-148.064 190.074,-145.824 195,-144 251.622,-123.03 276.058,-141.936 326,-108 349.752,-91.8598 368.491,-64.5015 380.042,-44.3682"/>
<polygon fill="black" stroke="black" points="383.213,-45.866 384.98,-35.4196 377.084,-42.4839 383.213,-45.866"/>
</g>
<!-- S -->
<g id="node30" class="node"><title>S</title>
<ellipse fill="none" stroke="black" cx="290" cy="-90" rx="27" ry="18"/>
<text text-anchor="middle" x="290" y="-86.3" font-family="Times,serif" font-size="14.00">S</text>
</g>
<!-- B&#45;&gt;S -->
<g id="edge36" class="edge"><title>B&#45;&gt;S</title>
<path fill="none" stroke="black" d="M179.469,-150.062C201.291,-138.402 236.039,-119.834 260.746,-106.632"/>
<polygon fill="black" stroke="black" points="262.505,-109.661 269.675,-101.861 259.206,-103.487 262.505,-109.661"/>
</g>
<!-- R&#45;&gt;B -->
<g id="edge24" class="edge"><title>R&#45;&gt;B</title>
<path fill="none" stroke="black" d="M56.8729,-221.597C76.8124,-210.157 107.726,-192.42 130.321,-179.455"/>
<polygon fill="black" stroke="black" points="132.204,-182.41 139.136,-174.398 128.72,-176.339 132.204,-182.41"/>
</g>
<!-- l -->
<g id="node13" class="node"><title>l</title>
<ellipse fill="none" stroke="black" cx="555" cy="-162" rx="27" ry="18"/>
<text text-anchor="middle" x="555" y="-158.3" font-family="Times,serif" font-size="14.00">l</text>
</g>
<!-- C -->
<g id="node14" class="node"><title>C</title>
<ellipse fill="none" stroke="black" cx="483" cy="-90" rx="27" ry="18"/>
<text text-anchor="middle" x="483" y="-86.3" font-family="Times,serif" font-size="14.00">C</text>
</g>
<!-- l&#45;&gt;C -->
<g id="edge9" class="edge"><title>l&#45;&gt;C</title>
<path fill="none" stroke="black" d="M540.43,-146.834C530.25,-136.938 516.476,-123.546 504.969,-112.359"/>
<polygon fill="black" stroke="black" points="507.405,-109.846 497.796,-105.385 502.526,-114.865 507.405,-109.846"/>
</g>
<!-- Z -->
<g id="node29" class="node"><title>Z</title>
<ellipse fill="none" stroke="black" cx="483" cy="-18" rx="27" ry="18"/>
<text text-anchor="middle" x="483" y="-14.3" font-family="Times,serif" font-size="14.00">Z</text>
</g>
<!-- C&#45;&gt;Z -->
<g id="edge31" class="edge"><title>C&#45;&gt;Z</title>
<path fill="none" stroke="black" d="M483,-71.6966C483,-63.9827 483,-54.7125 483,-46.1124"/>
<polygon fill="black" stroke="black" points="486.5,-46.1043 483,-36.1043 479.5,-46.1044 486.5,-46.1043"/>
</g>
<!-- C&#45;&gt;D -->
<g id="edge32" class="edge"><title>C&#45;&gt;D</title>
<path fill="none" stroke="black" d="M466.072,-75.8335C452.495,-65.2741 433.243,-50.3001 417.908,-38.3728"/>
<polygon fill="black" stroke="black" points="419.895,-35.4841 409.852,-32.1074 415.597,-41.0096 419.895,-35.4841"/>
</g>
<!-- c -->
<g id="node15" class="node"><title>c</title>
<ellipse fill="none" stroke="black" cx="483" cy="-162" rx="27" ry="18"/>
<text text-anchor="middle" x="483" y="-158.3" font-family="Times,serif" font-size="14.00">c</text>
</g>
<!-- c&#45;&gt;C -->
<g id="edge10" class="edge"><title>c&#45;&gt;C</title>
<path fill="none" stroke="black" d="M483,-143.697C483,-135.983 483,-126.712 483,-118.112"/>
<polygon fill="black" stroke="black" points="486.5,-118.104 483,-108.104 479.5,-118.104 486.5,-118.104"/>
</g>
<!-- X -->
<g id="node17" class="node"><title>X</title>
<ellipse fill="none" stroke="black" cx="483" cy="-378" rx="27" ry="18"/>
<text text-anchor="middle" x="483" y="-374.3" font-family="Times,serif" font-size="14.00">X</text>
</g>
<!-- W&#45;&gt;X -->
<g id="edge11" class="edge"><title>W&#45;&gt;X</title>
<path fill="none" stroke="black" d="M453.813,-432.765C458.418,-424.283 464.155,-413.714 469.321,-404.197"/>
<polygon fill="black" stroke="black" points="472.539,-405.606 474.234,-395.147 466.387,-402.266 472.539,-405.606"/>
</g>
<!-- W&#45;&gt;D -->
<g id="edge12" class="edge"><title>W&#45;&gt;D</title>
<path fill="none" stroke="black" d="M441.641,-432.029C436.687,-405.475 428,-352.437 428,-307 428,-307 428,-307 428,-161 428,-119.617 413.813,-73.3705 403.504,-45.227"/>
<polygon fill="black" stroke="black" points="406.721,-43.8392 399.915,-35.7199 400.173,-46.3116 406.721,-43.8392"/>
</g>
<!-- U -->
<g id="node20" class="node"><title>U</title>
<ellipse fill="none" stroke="black" cx="215" cy="-378" rx="27" ry="18"/>
<text text-anchor="middle" x="215" y="-374.3" font-family="Times,serif" font-size="14.00">U</text>
</g>
<!-- T&#45;&gt;U -->
<g id="edge14" class="edge"><title>T&#45;&gt;U</title>
<path fill="none" stroke="black" d="M315.184,-437.441C295.73,-426.092 265.843,-408.658 243.772,-395.784"/>
<polygon fill="black" stroke="black" points="245.246,-392.592 234.845,-390.576 241.719,-398.638 245.246,-392.592"/>
</g>
<!-- U&#45;&gt;H -->
<g id="edge28" class="edge"><title>U&#45;&gt;H</title>
<path fill="none" stroke="black" d="M215.989,-359.697C216.43,-351.983 216.959,-342.712 217.451,-334.112"/>
<polygon fill="black" stroke="black" points="220.946,-334.288 218.023,-324.104 213.958,-333.888 220.946,-334.288"/>
</g>
<!-- H&#45;&gt;R -->
<g id="edge26" class="edge"><title>H&#45;&gt;R</title>
<path fill="none" stroke="black" d="M195.224,-297.129C166.112,-287.319 115.441,-269.679 73,-252 71.1816,-251.243 69.3219,-250.443 67.4526,-249.62"/>
<polygon fill="black" stroke="black" points="68.7251,-246.354 58.1734,-245.399 65.8264,-252.726 68.7251,-246.354"/>
</g>
<!-- P -->
<g id="node26" class="node"><title>P</title>
<ellipse fill="none" stroke="black" cx="223" cy="-234" rx="27" ry="18"/>
<text text-anchor="middle" x="223" y="-230.3" font-family="Times,serif" font-size="14.00">P</text>
</g>
<!-- H&#45;&gt;P -->
<g id="edge27" class="edge"><title>H&#45;&gt;P</title>
<path fill="none" stroke="black" d="M219.989,-287.697C220.43,-279.983 220.959,-270.712 221.451,-262.112"/>
<polygon fill="black" stroke="black" points="224.946,-262.288 222.023,-252.104 217.958,-261.888 224.946,-262.288"/>
</g>
<!-- L -->
<g id="node23" class="node"><title>L</title>
<ellipse fill="none" stroke="black" cx="208" cy="-522" rx="27" ry="18"/>
<text text-anchor="middle" x="208" y="-518.3" font-family="Times,serif" font-size="14.00">L</text>
</g>
<!-- K&#45;&gt;L -->
<g id="edge20" class="edge"><title>K&#45;&gt;L</title>
<path fill="none" stroke="black" d="M208,-575.697C208,-567.983 208,-558.712 208,-550.112"/>
<polygon fill="black" stroke="black" points="211.5,-550.104 208,-540.104 204.5,-550.104 211.5,-550.104"/>
</g>
<!-- J -->
<g id="node24" class="node"><title>J</title>
<ellipse fill="none" stroke="black" cx="280" cy="-522" rx="27" ry="18"/>
<text text-anchor="middle" x="280" y="-518.3" font-family="Times,serif" font-size="14.00">J</text>
</g>
<!-- K&#45;&gt;J -->
<g id="edge21" class="edge"><title>K&#45;&gt;J</title>
<path fill="none" stroke="black" d="M222.57,-578.834C232.75,-568.938 246.524,-555.546 258.031,-544.359"/>
<polygon fill="black" stroke="black" points="260.474,-546.865 265.204,-537.385 255.595,-541.846 260.474,-546.865"/>
</g>
<!-- K&#45;&gt;E -->
<g id="edge22" class="edge"><title>K&#45;&gt;E</title>
<path fill="none" stroke="black" d="M193.43,-578.834C183.25,-568.938 169.476,-555.546 157.969,-544.359"/>
<polygon fill="black" stroke="black" points="160.405,-541.846 150.796,-537.385 155.526,-546.865 160.405,-541.846"/>
</g>
<!-- L&#45;&gt;U -->
<g id="edge19" class="edge"><title>L&#45;&gt;U</title>
<path fill="none" stroke="black" d="M208.844,-503.871C210.037,-479.67 212.229,-435.211 213.65,-406.393"/>
<polygon fill="black" stroke="black" points="217.156,-406.349 214.153,-396.189 210.164,-406.005 217.156,-406.349"/>
</g>
<!-- I -->
<g id="node25" class="node"><title>I</title>
<ellipse fill="none" stroke="black" cx="263" cy="-450" rx="27" ry="18"/>
<text text-anchor="middle" x="263" y="-446.3" font-family="Times,serif" font-size="14.00">I</text>
</g>
<!-- J&#45;&gt;I -->
<g id="edge23" class="edge"><title>J&#45;&gt;I</title>
<path fill="none" stroke="black" d="M275.885,-504.055C273.992,-496.261 271.7,-486.822 269.576,-478.079"/>
<polygon fill="black" stroke="black" points="272.957,-477.167 267.195,-468.275 266.154,-478.819 272.957,-477.167"/>
</g>
<!-- F -->
<g id="node27" class="node"><title>F</title>
<ellipse fill="none" stroke="black" cx="231" cy="-162" rx="27" ry="18"/>
<text text-anchor="middle" x="231" y="-158.3" font-family="Times,serif" font-size="14.00">F</text>
</g>
<!-- P&#45;&gt;F -->
<g id="edge25" class="edge"><title>P&#45;&gt;F</title>
<path fill="none" stroke="black" d="M224.978,-215.697C225.859,-207.983 226.919,-198.712 227.901,-190.112"/>
<polygon fill="black" stroke="black" points="231.387,-190.437 229.045,-180.104 224.432,-189.642 231.387,-190.437"/>
</g>
<!-- G&#45;&gt;U -->
<g id="edge29" class="edge"><title>G&#45;&gt;U</title>
<path fill="none" stroke="black" d="M166.149,-434.155C174.533,-424.689 185.56,-412.238 195.016,-401.563"/>
<polygon fill="black" stroke="black" points="197.86,-403.63 201.87,-393.824 192.62,-398.989 197.86,-403.63"/>
</g>
<!-- S&#45;&gt;D -->
<g id="edge33" class="edge"><title>S&#45;&gt;D</title>
<path fill="none" stroke="black" d="M308.414,-76.4854C324.526,-65.5358 348.129,-49.4946 366.311,-37.1378"/>
<polygon fill="black" stroke="black" points="368.442,-39.922 374.745,-31.4063 364.507,-34.1324 368.442,-39.922"/>
</g>
<!-- Y -->
<g id="node33" class="node"><title>Y</title>
<ellipse fill="none" stroke="black" cx="159" cy="-18" rx="27" ry="18"/>
<text text-anchor="middle" x="159" y="-14.3" font-family="Times,serif" font-size="14.00">Y</text>
</g>
<!-- N&#45;&gt;Y -->
<g id="edge39" class="edge"><title>N&#45;&gt;Y</title>
<path fill="none" stroke="black" d="M159,-71.6966C159,-63.9827 159,-54.7125 159,-46.1124"/>
<polygon fill="black" stroke="black" points="162.5,-46.1043 159,-36.1043 155.5,-46.1044 162.5,-46.1043"/>
</g>
<!-- M&#45;&gt;B -->
<g id="edge37" class="edge"><title>M&#45;&gt;B</title>
<path fill="none" stroke="black" d="M108.098,-292.563C120.559,-282.978 136.366,-268.585 145,-252 154.962,-232.864 158.253,-208.512 159.17,-190.12"/>
<polygon fill="black" stroke="black" points="162.67,-190.164 159.468,-180.065 155.673,-189.957 162.67,-190.164"/>
</g>
</g>
</svg>
