<?xml version="1.0" encoding="UTF-8" standalone="no"?>
<!DOCTYPE svg PUBLIC "-//W3C//DTD SVG 1.1//EN"
 "http://www.w3.org/Graphics/SVG/1.1/DTD/svg11.dtd">
<!-- Generated by graphviz version 2.26.3 (20100126.1600)
 -->
<!-- Title: mike Pages: 1 -->
<svg width="374pt" height="576pt"
 viewBox="0.00 0.00 374.40 576.00" xmlns="http://www.w3.org/2000/svg" xmlns:xlink="http://www.w3.org/1999/xlink">
<g id="graph1" class="graph" transform="scale(0.732824 0.732824) rotate(0) translate(4 782)">
<title>mike</title>
<polygon fill="white" stroke="white" points="-4,5 -4,-782 507.897,-782 507.897,5 -4,5"/>
<!-- a -->
<g id="node1" class="node"><title>a</title>
<ellipse fill="none" stroke="black" cx="276.897" cy="-611" rx="27" ry="19.0919"/>
<text text-anchor="middle" x="276.897" y="-607.9" font-family="Times Roman,serif" font-size="14.00">a</text>
</g>
<!-- A -->
<g id="node3" class="node"><title>A</title>
<ellipse fill="none" stroke="black" cx="111.897" cy="-463" rx="27" ry="19.0919"/>
<text text-anchor="middle" x="111.897" y="-459.9" font-family="Times Roman,serif" font-size="14.00">A</text>
</g>
<!-- a&#45;&gt;A -->
<g id="edge2" class="edge"><title>a&#45;&gt;A</title>
<path fill="none" stroke="black" d="M250.107,-608.611C216.963,-604.166 161.212,-591.554 130.897,-556 115.942,-538.461 111.657,-512.327 110.847,-492.225"/>
<polygon fill="black" stroke="black" points="114.344,-492.006 110.705,-482.056 107.345,-492.104 114.344,-492.006"/>
</g>
<!-- m -->
<g id="node5" class="node"><title>m</title>
<ellipse fill="none" stroke="black" cx="258.897" cy="-389" rx="27" ry="19.0919"/>
<text text-anchor="middle" x="258.897" y="-385.9" font-family="Times Roman,serif" font-size="14.00">m</text>
</g>
<!-- a&#45;&gt;m -->
<g id="edge4" class="edge"><title>a&#45;&gt;m</title>
<path fill="none" stroke="black" d="M275.331,-591.687C272.171,-552.72 265.017,-464.48 261.276,-418.346"/>
<polygon fill="black" stroke="black" points="264.743,-417.794 260.446,-408.11 257.766,-418.36 264.743,-417.794"/>
</g>
<!-- E -->
<g id="node7" class="node"><title>E</title>
<ellipse fill="none" stroke="black" cx="331.897" cy="-537" rx="27" ry="19.0919"/>
<text text-anchor="middle" x="331.897" y="-533.9" font-family="Times Roman,serif" font-size="14.00">E</text>
</g>
<!-- a&#45;&gt;E -->
<g id="edge6" class="edge"><title>a&#45;&gt;E</title>
<path fill="none" stroke="black" d="M289.653,-593.837C296.595,-584.497 305.316,-572.763 313.029,-562.386"/>
<polygon fill="black" stroke="black" points="316.053,-564.184 319.209,-554.07 310.435,-560.008 316.053,-564.184"/>
</g>
<!-- M -->
<g id="node68" class="node"><title>M</title>
<ellipse fill="none" stroke="black" cx="111.897" cy="-315" rx="27" ry="19.0919"/>
<text text-anchor="middle" x="111.897" y="-311.9" font-family="Times Roman,serif" font-size="14.00">M</text>
</g>
<!-- A&#45;&gt;M -->
<g id="edge76" class="edge"><title>A&#45;&gt;M</title>
<path fill="none" stroke="black" d="M111.897,-443.955C111.897,-418.784 111.897,-374.18 111.897,-344.598"/>
<polygon fill="black" stroke="black" points="115.397,-344.442 111.897,-334.442 108.397,-344.442 115.397,-344.442"/>
</g>
<!-- R -->
<g id="node20" class="node"><title>R</title>
<ellipse fill="none" stroke="black" cx="256.897" cy="-241" rx="27" ry="19.0919"/>
<text text-anchor="middle" x="256.897" y="-237.9" font-family="Times Roman,serif" font-size="14.00">R</text>
</g>
<!-- m&#45;&gt;R -->
<g id="edge16" class="edge"><title>m&#45;&gt;R</title>
<path fill="none" stroke="black" d="M258.639,-369.955C258.299,-344.784 257.696,-300.18 257.297,-270.598"/>
<polygon fill="black" stroke="black" points="260.794,-270.394 257.159,-260.442 253.795,-270.489 260.794,-270.394"/>
</g>
<!-- G -->
<g id="node56" class="node"><title>G</title>
<ellipse fill="none" stroke="black" cx="331.897" cy="-463" rx="27" ry="19.0919"/>
<text text-anchor="middle" x="331.897" y="-459.9" font-family="Times Roman,serif" font-size="14.00">G</text>
</g>
<!-- E&#45;&gt;G -->
<g id="edge60" class="edge"><title>E&#45;&gt;G</title>
<path fill="none" stroke="black" d="M331.897,-517.943C331.897,-510.149 331.897,-500.954 331.897,-492.338"/>
<polygon fill="black" stroke="black" points="335.397,-492.249 331.897,-482.249 328.397,-492.249 335.397,-492.249"/>
</g>
<!-- t -->
<g id="node8" class="node"><title>t</title>
<ellipse fill="none" stroke="black" cx="403.897" cy="-759" rx="27" ry="19.0919"/>
<text text-anchor="middle" x="403.897" y="-755.9" font-family="Times Roman,serif" font-size="14.00">t</text>
</g>
<!-- O -->
<g id="node10" class="node"><title>O</title>
<ellipse fill="none" stroke="black" cx="403.897" cy="-685" rx="27" ry="19.0919"/>
<text text-anchor="middle" x="403.897" y="-681.9" font-family="Times Roman,serif" font-size="14.00">O</text>
</g>
<!-- t&#45;&gt;O -->
<g id="edge8" class="edge"><title>t&#45;&gt;O</title>
<path fill="none" stroke="black" d="M403.897,-739.943C403.897,-732.149 403.897,-722.954 403.897,-714.338"/>
<polygon fill="black" stroke="black" points="407.397,-714.249 403.897,-704.249 400.397,-714.249 407.397,-714.249"/>
</g>
<!-- K -->
<g id="node40" class="node"><title>K</title>
<ellipse fill="none" stroke="black" cx="403.897" cy="-611" rx="27" ry="19.0919"/>
<text text-anchor="middle" x="403.897" y="-607.9" font-family="Times Roman,serif" font-size="14.00">K</text>
</g>
<!-- O&#45;&gt;K -->
<g id="edge36" class="edge"><title>O&#45;&gt;K</title>
<path fill="none" stroke="black" d="M403.897,-665.943C403.897,-658.149 403.897,-648.954 403.897,-640.338"/>
<polygon fill="black" stroke="black" points="407.397,-640.249 403.897,-630.249 400.397,-640.249 407.397,-640.249"/>
</g>
<!-- r -->
<g id="node11" class="node"><title>r</title>
<ellipse fill="none" stroke="black" cx="107.897" cy="-611" rx="27" ry="19.0919"/>
<text text-anchor="middle" x="107.897" y="-607.9" font-family="Times Roman,serif" font-size="14.00">r</text>
</g>
<!-- V -->
<g id="node13" class="node"><title>V</title>
<ellipse fill="none" stroke="black" cx="48.8966" cy="-537" rx="27" ry="19.0919"/>
<text text-anchor="middle" x="48.8966" y="-533.9" font-family="Times Roman,serif" font-size="14.00">V</text>
</g>
<!-- r&#45;&gt;V -->
<g id="edge10" class="edge"><title>r&#45;&gt;V</title>
<path fill="none" stroke="black" d="M94.5086,-594.208C86.8897,-584.652 77.2024,-572.502 68.7168,-561.859"/>
<polygon fill="black" stroke="black" points="71.2024,-559.362 62.2317,-553.725 65.7291,-563.726 71.2024,-559.362"/>
</g>
<!-- Q -->
<g id="node15" class="node"><title>Q</title>
<ellipse fill="none" stroke="black" cx="166.897" cy="-537" rx="27" ry="19.0919"/>
<text text-anchor="middle" x="166.897" y="-533.9" font-family="Times Roman,serif" font-size="14.00">Q</text>
</g>
<!-- r&#45;&gt;Q -->
<g id="edge12" class="edge"><title>r&#45;&gt;Q</title>
<path fill="none" stroke="black" d="M121.285,-594.208C128.904,-584.652 138.591,-572.502 147.076,-561.859"/>
<polygon fill="black" stroke="black" points="150.064,-563.726 153.562,-553.725 144.591,-559.362 150.064,-563.726"/>
</g>
<!-- W -->
<g id="node26" class="node"><title>W</title>
<ellipse fill="none" stroke="black" cx="39.8966" cy="-463" rx="27" ry="19.0919"/>
<text text-anchor="middle" x="39.8966" y="-459.9" font-family="Times Roman,serif" font-size="14.00">W</text>
</g>
<!-- V&#45;&gt;W -->
<g id="edge26" class="edge"><title>V&#45;&gt;W</title>
<path fill="none" stroke="black" d="M46.5789,-517.943C45.6236,-510.088 44.4952,-500.81 43.4402,-492.136"/>
<polygon fill="black" stroke="black" points="46.8883,-491.497 42.2065,-481.992 39.9395,-492.342 46.8883,-491.497"/>
</g>
<!-- Q&#45;&gt;A -->
<g id="edge34" class="edge"><title>Q&#45;&gt;A</title>
<path fill="none" stroke="black" d="M154.14,-519.837C147.199,-510.497 138.477,-498.763 130.764,-488.386"/>
<polygon fill="black" stroke="black" points="133.358,-486.008 124.584,-480.07 127.74,-490.184 133.358,-486.008"/>
</g>
<!-- T -->
<g id="node32" class="node"><title>T</title>
<ellipse fill="none" stroke="black" cx="221.897" cy="-463" rx="27" ry="19.0919"/>
<text text-anchor="middle" x="221.897" y="-459.9" font-family="Times Roman,serif" font-size="14.00">T</text>
</g>
<!-- Q&#45;&gt;T -->
<g id="edge30" class="edge"><title>Q&#45;&gt;T</title>
<path fill="none" stroke="black" d="M179.653,-519.837C186.595,-510.497 195.316,-498.763 203.029,-488.386"/>
<polygon fill="black" stroke="black" points="206.053,-490.184 209.209,-480.07 200.435,-486.008 206.053,-490.184"/>
</g>
<!-- H -->
<g id="node37" class="node"><title>H</title>
<ellipse fill="none" stroke="black" cx="319.897" cy="-315" rx="27" ry="19.0919"/>
<text text-anchor="middle" x="319.897" y="-311.9" font-family="Times Roman,serif" font-size="14.00">H</text>
</g>
<!-- Q&#45;&gt;H -->
<g id="edge32" class="edge"><title>Q&#45;&gt;H</title>
<path fill="none" stroke="black" d="M168.168,-517.826C171.425,-483.72 182.898,-412.141 222.897,-370 240.615,-351.333 266.09,-337.221 286.487,-327.968"/>
<polygon fill="black" stroke="black" points="287.973,-331.138 295.745,-323.938 285.179,-324.72 287.973,-331.138"/>
</g>
<!-- p -->
<g id="node16" class="node"><title>p</title>
<ellipse fill="none" stroke="black" cx="56.8966" cy="-241" rx="27" ry="19.0919"/>
<text text-anchor="middle" x="56.8966" y="-237.9" font-family="Times Roman,serif" font-size="14.00">p</text>
</g>
<!-- B -->
<g id="node18" class="node"><title>B</title>
<ellipse fill="none" stroke="black" cx="111.897" cy="-167" rx="27" ry="19.0919"/>
<text text-anchor="middle" x="111.897" y="-163.9" font-family="Times Roman,serif" font-size="14.00">B</text>
</g>
<!-- p&#45;&gt;B -->
<g id="edge14" class="edge"><title>p&#45;&gt;B</title>
<path fill="none" stroke="black" d="M69.653,-223.837C76.5947,-214.497 85.3159,-202.763 93.0289,-192.386"/>
<polygon fill="black" stroke="black" points="96.0533,-194.184 99.2095,-184.07 90.4351,-190.008 96.0533,-194.184"/>
</g>
<!-- D -->
<g id="node30" class="node"><title>D</title>
<ellipse fill="none" stroke="black" cx="147.897" cy="-19" rx="27" ry="19.0919"/>
<text text-anchor="middle" x="147.897" y="-15.9" font-family="Times Roman,serif" font-size="14.00">D</text>
</g>
<!-- B&#45;&gt;D -->
<g id="edge70" class="edge"><title>B&#45;&gt;D</title>
<path fill="none" stroke="black" d="M115.214,-147.995C118.642,-129.111 124.398,-99.3834 130.897,-74 133.117,-65.327 135.865,-55.9894 138.5,-47.5143"/>
<polygon fill="black" stroke="black" points="141.923,-48.2971 141.614,-37.7068 135.252,-46.1787 141.923,-48.2971"/>
</g>
<!-- S -->
<g id="node62" class="node"><title>S</title>
<ellipse fill="none" stroke="black" cx="166.897" cy="-93" rx="27" ry="19.0919"/>
<text text-anchor="middle" x="166.897" y="-89.9" font-family="Times Roman,serif" font-size="14.00">S</text>
</g>
<!-- B&#45;&gt;S -->
<g id="edge72" class="edge"><title>B&#45;&gt;S</title>
<path fill="none" stroke="black" d="M124.653,-149.837C131.595,-140.497 140.316,-128.763 148.029,-118.386"/>
<polygon fill="black" stroke="black" points="151.053,-120.184 154.209,-110.07 145.435,-116.008 151.053,-120.184"/>
</g>
<!-- N -->
<g id="node65" class="node"><title>N</title>
<ellipse fill="none" stroke="black" cx="56.8966" cy="-93" rx="27" ry="19.0919"/>
<text text-anchor="middle" x="56.8966" y="-89.9" font-family="Times Roman,serif" font-size="14.00">N</text>
</g>
<!-- B&#45;&gt;N -->
<g id="edge68" class="edge"><title>B&#45;&gt;N</title>
<path fill="none" stroke="black" d="M99.1403,-149.837C92.1986,-140.497 83.4774,-128.763 75.7644,-118.386"/>
<polygon fill="black" stroke="black" points="78.3582,-116.008 69.5838,-110.07 72.74,-120.184 78.3582,-116.008"/>
</g>
<!-- R&#45;&gt;B -->
<g id="edge48" class="edge"><title>R&#45;&gt;B</title>
<path fill="none" stroke="black" d="M234.96,-229.856C213.131,-218.76 178.684,-201.233 148.897,-186 146.912,-184.985 144.867,-183.938 142.807,-182.883"/>
<polygon fill="black" stroke="black" points="144.298,-179.714 133.803,-178.265 141.104,-185.943 144.298,-179.714"/>
</g>
<!-- l -->
<g id="node21" class="node"><title>l</title>
<ellipse fill="none" stroke="black" cx="256.897" cy="-167" rx="27" ry="19.0919"/>
<text text-anchor="middle" x="256.897" y="-163.9" font-family="Times Roman,serif" font-size="14.00">l</text>
</g>
<!-- C -->
<g id="node23" class="node"><title>C</title>
<ellipse fill="none" stroke="black" cx="238.897" cy="-93" rx="27" ry="19.0919"/>
<text text-anchor="middle" x="238.897" y="-89.9" font-family="Times Roman,serif" font-size="14.00">C</text>
</g>
<!-- l&#45;&gt;C -->
<g id="edge18" class="edge"><title>l&#45;&gt;C</title>
<path fill="none" stroke="black" d="M252.261,-147.943C250.315,-139.941 248.009,-130.46 245.865,-121.647"/>
<polygon fill="black" stroke="black" points="249.218,-120.626 243.454,-111.736 242.417,-122.28 249.218,-120.626"/>
</g>
<!-- C&#45;&gt;D -->
<g id="edge64" class="edge"><title>C&#45;&gt;D</title>
<path fill="none" stroke="black" d="M220.918,-78.38C207.457,-67.4338 188.849,-52.3017 173.786,-40.053"/>
<polygon fill="black" stroke="black" points="175.805,-37.1833 165.838,-33.5896 171.388,-42.6143 175.805,-37.1833"/>
</g>
<!-- Z -->
<g id="node60" class="node"><title>Z</title>
<ellipse fill="none" stroke="black" cx="238.897" cy="-19" rx="27" ry="19.0919"/>
<text text-anchor="middle" x="238.897" y="-15.9" font-family="Times Roman,serif" font-size="14.00">Z</text>
</g>
<!-- C&#45;&gt;Z -->
<g id="edge62" class="edge"><title>C&#45;&gt;Z</title>
<path fill="none" stroke="black" d="M238.897,-73.9432C238.897,-66.1493 238.897,-56.9538 238.897,-48.3381"/>
<polygon fill="black" stroke="black" points="242.397,-48.2494 238.897,-38.2495 235.397,-48.2495 242.397,-48.2494"/>
</g>
<!-- c -->
<g id="node24" class="node"><title>c</title>
<ellipse fill="none" stroke="black" cx="184.897" cy="-167" rx="27" ry="19.0919"/>
<text text-anchor="middle" x="184.897" y="-163.9" font-family="Times Roman,serif" font-size="14.00">c</text>
</g>
<!-- c&#45;&gt;C -->
<g id="edge20" class="edge"><title>c&#45;&gt;C</title>
<path fill="none" stroke="black" d="M197.421,-149.837C204.237,-140.497 212.799,-128.763 220.372,-118.386"/>
<polygon fill="black" stroke="black" points="223.373,-120.211 226.44,-110.07 217.718,-116.085 223.373,-120.211"/>
</g>
<!-- X -->
<g id="node28" class="node"><title>X</title>
<ellipse fill="none" stroke="black" cx="56.8966" cy="-389" rx="27" ry="19.0919"/>
<text text-anchor="middle" x="56.8966" y="-385.9" font-family="Times Roman,serif" font-size="14.00">X</text>
</g>
<!-- W&#45;&gt;X -->
<g id="edge22" class="edge"><title>W&#45;&gt;X</title>
<path fill="none" stroke="black" d="M44.2746,-443.943C46.0989,-436.002 48.2574,-426.606 50.2688,-417.851"/>
<polygon fill="black" stroke="black" points="53.7057,-418.522 52.5336,-407.992 46.8834,-416.955 53.7057,-418.522"/>
</g>
<!-- W&#45;&gt;D -->
<g id="edge24" class="edge"><title>W&#45;&gt;D</title>
<path fill="none" stroke="black" d="M32.023,-444.698C20.8926,-417.118 1.89665,-363.015 1.89665,-315 1.89665,-315 1.89665,-315 1.89665,-167 1.89665,-124.813 -5.68994,-106.755 20.8966,-74 27.1943,-66.2412 78.9383,-45.3402 114.403,-31.6542"/>
<polygon fill="black" stroke="black" points="115.84,-34.8517 123.923,-28.0023 113.333,-28.3161 115.84,-34.8517"/>
</g>
<!-- U -->
<g id="node34" class="node"><title>U</title>
<ellipse fill="none" stroke="black" cx="330.897" cy="-389" rx="27" ry="19.0919"/>
<text text-anchor="middle" x="330.897" y="-385.9" font-family="Times Roman,serif" font-size="14.00">U</text>
</g>
<!-- T&#45;&gt;U -->
<g id="edge28" class="edge"><title>T&#45;&gt;U</title>
<path fill="none" stroke="black" d="M241.384,-449.77C258.483,-438.162 283.555,-421.14 302.818,-408.062"/>
<polygon fill="black" stroke="black" points="304.903,-410.877 311.211,-402.365 300.971,-405.086 304.903,-410.877"/>
</g>
<!-- U&#45;&gt;H -->
<g id="edge56" class="edge"><title>U&#45;&gt;H</title>
<path fill="none" stroke="black" d="M328.064,-369.943C326.896,-362.088 325.517,-352.81 324.228,-344.136"/>
<polygon fill="black" stroke="black" points="327.652,-343.369 322.72,-333.992 320.728,-344.398 327.652,-343.369"/>
</g>
<!-- H&#45;&gt;R -->
<g id="edge52" class="edge"><title>H&#45;&gt;R</title>
<path fill="none" stroke="black" d="M305.915,-298.577C297.514,-288.709 286.675,-275.978 277.327,-264.997"/>
<polygon fill="black" stroke="black" points="279.987,-262.723 270.839,-257.377 274.657,-267.26 279.987,-262.723"/>
</g>
<!-- P -->
<g id="node50" class="node"><title>P</title>
<ellipse fill="none" stroke="black" cx="328.897" cy="-241" rx="27" ry="19.0919"/>
<text text-anchor="middle" x="328.897" y="-237.9" font-family="Times Roman,serif" font-size="14.00">P</text>
</g>
<!-- H&#45;&gt;P -->
<g id="edge54" class="edge"><title>H&#45;&gt;P</title>
<path fill="none" stroke="black" d="M322.214,-295.943C323.17,-288.088 324.298,-278.81 325.353,-270.136"/>
<polygon fill="black" stroke="black" points="328.854,-270.342 326.587,-259.992 321.905,-269.497 328.854,-270.342"/>
</g>
<!-- K&#45;&gt;E -->
<g id="edge44" class="edge"><title>K&#45;&gt;E</title>
<path fill="none" stroke="black" d="M388.627,-595.307C378.672,-585.075 365.508,-571.545 354.367,-560.095"/>
<polygon fill="black" stroke="black" points="356.874,-557.653 347.392,-552.926 351.857,-562.534 356.874,-557.653"/>
</g>
<!-- L -->
<g id="node41" class="node"><title>L</title>
<ellipse fill="none" stroke="black" cx="403.897" cy="-537" rx="27" ry="19.0919"/>
<text text-anchor="middle" x="403.897" y="-533.9" font-family="Times Roman,serif" font-size="14.00">L</text>
</g>
<!-- K&#45;&gt;L -->
<g id="edge40" class="edge"><title>K&#45;&gt;L</title>
<path fill="none" stroke="black" d="M403.897,-591.943C403.897,-584.149 403.897,-574.954 403.897,-566.338"/>
<polygon fill="black" stroke="black" points="407.397,-566.249 403.897,-556.249 400.397,-566.249 407.397,-566.249"/>
</g>
<!-- J -->
<g id="node45" class="node"><title>J</title>
<ellipse fill="none" stroke="black" cx="475.897" cy="-537" rx="27" ry="19.0919"/>
<text text-anchor="middle" x="475.897" y="-533.9" font-family="Times Roman,serif" font-size="14.00">J</text>
</g>
<!-- K&#45;&gt;J -->
<g id="edge42" class="edge"><title>K&#45;&gt;J</title>
<path fill="none" stroke="black" d="M419.166,-595.307C429.121,-585.075 442.285,-571.545 453.426,-560.095"/>
<polygon fill="black" stroke="black" points="455.936,-562.534 460.401,-552.926 450.919,-557.653 455.936,-562.534"/>
</g>
<!-- L&#45;&gt;U -->
<g id="edge38" class="edge"><title>L&#45;&gt;U</title>
<path fill="none" stroke="black" d="M398.029,-518.294C391.703,-499.127 380.787,-468.715 367.897,-444 362.654,-433.948 355.967,-423.487 349.723,-414.421"/>
<polygon fill="black" stroke="black" points="352.559,-412.37 343.935,-406.215 346.839,-416.404 352.559,-412.37"/>
</g>
<!-- I -->
<g id="node48" class="node"><title>I</title>
<ellipse fill="none" stroke="black" cx="475.897" cy="-463" rx="27" ry="19.0919"/>
<text text-anchor="middle" x="475.897" y="-459.9" font-family="Times Roman,serif" font-size="14.00">I</text>
</g>
<!-- J&#45;&gt;I -->
<g id="edge46" class="edge"><title>J&#45;&gt;I</title>
<path fill="none" stroke="black" d="M475.897,-517.943C475.897,-510.149 475.897,-500.954 475.897,-492.338"/>
<polygon fill="black" stroke="black" points="479.397,-492.249 475.897,-482.249 472.397,-492.249 479.397,-492.249"/>
</g>
<!-- F -->
<g id="node52" class="node"><title>F</title>
<ellipse fill="none" stroke="black" cx="328.897" cy="-167" rx="27" ry="19.0919"/>
<text text-anchor="middle" x="328.897" y="-163.9" font-family="Times Roman,serif" font-size="14.00">F</text>
</g>
<!-- P&#45;&gt;F -->
<g id="edge50" class="edge"><title>P&#45;&gt;F</title>
<path fill="none" stroke="black" d="M328.897,-221.943C328.897,-214.149 328.897,-204.954 328.897,-196.338"/>
<polygon fill="black" stroke="black" points="332.397,-196.249 328.897,-186.249 325.397,-196.249 332.397,-196.249"/>
</g>
<!-- G&#45;&gt;U -->
<g id="edge58" class="edge"><title>G&#45;&gt;U</title>
<path fill="none" stroke="black" d="M331.639,-443.943C331.534,-436.149 331.41,-426.954 331.293,-418.338"/>
<polygon fill="black" stroke="black" points="334.792,-418.201 331.157,-408.249 327.792,-418.296 334.792,-418.201"/>
</g>
<!-- S&#45;&gt;D -->
<g id="edge66" class="edge"><title>S&#45;&gt;D</title>
<path fill="none" stroke="black" d="M162.004,-73.9432C159.949,-65.9405 157.515,-56.4602 155.252,-47.647"/>
<polygon fill="black" stroke="black" points="158.584,-46.5515 152.707,-37.7361 151.804,-48.2924 158.584,-46.5515"/>
</g>
<!-- Y -->
<g id="node72" class="node"><title>Y</title>
<ellipse fill="none" stroke="black" cx="56.8966" cy="-19" rx="27" ry="19.0919"/>
<text text-anchor="middle" x="56.8966" y="-15.9" font-family="Times Roman,serif" font-size="14.00">Y</text>
</g>
<!-- N&#45;&gt;Y -->
<g id="edge78" class="edge"><title>N&#45;&gt;Y</title>
<path fill="none" stroke="black" d="M56.8966,-73.9432C56.8966,-66.1493 56.8966,-56.9538 56.8966,-48.3381"/>
<polygon fill="black" stroke="black" points="60.3967,-48.2494 56.8966,-38.2495 53.3967,-48.2495 60.3967,-48.2494"/>
</g>
<!-- M&#45;&gt;B -->
<g id="edge74" class="edge"><title>M&#45;&gt;B</title>
<path fill="none" stroke="black" d="M111.897,-295.955C111.897,-270.784 111.897,-226.18 111.897,-196.598"/>
<polygon fill="black" stroke="black" points="115.397,-196.442 111.897,-186.442 108.397,-196.442 115.397,-196.442"/>
</g>
</g>
</svg>
