<?xml version="1.0" encoding="UTF-8" standalone="no"?>
<!DOCTYPE svg PUBLIC "-//W3C//DTD SVG 1.1//EN"
 "http://www.w3.org/Graphics/SVG/1.1/DTD/svg11.dtd">
<!-- Generated by graphviz version 2.26.3 (20100126.1600)
 -->
<!-- Title: automata_0 Pages: 1 -->
<svg width="205pt" height="242pt"
 viewBox="0.00 0.00 205.00 242.00" xmlns="http://www.w3.org/2000/svg" xmlns:xlink="http://www.w3.org/1999/xlink">
<g id="graph1" class="graph" transform="scale(1 1) rotate(0) translate(4 238)">
<title>automata_0</title>
<polygon fill="white" stroke="white" points="-4,5 -4,-238 202,-238 202,5 -4,5"/>
<!-- 0 -->
<g id="node1" class="node"><title>0</title>
<ellipse fill="lightgrey" stroke="lightgrey" cx="82" cy="-215" rx="19.0919" ry="19.0919"/>
<text text-anchor="middle" x="82" y="-211.9" font-family="Times Roman,serif" font-size="14.00">0</text>
</g>
<!-- 2 -->
<g id="node2" class="node"><title>2</title>
<ellipse fill="none" stroke="black" cx="23" cy="-117" rx="19.0919" ry="19.0919"/>
<ellipse fill="none" stroke="black" cx="23" cy="-117" rx="23.0919" ry="23.0919"/>
<text text-anchor="middle" x="23" y="-113.9" font-family="Times Roman,serif" font-size="14.00">2</text>
</g>
<!-- 0&#45;&gt;2 -->
<g id="edge2" class="edge"><title>0&#45;&gt;2</title>
<path fill="none" stroke="black" d="M71.9915,-198.376C63.3366,-184 50.6303,-162.894 40.3267,-145.78"/>
<polygon fill="black" stroke="black" points="43.0471,-143.513 34.8907,-136.751 37.05,-147.123 43.0471,-143.513"/>
<text text-anchor="middle" x="65" y="-164.9" font-family="Times Roman,serif" font-size="14.00">a </text>
</g>
<!-- 1 -->
<g id="node5" class="node"><title>1</title>
<ellipse fill="none" stroke="black" cx="78" cy="-19" rx="19.0919" ry="19.0919"/>
<text text-anchor="middle" x="78" y="-15.9" font-family="Times Roman,serif" font-size="14.00">1</text>
</g>
<!-- 0&#45;&gt;1 -->
<g id="edge4" class="edge"><title>0&#45;&gt;1</title>
<path fill="none" stroke="black" d="M82.6529,-195.714C83.3477,-171.83 84.1954,-129.903 83,-94 82.4997,-78.9746 81.4371,-62.2841 80.4197,-48.47"/>
<polygon fill="black" stroke="black" points="83.8786,-47.7982 79.6249,-38.0947 76.899,-48.3328 83.8786,-47.7982"/>
<text text-anchor="middle" x="99" y="-113.9" font-family="Times Roman,serif" font-size="14.00">other </text>
</g>
<!-- 2&#45;&gt;2 -->
<g id="edge10" class="edge"><title>2&#45;&gt;2</title>
<path fill="none" stroke="black" d="M44.5155,-126.146C54.8644,-127.275 64,-124.227 64,-117 64,-112.37 60.2508,-109.456 54.8351,-108.255"/>
<polygon fill="black" stroke="black" points="54.644,-104.745 44.5155,-107.854 54.3719,-111.74 54.644,-104.745"/>
<text text-anchor="middle" x="69" y="-113.9" font-family="Times Roman,serif" font-size="14.00">a </text>
</g>
<!-- 2&#45;&gt;1 -->
<g id="edge12" class="edge"><title>2&#45;&gt;1</title>
<path fill="none" stroke="black" d="M16.4964,-94.8481C14.204,-82.6751 13.5776,-67.7149 20,-56 26.5491,-44.0539 38.7764,-35.4079 50.3219,-29.4927"/>
<polygon fill="black" stroke="black" points="52.108,-32.5232 59.7201,-25.1538 49.1739,-26.1678 52.108,-32.5232"/>
<text text-anchor="middle" x="36" y="-62.9" font-family="Times Roman,serif" font-size="14.00">other </text>
</g>
<!-- 1&#45;&gt;2 -->
<g id="edge6" class="edge"><title>1&#45;&gt;2</title>
<path fill="none" stroke="black" d="M72.5245,-37.3668C68.7097,-48.8707 63.0469,-63.7783 56,-76 52.9007,-81.3753 49.1236,-86.7837 45.2465,-91.8295"/>
<polygon fill="black" stroke="black" points="42.2835,-89.9282 38.7291,-99.909 47.7318,-94.3232 42.2835,-89.9282"/>
<text text-anchor="middle" x="71" y="-62.9" font-family="Times Roman,serif" font-size="14.00">a </text>
</g>
<!-- 1&#45;&gt;1 -->
<g id="edge8" class="edge"><title>1&#45;&gt;1</title>
<path fill="none" stroke="black" d="M95.5106,-27.1512C105.604,-28.8147 115,-26.0977 115,-19 115,-14.4531 111.144,-11.7039 105.719,-10.7526"/>
<polygon fill="black" stroke="black" points="105.477,-7.2546 95.5106,-10.8488 105.543,-14.2543 105.477,-7.2546"/>
<text text-anchor="middle" x="131" y="-15.9" font-family="Times Roman,serif" font-size="14.00">other </text>
</g>
<!-- Machine: a -->
<g id="node10" class="node"><title>Machine: a</title>
<text text-anchor="middle" x="158" y="-211.9" font-family="Times Roman,serif" font-size="14.00">Machine: a</text>
</g>
</g>
</svg>
