<?xml version="1.0" encoding="UTF-8" standalone="no"?>
<!DOCTYPE svg PUBLIC "-//W3C//DTD SVG 1.1//EN"
 "http://www.w3.org/Graphics/SVG/1.1/DTD/svg11.dtd">
<!-- Generated by graphviz version 2.26.3 (20100126.1600)
 -->
<!-- Title: Petersen Pages: 1 -->
<svg width="222pt" height="692pt"
 viewBox="0.00 0.00 222.00 692.00" xmlns="http://www.w3.org/2000/svg" xmlns:xlink="http://www.w3.org/1999/xlink">
<g id="graph1" class="graph" transform="scale(1 1) rotate(0) translate(4 688)">
<title>Petersen</title>
<polygon fill="white" stroke="white" points="-4,5 -4,-688 219,-688 219,5 -4,5"/>
<!-- 0 -->
<g id="node1" class="node"><title>0</title>
<ellipse fill="none" stroke="black" cx="17" cy="-666" rx="17.1726" ry="17.6777"/>
<text text-anchor="middle" x="17" y="-661.4" font-family="Arial" font-size="14.00">0</text>
</g>
<!-- 1 -->
<g id="node3" class="node"><title>1</title>
<ellipse fill="none" stroke="black" cx="107" cy="-594" rx="17.1726" ry="17.6777"/>
<text text-anchor="middle" x="107" y="-589.4" font-family="Arial" font-size="14.00">1</text>
</g>
<!-- 0&#45;&#45;1 -->
<g id="edge2" class="edge"><title>0&#45;&#45;1</title>
<path fill="none" stroke="blue" d="M30.6691,-655.065C47.6834,-641.453 76.5606,-618.352 93.4972,-604.802"/>
</g>
<!-- 5 -->
<g id="node8" class="node"><title>5</title>
<ellipse fill="none" stroke="black" cx="17" cy="-90" rx="17.1726" ry="17.6777"/>
<text text-anchor="middle" x="17" y="-85.4" font-family="Arial" font-size="14.00">5</text>
</g>
<!-- 0&#45;&#45;5 -->
<g id="edge8" class="edge"><title>0&#45;&#45;5</title>
<path fill="none" stroke="red" d="M17,-648.265C17,-621.087 17,-567.5 17,-522 17,-522 17,-522 17,-234 17,-188.5 17,-134.913 17,-107.735"/>
</g>
<!-- 2 -->
<g id="node4" class="node"><title>2</title>
<ellipse fill="none" stroke="black" cx="197" cy="-522" rx="17.1726" ry="17.6777"/>
<text text-anchor="middle" x="197" y="-517.4" font-family="Arial" font-size="14.00">2</text>
</g>
<!-- 1&#45;&#45;2 -->
<g id="edge3" class="edge"><title>1&#45;&#45;2</title>
<path fill="none" stroke="blue" d="M120.669,-583.065C137.683,-569.453 166.561,-546.352 183.497,-532.802"/>
</g>
<!-- 6 -->
<g id="node10" class="node"><title>6</title>
<ellipse fill="none" stroke="black" cx="107" cy="-234" rx="17.1726" ry="17.6777"/>
<text text-anchor="middle" x="107" y="-229.4" font-family="Arial" font-size="14.00">6</text>
</g>
<!-- 1&#45;&#45;6 -->
<g id="edge10" class="edge"><title>1&#45;&#45;6</title>
<path fill="none" stroke="red" d="M107,-576.265C107,-549.087 107,-495.5 107,-450 107,-450 107,-450 107,-378 107,-332.5 107,-278.913 107,-251.735"/>
</g>
<!-- 3 -->
<g id="node5" class="node"><title>3</title>
<ellipse fill="none" stroke="black" cx="152" cy="-450" rx="17.1726" ry="17.6777"/>
<text text-anchor="middle" x="152" y="-445.4" font-family="Arial" font-size="14.00">3</text>
</g>
<!-- 2&#45;&#45;3 -->
<g id="edge4" class="edge"><title>2&#45;&#45;3</title>
<path fill="none" stroke="blue" d="M187.676,-507.082C179.953,-494.725 169.032,-477.251 161.312,-464.899"/>
</g>
<!-- 7 -->
<g id="node12" class="node"><title>7</title>
<ellipse fill="none" stroke="black" cx="197" cy="-18" rx="17.1726" ry="17.6777"/>
<text text-anchor="middle" x="197" y="-13.4" font-family="Arial" font-size="14.00">7</text>
</g>
<!-- 2&#45;&#45;7 -->
<g id="edge12" class="edge"><title>2&#45;&#45;7</title>
<path fill="none" stroke="red" d="M197,-504.265C197,-477.087 197,-423.5 197,-378 197,-378 197,-378 197,-162 197,-116.5 197,-62.9131 197,-35.735"/>
</g>
<!-- 4 -->
<g id="node6" class="node"><title>4</title>
<ellipse fill="none" stroke="black" cx="62" cy="-378" rx="17.1726" ry="17.6777"/>
<text text-anchor="middle" x="62" y="-373.4" font-family="Arial" font-size="14.00">4</text>
</g>
<!-- 3&#45;&#45;4 -->
<g id="edge5" class="edge"><title>3&#45;&#45;4</title>
<path fill="none" stroke="blue" d="M138.331,-439.065C121.317,-425.453 92.4394,-402.352 75.5028,-388.802"/>
</g>
<!-- 8 -->
<g id="node14" class="node"><title>8</title>
<ellipse fill="none" stroke="black" cx="152" cy="-162" rx="17.1726" ry="17.6777"/>
<text text-anchor="middle" x="152" y="-157.4" font-family="Arial" font-size="14.00">8</text>
</g>
<!-- 3&#45;&#45;8 -->
<g id="edge14" class="edge"><title>3&#45;&#45;8</title>
<path fill="none" stroke="red" d="M152,-432.418C152,-381.002 152,-231.306 152,-179.718"/>
</g>
<!-- 4&#45;&#45;0 -->
<g id="edge6" class="edge"><title>4&#45;&#45;0</title>
<path fill="none" stroke="blue" d="M60.4244,-395.437C56.7372,-434.472 46.6563,-531.758 31,-612 28.5518,-624.548 24.9061,-638.512 21.9488,-649.097"/>
</g>
<!-- 9 -->
<g id="node16" class="node"><title>9</title>
<ellipse fill="none" stroke="black" cx="62" cy="-306" rx="17.1726" ry="17.6777"/>
<text text-anchor="middle" x="62" y="-301.4" font-family="Arial" font-size="14.00">9</text>
</g>
<!-- 4&#45;&#45;9 -->
<g id="edge16" class="edge"><title>4&#45;&#45;9</title>
<path fill="none" stroke="red" d="M62,-360.202C62,-349.042 62,-334.714 62,-323.593"/>
</g>
<!-- 5&#45;&#45;7 -->
<g id="edge18" class="edge"><title>5&#45;&#45;7</title>
<path fill="none" stroke="black" d="M31.5344,-80.8428C36.6358,-77.8232 42.4739,-74.5806 48,-72 94.6195,-50.2299 152.635,-31.451 180.522,-22.9095"/>
</g>
<!-- 6&#45;&#45;8 -->
<g id="edge21" class="edge"><title>6&#45;&#45;8</title>
<path fill="none" stroke="black" d="M116.324,-219.082C124.047,-206.725 134.968,-189.251 142.688,-176.899"/>
</g>
<!-- 7&#45;&#45;9 -->
<g id="edge19" class="edge"><title>7&#45;&#45;9</title>
<path fill="none" stroke="black" d="M186.562,-32.0792C163.829,-63.4274 109.596,-142.055 81,-216 71.6112,-240.278 66.4757,-270.126 63.9834,-288.609"/>
</g>
<!-- 8&#45;&#45;5 -->
<g id="edge22" class="edge"><title>8&#45;&#45;5</title>
<path fill="none" stroke="black" d="M136.776,-153.881C110.848,-140.052 58.406,-112.083 32.3753,-98.2002"/>
</g>
<!-- 9&#45;&#45;6 -->
<g id="edge20" class="edge"><title>9&#45;&#45;6</title>
<path fill="none" stroke="black" d="M71.324,-291.082C79.0471,-278.725 89.9681,-261.251 97.6879,-248.899"/>
</g>
</g>
</svg>
