<?xml version="1.0" encoding="UTF-8" standalone="no"?>
<!DOCTYPE svg PUBLIC "-//W3C//DTD SVG 1.1//EN"
 "http://www.w3.org/Graphics/SVG/1.1/DTD/svg11.dtd">
<!-- Generated by graphviz version 2.34.0 (20131125.0033)
 -->
<!-- Title: Petersen Pages: 1 -->
<svg width="226pt" height="692pt"
 viewBox="0.00 0.00 226.00 692.00" xmlns="http://www.w3.org/2000/svg" xmlns:xlink="http://www.w3.org/1999/xlink">
<g id="graph0" class="graph" transform="scale(1 1) rotate(0) translate(4 688)">
<title>Petersen</title>
<polygon fill="white" stroke="white" points="-4,4 -4,-688 222,-688 222,4 -4,4"/>
<!-- 0 -->
<g id="node1" class="node"><title>0</title>
<ellipse fill="none" stroke="black" cx="17" cy="-666" rx="17.5149" ry="17.8571"/>
<text text-anchor="middle" x="17" y="-662.3" font-family="Arial" font-size="14.00">0</text>
</g>
<!-- 1 -->
<g id="node2" class="node"><title>1</title>
<ellipse fill="none" stroke="black" cx="109" cy="-594" rx="17.5149" ry="17.8571"/>
<text text-anchor="middle" x="109" y="-590.3" font-family="Arial" font-size="14.00">1</text>
</g>
<!-- 0&#45;&#45;1 -->
<g id="edge1" class="edge"><title>0&#45;&#45;1</title>
<path fill="none" stroke="blue" d="M30.5749,-654.671C47.969,-641.437 77.9485,-618.626 95.3694,-605.371"/>
</g>
<!-- 5 -->
<g id="node6" class="node"><title>5</title>
<ellipse fill="none" stroke="black" cx="17" cy="-90" rx="17.5149" ry="17.8571"/>
<text text-anchor="middle" x="17" y="-86.3" font-family="Arial" font-size="14.00">5</text>
</g>
<!-- 0&#45;&#45;5 -->
<g id="edge6" class="edge"><title>0&#45;&#45;5</title>
<path fill="none" stroke="red" d="M17,-647.951C17,-621.292 17,-568.115 17,-523 17,-523 17,-523 17,-233 17,-187.885 17,-134.708 17,-108.049"/>
</g>
<!-- 2 -->
<g id="node3" class="node"><title>2</title>
<ellipse fill="none" stroke="black" cx="201" cy="-522" rx="17.5149" ry="17.8571"/>
<text text-anchor="middle" x="201" y="-518.3" font-family="Arial" font-size="14.00">2</text>
</g>
<!-- 1&#45;&#45;2 -->
<g id="edge2" class="edge"><title>1&#45;&#45;2</title>
<path fill="none" stroke="blue" d="M122.575,-582.671C139.969,-569.437 169.948,-546.626 187.369,-533.371"/>
</g>
<!-- 6 -->
<g id="node7" class="node"><title>6</title>
<ellipse fill="none" stroke="black" cx="109" cy="-234" rx="17.5149" ry="17.8571"/>
<text text-anchor="middle" x="109" y="-230.3" font-family="Arial" font-size="14.00">6</text>
</g>
<!-- 1&#45;&#45;6 -->
<g id="edge7" class="edge"><title>1&#45;&#45;6</title>
<path fill="none" stroke="red" d="M109,-575.951C109,-549.292 109,-496.115 109,-451 109,-451 109,-451 109,-377 109,-331.885 109,-278.708 109,-252.049"/>
</g>
<!-- 3 -->
<g id="node4" class="node"><title>3</title>
<ellipse fill="none" stroke="black" cx="155" cy="-450" rx="17.5149" ry="17.8571"/>
<text text-anchor="middle" x="155" y="-446.3" font-family="Arial" font-size="14.00">3</text>
</g>
<!-- 2&#45;&#45;3 -->
<g id="edge3" class="edge"><title>2&#45;&#45;3</title>
<path fill="none" stroke="blue" d="M191.691,-506.834C183.71,-494.69 172.272,-477.283 164.295,-465.144"/>
</g>
<!-- 7 -->
<g id="node8" class="node"><title>7</title>
<ellipse fill="none" stroke="black" cx="201" cy="-18" rx="17.5149" ry="17.8571"/>
<text text-anchor="middle" x="201" y="-14.3" font-family="Arial" font-size="14.00">7</text>
</g>
<!-- 2&#45;&#45;7 -->
<g id="edge8" class="edge"><title>2&#45;&#45;7</title>
<path fill="none" stroke="red" d="M201,-503.951C201,-477.292 201,-424.115 201,-379 201,-379 201,-379 201,-161 201,-115.885 201,-62.7084 201,-36.0493"/>
</g>
<!-- 4 -->
<g id="node5" class="node"><title>4</title>
<ellipse fill="none" stroke="black" cx="63" cy="-378" rx="17.5149" ry="17.8571"/>
<text text-anchor="middle" x="63" y="-374.3" font-family="Arial" font-size="14.00">4</text>
</g>
<!-- 3&#45;&#45;4 -->
<g id="edge4" class="edge"><title>3&#45;&#45;4</title>
<path fill="none" stroke="blue" d="M141.425,-438.671C124.031,-425.437 94.0515,-402.626 76.6306,-389.371"/>
</g>
<!-- 8 -->
<g id="node9" class="node"><title>8</title>
<ellipse fill="none" stroke="black" cx="155" cy="-162" rx="17.5149" ry="17.8571"/>
<text text-anchor="middle" x="155" y="-158.3" font-family="Arial" font-size="14.00">8</text>
</g>
<!-- 3&#45;&#45;8 -->
<g id="edge9" class="edge"><title>3&#45;&#45;8</title>
<path fill="none" stroke="red" d="M155,-431.966C155,-381.098 155,-230.696 155,-179.945"/>
</g>
<!-- 4&#45;&#45;0 -->
<g id="edge5" class="edge"><title>4&#45;&#45;0</title>
<path fill="none" stroke="blue" d="M61.4036,-395.786C57.5896,-434.269 47.0532,-531.723 31,-612 28.4993,-624.505 24.7807,-638.44 21.8044,-648.882"/>
</g>
<!-- 9 -->
<g id="node10" class="node"><title>9</title>
<ellipse fill="none" stroke="black" cx="63" cy="-306" rx="17.5149" ry="17.8571"/>
<text text-anchor="middle" x="63" y="-302.3" font-family="Arial" font-size="14.00">9</text>
</g>
<!-- 4&#45;&#45;9 -->
<g id="edge10" class="edge"><title>4&#45;&#45;9</title>
<path fill="none" stroke="red" d="M63,-360.055C63,-349.049 63,-334.764 63,-323.789"/>
</g>
<!-- 5&#45;&#45;7 -->
<g id="edge11" class="edge"><title>5&#45;&#45;7</title>
<path fill="none" stroke="black" d="M31.7444,-80.5612C37.0915,-77.6636 43.2353,-74.5187 49,-72 96.8896,-51.0764 155.92,-32.4409 184.263,-23.9152"/>
</g>
<!-- 6&#45;&#45;8 -->
<g id="edge14" class="edge"><title>6&#45;&#45;8</title>
<path fill="none" stroke="black" d="M118.309,-218.834C126.29,-206.69 137.728,-189.283 145.705,-177.144"/>
</g>
<!-- 7&#45;&#45;9 -->
<g id="edge12" class="edge"><title>7&#45;&#45;9</title>
<path fill="none" stroke="black" d="M190.63,-32.4891C167.498,-63.2519 111.409,-141.694 82,-216 72.4645,-240.093 67.3488,-269.842 64.9033,-288.113"/>
</g>
<!-- 8&#45;&#45;5 -->
<g id="edge15" class="edge"><title>8&#45;&#45;5</title>
<path fill="none" stroke="black" d="M139.704,-153.241C113.178,-139.786 58.9383,-112.273 32.3642,-98.7934"/>
</g>
<!-- 9&#45;&#45;6 -->
<g id="edge13" class="edge"><title>9&#45;&#45;6</title>
<path fill="none" stroke="black" d="M72.3088,-290.834C80.2896,-278.69 91.7283,-261.283 99.7051,-249.144"/>
</g>
</g>
</svg>
