<?xml version="1.0" encoding="UTF-8" standalone="no"?>
<!DOCTYPE svg PUBLIC "-//W3C//DTD SVG 1.1//EN"
 "http://www.w3.org/Graphics/SVG/1.1/DTD/svg11.dtd">
<!-- Generated by graphviz version 2.34.0 (20131125.0033)
 -->
<!-- Title: G Pages: 1 -->
<svg width="279pt" height="476pt"
 viewBox="0.00 0.00 279.49 476.00" xmlns="http://www.w3.org/2000/svg" xmlns:xlink="http://www.w3.org/1999/xlink">
<g id="graph0" class="graph" transform="scale(1 1) rotate(0) translate(4 472)">
<title>G</title>
<polygon fill="white" stroke="white" points="-4,4 -4,-472 275.49,-472 275.49,4 -4,4"/>
<!-- run -->
<g id="node1" class="node"><title>run</title>
<ellipse fill="none" stroke="black" cx="84" cy="-450" rx="27" ry="18"/>
<text text-anchor="middle" x="84" y="-446.3" font-family="Times,serif" font-size="14.00">run</text>
</g>
<!-- intr -->
<g id="node2" class="node"><title>intr</title>
<ellipse fill="none" stroke="black" cx="29" cy="-378" rx="27" ry="18"/>
<text text-anchor="middle" x="29" y="-374.3" font-family="Times,serif" font-size="14.00">intr</text>
</g>
<!-- run&#45;&#45;intr -->
<g id="edge1" class="edge"><title>run&#45;&#45;intr</title>
<path fill="none" stroke="black" d="M72.0658,-433.811C62.8405,-422.07 50.1304,-405.893 40.9109,-394.159"/>
</g>
<!-- kernel -->
<g id="node4" class="node"><title>kernel</title>
<ellipse fill="none" stroke="black" cx="170" cy="-378" rx="32.2457" ry="18"/>
<text text-anchor="middle" x="170" y="-374.3" font-family="Times,serif" font-size="14.00">kernel</text>
</g>
<!-- run&#45;&#45;kernel -->
<g id="edge4" class="edge"><title>run&#45;&#45;kernel</title>
<path fill="none" stroke="black" d="M100.582,-435.503C115.517,-423.346 137.396,-405.538 152.584,-393.176"/>
</g>
<!-- runbl -->
<g id="node3" class="node"><title>runbl</title>
<ellipse fill="none" stroke="black" cx="29" cy="-306" rx="29.3722" ry="18"/>
<text text-anchor="middle" x="29" y="-302.3" font-family="Times,serif" font-size="14.00">runbl</text>
</g>
<!-- intr&#45;&#45;runbl -->
<g id="edge2" class="edge"><title>intr&#45;&#45;runbl</title>
<path fill="none" stroke="black" d="M29,-359.697C29,-348.846 29,-334.917 29,-324.104"/>
</g>
<!-- runbl&#45;&#45;run -->
<g id="edge3" class="edge"><title>runbl&#45;&#45;run</title>
<path fill="none" stroke="black" d="M41.7479,-322.298C49.5585,-332.413 59.1477,-346.292 65,-360 75.1736,-383.83 80.1099,-413.654 82.3439,-432.012"/>
</g>
<!-- zombie -->
<g id="node5" class="node"><title>zombie</title>
<ellipse fill="none" stroke="black" cx="113" cy="-306" rx="37.0701" ry="18"/>
<text text-anchor="middle" x="113" y="-302.3" font-family="Times,serif" font-size="14.00">zombie</text>
</g>
<!-- kernel&#45;&#45;zombie -->
<g id="edge5" class="edge"><title>kernel&#45;&#45;zombie</title>
<path fill="none" stroke="black" d="M157.066,-361.116C147.869,-349.821 135.552,-334.696 126.279,-323.307"/>
</g>
<!-- sleep -->
<g id="node6" class="node"><title>sleep</title>
<ellipse fill="none" stroke="black" cx="197" cy="-306" rx="28.3955" ry="18"/>
<text text-anchor="middle" x="197" y="-302.3" font-family="Times,serif" font-size="14.00">sleep</text>
</g>
<!-- kernel&#45;&#45;sleep -->
<g id="edge6" class="edge"><title>kernel&#45;&#45;sleep</title>
<path fill="none" stroke="black" d="M176.536,-360.055C180.781,-349.049 186.291,-334.764 190.524,-323.789"/>
</g>
<!-- runmem -->
<g id="node7" class="node"><title>runmem</title>
<ellipse fill="none" stroke="black" cx="188" cy="-18" rx="40.4202" ry="18"/>
<text text-anchor="middle" x="188" y="-14.3" font-family="Times,serif" font-size="14.00">runmem</text>
</g>
<!-- kernel&#45;&#45;runmem -->
<g id="edge7" class="edge"><title>kernel&#45;&#45;runmem</title>
<path fill="none" stroke="black" d="M190.416,-364.012C204.236,-354.365 222.08,-340.125 234,-324 259.464,-289.552 271,-277.838 271,-235 271,-235 271,-235 271,-161 271,-120.553 272.959,-106.593 252,-72 242.132,-55.7133 225.425,-42.1311 211.555,-32.7947"/>
</g>
<!-- sleep&#45;&#45;runmem -->
<g id="edge13" class="edge"><title>sleep&#45;&#45;runmem</title>
<path fill="none" stroke="black" d="M183.234,-289.935C174.867,-279.913 164.723,-266.051 159,-252 146.788,-222.02 150.451,-212.278 148,-180 146.788,-164.046 145.532,-159.809 148,-144 154.22,-104.152 170.961,-59.6512 180.7,-35.9804"/>
</g>
<!-- swap -->
<g id="node8" class="node"><title>swap</title>
<ellipse fill="none" stroke="black" cx="197" cy="-234" rx="28.3955" ry="18"/>
<text text-anchor="middle" x="197" y="-230.3" font-family="Times,serif" font-size="14.00">swap</text>
</g>
<!-- sleep&#45;&#45;swap -->
<g id="edge8" class="edge"><title>sleep&#45;&#45;swap</title>
<path fill="none" stroke="black" d="M197,-287.697C197,-276.846 197,-262.917 197,-252.104"/>
</g>
<!-- runswap -->
<g id="node9" class="node"><title>runswap</title>
<ellipse fill="none" stroke="black" cx="197" cy="-162" rx="39.9464" ry="18"/>
<text text-anchor="middle" x="197" y="-158.3" font-family="Times,serif" font-size="14.00">runswap</text>
</g>
<!-- swap&#45;&#45;runswap -->
<g id="edge9" class="edge"><title>swap&#45;&#45;runswap</title>
<path fill="none" stroke="black" d="M197,-215.697C197,-204.846 197,-190.917 197,-180.104"/>
</g>
<!-- runswap&#45;&#45;runmem -->
<g id="edge11" class="edge"><title>runswap&#45;&#45;runmem</title>
<path fill="none" stroke="black" d="M190.11,-144.141C186.295,-133.884 181.942,-120.411 180,-108 176.115,-83.1699 180.351,-54.1252 183.985,-36.1432"/>
</g>
<!-- new -->
<g id="node10" class="node"><title>new</title>
<ellipse fill="none" stroke="black" cx="216" cy="-90" rx="27" ry="18"/>
<text text-anchor="middle" x="216" y="-86.3" font-family="Times,serif" font-size="14.00">new</text>
</g>
<!-- runswap&#45;&#45;new -->
<g id="edge10" class="edge"><title>runswap&#45;&#45;new</title>
<path fill="none" stroke="black" d="M201.599,-144.055C204.587,-133.049 208.464,-118.764 211.443,-107.789"/>
</g>
<!-- new&#45;&#45;runmem -->
<g id="edge12" class="edge"><title>new&#45;&#45;runmem</title>
<path fill="none" stroke="black" d="M209.364,-72.411C204.966,-61.4141 199.211,-47.0274 194.782,-35.9562"/>
</g>
</g>
</svg>
