<?xml version="1.0" encoding="UTF-8" standalone="no"?>
<!DOCTYPE svg PUBLIC "-//W3C//DTD SVG 1.1//EN"
 "http://www.w3.org/Graphics/SVG/1.1/DTD/svg11.dtd">
<!-- Generated by graphviz version 2.26.3 (20100126.1600)
 -->
<!-- Title: G Pages: 1 -->
<svg width="294pt" height="490pt"
 viewBox="0.00 0.00 293.59 490.00" xmlns="http://www.w3.org/2000/svg" xmlns:xlink="http://www.w3.org/1999/xlink">
<g id="graph1" class="graph" transform="scale(1 1) rotate(0) translate(4 486)">
<title>G</title>
<polygon fill="white" stroke="white" points="-4,5 -4,-486 290.593,-486 290.593,5 -4,5"/>
<!-- run -->
<g id="node1" class="node"><title>run</title>
<ellipse fill="none" stroke="black" cx="87" cy="-463" rx="27" ry="19.0919"/>
<text text-anchor="middle" x="87" y="-459.9" font-family="Times Roman,serif" font-size="14.00">run</text>
</g>
<!-- intr -->
<g id="node3" class="node"><title>intr</title>
<ellipse fill="none" stroke="black" cx="32" cy="-389" rx="27" ry="19.0919"/>
<text text-anchor="middle" x="32" y="-385.9" font-family="Times Roman,serif" font-size="14.00">intr</text>
</g>
<!-- run&#45;&#45;intr -->
<g id="edge2" class="edge"><title>run&#45;&#45;intr</title>
<path fill="none" stroke="black" d="M74.2437,-445.837C65.3583,-433.882 53.5574,-418.004 44.6872,-406.07"/>
</g>
<!-- kernel -->
<g id="node8" class="node"><title>kernel</title>
<ellipse fill="none" stroke="black" cx="180" cy="-389" rx="34.8574" ry="19.0919"/>
<text text-anchor="middle" x="180" y="-385.9" font-family="Times Roman,serif" font-size="14.00">kernel</text>
</g>
<!-- run&#45;&#45;kernel -->
<g id="edge8" class="edge"><title>run&#45;&#45;kernel</title>
<path fill="none" stroke="black" d="M104.931,-448.732C120.766,-436.132 143.817,-417.791 160.192,-404.761"/>
</g>
<!-- runbl -->
<g id="node5" class="node"><title>runbl</title>
<ellipse fill="none" stroke="black" cx="32" cy="-315" rx="31.8198" ry="19.0919"/>
<text text-anchor="middle" x="32" y="-311.9" font-family="Times Roman,serif" font-size="14.00">runbl</text>
</g>
<!-- intr&#45;&#45;runbl -->
<g id="edge4" class="edge"><title>intr&#45;&#45;runbl</title>
<path fill="none" stroke="black" d="M32,-369.943C32,-358.98 32,-345.245 32,-334.249"/>
</g>
<!-- runbl&#45;&#45;run -->
<g id="edge6" class="edge"><title>runbl&#45;&#45;run</title>
<path fill="none" stroke="black" d="M45.8292,-332.369C53.439,-342.742 62.439,-356.492 68,-370 78.0377,-394.382 82.9502,-424.614 85.2229,-443.86"/>
</g>
<!-- zombie -->
<g id="node10" class="node"><title>zombie</title>
<ellipse fill="none" stroke="black" cx="122" cy="-315" rx="39.8075" ry="19.0919"/>
<text text-anchor="middle" x="122" y="-311.9" font-family="Times Roman,serif" font-size="14.00">zombie</text>
</g>
<!-- kernel&#45;&#45;zombie -->
<g id="edge10" class="edge"><title>kernel&#45;&#45;zombie</title>
<path fill="none" stroke="black" d="M166.255,-371.463C157.143,-359.838 145.223,-344.629 136.049,-332.925"/>
</g>
<!-- sleep -->
<g id="node12" class="node"><title>sleep</title>
<ellipse fill="none" stroke="black" cx="211" cy="-315" rx="31.1127" ry="19.0919"/>
<text text-anchor="middle" x="211" y="-311.9" font-family="Times Roman,serif" font-size="14.00">sleep</text>
</g>
<!-- kernel&#45;&#45;sleep -->
<g id="edge12" class="edge"><title>kernel&#45;&#45;sleep</title>
<path fill="none" stroke="black" d="M187.823,-370.327C192.558,-359.023 198.572,-344.667 203.287,-333.411"/>
</g>
<!-- runmem -->
<g id="node14" class="node"><title>runmem</title>
<ellipse fill="none" stroke="black" cx="202" cy="-19" rx="44.0472" ry="19.0919"/>
<text text-anchor="middle" x="202" y="-15.9" font-family="Times Roman,serif" font-size="14.00">runmem</text>
</g>
<!-- kernel&#45;&#45;runmem -->
<g id="edge14" class="edge"><title>kernel&#45;&#45;runmem</title>
<path fill="none" stroke="black" d="M204.267,-375.144C219.515,-365.36 238.58,-350.995 251,-334 276.967,-298.468 285,-285.009 285,-241 285,-241 285,-241 285,-167 285,-124.813 287.371,-110.374 266,-74 256.575,-57.958 240.75,-44.2967 227.195,-34.602"/>
</g>
<!-- sleep&#45;&#45;runmem -->
<g id="edge26" class="edge"><title>sleep&#45;&#45;runmem</title>
<path fill="none" stroke="black" d="M195.826,-298.413C187.217,-288.091 176.996,-274.129 171,-260 157.955,-229.261 160.9,-219.266 158,-186 156.533,-169.175 155.237,-164.661 158,-148 164.737,-107.382 182.643,-62.3841 193.422,-37.725"/>
</g>
<!-- swap -->
<g id="node16" class="node"><title>swap</title>
<ellipse fill="none" stroke="black" cx="211" cy="-241" rx="31.1127" ry="19.0919"/>
<text text-anchor="middle" x="211" y="-237.9" font-family="Times Roman,serif" font-size="14.00">swap</text>
</g>
<!-- sleep&#45;&#45;swap -->
<g id="edge16" class="edge"><title>sleep&#45;&#45;swap</title>
<path fill="none" stroke="black" d="M211,-295.943C211,-284.98 211,-271.245 211,-260.249"/>
</g>
<!-- runswap -->
<g id="node18" class="node"><title>runswap</title>
<ellipse fill="none" stroke="black" cx="211" cy="-167" rx="43.8406" ry="19.0919"/>
<text text-anchor="middle" x="211" y="-163.9" font-family="Times Roman,serif" font-size="14.00">runswap</text>
</g>
<!-- swap&#45;&#45;runswap -->
<g id="edge18" class="edge"><title>swap&#45;&#45;runswap</title>
<path fill="none" stroke="black" d="M211,-221.943C211,-210.98 211,-197.245 211,-186.249"/>
</g>
<!-- runswap&#45;&#45;runmem -->
<g id="edge22" class="edge"><title>runswap&#45;&#45;runmem</title>
<path fill="none" stroke="black" d="M203.667,-148.237C199.962,-137.755 195.866,-124.353 194,-112 190.152,-86.5222 194.17,-56.8172 197.767,-37.9642"/>
</g>
<!-- new -->
<g id="node20" class="node"><title>new</title>
<ellipse fill="none" stroke="black" cx="230" cy="-93" rx="27.0758" ry="19.0919"/>
<text text-anchor="middle" x="230" y="-89.9" font-family="Times Roman,serif" font-size="14.00">new</text>
</g>
<!-- runswap&#45;&#45;new -->
<g id="edge20" class="edge"><title>runswap&#45;&#45;new</title>
<path fill="none" stroke="black" d="M215.893,-147.943C218.752,-136.809 222.345,-122.815 225.189,-111.736"/>
</g>
<!-- new&#45;&#45;runmem -->
<g id="edge24" class="edge"><title>new&#45;&#45;runmem</title>
<path fill="none" stroke="black" d="M222.934,-74.3267C218.722,-63.1945 213.39,-49.1011 209.161,-37.9247"/>
</g>
</g>
</svg>
