<?xml version="1.0" encoding="UTF-8" standalone="no"?>
<!DOCTYPE svg PUBLIC "-//W3C//DTD SVG 1.1//EN"
 "http://www.w3.org/Graphics/SVG/1.1/DTD/svg11.dtd">
<!-- Generated by graphviz version 2.29.20121107.0545 (20121107.0545)
 -->
<!-- Title: G Pages: 1 -->
<svg width="262pt" height="476pt"
 viewBox="0.00 0.00 262.30 476.00" xmlns="http://www.w3.org/2000/svg" xmlns:xlink="http://www.w3.org/1999/xlink">
<g id="graph0" class="graph" transform="scale(1 1) rotate(0) translate(4 472)">
<title>G</title>
<polygon fill="white" stroke="white" points="-4,5 -4,-472 259.299,-472 259.299,5 -4,5"/>
<!-- run -->
<g id="node1" class="node"><title>run</title>
<ellipse fill="none" stroke="black" cx="84" cy="-450" rx="27" ry="18"/>
<text text-anchor="middle" x="84" y="-446.3" font-family="Times,serif" font-size="14.00">run</text>
</g>
<!-- intr -->
<g id="node2" class="node"><title>intr</title>
<ellipse fill="none" stroke="black" cx="29" cy="-378" rx="27" ry="18"/>
<text text-anchor="middle" x="29" y="-374.3" font-family="Times,serif" font-size="14.00">intr</text>
</g>
<!-- run&#45;&#45;intr -->
<g id="edge1" class="edge"><title>run&#45;&#45;intr</title>
<path fill="none" stroke="black" d="M72.0658,-433.811C62.8405,-422.07 50.1304,-405.893 40.9109,-394.159"/>
</g>
<!-- kernel -->
<g id="node4" class="node"><title>kernel</title>
<ellipse fill="none" stroke="black" cx="170" cy="-378" rx="32.2457" ry="18"/>
<text text-anchor="middle" x="170" y="-374.3" font-family="Times,serif" font-size="14.00">kernel</text>
</g>
<!-- run&#45;&#45;kernel -->
<g id="edge4" class="edge"><title>run&#45;&#45;kernel</title>
<path fill="none" stroke="black" d="M100.582,-435.503C115.517,-423.346 137.396,-405.538 152.584,-393.176"/>
</g>
<!-- runbl -->
<g id="node3" class="node"><title>runbl</title>
<ellipse fill="none" stroke="black" cx="29" cy="-306" rx="29.3722" ry="18"/>
<text text-anchor="middle" x="29" y="-302.3" font-family="Times,serif" font-size="14.00">runbl</text>
</g>
<!-- intr&#45;&#45;runbl -->
<g id="edge2" class="edge"><title>intr&#45;&#45;runbl</title>
<path fill="none" stroke="black" d="M29,-359.697C29,-348.846 29,-334.917 29,-324.104"/>
</g>
<!-- runbl&#45;&#45;run -->
<g id="edge3" class="edge"><title>runbl&#45;&#45;run</title>
<path fill="none" stroke="black" d="M41.7479,-322.298C49.5585,-332.413 59.1477,-346.292 65,-360 75.1736,-383.83 80.1099,-413.654 82.3439,-432.012"/>
</g>
<!-- zombie -->
<g id="node5" class="node"><title>zombie</title>
<ellipse fill="none" stroke="black" cx="113" cy="-306" rx="37.0701" ry="18"/>
<text text-anchor="middle" x="113" y="-302.3" font-family="Times,serif" font-size="14.00">zombie</text>
</g>
<!-- kernel&#45;&#45;zombie -->
<g id="edge5" class="edge"><title>kernel&#45;&#45;zombie</title>
<path fill="none" stroke="black" d="M157.066,-361.116C147.869,-349.821 135.552,-334.696 126.279,-323.307"/>
</g>
<!-- sleep -->
<g id="node6" class="node"><title>sleep</title>
<ellipse fill="none" stroke="black" cx="197" cy="-306" rx="28.3955" ry="18"/>
<text text-anchor="middle" x="197" y="-302.3" font-family="Times,serif" font-size="14.00">sleep</text>
</g>
<!-- kernel&#45;&#45;sleep -->
<g id="edge6" class="edge"><title>kernel&#45;&#45;sleep</title>
<path fill="none" stroke="black" d="M176.536,-360.055C180.781,-349.049 186.291,-334.764 190.524,-323.789"/>
</g>
<!-- runmem -->
<g id="node7" class="node"><title>runmem</title>
<ellipse fill="none" stroke="black" cx="197" cy="-18" rx="40.4202" ry="18"/>
<text text-anchor="middle" x="197" y="-14.3" font-family="Times,serif" font-size="14.00">runmem</text>
</g>
<!-- kernel&#45;&#45;runmem -->
<g id="edge7" class="edge"><title>kernel&#45;&#45;runmem</title>
<path fill="none" stroke="black" d="M191.624,-364.417C205.808,-355.047 223.592,-340.972 234,-324 255.194,-289.439 254,-275.542 254,-235 254,-235 254,-235 254,-161 254,-112.652 225.19,-61.2775 208.535,-35.6164"/>
</g>
<!-- swap -->
<g id="node8" class="node"><title>swap</title>
<ellipse fill="none" stroke="black" cx="154" cy="-234" rx="28.3955" ry="18"/>
<text text-anchor="middle" x="154" y="-230.3" font-family="Times,serif" font-size="14.00">swap</text>
</g>
<!-- sleep&#45;&#45;swap -->
<g id="edge8" class="edge"><title>sleep&#45;&#45;swap</title>
<path fill="none" stroke="black" d="M187.027,-288.765C180.08,-277.456 170.854,-262.437 163.919,-251.147"/>
</g>
<!-- sleep&#45;&#45;runmem -->
<g id="edge13" class="edge"><title>sleep&#45;&#45;runmem</title>
<path fill="none" stroke="black" d="M197,-287.966C197,-237.218 197,-87.4066 197,-36.3065"/>
</g>
<!-- runswap -->
<g id="node9" class="node"><title>runswap</title>
<ellipse fill="none" stroke="black" cx="148" cy="-162" rx="39.9464" ry="18"/>
<text text-anchor="middle" x="148" y="-158.3" font-family="Times,serif" font-size="14.00">runswap</text>
</g>
<!-- swap&#45;&#45;runswap -->
<g id="edge9" class="edge"><title>swap&#45;&#45;runswap</title>
<path fill="none" stroke="black" d="M152.517,-215.697C151.587,-204.846 150.393,-190.917 149.466,-180.104"/>
</g>
<!-- new -->
<g id="node10" class="node"><title>new</title>
<ellipse fill="none" stroke="black" cx="123" cy="-90" rx="27" ry="18"/>
<text text-anchor="middle" x="123" y="-86.3" font-family="Times,serif" font-size="14.00">new</text>
</g>
<!-- runswap&#45;&#45;new -->
<g id="edge10" class="edge"><title>runswap&#45;&#45;new</title>
<path fill="none" stroke="black" d="M141.948,-144.055C138.018,-133.049 132.916,-118.764 128.996,-107.789"/>
</g>
<!-- runswap&#45;&#45;runmem -->
<g id="edge11" class="edge"><title>runswap&#45;&#45;runmem</title>
<path fill="none" stroke="black" d="M153.813,-144.153C163.244,-116.824 181.769,-63.14 191.194,-35.825"/>
</g>
<!-- new&#45;&#45;runmem -->
<g id="edge12" class="edge"><title>new&#45;&#45;runmem</title>
<path fill="none" stroke="black" d="M137.975,-74.8345C150.307,-63.1692 167.771,-46.6491 180.502,-34.6059"/>
</g>
</g>
</svg>
