<?xml version="1.0" encoding="UTF-8" standalone="no"?>
<!DOCTYPE svg PUBLIC "-//W3C//DTD SVG 1.1//EN"
 "http://www.w3.org/Graphics/SVG/1.1/DTD/svg11.dtd">
<!-- Generated by graphviz version 2.26.3 (20100126.1600)
 -->
<!-- Title: G Pages: 1 -->
<svg width="198pt" height="90pt"
 viewBox="0.00 0.00 198.00 90.00" xmlns="http://www.w3.org/2000/svg" xmlns:xlink="http://www.w3.org/1999/xlink">
<g id="graph1" class="graph" transform="scale(1 1) rotate(0) translate(4 86)">
<title>G</title>
<polygon fill="white" stroke="white" points="-4,5 -4,-86 195,-86 195,5 -4,5"/>
<!-- a -->
<g id="node1" class="node"><title>a</title>
<polygon fill="none" stroke="black" points="0,-23 0,-59 92,-59 92,-23 0,-23"/>
<text text-anchor="middle" x="17.5" y="-37.9" font-family="Times Roman,serif" font-size="14.00">foo</text>
<polyline fill="none" stroke="black" points="35,-23 35,-59 "/>
<text text-anchor="middle" x="46.5" y="-37.9" font-family="Times Roman,serif" font-size="14.00">x</text>
<polyline fill="none" stroke="black" points="58,-23 58,-59 "/>
<text text-anchor="middle" x="75" y="-37.9" font-family="Times Roman,serif" font-size="14.00">bar</text>
</g>
<!-- b -->
<g id="node2" class="node"><title>b</title>
<polygon fill="none" stroke="black" points="109.5,-0.5 109.5,-81.5 190.5,-81.5 190.5,-0.5 109.5,-0.5"/>
<text text-anchor="middle" x="121" y="-37.9" font-family="Times Roman,serif" font-size="14.00">a</text>
<polyline fill="none" stroke="black" points="132.5,-0.5 132.5,-81.5 "/>
<text text-anchor="middle" x="150" y="-64.9" font-family="Times Roman,serif" font-size="14.00">foo</text>
<polyline fill="none" stroke="black" points="132.5,-54.5 167.5,-54.5 "/>
<text text-anchor="middle" x="150" y="-37.9" font-family="Times Roman,serif" font-size="14.00">x</text>
<polyline fill="none" stroke="black" points="132.5,-27.5 167.5,-27.5 "/>
<text text-anchor="middle" x="150" y="-10.9" font-family="Times Roman,serif" font-size="14.00">bar</text>
<polyline fill="none" stroke="black" points="167.5,-0.5 167.5,-81.5 "/>
<text text-anchor="middle" x="179" y="-37.9" font-family="Times Roman,serif" font-size="14.00">b</text>
</g>
</g>
</svg>
