<?xml version="1.0" encoding="UTF-8" standalone="no"?>
<!DOCTYPE svg PUBLIC "-//W3C//DTD SVG 1.1//EN"
 "http://www.w3.org/Graphics/SVG/1.1/DTD/svg11.dtd">
<!-- Generated by graphviz version 2.26.3 (20100126.1600)
 -->
<!-- Title: G Pages: 1 -->
<svg width="123pt" height="176pt"
 viewBox="0.00 0.00 123.00 176.13" xmlns="http://www.w3.org/2000/svg" xmlns:xlink="http://www.w3.org/1999/xlink">
<g id="graph1" class="graph" transform="scale(1 1) rotate(0) translate(4 172.13)">
<title>G</title>
<polygon fill="white" stroke="white" points="-4,5 -4,-172.13 120,-172.13 120,5 -4,5"/>
<!-- a -->
<g id="node1" class="node"><title>a</title>
<polygon fill="none" stroke="black" points="23,-131.13 23,-167.13 115,-167.13 115,-131.13 23,-131.13"/>
<text text-anchor="middle" x="40.5" y="-146.03" font-family="Times Roman,serif" font-size="14.00">foo</text>
<polyline fill="none" stroke="black" points="58,-131.13 58,-167.13 "/>
<text text-anchor="middle" x="69.5" y="-146.03" font-family="Times Roman,serif" font-size="14.00">x</text>
<polyline fill="none" stroke="black" points="81,-131.13 81,-167.13 "/>
<text text-anchor="middle" x="98" y="-146.03" font-family="Times Roman,serif" font-size="14.00">bar</text>
</g>
<!-- b -->
<g id="node2" class="node"><title>b</title>
<polygon fill="none" stroke="black" points="-0.5,-12.63 -0.5,-93.63 80.5,-93.63 80.5,-12.63 -0.5,-12.63"/>
<text text-anchor="middle" x="11" y="-50.03" font-family="Times Roman,serif" font-size="14.00">a</text>
<polyline fill="none" stroke="black" points="22.5,-12.63 22.5,-93.63 "/>
<text text-anchor="middle" x="40" y="-77.03" font-family="Times Roman,serif" font-size="14.00">foo</text>
<polyline fill="none" stroke="black" points="22.5,-66.63 57.5,-66.63 "/>
<text text-anchor="middle" x="40" y="-50.03" font-family="Times Roman,serif" font-size="14.00">x</text>
<polyline fill="none" stroke="black" points="22.5,-39.63 57.5,-39.63 "/>
<text text-anchor="middle" x="40" y="-23.03" font-family="Times Roman,serif" font-size="14.00">bar</text>
<polyline fill="none" stroke="black" points="57.5,-12.63 57.5,-93.63 "/>
<text text-anchor="middle" x="69" y="-50.03" font-family="Times Roman,serif" font-size="14.00">b</text>
</g>
<!-- a&#45;&gt;b -->
<g id="edge2" class="edge"><title>a:f0&#45;&gt;b:f1</title>
<path fill="none" stroke="black" d="M40,-130.13C40,-106.212 70.2694,-115.979 80,-94.13 94.827,-60.838 105.446,-38.2202 80,-12.13 70.6876,-2.58184 52.8438,3.2097 44.5039,-1.99363"/>
<polygon fill="black" stroke="black" points="41.2824,-0.613049 40,-11.13 47.5609,-3.7082 41.2824,-0.613049"/>
</g>
</g>
</svg>
