<?xml version="1.0" encoding="UTF-8" standalone="no"?>
<!DOCTYPE svg PUBLIC "-//W3C//DTD SVG 1.1//EN"
 "http://www.w3.org/Graphics/SVG/1.1/DTD/svg11.dtd">
<!-- Generated by graphviz version 2.26.3 (20100126.1600)
 -->
<!-- Title: G Pages: 1 -->
<svg width="266pt" height="307pt"
 viewBox="0.00 0.00 266.00 307.00" xmlns="http://www.w3.org/2000/svg" xmlns:xlink="http://www.w3.org/1999/xlink">
<g id="graph1" class="graph" transform="scale(1 1) rotate(0) translate(4 303)">
<title>G</title>
<polygon fill="white" stroke="white" points="-4,5 -4,-303 263,-303 263,5 -4,5"/>
<!-- a -->
<g id="node1" class="node"><title>a</title>
<polygon fill="none" stroke="black" points="0,-100 0,-200 78,-200 78,-100 0,-100"/>
<text text-anchor="start" x="8" y="-183.4" font-family="Times Roman,serif" font-size="14.00">Graphs can</text>
<text text-anchor="start" x="8" y="-164.4" font-family="Times Roman,serif" font-size="14.00">be fun</text>
<polyline fill="none" stroke="black" points="0,-154 78,-154 "/>
<text text-anchor="middle" x="39" y="-137.4" font-family="Times Roman,serif" font-size="14.00">mid</text>
<polyline fill="none" stroke="black" points="0,-127 78,-127 "/>
<text text-anchor="end" x="70" y="-110.4" font-family="Times Roman,serif" font-size="14.00">right</text>
</g>
<!-- b -->
<g id="node2" class="node"><title>b</title>
<polygon fill="none" stroke="black" points="114,-154.5 114,-235.5 168,-235.5 168,-154.5 114,-154.5"/>
<text text-anchor="middle" x="141" y="-218.9" font-family="Times Roman,serif" font-size="14.00"> </text>
<polyline fill="none" stroke="black" points="114,-208.5 168,-208.5 "/>
<text text-anchor="middle" x="141" y="-191.9" font-family="Times Roman,serif" font-size="14.00">b</text>
<polyline fill="none" stroke="black" points="114,-181.5 168,-181.5 "/>
<text text-anchor="middle" x="141" y="-164.9" font-family="Times Roman,serif" font-size="14.00"> </text>
</g>
<!-- a&#45;&gt;b -->
<g id="edge2" class="edge"><title>a:bala&#45;&gt;b:left</title>
<path fill="none" stroke="black" d="M78,-177C99.4104,-177 92.284,-208.446 104.331,-218.764"/>
<polygon fill="black" stroke="black" points="103.406,-222.145 114,-222 105.628,-215.507 103.406,-222.145"/>
</g>
<!-- y -->
<g id="node5" class="node"><title>y</title>
<polygon fill="none" stroke="black" points="114,-0.5 114,-81.5 168,-81.5 168,-0.5 114,-0.5"/>
<text text-anchor="middle" x="141" y="-64.9" font-family="Times Roman,serif" font-size="14.00"> </text>
<polyline fill="none" stroke="black" points="114,-54.5 168,-54.5 "/>
<text text-anchor="middle" x="141" y="-37.9" font-family="Times Roman,serif" font-size="14.00">y</text>
<polyline fill="none" stroke="black" points="114,-27.5 168,-27.5 "/>
<text text-anchor="middle" x="141" y="-10.9" font-family="Times Roman,serif" font-size="14.00"> </text>
</g>
<!-- a&#45;&gt;y -->
<g id="edge6" class="edge"><title>a:f2&#45;&gt;y:p1</title>
<path fill="none" stroke="black" d="M78,-113C99.4104,-113 92.284,-81.5544 104.331,-71.2363"/>
<polygon fill="black" stroke="black" points="105.628,-74.493 114,-68 103.406,-67.855 105.628,-74.493"/>
</g>
<!-- d -->
<g id="node9" class="node"><title>d</title>
<polygon fill="none" stroke="black" points="114,-100 114,-136 168,-136 168,-100 114,-100"/>
<text text-anchor="middle" x="141" y="-114.9" font-family="Times Roman,serif" font-size="14.00">d</text>
</g>
<!-- a&#45;&gt;d -->
<g id="edge4" class="edge"><title>a:f1&#45;&gt;d</title>
<path fill="none" stroke="black" d="M78,-140C86.7432,-140 95.8066,-138.088 104.241,-135.391"/>
<polygon fill="black" stroke="black" points="105.586,-138.627 113.798,-131.933 103.204,-132.045 105.586,-138.627"/>
</g>
<!-- x -->
<g id="node4" class="node"><title>x</title>
<polygon fill="none" stroke="black" points="204,-117.5 204,-198.5 258,-198.5 258,-117.5 204,-117.5"/>
<text text-anchor="middle" x="231" y="-181.9" font-family="Times Roman,serif" font-size="14.00"> </text>
<polyline fill="none" stroke="black" points="204,-171.5 258,-171.5 "/>
<text text-anchor="middle" x="231" y="-154.9" font-family="Times Roman,serif" font-size="14.00">x</text>
<polyline fill="none" stroke="black" points="204,-144.5 258,-144.5 "/>
<text text-anchor="middle" x="231" y="-127.9" font-family="Times Roman,serif" font-size="14.00"> </text>
</g>
<!-- b&#45;&gt;x -->
<g id="edge10" class="edge"><title>b:mid&#45;&gt;x:p1</title>
<path fill="none" stroke="black" d="M168,-195C180.584,-195 185.233,-189.257 193.974,-186.476"/>
<polygon fill="black" stroke="black" points="194.616,-189.919 204,-185 193.597,-182.993 194.616,-189.919"/>
</g>
<!-- z -->
<g id="node6" class="node"><title>z</title>
<polygon fill="none" stroke="black" points="204,-217.5 204,-298.5 258,-298.5 258,-217.5 204,-217.5"/>
<text text-anchor="middle" x="231" y="-281.9" font-family="Times Roman,serif" font-size="14.00"> </text>
<polyline fill="none" stroke="black" points="204,-271.5 258,-271.5 "/>
<text text-anchor="middle" x="231" y="-254.9" font-family="Times Roman,serif" font-size="14.00">z</text>
<polyline fill="none" stroke="black" points="204,-244.5 258,-244.5 "/>
<text text-anchor="middle" x="231" y="-227.9" font-family="Times Roman,serif" font-size="14.00"> </text>
</g>
<!-- b&#45;&gt;z -->
<g id="edge14" class="edge"><title>b:left&#45;&gt;z:p2</title>
<path fill="none" stroke="black" d="M168,-222C180.498,-222 185.257,-227.169 194.006,-229.672"/>
<polygon fill="black" stroke="black" points="193.626,-233.152 204,-231 194.548,-226.213 193.626,-233.152"/>
</g>
<!-- c -->
<g id="node3" class="node"><title>c</title>
<polygon fill="none" stroke="black" points="12,-0.5 12,-81.5 66,-81.5 66,-0.5 12,-0.5"/>
<text text-anchor="middle" x="39" y="-64.9" font-family="Times Roman,serif" font-size="14.00"> </text>
<polyline fill="none" stroke="black" points="12,-54.5 66,-54.5 "/>
<text text-anchor="middle" x="39" y="-37.9" font-family="Times Roman,serif" font-size="14.00">c</text>
<polyline fill="none" stroke="black" points="12,-27.5 66,-27.5 "/>
<text text-anchor="middle" x="39" y="-10.9" font-family="Times Roman,serif" font-size="14.00"> </text>
</g>
<!-- c&#45;&gt;y -->
<g id="edge12" class="edge"><title>c:p2&#45;&gt;y:p2</title>
<path fill="none" stroke="black" d="M66,-14C83.5,-14 90.2334,-14 103.864,-14"/>
<polygon fill="black" stroke="black" points="104,-17.5001 114,-14 104,-10.5001 104,-17.5001"/>
</g>
<!-- c&#45;&gt;d -->
<g id="edge8" class="edge"><title>c:p1&#45;&gt;d</title>
<path fill="none" stroke="black" d="M66,-68C76.1279,-68 95.1877,-80.7823 111.558,-93.4211"/>
<polygon fill="black" stroke="black" points="109.797,-96.4909 119.812,-99.9489 114.139,-91.0004 109.797,-96.4909"/>
</g>
</g>
</svg>
