<?xml version="1.0" encoding="UTF-8" standalone="no"?>
<!DOCTYPE svg PUBLIC "-//W3C//DTD SVG 1.1//EN"
 "http://www.w3.org/Graphics/SVG/1.1/DTD/svg11.dtd">
<!-- Generated by graphviz version 2.26.3 (20100126.1600)
 -->
<!-- Title: G Pages: 1 -->
<svg width="86pt" height="662pt"
 viewBox="0.00 0.00 86.00 662.00" xmlns="http://www.w3.org/2000/svg" xmlns:xlink="http://www.w3.org/1999/xlink">
<g id="graph1" class="graph" transform="scale(1 1) rotate(0) translate(4 658)">
<title>G</title>
<polygon fill="white" stroke="white" points="-4,5 -4,-658 83,-658 83,5 -4,5"/>
<!-- a -->
<g id="node1" class="node"><title>a</title>
<polygon fill="none" stroke="black" points="0,-0 0,-100 78,-100 78,-0 0,-0"/>
<text text-anchor="start" x="8" y="-83.4" font-family="Times Roman,serif" font-size="14.00">Graphs can</text>
<text text-anchor="start" x="8" y="-64.4" font-family="Times Roman,serif" font-size="14.00">be fun</text>
<polyline fill="none" stroke="black" points="0,-54 78,-54 "/>
<text text-anchor="middle" x="39" y="-37.4" font-family="Times Roman,serif" font-size="14.00">mid</text>
<polyline fill="none" stroke="black" points="0,-27 78,-27 "/>
<text text-anchor="end" x="70" y="-10.4" font-family="Times Roman,serif" font-size="14.00">right</text>
</g>
<!-- b -->
<g id="node2" class="node"><title>b</title>
<polygon fill="none" stroke="black" points="12,-118.5 12,-199.5 66,-199.5 66,-118.5 12,-118.5"/>
<text text-anchor="middle" x="39" y="-182.9" font-family="Times Roman,serif" font-size="14.00"> </text>
<polyline fill="none" stroke="black" points="12,-172.5 66,-172.5 "/>
<text text-anchor="middle" x="39" y="-155.9" font-family="Times Roman,serif" font-size="14.00">b</text>
<polyline fill="none" stroke="black" points="12,-145.5 66,-145.5 "/>
<text text-anchor="middle" x="39" y="-128.9" font-family="Times Roman,serif" font-size="14.00"> </text>
</g>
<!-- c -->
<g id="node3" class="node"><title>c</title>
<polygon fill="none" stroke="black" points="12,-218.5 12,-299.5 66,-299.5 66,-218.5 12,-218.5"/>
<text text-anchor="middle" x="39" y="-282.9" font-family="Times Roman,serif" font-size="14.00"> </text>
<polyline fill="none" stroke="black" points="12,-272.5 66,-272.5 "/>
<text text-anchor="middle" x="39" y="-255.9" font-family="Times Roman,serif" font-size="14.00">c</text>
<polyline fill="none" stroke="black" points="12,-245.5 66,-245.5 "/>
<text text-anchor="middle" x="39" y="-228.9" font-family="Times Roman,serif" font-size="14.00"> </text>
</g>
<!-- x -->
<g id="node4" class="node"><title>x</title>
<polygon fill="none" stroke="black" points="12,-318.5 12,-399.5 66,-399.5 66,-318.5 12,-318.5"/>
<text text-anchor="middle" x="39" y="-382.9" font-family="Times Roman,serif" font-size="14.00"> </text>
<polyline fill="none" stroke="black" points="12,-372.5 66,-372.5 "/>
<text text-anchor="middle" x="39" y="-355.9" font-family="Times Roman,serif" font-size="14.00">x</text>
<polyline fill="none" stroke="black" points="12,-345.5 66,-345.5 "/>
<text text-anchor="middle" x="39" y="-328.9" font-family="Times Roman,serif" font-size="14.00"> </text>
</g>
<!-- y -->
<g id="node5" class="node"><title>y</title>
<polygon fill="none" stroke="black" points="12,-418.5 12,-499.5 66,-499.5 66,-418.5 12,-418.5"/>
<text text-anchor="middle" x="39" y="-482.9" font-family="Times Roman,serif" font-size="14.00"> </text>
<polyline fill="none" stroke="black" points="12,-472.5 66,-472.5 "/>
<text text-anchor="middle" x="39" y="-455.9" font-family="Times Roman,serif" font-size="14.00">y</text>
<polyline fill="none" stroke="black" points="12,-445.5 66,-445.5 "/>
<text text-anchor="middle" x="39" y="-428.9" font-family="Times Roman,serif" font-size="14.00"> </text>
</g>
<!-- z -->
<g id="node6" class="node"><title>z</title>
<polygon fill="none" stroke="black" points="12,-518.5 12,-599.5 66,-599.5 66,-518.5 12,-518.5"/>
<text text-anchor="middle" x="39" y="-582.9" font-family="Times Roman,serif" font-size="14.00"> </text>
<polyline fill="none" stroke="black" points="12,-572.5 66,-572.5 "/>
<text text-anchor="middle" x="39" y="-555.9" font-family="Times Roman,serif" font-size="14.00">z</text>
<polyline fill="none" stroke="black" points="12,-545.5 66,-545.5 "/>
<text text-anchor="middle" x="39" y="-528.9" font-family="Times Roman,serif" font-size="14.00"> </text>
</g>
<!-- d -->
<g id="node7" class="node"><title>d</title>
<polygon fill="none" stroke="black" points="12,-618 12,-654 66,-654 66,-618 12,-618"/>
<text text-anchor="middle" x="39" y="-632.9" font-family="Times Roman,serif" font-size="14.00">d</text>
</g>
</g>
</svg>
