<?xml version="1.0" encoding="UTF-8" standalone="no"?>
<!DOCTYPE svg PUBLIC "-//W3C//DTD SVG 1.1//EN"
 "http://www.w3.org/Graphics/SVG/1.1/DTD/svg11.dtd">
<!-- Generated by graphviz version 2.30.1 (20130611.0131)
 -->
<!-- Title: G Pages: 1 -->
<svg width="123pt" height="164pt"
 viewBox="0.00 0.00 123.00 164.13" xmlns="http://www.w3.org/2000/svg" xmlns:xlink="http://www.w3.org/1999/xlink">
<g id="graph0" class="graph" transform="scale(1 1) rotate(0) translate(4 160.13)">
<title>G</title>
<polygon fill="white" stroke="white" points="-4,5 -4,-160.13 120,-160.13 120,5 -4,5"/>
<!-- a -->
<g id="node1" class="node"><title>a</title>
<polygon fill="none" stroke="black" points="23,-119.13 23,-155.13 115,-155.13 115,-119.13 23,-119.13"/>
<text text-anchor="middle" x="40.5" y="-133.43" font-family="Times,serif" font-size="14.00">foo</text>
<polyline fill="none" stroke="black" points="58,-119.13 58,-155.13 "/>
<text text-anchor="middle" x="69.5" y="-133.43" font-family="Times,serif" font-size="14.00">x</text>
<polyline fill="none" stroke="black" points="81,-119.13 81,-155.13 "/>
<text text-anchor="middle" x="98" y="-133.43" font-family="Times,serif" font-size="14.00">bar</text>
</g>
<!-- b -->
<g id="node2" class="node"><title>b</title>
<polygon fill="none" stroke="black" points="-0.5,-12.63 -0.5,-81.63 80.5,-81.63 80.5,-12.63 -0.5,-12.63"/>
<text text-anchor="middle" x="11" y="-43.43" font-family="Times,serif" font-size="14.00">a</text>
<polyline fill="none" stroke="black" points="22.5,-12.63 22.5,-81.63 "/>
<text text-anchor="middle" x="40" y="-66.43" font-family="Times,serif" font-size="14.00">foo</text>
<polyline fill="none" stroke="black" points="22.5,-58.63 57.5,-58.63 "/>
<text text-anchor="middle" x="40" y="-43.43" font-family="Times,serif" font-size="14.00">x</text>
<polyline fill="none" stroke="black" points="22.5,-35.63 57.5,-35.63 "/>
<text text-anchor="middle" x="40" y="-20.43" font-family="Times,serif" font-size="14.00">bar</text>
<polyline fill="none" stroke="black" points="57.5,-12.63 57.5,-81.63 "/>
<text text-anchor="middle" x="69" y="-43.43" font-family="Times,serif" font-size="14.00">b</text>
</g>
<!-- a&#45;&gt;b -->
<g id="edge1" class="edge"><title>a:f0&#45;&gt;b:f1</title>
<path fill="none" stroke="black" d="M40,-118.13C40,-94.2124 70.2694,-103.979 80,-82.13 92.6572,-53.71 101.722,-34.4021 80,-12.13 70.6876,-2.58184 52.8438,3.2097 44.5039,-1.99363"/>
<polygon fill="black" stroke="black" points="41.2824,-0.613049 40,-11.13 47.5609,-3.7082 41.2824,-0.613049"/>
</g>
</g>
</svg>
