<?xml version="1.0" encoding="UTF-8" standalone="no"?>
<!DOCTYPE svg PUBLIC "-//W3C//DTD SVG 1.1//EN"
 "http://www.w3.org/Graphics/SVG/1.1/DTD/svg11.dtd">
<!-- Generated by graphviz version 2.26.3 (20100126.1600)
 -->
<!-- Title: states Pages: 1 -->
<svg width="216pt" height="53pt"
 viewBox="0.00 0.00 216.00 53.37" xmlns="http://www.w3.org/2000/svg" xmlns:xlink="http://www.w3.org/1999/xlink">
<g id="graph1" class="graph" transform="scale(0.416988 0.416988) rotate(0) translate(4 124)">
<title>states</title>
<polygon fill="white" stroke="white" points="-4,5 -4,-124 515,-124 515,5 -4,5"/>
<!-- empty -->
<g id="node1" class="node"><title>empty</title>
<ellipse fill="none" stroke="black" cx="38" cy="-19" rx="36.977" ry="19.0919"/>
<text text-anchor="middle" x="38" y="-15.9" font-family="Times Roman,serif" font-size="14.00">Empty</text>
</g>
<!-- stolen -->
<g id="node2" class="node"><title>stolen</title>
<ellipse fill="none" stroke="black" cx="194" cy="-46" rx="36.0624" ry="19.0919"/>
<text text-anchor="middle" x="194" y="-42.9" font-family="Times Roman,serif" font-size="14.00">Stolen</text>
</g>
<!-- empty&#45;&gt;stolen -->
<g id="edge4" class="edge"><title>empty&#45;&gt;stolen</title>
<path fill="none" stroke="black" d="M73.7896,-25.1943C96.3793,-29.1041 125.728,-34.1838 149.772,-38.3451"/>
<polygon fill="black" stroke="black" points="149.266,-41.8095 159.716,-40.0663 150.46,-34.912 149.266,-41.8095"/>
<text text-anchor="middle" x="117" y="-42.4" font-family="Times Roman,serif" font-size="14.00">dispatch</text>
</g>
<!-- full -->
<g id="node4" class="node"><title>full</title>
<ellipse fill="none" stroke="black" cx="483" cy="-45" rx="27" ry="19.0919"/>
<text text-anchor="middle" x="483" y="-41.9" font-family="Times Roman,serif" font-size="14.00">Full</text>
</g>
<!-- empty&#45;&gt;full -->
<g id="edge2" class="edge"><title>empty&#45;&gt;full</title>
<path fill="none" stroke="black" d="M75.5637,-18.6067C99.2191,-18.3789 130.395,-18.115 158,-18 190,-17.8667 198.024,-16.772 230,-18 307.311,-20.9691 397.262,-32.514 446.367,-39.5102"/>
<polygon fill="black" stroke="black" points="446.099,-43.0076 456.496,-40.9715 447.098,-36.0793 446.099,-43.0076"/>
<text text-anchor="middle" x="265" y="-26.4" font-family="Times Roman,serif" font-size="14.00">return</text>
</g>
<!-- waiting -->
<g id="node3" class="node"><title>waiting</title>
<ellipse fill="none" stroke="black" cx="343" cy="-101" rx="43.1335" ry="19.0919"/>
<text text-anchor="middle" x="343" y="-97.9" font-family="Times Roman,serif" font-size="14.00">Waiting</text>
</g>
<!-- stolen&#45;&gt;waiting -->
<g id="edge8" class="edge"><title>stolen&#45;&gt;waiting</title>
<path fill="none" stroke="black" d="M223.794,-56.9979C245.762,-65.1066 275.958,-76.2529 300.462,-85.298"/>
<polygon fill="black" stroke="black" points="299.293,-88.5974 309.887,-88.7769 301.717,-82.0305 299.293,-88.5974"/>
<text text-anchor="middle" x="265" y="-84.4" font-family="Times Roman,serif" font-size="14.00">touch</text>
</g>
<!-- stolen&#45;&gt;full -->
<g id="edge6" class="edge"><title>stolen&#45;&gt;full</title>
<path fill="none" stroke="black" d="M230.018,-45.8754C285.03,-45.685 389.477,-45.3236 445.413,-45.1301"/>
<polygon fill="black" stroke="black" points="445.609,-48.6295 455.597,-45.0948 445.585,-41.6295 445.609,-48.6295"/>
<text text-anchor="middle" x="343" y="-51.4" font-family="Times Roman,serif" font-size="14.00">return</text>
</g>
<!-- waiting&#45;&gt;full -->
<g id="edge10" class="edge"><title>waiting&#45;&gt;full</title>
<path fill="none" stroke="black" d="M375.119,-88.1525C397.481,-79.2075 427.224,-67.3102 449.816,-58.2735"/>
<polygon fill="black" stroke="black" points="451.344,-61.4321 459.329,-54.4684 448.744,-54.9327 451.344,-61.4321"/>
<text text-anchor="middle" x="421" y="-82.4" font-family="Times Roman,serif" font-size="14.00">return</text>
</g>
</g>
</svg>
