<?xml version="1.0" encoding="UTF-8" standalone="no"?>
<!DOCTYPE svg PUBLIC "-//W3C//DTD SVG 1.1//EN"
 "http://www.w3.org/Graphics/SVG/1.1/DTD/svg11.dtd">
<!-- Generated by graphviz version 2.26.3 (20100126.1600)
 -->
<!-- Title: structs Pages: 1 -->
<svg width="410pt" height="90pt"
 viewBox="0.00 0.00 410.00 90.00" xmlns="http://www.w3.org/2000/svg" xmlns:xlink="http://www.w3.org/1999/xlink">
<g id="graph1" class="graph" transform="scale(1 1) rotate(0) translate(4 86)">
<title>structs</title>
<polygon fill="white" stroke="white" points="-4,5 -4,-86 407,-86 407,5 -4,5"/>
<!-- struct1 -->
<g id="node1" class="node"><title>struct1</title>
<polygon fill="none" stroke="black" points="0,-23 0,-59 132,-59 132,-23 0,-23"/>
<text text-anchor="middle" x="17.5" y="-37.9" font-family="Times Roman,serif" font-size="14.00">left</text>
<polyline fill="none" stroke="black" points="35,-23 35,-59 "/>
<text text-anchor="middle" x="62.5" y="-37.9" font-family="Times Roman,serif" font-size="14.00">middle</text>
<polyline fill="none" stroke="black" points="90,-23 90,-59 "/>
<text text-anchor="middle" x="111" y="-37.9" font-family="Times Roman,serif" font-size="14.00">right</text>
</g>
<!-- struct2 -->
<g id="node2" class="node"><title>struct2</title>
<polygon fill="none" stroke="black" points="149.5,-23 149.5,-59 222.5,-59 222.5,-23 149.5,-23"/>
<text text-anchor="middle" x="167.5" y="-37.9" font-family="Times Roman,serif" font-size="14.00">one</text>
<polyline fill="none" stroke="black" points="185.5,-23 185.5,-59 "/>
<text text-anchor="middle" x="204" y="-37.9" font-family="Times Roman,serif" font-size="14.00">two</text>
</g>
<!-- struct3 -->
<g id="node3" class="node"><title>struct3</title>
<polygon fill="none" stroke="black" points="239.5,-0.5 239.5,-81.5 402.5,-81.5 402.5,-0.5 239.5,-0.5"/>
<text text-anchor="middle" x="263.5" y="-47.4" font-family="Times Roman,serif" font-size="14.00">hello</text>
<text text-anchor="middle" x="263.5" y="-28.4" font-family="Times Roman,serif" font-size="14.00">world</text>
<polyline fill="none" stroke="black" points="287.5,-0.5 287.5,-81.5 "/>
<text text-anchor="middle" x="322" y="-64.9" font-family="Times Roman,serif" font-size="14.00">b</text>
<polyline fill="none" stroke="black" points="287.5,-54.5 356.5,-54.5 "/>
<text text-anchor="middle" x="299" y="-37.9" font-family="Times Roman,serif" font-size="14.00">c</text>
<polyline fill="none" stroke="black" points="310.5,-27.5 310.5,-54.5 "/>
<text text-anchor="middle" x="322" y="-37.9" font-family="Times Roman,serif" font-size="14.00">d</text>
<polyline fill="none" stroke="black" points="333.5,-27.5 333.5,-54.5 "/>
<text text-anchor="middle" x="345" y="-37.9" font-family="Times Roman,serif" font-size="14.00">e</text>
<polyline fill="none" stroke="black" points="287.5,-27.5 356.5,-27.5 "/>
<text text-anchor="middle" x="322" y="-10.9" font-family="Times Roman,serif" font-size="14.00">f</text>
<polyline fill="none" stroke="black" points="356.5,-0.5 356.5,-81.5 "/>
<text text-anchor="middle" x="368" y="-37.9" font-family="Times Roman,serif" font-size="14.00">g</text>
<polyline fill="none" stroke="black" points="379.5,-0.5 379.5,-81.5 "/>
<text text-anchor="middle" x="391" y="-37.9" font-family="Times Roman,serif" font-size="14.00">h</text>
</g>
</g>
</svg>
