<?xml version="1.0" encoding="UTF-8" standalone="no"?>
<!DOCTYPE svg PUBLIC "-//W3C//DTD SVG 1.1//EN"
 "http://www.w3.org/Graphics/SVG/1.1/DTD/svg11.dtd">
<!-- Generated by graphviz version 2.29.20121107.0545 (20121107.0545)
 -->
<!-- Title: states Pages: 1 -->
<svg width="216pt" height="53pt"
 viewBox="0.00 0.00 216.00 52.70" xmlns="http://www.w3.org/2000/svg" xmlns:xlink="http://www.w3.org/1999/xlink">
<g id="graph0" class="graph" transform="scale(0.432 0.432) rotate(0) translate(4 118)">
<title>states</title>
<polygon fill="white" stroke="white" points="-4,5 -4,-118 497,-118 497,5 -4,5"/>
<!-- empty -->
<g id="node1" class="node"><title>empty</title>
<ellipse fill="none" stroke="black" cx="35" cy="-96" rx="34.394" ry="18"/>
<text text-anchor="middle" x="35" y="-92.3" font-family="Times,serif" font-size="14.00">Empty</text>
</g>
<!-- full -->
<g id="node4" class="node"><title>full</title>
<ellipse fill="none" stroke="black" cx="465" cy="-72" rx="27" ry="18"/>
<text text-anchor="middle" x="465" y="-68.3" font-family="Times,serif" font-size="14.00">Full</text>
</g>
<!-- empty&#45;&gt;full -->
<g id="edge1" class="edge"><title>empty&#45;&gt;full</title>
<path fill="none" stroke="black" d="M68.9757,-99.651C75.2834,-100.213 81.8399,-100.705 88,-101 108.421,-101.98 113.562,-101.524 134,-101 238.102,-98.3325 264.077,-95.6607 368,-89 391.132,-87.5174 397.204,-89.196 420,-85 423.474,-84.3606 427.064,-83.5527 430.627,-82.6537"/>
<polygon fill="black" stroke="black" points="431.76,-85.972 440.473,-79.9439 429.903,-79.2229 431.76,-85.972"/>
<text text-anchor="middle" x="253" y="-100.8" font-family="Times,serif" font-size="14.00">return</text>
</g>
<!-- stolen -->
<g id="node2" class="node"><title>stolen</title>
<ellipse fill="none" stroke="black" cx="185" cy="-69" rx="33.2948" ry="18"/>
<text text-anchor="middle" x="185" y="-65.3" font-family="Times,serif" font-size="14.00">Stolen</text>
</g>
<!-- empty&#45;&gt;stolen -->
<g id="edge2" class="edge"><title>empty&#45;&gt;stolen</title>
<path fill="none" stroke="black" d="M67.6095,-89.8441C74.3365,-88.5557 81.4006,-87.2188 88,-86 106.057,-82.6652 126.049,-79.1039 143.094,-76.107"/>
<polygon fill="black" stroke="black" points="144.037,-79.4951 153.283,-74.3209 142.829,-72.6003 144.037,-79.4951"/>
<text text-anchor="middle" x="111" y="-89.8" font-family="Times,serif" font-size="14.00">dispatch</text>
</g>
<!-- stolen&#45;&gt;full -->
<g id="edge3" class="edge"><title>stolen&#45;&gt;full</title>
<path fill="none" stroke="black" d="M218.162,-69.3471C270.285,-69.9096 372.88,-71.0167 427.602,-71.6072"/>
<polygon fill="black" stroke="black" points="427.842,-75.1099 437.879,-71.7181 427.918,-68.1103 427.842,-75.1099"/>
<text text-anchor="middle" x="328" y="-73.8" font-family="Times,serif" font-size="14.00">return</text>
</g>
<!-- waiting -->
<g id="node3" class="node"><title>waiting</title>
<ellipse fill="none" stroke="black" cx="328" cy="-18" rx="39.7935" ry="18"/>
<text text-anchor="middle" x="328" y="-14.3" font-family="Times,serif" font-size="14.00">Waiting</text>
</g>
<!-- stolen&#45;&gt;waiting -->
<g id="edge4" class="edge"><title>stolen&#45;&gt;waiting</title>
<path fill="none" stroke="black" d="M208.426,-56.0499C216.885,-51.5121 226.709,-46.6443 236,-43 250.623,-37.2639 267.057,-32.3178 281.894,-28.3745"/>
<polygon fill="black" stroke="black" points="283.057,-31.6894 291.869,-25.8073 281.312,-24.9103 283.057,-31.6894"/>
<text text-anchor="middle" x="253" y="-46.8" font-family="Times,serif" font-size="14.00">touch</text>
</g>
<!-- waiting&#45;&gt;full -->
<g id="edge5" class="edge"><title>waiting&#45;&gt;full</title>
<path fill="none" stroke="black" d="M364.908,-25.1103C382.031,-29.1869 402.539,-35.0887 420,-43 426.016,-45.7257 432.137,-49.22 437.827,-52.8329"/>
<polygon fill="black" stroke="black" points="436.075,-55.8714 446.335,-58.5143 439.962,-50.0501 436.075,-55.8714"/>
<text text-anchor="middle" x="403" y="-46.8" font-family="Times,serif" font-size="14.00">return</text>
</g>
</g>
</svg>
