<?xml version="1.0" encoding="UTF-8" standalone="no"?>
<!DOCTYPE svg PUBLIC "-//W3C//DTD SVG 1.1//EN"
 "http://www.w3.org/Graphics/SVG/1.1/DTD/svg11.dtd">
<!-- Generated by graphviz version 2.34.0 (20131125.0033)
 -->
<!-- Title: structs Pages: 1 -->
<svg width="261pt" height="152pt"
 viewBox="0.00 0.00 261.00 152.00" xmlns="http://www.w3.org/2000/svg" xmlns:xlink="http://www.w3.org/1999/xlink">
<g id="graph0" class="graph" transform="scale(1 1) rotate(0) translate(4 148)">
<title>structs</title>
<polygon fill="white" stroke="white" points="-4,4 -4,-148 257,-148 257,4 -4,4"/>
<!-- struct1 -->
<g id="node1" class="node"><title>struct1</title>
<polygon fill="none" stroke="black" points="8,-107 8,-143 140,-143 140,-107 8,-107"/>
<text text-anchor="middle" x="25.5" y="-121.3" font-family="Times,serif" font-size="14.00">left</text>
<polyline fill="none" stroke="black" points="43,-107 43,-143 "/>
<text text-anchor="middle" x="70.5" y="-121.3" font-family="Times,serif" font-size="14.00">middle</text>
<polyline fill="none" stroke="black" points="98,-107 98,-143 "/>
<text text-anchor="middle" x="119" y="-121.3" font-family="Times,serif" font-size="14.00">right</text>
</g>
<!-- struct2 -->
<g id="node2" class="node"><title>struct2</title>
<polygon fill="none" stroke="black" points="-0.5,-17 -0.5,-53 72.5,-53 72.5,-17 -0.5,-17"/>
<text text-anchor="middle" x="17.5" y="-31.3" font-family="Times,serif" font-size="14.00">one</text>
<polyline fill="none" stroke="black" points="35.5,-17 35.5,-53 "/>
<text text-anchor="middle" x="54" y="-31.3" font-family="Times,serif" font-size="14.00">two</text>
</g>
<!-- struct1&#45;&gt;struct2 -->
<g id="edge1" class="edge"><title>struct1:f1&#45;&gt;struct2:f0</title>
<path fill="none" stroke="black" d="M70,-106C70,-76.8674 28.694,-84.3641 19.0129,-63.8165"/>
<polygon fill="black" stroke="black" points="22.4375,-63.0931 17,-54 15.5802,-64.4993 22.4375,-63.0931"/>
</g>
<!-- struct3 -->
<g id="node3" class="node"><title>struct3</title>
<polygon fill="none" stroke="black" points="90.5,-0.5 90.5,-69.5 253.5,-69.5 253.5,-0.5 90.5,-0.5"/>
<text text-anchor="middle" x="114.5" y="-38.8" font-family="Times,serif" font-size="14.00">hello</text>
<text text-anchor="middle" x="114.5" y="-23.8" font-family="Times,serif" font-size="14.00">world</text>
<polyline fill="none" stroke="black" points="138.5,-0.5 138.5,-69.5 "/>
<text text-anchor="middle" x="173" y="-54.3" font-family="Times,serif" font-size="14.00">b</text>
<polyline fill="none" stroke="black" points="138.5,-46.5 207.5,-46.5 "/>
<text text-anchor="middle" x="150" y="-31.3" font-family="Times,serif" font-size="14.00">c</text>
<polyline fill="none" stroke="black" points="161.5,-23.5 161.5,-46.5 "/>
<text text-anchor="middle" x="173" y="-31.3" font-family="Times,serif" font-size="14.00">d</text>
<polyline fill="none" stroke="black" points="184.5,-23.5 184.5,-46.5 "/>
<text text-anchor="middle" x="196" y="-31.3" font-family="Times,serif" font-size="14.00">e</text>
<polyline fill="none" stroke="black" points="138.5,-23.5 207.5,-23.5 "/>
<text text-anchor="middle" x="173" y="-8.3" font-family="Times,serif" font-size="14.00">f</text>
<polyline fill="none" stroke="black" points="207.5,-0.5 207.5,-69.5 "/>
<text text-anchor="middle" x="219" y="-31.3" font-family="Times,serif" font-size="14.00">g</text>
<polyline fill="none" stroke="black" points="230.5,-0.5 230.5,-69.5 "/>
<text text-anchor="middle" x="242" y="-31.3" font-family="Times,serif" font-size="14.00">h</text>
</g>
<!-- struct1&#45;&gt;struct3 -->
<g id="edge2" class="edge"><title>struct1:f2&#45;&gt;struct3:here</title>
<path fill="none" stroke="black" d="M119,-106C119,-94.0887 138.498,-70.8562 154.061,-54.209"/>
<polygon fill="black" stroke="black" points="156.909,-56.2942 161.283,-46.6441 151.846,-51.4607 156.909,-56.2942"/>
</g>
</g>
</svg>
