<?xml version="1.0" encoding="UTF-8" standalone="no"?>
<!DOCTYPE svg PUBLIC "-//W3C//DTD SVG 1.1//EN"
 "http://www.w3.org/Graphics/SVG/1.1/DTD/svg11.dtd">
<!-- Generated by graphviz version 2.26.3 (20100126.1600)
 -->
<!-- Title: structs Pages: 1 -->
<svg width="260pt" height="164pt"
 viewBox="0.00 0.00 260.00 164.00" xmlns="http://www.w3.org/2000/svg" xmlns:xlink="http://www.w3.org/1999/xlink">
<g id="graph1" class="graph" transform="scale(1 1) rotate(0) translate(4 160)">
<title>structs</title>
<polygon fill="white" stroke="white" points="-4,5 -4,-160 257,-160 257,5 -4,5"/>
<!-- struct1 -->
<g id="node1" class="node"><title>struct1</title>
<polygon fill="none" stroke="black" points="8,-119 8,-155 140,-155 140,-119 8,-119"/>
<text text-anchor="middle" x="25.5" y="-133.9" font-family="Times Roman,serif" font-size="14.00">left</text>
<polyline fill="none" stroke="black" points="43,-119 43,-155 "/>
<text text-anchor="middle" x="70.5" y="-133.9" font-family="Times Roman,serif" font-size="14.00">middle</text>
<polyline fill="none" stroke="black" points="98,-119 98,-155 "/>
<text text-anchor="middle" x="119" y="-133.9" font-family="Times Roman,serif" font-size="14.00">right</text>
</g>
<!-- struct2 -->
<g id="node2" class="node"><title>struct2</title>
<polygon fill="none" stroke="black" points="-0.5,-23 -0.5,-59 72.5,-59 72.5,-23 -0.5,-23"/>
<text text-anchor="middle" x="17.5" y="-37.9" font-family="Times Roman,serif" font-size="14.00">one</text>
<polyline fill="none" stroke="black" points="35.5,-23 35.5,-59 "/>
<text text-anchor="middle" x="54" y="-37.9" font-family="Times Roman,serif" font-size="14.00">two</text>
</g>
<!-- struct1&#45;&gt;struct2 -->
<g id="edge2" class="edge"><title>struct1:f1&#45;&gt;struct2:f0</title>
<path fill="none" stroke="black" d="M70,-119C70,-87.3111 27.9597,-92.6982 18.7634,-69.1197"/>
<polygon fill="black" stroke="black" points="22.1648,-68.2507 17,-59 15.2687,-69.4524 22.1648,-68.2507"/>
</g>
<!-- struct3 -->
<g id="node3" class="node"><title>struct3</title>
<polygon fill="none" stroke="black" points="89.5,-0.5 89.5,-81.5 252.5,-81.5 252.5,-0.5 89.5,-0.5"/>
<text text-anchor="middle" x="113.5" y="-47.4" font-family="Times Roman,serif" font-size="14.00">hello</text>
<text text-anchor="middle" x="113.5" y="-28.4" font-family="Times Roman,serif" font-size="14.00">world</text>
<polyline fill="none" stroke="black" points="137.5,-0.5 137.5,-81.5 "/>
<text text-anchor="middle" x="172" y="-64.9" font-family="Times Roman,serif" font-size="14.00">b</text>
<polyline fill="none" stroke="black" points="137.5,-54.5 206.5,-54.5 "/>
<text text-anchor="middle" x="149" y="-37.9" font-family="Times Roman,serif" font-size="14.00">c</text>
<polyline fill="none" stroke="black" points="160.5,-27.5 160.5,-54.5 "/>
<text text-anchor="middle" x="172" y="-37.9" font-family="Times Roman,serif" font-size="14.00">d</text>
<polyline fill="none" stroke="black" points="183.5,-27.5 183.5,-54.5 "/>
<text text-anchor="middle" x="195" y="-37.9" font-family="Times Roman,serif" font-size="14.00">e</text>
<polyline fill="none" stroke="black" points="137.5,-27.5 206.5,-27.5 "/>
<text text-anchor="middle" x="172" y="-10.9" font-family="Times Roman,serif" font-size="14.00">f</text>
<polyline fill="none" stroke="black" points="206.5,-0.5 206.5,-81.5 "/>
<text text-anchor="middle" x="218" y="-37.9" font-family="Times Roman,serif" font-size="14.00">g</text>
<polyline fill="none" stroke="black" points="229.5,-0.5 229.5,-81.5 "/>
<text text-anchor="middle" x="241" y="-37.9" font-family="Times Roman,serif" font-size="14.00">h</text>
</g>
<!-- struct1&#45;&gt;struct3 -->
<g id="edge4" class="edge"><title>struct1:f2&#45;&gt;struct3:here</title>
<path fill="none" stroke="black" d="M119,-118C119,-111.539 139.509,-83.3196 155.012,-62.9125"/>
<polygon fill="black" stroke="black" points="157.975,-64.7992 161.275,-54.7311 152.417,-60.5442 157.975,-64.7992"/>
</g>
</g>
</svg>
