<?xml version="1.0" encoding="UTF-8" standalone="no"?>
<!DOCTYPE svg PUBLIC "-//W3C//DTD SVG 1.1//EN"
 "http://www.w3.org/Graphics/SVG/1.1/DTD/svg11.dtd">
<!-- Generated by graphviz version 2.26.3 (20100126.1600)
 -->
<!-- Title: G Pages: 1 -->
<svg width="126pt" height="564pt"
 viewBox="0.00 0.00 126.00 564.00" xmlns="http://www.w3.org/2000/svg" xmlns:xlink="http://www.w3.org/1999/xlink">
<g id="graph1" class="graph" transform="scale(1 1) rotate(0) translate(4 560)">
<title>G</title>
<polygon fill="white" stroke="white" points="-4,5 -4,-560 123,-560 123,5 -4,5"/>
<g id="graph2" class="cluster"><title>cluster_small</title>
<polygon fill="none" stroke="black" points="28,-8 28,-163 98,-163 98,-8 28,-8"/>
<text text-anchor="middle" x="63" y="-146.4" font-family="Times Roman,serif" font-size="14.00">small</text>
</g>
<g id="graph3" class="cluster"><title>cluster_big</title>
<polygon fill="none" stroke="black" points="8,-171 8,-548 98,-548 98,-171 8,-171"/>
<text text-anchor="middle" x="53" y="-531.4" font-family="Times Roman,serif" font-size="14.00">big</text>
</g>
<!-- a -->
<g id="node2" class="node"><title>a</title>
<ellipse fill="none" stroke="black" cx="63" cy="-109" rx="27" ry="19.0919"/>
<text text-anchor="middle" x="63" y="-105.9" font-family="Times Roman,serif" font-size="14.00">a</text>
</g>
<!-- b -->
<g id="node4" class="node"><title>b</title>
<ellipse fill="none" stroke="black" cx="63" cy="-35" rx="27" ry="19.0919"/>
<text text-anchor="middle" x="63" y="-31.9" font-family="Times Roman,serif" font-size="14.00">b</text>
</g>
<!-- a&#45;&gt;b -->
<g id="edge3" class="edge"><title>a&#45;&gt;b</title>
<path fill="none" stroke="black" d="M63,-89.9432C63,-82.1493 63,-72.9538 63,-64.3381"/>
<polygon fill="black" stroke="black" points="66.5001,-64.2494 63,-54.2495 59.5001,-64.2495 66.5001,-64.2494"/>
</g>
<!-- q -->
<g id="node8" class="node"><title>q</title>
<ellipse fill="none" stroke="black" cx="63" cy="-420" rx="27" ry="19.0919"/>
<text text-anchor="middle" x="63" y="-416.9" font-family="Times Roman,serif" font-size="14.00">q</text>
</g>
<!-- b&#45;&gt;q -->
<g id="edge15" class="edge"><title>b&#45;&gt;q</title>
<path fill="none" stroke="black" d="M76.6105,-51.8302C84.3423,-62.2377 93.5404,-76.2052 99,-90 116.935,-135.317 118,-149.263 118,-198 118,-272 118,-272 118,-272 118,-314.187 115.06,-325.99 99,-365 94.7641,-375.289 88.5328,-385.719 82.4405,-394.689"/>
<polygon fill="black" stroke="black" points="79.397,-392.931 76.4736,-403.115 85.1094,-396.977 79.397,-392.931"/>
</g>
<!-- p -->
<g id="node6" class="node"><title>p</title>
<ellipse fill="none" stroke="black" cx="53" cy="-494" rx="27" ry="19.0919"/>
<text text-anchor="middle" x="53" y="-490.9" font-family="Times Roman,serif" font-size="14.00">p</text>
</g>
<!-- p&#45;&gt;q -->
<g id="edge6" class="edge"><title>p&#45;&gt;q</title>
<path fill="none" stroke="black" d="M55.5752,-474.943C56.6367,-467.088 57.8905,-457.81 59.0627,-449.136"/>
<polygon fill="black" stroke="black" points="62.5627,-449.371 60.4335,-438.992 55.6257,-448.433 62.5627,-449.371"/>
</g>
<!-- r -->
<g id="node9" class="node"><title>r</title>
<ellipse fill="none" stroke="black" cx="63" cy="-346" rx="27" ry="19.0919"/>
<text text-anchor="middle" x="63" y="-342.9" font-family="Times Roman,serif" font-size="14.00">r</text>
</g>
<!-- q&#45;&gt;r -->
<g id="edge7" class="edge"><title>q&#45;&gt;r</title>
<path fill="none" stroke="black" d="M63,-400.943C63,-393.149 63,-383.954 63,-375.338"/>
<polygon fill="black" stroke="black" points="66.5001,-375.249 63,-365.249 59.5001,-375.249 66.5001,-375.249"/>
</g>
<!-- s -->
<g id="node10" class="node"><title>s</title>
<ellipse fill="none" stroke="black" cx="63" cy="-272" rx="27" ry="19.0919"/>
<text text-anchor="middle" x="63" y="-268.9" font-family="Times Roman,serif" font-size="14.00">s</text>
</g>
<!-- r&#45;&gt;s -->
<g id="edge8" class="edge"><title>r&#45;&gt;s</title>
<path fill="none" stroke="black" d="M63,-326.943C63,-319.149 63,-309.954 63,-301.338"/>
<polygon fill="black" stroke="black" points="66.5001,-301.249 63,-291.249 59.5001,-301.249 66.5001,-301.249"/>
</g>
<!-- t -->
<g id="node11" class="node"><title>t</title>
<ellipse fill="none" stroke="black" cx="63" cy="-198" rx="27" ry="19.0919"/>
<text text-anchor="middle" x="63" y="-194.9" font-family="Times Roman,serif" font-size="14.00">t</text>
</g>
<!-- s&#45;&gt;t -->
<g id="edge9" class="edge"><title>s&#45;&gt;t</title>
<path fill="none" stroke="black" d="M63,-252.943C63,-245.149 63,-235.954 63,-227.338"/>
<polygon fill="black" stroke="black" points="66.5001,-227.249 63,-217.249 59.5001,-227.249 66.5001,-227.249"/>
</g>
<!-- t&#45;&gt;a -->
<g id="edge13" class="edge"><title>t&#45;&gt;a</title>
<path fill="none" stroke="black" d="M63,-178.688C63,-166.909 63,-151.619 63,-138.363"/>
<polygon fill="black" stroke="black" points="66.5001,-138.274 63,-128.274 59.5001,-138.274 66.5001,-138.274"/>
</g>
<!-- t&#45;&gt;p -->
<g id="edge11" class="edge"><title>t&#45;&gt;p</title>
<path fill="none" stroke="black" d="M48.5027,-214.523C40.4565,-224.822 31.2393,-238.783 27,-253 3.37855,-332.22 8.89546,-358.34 27,-439 29.1743,-448.687 33.2574,-458.676 37.5543,-467.438"/>
<polygon fill="black" stroke="black" points="34.4955,-469.142 42.2206,-476.393 40.7033,-465.908 34.4955,-469.142"/>
</g>
</g>
</svg>
