<?xml version="1.0" encoding="UTF-8" standalone="no"?>
<!DOCTYPE svg PUBLIC "-//W3C//DTD SVG 1.1//EN"
 "http://www.w3.org/Graphics/SVG/1.1/DTD/svg11.dtd">
<!-- Generated by graphviz version 2.30.1 (20130611.0131)
 -->
<!-- Title: G Pages: 1 -->
<svg width="432pt" height="278pt"
 viewBox="0.00 0.00 432.00 277.95" xmlns="http://www.w3.org/2000/svg" xmlns:xlink="http://www.w3.org/1999/xlink">
<g id="graph0" class="graph" transform="scale(0.815094 0.815094) rotate(0) translate(4 337)">
<title>G</title>
<polygon fill="white" stroke="white" points="-4,5 -4,-337 527,-337 527,5 -4,5"/>
<!-- st9 -->
<g id="node1" class="node"><title>st9</title>
<ellipse fill="none" stroke="black" cx="18" cy="-44" rx="18" ry="18"/>
<text text-anchor="middle" x="18" y="-42.1" font-family="Times,serif" font-size="8.00">st9</text>
</g>
<!-- st9&#45;&gt;st9 -->
<g id="edge1" class="edge"><title>st9&#45;&gt;st9</title>
<path fill="none" stroke="black" d="M9.63501,-60.2903C7.61792,-70.3892 10.4062,-80 18,-80 22.8647,-80 25.7573,-76.0557 26.6778,-70.5656"/>
<polygon fill="black" stroke="black" points="30.1677,-70.1791 26.365,-60.2903 23.171,-70.3922 30.1677,-70.1791"/>
<text text-anchor="middle" x="18" y="-83.8" font-family="Times,serif" font-size="14.00">11/1</text>
</g>
<!-- st10 -->
<g id="node2" class="node"><title>st10</title>
<ellipse fill="none" stroke="black" cx="116" cy="-80" rx="18" ry="18"/>
<text text-anchor="middle" x="116" y="-78.1" font-family="Times,serif" font-size="8.00">st10</text>
</g>
<!-- st9&#45;&gt;st10 -->
<g id="edge2" class="edge"><title>st9&#45;&gt;st10</title>
<path fill="none" stroke="black" d="M35.2851,-50.1069C50.1315,-55.6743 72.3048,-63.9893 89.4997,-70.4374"/>
<polygon fill="black" stroke="black" points="88.3632,-73.7491 98.9554,-73.9833 90.8211,-67.1948 88.3632,-73.7491"/>
<text text-anchor="middle" x="67" y="-69.8" font-family="Times,serif" font-size="14.00">10/1</text>
</g>
<!-- st10&#45;&gt;st10 -->
<g id="edge18" class="edge"><title>st10&#45;&gt;st10</title>
<path fill="none" stroke="black" d="M107.635,-96.2903C105.618,-106.389 108.406,-116 116,-116 120.865,-116 123.757,-112.056 124.678,-106.566"/>
<polygon fill="black" stroke="black" points="128.168,-106.179 124.365,-96.2903 121.171,-106.392 128.168,-106.179"/>
<text text-anchor="middle" x="116" y="-119.8" font-family="Times,serif" font-size="14.00">10/1</text>
</g>
<!-- st0 -->
<g id="node4" class="node"><title>st0</title>
<ellipse fill="none" stroke="black" cx="214" cy="-116" rx="18" ry="18"/>
<text text-anchor="middle" x="214" y="-114.1" font-family="Times,serif" font-size="8.00">st0</text>
</g>
<!-- st10&#45;&gt;st0 -->
<g id="edge19" class="edge"><title>st10&#45;&gt;st0</title>
<path fill="none" stroke="black" d="M133.285,-86.1069C148.132,-91.6743 170.305,-99.9893 187.5,-106.437"/>
<polygon fill="black" stroke="black" points="186.363,-109.749 196.955,-109.983 188.821,-103.195 186.363,-109.749"/>
<text text-anchor="middle" x="165" y="-105.8" font-family="Times,serif" font-size="14.00">00/&#45;</text>
</g>
<!-- st8 -->
<g id="node3" class="node"><title>st8</title>
<ellipse fill="none" stroke="black" cx="504" cy="-56" rx="18" ry="18"/>
<text text-anchor="middle" x="504" y="-54.1" font-family="Times,serif" font-size="8.00">st8</text>
</g>
<!-- st8&#45;&gt;st8 -->
<g id="edge3" class="edge"><title>st8&#45;&gt;st8</title>
<path fill="none" stroke="black" d="M495.635,-72.2903C493.618,-82.3892 496.406,-92 504,-92 508.865,-92 511.757,-88.0557 512.678,-82.5656"/>
<polygon fill="black" stroke="black" points="516.168,-82.1791 512.365,-72.2903 509.171,-82.3922 516.168,-82.1791"/>
<text text-anchor="middle" x="504" y="-95.8" font-family="Times,serif" font-size="14.00">10/1</text>
</g>
<!-- st8&#45;&gt;st0 -->
<g id="edge4" class="edge"><title>st8&#45;&gt;st0</title>
<path fill="none" stroke="black" d="M486.468,-61.0812C470.563,-65.8562 445.785,-72.9972 424,-78 359.137,-92.8951 281.869,-105.673 241.914,-111.917"/>
<polygon fill="black" stroke="black" points="241.25,-108.478 231.903,-113.466 242.321,-115.396 241.25,-108.478"/>
<text text-anchor="middle" x="357" y="-97.8" font-family="Times,serif" font-size="14.00">00/&#45;</text>
</g>
<!-- st2 -->
<g id="node10" class="node"><title>st2</title>
<ellipse fill="none" stroke="black" cx="308" cy="-18" rx="18" ry="18"/>
<text text-anchor="middle" x="308" y="-16.1" font-family="Times,serif" font-size="8.00">st2</text>
</g>
<!-- st0&#45;&gt;st2 -->
<g id="edge23" class="edge"><title>st0&#45;&gt;st2</title>
<path fill="none" stroke="black" d="M224.625,-101.072C231.252,-91.2541 240.538,-78.3544 250,-68 260.756,-56.2297 274.094,-44.4042 285.163,-35.2107"/>
<polygon fill="black" stroke="black" points="287.564,-37.7687 293.104,-28.738 283.142,-32.3426 287.564,-37.7687"/>
<text text-anchor="middle" x="261" y="-71.8" font-family="Times,serif" font-size="14.00">01/&#45;</text>
</g>
<!-- st1 -->
<g id="node11" class="node"><title>st1</title>
<ellipse fill="none" stroke="black" cx="308" cy="-181" rx="18" ry="18"/>
<text text-anchor="middle" x="308" y="-179.1" font-family="Times,serif" font-size="8.00">st1</text>
</g>
<!-- st0&#45;&gt;st1 -->
<g id="edge24" class="edge"><title>st0&#45;&gt;st1</title>
<path fill="none" stroke="black" d="M226.981,-128.7C233.456,-135.189 241.79,-142.966 250,-149 260.082,-156.409 272.052,-163.372 282.414,-168.898"/>
<polygon fill="black" stroke="black" points="280.888,-172.05 291.377,-173.541 284.108,-165.834 280.888,-172.05"/>
<text text-anchor="middle" x="261" y="-165.8" font-family="Times,serif" font-size="14.00">10/&#45;</text>
</g>
<!-- st0&#45;&gt;st0 -->
<g id="edge25" class="edge"><title>st0&#45;&gt;st0</title>
<path fill="none" stroke="black" d="M205.984,-132.29C204.051,-142.389 206.723,-152 214,-152 218.662,-152 221.434,-148.056 222.316,-142.566"/>
<polygon fill="black" stroke="black" points="225.807,-142.184 222.016,-132.29 218.81,-142.388 225.807,-142.184"/>
<text text-anchor="middle" x="214" y="-155.8" font-family="Times,serif" font-size="14.00">00/0</text>
</g>
<!-- st7 -->
<g id="node5" class="node"><title>st7</title>
<ellipse fill="none" stroke="black" cx="406" cy="-18" rx="18" ry="18"/>
<text text-anchor="middle" x="406" y="-16.1" font-family="Times,serif" font-size="8.00">st7</text>
</g>
<!-- st7&#45;&gt;st8 -->
<g id="edge5" class="edge"><title>st7&#45;&gt;st8</title>
<path fill="none" stroke="black" d="M423.285,-24.4462C438.132,-30.3229 460.305,-39.0998 477.5,-45.9061"/>
<polygon fill="black" stroke="black" points="476.369,-49.2228 486.955,-49.649 478.946,-42.7141 476.369,-49.2228"/>
<text text-anchor="middle" x="455" y="-45.8" font-family="Times,serif" font-size="14.00">10/1</text>
</g>
<!-- st7&#45;&gt;st7 -->
<g id="edge6" class="edge"><title>st7&#45;&gt;st7</title>
<path fill="none" stroke="black" d="M397.635,-34.2903C395.618,-44.3892 398.406,-54 406,-54 410.865,-54 413.757,-50.0557 414.678,-44.5656"/>
<polygon fill="black" stroke="black" points="418.168,-44.1791 414.365,-34.2903 411.171,-44.3922 418.168,-44.1791"/>
<text text-anchor="middle" x="406" y="-57.8" font-family="Times,serif" font-size="14.00">00/1</text>
</g>
<!-- st6 -->
<g id="node6" class="node"><title>st6</title>
<ellipse fill="none" stroke="black" cx="504" cy="-268" rx="18" ry="18"/>
<text text-anchor="middle" x="504" y="-266.1" font-family="Times,serif" font-size="8.00">st6</text>
</g>
<!-- st6&#45;&gt;st6 -->
<g id="edge7" class="edge"><title>st6&#45;&gt;st6</title>
<path fill="none" stroke="black" d="M495.635,-284.29C493.618,-294.389 496.406,-304 504,-304 508.865,-304 511.757,-300.056 512.678,-294.566"/>
<polygon fill="black" stroke="black" points="516.168,-294.179 512.365,-284.29 509.171,-294.392 516.168,-294.179"/>
<text text-anchor="middle" x="504" y="-307.8" font-family="Times,serif" font-size="14.00">01/1</text>
</g>
<!-- st6&#45;&gt;st0 -->
<g id="edge8" class="edge"><title>st6&#45;&gt;st0</title>
<path fill="none" stroke="black" d="M491.668,-281.284C471.508,-303.207 427.788,-343.113 388,-328 301.998,-295.333 247.112,-190.771 225.481,-141.782"/>
<polygon fill="black" stroke="black" points="228.651,-140.293 221.484,-132.49 222.22,-143.059 228.651,-140.293"/>
<text text-anchor="middle" x="357" y="-321.8" font-family="Times,serif" font-size="14.00">00/&#45;</text>
</g>
<!-- st5 -->
<g id="node7" class="node"><title>st5</title>
<ellipse fill="none" stroke="black" cx="406" cy="-268" rx="18" ry="18"/>
<text text-anchor="middle" x="406" y="-266.1" font-family="Times,serif" font-size="8.00">st5</text>
</g>
<!-- st5&#45;&gt;st6 -->
<g id="edge9" class="edge"><title>st5&#45;&gt;st6</title>
<path fill="none" stroke="black" d="M424.163,-268C438.497,-268 459.193,-268 475.784,-268"/>
<polygon fill="black" stroke="black" points="475.986,-271.5 485.986,-268 475.986,-264.5 475.986,-271.5"/>
<text text-anchor="middle" x="455" y="-271.8" font-family="Times,serif" font-size="14.00">01/1</text>
</g>
<!-- st5&#45;&gt;st5 -->
<g id="edge10" class="edge"><title>st5&#45;&gt;st5</title>
<path fill="none" stroke="black" d="M397.635,-284.29C395.618,-294.389 398.406,-304 406,-304 410.865,-304 413.757,-300.056 414.678,-294.566"/>
<polygon fill="black" stroke="black" points="418.168,-294.179 414.365,-284.29 411.171,-294.392 418.168,-294.179"/>
<text text-anchor="middle" x="406" y="-307.8" font-family="Times,serif" font-size="14.00">11/1</text>
</g>
<!-- st4 -->
<g id="node8" class="node"><title>st4</title>
<ellipse fill="none" stroke="black" cx="504" cy="-168" rx="18" ry="18"/>
<text text-anchor="middle" x="504" y="-166.1" font-family="Times,serif" font-size="8.00">st4</text>
</g>
<!-- st4&#45;&gt;st4 -->
<g id="edge11" class="edge"><title>st4&#45;&gt;st4</title>
<path fill="none" stroke="black" d="M495.635,-184.29C493.618,-194.389 496.406,-204 504,-204 508.865,-204 511.757,-200.056 512.678,-194.566"/>
<polygon fill="black" stroke="black" points="516.168,-194.179 512.365,-184.29 509.171,-194.392 516.168,-194.179"/>
<text text-anchor="middle" x="504" y="-207.8" font-family="Times,serif" font-size="14.00">01/1</text>
</g>
<!-- st4&#45;&gt;st0 -->
<g id="edge12" class="edge"><title>st4&#45;&gt;st0</title>
<path fill="none" stroke="black" d="M485.937,-164.919C437.825,-156.232 300.781,-131.488 242.149,-120.902"/>
<polygon fill="black" stroke="black" points="242.616,-117.43 232.153,-119.097 241.372,-124.318 242.616,-117.43"/>
<text text-anchor="middle" x="357" y="-146.8" font-family="Times,serif" font-size="14.00">00/&#45;</text>
</g>
<!-- st3 -->
<g id="node9" class="node"><title>st3</title>
<ellipse fill="none" stroke="black" cx="406" cy="-181" rx="18" ry="18"/>
<text text-anchor="middle" x="406" y="-179.1" font-family="Times,serif" font-size="8.00">st3</text>
</g>
<!-- st3&#45;&gt;st4 -->
<g id="edge13" class="edge"><title>st3&#45;&gt;st4</title>
<path fill="none" stroke="black" d="M424.163,-178.676C438.497,-176.735 459.193,-173.932 475.784,-171.685"/>
<polygon fill="black" stroke="black" points="476.546,-175.114 485.986,-170.304 475.606,-168.178 476.546,-175.114"/>
<text text-anchor="middle" x="455" y="-179.8" font-family="Times,serif" font-size="14.00">01/1</text>
</g>
<!-- st3&#45;&gt;st3 -->
<g id="edge14" class="edge"><title>st3&#45;&gt;st3</title>
<path fill="none" stroke="black" d="M397.635,-197.29C395.618,-207.389 398.406,-217 406,-217 410.865,-217 413.757,-213.056 414.678,-207.566"/>
<polygon fill="black" stroke="black" points="418.168,-207.179 414.365,-197.29 411.171,-207.392 418.168,-207.179"/>
<text text-anchor="middle" x="406" y="-220.8" font-family="Times,serif" font-size="14.00">00/1</text>
</g>
<!-- st2&#45;&gt;st9 -->
<g id="edge15" class="edge"><title>st2&#45;&gt;st9</title>
<path fill="none" stroke="black" d="M289.937,-19.5404C241.825,-23.8838 104.781,-36.2559 46.1494,-41.549"/>
<polygon fill="black" stroke="black" points="45.798,-38.0664 36.1532,-42.4514 46.4275,-45.0381 45.798,-38.0664"/>
<text text-anchor="middle" x="165" y="-35.8" font-family="Times,serif" font-size="14.00">11/1</text>
</g>
<!-- st2&#45;&gt;st7 -->
<g id="edge16" class="edge"><title>st2&#45;&gt;st7</title>
<path fill="none" stroke="black" d="M326.163,-18C340.497,-18 361.193,-18 377.784,-18"/>
<polygon fill="black" stroke="black" points="377.986,-21.5001 387.986,-18 377.986,-14.5001 377.986,-21.5001"/>
<text text-anchor="middle" x="357" y="-21.8" font-family="Times,serif" font-size="14.00">00/1</text>
</g>
<!-- st2&#45;&gt;st2 -->
<g id="edge17" class="edge"><title>st2&#45;&gt;st2</title>
<path fill="none" stroke="black" d="M299.984,-34.2903C298.051,-44.3892 300.723,-54 308,-54 312.662,-54 315.434,-50.0557 316.316,-44.5656"/>
<polygon fill="black" stroke="black" points="319.807,-44.1839 316.016,-34.2903 312.81,-44.3881 319.807,-44.1839"/>
<text text-anchor="middle" x="308" y="-57.8" font-family="Times,serif" font-size="14.00">01/1</text>
</g>
<!-- st1&#45;&gt;st5 -->
<g id="edge20" class="edge"><title>st1&#45;&gt;st5</title>
<path fill="none" stroke="black" d="M321.947,-192.733C337.979,-207.262 365.482,-232.187 384.419,-249.348"/>
<polygon fill="black" stroke="black" points="382.191,-252.053 391.952,-256.175 386.892,-246.866 382.191,-252.053"/>
<text text-anchor="middle" x="357" y="-237.8" font-family="Times,serif" font-size="14.00">11/1</text>
</g>
<!-- st1&#45;&gt;st3 -->
<g id="edge21" class="edge"><title>st1&#45;&gt;st3</title>
<path fill="none" stroke="black" d="M326.163,-181C340.497,-181 361.193,-181 377.784,-181"/>
<polygon fill="black" stroke="black" points="377.986,-184.5 387.986,-181 377.986,-177.5 377.986,-184.5"/>
<text text-anchor="middle" x="357" y="-184.8" font-family="Times,serif" font-size="14.00">00/1</text>
</g>
<!-- st1&#45;&gt;st1 -->
<g id="edge22" class="edge"><title>st1&#45;&gt;st1</title>
<path fill="none" stroke="black" d="M299.984,-197.29C298.051,-207.389 300.723,-217 308,-217 312.662,-217 315.434,-213.056 316.316,-207.566"/>
<polygon fill="black" stroke="black" points="319.807,-207.184 316.016,-197.29 312.81,-207.388 319.807,-207.184"/>
<text text-anchor="middle" x="308" y="-220.8" font-family="Times,serif" font-size="14.00">10/1</text>
</g>
</g>
</svg>
