<?xml version="1.0" encoding="UTF-8" standalone="no"?>
<!DOCTYPE svg PUBLIC "-//W3C//DTD SVG 1.1//EN"
 "http://www.w3.org/Graphics/SVG/1.1/DTD/svg11.dtd">
<!-- Generated by graphviz version 2.26.3 (20100126.1600)
 -->
<!-- Title: G Pages: 1 -->
<svg width="432pt" height="295pt"
 viewBox="0.00 0.00 432.00 295.06" xmlns="http://www.w3.org/2000/svg" xmlns:xlink="http://www.w3.org/1999/xlink">
<g id="graph1" class="graph" transform="scale(0.815094 0.815094) rotate(0) translate(4 358)">
<title>G</title>
<polygon fill="white" stroke="white" points="-4,5 -4,-358 527,-358 527,5 -4,5"/>
<!-- st9 -->
<g id="node1" class="node"><title>st9</title>
<ellipse fill="none" stroke="black" cx="18" cy="-45" rx="18" ry="18"/>
<text text-anchor="middle" x="18" y="-42.8" font-family="Times Roman,serif" font-size="8.00">st9</text>
</g>
<!-- st9&#45;&gt;st9 -->
<g id="edge2" class="edge"><title>st9&#45;&gt;st9</title>
<path fill="none" stroke="black" d="M9.63501,-61.2903C7.61792,-71.3892 10.4062,-81 18,-81 22.8647,-81 25.7573,-77.0557 26.6778,-71.5656"/>
<polygon fill="black" stroke="black" points="30.1677,-71.1791 26.365,-61.2903 23.171,-71.3922 30.1677,-71.1791"/>
<text text-anchor="middle" x="18" y="-87.4" font-family="Times Roman,serif" font-size="14.00">11/1</text>
</g>
<!-- st10 -->
<g id="node4" class="node"><title>st10</title>
<ellipse fill="none" stroke="black" cx="116" cy="-81" rx="18" ry="18"/>
<text text-anchor="middle" x="116" y="-78.8" font-family="Times Roman,serif" font-size="8.00">st10</text>
</g>
<!-- st9&#45;&gt;st10 -->
<g id="edge4" class="edge"><title>st9&#45;&gt;st10</title>
<path fill="none" stroke="black" d="M35.0703,-51.2707C50.0148,-56.7605 71.9779,-64.8286 89.2544,-71.1751"/>
<polygon fill="black" stroke="black" points="88.2029,-74.5175 98.7965,-74.6803 90.6167,-67.9468 88.2029,-74.5175"/>
<text text-anchor="middle" x="67" y="-73.4" font-family="Times Roman,serif" font-size="14.00">10/1</text>
</g>
<!-- st10&#45;&gt;st10 -->
<g id="edge36" class="edge"><title>st10&#45;&gt;st10</title>
<path fill="none" stroke="black" d="M107.635,-97.2903C105.618,-107.389 108.406,-117 116,-117 120.865,-117 123.757,-113.056 124.678,-107.566"/>
<polygon fill="black" stroke="black" points="128.168,-107.179 124.365,-97.2903 121.171,-107.392 128.168,-107.179"/>
<text text-anchor="middle" x="116" y="-123.4" font-family="Times Roman,serif" font-size="14.00">10/1</text>
</g>
<!-- st0 -->
<g id="node8" class="node"><title>st0</title>
<ellipse fill="none" stroke="black" cx="214" cy="-122" rx="18" ry="18"/>
<text text-anchor="middle" x="214" y="-119.8" font-family="Times Roman,serif" font-size="8.00">st0</text>
</g>
<!-- st10&#45;&gt;st0 -->
<g id="edge38" class="edge"><title>st10&#45;&gt;st0</title>
<path fill="none" stroke="black" d="M132.624,-87.9551C147.689,-94.2576 170.143,-103.652 187.651,-110.976"/>
<polygon fill="black" stroke="black" points="186.718,-114.38 197.294,-115.011 189.42,-107.922 186.718,-114.38"/>
<text text-anchor="middle" x="165" y="-112.4" font-family="Times Roman,serif" font-size="14.00">00/&#45;</text>
</g>
<!-- st8 -->
<g id="node5" class="node"><title>st8</title>
<ellipse fill="none" stroke="black" cx="504" cy="-57" rx="18" ry="18"/>
<text text-anchor="middle" x="504" y="-54.8" font-family="Times Roman,serif" font-size="8.00">st8</text>
</g>
<!-- st8&#45;&gt;st8 -->
<g id="edge6" class="edge"><title>st8&#45;&gt;st8</title>
<path fill="none" stroke="black" d="M495.635,-73.2903C493.618,-83.3892 496.406,-93 504,-93 508.865,-93 511.757,-89.0557 512.678,-83.5656"/>
<polygon fill="black" stroke="black" points="516.168,-83.1791 512.365,-73.2903 509.171,-83.3922 516.168,-83.1791"/>
<text text-anchor="middle" x="504" y="-99.4" font-family="Times Roman,serif" font-size="14.00">10/1</text>
</g>
<!-- st8&#45;&gt;st0 -->
<g id="edge8" class="edge"><title>st8&#45;&gt;st0</title>
<path fill="none" stroke="black" d="M486.995,-62.9378C470.909,-68.4055 446.019,-76.4818 424,-82 359.392,-98.1913 282.166,-111.339 241.764,-117.753"/>
<polygon fill="black" stroke="black" points="241.186,-114.301 231.85,-119.309 242.272,-121.217 241.186,-114.301"/>
<text text-anchor="middle" x="357" y="-105.4" font-family="Times Roman,serif" font-size="14.00">00/&#45;</text>
</g>
<!-- st0&#45;&gt;st0 -->
<g id="edge50" class="edge"><title>st0&#45;&gt;st0</title>
<path fill="none" stroke="black" d="M205.984,-138.29C204.051,-148.389 206.723,-158 214,-158 218.662,-158 221.434,-154.056 222.316,-148.566"/>
<polygon fill="black" stroke="black" points="225.807,-148.184 222.016,-138.29 218.81,-148.388 225.807,-148.184"/>
<text text-anchor="middle" x="214" y="-164.4" font-family="Times Roman,serif" font-size="14.00">00/0</text>
</g>
<!-- st2 -->
<g id="node24" class="node"><title>st2</title>
<ellipse fill="none" stroke="black" cx="308" cy="-18" rx="18" ry="18"/>
<text text-anchor="middle" x="308" y="-15.8" font-family="Times Roman,serif" font-size="8.00">st2</text>
</g>
<!-- st0&#45;&gt;st2 -->
<g id="edge46" class="edge"><title>st0&#45;&gt;st2</title>
<path fill="none" stroke="black" d="M223.043,-106.067C229.768,-94.8626 239.555,-79.8209 250,-68 260.522,-56.0915 273.863,-44.4029 285.097,-35.3251"/>
<polygon fill="black" stroke="black" points="287.515,-37.8755 293.194,-28.9318 283.177,-32.3814 287.515,-37.8755"/>
<text text-anchor="middle" x="261" y="-74.4" font-family="Times Roman,serif" font-size="14.00">01/&#45;</text>
</g>
<!-- st1 -->
<g id="node30" class="node"><title>st1</title>
<ellipse fill="none" stroke="black" cx="308" cy="-189" rx="18" ry="18"/>
<text text-anchor="middle" x="308" y="-186.8" font-family="Times Roman,serif" font-size="8.00">st1</text>
</g>
<!-- st0&#45;&gt;st1 -->
<g id="edge48" class="edge"><title>st0&#45;&gt;st1</title>
<path fill="none" stroke="black" d="M226.242,-135.525C232.879,-142.423 241.456,-150.668 250,-157 260.045,-164.444 272.019,-171.337 282.472,-176.804"/>
<polygon fill="black" stroke="black" points="281.042,-180.003 291.544,-181.399 284.205,-173.758 281.042,-180.003"/>
<text text-anchor="middle" x="261" y="-176.4" font-family="Times Roman,serif" font-size="14.00">10/&#45;</text>
</g>
<!-- st7 -->
<g id="node9" class="node"><title>st7</title>
<ellipse fill="none" stroke="black" cx="406" cy="-18" rx="18" ry="18"/>
<text text-anchor="middle" x="406" y="-15.8" font-family="Times Roman,serif" font-size="8.00">st7</text>
</g>
<!-- st7&#45;&gt;st8 -->
<g id="edge10" class="edge"><title>st7&#45;&gt;st8</title>
<path fill="none" stroke="black" d="M423.07,-24.7933C438.107,-30.7771 460.248,-39.5883 477.572,-46.4827"/>
<polygon fill="black" stroke="black" points="476.54,-49.8389 487.125,-50.2846 479.128,-43.335 476.54,-49.8389"/>
<text text-anchor="middle" x="455" y="-49.4" font-family="Times Roman,serif" font-size="14.00">10/1</text>
</g>
<!-- st7&#45;&gt;st7 -->
<g id="edge12" class="edge"><title>st7&#45;&gt;st7</title>
<path fill="none" stroke="black" d="M397.635,-34.2903C395.618,-44.3892 398.406,-54 406,-54 410.865,-54 413.757,-50.0557 414.678,-44.5656"/>
<polygon fill="black" stroke="black" points="418.168,-44.1791 414.365,-34.2903 411.171,-44.3922 418.168,-44.1791"/>
<text text-anchor="middle" x="406" y="-60.4" font-family="Times Roman,serif" font-size="14.00">00/1</text>
</g>
<!-- st6 -->
<g id="node12" class="node"><title>st6</title>
<ellipse fill="none" stroke="black" cx="504" cy="-280" rx="18" ry="18"/>
<text text-anchor="middle" x="504" y="-277.8" font-family="Times Roman,serif" font-size="8.00">st6</text>
</g>
<!-- st6&#45;&gt;st0 -->
<g id="edge16" class="edge"><title>st6&#45;&gt;st0</title>
<path fill="none" stroke="black" d="M492.637,-294.122C472.407,-317.433 428.463,-359.89 388,-344 299.544,-309.264 245.208,-199.62 224.094,-148.597"/>
<polygon fill="black" stroke="black" points="227.297,-147.182 220.314,-139.214 220.804,-149.798 227.297,-147.182"/>
<text text-anchor="middle" x="357" y="-341.4" font-family="Times Roman,serif" font-size="14.00">00/&#45;</text>
</g>
<!-- st6&#45;&gt;st6 -->
<g id="edge14" class="edge"><title>st6&#45;&gt;st6</title>
<path fill="none" stroke="black" d="M495.635,-296.29C493.618,-306.389 496.406,-316 504,-316 508.865,-316 511.757,-312.056 512.678,-306.566"/>
<polygon fill="black" stroke="black" points="516.168,-306.179 512.365,-296.29 509.171,-306.392 516.168,-306.179"/>
<text text-anchor="middle" x="504" y="-322.4" font-family="Times Roman,serif" font-size="14.00">01/1</text>
</g>
<!-- st5 -->
<g id="node15" class="node"><title>st5</title>
<ellipse fill="none" stroke="black" cx="406" cy="-280" rx="18" ry="18"/>
<text text-anchor="middle" x="406" y="-277.8" font-family="Times Roman,serif" font-size="8.00">st5</text>
</g>
<!-- st5&#45;&gt;st6 -->
<g id="edge18" class="edge"><title>st5&#45;&gt;st6</title>
<path fill="none" stroke="black" d="M424.433,-280C438.897,-280 459.276,-280 475.789,-280"/>
<polygon fill="black" stroke="black" points="475.981,-283.5 485.981,-280 475.981,-276.5 475.981,-283.5"/>
<text text-anchor="middle" x="455" y="-286.4" font-family="Times Roman,serif" font-size="14.00">01/1</text>
</g>
<!-- st5&#45;&gt;st5 -->
<g id="edge20" class="edge"><title>st5&#45;&gt;st5</title>
<path fill="none" stroke="black" d="M397.635,-296.29C395.618,-306.389 398.406,-316 406,-316 410.865,-316 413.757,-312.056 414.678,-306.566"/>
<polygon fill="black" stroke="black" points="418.168,-306.179 414.365,-296.29 411.171,-306.392 418.168,-306.179"/>
<text text-anchor="middle" x="406" y="-322.4" font-family="Times Roman,serif" font-size="14.00">11/1</text>
</g>
<!-- st4 -->
<g id="node18" class="node"><title>st4</title>
<ellipse fill="none" stroke="black" cx="504" cy="-175" rx="18" ry="18"/>
<text text-anchor="middle" x="504" y="-172.8" font-family="Times Roman,serif" font-size="8.00">st4</text>
</g>
<!-- st4&#45;&gt;st0 -->
<g id="edge24" class="edge"><title>st4&#45;&gt;st0</title>
<path fill="none" stroke="black" d="M486.236,-171.754C437.538,-162.854 301.604,-138.01 242.287,-127.17"/>
<polygon fill="black" stroke="black" points="242.607,-123.67 232.141,-125.315 241.349,-130.556 242.607,-123.67"/>
<text text-anchor="middle" x="357" y="-156.4" font-family="Times Roman,serif" font-size="14.00">00/&#45;</text>
</g>
<!-- st4&#45;&gt;st4 -->
<g id="edge22" class="edge"><title>st4&#45;&gt;st4</title>
<path fill="none" stroke="black" d="M495.635,-191.29C493.618,-201.389 496.406,-211 504,-211 508.865,-211 511.757,-207.056 512.678,-201.566"/>
<polygon fill="black" stroke="black" points="516.168,-201.179 512.365,-191.29 509.171,-201.392 516.168,-201.179"/>
<text text-anchor="middle" x="504" y="-217.4" font-family="Times Roman,serif" font-size="14.00">01/1</text>
</g>
<!-- st3 -->
<g id="node21" class="node"><title>st3</title>
<ellipse fill="none" stroke="black" cx="406" cy="-189" rx="18" ry="18"/>
<text text-anchor="middle" x="406" y="-186.8" font-family="Times Roman,serif" font-size="8.00">st3</text>
</g>
<!-- st3&#45;&gt;st4 -->
<g id="edge26" class="edge"><title>st3&#45;&gt;st4</title>
<path fill="none" stroke="black" d="M423.975,-186.432C438.48,-184.36 459.147,-181.408 475.844,-179.022"/>
<polygon fill="black" stroke="black" points="476.735,-182.431 486.139,-177.552 475.745,-175.501 476.735,-182.431"/>
<text text-anchor="middle" x="455" y="-189.4" font-family="Times Roman,serif" font-size="14.00">01/1</text>
</g>
<!-- st3&#45;&gt;st3 -->
<g id="edge28" class="edge"><title>st3&#45;&gt;st3</title>
<path fill="none" stroke="black" d="M397.635,-205.29C395.618,-215.389 398.406,-225 406,-225 410.865,-225 413.757,-221.056 414.678,-215.566"/>
<polygon fill="black" stroke="black" points="418.168,-215.179 414.365,-205.29 411.171,-215.392 418.168,-215.179"/>
<text text-anchor="middle" x="406" y="-231.4" font-family="Times Roman,serif" font-size="14.00">00/1</text>
</g>
<!-- st2&#45;&gt;st9 -->
<g id="edge30" class="edge"><title>st2&#45;&gt;st9</title>
<path fill="none" stroke="black" d="M289.866,-19.6883C240.846,-24.2523 105.414,-36.8614 46.2604,-42.3689"/>
<polygon fill="black" stroke="black" points="45.7732,-38.899 36.1408,-43.311 46.4222,-45.8688 45.7732,-38.899"/>
<text text-anchor="middle" x="165" y="-39.4" font-family="Times Roman,serif" font-size="14.00">11/1</text>
</g>
<!-- st2&#45;&gt;st7 -->
<g id="edge32" class="edge"><title>st2&#45;&gt;st7</title>
<path fill="none" stroke="black" d="M326.433,-18C340.897,-18 361.276,-18 377.789,-18"/>
<polygon fill="black" stroke="black" points="377.981,-21.5001 387.981,-18 377.981,-14.5001 377.981,-21.5001"/>
<text text-anchor="middle" x="357" y="-24.4" font-family="Times Roman,serif" font-size="14.00">00/1</text>
</g>
<!-- st2&#45;&gt;st2 -->
<g id="edge34" class="edge"><title>st2&#45;&gt;st2</title>
<path fill="none" stroke="black" d="M299.984,-34.2903C298.051,-44.3892 300.723,-54 308,-54 312.662,-54 315.434,-50.0557 316.316,-44.5656"/>
<polygon fill="black" stroke="black" points="319.807,-44.1839 316.016,-34.2903 312.81,-44.3881 319.807,-44.1839"/>
<text text-anchor="middle" x="308" y="-60.4" font-family="Times Roman,serif" font-size="14.00">01/1</text>
</g>
<!-- st1&#45;&gt;st5 -->
<g id="edge40" class="edge"><title>st1&#45;&gt;st5</title>
<path fill="none" stroke="black" d="M321.217,-201.273C337.656,-216.537 365.91,-242.773 385.248,-260.731"/>
<polygon fill="black" stroke="black" points="382.97,-263.391 392.68,-267.631 387.733,-258.262 382.97,-263.391"/>
<text text-anchor="middle" x="357" y="-251.4" font-family="Times Roman,serif" font-size="14.00">11/1</text>
</g>
<!-- st1&#45;&gt;st3 -->
<g id="edge42" class="edge"><title>st1&#45;&gt;st3</title>
<path fill="none" stroke="black" d="M326.433,-189C340.897,-189 361.276,-189 377.789,-189"/>
<polygon fill="black" stroke="black" points="377.981,-192.5 387.981,-189 377.981,-185.5 377.981,-192.5"/>
<text text-anchor="middle" x="357" y="-195.4" font-family="Times Roman,serif" font-size="14.00">00/1</text>
</g>
<!-- st1&#45;&gt;st1 -->
<g id="edge44" class="edge"><title>st1&#45;&gt;st1</title>
<path fill="none" stroke="black" d="M299.984,-205.29C298.051,-215.389 300.723,-225 308,-225 312.662,-225 315.434,-221.056 316.316,-215.566"/>
<polygon fill="black" stroke="black" points="319.807,-215.184 316.016,-205.29 312.81,-215.388 319.807,-215.184"/>
<text text-anchor="middle" x="308" y="-231.4" font-family="Times Roman,serif" font-size="14.00">10/1</text>
</g>
</g>
</svg>
