<?xml version="1.0" encoding="UTF-8" standalone="no"?>
<!DOCTYPE svg PUBLIC "-//W3C//DTD SVG 1.1//EN"
 "http://www.w3.org/Graphics/SVG/1.1/DTD/svg11.dtd">
<!-- Generated by graphviz version 2.26.3 (20100126.1600)
 -->
<!-- Title: g Pages: 1 -->
<svg width="742pt" height="36pt"
 viewBox="0.00 0.00 742.00 36.00" xmlns="http://www.w3.org/2000/svg" xmlns:xlink="http://www.w3.org/1999/xlink">
<g id="graph1" class="graph" transform="scale(1 1) rotate(0) translate(4 32)">
<title>g</title>
<polygon fill="white" stroke="white" points="-4,5 -4,-32 739,-32 739,5 -4,5"/>
<!-- node0 -->
<g id="node1" class="node"><title>node0</title>
<polygon fill="none" stroke="black" points="0,-0.5 0,-27.5 66,-27.5 66,-0.5 0,-0.5"/>
<text text-anchor="middle" x="10" y="-10.9" font-family="Times Roman,serif" font-size="14.00"> </text>
<polyline fill="none" stroke="black" points="20,-0.5 20,-27.5 "/>
<text text-anchor="middle" x="33" y="-10.9" font-family="Times Roman,serif" font-size="14.00">G</text>
<polyline fill="none" stroke="black" points="46,-0.5 46,-27.5 "/>
<text text-anchor="middle" x="56" y="-10.9" font-family="Times Roman,serif" font-size="14.00"> </text>
</g>
<!-- node1 -->
<g id="node2" class="node"><title>node1</title>
<polygon fill="none" stroke="black" points="83.5,-0.5 83.5,-27.5 148.5,-27.5 148.5,-0.5 83.5,-0.5"/>
<text text-anchor="middle" x="93.5" y="-10.9" font-family="Times Roman,serif" font-size="14.00"> </text>
<polyline fill="none" stroke="black" points="103.5,-0.5 103.5,-27.5 "/>
<text text-anchor="middle" x="116" y="-10.9" font-family="Times Roman,serif" font-size="14.00">E</text>
<polyline fill="none" stroke="black" points="128.5,-0.5 128.5,-27.5 "/>
<text text-anchor="middle" x="138.5" y="-10.9" font-family="Times Roman,serif" font-size="14.00"> </text>
</g>
<!-- node2 -->
<g id="node3" class="node"><title>node2</title>
<polygon fill="none" stroke="black" points="166,-0.5 166,-27.5 232,-27.5 232,-0.5 166,-0.5"/>
<text text-anchor="middle" x="176" y="-10.9" font-family="Times Roman,serif" font-size="14.00"> </text>
<polyline fill="none" stroke="black" points="186,-0.5 186,-27.5 "/>
<text text-anchor="middle" x="199" y="-10.9" font-family="Times Roman,serif" font-size="14.00">B</text>
<polyline fill="none" stroke="black" points="212,-0.5 212,-27.5 "/>
<text text-anchor="middle" x="222" y="-10.9" font-family="Times Roman,serif" font-size="14.00"> </text>
</g>
<!-- node3 -->
<g id="node4" class="node"><title>node3</title>
<polygon fill="none" stroke="black" points="250,-0.5 250,-27.5 314,-27.5 314,-0.5 250,-0.5"/>
<text text-anchor="middle" x="260" y="-10.9" font-family="Times Roman,serif" font-size="14.00"> </text>
<polyline fill="none" stroke="black" points="270,-0.5 270,-27.5 "/>
<text text-anchor="middle" x="282" y="-10.9" font-family="Times Roman,serif" font-size="14.00">F</text>
<polyline fill="none" stroke="black" points="294,-0.5 294,-27.5 "/>
<text text-anchor="middle" x="304" y="-10.9" font-family="Times Roman,serif" font-size="14.00"> </text>
</g>
<!-- node4 -->
<g id="node5" class="node"><title>node4</title>
<polygon fill="none" stroke="black" points="332,-0.5 332,-27.5 398,-27.5 398,-0.5 332,-0.5"/>
<text text-anchor="middle" x="342" y="-10.9" font-family="Times Roman,serif" font-size="14.00"> </text>
<polyline fill="none" stroke="black" points="352,-0.5 352,-27.5 "/>
<text text-anchor="middle" x="365" y="-10.9" font-family="Times Roman,serif" font-size="14.00">R</text>
<polyline fill="none" stroke="black" points="378,-0.5 378,-27.5 "/>
<text text-anchor="middle" x="388" y="-10.9" font-family="Times Roman,serif" font-size="14.00"> </text>
</g>
<!-- node5 -->
<g id="node6" class="node"><title>node5</title>
<polygon fill="none" stroke="black" points="416,-0.5 416,-27.5 482,-27.5 482,-0.5 416,-0.5"/>
<text text-anchor="middle" x="426" y="-10.9" font-family="Times Roman,serif" font-size="14.00"> </text>
<polyline fill="none" stroke="black" points="436,-0.5 436,-27.5 "/>
<text text-anchor="middle" x="449" y="-10.9" font-family="Times Roman,serif" font-size="14.00">H</text>
<polyline fill="none" stroke="black" points="462,-0.5 462,-27.5 "/>
<text text-anchor="middle" x="472" y="-10.9" font-family="Times Roman,serif" font-size="14.00"> </text>
</g>
<!-- node6 -->
<g id="node7" class="node"><title>node6</title>
<polygon fill="none" stroke="black" points="500,-0.5 500,-27.5 566,-27.5 566,-0.5 500,-0.5"/>
<text text-anchor="middle" x="510" y="-10.9" font-family="Times Roman,serif" font-size="14.00"> </text>
<polyline fill="none" stroke="black" points="520,-0.5 520,-27.5 "/>
<text text-anchor="middle" x="533" y="-10.9" font-family="Times Roman,serif" font-size="14.00">Y</text>
<polyline fill="none" stroke="black" points="546,-0.5 546,-27.5 "/>
<text text-anchor="middle" x="556" y="-10.9" font-family="Times Roman,serif" font-size="14.00"> </text>
</g>
<!-- node7 -->
<g id="node8" class="node"><title>node7</title>
<polygon fill="none" stroke="black" points="584,-0.5 584,-27.5 650,-27.5 650,-0.5 584,-0.5"/>
<text text-anchor="middle" x="594" y="-10.9" font-family="Times Roman,serif" font-size="14.00"> </text>
<polyline fill="none" stroke="black" points="604,-0.5 604,-27.5 "/>
<text text-anchor="middle" x="617" y="-10.9" font-family="Times Roman,serif" font-size="14.00">A</text>
<polyline fill="none" stroke="black" points="630,-0.5 630,-27.5 "/>
<text text-anchor="middle" x="640" y="-10.9" font-family="Times Roman,serif" font-size="14.00"> </text>
</g>
<!-- node8 -->
<g id="node9" class="node"><title>node8</title>
<polygon fill="none" stroke="black" points="668,-0.5 668,-27.5 734,-27.5 734,-0.5 668,-0.5"/>
<text text-anchor="middle" x="678" y="-10.9" font-family="Times Roman,serif" font-size="14.00"> </text>
<polyline fill="none" stroke="black" points="688,-0.5 688,-27.5 "/>
<text text-anchor="middle" x="701" y="-10.9" font-family="Times Roman,serif" font-size="14.00">C</text>
<polyline fill="none" stroke="black" points="714,-0.5 714,-27.5 "/>
<text text-anchor="middle" x="724" y="-10.9" font-family="Times Roman,serif" font-size="14.00"> </text>
</g>
</g>
</svg>
