<?xml version="1.0" encoding="UTF-8" standalone="no"?>
<!DOCTYPE svg PUBLIC "-//W3C//DTD SVG 1.1//EN"
 "http://www.w3.org/Graphics/SVG/1.1/DTD/svg11.dtd">
<!-- Generated by graphviz version 2.26.3 (20100126.1600)
 -->
<!-- Title: g Pages: 1 -->
<svg width="366pt" height="228pt"
 viewBox="0.00 0.00 366.00 228.00" xmlns="http://www.w3.org/2000/svg" xmlns:xlink="http://www.w3.org/1999/xlink">
<g id="graph1" class="graph" transform="scale(1 1) rotate(0) translate(4 224)">
<title>g</title>
<polygon fill="white" stroke="white" points="-4,5 -4,-224 363,-224 363,5 -4,5"/>
<!-- node0 -->
<g id="node1" class="node"><title>node0</title>
<polygon fill="none" stroke="black" points="166,-192.5 166,-219.5 232,-219.5 232,-192.5 166,-192.5"/>
<text text-anchor="middle" x="176" y="-202.9" font-family="Times Roman,serif" font-size="14.00"> </text>
<polyline fill="none" stroke="black" points="186,-192.5 186,-219.5 "/>
<text text-anchor="middle" x="199" y="-202.9" font-family="Times Roman,serif" font-size="14.00">G</text>
<polyline fill="none" stroke="black" points="212,-192.5 212,-219.5 "/>
<text text-anchor="middle" x="222" y="-202.9" font-family="Times Roman,serif" font-size="14.00"> </text>
</g>
<!-- node1 -->
<g id="node2" class="node"><title>node1</title>
<polygon fill="none" stroke="black" points="102.5,-128.5 102.5,-155.5 167.5,-155.5 167.5,-128.5 102.5,-128.5"/>
<text text-anchor="middle" x="112.5" y="-138.9" font-family="Times Roman,serif" font-size="14.00"> </text>
<polyline fill="none" stroke="black" points="122.5,-128.5 122.5,-155.5 "/>
<text text-anchor="middle" x="135" y="-138.9" font-family="Times Roman,serif" font-size="14.00">E</text>
<polyline fill="none" stroke="black" points="147.5,-128.5 147.5,-155.5 "/>
<text text-anchor="middle" x="157.5" y="-138.9" font-family="Times Roman,serif" font-size="14.00"> </text>
</g>
<!-- node0&#45;&gt;node1 -->
<g id="edge4" class="edge"><title>node0:f0&#45;&gt;node1:f1</title>
<path fill="none" stroke="black" d="M176,-192C176,-171.918 147.883,-177.039 138.217,-165.62"/>
<polygon fill="black" stroke="black" points="141.491,-164.374 135,-156 134.852,-166.594 141.491,-164.374"/>
</g>
<!-- node4 -->
<g id="node5" class="node"><title>node4</title>
<polygon fill="none" stroke="black" points="231,-128.5 231,-155.5 297,-155.5 297,-128.5 231,-128.5"/>
<text text-anchor="middle" x="241" y="-138.9" font-family="Times Roman,serif" font-size="14.00"> </text>
<polyline fill="none" stroke="black" points="251,-128.5 251,-155.5 "/>
<text text-anchor="middle" x="264" y="-138.9" font-family="Times Roman,serif" font-size="14.00">R</text>
<polyline fill="none" stroke="black" points="277,-128.5 277,-155.5 "/>
<text text-anchor="middle" x="287" y="-138.9" font-family="Times Roman,serif" font-size="14.00"> </text>
</g>
<!-- node0&#45;&gt;node4 -->
<g id="edge2" class="edge"><title>node0:f2&#45;&gt;node4:f1</title>
<path fill="none" stroke="black" d="M222,-192C222,-171.64 250.803,-177.173 260.704,-165.714"/>
<polygon fill="black" stroke="black" points="264.102,-166.594 264,-156 257.473,-164.345 264.102,-166.594"/>
</g>
<!-- node2 -->
<g id="node3" class="node"><title>node2</title>
<polygon fill="none" stroke="black" points="42,-64.5 42,-91.5 108,-91.5 108,-64.5 42,-64.5"/>
<text text-anchor="middle" x="52" y="-74.9" font-family="Times Roman,serif" font-size="14.00"> </text>
<polyline fill="none" stroke="black" points="62,-64.5 62,-91.5 "/>
<text text-anchor="middle" x="75" y="-74.9" font-family="Times Roman,serif" font-size="14.00">B</text>
<polyline fill="none" stroke="black" points="88,-64.5 88,-91.5 "/>
<text text-anchor="middle" x="98" y="-74.9" font-family="Times Roman,serif" font-size="14.00"> </text>
</g>
<!-- node1&#45;&gt;node2 -->
<g id="edge6" class="edge"><title>node1:f0&#45;&gt;node2:f1</title>
<path fill="none" stroke="black" d="M112,-128C112,-109.179 87.1022,-112.451 78.1546,-101.569"/>
<polygon fill="black" stroke="black" points="81.455,-100.401 75,-92 74.807,-102.593 81.455,-100.401"/>
</g>
<!-- node3 -->
<g id="node4" class="node"><title>node3</title>
<polygon fill="none" stroke="black" points="126,-64.5 126,-91.5 190,-91.5 190,-64.5 126,-64.5"/>
<text text-anchor="middle" x="136" y="-74.9" font-family="Times Roman,serif" font-size="14.00"> </text>
<polyline fill="none" stroke="black" points="146,-64.5 146,-91.5 "/>
<text text-anchor="middle" x="158" y="-74.9" font-family="Times Roman,serif" font-size="14.00">F</text>
<polyline fill="none" stroke="black" points="170,-64.5 170,-91.5 "/>
<text text-anchor="middle" x="180" y="-74.9" font-family="Times Roman,serif" font-size="14.00"> </text>
</g>
<!-- node1&#45;&gt;node3 -->
<g id="edge8" class="edge"><title>node1:f2&#45;&gt;node3:f1</title>
<path fill="none" stroke="black" d="M158,-128C158,-116 158,-110.75 158,-102.125"/>
<polygon fill="black" stroke="black" points="161.5,-102 158,-92 154.5,-102 161.5,-102"/>
</g>
<!-- node7 -->
<g id="node8" class="node"><title>node7</title>
<polygon fill="none" stroke="black" points="0,-0.5 0,-27.5 66,-27.5 66,-0.5 0,-0.5"/>
<text text-anchor="middle" x="10" y="-10.9" font-family="Times Roman,serif" font-size="14.00"> </text>
<polyline fill="none" stroke="black" points="20,-0.5 20,-27.5 "/>
<text text-anchor="middle" x="33" y="-10.9" font-family="Times Roman,serif" font-size="14.00">A</text>
<polyline fill="none" stroke="black" points="46,-0.5 46,-27.5 "/>
<text text-anchor="middle" x="56" y="-10.9" font-family="Times Roman,serif" font-size="14.00"> </text>
</g>
<!-- node2&#45;&gt;node7 -->
<g id="edge12" class="edge"><title>node2:f0&#45;&gt;node7:f1</title>
<path fill="none" stroke="black" d="M52,-64C52,-50.0072 40.6341,-46.9467 35.4839,-37.9075"/>
<polygon fill="black" stroke="black" points="38.8268,-36.8486 33,-28 32.037,-38.551 38.8268,-36.8486"/>
</g>
<!-- node8 -->
<g id="node9" class="node"><title>node8</title>
<polygon fill="none" stroke="black" points="84,-0.5 84,-27.5 150,-27.5 150,-0.5 84,-0.5"/>
<text text-anchor="middle" x="94" y="-10.9" font-family="Times Roman,serif" font-size="14.00"> </text>
<polyline fill="none" stroke="black" points="104,-0.5 104,-27.5 "/>
<text text-anchor="middle" x="117" y="-10.9" font-family="Times Roman,serif" font-size="14.00">C</text>
<polyline fill="none" stroke="black" points="130,-0.5 130,-27.5 "/>
<text text-anchor="middle" x="140" y="-10.9" font-family="Times Roman,serif" font-size="14.00"> </text>
</g>
<!-- node2&#45;&gt;node8 -->
<g id="edge10" class="edge"><title>node2:f2&#45;&gt;node8:f1</title>
<path fill="none" stroke="black" d="M98,-64C98,-50.0072 109.366,-46.9467 114.516,-37.9075"/>
<polygon fill="black" stroke="black" points="117.963,-38.551 117,-28 111.173,-36.8486 117.963,-38.551"/>
</g>
<!-- node5 -->
<g id="node6" class="node"><title>node5</title>
<polygon fill="none" stroke="black" points="208,-64.5 208,-91.5 274,-91.5 274,-64.5 208,-64.5"/>
<text text-anchor="middle" x="218" y="-74.9" font-family="Times Roman,serif" font-size="14.00"> </text>
<polyline fill="none" stroke="black" points="228,-64.5 228,-91.5 "/>
<text text-anchor="middle" x="241" y="-74.9" font-family="Times Roman,serif" font-size="14.00">H</text>
<polyline fill="none" stroke="black" points="254,-64.5 254,-91.5 "/>
<text text-anchor="middle" x="264" y="-74.9" font-family="Times Roman,serif" font-size="14.00"> </text>
</g>
<!-- node4&#45;&gt;node5 -->
<g id="edge16" class="edge"><title>node4:f0&#45;&gt;node5:f1</title>
<path fill="none" stroke="black" d="M241,-128C241,-116 241,-110.75 241,-102.125"/>
<polygon fill="black" stroke="black" points="244.5,-102 241,-92 237.5,-102 244.5,-102"/>
</g>
<!-- node6 -->
<g id="node7" class="node"><title>node6</title>
<polygon fill="none" stroke="black" points="292,-64.5 292,-91.5 358,-91.5 358,-64.5 292,-64.5"/>
<text text-anchor="middle" x="302" y="-74.9" font-family="Times Roman,serif" font-size="14.00"> </text>
<polyline fill="none" stroke="black" points="312,-64.5 312,-91.5 "/>
<text text-anchor="middle" x="325" y="-74.9" font-family="Times Roman,serif" font-size="14.00">Y</text>
<polyline fill="none" stroke="black" points="338,-64.5 338,-91.5 "/>
<text text-anchor="middle" x="348" y="-74.9" font-family="Times Roman,serif" font-size="14.00"> </text>
</g>
<!-- node4&#45;&gt;node6 -->
<g id="edge14" class="edge"><title>node4:f2&#45;&gt;node6:f1</title>
<path fill="none" stroke="black" d="M287,-128C287,-108.916 312.571,-112.572 321.76,-101.66"/>
<polygon fill="black" stroke="black" points="325.138,-102.594 325,-92 318.502,-100.368 325.138,-102.594"/>
</g>
</g>
</svg>
