<?xml version="1.0" encoding="UTF-8" standalone="no"?>
<!DOCTYPE svg PUBLIC "-//W3C//DTD SVG 1.1//EN"
 "http://www.w3.org/Graphics/SVG/1.1/DTD/svg11.dtd">
<!-- Generated by graphviz version 2.38.0 (20140413.2041)
 -->
<!-- Title: polypoly Pages: 1 -->
<svg width="504pt" height="683pt"
 viewBox="0.00 0.00 504.00 683.14" xmlns="http://www.w3.org/2000/svg" xmlns:xlink="http://www.w3.org/1999/xlink">
<g id="graph0" class="graph" transform="scale(0.234434 0.234434) rotate(0) translate(4 2909.99)">
<title>polypoly</title>
<polygon fill="white" stroke="none" points="-4,4 -4,-2909.99 2145.86,-2909.99 2145.86,4 -4,4"/>
<!-- 0000 -->
<g id="node1" class="node"><title>0000</title>
<ellipse fill="none" stroke="black" cx="37.6967" cy="-124" rx="27" ry="18"/>
<text text-anchor="middle" x="37.6967" y="-120.3" font-family="Times,serif" font-size="14.00">M</text>
</g>
<!-- 0001 -->
<g id="node2" class="node"><title>0001</title>
<ellipse fill="none" stroke="black" cx="176.697" cy="-124" rx="93.6835" ry="18"/>
<text text-anchor="middle" x="176.697" y="-120.3" font-family="Times,serif" font-size="14.00">MMMMMMMMMM</text>
</g>
<!-- 0002 -->
<g id="node3" class="node"><title>0002</title>
<ellipse fill="none" stroke="black" cx="315.697" cy="-124" rx="27" ry="69.0935"/>
<text text-anchor="middle" x="315.697" y="-157.8" font-family="Times,serif" font-size="14.00">M</text>
<text text-anchor="middle" x="315.697" y="-142.8" font-family="Times,serif" font-size="14.00">M</text>
<text text-anchor="middle" x="315.697" y="-127.8" font-family="Times,serif" font-size="14.00">M</text>
<text text-anchor="middle" x="315.697" y="-112.8" font-family="Times,serif" font-size="14.00">M</text>
<text text-anchor="middle" x="315.697" y="-97.8" font-family="Times,serif" font-size="14.00">M</text>
<text text-anchor="middle" x="315.697" y="-82.8" font-family="Times,serif" font-size="14.00">M</text>
</g>
<!-- 0003 -->
<g id="node4" class="node"><title>0003</title>
<ellipse fill="none" stroke="black" cx="462.697" cy="-124" rx="101.647" ry="69.0935"/>
<text text-anchor="middle" x="462.697" y="-157.8" font-family="Times,serif" font-size="14.00">MMMMMMMMMM</text>
<text text-anchor="middle" x="462.697" y="-142.8" font-family="Times,serif" font-size="14.00">MMMMMMMMMM</text>
<text text-anchor="middle" x="462.697" y="-127.8" font-family="Times,serif" font-size="14.00">MMMMMMMMMM</text>
<text text-anchor="middle" x="462.697" y="-112.8" font-family="Times,serif" font-size="14.00">MMMMMMMMMM</text>
<text text-anchor="middle" x="462.697" y="-97.8" font-family="Times,serif" font-size="14.00">MMMMMMMMMM</text>
<text text-anchor="middle" x="462.697" y="-82.8" font-family="Times,serif" font-size="14.00">MMMMMMMMMM</text>
</g>
<!-- 0010 -->
<g id="node5" class="node"><title>0010</title>
<ellipse fill="none" stroke="black" cx="613.697" cy="-124" rx="27" ry="18"/>
<ellipse fill="none" stroke="black" cx="613.697" cy="-124" rx="31" ry="22"/>
<text text-anchor="middle" x="613.697" y="-120.3" font-family="Times,serif" font-size="14.00">M</text>
</g>
<!-- 0011 -->
<g id="node6" class="node"><title>0011</title>
<ellipse fill="none" stroke="black" cx="760.697" cy="-124" rx="93.6797" ry="18"/>
<ellipse fill="none" stroke="black" cx="760.697" cy="-124" rx="97.6835" ry="22"/>
<text text-anchor="middle" x="760.697" y="-120.3" font-family="Times,serif" font-size="14.00">MMMMMMMMMM</text>
</g>
<!-- 0012 -->
<g id="node7" class="node"><title>0012</title>
<ellipse fill="none" stroke="black" cx="907.697" cy="-124" rx="27" ry="69.1046"/>
<ellipse fill="none" stroke="black" cx="907.697" cy="-124" rx="31" ry="73.0935"/>
<text text-anchor="middle" x="907.697" y="-157.8" font-family="Times,serif" font-size="14.00">M</text>
<text text-anchor="middle" x="907.697" y="-142.8" font-family="Times,serif" font-size="14.00">M</text>
<text text-anchor="middle" x="907.697" y="-127.8" font-family="Times,serif" font-size="14.00">M</text>
<text text-anchor="middle" x="907.697" y="-112.8" font-family="Times,serif" font-size="14.00">M</text>
<text text-anchor="middle" x="907.697" y="-97.8" font-family="Times,serif" font-size="14.00">M</text>
<text text-anchor="middle" x="907.697" y="-82.8" font-family="Times,serif" font-size="14.00">M</text>
</g>
<!-- 0013 -->
<g id="node8" class="node"><title>0013</title>
<ellipse fill="none" stroke="black" cx="1062.7" cy="-124" rx="101.654" ry="69.1046"/>
<ellipse fill="none" stroke="black" cx="1062.7" cy="-124" rx="105.647" ry="73.0935"/>
<text text-anchor="middle" x="1062.7" y="-157.8" font-family="Times,serif" font-size="14.00">MMMMMMMMMM</text>
<text text-anchor="middle" x="1062.7" y="-142.8" font-family="Times,serif" font-size="14.00">MMMMMMMMMM</text>
<text text-anchor="middle" x="1062.7" y="-127.8" font-family="Times,serif" font-size="14.00">MMMMMMMMMM</text>
<text text-anchor="middle" x="1062.7" y="-112.8" font-family="Times,serif" font-size="14.00">MMMMMMMMMM</text>
<text text-anchor="middle" x="1062.7" y="-97.8" font-family="Times,serif" font-size="14.00">MMMMMMMMMM</text>
<text text-anchor="middle" x="1062.7" y="-82.8" font-family="Times,serif" font-size="14.00">MMMMMMMMMM</text>
</g>
<!-- 0110 -->
<g id="node9" class="node"><title>0110</title>
<polygon fill="none" stroke="black" points="1222.38,-106.049 1224.15,-106.148 1225.91,-106.295 1227.64,-106.491 1229.34,-106.735 1230.99,-107.027 1232.61,-107.364 1234.17,-107.748 1235.67,-108.176 1237.11,-108.647 1238.48,-109.161 1239.78,-109.715 1240.99,-110.308 1242.13,-110.939 1243.18,-111.605 1244.15,-112.306 1245.02,-113.039 1245.8,-113.801 1246.49,-114.592 1247.08,-115.408 1247.58,-116.248 1247.98,-117.109 1248.29,-117.989 1248.5,-118.886 1248.63,-119.797 1248.66,-120.719 1248.6,-121.65 1248.46,-122.587 1248.24,-123.529 1247.94,-124.471 1247.56,-125.413 1247.11,-126.35 1246.59,-127.281 1246,-128.203 1245.36,-129.114 1244.65,-130.011 1243.9,-130.891 1243.09,-131.752 1242.24,-132.592 1241.34,-133.408 1240.41,-134.199 1239.44,-134.961 1238.44,-135.694 1237.42,-136.395 1236.37,-137.061 1235.29,-137.692 1234.2,-138.285 1233.09,-138.839 1231.97,-139.353 1230.83,-139.824 1229.68,-140.252 1228.53,-140.636 1227.36,-140.973 1226.19,-141.265 1225.02,-141.509 1223.84,-141.705 1222.66,-141.852 1221.47,-141.951 1220.29,-142 1219.1,-142 1217.92,-141.951 1216.74,-141.852 1215.55,-141.705 1214.38,-141.509 1213.2,-141.265 1212.03,-140.973 1210.87,-140.636 1209.71,-140.252 1208.56,-139.824 1207.43,-139.353 1206.3,-138.839 1205.19,-138.285 1204.1,-137.692 1203.03,-137.061 1201.98,-136.395 1200.95,-135.694 1199.95,-134.961 1198.98,-134.199 1198.05,-133.408 1197.16,-132.592 1196.3,-131.752 1195.5,-130.891 1194.74,-130.011 1194.03,-129.114 1193.39,-128.203 1192.8,-127.281 1192.28,-126.35 1191.83,-125.413 1191.45,-124.471 1191.15,-123.529 1190.93,-122.587 1190.79,-121.65 1190.73,-120.719 1190.77,-119.797 1190.89,-118.886 1191.11,-117.989 1191.41,-117.109 1191.82,-116.248 1192.31,-115.408 1192.91,-114.592 1193.59,-113.801 1194.37,-113.039 1195.25,-112.306 1196.21,-111.605 1197.26,-110.939 1198.4,-110.308 1199.62,-109.715 1200.91,-109.161 1202.28,-108.647 1203.72,-108.176 1205.23,-107.748 1206.79,-107.364 1208.4,-107.027 1210.06,-106.735 1211.76,-106.491 1213.49,-106.295 1215.24,-106.148 1217.02,-106.049 1218.8,-106 1220.59,-106 1222.38,-106.049"/>
<polygon fill="none" stroke="black" points="1222.55,-102.052 1224.43,-102.157 1226.31,-102.315 1228.16,-102.524 1229.98,-102.786 1231.76,-103.099 1233.51,-103.465 1235.21,-103.883 1236.86,-104.353 1238.45,-104.875 1239.99,-105.451 1241.46,-106.08 1242.87,-106.764 1244.2,-107.505 1245.46,-108.303 1246.64,-109.162 1247.74,-110.082 1248.74,-111.065 1249.65,-112.112 1250.46,-113.221 1251.15,-114.388 1251.72,-115.607 1252.16,-116.866 1252.47,-118.155 1252.65,-119.458 1252.69,-120.764 1252.62,-122.06 1252.43,-123.339 1252.13,-124.594 1251.74,-125.82 1251.26,-127.017 1250.69,-128.183 1250.06,-129.318 1249.36,-130.423 1248.6,-131.497 1247.78,-132.54 1246.91,-133.553 1245.99,-134.534 1245.02,-135.485 1244.02,-136.402 1242.97,-137.287 1241.89,-138.137 1240.78,-138.951 1239.64,-139.729 1238.48,-140.469 1237.29,-141.169 1236.07,-141.828 1234.84,-142.444 1233.59,-143.016 1232.32,-143.543 1231.03,-144.022 1229.73,-144.453 1228.42,-144.834 1227.1,-145.164 1225.76,-145.44 1224.42,-145.663 1223.08,-145.831 1221.73,-145.944 1220.37,-146 1219.02,-146 1217.67,-145.944 1216.32,-145.831 1214.97,-145.663 1213.63,-145.44 1212.3,-145.164 1210.98,-144.834 1209.66,-144.453 1208.36,-144.022 1207.08,-143.543 1205.81,-143.016 1204.55,-142.444 1203.32,-141.828 1202.11,-141.169 1200.92,-140.469 1199.75,-139.729 1198.61,-138.951 1197.5,-138.137 1196.42,-137.287 1195.38,-136.402 1194.37,-135.485 1193.41,-134.534 1192.49,-133.553 1191.62,-132.54 1190.8,-131.497 1190.03,-130.423 1189.33,-129.318 1188.7,-128.183 1188.14,-127.017 1187.66,-125.82 1187.26,-124.594 1186.97,-123.339 1186.78,-122.06 1186.7,-120.764 1186.75,-119.458 1186.92,-118.155 1187.23,-116.866 1187.67,-115.607 1188.24,-114.388 1188.93,-113.221 1189.74,-112.112 1190.65,-111.065 1191.66,-110.082 1192.75,-109.162 1193.93,-108.303 1195.19,-107.505 1196.53,-106.764 1197.93,-106.08 1199.4,-105.451 1200.94,-104.875 1202.53,-104.353 1204.18,-103.883 1205.89,-103.465 1207.63,-103.099 1209.42,-102.786 1211.24,-102.524 1213.09,-102.315 1214.96,-102.157 1216.85,-102.052 1218.75,-102 1220.65,-102 1222.55,-102.052"/>
<text text-anchor="middle" x="1219.7" y="-120.3" font-family="Times,serif" font-size="14.00">M</text>
</g>
<!-- 0111 -->
<g id="node10" class="node"><title>0111</title>
<polygon fill="none" stroke="black" points="1382.94,-106.049 1389.06,-106.148 1395.11,-106.295 1401.08,-106.491 1406.94,-106.735 1412.66,-107.027 1418.22,-107.364 1423.6,-107.748 1428.78,-108.176 1433.75,-108.647 1438.47,-109.161 1442.94,-109.715 1447.14,-110.308 1451.06,-110.939 1454.69,-111.605 1458.01,-112.306 1461.02,-113.039 1463.72,-113.801 1466.08,-114.592 1468.13,-115.408 1469.84,-116.248 1471.23,-117.109 1472.3,-117.989 1473.04,-118.886 1473.46,-119.797 1473.58,-120.719 1473.39,-121.65 1472.9,-122.587 1472.14,-123.529 1471.09,-124.471 1469.79,-125.413 1468.24,-126.35 1466.44,-127.281 1464.42,-128.203 1462.19,-129.114 1459.77,-130.011 1457.15,-130.891 1454.37,-131.752 1451.43,-132.592 1448.35,-133.408 1445.13,-134.199 1441.79,-134.961 1438.35,-135.694 1434.81,-136.395 1431.18,-137.061 1427.48,-137.692 1423.71,-138.285 1419.88,-138.839 1416.01,-139.353 1412.09,-139.824 1408.13,-140.252 1404.14,-140.636 1400.13,-140.973 1396.1,-141.265 1392.04,-141.509 1387.98,-141.705 1383.91,-141.852 1379.82,-141.951 1375.74,-142 1371.65,-142 1367.57,-141.951 1363.49,-141.852 1359.41,-141.705 1355.35,-141.509 1351.3,-141.265 1347.26,-140.973 1343.25,-140.636 1339.26,-140.252 1335.31,-139.824 1331.39,-139.353 1327.51,-138.839 1323.68,-138.285 1319.91,-137.692 1316.21,-137.061 1312.59,-136.395 1309.04,-135.694 1305.6,-134.961 1302.26,-134.199 1299.05,-133.408 1295.96,-132.592 1293.02,-131.752 1290.24,-130.891 1287.63,-130.011 1285.2,-129.114 1282.97,-128.203 1280.95,-127.281 1279.16,-126.35 1277.6,-125.413 1276.3,-124.471 1275.26,-123.529 1274.49,-122.587 1274.01,-121.65 1273.82,-120.719 1273.93,-119.797 1274.36,-118.886 1275.1,-117.989 1276.16,-117.109 1277.55,-116.248 1279.27,-115.408 1281.31,-114.592 1283.68,-113.801 1286.37,-113.039 1289.38,-112.306 1292.7,-111.605 1296.33,-110.939 1300.25,-110.308 1304.45,-109.715 1308.92,-109.161 1313.65,-108.647 1318.61,-108.176 1323.79,-107.748 1329.17,-107.364 1334.73,-107.027 1340.45,-106.735 1346.31,-106.491 1352.28,-106.295 1358.33,-106.148 1364.45,-106.049 1370.61,-106 1376.78,-106 1382.94,-106.049"/>
<polygon fill="none" stroke="black" points="1382.99,-102.05 1389.14,-102.149 1395.23,-102.297 1401.23,-102.494 1407.12,-102.74 1412.88,-103.033 1418.49,-103.373 1423.91,-103.76 1429.14,-104.192 1434.15,-104.668 1438.94,-105.187 1443.47,-105.749 1447.74,-106.353 1451.75,-106.997 1455.47,-107.681 1458.9,-108.405 1462.05,-109.17 1464.9,-109.978 1467.47,-110.835 1469.76,-111.751 1471.79,-112.745 1473.58,-113.856 1475.15,-115.152 1476.45,-116.734 1477.36,-118.68 1477.63,-120.874 1477.21,-122.986 1476.28,-124.788 1475.05,-126.289 1473.62,-127.583 1472,-128.751 1470.2,-129.84 1468.2,-130.876 1466.02,-131.874 1463.65,-132.842 1461.1,-133.782 1458.39,-134.696 1455.52,-135.585 1452.5,-136.448 1449.34,-137.284 1446.06,-138.091 1442.66,-138.867 1439.16,-139.612 1435.56,-140.324 1431.88,-141 1428.13,-141.639 1424.31,-142.24 1420.44,-142.801 1416.51,-143.321 1412.54,-143.798 1408.54,-144.231 1404.5,-144.619 1400.44,-144.961 1396.36,-145.256 1392.26,-145.503 1388.15,-145.701 1384.03,-145.85 1379.9,-145.95 1375.76,-146 1371.63,-146 1367.5,-145.95 1363.37,-145.85 1359.24,-145.701 1355.13,-145.503 1351.03,-145.256 1346.95,-144.961 1342.89,-144.619 1338.85,-144.231 1334.85,-143.798 1330.88,-143.321 1326.96,-142.801 1323.08,-142.24 1319.26,-141.639 1315.51,-141 1311.83,-140.324 1308.24,-139.612 1304.74,-138.867 1301.34,-138.091 1298.05,-137.284 1294.9,-136.448 1291.88,-135.585 1289,-134.696 1286.29,-133.782 1283.74,-132.842 1281.38,-131.874 1279.19,-130.876 1277.19,-129.84 1275.39,-128.751 1273.77,-127.583 1272.34,-126.289 1271.12,-124.788 1270.19,-122.986 1269.76,-120.874 1270.03,-118.68 1270.94,-116.734 1272.25,-115.152 1273.81,-113.856 1275.6,-112.745 1277.64,-111.751 1279.93,-110.835 1282.49,-109.978 1285.35,-109.17 1288.49,-108.405 1291.93,-107.681 1295.65,-106.997 1299.65,-106.353 1303.92,-105.749 1308.46,-105.187 1313.24,-104.668 1318.25,-104.192 1323.48,-103.76 1328.91,-103.373 1334.51,-103.033 1340.27,-102.74 1346.16,-102.494 1352.16,-102.297 1358.25,-102.149 1364.41,-102.05 1370.6,-102 1376.8,-102 1382.99,-102.05"/>
<text text-anchor="middle" x="1373.7" y="-120.3" font-family="Times,serif" font-size="14.00">MMMMMMMMMM</text>
</g>
<!-- 0112 -->
<g id="node11" class="node"><title>0112</title>
<polygon fill="none" stroke="black" points="1530.38,-55.0389 1532.15,-55.4174 1533.91,-55.984 1535.64,-56.7369 1537.33,-57.6743 1538.99,-58.7934 1540.61,-60.0912 1542.17,-61.5642 1543.67,-63.2084 1545.11,-65.0192 1546.48,-66.9916 1547.77,-69.1203 1548.99,-71.3994 1550.13,-73.8227 1551.18,-76.3835 1552.14,-79.0748 1553.02,-81.8893 1553.8,-84.8192 1554.48,-87.8565 1555.08,-90.9928 1555.57,-94.2197 1555.98,-97.5281 1556.28,-100.909 1556.5,-104.353 1556.62,-107.852 1556.66,-111.394 1556.6,-114.971 1556.46,-118.573 1556.24,-122.189 1555.94,-125.811 1555.56,-129.427 1555.11,-133.029 1554.59,-136.606 1554,-140.148 1553.36,-143.647 1552.65,-147.091 1551.89,-150.472 1551.09,-153.78 1550.23,-157.007 1549.34,-160.144 1548.41,-163.181 1547.44,-166.111 1546.44,-168.925 1545.42,-171.616 1544.36,-174.177 1543.29,-176.601 1542.2,-178.88 1541.09,-181.008 1539.96,-182.981 1538.83,-184.792 1537.68,-186.436 1536.52,-187.909 1535.36,-189.207 1534.19,-190.326 1533.02,-191.263 1531.84,-192.016 1530.66,-192.583 1529.47,-192.961 1528.29,-193.151 1527.1,-193.151 1525.92,-192.961 1524.74,-192.583 1523.56,-192.016 1522.38,-191.263 1521.2,-190.326 1520.03,-189.207 1518.87,-187.909 1517.71,-186.436 1516.57,-184.792 1515.43,-182.981 1514.31,-181.008 1513.2,-178.88 1512.1,-176.601 1511.03,-174.177 1509.98,-171.616 1508.95,-168.925 1507.95,-166.111 1506.99,-163.181 1506.05,-160.144 1505.16,-157.007 1504.31,-153.78 1503.5,-150.472 1502.74,-147.091 1502.04,-143.647 1501.39,-140.148 1500.81,-136.606 1500.29,-133.029 1499.84,-129.427 1499.46,-125.811 1499.16,-122.189 1498.93,-118.573 1498.79,-114.971 1498.74,-111.394 1498.77,-107.852 1498.89,-104.353 1499.11,-100.909 1499.42,-97.5281 1499.82,-94.2197 1500.32,-90.9928 1500.91,-87.8565 1501.6,-84.8192 1502.38,-81.8893 1503.25,-79.0748 1504.21,-76.3835 1505.26,-73.8227 1506.4,-71.3994 1507.62,-69.1203 1508.92,-66.9916 1510.29,-65.0192 1511.72,-63.2084 1513.23,-61.5642 1514.79,-60.0912 1516.4,-58.7934 1518.06,-57.6743 1519.76,-56.7369 1521.49,-55.984 1523.24,-55.4174 1525.02,-55.0389 1526.8,-54.8493 1528.59,-54.8493 1530.38,-55.0389"/>
<polygon fill="none" stroke="black" points="1531.02,-51.0938 1533.2,-51.56 1535.35,-52.2514 1537.43,-53.1599 1539.46,-54.2762 1541.4,-55.5909 1543.27,-57.0943 1545.05,-58.7779 1546.75,-60.6332 1548.35,-62.6527 1549.87,-64.8291 1551.28,-67.1553 1552.6,-69.6246 1553.82,-72.2301 1554.95,-74.965 1555.97,-77.8221 1556.89,-80.7943 1557.71,-83.874 1558.43,-87.0535 1559.05,-90.3249 1559.57,-93.6798 1559.98,-97.1099 1560.3,-100.607 1560.52,-104.161 1560.65,-107.764 1560.69,-111.406 1560.63,-115.078 1560.49,-118.771 1560.26,-122.475 1559.95,-126.181 1559.56,-129.878 1559.1,-133.559 1558.57,-137.212 1557.97,-140.83 1557.31,-144.401 1556.59,-147.919 1555.82,-151.372 1555,-154.754 1554.12,-158.054 1553.21,-161.266 1552.25,-164.381 1551.26,-167.392 1550.23,-170.291 1549.17,-173.073 1548.08,-175.73 1546.96,-178.258 1545.81,-180.651 1544.63,-182.905 1543.43,-185.015 1542.2,-186.98 1540.93,-188.796 1539.63,-190.46 1538.27,-191.97 1536.86,-193.32 1535.38,-194.502 1533.82,-195.501 1532.16,-196.294 1530.42,-196.852 1528.61,-197.141 1526.78,-197.141 1524.97,-196.852 1523.23,-196.294 1521.58,-195.501 1520.01,-194.502 1518.53,-193.32 1517.12,-191.97 1515.77,-190.46 1514.46,-188.796 1513.19,-186.98 1511.96,-185.015 1510.76,-182.905 1509.58,-180.651 1508.44,-178.258 1507.32,-175.73 1506.23,-173.073 1505.16,-170.291 1504.14,-167.392 1503.14,-164.381 1502.19,-161.266 1501.27,-158.054 1500.4,-154.754 1499.57,-151.372 1498.8,-147.919 1498.08,-144.401 1497.42,-140.83 1496.82,-137.212 1496.29,-133.559 1495.83,-129.878 1495.44,-126.181 1495.14,-122.475 1494.91,-118.771 1494.76,-115.078 1494.71,-111.406 1494.74,-107.764 1494.87,-104.161 1495.09,-100.607 1495.41,-97.1099 1495.83,-93.6798 1496.34,-90.3249 1496.96,-87.0535 1497.68,-83.874 1498.5,-80.7943 1499.42,-77.8221 1500.45,-74.965 1501.57,-72.2301 1502.79,-69.6246 1504.11,-67.1553 1505.53,-64.8291 1507.04,-62.6527 1508.64,-60.6332 1510.34,-58.7779 1512.12,-57.0943 1513.99,-55.5909 1515.94,-54.2762 1517.96,-53.1599 1520.05,-52.2514 1522.19,-51.56 1524.38,-51.0938 1526.59,-50.8591 1528.81,-50.8591 1531.02,-51.0938"/>
<text text-anchor="middle" x="1527.7" y="-157.8" font-family="Times,serif" font-size="14.00">M</text>
<text text-anchor="middle" x="1527.7" y="-142.8" font-family="Times,serif" font-size="14.00">M</text>
<text text-anchor="middle" x="1527.7" y="-127.8" font-family="Times,serif" font-size="14.00">M</text>
<text text-anchor="middle" x="1527.7" y="-112.8" font-family="Times,serif" font-size="14.00">M</text>
<text text-anchor="middle" x="1527.7" y="-97.8" font-family="Times,serif" font-size="14.00">M</text>
<text text-anchor="middle" x="1527.7" y="-82.8" font-family="Times,serif" font-size="14.00">M</text>
</g>
<!-- 0113 -->
<g id="node12" class="node"><title>0113</title>
<polygon fill="none" stroke="black" points="1700.73,-55.0389 1707.37,-55.4174 1713.94,-55.984 1720.41,-56.7369 1726.77,-57.6743 1732.97,-58.7934 1739.01,-60.0912 1744.85,-61.5642 1750.47,-63.2084 1755.86,-65.0192 1760.98,-66.9916 1765.83,-69.1203 1770.39,-71.3994 1774.65,-73.8227 1778.58,-76.3835 1782.19,-79.0748 1785.45,-81.8893 1788.37,-84.8192 1790.94,-87.8565 1793.16,-90.9928 1795.02,-94.2197 1796.53,-97.5281 1797.68,-100.909 1798.49,-104.353 1798.95,-107.852 1799.07,-111.394 1798.87,-114.971 1798.34,-118.573 1797.51,-122.189 1796.38,-125.811 1794.97,-129.427 1793.28,-133.029 1791.33,-136.606 1789.14,-140.148 1786.72,-143.647 1784.09,-147.091 1781.25,-150.472 1778.23,-153.78 1775.04,-157.007 1771.7,-160.144 1768.21,-163.181 1764.59,-166.111 1760.85,-168.925 1757.01,-171.616 1753.07,-174.177 1749.06,-176.601 1744.97,-178.88 1740.81,-181.008 1736.61,-182.981 1732.35,-184.792 1728.06,-186.436 1723.73,-187.909 1719.38,-189.207 1715,-190.326 1710.6,-191.263 1706.19,-192.016 1701.77,-192.583 1697.35,-192.961 1692.91,-193.151 1688.48,-193.151 1684.05,-192.961 1679.62,-192.583 1675.2,-192.016 1670.79,-191.263 1666.39,-190.326 1662.02,-189.207 1657.66,-187.909 1653.33,-186.436 1649.04,-184.792 1644.79,-182.981 1640.58,-181.008 1636.43,-178.88 1632.34,-176.601 1628.32,-174.177 1624.39,-171.616 1620.54,-168.925 1616.81,-166.111 1613.19,-163.181 1609.7,-160.144 1606.35,-157.007 1603.16,-153.78 1600.14,-150.472 1597.3,-147.091 1594.67,-143.647 1592.25,-140.148 1590.06,-136.606 1588.12,-133.029 1586.43,-129.427 1585.01,-125.811 1583.88,-122.189 1583.05,-118.573 1582.52,-114.971 1582.32,-111.394 1582.44,-107.852 1582.9,-104.353 1583.71,-100.909 1584.86,-97.5281 1586.37,-94.2197 1588.23,-90.9928 1590.45,-87.8565 1593.02,-84.8192 1595.94,-81.8893 1599.21,-79.0748 1602.81,-76.3835 1606.75,-73.8227 1611,-71.3994 1615.56,-69.1203 1620.41,-66.9916 1625.54,-65.0192 1630.92,-63.2084 1636.54,-61.5642 1642.38,-60.0912 1648.42,-58.7934 1654.63,-57.6743 1660.98,-56.7369 1667.46,-55.984 1674.03,-55.4174 1680.67,-55.0389 1687.35,-54.8493 1694.04,-54.8493 1700.73,-55.0389"/>
<polygon fill="none" stroke="black" points="1700.9,-51.0519 1707.65,-51.437 1714.34,-52.0137 1720.94,-52.7806 1727.41,-53.7362 1733.75,-54.8786 1739.92,-56.2054 1745.9,-57.714 1751.67,-59.4016 1757.21,-61.2652 1762.51,-63.3016 1767.53,-65.5077 1772.28,-67.8802 1776.73,-70.4158 1780.87,-73.1113 1784.69,-75.9631 1788.18,-78.9675 1791.32,-82.1199 1794.11,-85.4142 1796.53,-88.8426 1798.58,-92.3943 1800.25,-96.0556 1801.53,-99.81 1802.43,-103.638 1802.94,-107.521 1803.08,-111.438 1802.85,-115.372 1802.28,-119.308 1801.37,-123.231 1800.16,-127.132 1798.64,-131 1796.85,-134.828 1794.79,-138.607 1792.49,-142.331 1789.96,-145.992 1787.21,-149.583 1784.27,-153.097 1781.14,-156.526 1777.84,-159.864 1774.38,-163.103 1770.78,-166.235 1767.05,-169.254 1763.2,-172.152 1759.25,-174.922 1755.2,-177.557 1751.06,-180.051 1746.85,-182.397 1742.58,-184.59 1738.24,-186.623 1733.85,-188.491 1729.42,-190.188 1724.95,-191.71 1720.45,-193.053 1715.91,-194.211 1711.36,-195.182 1706.79,-195.963 1702.2,-196.551 1697.6,-196.944 1693,-197.141 1688.39,-197.141 1683.79,-196.944 1679.19,-196.551 1674.61,-195.963 1670.03,-195.182 1665.48,-194.211 1660.95,-193.053 1656.44,-191.71 1651.97,-190.188 1647.54,-188.491 1643.15,-186.623 1638.82,-184.59 1634.54,-182.397 1630.33,-180.051 1626.19,-177.557 1622.15,-174.922 1618.19,-172.152 1614.34,-169.254 1610.61,-166.235 1607.01,-163.103 1603.56,-159.864 1600.26,-156.526 1597.13,-153.097 1594.18,-149.583 1591.43,-145.992 1588.9,-142.331 1586.6,-138.607 1584.55,-134.828 1582.75,-131 1581.24,-127.132 1580.02,-123.231 1579.12,-119.308 1578.54,-115.372 1578.32,-111.438 1578.45,-107.521 1578.97,-103.638 1579.86,-99.81 1581.14,-96.0556 1582.81,-92.3943 1584.86,-88.8426 1587.28,-85.4142 1590.07,-82.1199 1593.21,-78.9675 1596.7,-75.9631 1600.52,-73.1113 1604.66,-70.4158 1609.11,-67.8802 1613.86,-65.5077 1618.89,-63.3016 1624.18,-61.2652 1629.72,-59.4016 1635.49,-57.714 1641.47,-56.2054 1647.64,-54.8786 1653.98,-53.7362 1660.46,-52.7806 1667.05,-52.0137 1673.74,-51.437 1680.5,-51.0519 1687.29,-50.8591 1694.1,-50.8591 1700.9,-51.0519"/>
<text text-anchor="middle" x="1690.7" y="-157.8" font-family="Times,serif" font-size="14.00">MMMMMMMMMM</text>
<text text-anchor="middle" x="1690.7" y="-142.8" font-family="Times,serif" font-size="14.00">MMMMMMMMMM</text>
<text text-anchor="middle" x="1690.7" y="-127.8" font-family="Times,serif" font-size="14.00">MMMMMMMMMM</text>
<text text-anchor="middle" x="1690.7" y="-112.8" font-family="Times,serif" font-size="14.00">MMMMMMMMMM</text>
<text text-anchor="middle" x="1690.7" y="-97.8" font-family="Times,serif" font-size="14.00">MMMMMMMMMM</text>
<text text-anchor="middle" x="1690.7" y="-82.8" font-family="Times,serif" font-size="14.00">MMMMMMMMMM</text>
</g>
<!-- 3000 -->
<g id="node13" class="node"><title>3000</title>
<polygon fill="none" stroke="black" points="37.6967,-602 -0.197686,-567.5 75.591,-567.5 37.6967,-602"/>
<text text-anchor="middle" x="37.6967" y="-575.3" font-family="Times,serif" font-size="14.00">M</text>
</g>
<!-- 3000&#45;&gt;0000 -->
<g id="edge1" class="edge"><title>3000&#45;&gt;0000</title>
<path fill="none" stroke="black" d="M37.6967,-567.249C37.6967,-509.943 37.6967,-239.763 37.6967,-152.354"/>
<polygon fill="black" stroke="black" points="41.1968,-152.173 37.6967,-142.173 34.1968,-152.173 41.1968,-152.173"/>
</g>
<!-- 3001 -->
<g id="node14" class="node"><title>3001</title>
<polygon fill="none" stroke="black" points="280.697,-602 93.3297,-567.5 468.064,-567.5 280.697,-602"/>
<text text-anchor="middle" x="280.697" y="-575.3" font-family="Times,serif" font-size="14.00">MMMMMMMMMM</text>
</g>
<!-- 3002 -->
<g id="node15" class="node"><title>3002</title>
<polygon fill="none" stroke="black" points="526.697,-717.686 485.672,-509.657 567.721,-509.657 526.697,-717.686"/>
<text text-anchor="middle" x="526.697" y="-612.8" font-family="Times,serif" font-size="14.00">M</text>
<text text-anchor="middle" x="526.697" y="-597.8" font-family="Times,serif" font-size="14.00">M</text>
<text text-anchor="middle" x="526.697" y="-582.8" font-family="Times,serif" font-size="14.00">M</text>
<text text-anchor="middle" x="526.697" y="-567.8" font-family="Times,serif" font-size="14.00">M</text>
<text text-anchor="middle" x="526.697" y="-552.8" font-family="Times,serif" font-size="14.00">M</text>
<text text-anchor="middle" x="526.697" y="-537.8" font-family="Times,serif" font-size="14.00">M</text>
</g>
<!-- 3003 -->
<g id="node16" class="node"><title>3003</title>
<polygon fill="none" stroke="black" points="789.697,-717.686 585.903,-509.657 993.49,-509.657 789.697,-717.686"/>
<text text-anchor="middle" x="789.697" y="-612.8" font-family="Times,serif" font-size="14.00">MMMMMMMMMM</text>
<text text-anchor="middle" x="789.697" y="-597.8" font-family="Times,serif" font-size="14.00">MMMMMMMMMM</text>
<text text-anchor="middle" x="789.697" y="-582.8" font-family="Times,serif" font-size="14.00">MMMMMMMMMM</text>
<text text-anchor="middle" x="789.697" y="-567.8" font-family="Times,serif" font-size="14.00">MMMMMMMMMM</text>
<text text-anchor="middle" x="789.697" y="-552.8" font-family="Times,serif" font-size="14.00">MMMMMMMMMM</text>
<text text-anchor="middle" x="789.697" y="-537.8" font-family="Times,serif" font-size="14.00">MMMMMMMMMM</text>
</g>
<!-- 3110 -->
<g id="node17" class="node"><title>3110</title>
<polygon fill="none" stroke="black" points="1022.01,-590.469 1059.7,-556.063 1097.39,-590.469 1022.01,-590.469"/>
<polygon fill="none" stroke="black" points="1011.71,-594.458 1059.7,-550.655 1107.68,-594.458 1011.71,-594.458"/>
<text text-anchor="middle" x="1059.7" y="-575.3" font-family="Times,serif" font-size="14.00">M</text>
</g>
<!-- 3111 -->
<g id="node18" class="node"><title>3111</title>
<polygon fill="none" stroke="black" points="1169.55,-590.529 1356.7,-555.943 1543.84,-590.529 1169.55,-590.529"/>
<polygon fill="none" stroke="black" points="1125.79,-594.539 1356.7,-551.865 1587.6,-594.539 1125.79,-594.539"/>
<text text-anchor="middle" x="1356.7" y="-575.3" font-family="Times,serif" font-size="14.00">MMMMMMMMMM</text>
</g>
<!-- 3112 -->
<g id="node19" class="node"><title>3112</title>
<polygon fill="none" stroke="black" points="1610.79,-648.192 1651.7,-440.616 1692.6,-648.192 1610.79,-648.192"/>
<polygon fill="none" stroke="black" points="1605.94,-652.186 1651.7,-419.98 1697.45,-652.186 1605.94,-652.186"/>
<text text-anchor="middle" x="1651.7" y="-612.8" font-family="Times,serif" font-size="14.00">M</text>
<text text-anchor="middle" x="1651.7" y="-597.8" font-family="Times,serif" font-size="14.00">M</text>
<text text-anchor="middle" x="1651.7" y="-582.8" font-family="Times,serif" font-size="14.00">M</text>
<text text-anchor="middle" x="1651.7" y="-567.8" font-family="Times,serif" font-size="14.00">M</text>
<text text-anchor="middle" x="1651.7" y="-552.8" font-family="Times,serif" font-size="14.00">M</text>
<text text-anchor="middle" x="1651.7" y="-537.8" font-family="Times,serif" font-size="14.00">M</text>
</g>
<!-- 3113 -->
<g id="node20" class="node"><title>3113</title>
<polygon fill="none" stroke="black" points="1724.89,-648.205 1928.7,-440.59 2132.5,-648.205 1724.89,-648.205"/>
<polygon fill="none" stroke="black" points="1715.37,-652.2 1928.7,-434.882 2142.03,-652.2 1715.37,-652.2"/>
<text text-anchor="middle" x="1928.7" y="-612.8" font-family="Times,serif" font-size="14.00">MMMMMMMMMM</text>
<text text-anchor="middle" x="1928.7" y="-597.8" font-family="Times,serif" font-size="14.00">MMMMMMMMMM</text>
<text text-anchor="middle" x="1928.7" y="-582.8" font-family="Times,serif" font-size="14.00">MMMMMMMMMM</text>
<text text-anchor="middle" x="1928.7" y="-567.8" font-family="Times,serif" font-size="14.00">MMMMMMMMMM</text>
<text text-anchor="middle" x="1928.7" y="-552.8" font-family="Times,serif" font-size="14.00">MMMMMMMMMM</text>
<text text-anchor="middle" x="1928.7" y="-537.8" font-family="Times,serif" font-size="14.00">MMMMMMMMMM</text>
</g>
<!-- 4000 -->
<g id="node21" class="node"><title>4000</title>
<polygon fill="none" stroke="black" points="64.6967,-1118 10.6967,-1118 10.6967,-1082 64.6967,-1082 64.6967,-1118"/>
<text text-anchor="middle" x="37.6967" y="-1096.3" font-family="Times,serif" font-size="14.00">M</text>
</g>
<!-- 4000&#45;&gt;3000 -->
<g id="edge2" class="edge"><title>4000&#45;&gt;3000</title>
<path fill="none" stroke="black" d="M37.6967,-1081.73C37.6967,-1007.05 37.6967,-711.2 37.6967,-612.352"/>
<polygon fill="black" stroke="black" points="41.1968,-612.088 37.6967,-602.088 34.1968,-612.088 41.1968,-612.088"/>
</g>
<!-- 4001 -->
<g id="node22" class="node"><title>4001</title>
<polygon fill="none" stroke="black" points="226.697,-1118 82.6967,-1118 82.6967,-1082 226.697,-1082 226.697,-1118"/>
<text text-anchor="middle" x="154.697" y="-1096.3" font-family="Times,serif" font-size="14.00">MMMMMMMMMM</text>
</g>
<!-- 4002 -->
<g id="node23" class="node"><title>4002</title>
<polygon fill="none" stroke="black" points="298.697,-1149 244.697,-1149 244.697,-1051 298.697,-1051 298.697,-1149"/>
<text text-anchor="middle" x="271.697" y="-1133.8" font-family="Times,serif" font-size="14.00">M</text>
<text text-anchor="middle" x="271.697" y="-1118.8" font-family="Times,serif" font-size="14.00">M</text>
<text text-anchor="middle" x="271.697" y="-1103.8" font-family="Times,serif" font-size="14.00">M</text>
<text text-anchor="middle" x="271.697" y="-1088.8" font-family="Times,serif" font-size="14.00">M</text>
<text text-anchor="middle" x="271.697" y="-1073.8" font-family="Times,serif" font-size="14.00">M</text>
<text text-anchor="middle" x="271.697" y="-1058.8" font-family="Times,serif" font-size="14.00">M</text>
</g>
<!-- 4003 -->
<g id="node24" class="node"><title>4003</title>
<polygon fill="none" stroke="black" points="460.697,-1149 316.697,-1149 316.697,-1051 460.697,-1051 460.697,-1149"/>
<text text-anchor="middle" x="388.697" y="-1133.8" font-family="Times,serif" font-size="14.00">MMMMMMMMMM</text>
<text text-anchor="middle" x="388.697" y="-1118.8" font-family="Times,serif" font-size="14.00">MMMMMMMMMM</text>
<text text-anchor="middle" x="388.697" y="-1103.8" font-family="Times,serif" font-size="14.00">MMMMMMMMMM</text>
<text text-anchor="middle" x="388.697" y="-1088.8" font-family="Times,serif" font-size="14.00">MMMMMMMMMM</text>
<text text-anchor="middle" x="388.697" y="-1073.8" font-family="Times,serif" font-size="14.00">MMMMMMMMMM</text>
<text text-anchor="middle" x="388.697" y="-1058.8" font-family="Times,serif" font-size="14.00">MMMMMMMMMM</text>
</g>
<!-- 4110 -->
<g id="node25" class="node"><title>4110</title>
<polygon fill="none" stroke="black" points="512.697,-1117.85 485.529,-1100 512.697,-1082.15 539.864,-1100 512.697,-1117.85"/>
<polygon fill="none" stroke="black" points="512.697,-1122.62 478.273,-1100 512.697,-1077.38 547.12,-1100 512.697,-1122.62"/>
<text text-anchor="middle" x="512.697" y="-1096.3" font-family="Times,serif" font-size="14.00">M</text>
</g>
<!-- 4111 -->
<g id="node26" class="node"><title>4111</title>
<polygon fill="none" stroke="black" points="726.697,-1118.03 594.303,-1100 726.697,-1081.97 859.09,-1100 726.697,-1118.03"/>
<polygon fill="none" stroke="black" points="726.697,-1122.07 564.612,-1100 726.697,-1077.93 888.782,-1100 726.697,-1122.07"/>
<text text-anchor="middle" x="726.697" y="-1096.3" font-family="Times,serif" font-size="14.00">MMMMMMMMMM</text>
</g>
<!-- 4112 -->
<g id="node27" class="node"><title>4112</title>
<polygon fill="none" stroke="black" points="939.697,-1198.08 910.546,-1100 939.697,-1001.92 968.847,-1100 939.697,-1198.08"/>
<polygon fill="none" stroke="black" points="939.697,-1212.19 906.353,-1100 939.697,-987.807 973.04,-1100 939.697,-1212.19"/>
<text text-anchor="middle" x="939.697" y="-1133.8" font-family="Times,serif" font-size="14.00">M</text>
<text text-anchor="middle" x="939.697" y="-1118.8" font-family="Times,serif" font-size="14.00">M</text>
<text text-anchor="middle" x="939.697" y="-1103.8" font-family="Times,serif" font-size="14.00">M</text>
<text text-anchor="middle" x="939.697" y="-1088.8" font-family="Times,serif" font-size="14.00">M</text>
<text text-anchor="middle" x="939.697" y="-1073.8" font-family="Times,serif" font-size="14.00">M</text>
<text text-anchor="middle" x="939.697" y="-1058.8" font-family="Times,serif" font-size="14.00">M</text>
</g>
<!-- 4113 -->
<g id="node28" class="node"><title>4113</title>
<polygon fill="none" stroke="black" points="1141.7,-1197.85 997.592,-1100 1141.7,-1002.15 1285.8,-1100 1141.7,-1197.85"/>
<polygon fill="none" stroke="black" points="1141.7,-1202.68 990.477,-1100 1141.7,-997.323 1292.92,-1100 1141.7,-1202.68"/>
<text text-anchor="middle" x="1141.7" y="-1133.8" font-family="Times,serif" font-size="14.00">MMMMMMMMMM</text>
<text text-anchor="middle" x="1141.7" y="-1118.8" font-family="Times,serif" font-size="14.00">MMMMMMMMMM</text>
<text text-anchor="middle" x="1141.7" y="-1103.8" font-family="Times,serif" font-size="14.00">MMMMMMMMMM</text>
<text text-anchor="middle" x="1141.7" y="-1088.8" font-family="Times,serif" font-size="14.00">MMMMMMMMMM</text>
<text text-anchor="middle" x="1141.7" y="-1073.8" font-family="Times,serif" font-size="14.00">MMMMMMMMMM</text>
<text text-anchor="middle" x="1141.7" y="-1058.8" font-family="Times,serif" font-size="14.00">MMMMMMMMMM</text>
</g>
<!-- 5000 -->
<g id="node29" class="node"><title>5000</title>
<polygon fill="none" stroke="black" points="64.6967,-1517.56 37.6967,-1530 10.6967,-1517.56 21.0097,-1497.44 54.3836,-1497.44 64.6967,-1517.56"/>
<text text-anchor="middle" x="37.6967" y="-1508.3" font-family="Times,serif" font-size="14.00">M</text>
</g>
<!-- 5000&#45;&gt;4000 -->
<g id="edge3" class="edge"><title>5000&#45;&gt;4000</title>
<path fill="none" stroke="black" d="M37.6967,-1497.36C37.6967,-1438.84 37.6967,-1208.37 37.6967,-1128.46"/>
<polygon fill="black" stroke="black" points="41.1968,-1128.22 37.6967,-1118.22 34.1968,-1128.22 41.1968,-1128.22"/>
</g>
<!-- 5001 -->
<g id="node30" class="node"><title>5001</title>
<polygon fill="none" stroke="black" points="314.568,-1517.56 198.697,-1530 82.825,-1517.56 127.084,-1497.44 270.309,-1497.44 314.568,-1517.56"/>
<text text-anchor="middle" x="198.697" y="-1508.3" font-family="Times,serif" font-size="14.00">MMMMMMMMMM</text>
</g>
<!-- 5002 -->
<g id="node31" class="node"><title>5002</title>
<polygon fill="none" stroke="black" points="386.697,-1538.52 359.697,-1597.81 332.697,-1538.52 343.01,-1442.58 376.384,-1442.58 386.697,-1538.52"/>
<text text-anchor="middle" x="359.697" y="-1545.8" font-family="Times,serif" font-size="14.00">M</text>
<text text-anchor="middle" x="359.697" y="-1530.8" font-family="Times,serif" font-size="14.00">M</text>
<text text-anchor="middle" x="359.697" y="-1515.8" font-family="Times,serif" font-size="14.00">M</text>
<text text-anchor="middle" x="359.697" y="-1500.8" font-family="Times,serif" font-size="14.00">M</text>
<text text-anchor="middle" x="359.697" y="-1485.8" font-family="Times,serif" font-size="14.00">M</text>
<text text-anchor="middle" x="359.697" y="-1470.8" font-family="Times,serif" font-size="14.00">M</text>
</g>
<!-- 5003 -->
<g id="node32" class="node"><title>5003</title>
<polygon fill="none" stroke="black" points="656.418,-1538.52 530.697,-1597.81 404.975,-1538.52 452.997,-1442.58 608.397,-1442.58 656.418,-1538.52"/>
<text text-anchor="middle" x="530.697" y="-1545.8" font-family="Times,serif" font-size="14.00">MMMMMMMMMM</text>
<text text-anchor="middle" x="530.697" y="-1530.8" font-family="Times,serif" font-size="14.00">MMMMMMMMMM</text>
<text text-anchor="middle" x="530.697" y="-1515.8" font-family="Times,serif" font-size="14.00">MMMMMMMMMM</text>
<text text-anchor="middle" x="530.697" y="-1500.8" font-family="Times,serif" font-size="14.00">MMMMMMMMMM</text>
<text text-anchor="middle" x="530.697" y="-1485.8" font-family="Times,serif" font-size="14.00">MMMMMMMMMM</text>
<text text-anchor="middle" x="530.697" y="-1470.8" font-family="Times,serif" font-size="14.00">MMMMMMMMMM</text>
</g>
<!-- 5110 -->
<g id="node33" class="node"><title>5110</title>
<polygon fill="none" stroke="black" points="723.364,-1526.5 690.029,-1526.5 679.728,-1506.46 706.697,-1494.08 733.665,-1506.46 723.364,-1526.5"/>
<polygon fill="none" stroke="black" points="725.806,-1530.48 687.587,-1530.48 674.272,-1504.58 706.697,-1489.69 739.121,-1504.58 725.806,-1530.48"/>
<text text-anchor="middle" x="706.697" y="-1508.3" font-family="Times,serif" font-size="14.00">M</text>
</g>
<!-- 5111 -->
<g id="node34" class="node"><title>5111</title>
<polygon fill="none" stroke="black" points="959.271,-1526.58 816.122,-1526.58 771.887,-1506.43 887.697,-1493.98 1003.51,-1506.43 959.271,-1526.58"/>
<polygon fill="none" stroke="black" points="960.14,-1530.58 815.253,-1530.58 756.917,-1504.01 887.697,-1489.95 1018.48,-1504.01 960.14,-1530.58"/>
<text text-anchor="middle" x="887.697" y="-1508.3" font-family="Times,serif" font-size="14.00">MMMMMMMMMM</text>
</g>
<!-- 5112 -->
<g id="node35" class="node"><title>5112</title>
<polygon fill="none" stroke="black" points="1084.43,-1581.15 1050.96,-1581.15 1040.61,-1485.59 1067.7,-1426.53 1094.78,-1485.59 1084.43,-1581.15"/>
<polygon fill="none" stroke="black" points="1088.04,-1585.14 1047.36,-1585.14 1036.51,-1484.93 1067.7,-1416.91 1098.89,-1484.93 1088.04,-1585.14"/>
<text text-anchor="middle" x="1067.7" y="-1545.8" font-family="Times,serif" font-size="14.00">M</text>
<text text-anchor="middle" x="1067.7" y="-1530.8" font-family="Times,serif" font-size="14.00">M</text>
<text text-anchor="middle" x="1067.7" y="-1515.8" font-family="Times,serif" font-size="14.00">M</text>
<text text-anchor="middle" x="1067.7" y="-1500.8" font-family="Times,serif" font-size="14.00">M</text>
<text text-anchor="middle" x="1067.7" y="-1485.8" font-family="Times,serif" font-size="14.00">M</text>
<text text-anchor="middle" x="1067.7" y="-1470.8" font-family="Times,serif" font-size="14.00">M</text>
</g>
<!-- 5113 -->
<g id="node36" class="node"><title>5113</title>
<polygon fill="none" stroke="black" points="1325.35,-1581.35 1170.04,-1581.35 1122.05,-1485.51 1247.7,-1426.27 1373.34,-1485.51 1325.35,-1581.35"/>
<polygon fill="none" stroke="black" points="1327.81,-1585.36 1167.58,-1585.36 1116.64,-1483.63 1247.7,-1421.85 1378.75,-1483.63 1327.81,-1585.36"/>
<text text-anchor="middle" x="1247.7" y="-1545.8" font-family="Times,serif" font-size="14.00">MMMMMMMMMM</text>
<text text-anchor="middle" x="1247.7" y="-1530.8" font-family="Times,serif" font-size="14.00">MMMMMMMMMM</text>
<text text-anchor="middle" x="1247.7" y="-1515.8" font-family="Times,serif" font-size="14.00">MMMMMMMMMM</text>
<text text-anchor="middle" x="1247.7" y="-1500.8" font-family="Times,serif" font-size="14.00">MMMMMMMMMM</text>
<text text-anchor="middle" x="1247.7" y="-1485.8" font-family="Times,serif" font-size="14.00">MMMMMMMMMM</text>
<text text-anchor="middle" x="1247.7" y="-1470.8" font-family="Times,serif" font-size="14.00">MMMMMMMMMM</text>
</g>
<!-- 6000 -->
<g id="node37" class="node"><title>6000</title>
<polygon fill="none" stroke="black" points="64.6967,-1882 51.1967,-1900 24.1967,-1900 10.6967,-1882 24.1967,-1864 51.1967,-1864 64.6967,-1882"/>
<text text-anchor="middle" x="37.6967" y="-1878.3" font-family="Times,serif" font-size="14.00">M</text>
</g>
<!-- 6000&#45;&gt;5000 -->
<g id="edge4" class="edge"><title>6000&#45;&gt;5000</title>
<path fill="none" stroke="black" d="M37.6967,-1863.74C37.6967,-1804.95 37.6967,-1612.12 37.6967,-1540.29"/>
<polygon fill="black" stroke="black" points="41.1968,-1540.22 37.6967,-1530.22 34.1968,-1540.22 41.1968,-1540.22"/>
</g>
<!-- 6001 -->
<g id="node38" class="node"><title>6001</title>
<polygon fill="none" stroke="black" points="298.837,-1882 244.767,-1900 136.626,-1900 82.5558,-1882 136.626,-1864 244.767,-1864 298.837,-1882"/>
<text text-anchor="middle" x="190.697" y="-1878.3" font-family="Times,serif" font-size="14.00">MMMMMMMMMM</text>
</g>
<!-- 6002 -->
<g id="node39" class="node"><title>6002</title>
<polygon fill="none" stroke="black" points="370.697,-1882 357.197,-1962.03 330.197,-1962.03 316.697,-1882 330.197,-1801.97 357.197,-1801.97 370.697,-1882"/>
<text text-anchor="middle" x="343.697" y="-1915.8" font-family="Times,serif" font-size="14.00">M</text>
<text text-anchor="middle" x="343.697" y="-1900.8" font-family="Times,serif" font-size="14.00">M</text>
<text text-anchor="middle" x="343.697" y="-1885.8" font-family="Times,serif" font-size="14.00">M</text>
<text text-anchor="middle" x="343.697" y="-1870.8" font-family="Times,serif" font-size="14.00">M</text>
<text text-anchor="middle" x="343.697" y="-1855.8" font-family="Times,serif" font-size="14.00">M</text>
<text text-anchor="middle" x="343.697" y="-1840.8" font-family="Times,serif" font-size="14.00">M</text>
</g>
<!-- 6003 -->
<g id="node40" class="node"><title>6003</title>
<polygon fill="none" stroke="black" points="624.348,-1882 565.522,-1962.03 447.871,-1962.03 389.046,-1882 447.871,-1801.97 565.522,-1801.97 624.348,-1882"/>
<text text-anchor="middle" x="506.697" y="-1915.8" font-family="Times,serif" font-size="14.00">MMMMMMMMMM</text>
<text text-anchor="middle" x="506.697" y="-1900.8" font-family="Times,serif" font-size="14.00">MMMMMMMMMM</text>
<text text-anchor="middle" x="506.697" y="-1885.8" font-family="Times,serif" font-size="14.00">MMMMMMMMMM</text>
<text text-anchor="middle" x="506.697" y="-1870.8" font-family="Times,serif" font-size="14.00">MMMMMMMMMM</text>
<text text-anchor="middle" x="506.697" y="-1855.8" font-family="Times,serif" font-size="14.00">MMMMMMMMMM</text>
<text text-anchor="middle" x="506.697" y="-1840.8" font-family="Times,serif" font-size="14.00">MMMMMMMMMM</text>
</g>
<!-- 6110 -->
<g id="node41" class="node"><title>6110</title>
<polygon fill="none" stroke="black" points="700.697,-1891.09 673.697,-1900.18 646.697,-1891.09 646.697,-1872.91 673.697,-1863.82 700.697,-1872.91 700.697,-1891.09"/>
<polygon fill="none" stroke="black" points="704.697,-1894 673.697,-1904.43 642.697,-1894 642.697,-1870 673.697,-1859.57 704.697,-1870 704.697,-1894"/>
<text text-anchor="middle" x="673.697" y="-1878.3" font-family="Times,serif" font-size="14.00">M</text>
</g>
<!-- 6111 -->
<g id="node42" class="node"><title>6111</title>
<polygon fill="none" stroke="black" points="942.835,-1891.01 834.697,-1900.01 726.558,-1891.01 726.558,-1872.99 834.697,-1863.99 942.835,-1872.99 942.835,-1891.01"/>
<polygon fill="none" stroke="black" points="946.837,-1894.69 834.697,-1904.03 722.556,-1894.69 722.556,-1869.31 834.697,-1859.97 946.837,-1869.31 946.837,-1894.69"/>
<text text-anchor="middle" x="834.697" y="-1878.3" font-family="Times,serif" font-size="14.00">MMMMMMMMMM</text>
</g>
<!-- 6112 -->
<g id="node43" class="node"><title>6112</title>
<polygon fill="none" stroke="black" points="1022.7,-1922.09 995.697,-1962.17 968.697,-1922.09 968.697,-1841.91 995.697,-1801.83 1022.7,-1841.91 1022.7,-1922.09"/>
<polygon fill="none" stroke="black" points="1026.7,-1923.31 995.697,-1969.33 964.697,-1923.31 964.697,-1840.69 995.697,-1794.67 1026.7,-1840.69 1026.7,-1923.31"/>
<text text-anchor="middle" x="995.697" y="-1915.8" font-family="Times,serif" font-size="14.00">M</text>
<text text-anchor="middle" x="995.697" y="-1900.8" font-family="Times,serif" font-size="14.00">M</text>
<text text-anchor="middle" x="995.697" y="-1885.8" font-family="Times,serif" font-size="14.00">M</text>
<text text-anchor="middle" x="995.697" y="-1870.8" font-family="Times,serif" font-size="14.00">M</text>
<text text-anchor="middle" x="995.697" y="-1855.8" font-family="Times,serif" font-size="14.00">M</text>
<text text-anchor="middle" x="995.697" y="-1840.8" font-family="Times,serif" font-size="14.00">M</text>
</g>
<!-- 6113 -->
<g id="node44" class="node"><title>6113</title>
<polygon fill="none" stroke="black" points="1284.35,-1922.12 1166.7,-1962.25 1049.05,-1922.12 1049.05,-1841.88 1166.7,-1801.75 1284.35,-1841.88 1284.35,-1922.12"/>
<polygon fill="none" stroke="black" points="1288.35,-1925 1166.7,-1966.48 1045.05,-1925 1045.05,-1839 1166.7,-1797.52 1288.35,-1839 1288.35,-1925"/>
<text text-anchor="middle" x="1166.7" y="-1915.8" font-family="Times,serif" font-size="14.00">MMMMMMMMMM</text>
<text text-anchor="middle" x="1166.7" y="-1900.8" font-family="Times,serif" font-size="14.00">MMMMMMMMMM</text>
<text text-anchor="middle" x="1166.7" y="-1885.8" font-family="Times,serif" font-size="14.00">MMMMMMMMMM</text>
<text text-anchor="middle" x="1166.7" y="-1870.8" font-family="Times,serif" font-size="14.00">MMMMMMMMMM</text>
<text text-anchor="middle" x="1166.7" y="-1855.8" font-family="Times,serif" font-size="14.00">MMMMMMMMMM</text>
<text text-anchor="middle" x="1166.7" y="-1840.8" font-family="Times,serif" font-size="14.00">MMMMMMMMMM</text>
</g>
<!-- 7000 -->
<g id="node45" class="node"><title>7000</title>
<polygon fill="none" stroke="black" points="64.6967,-2228.99 59.349,-2244.22 37.6967,-2251 16.0443,-2244.22 10.6967,-2228.99 25.6805,-2216.78 49.7128,-2216.78 64.6967,-2228.99"/>
<text text-anchor="middle" x="37.6967" y="-2229.3" font-family="Times,serif" font-size="14.00">M</text>
</g>
<!-- 7000&#45;&gt;6000 -->
<g id="edge5" class="edge"><title>7000&#45;&gt;6000</title>
<path fill="none" stroke="black" d="M37.6967,-2216.55C37.6967,-2162.33 37.6967,-1980.22 37.6967,-1910.48"/>
<polygon fill="black" stroke="black" points="41.1968,-1910.29 37.6967,-1900.29 34.1968,-1910.29 41.1968,-1910.29"/>
</g>
<!-- 7001 -->
<g id="node46" class="node"><title>7001</title>
<polygon fill="none" stroke="black" points="290.455,-2228.99 269.904,-2244.22 186.697,-2251 103.489,-2244.22 82.9386,-2228.99 140.52,-2216.78 232.873,-2216.78 290.455,-2228.99"/>
<text text-anchor="middle" x="186.697" y="-2229.3" font-family="Times,serif" font-size="14.00">MMMMMMMMMM</text>
</g>
<!-- 7002 -->
<g id="node47" class="node"><title>7002</title>
<polygon fill="none" stroke="black" points="362.697,-2215.9 357.349,-2280.9 335.697,-2309.83 314.044,-2280.9 308.697,-2215.9 323.681,-2163.78 347.713,-2163.78 362.697,-2215.9"/>
<text text-anchor="middle" x="335.697" y="-2266.8" font-family="Times,serif" font-size="14.00">M</text>
<text text-anchor="middle" x="335.697" y="-2251.8" font-family="Times,serif" font-size="14.00">M</text>
<text text-anchor="middle" x="335.697" y="-2236.8" font-family="Times,serif" font-size="14.00">M</text>
<text text-anchor="middle" x="335.697" y="-2221.8" font-family="Times,serif" font-size="14.00">M</text>
<text text-anchor="middle" x="335.697" y="-2206.8" font-family="Times,serif" font-size="14.00">M</text>
<text text-anchor="middle" x="335.697" y="-2191.8" font-family="Times,serif" font-size="14.00">M</text>
</g>
<!-- 7003 -->
<g id="node48" class="node"><title>7003</title>
<polygon fill="none" stroke="black" points="606.728,-2215.9 584.34,-2280.9 493.697,-2309.83 403.053,-2280.9 380.666,-2215.9 443.393,-2163.78 544,-2163.78 606.728,-2215.9"/>
<text text-anchor="middle" x="493.697" y="-2266.8" font-family="Times,serif" font-size="14.00">MMMMMMMMMM</text>
<text text-anchor="middle" x="493.697" y="-2251.8" font-family="Times,serif" font-size="14.00">MMMMMMMMMM</text>
<text text-anchor="middle" x="493.697" y="-2236.8" font-family="Times,serif" font-size="14.00">MMMMMMMMMM</text>
<text text-anchor="middle" x="493.697" y="-2221.8" font-family="Times,serif" font-size="14.00">MMMMMMMMMM</text>
<text text-anchor="middle" x="493.697" y="-2206.8" font-family="Times,serif" font-size="14.00">MMMMMMMMMM</text>
<text text-anchor="middle" x="493.697" y="-2191.8" font-family="Times,serif" font-size="14.00">MMMMMMMMMM</text>
</g>
<!-- 7110 -->
<g id="node49" class="node"><title>7110</title>
<polygon fill="none" stroke="black" points="683.873,-2237.04 668.797,-2249.36 644.609,-2249.36 629.524,-2237.04 634.9,-2221.68 656.69,-2214.84 678.485,-2221.68 683.873,-2237.04"/>
<polygon fill="none" stroke="black" points="688.609,-2238.37 670.231,-2253.39 643.177,-2253.4 624.789,-2238.38 631.769,-2218.44 656.689,-2210.62 681.613,-2218.43 688.609,-2238.37"/>
<text text-anchor="middle" x="656.697" y="-2229.3" font-family="Times,serif" font-size="14.00">M</text>
</g>
<!-- 7111 -->
<g id="node50" class="node"><title>7111</title>
<polygon fill="none" stroke="black" points="923.49,-2237 865.91,-2249.23 773.531,-2249.23 715.915,-2237.01 736.449,-2221.77 819.67,-2214.99 902.911,-2221.77 923.49,-2237"/>
<polygon fill="none" stroke="black" points="933.009,-2239.07 866.329,-2253.23 773.112,-2253.23 706.406,-2239.09 734.987,-2217.88 819.67,-2210.97 904.371,-2217.87 933.009,-2239.07"/>
<text text-anchor="middle" x="819.697" y="-2229.3" font-family="Times,serif" font-size="14.00">MMMMMMMMMM</text>
</g>
<!-- 7112 -->
<g id="node51" class="node"><title>7112</title>
<polygon fill="none" stroke="black" points="1008.74,-2250.12 993.736,-2302.37 969.669,-2302.38 954.659,-2250.15 960.009,-2185.01 981.69,-2156 1003.38,-2184.98 1008.74,-2250.12"/>
<polygon fill="none" stroke="black" points="1012.79,-2250.52 996.755,-2306.37 966.653,-2306.39 950.607,-2250.55 956.11,-2183.53 981.688,-2149.31 1007.27,-2183.5 1012.79,-2250.52"/>
<text text-anchor="middle" x="981.697" y="-2266.8" font-family="Times,serif" font-size="14.00">M</text>
<text text-anchor="middle" x="981.697" y="-2251.8" font-family="Times,serif" font-size="14.00">M</text>
<text text-anchor="middle" x="981.697" y="-2236.8" font-family="Times,serif" font-size="14.00">M</text>
<text text-anchor="middle" x="981.697" y="-2221.8" font-family="Times,serif" font-size="14.00">M</text>
<text text-anchor="middle" x="981.697" y="-2206.8" font-family="Times,serif" font-size="14.00">M</text>
<text text-anchor="middle" x="981.697" y="-2191.8" font-family="Times,serif" font-size="14.00">M</text>
</g>
<!-- 7113 -->
<g id="node52" class="node"><title>7113</title>
<polygon fill="none" stroke="black" points="1261.9,-2250.12 1199.1,-2302.38 1098.34,-2302.4 1035.51,-2250.16 1057.9,-2184.99 1148.67,-2155.98 1239.46,-2184.96 1261.9,-2250.12"/>
<polygon fill="none" stroke="black" points="1266.59,-2251.43 1200.55,-2306.39 1096.9,-2306.41 1030.82,-2251.47 1054.77,-2181.79 1148.67,-2151.77 1242.59,-2181.76 1266.59,-2251.43"/>
<text text-anchor="middle" x="1148.7" y="-2266.8" font-family="Times,serif" font-size="14.00">MMMMMMMMMM</text>
<text text-anchor="middle" x="1148.7" y="-2251.8" font-family="Times,serif" font-size="14.00">MMMMMMMMMM</text>
<text text-anchor="middle" x="1148.7" y="-2236.8" font-family="Times,serif" font-size="14.00">MMMMMMMMMM</text>
<text text-anchor="middle" x="1148.7" y="-2221.8" font-family="Times,serif" font-size="14.00">MMMMMMMMMM</text>
<text text-anchor="middle" x="1148.7" y="-2206.8" font-family="Times,serif" font-size="14.00">MMMMMMMMMM</text>
<text text-anchor="middle" x="1148.7" y="-2191.8" font-family="Times,serif" font-size="14.00">MMMMMMMMMM</text>
</g>
<!-- 8000 -->
<g id="node53" class="node"><title>8000</title>
<polygon fill="none" stroke="black" points="64.6967,-2565.54 64.6967,-2580.46 48.8804,-2591 26.5129,-2591 10.6967,-2580.46 10.6967,-2565.54 26.5129,-2555 48.8804,-2555 64.6967,-2565.54"/>
<text text-anchor="middle" x="37.6967" y="-2569.3" font-family="Times,serif" font-size="14.00">M</text>
</g>
<!-- 8000&#45;&gt;7000 -->
<g id="edge6" class="edge"><title>8000&#45;&gt;7000</title>
<path fill="none" stroke="black" d="M37.6967,-2554.77C37.6967,-2499.85 37.6967,-2328.55 37.6967,-2261.4"/>
<polygon fill="black" stroke="black" points="41.1968,-2261.19 37.6967,-2251.19 34.1968,-2261.19 41.1968,-2261.19"/>
</g>
<!-- 8001 -->
<g id="node54" class="node"><title>8001</title>
<polygon fill="none" stroke="black" points="284.803,-2565.54 284.803,-2580.46 225.576,-2591 141.817,-2591 82.5904,-2580.46 82.5904,-2565.54 141.817,-2555 225.576,-2555 284.803,-2565.54"/>
<text text-anchor="middle" x="183.697" y="-2569.3" font-family="Times,serif" font-size="14.00">MMMMMMMMMM</text>
</g>
<!-- 8002 -->
<g id="node55" class="node"><title>8002</title>
<polygon fill="none" stroke="black" points="356.697,-2541.93 356.697,-2604.07 340.88,-2648.01 318.513,-2648.01 302.697,-2604.07 302.697,-2541.93 318.513,-2497.99 340.88,-2497.99 356.697,-2541.93"/>
<text text-anchor="middle" x="329.697" y="-2606.8" font-family="Times,serif" font-size="14.00">M</text>
<text text-anchor="middle" x="329.697" y="-2591.8" font-family="Times,serif" font-size="14.00">M</text>
<text text-anchor="middle" x="329.697" y="-2576.8" font-family="Times,serif" font-size="14.00">M</text>
<text text-anchor="middle" x="329.697" y="-2561.8" font-family="Times,serif" font-size="14.00">M</text>
<text text-anchor="middle" x="329.697" y="-2546.8" font-family="Times,serif" font-size="14.00">M</text>
<text text-anchor="middle" x="329.697" y="-2531.8" font-family="Times,serif" font-size="14.00">M</text>
</g>
<!-- 8003 -->
<g id="node56" class="node"><title>8003</title>
<polygon fill="none" stroke="black" points="595.123,-2541.93 595.123,-2604.07 530.437,-2648.01 438.957,-2648.01 374.271,-2604.07 374.271,-2541.93 438.957,-2497.99 530.437,-2497.99 595.123,-2541.93"/>
<text text-anchor="middle" x="484.697" y="-2606.8" font-family="Times,serif" font-size="14.00">MMMMMMMMMM</text>
<text text-anchor="middle" x="484.697" y="-2591.8" font-family="Times,serif" font-size="14.00">MMMMMMMMMM</text>
<text text-anchor="middle" x="484.697" y="-2576.8" font-family="Times,serif" font-size="14.00">MMMMMMMMMM</text>
<text text-anchor="middle" x="484.697" y="-2561.8" font-family="Times,serif" font-size="14.00">MMMMMMMMMM</text>
<text text-anchor="middle" x="484.697" y="-2546.8" font-family="Times,serif" font-size="14.00">MMMMMMMMMM</text>
<text text-anchor="middle" x="484.697" y="-2531.8" font-family="Times,serif" font-size="14.00">MMMMMMMMMM</text>
</g>
<!-- 8110 -->
<g id="node57" class="node"><title>8110</title>
<polygon fill="none" stroke="black" points="671.876,-2573 663.915,-2585.81 644.697,-2591.12 625.478,-2585.81 617.517,-2573 625.478,-2560.19 644.697,-2554.88 663.915,-2560.19 671.876,-2573"/>
<polygon fill="none" stroke="black" points="676.616,-2573 666.505,-2589.28 644.697,-2595.3 622.889,-2589.28 612.777,-2573 622.889,-2556.72 644.697,-2550.7 666.505,-2556.72 676.616,-2573"/>
<text text-anchor="middle" x="644.697" y="-2569.3" font-family="Times,serif" font-size="14.00">M</text>
</g>
<!-- 8111 -->
<g id="node58" class="node"><title>8111</title>
<polygon fill="none" stroke="black" points="906.954,-2573 877.296,-2585.73 805.697,-2591.01 734.097,-2585.73 704.44,-2573 734.097,-2560.27 805.697,-2554.99 877.296,-2560.27 906.954,-2573"/>
<polygon fill="none" stroke="black" points="917.095,-2573 878.257,-2589.68 805.697,-2595.02 733.136,-2589.68 694.298,-2573 733.136,-2556.32 805.697,-2550.98 878.257,-2556.32 917.095,-2573"/>
<text text-anchor="middle" x="805.697" y="-2569.3" font-family="Times,serif" font-size="14.00">MMMMMMMMMM</text>
</g>
<!-- 8112 -->
<g id="node59" class="node"><title>8112</title>
<polygon fill="none" stroke="black" points="992.735,-2573 984.816,-2626.11 965.697,-2648.1 946.578,-2626.11 938.658,-2573 946.578,-2519.89 965.697,-2497.9 984.816,-2519.89 992.735,-2573"/>
<polygon fill="none" stroke="black" points="996.785,-2573 988.605,-2627.85 965.697,-2654.21 942.788,-2627.85 934.608,-2573 942.788,-2518.15 965.697,-2491.79 988.605,-2518.15 996.785,-2573"/>
<text text-anchor="middle" x="965.697" y="-2606.8" font-family="Times,serif" font-size="14.00">M</text>
<text text-anchor="middle" x="965.697" y="-2591.8" font-family="Times,serif" font-size="14.00">M</text>
<text text-anchor="middle" x="965.697" y="-2576.8" font-family="Times,serif" font-size="14.00">M</text>
<text text-anchor="middle" x="965.697" y="-2561.8" font-family="Times,serif" font-size="14.00">M</text>
<text text-anchor="middle" x="965.697" y="-2546.8" font-family="Times,serif" font-size="14.00">M</text>
<text text-anchor="middle" x="965.697" y="-2531.8" font-family="Times,serif" font-size="14.00">M</text>
</g>
<!-- 8113 -->
<g id="node60" class="node"><title>8113</title>
<polygon fill="none" stroke="black" points="1239.81,-2573 1207.56,-2626.15 1129.7,-2648.16 1051.84,-2626.15 1019.58,-2573 1051.84,-2519.85 1129.7,-2497.84 1207.56,-2519.85 1239.81,-2573"/>
<polygon fill="none" stroke="black" points="1244.49,-2573 1210.15,-2629.58 1129.7,-2652.32 1049.24,-2629.58 1014.91,-2573 1049.24,-2516.42 1129.7,-2493.68 1210.15,-2516.42 1244.49,-2573"/>
<text text-anchor="middle" x="1129.7" y="-2606.8" font-family="Times,serif" font-size="14.00">MMMMMMMMMM</text>
<text text-anchor="middle" x="1129.7" y="-2591.8" font-family="Times,serif" font-size="14.00">MMMMMMMMMM</text>
<text text-anchor="middle" x="1129.7" y="-2576.8" font-family="Times,serif" font-size="14.00">MMMMMMMMMM</text>
<text text-anchor="middle" x="1129.7" y="-2561.8" font-family="Times,serif" font-size="14.00">MMMMMMMMMM</text>
<text text-anchor="middle" x="1129.7" y="-2546.8" font-family="Times,serif" font-size="14.00">MMMMMMMMMM</text>
<text text-anchor="middle" x="1129.7" y="-2531.8" font-family="Times,serif" font-size="14.00">MMMMMMMMMM</text>
</g>
<!-- 9000 -->
<g id="node61" class="node"><title>9000</title>
<polygon fill="none" stroke="black" points="65.6726,-2865.81 9.72069,-2865.81 23.1633,-2812.19 52.23,-2812.19 65.6726,-2865.81"/>
<text text-anchor="middle" x="37.6967" y="-2835.3" font-family="Times,serif" font-size="14.00">M</text>
</g>
<!-- 9000&#45;&gt;8000 -->
<g id="edge7" class="edge"><title>9000&#45;&gt;8000</title>
<path fill="none" stroke="black" d="M37.6967,-2812.21C37.6967,-2762.28 37.6967,-2652.87 37.6967,-2601.57"/>
<polygon fill="black" stroke="black" points="41.1968,-2601.26 37.6967,-2591.26 34.1968,-2601.26 41.1968,-2601.26"/>
</g>
<!-- 9001 -->
<g id="node62" class="node"><title>9001</title>
<polygon fill="none" stroke="black" points="122.971,-2871.88 83.815,-2832.73 119.83,-2815.53 140.171,-2835.87 122.971,-2871.88"/>
<text text-anchor="middle" x="116.697" y="-2835.3" font-family="Times,serif" font-size="14.00">M</text>
</g>
<!-- 9002 -->
<g id="node63" class="node"><title>9002</title>
<polygon fill="none" stroke="black" points="167.885,-2866.98 167.885,-2811.02 221.509,-2824.47 221.509,-2853.53 167.885,-2866.98"/>
<text text-anchor="middle" x="194.697" y="-2835.3" font-family="Times,serif" font-size="14.00">M</text>
</g>
<!-- 9003 -->
<g id="node64" class="node"><title>9003</title>
<polygon fill="none" stroke="black" points="239.815,-2845.27 278.971,-2806.12 296.171,-2842.13 275.83,-2862.47 239.815,-2845.27"/>
<text text-anchor="middle" x="272.697" y="-2835.3" font-family="Times,serif" font-size="14.00">M</text>
</g>
<!-- 9004 -->
<g id="node65" class="node"><title>9004</title>
<polygon fill="none" stroke="black" points="323.721,-2812.19 379.673,-2812.19 366.23,-2865.81 337.163,-2865.81 323.721,-2812.19"/>
<text text-anchor="middle" x="351.697" y="-2835.3" font-family="Times,serif" font-size="14.00">M</text>
</g>
<!-- 9005 -->
<g id="node66" class="node"><title>9005</title>
<polygon fill="none" stroke="black" points="424.423,-2806.12 463.578,-2845.27 427.563,-2862.47 407.222,-2842.13 424.423,-2806.12"/>
<text text-anchor="middle" x="430.697" y="-2835.3" font-family="Times,serif" font-size="14.00">M</text>
</g>
<!-- 9006 -->
<g id="node67" class="node"><title>9006</title>
<polygon fill="none" stroke="black" points="535.509,-2811.02 535.509,-2866.98 481.885,-2853.53 481.885,-2824.47 535.509,-2811.02"/>
<text text-anchor="middle" x="508.697" y="-2835.3" font-family="Times,serif" font-size="14.00">M</text>
</g>
<!-- 9007 -->
<g id="node68" class="node"><title>9007</title>
<polygon fill="none" stroke="black" points="619.578,-2832.73 580.423,-2871.88 563.222,-2835.87 583.563,-2815.53 619.578,-2832.73"/>
<text text-anchor="middle" x="586.697" y="-2835.3" font-family="Times,serif" font-size="14.00">M</text>
</g>
<!-- 9010 -->
<g id="node69" class="node"><title>9010</title>
<polygon fill="none" stroke="black" points="698.316,-2865.79 643.077,-2865.79 656.349,-2812.21 685.045,-2812.21 698.316,-2865.79"/>
<polygon fill="none" stroke="black" points="703.417,-2869.81 637.976,-2869.81 653.239,-2808.19 688.155,-2808.19 703.417,-2869.81"/>
<text text-anchor="middle" x="670.697" y="-2835.3" font-family="Times,serif" font-size="14.00">M</text>
</g>
<!-- 9011 -->
<g id="node70" class="node"><title>9011</title>
<polygon fill="none" stroke="black" points="767.946,-2871.75 728.946,-2832.75 764.817,-2815.62 785.078,-2835.88 767.946,-2871.75"/>
<polygon fill="none" stroke="black" points="769.11,-2878.54 722.157,-2831.59 765.641,-2810.82 789.878,-2835.06 769.11,-2878.54"/>
<text text-anchor="middle" x="761.697" y="-2835.3" font-family="Times,serif" font-size="14.00">M</text>
</g>
<!-- 9012 -->
<g id="node71" class="node"><title>9012</title>
<polygon fill="none" stroke="black" points="822.905,-2866.62 822.905,-2811.38 876.488,-2824.65 876.488,-2853.35 822.905,-2866.62"/>
<polygon fill="none" stroke="black" points="818.885,-2871.72 818.885,-2806.28 880.509,-2821.54 880.509,-2856.46 818.885,-2871.72"/>
<text text-anchor="middle" x="849.697" y="-2835.3" font-family="Times,serif" font-size="14.00">M</text>
</g>
<!-- 9013 -->
<g id="node72" class="node"><title>9013</title>
<polygon fill="none" stroke="black" points="904.946,-2845.25 943.946,-2806.25 961.078,-2842.12 940.817,-2862.38 904.946,-2845.25"/>
<polygon fill="none" stroke="black" points="898.157,-2846.41 945.11,-2799.46 965.878,-2842.94 941.641,-2867.18 898.157,-2846.41"/>
<text text-anchor="middle" x="937.697" y="-2835.3" font-family="Times,serif" font-size="14.00">M</text>
</g>
<!-- 9014 -->
<g id="node73" class="node"><title>9014</title>
<polygon fill="none" stroke="black" points="1001.08,-2812.21 1056.32,-2812.21 1043.04,-2865.79 1014.35,-2865.79 1001.08,-2812.21"/>
<polygon fill="none" stroke="black" points="995.976,-2808.19 1061.42,-2808.19 1046.15,-2869.81 1011.24,-2869.81 995.976,-2808.19"/>
<text text-anchor="middle" x="1028.7" y="-2835.3" font-family="Times,serif" font-size="14.00">M</text>
</g>
<!-- 9015 -->
<g id="node74" class="node"><title>9015</title>
<polygon fill="none" stroke="black" points="1113.45,-2806.25 1152.45,-2845.25 1116.58,-2862.38 1096.32,-2842.12 1113.45,-2806.25"/>
<polygon fill="none" stroke="black" points="1112.28,-2799.46 1159.24,-2846.41 1115.75,-2867.18 1091.52,-2842.94 1112.28,-2799.46"/>
<text text-anchor="middle" x="1119.7" y="-2835.3" font-family="Times,serif" font-size="14.00">M</text>
</g>
<!-- 9016 -->
<g id="node75" class="node"><title>9016</title>
<polygon fill="none" stroke="black" points="1234.49,-2811.38 1234.49,-2866.62 1180.91,-2853.35 1180.91,-2824.65 1234.49,-2811.38"/>
<polygon fill="none" stroke="black" points="1238.51,-2806.28 1238.51,-2871.72 1176.88,-2856.46 1176.88,-2821.54 1238.51,-2806.28"/>
<text text-anchor="middle" x="1207.7" y="-2835.3" font-family="Times,serif" font-size="14.00">M</text>
</g>
<!-- 9017 -->
<g id="node76" class="node"><title>9017</title>
<polygon fill="none" stroke="black" points="1328.45,-2832.75 1289.45,-2871.75 1272.32,-2835.88 1292.58,-2815.62 1328.45,-2832.75"/>
<polygon fill="none" stroke="black" points="1335.24,-2831.59 1288.28,-2878.54 1267.52,-2835.06 1291.75,-2810.82 1335.24,-2831.59"/>
<text text-anchor="middle" x="1295.7" y="-2835.3" font-family="Times,serif" font-size="14.00">M</text>
</g>
</g>
</svg>
