<?xml version="1.0" encoding="UTF-8" standalone="no"?>
<!DOCTYPE svg PUBLIC "-//W3C//DTD SVG 1.1//EN"
 "http://www.w3.org/Graphics/SVG/1.1/DTD/svg11.dtd">
<!-- Generated by graphviz version 2.38.0 (20140413.2041)
 -->
<!-- Title: G Pages: 1 -->
<svg width="916pt" height="340pt"
 viewBox="0.00 0.00 916.00 340.00" xmlns="http://www.w3.org/2000/svg" xmlns:xlink="http://www.w3.org/1999/xlink">
<g id="graph0" class="graph" transform="scale(1 1) rotate(0) translate(4 336)">
<title>G</title>
<polygon fill="white" stroke="none" points="-4,4 -4,-336 912,-336 912,4 -4,4"/>
<!-- AvantGarde&#45;Book -->
<g id="node1" class="node"><title>AvantGarde&#45;Book</title>
<polygon fill="none" stroke="black" points="28.5,-7 28.5,-28 158.5,-28 158.5,-7 28.5,-7"/>
<text text-anchor="start" x="31.5" y="-13.8" font-family="URW Gothic L,sans-Serif" font-weight="book" font-size="14.00">AvantGarde&#45;Book</text>
<polygon fill="none" stroke="black" points="25.5,-4.5 25.5,-31.5 161.5,-31.5 161.5,-4.5 25.5,-4.5"/>
</g>
<!-- AvantGarde&#45;Demi -->
<g id="node2" class="node"><title>AvantGarde&#45;Demi</title>
<polygon fill="none" stroke="black" points="254,-7 254,-28 387,-28 387,-7 254,-7"/>
<text text-anchor="start" x="257" y="-13.8" font-family="URW Gothic L,sans-Serif" font-weight="demi" font-size="14.00">AvantGarde&#45;Demi</text>
<polygon fill="none" stroke="black" points="250.5,-4.5 250.5,-31.5 389.5,-31.5 389.5,-4.5 250.5,-4.5"/>
</g>
<!-- AvantGarde&#45;Book&#45;&gt;AvantGarde&#45;Demi -->
<g id="edge1" class="edge"><title>AvantGarde&#45;Book&#45;&gt;AvantGarde&#45;Demi</title>
<path fill="none" stroke="green" d="M161.553,-18C186.305,-18 214.576,-18 240.269,-18"/>
<polygon fill="green" stroke="green" points="240.349,-21.5001 250.349,-18 240.349,-14.5001 240.349,-21.5001"/>
</g>
<!-- AvantGarde&#45;BookOblique -->
<g id="node3" class="node"><title>AvantGarde&#45;BookOblique</title>
<polygon fill="none" stroke="black" points="456,-7 456,-28 640,-28 640,-7 456,-7"/>
<text text-anchor="start" x="459" y="-13.8" font-family="URW Gothic L,sans-Serif" font-weight="book" font-style="oblique" font-size="14.00">AvantGarde&#45;BookOblique</text>
<polygon fill="none" stroke="black" points="453,-4.5 453,-31.5 643,-31.5 643,-4.5 453,-4.5"/>
</g>
<!-- AvantGarde&#45;Demi&#45;&gt;AvantGarde&#45;BookOblique -->
<g id="edge2" class="edge"><title>AvantGarde&#45;Demi&#45;&gt;AvantGarde&#45;BookOblique</title>
<path fill="none" stroke="green" d="M389.728,-18C406.415,-18 424.632,-18 442.56,-18"/>
<polygon fill="green" stroke="green" points="442.772,-21.5001 452.772,-18 442.772,-14.5001 442.772,-21.5001"/>
</g>
<!-- AvantGarde&#45;DemiOblique -->
<g id="node4" class="node"><title>AvantGarde&#45;DemiOblique</title>
<polygon fill="none" stroke="black" points="700.5,-7 700.5,-28 887.5,-28 887.5,-7 700.5,-7"/>
<text text-anchor="start" x="703.5" y="-13.8" font-family="URW Gothic L,sans-Serif" font-weight="demi" font-style="oblique" font-size="14.00">AvantGarde&#45;DemiOblique</text>
<polygon fill="none" stroke="black" points="697,-4.5 697,-31.5 890,-31.5 890,-4.5 697,-4.5"/>
</g>
<!-- AvantGarde&#45;BookOblique&#45;&gt;AvantGarde&#45;DemiOblique -->
<g id="edge3" class="edge"><title>AvantGarde&#45;BookOblique&#45;&gt;AvantGarde&#45;DemiOblique</title>
<path fill="none" stroke="green" d="M643.143,-18C657.497,-18 672.39,-18 686.968,-18"/>
<polygon fill="green" stroke="green" points="686.999,-21.5001 696.999,-18 686.999,-14.5001 686.999,-21.5001"/>
</g>
<!-- Bookman&#45;Light -->
<g id="node5" class="node"><title>Bookman&#45;Light</title>
<polygon fill="none" stroke="black" points="37.5,-44 37.5,-65 149.5,-65 149.5,-44 37.5,-44"/>
<text text-anchor="start" x="40.5" y="-50.8" font-family="URW Bookman L,serif" font-weight="light" font-size="14.00">Bookman&#45;Light</text>
<polygon fill="none" stroke="black" points="34.5,-41.5 34.5,-68.5 152.5,-68.5 152.5,-41.5 34.5,-41.5"/>
</g>
<!-- Bookman&#45;Demi -->
<g id="node6" class="node"><title>Bookman&#45;Demi</title>
<polygon fill="none" stroke="black" points="263,-44 263,-65 377,-65 377,-44 263,-44"/>
<text text-anchor="start" x="266" y="-50.8" font-family="URW Bookman L,serif" font-weight="demi" font-size="14.00">Bookman&#45;Demi</text>
<polygon fill="none" stroke="black" points="260,-41.5 260,-68.5 380,-68.5 380,-41.5 260,-41.5"/>
</g>
<!-- Bookman&#45;Light&#45;&gt;Bookman&#45;Demi -->
<g id="edge4" class="edge"><title>Bookman&#45;Light&#45;&gt;Bookman&#45;Demi</title>
<path fill="none" stroke="green" d="M152.606,-55C182.254,-55 218.529,-55 249.633,-55"/>
<polygon fill="green" stroke="green" points="249.966,-58.5001 259.966,-55 249.966,-51.5001 249.966,-58.5001"/>
</g>
<!-- Bookman&#45;LightItalic -->
<g id="node7" class="node"><title>Bookman&#45;LightItalic</title>
<polygon fill="none" stroke="black" points="479,-44 479,-65 618,-65 618,-44 479,-44"/>
<text text-anchor="start" x="482" y="-50.8" font-family="URW Bookman L,serif" font-weight="light" font-style="italic" font-size="14.00">Bookman&#45;LightItalic</text>
<polygon fill="none" stroke="black" points="475.5,-41.5 475.5,-68.5 620.5,-68.5 620.5,-41.5 475.5,-41.5"/>
</g>
<!-- Bookman&#45;Demi&#45;&gt;Bookman&#45;LightItalic -->
<g id="edge5" class="edge"><title>Bookman&#45;Demi&#45;&gt;Bookman&#45;LightItalic</title>
<path fill="none" stroke="green" d="M380.084,-55C406.059,-55 436.998,-55 465.142,-55"/>
<polygon fill="green" stroke="green" points="465.37,-58.5001 475.37,-55 465.37,-51.5001 465.37,-58.5001"/>
</g>
<!-- Bookman&#45;DemiItalic -->
<g id="node8" class="node"><title>Bookman&#45;DemiItalic</title>
<polygon fill="none" stroke="black" points="723.5,-44 723.5,-65 863.5,-65 863.5,-44 723.5,-44"/>
<text text-anchor="start" x="726.5" y="-50.8" font-family="URW Bookman L,serif" font-weight="demi" font-style="italic" font-size="14.00">Bookman&#45;DemiItalic</text>
<polygon fill="none" stroke="black" points="720.5,-41.5 720.5,-68.5 866.5,-68.5 866.5,-41.5 720.5,-41.5"/>
</g>
<!-- Bookman&#45;LightItalic&#45;&gt;Bookman&#45;DemiItalic -->
<g id="edge6" class="edge"><title>Bookman&#45;LightItalic&#45;&gt;Bookman&#45;DemiItalic</title>
<path fill="none" stroke="green" d="M620.741,-55C648.851,-55 681.265,-55 710.31,-55"/>
<polygon fill="green" stroke="green" points="710.43,-58.5001 720.43,-55 710.43,-51.5001 710.43,-58.5001"/>
</g>
<!-- Courier -->
<g id="node9" class="node"><title>Courier</title>
<polygon fill="none" stroke="black" points="61.5,-81 61.5,-102 125.5,-102 125.5,-81 61.5,-81"/>
<text text-anchor="start" x="64.5" y="-87.8" font-family="Courier,monospace" font-size="14.00">Courier</text>
<polygon fill="none" stroke="black" points="58.5,-78.5 58.5,-105.5 128.5,-105.5 128.5,-78.5 58.5,-78.5"/>
</g>
<!-- Courier&#45;Bold -->
<g id="node10" class="node"><title>Courier&#45;Bold</title>
<polygon fill="none" stroke="black" points="267,-81 267,-102 373,-102 373,-81 267,-81"/>
<text text-anchor="start" x="270" y="-87.8" font-family="Courier,monospace" font-weight="bold" font-size="14.00">Courier&#45;Bold</text>
<polygon fill="none" stroke="black" points="264,-78.5 264,-105.5 376,-105.5 376,-78.5 264,-78.5"/>
</g>
<!-- Courier&#45;&gt;Courier&#45;Bold -->
<g id="edge7" class="edge"><title>Courier&#45;&gt;Courier&#45;Bold</title>
<path fill="none" stroke="green" d="M128.597,-92C161.616,-92 212.546,-92 253.427,-92"/>
<polygon fill="green" stroke="green" points="253.587,-95.5001 263.587,-92 253.587,-88.5001 253.587,-95.5001"/>
</g>
<!-- Courier&#45;Oblique -->
<g id="node11" class="node"><title>Courier&#45;Oblique</title>
<polygon fill="none" stroke="black" points="483,-81 483,-102 613,-102 613,-81 483,-81"/>
<text text-anchor="start" x="486" y="-87.8" font-family="Courier,monospace" font-style="oblique" font-size="14.00">Courier&#45;Oblique</text>
<polygon fill="none" stroke="black" points="480,-78.5 480,-105.5 616,-105.5 616,-78.5 480,-78.5"/>
</g>
<!-- Courier&#45;Bold&#45;&gt;Courier&#45;Oblique -->
<g id="edge8" class="edge"><title>Courier&#45;Bold&#45;&gt;Courier&#45;Oblique</title>
<path fill="none" stroke="green" d="M376.286,-92C404.346,-92 438.896,-92 469.557,-92"/>
<polygon fill="green" stroke="green" points="469.791,-95.5001 479.791,-92 469.791,-88.5001 469.791,-95.5001"/>
</g>
<!-- Courier&#45;BoldOblique -->
<g id="node12" class="node"><title>Courier&#45;BoldOblique</title>
<polygon fill="none" stroke="black" points="712.5,-81 712.5,-102 875.5,-102 875.5,-81 712.5,-81"/>
<text text-anchor="start" x="715.5" y="-87.8" font-family="Courier,monospace" font-weight="bold" font-style="oblique" font-size="14.00">Courier&#45;BoldOblique</text>
<polygon fill="none" stroke="black" points="709,-78.5 709,-105.5 878,-105.5 878,-78.5 709,-78.5"/>
</g>
<!-- Courier&#45;Oblique&#45;&gt;Courier&#45;BoldOblique -->
<g id="edge9" class="edge"><title>Courier&#45;Oblique&#45;&gt;Courier&#45;BoldOblique</title>
<path fill="none" stroke="green" d="M616.182,-92C641.633,-92 671.095,-92 698.562,-92"/>
<polygon fill="green" stroke="green" points="698.58,-95.5001 708.58,-92 698.58,-88.5001 698.58,-95.5001"/>
</g>
<!-- Helvetica -->
<g id="node13" class="node"><title>Helvetica</title>
<polygon fill="none" stroke="black" points="62.5,-118 62.5,-139 124.5,-139 124.5,-118 62.5,-118"/>
<text text-anchor="start" x="65.5" y="-124.8" font-family="Helvetica,sans-Serif" font-size="14.00">Helvetica</text>
<polygon fill="none" stroke="black" points="59.5,-115.5 59.5,-142.5 127.5,-142.5 127.5,-115.5 59.5,-115.5"/>
</g>
<!-- Helvetica&#45;Bold -->
<g id="node14" class="node"><title>Helvetica&#45;Bold</title>
<polygon fill="none" stroke="black" points="270,-118 270,-139 370,-139 370,-118 270,-118"/>
<text text-anchor="start" x="273" y="-124.8" font-family="Helvetica,sans-Serif" font-weight="bold" font-size="14.00">Helvetica&#45;Bold</text>
<polygon fill="none" stroke="black" points="267,-115.5 267,-142.5 373,-142.5 373,-115.5 267,-115.5"/>
</g>
<!-- Helvetica&#45;&gt;Helvetica&#45;Bold -->
<g id="edge10" class="edge"><title>Helvetica&#45;&gt;Helvetica&#45;Bold</title>
<path fill="none" stroke="green" d="M127.626,-129C161.542,-129 215.067,-129 256.897,-129"/>
<polygon fill="green" stroke="green" points="256.988,-132.5 266.988,-129 256.988,-125.5 256.988,-132.5"/>
</g>
<!-- Helvetica&#45;Oblique -->
<g id="node15" class="node"><title>Helvetica&#45;Oblique</title>
<polygon fill="none" stroke="black" points="491,-118 491,-139 605,-139 605,-118 491,-118"/>
<text text-anchor="start" x="494" y="-124.8" font-family="Helvetica,sans-Serif" font-style="oblique" font-size="14.00">Helvetica&#45;Oblique</text>
<polygon fill="none" stroke="black" points="488,-115.5 488,-142.5 608,-142.5 608,-115.5 488,-115.5"/>
</g>
<!-- Helvetica&#45;Bold&#45;&gt;Helvetica&#45;Oblique -->
<g id="edge11" class="edge"><title>Helvetica&#45;Bold&#45;&gt;Helvetica&#45;Oblique</title>
<path fill="none" stroke="green" d="M373.133,-129C404.203,-129 444.023,-129 477.715,-129"/>
<polygon fill="green" stroke="green" points="477.957,-132.5 487.957,-129 477.957,-125.5 477.957,-132.5"/>
</g>
<!-- Helvetica&#45;BoldOblique -->
<g id="node16" class="node"><title>Helvetica&#45;BoldOblique</title>
<polygon fill="none" stroke="black" points="718.5,-118 718.5,-139 869.5,-139 869.5,-118 718.5,-118"/>
<text text-anchor="start" x="721.5" y="-124.8" font-family="Helvetica,sans-Serif" font-weight="bold" font-style="oblique" font-size="14.00">Helvetica&#45;BoldOblique</text>
<polygon fill="none" stroke="black" points="715,-115.5 715,-142.5 872,-142.5 872,-115.5 715,-115.5"/>
</g>
<!-- Helvetica&#45;Oblique&#45;&gt;Helvetica&#45;BoldOblique -->
<g id="edge12" class="edge"><title>Helvetica&#45;Oblique&#45;&gt;Helvetica&#45;BoldOblique</title>
<path fill="none" stroke="green" d="M608.255,-129C637.218,-129 672.653,-129 704.683,-129"/>
<polygon fill="green" stroke="green" points="704.951,-132.5 714.95,-129 704.95,-125.5 704.951,-132.5"/>
</g>
<!-- Helvetica&#45;Narrow -->
<g id="node17" class="node"><title>Helvetica&#45;Narrow</title>
<polygon fill="none" stroke="black" points="45.5,-155 45.5,-176 141.5,-176 141.5,-155 45.5,-155"/>
<text text-anchor="start" x="48.5" y="-161.8" font-family="Helvetica,sans-Serif" font-stretch="condensed" font-size="14.00">Helvetica&#45;Narrow</text>
<polygon fill="none" stroke="black" points="42.5,-152.5 42.5,-179.5 144.5,-179.5 144.5,-152.5 42.5,-152.5"/>
</g>
<!-- Helvetica&#45;Narrow&#45;Bold -->
<g id="node18" class="node"><title>Helvetica&#45;Narrow&#45;Bold</title>
<polygon fill="none" stroke="black" points="255,-155 255,-176 385,-176 385,-155 255,-155"/>
<text text-anchor="start" x="258" y="-161.8" font-family="Helvetica,sans-Serif" font-weight="bold" font-stretch="condensed" font-size="14.00">Helvetica&#45;Narrow&#45;Bold</text>
<polygon fill="none" stroke="black" points="252,-152.5 252,-179.5 388,-179.5 388,-152.5 252,-152.5"/>
</g>
<!-- Helvetica&#45;Narrow&#45;&gt;Helvetica&#45;Narrow&#45;Bold -->
<g id="edge13" class="edge"><title>Helvetica&#45;Narrow&#45;&gt;Helvetica&#45;Narrow&#45;Bold</title>
<path fill="none" stroke="green" d="M144.603,-166C173.055,-166 209.287,-166 241.346,-166"/>
<polygon fill="green" stroke="green" points="241.593,-169.5 251.593,-166 241.593,-162.5 241.593,-169.5"/>
</g>
<!-- Helvetica&#45;Narrow&#45;Oblique -->
<g id="node19" class="node"><title>Helvetica&#45;Narrow&#45;Oblique</title>
<polygon fill="none" stroke="black" points="478,-155 478,-176 618,-176 618,-155 478,-155"/>
<text text-anchor="start" x="481" y="-161.8" font-family="Helvetica,sans-Serif" font-stretch="condensed" font-style="oblique" font-size="14.00">Helvetica&#45;Narrow&#45;Oblique</text>
<polygon fill="none" stroke="black" points="475,-152.5 475,-179.5 621,-179.5 621,-152.5 475,-152.5"/>
</g>
<!-- Helvetica&#45;Narrow&#45;Bold&#45;&gt;Helvetica&#45;Narrow&#45;Oblique -->
<g id="edge14" class="edge"><title>Helvetica&#45;Narrow&#45;Bold&#45;&gt;Helvetica&#45;Narrow&#45;Oblique</title>
<path fill="none" stroke="green" d="M388.196,-166C412.211,-166 439.549,-166 464.693,-166"/>
<polygon fill="green" stroke="green" points="464.946,-169.5 474.946,-166 464.946,-162.5 464.946,-169.5"/>
</g>
<!-- Helvetica&#45;Narrow&#45;BoldOblique -->
<g id="node20" class="node"><title>Helvetica&#45;Narrow&#45;BoldOblique</title>
<polygon fill="none" stroke="black" points="707.5,-155 707.5,-176 879.5,-176 879.5,-155 707.5,-155"/>
<text text-anchor="start" x="710.5" y="-161.8" font-family="Helvetica,sans-Serif" font-weight="bold" font-stretch="condensed" font-style="oblique" font-size="14.00">Helvetica&#45;Narrow&#45;BoldOblique</text>
<polygon fill="none" stroke="black" points="704.5,-152.5 704.5,-179.5 882.5,-179.5 882.5,-152.5 704.5,-152.5"/>
</g>
<!-- Helvetica&#45;Narrow&#45;Oblique&#45;&gt;Helvetica&#45;Narrow&#45;BoldOblique -->
<g id="edge15" class="edge"><title>Helvetica&#45;Narrow&#45;Oblique&#45;&gt;Helvetica&#45;Narrow&#45;BoldOblique</title>
<path fill="none" stroke="green" d="M621.07,-166C643.995,-166 669.758,-166 694.208,-166"/>
<polygon fill="green" stroke="green" points="694.229,-169.5 704.229,-166 694.229,-162.5 694.229,-169.5"/>
</g>
<!-- NewCenturySchlbk&#45;Roman -->
<g id="node21" class="node"><title>NewCenturySchlbk&#45;Roman</title>
<polygon fill="none" stroke="black" points="3.5,-192 3.5,-213 184.5,-213 184.5,-192 3.5,-192"/>
<text text-anchor="start" x="6.5" y="-198.8" font-family="Century Schoolbook L,serif" font-weight="roman" font-size="14.00">NewCenturySchlbk&#45;Roman</text>
<polygon fill="none" stroke="black" points="0,-189.5 0,-216.5 187,-216.5 187,-189.5 0,-189.5"/>
</g>
<!-- NewCenturySchlbk&#45;Bold -->
<g id="node22" class="node"><title>NewCenturySchlbk&#45;Bold</title>
<polygon fill="none" stroke="black" points="226,-192 226,-213 414,-213 414,-192 226,-192"/>
<text text-anchor="start" x="229" y="-198.8" font-family="Century Schoolbook L,serif" font-weight="bold" font-size="14.00">NewCenturySchlbk&#45;Bold</text>
<polygon fill="none" stroke="black" points="223,-189.5 223,-216.5 417,-216.5 417,-189.5 223,-189.5"/>
</g>
<!-- NewCenturySchlbk&#45;Roman&#45;&gt;NewCenturySchlbk&#45;Bold -->
<g id="edge16" class="edge"><title>NewCenturySchlbk&#45;Roman&#45;&gt;NewCenturySchlbk&#45;Bold</title>
<path fill="none" stroke="green" d="M187.109,-203C195.617,-203 204.28,-203 212.894,-203"/>
<polygon fill="green" stroke="green" points="212.973,-206.5 222.973,-203 212.973,-199.5 212.973,-206.5"/>
</g>
<!-- NewCenturySchlbk&#45;Italic -->
<g id="node23" class="node"><title>NewCenturySchlbk&#45;Italic</title>
<polygon fill="none" stroke="black" points="465,-192 465,-213 632,-213 632,-192 465,-192"/>
<text text-anchor="start" x="468" y="-198.8" font-family="Century Schoolbook L,serif" font-style="italic" font-size="14.00">NewCenturySchlbk&#45;Italic</text>
<polygon fill="none" stroke="black" points="461.5,-189.5 461.5,-216.5 634.5,-216.5 634.5,-189.5 461.5,-189.5"/>
</g>
<!-- NewCenturySchlbk&#45;Bold&#45;&gt;NewCenturySchlbk&#45;Italic -->
<g id="edge17" class="edge"><title>NewCenturySchlbk&#45;Bold&#45;&gt;NewCenturySchlbk&#45;Italic</title>
<path fill="none" stroke="green" d="M417.172,-203C428.394,-203 439.842,-203 451.061,-203"/>
<polygon fill="green" stroke="green" points="451.286,-206.5 461.286,-203 451.286,-199.5 451.286,-206.5"/>
</g>
<!-- NewCenturySchlbk&#45;BoldItalic -->
<g id="node24" class="node"><title>NewCenturySchlbk&#45;BoldItalic</title>
<polygon fill="none" stroke="black" points="682.5,-192 682.5,-213 905.5,-213 905.5,-192 682.5,-192"/>
<text text-anchor="start" x="685.5" y="-198.8" font-family="Century Schoolbook L,serif" font-weight="bold" font-style="italic" font-size="14.00">NewCenturySchlbk&#45;BoldItalic</text>
<polygon fill="none" stroke="black" points="679,-189.5 679,-216.5 908,-216.5 908,-189.5 679,-189.5"/>
</g>
<!-- NewCenturySchlbk&#45;Italic&#45;&gt;NewCenturySchlbk&#45;BoldItalic -->
<g id="edge18" class="edge"><title>NewCenturySchlbk&#45;Italic&#45;&gt;NewCenturySchlbk&#45;BoldItalic</title>
<path fill="none" stroke="green" d="M634.507,-203C645.635,-203 657.209,-203 668.806,-203"/>
<polygon fill="green" stroke="green" points="668.992,-206.5 678.992,-203 668.992,-199.5 668.992,-206.5"/>
</g>
<!-- Palatino&#45;Roman -->
<g id="node25" class="node"><title>Palatino&#45;Roman</title>
<polygon fill="none" stroke="black" points="41.5,-229 41.5,-250 145.5,-250 145.5,-229 41.5,-229"/>
<text text-anchor="start" x="44.5" y="-235.8" font-family="Palatino Linotype,serif" font-weight="roman" font-size="14.00">Palatino&#45;Roman</text>
<polygon fill="none" stroke="black" points="38.5,-226.5 38.5,-253.5 148.5,-253.5 148.5,-226.5 38.5,-226.5"/>
</g>
<!-- Palatino&#45;Bold -->
<g id="node26" class="node"><title>Palatino&#45;Bold</title>
<polygon fill="none" stroke="black" points="275,-229 275,-250 366,-250 366,-229 275,-229"/>
<text text-anchor="start" x="278" y="-235.8" font-family="Palatino Linotype,serif" font-weight="bold" font-size="14.00">Palatino&#45;Bold</text>
<polygon fill="none" stroke="black" points="271.5,-226.5 271.5,-253.5 368.5,-253.5 368.5,-226.5 271.5,-226.5"/>
</g>
<!-- Palatino&#45;Roman&#45;&gt;Palatino&#45;Bold -->
<g id="edge19" class="edge"><title>Palatino&#45;Roman&#45;&gt;Palatino&#45;Bold</title>
<path fill="none" stroke="green" d="M148.559,-240C182.422,-240 226.052,-240 260.691,-240"/>
<polygon fill="green" stroke="green" points="261.132,-243.5 271.132,-240 261.132,-236.5 261.132,-243.5"/>
</g>
<!-- Palatino&#45;Italic -->
<g id="node27" class="node"><title>Palatino&#45;Italic</title>
<polygon fill="none" stroke="black" points="506,-229 506,-250 591,-250 591,-229 506,-229"/>
<text text-anchor="start" x="509" y="-235.8" font-family="Palatino Linotype,serif" font-style="italic" font-size="14.00">Palatino&#45;Italic</text>
<polygon fill="none" stroke="black" points="502.5,-226.5 502.5,-253.5 593.5,-253.5 593.5,-226.5 502.5,-226.5"/>
</g>
<!-- Palatino&#45;Bold&#45;&gt;Palatino&#45;Italic -->
<g id="edge20" class="edge"><title>Palatino&#45;Bold&#45;&gt;Palatino&#45;Italic</title>
<path fill="none" stroke="green" d="M368.653,-240C404.757,-240 454.421,-240 492.174,-240"/>
<polygon fill="green" stroke="green" points="492.485,-243.5 502.485,-240 492.485,-236.5 492.485,-243.5"/>
</g>
<!-- Palatino&#45;BoldItalic -->
<g id="node28" class="node"><title>Palatino&#45;BoldItalic</title>
<polygon fill="none" stroke="black" points="730.5,-229 730.5,-250 857.5,-250 857.5,-229 730.5,-229"/>
<text text-anchor="start" x="733.5" y="-235.8" font-family="Palatino Linotype,serif" font-weight="bold" font-style="italic" font-size="14.00">Palatino&#45;BoldItalic</text>
<polygon fill="none" stroke="black" points="727,-226.5 727,-253.5 860,-253.5 860,-226.5 727,-226.5"/>
</g>
<!-- Palatino&#45;Italic&#45;&gt;Palatino&#45;BoldItalic -->
<g id="edge21" class="edge"><title>Palatino&#45;Italic&#45;&gt;Palatino&#45;BoldItalic</title>
<path fill="none" stroke="green" d="M593.662,-240C627.962,-240 676.131,-240 716.467,-240"/>
<polygon fill="green" stroke="green" points="716.54,-243.5 726.54,-240 716.54,-236.5 716.54,-243.5"/>
</g>
<!-- Times&#45;Roman -->
<g id="node29" class="node"><title>Times&#45;Roman</title>
<polygon fill="none" stroke="black" points="51.5,-266 51.5,-287 136.5,-287 136.5,-266 51.5,-266"/>
<text text-anchor="start" x="54.5" y="-272.8" font-family="Times,serif" font-size="14.00">Times&#45;Roman</text>
<polygon fill="none" stroke="black" points="48,-263.5 48,-290.5 139,-290.5 139,-263.5 48,-263.5"/>
</g>
<!-- Times&#45;Bold -->
<g id="node30" class="node"><title>Times&#45;Bold</title>
<polygon fill="none" stroke="black" points="284,-266 284,-287 356,-287 356,-266 284,-266"/>
<text text-anchor="start" x="287" y="-272.8" font-family="Times,serif" font-weight="bold" font-size="14.00">Times&#45;Bold</text>
<polygon fill="none" stroke="black" points="281,-263.5 281,-290.5 359,-290.5 359,-263.5 281,-263.5"/>
</g>
<!-- Times&#45;Roman&#45;&gt;Times&#45;Bold -->
<g id="edge22" class="edge"><title>Times&#45;Roman&#45;&gt;Times&#45;Bold</title>
<path fill="none" stroke="green" d="M139.122,-277C177.155,-277 231.7,-277 270.74,-277"/>
<polygon fill="green" stroke="green" points="270.811,-280.5 280.811,-277 270.811,-273.5 270.811,-280.5"/>
</g>
<!-- Times&#45;Italic -->
<g id="node31" class="node"><title>Times&#45;Italic</title>
<polygon fill="none" stroke="black" points="512,-266 512,-287 584,-287 584,-266 512,-266"/>
<text text-anchor="start" x="515" y="-272.8" font-family="Times,serif" font-style="italic" font-size="14.00">Times&#45;Italic</text>
<polygon fill="none" stroke="black" points="509,-263.5 509,-290.5 587,-290.5 587,-263.5 509,-263.5"/>
</g>
<!-- Times&#45;Bold&#45;&gt;Times&#45;Italic -->
<g id="edge23" class="edge"><title>Times&#45;Bold&#45;&gt;Times&#45;Italic</title>
<path fill="none" stroke="green" d="M359.082,-277C397.468,-277 456.846,-277 498.56,-277"/>
<polygon fill="green" stroke="green" points="498.762,-280.5 508.762,-277 498.762,-273.5 498.762,-280.5"/>
</g>
<!-- Times&#45;BoldItalic -->
<g id="node32" class="node"><title>Times&#45;BoldItalic</title>
<polygon fill="none" stroke="black" points="745.5,-266 745.5,-287 842.5,-287 842.5,-266 745.5,-266"/>
<text text-anchor="start" x="748.5" y="-272.8" font-family="Times,serif" font-weight="bold" font-style="italic" font-size="14.00">Times&#45;BoldItalic</text>
<polygon fill="none" stroke="black" points="742,-263.5 742,-290.5 845,-290.5 845,-263.5 742,-263.5"/>
</g>
<!-- Times&#45;Italic&#45;&gt;Times&#45;BoldItalic -->
<g id="edge24" class="edge"><title>Times&#45;Italic&#45;&gt;Times&#45;BoldItalic</title>
<path fill="none" stroke="green" d="M587.047,-277C625.721,-277 686.235,-277 731.588,-277"/>
<polygon fill="green" stroke="green" points="731.603,-280.5 741.603,-277 731.603,-273.5 731.603,-280.5"/>
</g>
<!-- ZapfChancery&#45;MediumItalic -->
<g id="node33" class="node"><title>ZapfChancery&#45;MediumItalic</title>
<polygon fill="none" stroke="black" points="474,-303 474,-324 622,-324 622,-303 474,-303"/>
<text text-anchor="start" x="477" y="-309.8" font-family="URW Chancery L,serif" font-weight="medium" font-style="italic" font-size="14.00">ZapfChancery&#45;MediumItalic</text>
<polygon fill="none" stroke="black" points="471,-300.5 471,-327.5 625,-327.5 625,-300.5 471,-300.5"/>
</g>
<!-- ZapfDingbats -->
<g id="node34" class="node"><title>ZapfDingbats</title>
<polygon fill="none" stroke="black" points="271,-303 271,-324 370,-324 370,-303 271,-303"/>
<text text-anchor="start" x="274" y="-309.8" font-family="Dingbats,fantasy" font-size="14.00">ZapfDingbats</text>
<polygon fill="none" stroke="black" points="267.5,-300.5 267.5,-327.5 372.5,-327.5 372.5,-300.5 267.5,-300.5"/>
</g>
<!-- ZapfDingbats&#45;&gt;ZapfChancery&#45;MediumItalic -->
<g id="edge26" class="edge"><title>ZapfDingbats&#45;&gt;ZapfChancery&#45;MediumItalic</title>
<path fill="none" stroke="green" d="M372.566,-314C398.553,-314 430.769,-314 460.416,-314"/>
<polygon fill="green" stroke="green" points="460.78,-317.5 470.78,-314 460.78,-310.5 460.78,-317.5"/>
</g>
<!-- Symbol -->
<g id="node35" class="node"><title>Symbol</title>
<polygon fill="none" stroke="black" points="65.5,-303 65.5,-324 122.5,-324 122.5,-303 65.5,-303"/>
<text text-anchor="start" x="68.5" y="-309.8" font-family="Symbol,fantasy" font-size="14.00">Symbol</text>
<polygon fill="none" stroke="black" points="62,-300.5 62,-327.5 125,-327.5 125,-300.5 62,-300.5"/>
</g>
<!-- Symbol&#45;&gt;ZapfDingbats -->
<g id="edge25" class="edge"><title>Symbol&#45;&gt;ZapfDingbats</title>
<path fill="none" stroke="green" d="M125.245,-314C159.042,-314 214.227,-314 257.075,-314"/>
<polygon fill="green" stroke="green" points="257.125,-317.5 267.125,-314 257.125,-310.5 257.125,-317.5"/>
</g>
</g>
</svg>
